<svg width="32" height="32" viewBox="0 0 32 32" fill="none" xmlns="http://www.w3.org/2000/svg">
<path d="M16 32C24.8366 32 32 24.8366 32 16C32 7.16344 24.8366 0 16 0C7.16344 0 0 7.16344 0 16C0 24.8366 7.16344 32 16 32Z" fill="#627EEA"/>
<path d="M16.0303 4.26562V13.1361L23.5273 16.4865L16.0303 4.26562Z" fill="white" fill-opacity="0.602"/>
<path d="M16.0302 4.26562L8.5332 16.4865L16.0302 13.1361V4.26562Z" fill="white"/>
<path d="M16.0303 22.2349V28.2623L23.5316 17.8828L16.0303 22.2349Z" fill="white" fill-opacity="0.602"/>
<path d="M16.0302 28.2623V22.2349L8.5332 17.8828L16.0302 28.2623Z" fill="white"/>
<path d="M16.0303 20.8393L23.5273 16.4872L16.0303 13.1367V20.8393Z" fill="white" fill-opacity="0.2"/>
<path d="M8.5332 16.4872L16.0302 20.8393V13.1367L8.5332 16.4872Z" fill="white" fill-opacity="0.602"/>
</svg>
