<svg width="24" height="24" viewBox="0 0 24 24" fill="none" xmlns="http://www.w3.org/2000/svg">
<path d="M12 24C18.6274 24 24 18.6274 24 12C24 5.37258 18.6274 0 12 0C5.37258 0 0 5.37258 0 12C0 18.6274 5.37258 24 12 24Z" fill="white"/>
<path d="M15.616 6.61333L13.1121 10.3333C12.939 10.5867 13.2719 10.8933 13.5117 10.68L15.9756 8.53333C16.0422 8.48 16.1354 8.52 16.1354 8.61333V15.32C16.1354 15.4133 16.0155 15.4533 15.9623 15.3867L8.50388 6.45333C8.26415 6.16 7.91787 6 7.53163 6H7.26526C6.5727 6 6 6.57333 6 7.28V16.72C6 17.4267 6.5727 18 7.27858 18C7.71809 18 8.13097 17.7733 8.3707 17.3867L10.8746 13.6667C11.0477 13.4133 10.7148 13.1067 10.475 13.32L8.0111 15.4533C7.94451 15.5067 7.85128 15.4667 7.85128 15.3733V8.68C7.85128 8.58667 7.97114 8.54667 8.02442 8.61333L15.4828 17.5467C15.7225 17.84 16.0821 18 16.4551 18H16.7214C17.4273 18 18 17.4267 18 16.72V7.28C18 6.57333 17.4273 6 16.7214 6C16.2686 6 15.8557 6.22667 15.616 6.61333Z" fill="black"/>
</svg>
