<svg width="30" height="30" viewBox="0 0 30 30" fill="none" xmlns="http://www.w3.org/2000/svg">
<path d="M15 30C23.2843 30 30 23.2843 30 15C30 6.71573 23.2843 0 15 0C6.71573 0 0 6.71573 0 15C0 23.2843 6.71573 30 15 30Z" fill="#DDDDDD"/>
<g clip-path="url(#clip0_5243_141087)">
<path d="M19.52 8.26667L16.3901 12.9167C16.1737 13.2333 16.5899 13.6167 16.8896 13.35L19.9695 10.6667C20.0527 10.6 20.1693 10.65 20.1693 10.7667V19.15C20.1693 19.2667 20.0194 19.3167 19.9528 19.2333L10.6299 8.06667C10.3302 7.7 9.89734 7.5 9.41454 7.5H9.08158C8.21587 7.5 7.5 8.21667 7.5 9.1V20.9C7.5 21.7833 8.21587 22.5 9.09822 22.5C9.64761 22.5 10.1637 22.2167 10.4634 21.7333L13.5932 17.0833C13.8097 16.7667 13.3935 16.3833 13.0938 16.65L10.0139 19.3167C9.93063 19.3833 9.8141 19.3333 9.8141 19.2167V10.85C9.8141 10.7333 9.96393 10.6833 10.0305 10.7667L19.3535 21.9333C19.6532 22.3 20.1027 22.5 20.5688 22.5H20.9018C21.7841 22.5 22.5 21.7833 22.5 20.9V9.1C22.5 8.21667 21.7841 7.5 20.9018 7.5C20.3357 7.5 19.8196 7.78333 19.52 8.26667Z" fill="black"/>
</g>
<defs>
<clipPath id="clip0_5243_141087">
<rect width="15" height="15" fill="white" transform="translate(7.5 7.5)"/>
</clipPath>
</defs>
</svg>
