<svg width="122" height="92" viewBox="0 0 122 92" fill="none" xmlns="http://www.w3.org/2000/svg">
<g clip-path="url(#clip0_4022_27731)">
<path fill-rule="evenodd" clip-rule="evenodd" d="M106.066 44.7197C106.307 52.8119 102.082 59.9627 98.2136 67.0774C93.5821 75.5951 90.1692 85.7096 81.455 89.981C72.2035 94.5157 60.8701 93.8762 51.2915 90.0765C41.9119 86.3559 36.0123 77.7163 30.047 69.5884C23.8852 61.1928 14.4769 52.6441 16.2977 42.3966C18.1257 32.1084 30.6162 28.1928 38.6019 21.4392C44.5748 16.388 49.7879 10.7686 57.0742 7.91191C64.9403 4.8279 73.7249 1.47985 81.5819 4.58835C89.3679 7.66877 92.5623 16.535 96.919 23.676C101.003 30.3704 105.832 36.8851 106.066 44.7197Z" fill="#EBE0FF"/>
<path d="M87.7092 45.7223L77.7723 32.2951C77.5678 32.0183 77.3012 31.7935 76.9939 31.6387C76.6866 31.4839 76.3473 31.4035 76.0033 31.404H45.9974C45.6534 31.4035 45.3141 31.4839 45.0068 31.6387C44.6995 31.7935 44.4329 32.0183 44.2284 32.2951L34.2915 45.7223V62.0852C34.2915 62.9754 34.645 63.8293 35.2742 64.4588C35.9033 65.0883 36.7567 65.442 37.6465 65.442H84.3603C85.2501 65.442 86.1034 65.0883 86.7326 64.4588C87.3618 63.8293 87.7153 62.9754 87.7153 62.0852L87.7092 45.7223Z" fill="#7342CC"/>
<path d="M84.3599 65.741H37.64C36.6693 65.741 35.7384 65.3552 35.052 64.6684C34.3656 63.9817 33.98 63.0503 33.98 62.0791V45.7223C33.9791 45.6566 33.9994 45.5924 34.038 45.5392L43.9749 32.112C44.2087 31.7974 44.5128 31.5418 44.8628 31.3653C45.2127 31.1889 45.599 31.0967 45.9909 31.0958H75.9968C76.3887 31.0967 76.775 31.1889 77.125 31.3653C77.4749 31.5418 77.779 31.7974 78.0129 32.112L87.9497 45.5392C87.9883 45.5924 88.0086 45.6566 88.0077 45.7223V62.0852C88.0061 63.0532 87.6215 63.9812 86.9379 64.6663C86.2543 65.3514 85.3274 65.7378 84.3599 65.741ZM34.5961 45.823V62.0852C34.5961 62.8945 34.9174 63.6707 35.4894 64.243C36.0614 64.8153 36.8372 65.1368 37.6461 65.1368H84.3599C85.1688 65.1368 85.9446 64.8153 86.5166 64.243C87.0886 63.6707 87.4099 62.8945 87.4099 62.0852V45.823L77.534 32.4721C77.3571 32.2341 77.1271 32.0407 76.8624 31.9072C76.5977 31.7737 76.3055 31.7038 76.009 31.7031H45.997C45.7006 31.7038 45.4084 31.7737 45.1436 31.9072C44.8789 32.0407 44.6489 32.2341 44.472 32.4721L34.5961 45.823Z" fill="#616161"/>
<path d="M87.709 45.7223V62.0852C87.709 62.9755 87.3555 63.8293 86.7263 64.4588C86.0971 65.0883 85.2438 65.442 84.354 65.442H37.6402C36.7504 65.442 35.897 65.0883 35.2678 64.4588C34.6386 63.8293 34.2852 62.9755 34.2852 62.0852V45.7223H48.7452L50.1055 52.4359C50.2286 53.0393 50.5564 53.5816 51.0333 53.9709C51.5102 54.3601 52.1069 54.5725 52.7224 54.5721H69.4486C70.0722 54.5715 70.676 54.3533 71.156 53.955C71.636 53.5566 71.9619 53.0032 72.0777 52.3901L73.3343 45.704L87.709 45.7223Z" fill="#FFD966"/>
<path d="M84.3573 65.741H37.6405C36.6698 65.741 35.7388 65.3552 35.0525 64.6684C34.3661 63.9817 33.9805 63.0503 33.9805 62.0791V45.7223C33.9805 45.6414 34.0126 45.5637 34.0698 45.5065C34.127 45.4493 34.2046 45.4171 34.2855 45.4171H48.7455C48.8169 45.4157 48.8865 45.4393 48.9422 45.4839C48.9979 45.5286 49.0363 45.5913 49.0505 45.6613L50.4108 52.3749C50.5191 52.9105 50.8089 53.3922 51.2313 53.7387C51.6536 54.0851 52.1827 54.2749 52.7288 54.276H69.455C70.0075 54.2755 70.5424 54.0819 70.9673 53.7286C71.3923 53.3753 71.6805 52.8846 71.7822 52.3413L73.0388 45.6552C73.0524 45.5846 73.0904 45.5212 73.1462 45.476C73.202 45.4307 73.272 45.4067 73.3438 45.408H87.7123C87.7932 45.408 87.8708 45.4401 87.928 45.4974C87.9852 45.5546 88.0173 45.6322 88.0173 45.7131V62.076C88.0177 62.5571 87.9233 63.0337 87.7396 63.4783C87.5558 63.9229 87.2863 64.327 86.9464 64.6674C86.6065 65.0077 86.2029 65.2778 85.7586 65.462C85.3144 65.6462 84.8382 65.741 84.3573 65.741ZM34.5966 46.0275V62.0852C34.5966 62.8945 34.9179 63.6707 35.4899 64.243C36.0619 64.8153 36.8377 65.1368 37.6466 65.1368H84.3573C85.1662 65.1368 85.942 64.8153 86.514 64.243C87.086 63.6707 87.4073 62.8945 87.4073 62.0852V46.0275H73.5938L72.3739 52.4634C72.2472 53.1482 71.8851 53.7671 71.3504 54.2129C70.8156 54.6588 70.1419 54.9035 69.4459 54.9047H52.7288C52.042 54.9036 51.3767 54.6652 50.8454 54.2298C50.3141 53.7944 49.9494 53.1887 49.813 52.5152L48.4954 46.0275H34.5966Z" fill="#616161"/>
<path d="M46.0247 58.7741H40.0345C39.9536 58.7741 39.876 58.742 39.8188 58.6848C39.7616 58.6275 39.7295 58.5499 39.7295 58.469C39.7295 58.388 39.7616 58.3104 39.8188 58.2532C39.876 58.196 39.9536 58.1638 40.0345 58.1638H46.0247C46.1056 58.1638 46.1832 58.196 46.2404 58.2532C46.2976 58.3104 46.3297 58.388 46.3297 58.469C46.3297 58.5499 46.2976 58.6275 46.2404 58.6848C46.1832 58.742 46.1056 58.7741 46.0247 58.7741Z" fill="#616161"/>
<path d="M50.173 27.385C50.0788 27.3846 49.986 27.3623 49.9019 27.3199C49.8177 27.2776 49.7445 27.2163 49.688 27.1409L45.537 21.648C45.4395 21.5185 45.3974 21.3555 45.42 21.195C45.4426 21.0345 45.528 20.8895 45.6575 20.792C45.7869 20.6945 45.9497 20.6524 46.1102 20.675C46.2706 20.6976 46.4155 20.783 46.513 20.9125L50.661 26.4055C50.7584 26.5346 50.8005 26.6971 50.7782 26.8573C50.7559 27.0176 50.671 27.1624 50.542 27.2599C50.436 27.3409 50.3064 27.3848 50.173 27.385Z" fill="#7647CC"/>
<path d="M69.8269 27.385C69.6937 27.3837 69.5644 27.3399 69.4579 27.2599C69.3289 27.1623 69.244 27.0175 69.2217 26.8573C69.1994 26.6971 69.2415 26.5346 69.3389 26.4055L73.49 20.9125C73.5894 20.7891 73.733 20.7092 73.8902 20.6898C74.0475 20.6704 74.2062 20.713 74.3326 20.8086C74.459 20.9041 74.5433 21.0452 74.5677 21.2019C74.592 21.3585 74.5544 21.5185 74.4629 21.648L70.3149 27.1409C70.2581 27.2167 70.1844 27.2782 70.0997 27.3206C70.015 27.363 69.9216 27.385 69.8269 27.385Z" fill="#7647CC"/>
<path d="M60.4786 25.5541C60.3169 25.5541 60.1617 25.4898 60.0473 25.3753C59.9329 25.2608 59.8687 25.1056 59.8687 24.9437V17.3604C59.8687 17.1985 59.9329 17.0433 60.0473 16.9289C60.1617 16.8144 60.3169 16.7501 60.4786 16.7501C60.6404 16.7501 60.7956 16.8144 60.91 16.9289C61.0244 17.0433 61.0886 17.1985 61.0886 17.3604V24.9437C61.0886 25.1056 61.0244 25.2608 60.91 25.3753C60.7956 25.4898 60.6404 25.5541 60.4786 25.5541Z" fill="#7647CC"/>
<path d="M89.4995 56.4427H71.9345C71.2792 56.4427 70.748 56.9742 70.748 57.6298V65.6586C70.748 66.3142 71.2792 66.8457 71.9345 66.8457H89.4995C90.1547 66.8457 90.6859 66.3142 90.6859 65.6586V57.6298C90.6859 56.9742 90.1547 56.4427 89.4995 56.4427Z" fill="#FFD966"/>
<path d="M89.4993 67.1539H71.9343C71.539 67.1531 71.1601 66.9956 70.8806 66.716C70.6011 66.4363 70.4437 66.0572 70.4429 65.6617V57.6298C70.4437 57.2343 70.6011 56.8552 70.8806 56.5755C71.1601 56.2958 71.539 56.1383 71.9343 56.1375H89.4993C89.8946 56.1383 90.2735 56.2958 90.553 56.5755C90.8325 56.8552 90.9899 57.2343 90.9907 57.6298V65.6617C90.9899 66.0572 90.8325 66.4363 90.553 66.716C90.2735 66.9956 89.8946 67.1531 89.4993 67.1539ZM71.9343 56.7479C71.7005 56.7479 71.4763 56.8408 71.311 57.0062C71.1457 57.1716 71.0529 57.3959 71.0529 57.6298V65.6617C71.0529 65.8956 71.1457 66.1199 71.311 66.2853C71.4763 66.4507 71.7005 66.5436 71.9343 66.5436H89.4993C89.7328 66.5428 89.9565 66.4496 90.1217 66.2844C90.2868 66.1192 90.3799 65.8953 90.3807 65.6617V57.6298C90.3799 57.3961 90.2868 57.1723 90.1217 57.0071C89.9565 56.8418 89.7328 56.7487 89.4993 56.7479H71.9343Z" fill="#616161"/>
<path d="M73.7524 59.5797H76.0887V60.2816H74.5088V60.9225H76.0003V61.6213H74.5088V62.3232H76.1741V63.022H73.7524V59.5797Z" fill="#616161"/>
<path d="M76.6895 60.6478H77.391V60.9683C77.4155 60.9182 77.4486 60.8728 77.4886 60.834C77.5316 60.7856 77.582 60.7444 77.638 60.7119C77.7003 60.6747 77.7669 60.6449 77.8363 60.6234C77.9156 60.601 77.9978 60.5897 78.0803 60.5899C78.2327 60.587 78.3835 60.6216 78.5195 60.6906C78.6499 60.7623 78.7521 60.8764 78.8092 61.014C78.8768 60.8777 78.9828 60.7642 79.1142 60.6875C79.2462 60.6264 79.3893 60.5932 79.5347 60.59C79.6801 60.5869 79.8246 60.6138 79.9591 60.6692C80.0613 60.7202 80.1493 60.7957 80.2153 60.8889C80.2818 60.9878 80.3284 61.0987 80.3525 61.2154C80.3803 61.3468 80.3936 61.4809 80.3922 61.6152V63.0098H79.6632V61.6335C79.6654 61.5344 79.6412 61.4364 79.5931 61.3497C79.5664 61.3088 79.5289 61.276 79.4848 61.255C79.4406 61.234 79.3916 61.2256 79.343 61.2307C79.2705 61.2285 79.1984 61.2431 79.1325 61.2734C79.0774 61.298 79.03 61.337 78.9953 61.3863C78.9606 61.4383 78.9358 61.4962 78.9221 61.5572C78.9069 61.6243 78.8998 61.6929 78.9007 61.7617V63.0098H78.1718V61.7617C78.1718 61.719 78.1718 61.6671 78.1718 61.606C78.1687 61.5455 78.1563 61.4858 78.1352 61.4291C78.1175 61.3743 78.0847 61.3256 78.0406 61.2887C77.9849 61.2482 77.9172 61.2278 77.8485 61.2307C77.77 61.2279 77.6921 61.2458 77.6228 61.2826C77.566 61.3135 77.5194 61.3601 77.4886 61.4168C77.4569 61.4768 77.4363 61.5419 77.4276 61.6091C77.4228 61.6843 77.4228 61.7597 77.4276 61.8349V63.0098H76.6986L76.6895 60.6478Z" fill="#616161"/>
<path d="M80.9839 60.6478H81.6549V60.953C81.6883 60.9058 81.7272 60.8628 81.7708 60.8248C81.8193 60.777 81.8749 60.7369 81.9355 60.7058C82.0005 60.6696 82.0689 60.6399 82.1398 60.6173C82.2182 60.5951 82.2993 60.5838 82.3808 60.5837C82.5436 60.5822 82.7052 60.6122 82.8566 60.6722C82.994 60.7318 83.1184 60.8179 83.2226 60.9255C83.3257 61.0379 83.4055 61.1697 83.4574 61.3131C83.5139 61.4706 83.5418 61.637 83.5398 61.8044C83.5404 61.9649 83.5157 62.1246 83.4666 62.2774C83.4185 62.4224 83.3452 62.5577 83.2501 62.6772C83.1597 62.7938 83.0453 62.8896 82.9145 62.9579C82.7749 63.029 82.6198 63.0647 82.4631 63.0617C82.3178 63.0639 82.1732 63.0401 82.0361 62.9915C81.906 62.9465 81.7931 62.8623 81.7128 62.7504V64.1114H80.9839V60.6478ZM81.6549 61.8288C81.6474 61.9876 81.7021 62.1431 81.8074 62.2621C81.8635 62.3183 81.9307 62.362 82.0049 62.3904C82.079 62.4188 82.1582 62.4313 82.2374 62.4269C82.3167 62.4318 82.3962 62.4197 82.4704 62.3913C82.5445 62.3628 82.6118 62.3188 82.6675 62.2621C82.766 62.1392 82.8197 61.9864 82.8197 61.8288C82.8197 61.6712 82.766 61.5184 82.6675 61.3955C82.6118 61.3388 82.5445 61.2948 82.4704 61.2664C82.3962 61.2379 82.3167 61.2258 82.2374 61.2307C82.1582 61.2264 82.079 61.2388 82.0049 61.2672C81.9307 61.2956 81.8635 61.3393 81.8074 61.3955C81.7537 61.4559 81.7126 61.5265 81.6865 61.6029C81.6603 61.6794 81.6496 61.7603 81.6549 61.841V61.8288Z" fill="#616161"/>
<path d="M85.5862 61.2582H84.9427V62.0455C84.9377 62.1044 84.9377 62.1636 84.9427 62.2225C84.9462 62.2719 84.9608 62.3199 84.9854 62.3629C85.0103 62.4021 85.0464 62.4329 85.0891 62.4514C85.148 62.4756 85.2114 62.487 85.2751 62.4849C85.3148 62.4849 85.3666 62.4849 85.4307 62.4849C85.4831 62.4801 85.5329 62.4599 85.574 62.4269V63.0373C85.4923 63.067 85.4073 63.0865 85.3208 63.0952C85.2349 63.1063 85.1483 63.1114 85.0616 63.1105C84.9475 63.112 84.8337 63.0986 84.7231 63.0708C84.6254 63.0484 84.5332 63.0069 84.4516 62.9488C84.3725 62.8915 84.3094 62.8148 84.2686 62.726C84.2217 62.6226 84.1988 62.5099 84.2015 62.3964V61.2582H83.7349V60.6478H84.2015V59.949H84.9305V60.6478H85.574L85.5862 61.2582Z" fill="#616161"/>
<path d="M87.3155 63.3943C87.2667 63.5194 87.2179 63.6323 87.1721 63.73C87.1329 63.8224 87.0747 63.9056 87.0013 63.9741C86.9259 64.0448 86.835 64.0971 86.736 64.1267C86.5988 64.1635 86.457 64.18 86.3151 64.1755C86.1297 64.1767 85.9453 64.1479 85.7691 64.0901L85.8667 63.4797C85.9731 63.5278 86.0885 63.5528 86.2053 63.553C86.2734 63.5551 86.3415 63.5459 86.4066 63.5255C86.4552 63.5102 86.4993 63.4829 86.5347 63.4462C86.5696 63.4104 86.5985 63.3692 86.6201 63.3241L86.6933 63.1532L86.7451 63.0159L85.7051 60.6478H86.492L87.102 62.2072L87.6235 60.6478H88.3708L87.3155 63.3943Z" fill="#616161"/>
</g>
<defs>
<clipPath id="clip0_4022_27731">
<rect width="122" height="92" fill="white"/>
</clipPath>
</defs>
</svg>
