<svg width="122" height="92" viewBox="0 0 122 92" fill="none" xmlns="http://www.w3.org/2000/svg">
<path opacity="0.3" d="M17.1063 35.0966C17.1063 35.0966 0.438004 72.766 44.3245 73.2939C88.2109 73.8219 108.274 68.036 108.472 48.8809C108.67 29.7257 92.8652 11.8157 65.3146 11.6174C37.7639 11.419 22.8647 18.627 17.1063 35.0966Z" fill="#DECCFF"/>
<path d="M81.8822 21.9684H54.3499L54.7281 48.9754H92.5206V32.6125C92.5206 29.7896 91.3998 27.0822 89.4047 25.086C87.4096 23.0899 84.7037 21.9684 81.8822 21.9684Z" fill="#DECCFF"/>
<path d="M54.3498 21.9684C57.1713 21.9684 59.8772 23.0899 61.8723 25.086C63.8674 27.0822 64.9882 29.7896 64.9882 32.6125V48.9754H43.7114V32.6125C43.7114 29.7896 44.8323 27.0822 46.8273 25.086C48.8224 23.0899 51.5284 21.9684 54.3498 21.9684Z" fill="#7342CC"/>
<path d="M54.3499 75.9824C51.5284 75.9824 48.8225 74.861 46.8274 72.8648C44.8323 70.8687 43.7115 68.1613 43.7115 65.3383V48.9755H64.9883V65.3383C64.9883 68.1613 63.8675 70.8687 61.8724 72.8648C59.8773 74.861 57.1714 75.9824 54.3499 75.9824Z" fill="#9E9E9E"/>
<path d="M54.3499 75.9824C51.5284 75.9824 48.8225 74.861 46.8274 72.8648C44.8323 70.8687 43.7115 68.1613 43.7115 65.3383V48.9755H64.9883V65.3383C64.9883 68.1613 63.8675 70.8687 61.8724 72.8648C59.8773 74.861 57.1714 75.9824 54.3499 75.9824Z" fill="#DECCFF"/>
<path d="M74.2053 10C74.3671 10 74.5223 10.0643 74.6367 10.1788C74.7511 10.2932 74.8153 10.4485 74.8153 10.6103V33.0856H73.5679V10.6225C73.5679 10.4607 73.6321 10.3054 73.7465 10.191C73.8609 10.0765 74.0161 10.0122 74.1779 10.0122L74.2053 10Z" fill="#9E9E9E"/>
<path opacity="0.44" d="M74.2053 10C74.3671 10 74.5223 10.0643 74.6367 10.1788C74.7511 10.2932 74.8153 10.4485 74.8153 10.6103V33.0856H73.5679V10.6225C73.5679 10.4607 73.6321 10.3054 73.7465 10.191C73.8609 10.0765 74.0161 10.0122 74.1779 10.0122L74.2053 10Z" fill="#7647CC"/>
<path d="M74.242 35.472C75.5526 35.472 76.615 34.409 76.615 33.0978C76.615 31.7866 75.5526 30.7236 74.242 30.7236C72.9315 30.7236 71.8691 31.7866 71.8691 33.0978C71.8691 34.409 72.9315 35.472 74.242 35.472Z" fill="#7342CC"/>
<path d="M74.8276 10.6225H80.6684V12.9234L74.8276 14.4035V10.6225Z" fill="#FFD966"/>
<path d="M79.2929 48.9754H69.0144V52.7137H79.2929V48.9754Z" fill="#616161"/>
<path d="M76.6119 52.7137H71.6099V82.461H76.6119V52.7137Z" fill="#9E9E9E"/>
<path opacity="0.44" d="M76.6119 52.7137H71.6099V82.461H76.6119V52.7137Z" fill="white"/>
<path opacity="0.09" d="M71.6099 52.7137V62.6834L76.6119 59.4944V52.7137H71.6099Z" fill="black"/>
<path d="M28.8093 32.9086C34.9172 32.9086 39.8686 28.1922 39.8686 22.3743C39.8686 16.5564 34.9172 11.8401 28.8093 11.8401C22.7014 11.8401 17.75 16.5564 17.75 22.3743C17.75 28.1922 22.7014 32.9086 28.8093 32.9086Z" fill="#FFD966"/>
<path d="M34.04 30.1407L40.9727 33.5647L35.8914 27.1257L34.04 30.1407Z" fill="#FFD966"/>
<ellipse cx="24.5484" cy="22.1006" rx="0.884058" ry="0.884615" fill="white"/>
<ellipse cx="28.9688" cy="22.1006" rx="0.884058" ry="0.884615" fill="white"/>
<ellipse cx="33.3889" cy="22.1006" rx="0.884058" ry="0.884615" fill="white"/>
</svg>
