<svg width="91" height="91" viewBox="0 0 91 91" fill="none" xmlns="http://www.w3.org/2000/svg">
<path d="M15 76L28.0435 64M20.2174 44C20.2174 59.464 32.4809 72 47.6087 72C62.7365 72 75 59.464 75 44C75 28.536 62.7365 16 47.6087 16C32.4809 16 20.2174 28.536 20.2174 44Z" stroke="#757575" stroke-width="3" stroke-linecap="round" stroke-linejoin="round"/>
<path d="M48.0002 32L48.4474 31.1056C48.1658 30.9648 47.8345 30.9648 47.5529 31.1056L48.0002 32ZM58.6668 37.3333H59.6668C59.6668 36.9546 59.4528 36.6083 59.114 36.4389L58.6668 37.3333ZM37.3335 37.3333L36.8863 36.4389C36.5475 36.6083 36.3335 36.9546 36.3335 37.3333H37.3335ZM58.6668 50.6667L59.114 51.5611C59.4528 51.3917 59.6668 51.0454 59.6668 50.6667H58.6668ZM48.0002 56L47.5529 56.8944C47.8345 57.0352 48.1658 57.0352 48.4474 56.8944L48.0002 56ZM37.3335 50.6667H36.3335C36.3335 51.0454 36.5475 51.3917 36.8863 51.5611L37.3335 50.6667ZM47.5529 32.8944L58.2196 38.2278L59.114 36.4389L48.4474 31.1056L47.5529 32.8944ZM58.2196 36.4389L47.5529 41.7722L48.4474 43.5611L59.114 38.2278L58.2196 36.4389ZM48.4474 41.7722L37.7807 36.4389L36.8863 38.2278L47.5529 43.5611L48.4474 41.7722ZM37.7807 38.2278L48.4474 32.8944L47.5529 31.1056L36.8863 36.4389L37.7807 38.2278ZM58.2196 49.7722L47.5529 55.1056L48.4474 56.8944L59.114 51.5611L58.2196 49.7722ZM48.4474 55.1056L37.7807 49.7722L36.8863 51.5611L47.5529 56.8944L48.4474 55.1056ZM38.3335 50.6667V37.3333H36.3335V50.6667H38.3335ZM59.6668 50.6667V37.3333H57.6668V50.6667H59.6668ZM47.0002 42.6667V56H49.0002V42.6667H47.0002Z" fill="#9E9E9E"/>
</svg>
