<svg width="91" height="91" viewBox="0 0 91 91" fill="none" xmlns="http://www.w3.org/2000/svg">
<path d="M15 76L28.0435 64M20.2174 44C20.2174 59.464 32.4809 72 47.6087 72C62.7365 72 75 59.464 75 44C75 28.536 62.7365 16 47.6087 16C32.4809 16 20.2174 28.536 20.2174 44Z" stroke="#757575" stroke-width="3" stroke-linecap="round" stroke-linejoin="round"/>
<path d="M47 32.8056C47.9773 31.6983 49.4071 31 51 31C53.9455 31 56.3333 33.3878 56.3333 36.3333C56.3333 39.2789 53.9455 41.6667 51 41.6667C49.4071 41.6667 47.9773 40.9683 47 39.8611M51 55H35V53.6667C35 49.2484 38.5817 45.6667 43 45.6667C47.4183 45.6667 51 49.2484 51 53.6667V55ZM51 55H59V53.6667C59 49.2484 55.4183 45.6667 51 45.6667C49.5429 45.6667 48.1767 46.0562 47 46.7369M48.3333 36.3333C48.3333 39.2789 45.9455 41.6667 43 41.6667C40.0545 41.6667 37.6667 39.2789 37.6667 36.3333C37.6667 33.3878 40.0545 31 43 31C45.9455 31 48.3333 33.3878 48.3333 36.3333Z" stroke="#9E9E9E" stroke-width="2" stroke-linecap="round" stroke-linejoin="round"/>
</svg>
