<svg width="16" height="16" viewBox="0 0 16 16" fill="none" xmlns="http://www.w3.org/2000/svg">
<path d="M10.6998 0.800049C10.0652 0.800049 9.3089 1.33965 9.3089 3.90786C9.3089 5.35224 9.71375 6.70039 9.73077 6.75705L9.8177 7.04135L10.1194 6.9741C10.1548 6.96627 10.9977 6.77649 11.9105 6.37736C12.7028 6.03145 14.5453 5.06182 14.5453 3.53918C14.5453 2.70899 14.1489 1.73918 13.0316 1.73918C12.7057 1.73918 12.4403 1.85073 12.2505 1.96968C11.8836 1.43813 11.3151 0.800049 10.6998 0.800049ZM3.69668 1.42614C2.53322 1.42614 1.78162 2.03857 1.78162 2.98646C1.78162 3.29168 1.89784 3.53467 2.0258 3.71404C1.46878 4.05213 0.799805 4.59695 0.799805 5.26092C0.799805 5.70794 1.11705 6.74787 4.05399 6.74787C5.72439 6.74787 6.98542 6.35726 7.03844 6.34067L7.31266 6.25446L7.25705 5.98361C7.2433 5.9163 6.9121 4.3247 6.02978 2.88313C5.72149 2.37913 4.83657 1.42614 3.69668 1.42614ZM6.38709 8.95691L6.11351 9.02845C6.02417 9.05192 5.21615 9.27072 4.36721 9.7597C3.32517 10.3595 2.1089 11.4614 2.1089 12.5918C2.1089 13.9438 3.01059 14.574 3.61998 14.574C4.01892 14.574 4.32787 14.4347 4.5334 14.2994C4.85249 14.656 5.42888 15.2 6.13972 15.2C7.33132 15.2 7.34526 13.0172 7.34526 12.9953C7.34526 11.0979 6.53459 9.28244 6.50023 9.20637L6.38709 8.95691ZM11.8427 9.25222C10.1271 9.25222 9.01626 9.56557 8.97012 9.57872L8.69845 9.65637L8.74 9.92417C8.74655 9.96737 8.90948 10.9935 9.35556 11.9987C10.0922 13.6594 11.1032 14.574 12.2032 14.574C13.7938 14.574 14.218 13.6853 14.218 13.1604C14.218 12.817 14.0934 12.5376 13.9668 12.3429C14.4361 12.0336 15.1998 11.4346 15.1998 10.8125C15.1998 9.53909 12.7136 9.25222 11.8427 9.25222Z" fill="white"/>
</svg>
