<svg width="24" height="24" viewBox="0 0 24 24" fill="none" xmlns="http://www.w3.org/2000/svg">
<rect width="24" height="24" rx="5" fill="#6E3FC3"/>
<path d="M14.6998 4.80005C14.0652 4.80005 13.3089 5.33965 13.3089 7.90786C13.3089 9.35224 13.7138 10.7004 13.7308 10.757L13.8177 11.0414L14.1194 10.9741C14.1548 10.9663 14.9977 10.7765 15.9105 10.3774C16.7028 10.0314 18.5453 9.06182 18.5453 7.53918C18.5453 6.70899 18.1489 5.73918 17.0316 5.73918C16.7057 5.73918 16.4403 5.85073 16.2505 5.96968C15.8836 5.43813 15.3151 4.80005 14.6998 4.80005ZM7.69668 5.42614C6.53322 5.42614 5.78162 6.03857 5.78162 6.98646C5.78162 7.29168 5.89784 7.53467 6.0258 7.71404C5.46878 8.05213 4.7998 8.59695 4.7998 9.26092C4.7998 9.70794 5.11705 10.7479 8.05399 10.7479C9.72439 10.7479 10.9854 10.3573 11.0384 10.3407L11.3127 10.2545L11.257 9.98361C11.2433 9.9163 10.9121 8.3247 10.0298 6.88313C9.72149 6.37913 8.83657 5.42614 7.69668 5.42614ZM10.3871 12.9569L10.1135 13.0284C10.0242 13.0519 9.21615 13.2707 8.36721 13.7597C7.32517 14.3595 6.1089 15.4614 6.1089 16.5918C6.1089 17.9438 7.01059 18.574 7.61998 18.574C8.01892 18.574 8.32787 18.4347 8.5334 18.2994C8.85249 18.656 9.42888 19.2 10.1397 19.2C11.3313 19.2 11.3453 17.0172 11.3453 16.9953C11.3453 15.0979 10.5346 13.2824 10.5002 13.2064L10.3871 12.9569ZM15.8427 13.2522C14.1271 13.2522 13.0163 13.5656 12.9701 13.5787L12.6985 13.6564L12.74 13.9242C12.7465 13.9674 12.9095 14.9935 13.3556 15.9987C14.0922 17.6594 15.1032 18.574 16.2032 18.574C17.7938 18.574 18.218 17.6853 18.218 17.1604C18.218 16.817 18.0934 16.5376 17.9668 16.3429C18.4361 16.0336 19.1998 15.4346 19.1998 14.8125C19.1998 13.5391 16.7136 13.2522 15.8427 13.2522Z" fill="white"/>
</svg>
