<svg width="24" height="24" viewBox="0 0 24 24" fill="none" xmlns="http://www.w3.org/2000/svg">
<rect width="24" height="24" rx="5" fill="#6E3FC3"/>
<path d="M15.2997 19.2H8.69986C6.5494 19.2 4.7998 17.4506 4.7998 15.3V8.70011C4.7998 6.54947 6.5494 4.80005 8.69986 4.80005H15.2997C17.4504 4.80005 19.1998 6.54947 19.1998 8.70011V15.3002C19.1998 17.4506 17.4504 19.2 15.2997 19.2ZM8.69986 6.00011C7.21108 6.00011 5.99986 7.21133 5.99986 8.70011V15.3002C5.99986 16.7889 7.21108 18.0002 8.69986 18.0002H15.2997C16.7885 18.0002 17.9997 16.7889 17.9997 15.3002V8.70011C17.9997 7.21133 16.7885 6.00011 15.2997 6.00011H8.69986Z" fill="white"/>
<path d="M11.9999 15.5999C10.0149 15.5999 8.3999 13.9848 8.3999 11.9999C8.3999 10.0147 10.0149 8.3999 11.9999 8.3999C13.9849 8.3999 15.5999 10.0147 15.5999 11.9999C15.5999 13.9848 13.9849 15.5999 11.9999 15.5999ZM11.9999 9.59996C10.6765 9.59996 9.59996 10.6765 9.59996 11.9999C9.59996 13.3234 10.6765 14.3998 11.9999 14.3998C13.3233 14.3998 14.3998 13.3234 14.3998 11.9999C14.3998 10.6765 13.3234 9.59996 11.9999 9.59996Z" fill="white"/>
<path d="M15.8249 8.99998C16.2805 8.99998 16.6499 8.63064 16.6499 8.17504C16.6499 7.71944 16.2805 7.3501 15.8249 7.3501C15.3693 7.3501 15 7.71944 15 8.17504C15 8.63064 15.3693 8.99998 15.8249 8.99998Z" fill="white"/>
</svg>
