<svg width="24" height="24" viewBox="0 0 24 24" fill="none" xmlns="http://www.w3.org/2000/svg">
<rect width="24" height="24" rx="5" fill="#6E3FC3"/>
<path d="M14.4733 15.0319C13.853 15.0319 13.3473 14.5118 13.3473 13.8738C13.3473 13.2358 13.853 12.7156 14.4733 12.7156C15.0935 12.7156 15.5993 13.2358 15.5993 13.8738C15.5993 14.5118 15.0935 15.0319 14.4733 15.0319ZM14.6721 16.9326C13.9027 17.7217 12.431 17.784 11.9987 17.784C11.5665 17.784 10.0926 17.7217 9.32533 16.9326C9.21079 16.8148 9.21079 16.6258 9.32533 16.508C9.43988 16.3902 9.62358 16.3902 9.73812 16.508C10.2222 17.0059 11.2574 17.1838 11.9987 17.1838C12.7379 17.1838 13.7752 17.0059 14.2593 16.508C14.3739 16.3902 14.5576 16.3902 14.6721 16.508C14.7845 16.6258 14.7845 16.8148 14.6721 16.9326ZM8.39386 13.8738C8.39386 13.2358 8.89958 12.7156 9.51984 12.7156C10.1401 12.7156 10.6458 13.2358 10.6458 13.8738C10.6458 14.5118 10.1401 15.0319 9.51984 15.0319C8.89958 15.0319 8.39386 14.5118 8.39386 13.8738ZM19.1998 12.7156C19.1998 11.8197 18.4953 11.095 17.6243 11.095C17.1985 11.095 16.8139 11.2684 16.5307 11.5508C15.4545 10.7505 13.9697 10.2348 12.3164 10.1747L13.0339 6.70024L15.3788 7.21374C15.4069 7.82728 15.8953 8.31634 16.4983 8.31634C17.1207 8.31634 17.6243 7.79838 17.6243 7.15817C17.6243 6.51795 17.1207 6 16.4983 6C16.0553 6 15.6771 6.26453 15.4934 6.64688L12.874 6.07336C12.8005 6.0578 12.7249 6.07114 12.6622 6.11337C12.5995 6.15561 12.5563 6.22007 12.5412 6.29566L11.7545 10.108C11.7502 10.1303 11.7545 10.1503 11.7545 10.1725C10.0709 10.217 8.55811 10.7349 7.46455 11.5463C7.18143 11.2662 6.7989 11.095 6.37531 11.095C5.50435 11.095 4.7998 11.822 4.7998 12.7156C4.7998 13.3736 5.18234 13.9405 5.73128 14.1939C5.7075 14.3539 5.69454 14.5184 5.69454 14.6851C5.69454 17.1793 8.51705 19.2 11.9987 19.2C15.4804 19.2 18.3029 17.1793 18.3029 14.6851C18.3029 14.5206 18.2899 14.3584 18.2662 14.1983C18.813 13.9449 19.1998 13.378 19.1998 12.7156Z" fill="white"/>
</svg>
