<svg width="16" height="14" viewBox="0 0 16 14" fill="none" xmlns="http://www.w3.org/2000/svg">
<path d="M10.4733 9.03193C9.85302 9.03193 9.34731 8.51175 9.34731 7.87376C9.34731 7.23577 9.85302 6.71559 10.4733 6.71559C11.0935 6.71559 11.5993 7.23577 11.5993 7.87376C11.5993 8.51175 11.0935 9.03193 10.4733 9.03193ZM10.6721 10.9326C9.90273 11.7217 8.43096 11.784 7.99872 11.784C7.56649 11.784 6.09256 11.7217 5.32533 10.9326C5.21079 10.8148 5.21079 10.6258 5.32533 10.508C5.43988 10.3902 5.62358 10.3902 5.73812 10.508C6.22223 11.0059 7.25744 11.1838 7.99872 11.1838C8.73785 11.1838 9.77522 11.0059 10.2593 10.508C10.3739 10.3902 10.5576 10.3902 10.6721 10.508C10.7845 10.6258 10.7845 10.8148 10.6721 10.9326ZM4.39386 7.87376C4.39386 7.23577 4.89958 6.71559 5.51984 6.71559C6.1401 6.71559 6.64582 7.23577 6.64582 7.87376C6.64582 8.51175 6.1401 9.03193 5.51984 9.03193C4.89958 9.03193 4.39386 8.51175 4.39386 7.87376ZM15.1998 6.71559C15.1998 5.81974 14.4953 5.09505 13.6243 5.09505C13.1985 5.09505 12.8139 5.26844 12.5307 5.55076C11.4545 4.75049 9.96973 4.23476 8.31642 4.17474L9.03393 0.700236L11.3788 1.21374C11.4069 1.82728 11.8953 2.31634 12.4983 2.31634C13.1207 2.31634 13.6243 1.79838 13.6243 1.15817C13.6243 0.517952 13.1207 0 12.4983 0C12.0553 0 11.6771 0.264534 11.4934 0.646885L8.874 0.0733581C8.80052 0.0577973 8.72488 0.0711352 8.66221 0.113372C8.59953 0.155608 8.55631 0.220074 8.54118 0.295655L7.75451 4.10805C7.75019 4.13028 7.75451 4.15029 7.75451 4.17252C6.07094 4.21698 4.55811 4.73493 3.46455 5.54631C3.18143 5.26622 2.7989 5.09505 2.37531 5.09505C1.50435 5.09505 0.799805 5.82196 0.799805 6.71559C0.799805 7.37359 1.18234 7.94045 1.73128 8.19387C1.7075 8.35392 1.69454 8.51842 1.69454 8.68515C1.69454 11.1793 4.51705 13.2 7.99872 13.2C11.4804 13.2 14.3029 11.1793 14.3029 8.68515C14.3029 8.52065 14.2899 8.35837 14.2662 8.19832C14.813 7.9449 15.1998 7.37804 15.1998 6.71559Z" fill="white"/>
</svg>
