<svg width="24" height="24" viewBox="0 0 24 24" fill="none" xmlns="http://www.w3.org/2000/svg">
<rect width="24" height="24" rx="5" fill="#6E3FC3"/>
<path d="M12.4709 15.3977C11.9174 15.9294 11.3729 16.4567 10.8284 16.984C10.6394 17.1672 10.4279 17.2699 10.1534 17.2565C9.9689 17.2476 9.8654 17.1672 9.8069 16.9929C9.3929 15.7149 8.9699 14.4369 8.55591 13.1545C8.51541 13.0294 8.45691 12.9713 8.33091 12.9311C7.35441 12.6361 6.37342 12.3323 5.40142 12.024C5.25292 11.9748 5.09992 11.9167 4.96942 11.8274C4.76692 11.6933 4.73992 11.4743 4.91992 11.3135C5.08642 11.166 5.28442 11.0409 5.49142 10.9605C6.68841 10.4913 7.88991 10.0355 9.0914 9.57525C12.1379 8.40899 15.1844 7.23825 18.2309 6.07198C18.8114 5.84856 19.2569 6.16135 19.1939 6.78694C19.1534 7.18463 19.0499 7.57785 18.9689 7.97108C18.3074 11.0722 17.6459 14.1778 16.9799 17.2789C16.8224 18.0162 16.3004 18.2083 15.6929 17.7615C14.6714 17.0152 13.6499 16.2645 12.6284 15.5138C12.5789 15.4736 12.5294 15.4379 12.4709 15.3977ZM10.1759 16.3405C10.1894 16.336 10.1984 16.336 10.2119 16.3316C10.2164 16.3003 10.2254 16.2735 10.2299 16.2467C10.2974 15.5451 10.3649 14.8391 10.4234 14.1375C10.4369 13.9812 10.4909 13.8694 10.6079 13.7622C11.5484 12.9266 12.4889 12.0821 13.4249 11.242C14.4644 10.3125 15.5039 9.38311 16.5389 8.4492C16.6019 8.39111 16.6289 8.29281 16.6739 8.21237C16.5749 8.20344 16.4714 8.16322 16.3814 8.18556C16.2599 8.21684 16.1474 8.28834 16.0394 8.35537C13.7489 9.78974 11.4539 11.2241 9.1634 12.6585C9.0329 12.7389 9.0104 12.8059 9.0599 12.9489C9.2309 13.4315 9.3839 13.9186 9.5414 14.4057C9.7529 15.0491 9.9644 15.697 10.1759 16.3405Z" fill="white"/>
</svg>
