<svg width="16" height="12" viewBox="0 0 16 12" fill="none" xmlns="http://www.w3.org/2000/svg">
<path d="M8.47089 9.39765C7.91739 9.9294 7.37289 10.4567 6.8284 10.984C6.6394 11.1672 6.4279 11.2699 6.1534 11.2565C5.9689 11.2476 5.8654 11.1672 5.8069 10.9929C5.3929 9.71491 4.9699 8.43693 4.55591 7.15449C4.51541 7.02937 4.45691 6.97128 4.33091 6.93106C3.35441 6.63615 2.37342 6.33229 1.40142 6.02397C1.25292 5.97482 1.09992 5.91673 0.969422 5.82736C0.766923 5.6933 0.739923 5.47435 0.919922 5.31348C1.08642 5.16602 1.28442 5.04091 1.49142 4.96048C2.68841 4.49129 3.88991 4.03551 5.0914 3.57525C8.13789 2.40899 11.1844 1.23825 14.2309 0.0719842C14.8114 -0.151439 15.2569 0.161353 15.1939 0.786937C15.1534 1.18463 15.0499 1.57785 14.9689 1.97108C14.3074 5.07219 13.6459 8.17776 12.9799 11.2789C12.8224 12.0162 12.3004 12.2083 11.6929 11.7615C10.6714 11.0152 9.64988 10.2645 8.62839 9.51383C8.57889 9.47362 8.52939 9.43787 8.47089 9.39765ZM6.1759 10.3405C6.1894 10.336 6.1984 10.336 6.2119 10.3316C6.2164 10.3003 6.2254 10.2735 6.2299 10.2467C6.2974 9.54511 6.3649 8.8391 6.4234 8.13755C6.4369 7.98115 6.4909 7.86944 6.6079 7.7622C7.54839 6.9266 8.48889 6.08206 9.42488 5.24199C10.4644 4.31255 11.5039 3.38311 12.5389 2.4492C12.6019 2.39111 12.6289 2.29281 12.6739 2.21237C12.5749 2.20344 12.4714 2.16322 12.3814 2.18556C12.2599 2.21684 12.1474 2.28834 12.0394 2.35537C9.74888 3.78974 7.45389 5.22411 5.1634 6.65849C5.0329 6.73892 5.0104 6.80595 5.0599 6.94894C5.2309 7.43153 5.3839 7.91859 5.5414 8.40566C5.7529 9.04911 5.9644 9.69704 6.1759 10.3405Z" fill="white"/>
</svg>
