<svg width="24" height="24" viewBox="0 0 24 24" fill="none" xmlns="http://www.w3.org/2000/svg">
<rect width="24" height="24" rx="5" fill="#6E3FC3"/>
<path d="M9.31781 18C14.7554 18 17.7285 13.3822 17.7285 9.3801C17.7285 9.24817 17.7285 9.11623 17.7224 8.99058C18.2987 8.56335 18.8013 8.02932 19.1998 7.4199C18.6726 7.65864 18.1025 7.82199 17.5017 7.89738C18.1147 7.52042 18.5806 6.92984 18.8013 6.2199C18.2312 6.56544 17.5998 6.81675 16.9255 6.95497C16.386 6.3644 15.6197 6 14.7676 6C13.137 6 11.8128 7.35707 11.8128 9.02827C11.8128 9.26702 11.8374 9.49948 11.8925 9.71937C9.43429 9.59372 7.25804 8.38743 5.79904 6.55288C5.5477 6.99895 5.40057 7.52042 5.40057 8.0733C5.40057 9.12251 5.92164 10.0524 6.71858 10.5927C6.23429 10.5801 5.78065 10.4419 5.38218 10.2157V10.2534C5.38218 11.7236 6.3998 12.9424 7.75459 13.2251C7.50938 13.2942 7.24578 13.3319 6.97605 13.3319C6.78601 13.3319 6.6021 13.3131 6.4182 13.2754C6.79214 14.4817 7.88333 15.355 9.17682 15.3801C8.16532 16.1906 6.89023 16.6743 5.50479 16.6743C5.2657 16.6743 5.03275 16.6618 4.7998 16.6304C6.09329 17.4974 7.65038 18 9.31781 18Z" fill="white"/>
</svg>
