<svg width="16" height="12" viewBox="0 0 16 12" fill="none" xmlns="http://www.w3.org/2000/svg">
<path d="M5.31781 12C10.7554 12 13.7285 7.3822 13.7285 3.3801C13.7285 3.24817 13.7285 3.11623 13.7224 2.99058C14.2987 2.56335 14.8013 2.02932 15.1998 1.4199C14.6726 1.65864 14.1025 1.82199 13.5017 1.89738C14.1147 1.52042 14.5806 0.929843 14.8013 0.219895C14.2312 0.565445 13.5998 0.816754 12.9255 0.954974C12.386 0.364398 11.6197 0 10.7676 0C9.13697 0 7.81283 1.35707 7.81283 3.02827C7.81283 3.26702 7.83735 3.49948 7.89252 3.71937C5.43429 3.59372 3.25804 2.38743 1.79904 0.55288C1.5477 0.998953 1.40057 1.52042 1.40057 2.0733C1.40057 3.12251 1.92164 4.05236 2.71858 4.59267C2.23429 4.5801 1.78065 4.44188 1.38218 4.21571V4.2534C1.38218 5.72356 2.3998 6.94241 3.75459 7.22513C3.50938 7.29424 3.24578 7.33194 2.97605 7.33194C2.78601 7.33194 2.6021 7.31309 2.4182 7.27539C2.79214 8.48167 3.88333 9.35497 5.17682 9.3801C4.16532 10.1906 2.89023 10.6743 1.50479 10.6743C1.2657 10.6743 1.03275 10.6618 0.799805 10.6304C2.09329 11.4974 3.65038 12 5.31781 12Z" fill="white"/>
</svg>
