<svg width="24" height="24" viewBox="0 0 24 24" fill="none" xmlns="http://www.w3.org/2000/svg">
<rect width="24" height="24" rx="5" fill="#6E3FC3"/>
<path fill-rule="evenodd" clip-rule="evenodd" d="M12.4323 16.7598H13.3647C13.3647 16.7598 13.6464 16.7264 13.7902 16.5592C13.9226 16.4057 13.9183 16.1174 13.9183 16.1174C13.9183 16.1174 13.9001 14.7677 14.4808 14.5689C15.0533 14.3732 15.7884 15.8734 16.5675 16.4502C17.1567 16.8868 17.6044 16.7911 17.6044 16.7911L19.6877 16.7598C19.6877 16.7598 20.7775 16.6873 20.2607 15.763C20.2184 15.6874 19.9598 15.0793 18.7118 13.8297C17.4055 12.5218 17.5805 12.7333 19.154 10.471C20.1123 9.09323 20.4954 8.25208 20.3757 7.89182C20.2616 7.54869 19.5568 7.63938 19.5568 7.63938L17.2111 7.65515C17.2111 7.65515 17.0372 7.62956 16.9083 7.71272C16.7822 7.79427 16.7011 7.98434 16.7011 7.98434C16.7011 7.98434 16.3299 9.05051 15.8347 9.95723C14.7902 11.8705 14.3726 11.9715 14.2019 11.8527C13.8048 11.5758 13.9039 10.7404 13.9039 10.1468C13.9039 8.29275 14.1646 7.51968 13.3963 7.31956C13.1413 7.25308 12.9537 7.20922 12.3016 7.20213C11.4646 7.19277 10.7562 7.20487 10.3551 7.41688C10.0883 7.55783 9.88243 7.87195 10.0078 7.88999C10.1628 7.91238 10.514 7.99211 10.7001 8.26556C10.9405 8.61829 10.932 9.41055 10.932 9.41055C10.932 9.41055 11.0701 11.5932 10.6095 11.8643C10.2933 12.0503 9.85956 11.6706 8.92836 9.93484C8.45122 9.04572 8.09098 8.06293 8.09098 8.06293C8.09098 8.06293 8.02151 7.87926 7.89762 7.78102C7.74726 7.662 7.53717 7.62408 7.53717 7.62408L5.30818 7.63984C5.30818 7.63984 4.97356 7.64989 4.85073 7.80684C4.74145 7.94642 4.84205 8.23518 4.84205 8.23518C4.84205 8.23518 6.58712 12.6392 8.56304 14.8586C10.3748 16.8934 12.4323 16.7598 12.4323 16.7598Z" fill="white"/>
</svg>
