<svg width="17" height="10" viewBox="0 0 17 10" fill="none" xmlns="http://www.w3.org/2000/svg">
<path fill-rule="evenodd" clip-rule="evenodd" d="M8.43227 9.75976H9.36474C9.36474 9.75976 9.64641 9.72641 9.79021 9.55918C9.92257 9.40566 9.91834 9.11736 9.91834 9.11736C9.91834 9.11736 9.90012 7.76768 10.4808 7.56893C11.0533 7.37315 11.7884 8.87338 12.5675 9.45021C13.1567 9.88678 13.6044 9.79106 13.6044 9.79106L15.6877 9.75976C15.6877 9.75976 16.7775 9.68734 16.2607 8.76303C16.2184 8.68742 15.9598 8.07929 14.7118 6.82967C13.4055 5.5218 13.5805 5.73334 15.154 3.47101C16.1123 2.09323 16.4954 1.25208 16.3757 0.89182C16.2616 0.54869 15.5568 0.639384 15.5568 0.639384L13.2111 0.655147C13.2111 0.655147 13.0372 0.629561 12.9083 0.712716C12.7822 0.794273 12.7011 0.984343 12.7011 0.984343C12.7011 0.984343 12.3299 2.05051 11.8347 2.95723C10.7902 4.87049 10.3726 4.97147 10.2019 4.85267C9.80482 4.57579 9.90394 3.74035 9.90394 3.14684C9.90394 1.29275 10.1646 0.519677 9.3963 0.319556C9.14131 0.253077 8.95368 0.209215 8.3016 0.202133C7.46465 0.192767 6.75624 0.204874 6.35513 0.416875C6.08828 0.557828 5.88243 0.871946 6.0078 0.889993C6.16283 0.912381 6.51396 0.99211 6.70012 1.26556C6.94049 1.61829 6.93202 2.41055 6.93202 2.41055C6.93202 2.41055 7.0701 4.59315 6.60947 4.86432C6.29329 5.05028 5.85956 4.6706 4.92836 2.93484C4.45122 2.04572 4.09098 1.06293 4.09098 1.06293C4.09098 1.06293 4.02151 0.879256 3.89762 0.781022C3.74726 0.662 3.53717 0.624079 3.53717 0.624079L1.30818 0.639841C1.30818 0.639841 0.973564 0.649893 0.850731 0.806838C0.741452 0.94642 0.842048 1.23518 0.842048 1.23518C0.842048 1.23518 2.58712 5.63922 4.56304 7.8586C6.37482 9.8934 8.43227 9.75976 8.43227 9.75976Z" fill="white"/>
</svg>
