<svg width="24" height="24" viewBox="0 0 24 24" fill="none" xmlns="http://www.w3.org/2000/svg">
<rect width="24" height="24" rx="5" fill="#6E3FC3"/>
<g clip-path="url(#clip0)">
<path d="M15.0766 9.2053C14.4064 7.28771 12.3862 6.00012 10.0498 6.00012C7.1548 6.00012 4.7998 8.01851 4.7998 10.5001C4.82416 11.875 5.51457 13.1525 6.65141 13.9261L6.03162 15.1657C5.95611 15.3132 6.01444 15.494 6.16193 15.5695C6.25361 15.6164 6.36299 15.613 6.45161 15.5605L8.03921 14.6527C8.46992 14.8048 8.91663 14.9071 9.37062 14.9575C9.53521 14.9765 9.68402 14.8584 9.703 14.6938C9.70697 14.6594 9.70495 14.6246 9.69704 14.5909C9.63446 14.3319 9.60187 14.0666 9.59984 13.8001C9.59984 11.4848 11.8876 9.60015 14.6998 9.60015L14.788 9.60434C14.8855 9.60338 14.9771 9.55757 15.0364 9.48014C15.0939 9.4006 15.109 9.29797 15.0766 9.2053Z" fill="white"/>
<path d="M19.1997 13.8001C19.1997 11.8147 17.1813 10.2001 14.6997 10.2001C12.2181 10.2001 10.1997 11.8147 10.1997 13.8001C10.1997 15.7855 12.2181 17.4001 14.6997 17.4001C15.1652 17.3999 15.6289 17.341 16.0797 17.2249L17.5671 17.9683C17.7153 18.0424 17.8955 17.9825 17.9697 17.8343C18.0081 17.7576 18.0118 17.6681 17.9799 17.5885L17.5725 16.5685C18.5462 15.9782 19.1577 14.9379 19.1997 13.8001Z" fill="white"/>
</g>
<defs>
<clipPath id="clip0">
<rect width="14.4" height="14.4" fill="white" transform="translate(4.7998 4.80005)"/>
</clipPath>
</defs>
</svg>
