<svg width="16" height="16" viewBox="0 0 16 16" fill="none" xmlns="http://www.w3.org/2000/svg">
<g clip-path="url(#clip0)">
<path d="M11.0766 5.2053C10.4064 3.28771 8.38621 2.00012 6.04981 2.00012C3.1548 2.00012 0.799805 4.01851 0.799805 6.50012C0.824161 7.87501 1.51457 9.15248 2.65141 9.92611L2.03162 11.1657C1.95611 11.3132 2.01444 11.494 2.16193 11.5695C2.25361 11.6164 2.36299 11.613 2.45161 11.5605L4.03921 10.6527C4.46992 10.8048 4.91663 10.9071 5.37062 10.9575C5.53521 10.9765 5.68402 10.8584 5.703 10.6938C5.70697 10.6594 5.70495 10.6246 5.69704 10.5909C5.63446 10.3319 5.60187 10.0666 5.59984 9.80014C5.59984 7.48475 7.88764 5.60015 10.6998 5.60015L10.788 5.60434C10.8855 5.60338 10.9771 5.55757 11.0364 5.48014C11.0939 5.4006 11.109 5.29797 11.0766 5.2053Z" fill="white"/>
<path d="M15.1997 9.80007C15.1997 7.81467 13.1813 6.20007 10.6997 6.20007C8.2181 6.20007 6.19971 7.81467 6.19971 9.80007C6.19971 11.7855 8.2181 13.4001 10.6997 13.4001C11.1652 13.3999 11.6289 13.341 12.0797 13.2249L13.5671 13.9683C13.7153 14.0424 13.8955 13.9825 13.9697 13.8343C14.0081 13.7576 14.0118 13.6681 13.9799 13.5885L13.5725 12.5685C14.5462 11.9782 15.1577 10.9379 15.1997 9.80007Z" fill="white"/>
</g>
<defs>
<clipPath id="clip0">
<rect width="14.4" height="14.4" fill="white" transform="translate(0.799805 0.800049)"/>
</clipPath>
</defs>
</svg>
