<svg width="16" height="12" viewBox="0 0 16 12" fill="none" xmlns="http://www.w3.org/2000/svg">
<path d="M11.6172 5.78349C11.4145 5.72289 11.2751 5.6812 11.3816 5.4151C11.6113 4.83616 11.6349 4.33733 11.3856 3.98115C10.9182 3.31361 9.6391 3.34949 8.17313 3.96328C8.17313 3.96239 7.71286 4.1649 7.8305 3.79934C8.05609 3.07447 8.02199 2.46738 7.67117 2.11671C6.87587 1.32067 4.76082 2.14679 2.94657 3.96001C1.58855 5.31861 0.799805 6.75838 0.799805 8.00322C0.799805 10.3845 3.8537 11.8323 6.84118 11.8323C10.7574 11.8323 13.3623 9.55689 13.3623 7.75053C13.3625 6.65906 12.4431 6.03961 11.6172 5.78349ZM6.84907 10.9789C4.4654 11.2141 2.40753 10.137 2.25267 8.57159C2.09796 7.00675 3.90551 5.54718 6.28874 5.31162C8.67285 5.0756 10.7309 6.15308 10.8853 7.71777C11.04 9.28336 9.23304 10.7432 6.84907 10.9789Z" fill="white"/>
<path d="M14.2176 1.42565C13.2721 0.377215 11.877 -0.0224457 10.5896 0.251242H10.5891C10.2915 0.314824 10.1013 0.608018 10.1652 0.905679C10.2286 1.20319 10.5217 1.39334 10.8196 1.32991C11.7354 1.13529 12.7269 1.42 13.3993 2.16467C14.071 2.90934 14.2534 3.92502 13.9657 4.81562L13.9658 4.81607C13.872 5.10629 14.0308 5.4166 14.3213 5.51027C14.6106 5.60393 14.9214 5.44519 15.0152 5.15617C15.0152 5.15572 15.0152 5.15468 15.0153 5.15394C15.4191 3.90075 15.1639 2.47305 14.2176 1.42565Z" fill="white"/>
<path d="M10.998 2.16509C10.7414 2.21944 10.5779 2.47213 10.6333 2.7287C10.688 2.98422 10.9404 3.14831 11.1958 3.09262V3.09307C11.5026 3.02799 11.835 3.1227 12.0603 3.37182C12.2856 3.62183 12.3462 3.96193 12.2496 4.26033H12.2499C12.1696 4.5096 12.3057 4.77733 12.5553 4.85833C12.805 4.93815 13.0726 4.80205 13.153 4.55219C13.35 3.94168 13.227 3.24644 12.7655 2.73614C12.3048 2.22555 11.6253 2.03182 10.998 2.16509Z" fill="white"/>
<path d="M7.08713 6.51604C5.95293 6.22076 4.67056 6.786 4.17798 7.78575C3.67632 8.80516 4.1613 9.93654 5.30727 10.3069C6.49464 10.6895 7.89375 10.1029 8.38037 9.0026C8.8603 7.92676 8.2611 6.81936 7.08713 6.51604ZM6.22096 9.11949C5.9903 9.48729 5.49683 9.6484 5.12472 9.4785C4.75826 9.31188 4.65001 8.88437 4.88081 8.52581C5.10849 8.16873 5.58543 8.00941 5.95486 8.16412C6.32787 8.32345 6.44744 8.74768 6.22096 9.11949ZM6.98052 8.14417C6.89713 8.28697 6.71279 8.35546 6.56835 8.2962C6.4263 8.23768 6.38177 8.07835 6.46248 7.93823C6.54557 7.79885 6.72276 7.7308 6.86437 7.78694C7.00851 7.83965 7.06003 8.00107 6.98052 8.14417Z" fill="white"/>
</svg>
