<svg width="24" height="24" viewBox="0 0 24 24" fill="none" xmlns="http://www.w3.org/2000/svg">
<rect width="24" height="24" rx="5" fill="#6E3FC3"/>
<path d="M15.6172 11.7834C15.4145 11.7228 15.2751 11.6811 15.3816 11.415C15.6113 10.836 15.6349 10.3372 15.3856 9.98103C14.9182 9.31349 13.6391 9.34937 12.1731 9.96316C12.1731 9.96227 11.7129 10.1648 11.8305 9.79921C12.0561 9.07435 12.022 8.46726 11.6712 8.11659C10.8759 7.32054 8.76082 8.14667 6.94657 9.95988C5.58855 11.3185 4.7998 12.7583 4.7998 14.0031C4.7998 16.3844 7.8537 17.8322 10.8412 17.8322C14.7574 17.8322 17.3623 15.5568 17.3623 13.7504C17.3625 12.6589 16.4431 12.0395 15.6172 11.7834ZM10.8491 16.9788C8.4654 17.2139 6.40753 16.1369 6.25267 14.5715C6.09796 13.0066 7.90551 11.5471 10.2887 11.3115C12.6729 11.0755 14.7309 12.153 14.8853 13.7176C15.04 15.2832 13.233 16.7431 10.8491 16.9788Z" fill="white"/>
<path d="M18.2176 7.42553C17.2721 6.37709 15.877 5.97743 14.5896 6.25112H14.5891C14.2915 6.3147 14.1013 6.6079 14.1652 6.90556C14.2286 7.20307 14.5217 7.39322 14.8196 7.32979C15.7354 7.13517 16.7269 7.41987 17.3993 8.16455C18.071 8.90922 18.2534 9.9249 17.9657 10.8155L17.9658 10.8159C17.872 11.1062 18.0308 11.4165 18.3213 11.5101C18.6106 11.6038 18.9214 11.4451 19.0152 11.156C19.0152 11.1556 19.0152 11.1546 19.0153 11.1538C19.4191 9.90063 19.1639 8.47293 18.2176 7.42553Z" fill="white"/>
<path d="M14.998 8.16509C14.7414 8.21944 14.5779 8.47213 14.6333 8.7287C14.688 8.98422 14.9404 9.14831 15.1958 9.09262V9.09307C15.5026 9.02799 15.835 9.1227 16.0603 9.37182C16.2856 9.62183 16.3462 9.96193 16.2496 10.2603H16.2499C16.1696 10.5096 16.3057 10.7773 16.5553 10.8583C16.805 10.9381 17.0726 10.802 17.153 10.5522C17.35 9.94168 17.227 9.24644 16.7655 8.73614C16.3048 8.22555 15.6253 8.03182 14.998 8.16509Z" fill="white"/>
<path d="M11.0871 12.5158C9.95293 12.2205 8.67056 12.7858 8.17798 13.7855C7.67632 14.8049 8.1613 15.9363 9.30727 16.3066C10.4946 16.6893 11.8938 16.1026 12.3804 15.0024C12.8603 13.9265 12.2611 12.8191 11.0871 12.5158ZM10.221 15.1192C9.9903 15.487 9.49683 15.6482 9.12472 15.4783C8.75826 15.3116 8.65001 14.8841 8.88081 14.5256C9.10849 14.1685 9.58543 14.0092 9.95486 14.1639C10.3279 14.3232 10.4474 14.7474 10.221 15.1192ZM10.9805 14.1439C10.8971 14.2867 10.7128 14.3552 10.5684 14.296C10.4263 14.2374 10.3818 14.0781 10.4625 13.938C10.5456 13.7986 10.7228 13.7306 10.8644 13.7867C11.0085 13.8394 11.06 14.0008 10.9805 14.1439Z" fill="white"/>
</svg>
