<svg width="311" height="235" viewBox="0 0 311 235" fill="none" xmlns="http://www.w3.org/2000/svg">
<path d="M148.936 222.802L20.4639 146.524C16.3719 144.189 12.8689 140.43 16.8524 137.963L145.789 63.343C147.727 62.1366 150.664 61.3505 152.625 62.4946L287.475 141.107C291.567 143.489 292.295 150.159 288.203 152.541L165.869 222.677C163.302 224.178 160.389 224.978 157.419 225C154.449 225.022 151.524 224.264 148.936 222.802Z" fill="#B095FE"/>
<path d="M46.4993 161.674C51.1493 158.895 157.802 101.178 158.91 100.174L158.647 99.1933L147.022 92.8031L27.9993 150.174C30.177 151.995 46.4993 161.674 46.4993 161.674Z" fill="#452680"/>
<path d="M97.7625 192.447C109.628 185.309 136.024 169.135 138.837 166.559L138.155 164.037L98.6305 138.29L55.4475 166.808C60.95 171.486 91.7718 188.329 97.7625 192.447Z" fill="#452680"/>
<path d="M147.5 222.174C159.365 215.036 232.45 158.993 235.302 156.425L234.62 153.903L204.852 137.503L107.5 198.174L147.5 222.174Z" fill="#452680"/>
<path d="M191.561 135.542L211.982 146.33L212.579 151.397L190.987 139.154" fill="#E27623"/>
<path d="M190.732 127.276L182.323 157.725L183.873 158.62C184.271 158.408 184.655 158.169 185.02 157.904C185.469 157.553 195.932 125.898 195.932 125.898" fill="#E27623"/>
<path d="M210.13 121.337L215.865 139.317L215.376 175.284L214.09 176.14L212.315 175.019L210.99 139.301L205.805 121.337" fill="#E27623"/>
<path d="M187.593 119.181C187.593 119.181 186.957 123.166 188.321 125.408C189.685 127.65 193.304 122.116 193.304 122.116" fill="#FFB469"/>
<path d="M206.619 97.4423L205.805 112.005L209.61 113.99L210.316 98.3763" fill="#CA6B00"/>
<path d="M230.497 108.168L233.047 127.86L235.627 156.822L233.969 157.802L232.326 156.767L228.645 128.303L226.172 108.168" fill="#E27623"/>
<path d="M227.916 110.619C228.986 110.946 231.287 109.257 231.977 108.168C235.744 102.221 234.659 94.1575 227.877 90.367C224.87 88.7013 221.77 87.0357 218.787 85.3234C216.128 83.7667 213.315 82.498 210.742 80.8401C210.407 80.6063 210.049 80.4081 209.673 80.2486C208.969 80.056 208.224 80.0792 207.534 80.3149C206.843 80.5507 206.239 80.9884 205.798 81.5717" fill="#FFB469"/>
<path d="M228.187 110.37C230.001 110.308 231.047 107.895 231.582 106.479C233.054 102.587 233.341 95.146 228.908 92.92C228.822 92.8826 228.748 92.8235 228.692 92.7484C228.637 92.6733 228.601 92.5849 228.59 92.4919L220.065 87.5572L213.486 83.7433C212.339 83.0739 211.246 82.3189 210.099 81.6496C208.952 80.9802 207.813 80.2018 206.549 80.9646C205.162 81.8052 204.999 83.3853 204.751 84.8563C204.181 88.2606 204.361 91.7491 205.278 95.076C205.968 97.2865 207.712 98.8042 209.649 99.9328L215.764 103.49L227.095 110.051C227.275 110.168 227.471 110.259 227.676 110.324C227.843 110.365 228.015 110.381 228.187 110.37Z" fill="#FCBD4C"/>
<path d="M229.427 126.132L229.776 126.334C230.733 126.81 231.593 127.462 232.31 128.257C234.031 130.421 232.364 132.927 230.667 134.413C226.056 138.523 219.042 141.893 212.842 140.376C207.417 139.052 202.333 136.484 197.559 133.62C193.684 131.285 188.763 128.412 187.74 123.501C187.566 122.424 187.644 121.322 187.967 120.281C188.289 119.239 188.849 118.287 189.6 117.5C199.411 106.082 213.206 116.8 222.925 122.388L229.427 126.132Z" fill="#FFB469"/>
<path d="M232.83 126.583C232.907 126.661 233.341 129.813 233.031 130.755C232.389 132.289 231.43 133.668 230.218 134.803C229.071 135.729 229.761 129.284 229.761 129.284" fill="#FFB469"/>
<path d="M229.427 123.392L229.776 123.595C230.733 124.07 231.593 124.722 232.31 125.517C234.031 127.681 232.364 130.187 230.667 131.674C226.056 135.783 219.042 139.154 212.842 137.636C207.417 136.313 202.333 133.744 197.559 130.88C193.684 128.545 188.763 125.673 187.74 120.761C187.555 119.676 187.626 118.562 187.948 117.509C188.27 116.456 188.833 115.493 189.592 114.698C199.404 103.28 213.199 113.998 222.917 119.586L229.427 123.392Z" fill="#FCBD4C"/>
<path d="M209.324 171.626L205.596 169.906C205.596 169.906 205.232 166.66 206.487 166.014C207.743 165.368 209.324 171.626 209.324 171.626Z" fill="#196132"/>
<path d="M200.155 162.581C200.155 162.581 199.822 170.575 199.295 171.4C198.768 172.225 191.785 176.109 191.235 177.526C190.685 178.942 199.117 177.23 201.884 176.467C204.65 175.704 207.2 174.249 207.309 173.198C207.417 172.147 206.138 166.816 207.169 166.909C208.2 167.002 209.362 171.579 209.362 171.579L211.773 170.069L205.875 151.545" fill="#FFD24D"/>
<path d="M192.398 164.053L188.67 162.333C188.67 162.333 188.306 159.087 189.561 158.441C190.817 157.795 192.398 164.053 192.398 164.053Z" fill="#196132"/>
<path d="M183.229 155.008C183.229 155.008 182.896 163.002 182.369 163.827C181.842 164.652 174.859 168.536 174.309 169.952C173.759 171.369 182.191 169.649 184.95 168.871C187.709 168.092 190.266 166.652 190.375 165.602C190.483 164.551 189.205 159.219 190.235 159.313C191.266 159.406 192.429 163.983 192.429 163.983L194.839 162.473L188.988 143.964" fill="#FFD24D"/>
<path d="M209.293 94.5079C210.618 95.7299 214.028 113.04 212.199 121.439C210.37 129.837 190.259 133.767 190.259 133.767L195.475 154.931C195.475 154.931 187.872 160.978 180.432 158.737C177.75 157.958 170.985 127.533 173.24 123.221C175.495 118.909 202.194 103.583 202.194 103.583" fill="#FFF0D7"/>
<path d="M225.366 100.493C226.691 101.715 230.628 111.39 225.878 123.517C222.778 131.51 204.852 137.527 204.852 137.527L211.54 160.939C211.54 160.939 203.627 167.828 196.497 164.745C189.367 161.663 186.748 132.763 189.003 128.451C191.258 124.139 214.353 108.635 214.353 108.635" fill="#FFF0D7"/>
<path d="M218.43 77.2597C218.43 77.2597 231.907 82.5291 228.606 101.606C226.281 115.048 213.106 116.823 213.106 116.823C213.106 116.823 204.325 111.546 205.255 109.717L216.88 103.303L203.418 96.8428L194.017 107.156L187.042 101.941C187.042 101.941 196.614 86.0861 200.775 79.5325C204.937 72.9788 218.43 77.2597 218.43 77.2597Z" fill="#FF9A22"/>
<path d="M201.884 109.965L204.209 108.012C204.209 108.012 198.861 103.342 191.724 104.12C189.77 101.244 186.887 99.1353 183.563 98.1501L180.641 100.376" fill="#FFE8BC"/>
<path d="M204.193 108.012L206.356 121.633L202.202 124.046L198.613 111.631" fill="#FFE8BC"/>
<path d="M201.884 109.966L204.108 122.863L202.194 124.046C202.194 124.046 181.943 113.46 182.137 113.25C182.331 113.04 180.641 100.376 180.641 100.376" fill="#6E3FC3"/>
<path d="M182.067 99.2557L201.884 109.966L200.07 111.04L180.641 100.338L182.067 99.2557Z" fill="#6E3FC3"/>
<path opacity="0.42" d="M182.067 99.2557L201.884 109.966L200.07 111.04L180.641 100.338L182.067 99.2557Z" fill="#1371A5"/>
<path d="M199.404 111.818C199.356 111.639 199.355 111.45 199.402 111.27C199.448 111.09 199.541 110.926 199.669 110.792C199.798 110.659 199.959 110.561 200.137 110.509C200.315 110.457 200.503 110.452 200.683 110.495C202.22 111.023 203.841 111.258 205.464 111.188C205.639 111.178 205.813 111.216 205.968 111.297H206.015C207.578 112.801 209.304 114.124 211.161 115.243L210.618 115.507C209.922 116.954 209.119 118.346 208.216 119.672C208.006 119.971 207.728 120.216 207.407 120.388C207.085 120.559 206.728 120.653 206.363 120.66C206.119 120.852 205.86 121.023 205.588 121.174C205.21 121.397 204.773 121.5 204.335 121.471C203.897 121.442 203.478 121.281 203.132 121.01C202.882 121.174 202.58 121.235 202.287 121.182C202.099 121.283 201.885 121.328 201.673 121.312C201.46 121.295 201.256 121.218 201.086 121.088C200.125 120.372 199.605 119.259 200.225 118.208C199.875 117.824 199.669 117.33 199.642 116.81C199.615 116.291 199.769 115.778 200.078 115.36C200.497 114.718 201.021 114.152 201.628 113.686C201.121 113.613 200.645 113.399 200.252 113.069C199.859 112.739 199.565 112.306 199.404 111.818Z" fill="#FDBA45"/>
<path d="M180.067 107.709C179.951 107.53 179.827 107.35 179.719 107.171C179.639 107.048 179.587 106.908 179.567 106.762C179.547 106.617 179.559 106.468 179.601 106.327C179.644 106.186 179.717 106.057 179.815 105.947C179.913 105.837 180.033 105.751 180.168 105.693C180.211 105.642 180.257 105.595 180.308 105.553C180.198 105.315 180.179 105.046 180.253 104.795C180.327 104.544 180.49 104.329 180.711 104.19C180.861 104.103 181.031 104.053 181.205 104.044C181.379 104.036 181.552 104.07 181.71 104.144C181.806 104.166 181.897 104.202 181.982 104.253C182.744 104.714 183.335 105.414 183.663 106.245C183.731 106.47 183.723 106.711 183.64 106.93C183.557 107.15 183.405 107.336 183.206 107.459C183.093 107.524 182.97 107.569 182.842 107.592C183.225 108.064 183.54 108.588 183.78 109.148C184.074 109.927 183.322 110.565 182.64 110.518L182.803 110.736C183.408 111.515 182.462 112.542 181.641 112.293C181.355 112.21 181.089 112.07 180.859 111.882C180.628 111.693 180.438 111.46 180.3 111.195C179.943 110.581 179.595 109.95 179.261 109.32C179.182 109.163 179.141 108.99 179.141 108.815C179.141 108.64 179.181 108.467 179.26 108.31C179.338 108.153 179.452 108.017 179.592 107.913C179.733 107.808 179.895 107.738 180.067 107.709Z" fill="#FDBA45"/>
<path d="M202.876 92.0093C202.876 92.0093 202.822 104.081 203.566 105.381C204.31 106.681 217.12 111.818 217.12 111.818L224.762 101.7L202.876 92.0093Z" fill="#FF9A22"/>
<path d="M208.867 71.212C208.867 71.212 206.735 76.1623 207.642 77.898C208.549 79.6337 213.222 78.3261 213.222 78.3261" fill="#0A0A0A"/>
<path d="M208.417 68.7213C208.417 68.7213 208.495 78.6607 212.594 79.618C216.694 80.5754 218.717 75.5006 218.717 75.5006C218.717 75.5006 219.391 68.7757 218.043 67.3981C216.694 66.0204 210.525 65.857 208.417 68.7213Z" fill="#FDBA45"/>
<path d="M206.821 67.6862C206.821 67.6862 209.642 71.5157 211.285 72.4653C212.928 73.4148 214.749 72.8155 215.338 74.1465C215.927 75.4774 214.09 83.4866 215.981 84.9576C217.872 86.4287 221.406 82.0077 223.057 84.0937C224.708 86.1796 223.925 90.0869 226.459 90.8808C228.993 91.6747 231.884 87.713 229.396 84.6541C226.909 81.5952 226.668 80.0774 228.017 79.0267C230.032 77.47 227.792 71.8815 225.374 70.8697C222.956 69.8578 222.189 64.425 217.864 63.1796C213.54 61.9343 207.681 64.5729 206.821 67.6862Z" fill="#0A0A0A"/>
<path d="M203.744 88.1566C203.863 93.7244 204.095 99.2869 204.441 104.844C204.48 105.475 203.504 105.498 203.465 104.844C203.114 99.2869 202.881 93.7244 202.767 88.1566C202.767 88.0266 202.819 87.9018 202.91 87.8099C203.002 87.7179 203.126 87.6663 203.256 87.6663C203.385 87.6663 203.509 87.7179 203.601 87.8099C203.692 87.9018 203.744 88.0266 203.744 88.1566Z" fill="#452680"/>
<path d="M205.433 109.351C208.561 107.839 211.294 105.615 213.416 102.856C215.538 100.097 216.989 96.8784 217.655 93.457C217.779 92.8343 218.725 93.0756 218.608 93.6983C217.912 97.2441 216.406 100.579 214.209 103.441C212.011 106.303 209.182 108.614 205.945 110.191C205.387 110.495 204.868 109.623 205.433 109.351Z" fill="#452680"/>
<path d="M122.508 108.261C122.508 108.261 131.56 110.448 131.258 111.266C130.956 112.083 127.987 111.266 127.987 111.266C127.987 111.266 134.056 113.811 132.816 116.333C132.041 117.967 126.251 116.854 124.686 116.333C123.12 115.811 118.858 111.662 118.858 111.662L122.508 108.261Z" fill="#FFD8C6"/>
<path d="M111.72 72.8076C111.72 72.8076 114.247 74.6134 114.82 83.6343C115.394 92.6553 115.952 98.3061 116.634 99.8939C117.316 101.482 126.461 107.42 126.461 107.42L121.95 112.721L108.178 104.307" fill="#E6E6E6"/>
<path d="M96.3753 138.881V170.606H94.0348L93.531 138.056" fill="#895851"/>
<path d="M83.0763 126.677L78.3953 161.173H80.7358L85.626 127.953" fill="#895851"/>
<path d="M130.305 150.798C130.305 150.798 132.482 157.974 132.971 158.706C133.459 159.437 140.597 164.154 140.48 165.641C140.364 167.127 137.667 167.711 135.986 167.586C134.304 167.462 124.616 163.407 124.012 162.216C123.407 161.025 123.407 150.805 123.407 150.805L130.305 150.798Z" fill="#5C2D1D"/>
<path d="M118.819 159.196C118.819 159.196 120.997 166.372 121.485 167.104C121.974 167.835 129.111 172.552 128.995 174.039C128.879 175.525 126.182 176.109 124.5 175.984C122.818 175.86 113.131 171.805 112.526 170.614C111.922 169.423 111.922 159.203 111.922 159.203L118.819 159.196Z" fill="#5C2D1D"/>
<path d="M81.8052 93.8775C82.4252 95.621 85.9282 122.085 85.9282 122.085L89.4467 120.902L84.8587 93.7374" fill="#895851"/>
<path d="M83.0762 126.677L83.0142 122.411L86.7729 123.703L85.6259 127.953" fill="#A9CBF8"/>
<path d="M91.5703 120.076C91.5703 120.076 82.1386 123.711 83.0453 127.292C83.9521 130.872 91.5238 139.636 96.3443 138.881C101.165 138.126 107.055 133.908 107.055 133.908" fill="#A9CBF8"/>
<path d="M91.5703 115.718C91.5703 115.718 82.1386 119.352 83.0453 122.933C83.9521 126.513 91.5238 135.277 96.3443 134.522C101.165 133.767 107.055 129.549 107.055 129.549" fill="#CBE3FF"/>
<path d="M87.8347 82.4746C87.8347 82.4746 78.7207 84.7551 77.7597 90.0245C76.7987 95.2939 76.6049 105.047 89.5474 101.256C102.49 97.4655 96.3752 87.7206 96.3752 87.7206" fill="#CBE3FF"/>
<path d="M109.899 103.49C109.899 103.49 128.553 116.348 130.964 122.894C133.374 129.44 134.947 155.234 134.947 155.234C134.947 155.234 128.422 159.305 120.827 156.908L115.107 127.681C115.107 127.681 101.545 121.859 99.1575 114.589C96.7705 107.319 99.9868 93.7374 99.9868 93.7374" fill="#6E3FC3"/>
<path d="M99.452 111.001C99.452 111.001 118.106 123.859 120.517 130.405C122.927 136.951 124.5 162.753 124.5 162.753C124.5 162.753 117.975 166.823 110.38 164.426L104.66 135.199C104.66 135.199 91.0975 129.377 88.7105 122.108C86.3235 114.838 89.5397 101.256 89.5397 101.256" fill="#6E3FC3"/>
<path d="M92.0353 111.273C88.85 103.49 85.9748 80.9177 87.8968 78.466C90.152 75.555 102.971 70.8071 102.971 70.8071C104.48 70.3952 106.067 70.363 107.592 70.7132C109.116 71.0634 110.532 71.7854 111.713 72.8152C114.813 75.4693 112.635 96.072 111.713 106.408C106.288 111.452 99.855 112.69 92.0353 111.273Z" fill="#E6E6E6"/>
<path d="M105.404 113.608C108.76 116.978 112.379 120.216 115.479 123.804C118.192 126.918 119.261 130.872 120.315 134.795C122.772 143.925 123.865 153.343 124.965 162.714C125.035 163.282 124.144 163.274 124.082 162.714C123.035 153.701 121.974 144.648 119.695 135.845C118.571 131.533 117.455 127.237 114.379 123.882C111.302 120.528 107.993 117.438 104.8 114.231C104.742 114.146 104.716 114.044 104.725 113.942C104.733 113.84 104.777 113.745 104.848 113.671C104.92 113.598 105.014 113.552 105.115 113.54C105.216 113.529 105.318 113.553 105.404 113.608Z" fill="#452680"/>
<path d="M112.518 112.55C112.518 112.55 121.57 114.737 121.268 115.554C120.966 116.371 117.998 115.554 117.998 115.554C117.998 115.554 124.066 118.099 122.826 120.621C122.051 122.255 116.262 121.142 114.696 120.621C113.131 120.099 108.868 115.951 108.868 115.951L112.518 112.55Z" fill="#FFD8C6"/>
<path d="M96.3752 87.7208C96.3752 87.7208 98.3204 101.871 99.8007 103.778C101.281 105.685 116.618 112.472 116.618 112.472C116.618 112.472 111.612 114.729 111.728 120.069C111.728 120.069 92.4149 115.227 90.5084 110.775C88.6019 106.323 82.9754 83.9069 87.9044 78.4663C92.8334 73.0257 96.3752 87.7208 96.3752 87.7208Z" fill="#E6E6E6"/>
<path d="M107.76 70.7526C107.76 70.7526 110.426 76.9794 104.66 79.3144C98.8939 81.6494 92.5156 75.3215 92.5156 75.3215C92.5156 75.3215 101.087 69.8965 107.76 70.7526Z" fill="#E6E6E6"/>
<path d="M97.8168 72.7454L95.6003 73.656L101.715 78.1937L102.8 76.0844L105.985 76.676C105.985 76.676 105.334 71.1186 105.21 70.9941C105.086 70.8696 97.8168 72.7454 97.8168 72.7454Z" fill="#6E3FC3"/>
<path d="M90.8029 61.8409C91.4462 58.9766 93.7169 57.9492 96.2822 57.9492C96.7532 57.4288 97.3187 57.0035 97.9485 56.696C99.9015 55.762 102.598 55.8632 104.226 57.3343C104.875 57.1078 105.572 57.0515 106.249 57.1708C108.264 57.5522 108.907 59.5059 108.845 61.3038C108.845 61.3739 108.845 61.4439 108.845 61.5218C109.302 64.6351 106.605 66.5499 106.605 66.5499L98.0802 73.4071C96.9222 73.06 95.8714 72.4225 95.0267 71.5546C94.7381 71.2032 94.515 70.8024 94.368 70.3715C94.2857 70.3271 94.2079 70.275 94.1355 70.2159C91.7097 68.2155 90.0977 64.9776 90.8029 61.8409Z" fill="#0A0A0A"/>
<path d="M106.295 64.028C106.295 65.1021 106.628 75.2206 102.079 75.3451C97.5299 75.4696 95.8792 69.0405 95.8792 69.0405C95.8792 69.0405 99.6146 67.1102 99.6146 65.5458C99.6146 63.9813 99.3124 63.3586 101.165 62.5491C103.017 61.7397 106.342 62.2378 106.295 64.028Z" fill="#FFE0CE"/>
<path d="M162.831 83.8755C162.831 83.8755 164.808 99.3022 155.856 102.291C146.905 105.28 142.077 97.512 141.906 83.8755" fill="#FFD24D"/>
<path d="M152.377 89.3786C158.155 89.3786 162.839 86.9148 162.839 83.8757C162.839 80.8365 158.155 78.3728 152.377 78.3728C146.599 78.3728 141.914 80.8365 141.914 83.8757C141.914 86.9148 146.599 89.3786 152.377 89.3786Z" fill="#0A0A0A"/>
<path d="M152.4 83.8757C152.4 83.8757 152.4 62.5024 163.607 53.8083C163.607 53.8083 169.582 57.2798 168.086 62.6036C166.59 67.9275 160.15 63.9735 159.019 66.7677C157.887 69.562 161.22 70.3792 158.964 73.228C156.709 76.0767 152.4 78.3728 152.4 83.8757Z" fill="#FFBE30"/>
<path d="M150.075 82.07C150.075 82.07 150.997 57.2876 145.34 49.94C139.682 42.5925 135.986 52.6876 138.528 57.1942C141.07 61.7008 145.503 60.5722 143.953 64.4483C142.403 68.3244 139.597 70.3481 142.713 72.0138C145.828 73.6794 150.331 78.9177 150.075 82.07Z" fill="#FFBE30"/>
<path d="M98.1501 47.1927C98.671 46.9205 99.1081 46.5105 99.414 46.0071C99.72 45.5037 99.8832 44.9259 99.8861 44.3361V27.6874C99.8847 27.1195 99.735 26.5618 99.4519 26.0702C99.1688 25.5786 98.7622 25.1701 98.2727 24.8857C97.7832 24.6013 97.228 24.4509 96.6625 24.4495C96.097 24.448 95.541 24.5957 95.0501 24.8776L69.0643 40.102C68.565 40.3941 68.1528 40.8153 67.8706 41.3219C67.5884 41.8284 67.4467 42.4016 67.4601 42.9818L68.3746 64.0438L98.1501 47.1927Z" fill="#6E3FC3"/>
<path d="M68.3823 64.0359V68.6203L74.5668 58.6731" fill="#6E3FC3"/>
<path d="M72.7921 46.2585L95.5383 33.159C95.7603 33.029 95.9218 32.8157 95.9872 32.5661C96.0526 32.3165 96.0166 32.051 95.8871 31.828C95.7576 31.6051 95.5452 31.4429 95.2967 31.3773C95.0481 31.3116 94.7838 31.3477 94.5618 31.4778L71.8001 44.5773C71.6902 44.6417 71.594 44.7272 71.5169 44.8289C71.4399 44.9307 71.3836 45.0466 71.3512 45.1702C71.3189 45.2938 71.311 45.4226 71.3282 45.5492C71.3454 45.6759 71.3872 45.7979 71.4513 45.9082C71.5155 46.0186 71.6006 46.1153 71.7019 46.1926C71.8032 46.27 71.9187 46.3265 72.0417 46.359C72.1648 46.3915 72.293 46.3994 72.4191 46.3822C72.5452 46.3649 72.6667 46.3229 72.7766 46.2585H72.7921Z" fill="white"/>
<path d="M73.9312 52.8975L96.6775 39.8058C96.9015 39.6758 97.0649 39.4617 97.1318 39.2106C97.1987 38.9596 97.1635 38.6921 97.034 38.4671C96.9045 38.2421 96.6913 38.078 96.4413 38.0108C96.1913 37.9437 95.925 37.979 95.701 38.1091L72.9547 51.2241C72.7551 51.3642 72.6154 51.5747 72.5634 51.8137C72.5114 52.0526 72.5508 52.3024 72.674 52.5135C72.7971 52.7245 72.9949 52.8812 73.2278 52.9523C73.4608 53.0235 73.712 53.004 73.9312 52.8975Z" fill="white"/>
<path d="M240.967 28.637C249.383 25.5237 259.823 33.0347 264.302 45.3402C268.782 57.6458 265.581 70.1304 257.164 73.2127C256.496 73.4564 255.805 73.6362 255.103 73.7497C253.328 79.9764 247.213 78.2952 247.213 78.2952C249.639 76.8319 250.313 75.0729 250.313 73.5629C243.726 72.0062 237.138 65.6005 233.868 56.5094C229.357 44.2039 232.55 31.7193 240.967 28.637Z" fill="#6E3FC3"/>
<path opacity="0.1" d="M240.967 28.637C249.383 25.5237 259.823 33.0347 264.302 45.3402C268.782 57.6458 265.581 70.1304 257.164 73.2127C256.496 73.4564 255.805 73.6362 255.103 73.7497C253.328 79.9764 247.213 78.2952 247.213 78.2952C249.639 76.8319 250.313 75.0729 250.313 73.5629C243.726 72.0062 237.138 65.6005 233.868 56.5094C229.357 44.2039 232.55 31.7193 240.967 28.637Z" fill="black"/>
<path d="M253.402 74.3638C261.814 71.2807 265.007 58.8036 260.534 46.4953C256.061 34.1871 245.617 26.7086 237.205 29.7917C228.794 32.8748 225.601 45.3519 230.073 57.6602C234.546 69.9684 244.991 77.4469 253.402 74.3638Z" fill="#6E3FC3"/>
<path d="M245.4 71.282C245.4 71.282 248.973 76.1311 243.47 79.4546C243.47 79.4546 251.693 81.7896 251.84 71.282" fill="#6E3FC3"/>
<path d="M237.742 52.4782C238.897 52.3296 239.651 50.7782 239.425 49.0129C239.2 47.2477 238.082 45.9372 236.927 46.0857C235.772 46.2343 235.018 47.7857 235.244 49.551C235.469 51.3162 236.587 52.6267 237.742 52.4782Z" fill="white"/>
<path d="M245.003 56.246C246.158 56.0974 246.912 54.546 246.686 52.7808C246.461 51.0155 245.343 49.705 244.188 49.8536C243.033 50.0021 242.279 51.5536 242.505 53.3188C242.73 55.084 243.848 56.3946 245.003 56.246Z" fill="white"/>
<path d="M252.27 60.1897C253.425 60.0411 254.179 58.4897 253.954 56.7245C253.728 54.9593 252.61 53.6487 251.455 53.7973C250.3 53.9458 249.547 55.4973 249.772 57.2625C249.997 59.0277 251.116 60.3383 252.27 60.1897Z" fill="white"/>
<path d="M111.705 85.9617C111.87 92.4167 111.728 98.8666 111.279 105.311C111.279 105.809 112.054 105.77 112.054 105.311C112.503 98.8666 112.645 92.4167 112.48 85.9617C112.48 85.8585 112.439 85.7595 112.366 85.6865C112.294 85.6135 112.195 85.5725 112.092 85.5725C111.99 85.5725 111.891 85.6135 111.818 85.6865C111.746 85.7595 111.705 85.8585 111.705 85.9617Z" fill="#452680"/>
<path d="M111.255 109.421C108.831 108.582 106.453 107.613 104.133 106.518C102.281 105.638 98.9947 104.579 98.3205 102.509C97.5455 100.174 97.468 97.3175 97.1967 94.9047C96.9254 92.4918 96.7317 89.9778 96.6 87.5104C96.6 87.0123 95.825 87.0123 95.825 87.5104C95.98 90.4759 96.2202 93.4336 96.6 96.3835C96.7601 97.6444 96.9384 98.9028 97.1347 100.158C97.2975 101.17 97.3052 102.758 97.8167 103.669C98.2817 104.301 98.916 104.787 99.6457 105.07C100.886 105.765 102.144 106.419 103.42 107.031C105.904 108.213 108.453 109.252 111.054 110.145C111.519 110.339 111.72 109.584 111.255 109.421Z" fill="#452680"/>
</svg>
