<svg width="311" height="235" viewBox="0 0 311 235" fill="none" xmlns="http://www.w3.org/2000/svg">
<path d="M151.067 225.257L11.784 142.811C7.35097 140.32 3.54572 136.221 7.87022 133.544L147.657 52.8213C149.757 51.5173 152.943 50.6635 155.074 51.9054L301.285 136.905C305.718 139.481 306.517 146.684 302.06 149.269L169.45 225.125C166.662 226.747 163.5 227.613 160.276 227.636C157.052 227.659 153.878 226.839 151.067 225.257Z" fill="#B095FE"/>
<path d="M199.999 208L193.999 211.5L186.999 215L173.499 223L129.057 195.389L167.722 173.144L210.499 201.5L199.999 208Z" fill="#452680"/>
<path d="M148.951 157.45C144.681 158.762 145.076 163.163 140.705 164.047C138.024 164.591 137.264 170.816 134.552 171.033L115.626 185.454L59.4851 150.426L112.131 120.155L157.43 149.3C150.377 154.462 157.205 154.92 148.951 157.45Z" fill="#452680"/>
<path d="M293.002 154.5L248.201 124.5L193.502 155.974L239.502 185C257.668 175.197 275.045 164.66 293.002 154.5Z" fill="#452680"/>
<path d="M122.989 88.4324L33.3987 108.365V134.809L68.3822 155.859L122.989 123.803V88.4324Z" fill="#6E3FC3"/>
<path opacity="0.81" d="M123.306 88.3781L67.8629 126.574L33.3987 108.365L59.3844 94.1761" fill="#452680"/>
<path d="M26.9043 102.947L59.9503 122.056C70.037 120.448 79.751 117.03 88.6253 111.966C103.412 103.521 123.779 87.8036 123.779 87.8036L93.407 70.1533L50.4488 95.5576C50.4488 95.5576 38.568 101.363 26.9043 102.947Z" fill="#6E3FC3"/>
<path d="M30.6553 103.529L60.5238 120.807C70.0822 118.693 79.2842 115.203 87.8425 110.445C101.211 102.807 119.617 88.6033 119.617 88.6033L92.167 72.6451L53.324 95.6122C46.0613 99.0287 38.4644 101.682 30.6553 103.529V103.529Z" stroke="#2E3192" stroke-width="1.015" stroke-miterlimit="10"/>
<path opacity="0.54" d="M67.863 126.574V155.859L122.989 123.803L123.787 87.7649L67.863 126.574Z" fill="#452680"/>
<path opacity="0.54" d="M67.863 126.574V155.859L122.989 123.803L123.787 87.7649L67.863 126.574Z" fill="#452680"/>
<path opacity="0.5" d="M70.8235 89.7209L91.268 76.9994L113.65 88.8438C113.65 88.8438 90.3225 102.986 88.5555 103.972C86.7885 104.957 67.3825 115.614 58.873 115.195L39.405 104.329L70.8235 89.7209Z" fill="white"/>
<path opacity="0.54" d="M77.5196 107.48C87.2485 107.48 95.1353 103.671 95.1353 98.9728C95.1353 94.2746 87.2485 90.4659 77.5196 90.4659C67.7906 90.4659 59.9038 94.2746 59.9038 98.9728C59.9038 103.671 67.7906 107.48 77.5196 107.48Z" fill="#452680"/>
<path opacity="0.68" d="M33.3987 113.93C39.1957 117.035 44.9798 120.178 50.7509 123.361C56.5221 126.543 62.2829 129.728 68.0334 132.915H67.6692L81.4409 123.888L95.2514 114.916L109.101 106.005C113.72 103.045 118.354 100.104 123.004 97.1802C118.463 100.285 113.908 103.348 109.341 106.37L95.6234 115.475L81.8749 124.533L68.0799 133.521L67.9017 133.637L67.7157 133.536C61.9755 130.318 56.2483 127.071 50.5339 123.795C44.8196 120.52 39.1078 117.231 33.3987 113.93Z" fill="#452680"/>
<path opacity="0.68" d="M33.3987 120.861C39.1957 123.966 44.9798 127.109 50.7509 130.291C56.5221 133.474 62.2829 136.659 68.0334 139.846H67.6692L81.4409 130.819L95.2514 121.847L109.101 112.936C113.72 109.976 118.354 107.035 123.004 104.111C118.463 107.216 113.908 110.279 109.341 113.301L95.6234 122.406L81.8749 131.471L68.0799 140.459L67.9017 140.576L67.7157 140.475C61.9548 137.251 56.2198 133.991 50.5107 130.695C44.8015 127.399 39.0975 124.121 33.3987 120.861Z" fill="#452680"/>
<path opacity="0.68" d="M33.5537 126.17C39.3507 129.275 45.1348 132.418 50.906 135.6C56.6771 138.783 62.438 141.968 68.1885 145.155H67.8242L81.5882 136.128L95.3987 127.156L109.248 118.276C113.867 115.316 118.501 112.375 123.151 109.451C118.61 112.556 114.056 115.619 109.488 118.641L95.7707 127.746L82.0145 136.788L68.2195 145.776L68.0412 145.893L67.8552 145.792C62.115 142.573 56.3878 139.326 50.6735 136.051C44.9591 132.775 39.2525 129.482 33.5537 126.17Z" fill="#452680"/>
<path opacity="0.68" d="M33.3987 131.355C39.1957 134.46 44.9798 137.603 50.7509 140.785C56.5221 143.968 62.2829 147.153 68.0334 150.34H67.6692L81.4409 141.313L95.2514 132.341L109.101 123.43C113.72 120.47 118.354 117.529 123.004 114.605C118.463 117.71 113.908 120.773 109.341 123.795L95.6234 132.899L81.8749 141.957L68.0799 150.946L67.9017 151.062L67.7157 150.961C61.9755 147.742 56.2483 144.495 50.5339 141.22C44.8196 137.945 39.1078 134.656 33.3987 131.355Z" fill="#452680"/>
<path d="M54.1145 93.3924L88.633 111.935V143.968L101.637 136.222V103.304L67.863 85.2659L54.1145 93.3924Z" fill="#DCE5CA"/>
<path d="M88.6331 111.935L101.638 103.304V136.222L88.6331 143.968V111.935Z" fill="#C7D1B0"/>
<path d="M81.2704 96.3804C82.1176 96.4508 82.9436 96.6826 83.7039 97.0634C84.2431 97.2908 84.702 97.6747 85.0214 98.1656C85.1381 98.3726 85.1941 98.6084 85.1832 98.8459C85.1722 99.0834 85.0947 99.313 84.9594 99.5084C84.5926 100.037 84.0962 100.462 83.5179 100.743L85.8429 101.868L84.5796 102.528L82.2546 101.363C81.1441 101.787 79.9705 102.02 78.7826 102.054C77.5048 102.114 76.2295 101.891 75.0471 101.402L77.4651 100.145C77.9609 100.335 78.4845 100.443 79.0151 100.463C79.4105 100.48 79.8065 100.447 80.1931 100.362L76.7134 98.6468C75.7136 98.9185 74.8534 99.1203 74.1481 99.2445C73.3801 99.3729 72.599 99.4042 71.8231 99.3376C70.9704 99.2651 70.1393 99.0307 69.3742 98.6468C68.8122 98.4256 68.3458 98.0135 68.0567 97.4826C67.9675 97.2642 67.9385 97.0259 67.9726 96.7924C68.0066 96.559 68.1026 96.339 68.2504 96.1553C68.5865 95.7173 69.0085 95.3528 69.4904 95.0842L67.1499 93.982L68.4131 93.3223L70.7381 94.4555C71.8234 94.0066 72.982 93.7619 74.1559 93.7336C75.3663 93.6881 76.5728 93.897 77.6976 94.3468L75.2486 95.6197C74.7887 95.4517 74.3044 95.36 73.8149 95.3481C73.4555 95.3341 73.0959 95.3681 72.7454 95.449L76.1244 97.11H76.2794C77.3127 96.8409 78.1911 96.6417 78.9144 96.5124C79.6908 96.3668 80.4827 96.3225 81.2704 96.3804ZM82.0454 99.1281C82.0454 98.8409 81.7974 98.5847 81.3324 98.3519C80.8761 98.1328 80.3732 98.0288 79.8676 98.0492C79.3828 98.0655 78.9004 98.1252 78.4261 98.2277L81.5959 99.7801C81.8981 99.5705 82.0531 99.3454 82.0454 99.1203V99.1281ZM74.3961 97.5136L71.4124 96.0466C71.3118 96.1087 71.2254 96.1912 71.1587 96.2888C71.0919 96.3864 71.0463 96.4969 71.0249 96.6133C71.0249 96.8694 71.2341 97.11 71.6836 97.3351C72.1282 97.5488 72.6166 97.6551 73.1096 97.6456C73.5414 97.6368 73.9716 97.5927 74.3961 97.5136Z" fill="#0A5293"/>
<path d="M131.932 52.4257L42.3345 72.3579V98.8022L77.318 119.852L131.932 87.796V52.4257Z" fill="#6E3FC3"/>
<path opacity="0.81" d="M132.242 52.3715L76.7987 90.5671L42.3345 72.358L68.3202 58.1695" fill="#452680"/>
<path d="M35.8398 66.9401L68.8858 86.0495C78.9725 84.4414 88.6865 81.0232 97.5608 75.9592C112.348 67.5144 132.715 51.7969 132.715 51.7969L102.335 34.1854L59.3998 59.5509C59.3998 59.5509 47.5113 65.3567 35.8398 66.9401Z" fill="#6E3FC3"/>
<path d="M39.5986 67.4914L69.4749 84.7769C79.0333 82.6635 88.2353 79.1732 96.7936 74.4149C110.162 66.7774 128.569 52.5733 128.569 52.5733L101.11 36.6384L62.2674 59.6055C55.0034 63.0113 47.4066 65.6541 39.5986 67.4914V67.4914Z" stroke="#2E3192" stroke-width="1.015" stroke-miterlimit="10"/>
<path opacity="0.54" d="M76.7988 90.567V119.852L131.932 87.796L132.731 51.7582L76.7988 90.567Z" fill="#452680"/>
<path opacity="0.54" d="M76.7988 90.567V119.852L131.932 87.796L132.731 51.7582L76.7988 90.567Z" fill="#452680"/>
<path opacity="0.5" d="M79.7671 53.7141L100.212 40.9926L122.555 52.837C122.555 52.837 99.2273 66.9789 97.4603 67.9647C95.6933 68.9504 76.2873 79.6073 67.7778 79.1882L48.3098 68.3217L79.7671 53.7141Z" fill="white"/>
<path opacity="0.54" d="M86.4554 71.4728C96.1843 71.4728 104.071 67.6641 104.071 62.9659C104.071 58.2676 96.1843 54.459 86.4554 54.459C76.7264 54.459 68.8396 58.2676 68.8396 62.9659C68.8396 67.6641 76.7264 71.4728 86.4554 71.4728Z" fill="#452680"/>
<path opacity="0.68" d="M42.3499 77.915C48.1469 81.0197 53.9309 84.1633 59.7021 87.3456C65.4733 90.5279 71.2341 93.7128 76.9846 96.9003H76.6204L90.3999 87.8889L104.21 78.9163L118.06 70.0058C122.679 67.046 127.313 64.1043 131.963 61.1807C127.422 64.2854 122.867 67.3487 118.3 70.3706L104.551 79.4674L90.7874 88.5254L76.9924 97.5057L76.8141 97.6222L76.6281 97.5213C70.8879 94.282 65.1607 91.035 59.4464 87.7802C53.732 84.5255 48.0332 81.2371 42.3499 77.915Z" fill="#452680"/>
<path opacity="0.68" d="M42.3499 84.8542C48.1469 87.9589 53.9309 91.1025 59.7021 94.2848C65.4733 97.4671 71.2341 100.652 76.9846 103.84H76.6204L90.3999 94.8281L104.21 85.8555L118.06 76.945C122.679 73.9852 127.313 71.0435 131.963 68.1199C127.422 71.2246 122.867 74.2879 118.3 77.3098L104.544 86.4532L90.7874 95.4646L76.9924 104.445L76.8141 104.561L76.6281 104.46C70.8828 101.252 65.1555 98.0053 59.4464 94.7194C53.7372 91.4336 48.0384 88.1452 42.3499 84.8542Z" fill="#452680"/>
<path opacity="0.68" d="M42.4895 90.163C48.2865 93.2677 54.0706 96.4112 59.8418 99.5936C65.6129 102.776 71.3738 105.961 77.1243 109.148H76.76L90.5317 100.121L104.35 91.1565L118.199 82.246C122.818 79.2862 127.453 76.3445 132.103 73.4209C127.561 76.5256 123.007 79.5889 118.439 82.6108L104.722 91.7154L90.9425 100.766L77.1475 109.738L76.9692 109.855L76.7833 109.754C71.0431 106.535 65.3158 103.288 59.6015 100.013C53.8872 96.7372 48.1832 93.454 42.4895 90.163Z" fill="#452680"/>
<path opacity="0.68" d="M42.3499 95.3402C48.1469 98.4449 53.9309 101.588 59.7021 104.771C65.4733 107.953 71.2341 111.138 76.9846 114.325H76.6204L90.3999 105.314L104.21 96.3415L118.06 87.431C122.679 84.4711 127.313 81.5294 131.963 78.6058C127.422 81.7105 122.867 84.7739 118.3 87.7958L104.582 96.9003L90.7874 105.951L76.9924 114.931L76.8141 115.047L76.6281 114.946C70.8879 111.728 65.1607 108.481 59.4464 105.205C53.732 101.93 48.0332 98.6415 42.3499 95.3402Z" fill="#452680"/>
<path d="M63.0503 57.3856L97.5766 75.9284V107.961L110.573 100.215V67.2974L76.7988 49.259L63.0503 57.3856Z" fill="#DCE5CA"/>
<path d="M97.5764 75.9283L110.573 67.2972V100.215L97.5764 107.961V75.9283Z" fill="#C7D1B0"/>
<path d="M90.2063 60.3739C91.0535 60.4442 91.8794 60.676 92.6397 61.0569C93.179 61.2843 93.6378 61.6681 93.9572 62.1591C94.0739 62.3661 94.13 62.6019 94.119 62.8394C94.1081 63.0769 94.0305 63.3065 93.8952 63.5018C93.5265 64.0246 93.0302 64.4441 92.4538 64.7204L94.7787 65.8459L93.5155 66.5056L91.1905 65.3414C90.08 65.7649 88.9063 65.9984 87.7185 66.0322C86.4407 66.0917 85.1654 65.8691 83.983 65.3802L86.401 64.1228C86.8967 64.3134 87.4204 64.4209 87.951 64.441C88.3464 64.4584 88.7423 64.4245 89.129 64.3401L85.6493 62.6248C84.6495 62.8964 83.7893 63.0982 83.084 63.2224C82.316 63.3508 81.5348 63.3821 80.759 63.3156C79.9063 63.243 79.0752 63.0086 78.31 62.6248C77.748 62.4035 77.2817 61.9914 76.9925 61.4605C76.9034 61.2421 76.8744 61.0038 76.9084 60.7704C76.9425 60.5369 77.0384 60.3169 77.1863 60.1332C77.5224 59.6953 77.9443 59.3308 78.4263 59.0621L76.1555 57.9444L77.4188 57.2847L79.7438 58.4179C80.8291 57.969 81.9877 57.7243 83.1615 57.696C84.3719 57.6505 85.5784 57.8594 86.7033 58.3092L84.2 59.6132C83.74 59.4452 83.2557 59.3534 82.7663 59.3415C82.4069 59.3276 82.0472 59.3615 81.6968 59.4424L85.0758 61.1035H85.2308C86.2641 60.8344 87.1424 60.6352 87.8658 60.5058C88.6371 60.3616 89.4237 60.3173 90.2063 60.3739ZM90.9812 63.1215C90.9812 62.8343 90.7333 62.5782 90.2683 62.3453C89.812 62.1262 89.3091 62.0223 88.8035 62.0426C88.3186 62.0589 87.8362 62.1186 87.362 62.2211L90.5317 63.7735C90.834 63.5639 90.989 63.3388 90.9812 63.1138V63.1215ZM83.332 61.5071L80.325 60.0634C80.2245 60.1254 80.138 60.2079 80.0713 60.3055C80.0045 60.4031 79.959 60.5137 79.9375 60.63C79.9375 60.8861 80.1468 61.1267 80.5963 61.3518C81.0408 61.5655 81.5292 61.6719 82.0223 61.6623C82.454 61.6535 82.8842 61.6094 83.3088 61.5304" fill="#0A5293"/>
<path d="M178.882 85.7467L150.013 100.921L179.416 118.074H180.191C191.716 111.71 199.52 106.983 207.704 101.922C197.086 96.2639 188.678 92.6624 178.882 85.7467Z" fill="#452680"/>
<path d="M161.592 103.32C171.676 103.32 179.85 98.5242 179.85 92.6086C179.85 86.6929 171.676 81.8973 161.592 81.8973C151.507 81.8973 143.333 86.6929 143.333 92.6086C143.333 98.5242 151.507 103.32 161.592 103.32Z" fill="#FF912E"/>
<path d="M143.333 92.6159V89.5189L145.324 91.9949L143.333 92.6159Z" fill="#E0944F"/>
<path d="M179.858 89.5189V92.6159H177.541L179.238 90.1243L179.858 89.5189Z" fill="#E0944F"/>
<path d="M161.592 100.23C171.676 100.23 179.85 95.4346 179.85 89.519C179.85 83.6033 171.676 78.8077 161.592 78.8077C151.507 78.8077 143.333 83.6033 143.333 89.519C143.333 95.4346 151.507 100.23 161.592 100.23Z" fill="#FFB92C"/>
<path d="M170.861 88.0829C170.982 88.3226 171.033 88.5916 171.008 88.8591L170.938 89.1463H167.606C167.635 89.0527 167.656 88.9566 167.668 88.8591C167.654 88.6432 167.584 88.4346 167.466 88.2537C167.293 87.9214 167.023 87.6504 166.691 87.4775C166.211 87.227 165.682 87.0865 165.141 87.0661C164.634 87.0306 164.125 87.1102 163.653 87.299C163.188 87.5008 163.007 87.7595 163.111 88.0751C163.268 88.4729 163.512 88.8308 163.824 89.123C164.183 89.4903 164.519 89.8791 164.831 90.2872C164.979 90.4632 165.075 90.6776 165.106 90.9057C165.138 91.1337 165.104 91.366 165.009 91.5757C164.643 92.1828 164.067 92.6333 163.39 92.8409C162.269 93.3086 161.07 93.5588 159.856 93.5782C158.542 93.6242 157.231 93.4403 155.981 93.0349L154.066 93.8577L151.819 92.7632L153.687 91.9871C153.355 91.7716 153.055 91.5103 152.795 91.2109C152.6 90.9825 152.45 90.7191 152.354 90.4347C152.29 90.2386 152.251 90.0352 152.237 89.8293C152.215 89.6905 152.215 89.549 152.237 89.4102L152.299 89.2549H155.632C155.599 89.3669 155.573 89.481 155.554 89.5964C155.566 89.8763 155.661 90.1463 155.826 90.3726C156.094 90.7884 156.48 91.1153 156.934 91.3118C157.536 91.6163 158.197 91.7884 158.871 91.8163C159.48 91.8568 160.089 91.7586 160.654 91.5291C161.114 91.3325 161.287 91.0738 161.173 90.7529C160.998 90.3491 160.733 89.9906 160.398 89.7051C160.03 89.3448 159.688 88.9583 159.375 88.5486C159.229 88.3693 159.138 88.1513 159.113 87.9212C159.089 87.6911 159.131 87.4588 159.236 87.2524C159.632 86.6356 160.233 86.1792 160.933 85.9639C162.009 85.5289 163.159 85.3024 164.32 85.2964C165.548 85.2565 166.773 85.4487 167.931 85.863L169.845 85.0403L171.938 86.1813L170.024 87.004C170.389 87.2868 170.677 87.6581 170.861 88.0829Z" fill="#EA8B24"/>
<path d="M161.63 98.647C170.097 98.647 176.96 94.6194 176.96 89.6512C176.96 84.6829 170.097 80.6553 161.63 80.6553C153.164 80.6553 146.301 84.6829 146.301 89.6512C146.301 94.6194 153.164 98.647 161.63 98.647Z" stroke="#F7931E" stroke-width="2.03" stroke-miterlimit="10"/>
<path d="M161.592 99.423C171.676 99.423 179.85 94.6274 179.85 88.7117C179.85 82.7961 171.676 78.0005 161.592 78.0005C151.507 78.0005 143.333 82.7961 143.333 88.7117C143.333 94.6274 151.507 99.423 161.592 99.423Z" fill="#FF912E"/>
<path d="M143.333 88.7117V85.6147L145.324 88.0907L143.333 88.7117Z" fill="#E0944F"/>
<path d="M179.858 85.6147V88.7117H177.541L179.238 86.2279L179.858 85.6147Z" fill="#E0944F"/>
<path d="M161.592 96.326C171.676 96.326 179.85 91.5304 179.85 85.6148C179.85 79.6991 171.676 74.9036 161.592 74.9036C151.507 74.9036 143.333 79.6991 143.333 85.6148C143.333 91.5304 151.507 96.326 161.592 96.326Z" fill="#FFB92C"/>
<path d="M170.86 84.1793C170.981 84.419 171.032 84.688 171.008 84.9555L170.938 85.2427H167.605C167.635 85.1491 167.656 85.053 167.667 84.9555C167.654 84.7396 167.584 84.531 167.466 84.3501C167.293 84.0178 167.023 83.7468 166.691 83.5739C166.211 83.3234 165.682 83.1829 165.141 83.1625C164.634 83.127 164.125 83.2066 163.653 83.3954C163.188 83.5972 163.007 83.8559 163.11 84.1715C163.268 84.5693 163.511 84.9272 163.823 85.2194C164.174 85.6102 164.5 86.0223 164.8 86.4535C164.948 86.6295 165.043 86.8439 165.075 87.0719C165.107 87.2999 165.073 87.5323 164.978 87.742C164.612 88.349 164.035 88.7995 163.358 89.0071C162.238 89.4748 161.038 89.725 159.824 89.7445C158.511 89.7904 157.2 89.6066 155.949 89.2012L154.035 90.0239L151.788 88.9295L153.655 88.1533C153.323 87.9378 153.023 87.6766 152.764 87.3772C152.569 87.1487 152.419 86.8854 152.322 86.601C152.258 86.4049 152.219 86.2015 152.206 85.9956C152.184 85.8568 152.184 85.7152 152.206 85.5764L152.268 85.4212H155.601C155.567 85.5332 155.541 85.6473 155.523 85.7627C155.535 86.0426 155.629 86.3126 155.794 86.5389C156.063 86.9547 156.449 87.2815 156.903 87.4781C157.505 87.7826 158.166 87.9546 158.84 87.9826C159.448 88.0231 160.058 87.9249 160.623 87.6954C161.082 87.4987 161.256 87.24 161.142 86.9192C160.967 86.5153 160.702 86.1569 160.367 85.8714C159.998 85.5111 159.657 85.1246 159.344 84.7149C159.198 84.5355 159.107 84.3176 159.082 84.0875C159.057 83.8574 159.1 83.625 159.204 83.4186C159.6 82.8019 160.202 82.3455 160.902 82.1302C161.978 81.6951 163.127 81.4686 164.288 81.4627C165.517 81.4227 166.742 81.615 167.9 82.0293L169.814 81.2065L171.907 82.3475L169.992 83.1703C170.36 83.4298 170.659 83.7764 170.86 84.1793Z" fill="#EA8B24"/>
<path d="M161.63 94.7425C170.097 94.7425 176.96 90.7149 176.96 85.7466C176.96 80.7783 170.097 76.7507 161.63 76.7507C153.164 76.7507 146.301 80.7783 146.301 85.7466C146.301 90.7149 153.164 94.7425 161.63 94.7425Z" stroke="#F7931E" stroke-width="2.03" stroke-miterlimit="10"/>
<path d="M161.592 95.7127C171.676 95.7127 179.85 90.9172 179.85 85.0015C179.85 79.0859 171.676 74.2903 161.592 74.2903C151.507 74.2903 143.333 79.0859 143.333 85.0015C143.333 90.9172 151.507 95.7127 161.592 95.7127Z" fill="#FF912E"/>
<path d="M143.333 85.0015V81.9045L145.324 84.3805L143.333 85.0015Z" fill="#E0944F"/>
<path d="M179.858 81.9045V85.0015H177.541L179.238 82.5177L179.858 81.9045Z" fill="#E0944F"/>
<path d="M161.592 92.6156C171.676 92.6156 179.85 87.82 179.85 81.9044C179.85 75.9887 171.676 71.1931 161.592 71.1931C151.507 71.1931 143.333 75.9887 143.333 81.9044C143.333 87.82 151.507 92.6156 161.592 92.6156Z" fill="#FFB92C"/>
<path d="M170.861 80.4767C170.982 80.7164 171.033 80.9854 171.008 81.2529L170.938 81.5401H167.606C167.635 81.4465 167.656 81.3504 167.668 81.2529C167.654 81.037 167.584 80.8284 167.466 80.6475C167.293 80.3152 167.023 80.0442 166.691 79.8713C166.211 79.6208 165.682 79.4803 165.141 79.4599C164.634 79.4244 164.125 79.504 163.653 79.6928C163.188 79.8946 163.007 80.1533 163.111 80.4689C163.268 80.8667 163.512 81.2246 163.824 81.5168C164.183 81.8841 164.519 82.2729 164.831 82.681C164.979 82.857 165.075 83.0714 165.106 83.2995C165.138 83.5275 165.104 83.7598 165.009 83.9695C164.643 84.5766 164.067 85.0271 163.39 85.2347C162.269 85.7024 161.07 85.9526 159.856 85.972C158.542 86.018 157.231 85.8341 155.981 85.4287L154.066 86.2515L151.819 85.1571L153.687 84.3809C153.355 84.1654 153.055 83.9041 152.795 83.6047C152.6 83.3763 152.45 83.1129 152.354 82.8285C152.29 82.6324 152.251 82.429 152.237 82.2231C152.215 82.0843 152.215 81.9428 152.237 81.804L152.299 81.6487H155.632C155.599 81.7607 155.573 81.8748 155.554 81.9902C155.566 82.2701 155.661 82.5401 155.826 82.7664C156.094 83.1822 156.48 83.5091 156.934 83.7056C157.536 84.0101 158.197 84.1822 158.871 84.2101C159.48 84.2506 160.089 84.1524 160.654 83.9229C161.114 83.7263 161.287 83.4676 161.173 83.1467C160.998 82.7429 160.733 82.3844 160.398 82.0989C160.03 81.7386 159.688 81.3521 159.375 80.9424C159.229 80.7631 159.138 80.5451 159.113 80.315C159.089 80.0849 159.131 79.8526 159.236 79.6462C159.632 79.0294 160.233 78.573 160.933 78.3577C162.009 77.9227 163.159 77.6962 164.32 77.6902C165.548 77.6503 166.773 77.8425 167.931 78.2568L169.845 77.4341L171.938 78.5751L170.062 79.4677C170.405 79.7355 170.679 80.0815 170.861 80.4767Z" fill="#EA8B24"/>
<path d="M161.63 91.0326C170.097 91.0326 176.96 87.0051 176.96 82.0368C176.96 77.0685 170.097 73.0409 161.63 73.0409C153.164 73.0409 146.301 77.0685 146.301 82.0368C146.301 87.0051 153.164 91.0326 161.63 91.0326Z" stroke="#F7931E" stroke-width="2.03" stroke-miterlimit="10"/>
<path d="M161.592 91.9331C171.676 91.9331 179.85 87.1375 179.85 81.2219C179.85 75.3062 171.676 70.5106 161.592 70.5106C151.507 70.5106 143.333 75.3062 143.333 81.2219C143.333 87.1375 151.507 91.9331 161.592 91.9331Z" fill="#FF912E"/>
<path d="M143.333 81.2218V78.1249L145.324 80.6009L143.333 81.2218Z" fill="#E0944F"/>
<path d="M179.858 78.1249V81.2218H177.541L179.238 78.7381L179.858 78.1249Z" fill="#E0944F"/>
<path d="M161.592 88.8362C171.676 88.8362 179.85 84.0406 179.85 78.1249C179.85 72.2093 171.676 67.4137 161.592 67.4137C151.507 67.4137 143.333 72.2093 143.333 78.1249C143.333 84.0406 151.507 88.8362 161.592 88.8362Z" fill="#FFB92C"/>
<path d="M170.86 76.6966C170.981 76.9363 171.032 77.2053 171.008 77.4728L170.938 77.76H167.605C167.635 77.6664 167.656 77.5703 167.667 77.4728C167.654 77.2569 167.584 77.0483 167.466 76.8674C167.293 76.5351 167.023 76.2641 166.691 76.0912C166.211 75.8407 165.682 75.7002 165.141 75.6798C164.634 75.6443 164.125 75.7239 163.653 75.9127C163.188 76.1145 163.007 76.3732 163.11 76.6889C163.268 77.0866 163.511 77.4445 163.823 77.7367C164.182 78.104 164.519 78.4928 164.831 78.9009C164.979 79.0769 165.074 79.2913 165.106 79.5194C165.138 79.7474 165.104 79.9797 165.009 80.1894C164.643 80.7965 164.066 81.247 163.389 81.4546C162.269 81.9223 161.069 82.1725 159.855 82.1919C158.542 82.2379 157.231 82.054 155.98 81.6486L154.035 82.5723L151.788 81.4778L153.655 80.7017C153.323 80.4862 153.023 80.2249 152.764 79.9255C152.569 79.6971 152.419 79.4337 152.322 79.1493C152.258 78.9532 152.219 78.7498 152.206 78.5439C152.184 78.4051 152.184 78.2636 152.206 78.1248L152.268 77.9695H155.601C155.567 78.0816 155.541 78.1956 155.523 78.3111C155.535 78.5909 155.629 78.861 155.794 79.0872C156.063 79.5031 156.449 79.8299 156.903 80.0264C157.505 80.3309 158.166 80.503 158.84 80.5309C159.448 80.5714 160.058 80.4732 160.623 80.2437C161.082 80.0471 161.256 79.7884 161.142 79.4676C160.967 79.0637 160.702 78.7052 160.367 78.4197C160.006 78.036 159.675 77.6261 159.375 77.1934C159.229 77.014 159.138 76.7961 159.113 76.566C159.088 76.3359 159.131 76.1035 159.235 75.8972C159.631 75.2804 160.233 74.824 160.933 74.6087C162.009 74.1736 163.158 73.9471 164.319 73.9412C165.548 73.9013 166.773 74.0935 167.931 74.5078L169.845 73.6851L171.938 74.826L170.023 75.6488C170.385 75.9229 170.673 76.2831 170.86 76.6966Z" fill="#EA8B24"/>
<path d="M161.63 87.2523C170.097 87.2523 176.96 83.2247 176.96 78.2564C176.96 73.2881 170.097 69.2605 161.63 69.2605C153.164 69.2605 146.301 73.2881 146.301 78.2564C146.301 83.2247 153.164 87.2523 161.63 87.2523Z" stroke="#F7931E" stroke-width="2.03" stroke-miterlimit="10"/>
<path d="M161.452 87.2914C171.536 87.2914 179.711 82.4958 179.711 76.5801C179.711 70.6645 171.536 65.8689 161.452 65.8689C151.368 65.8689 143.193 70.6645 143.193 76.5801C143.193 82.4958 151.368 87.2914 161.452 87.2914Z" fill="#FF912E"/>
<path d="M143.193 76.58V73.483L145.177 75.959L143.193 76.58Z" fill="#E0944F"/>
<path d="M179.711 73.483V76.58H177.394L179.091 74.0962L179.711 73.483Z" fill="#E0944F"/>
<path d="M161.452 84.1942C171.536 84.1942 179.711 79.3986 179.711 73.483C179.711 67.5673 171.536 62.7717 161.452 62.7717C151.368 62.7717 143.193 67.5673 143.193 73.483C143.193 79.3986 151.368 84.1942 161.452 84.1942Z" fill="#FFB92C"/>
<path d="M170.713 72.0549C170.834 72.2946 170.885 72.5637 170.86 72.8311L170.791 73.1183H167.458C167.488 73.0247 167.509 72.9286 167.52 72.8311C167.506 72.6152 167.437 72.4066 167.319 72.2257C167.146 71.8934 166.875 71.6224 166.544 71.4495C166.064 71.199 165.534 71.0585 164.994 71.0381C164.487 71.0027 163.978 71.0823 163.506 71.271C163.041 71.4728 162.86 71.7315 162.963 72.0472C163.121 72.4449 163.364 72.8028 163.676 73.095C164.035 73.4623 164.372 73.8512 164.684 74.2593C164.832 74.4353 164.927 74.6497 164.959 74.8777C164.99 75.1057 164.957 75.338 164.862 75.5477C164.496 76.1548 163.919 76.6053 163.242 76.8129C162.121 77.2806 160.922 77.5308 159.708 77.5503C158.395 77.5962 157.084 77.4124 155.833 77.0069L153.888 77.9151L151.625 76.8284L153.493 76.0522C153.161 75.8368 152.861 75.5755 152.601 75.2761C152.407 75.0477 152.257 74.7843 152.16 74.4999C152.096 74.3038 152.057 74.1004 152.043 73.8945C152.021 73.7557 152.021 73.6141 152.043 73.4753L152.105 73.3201H155.5C155.467 73.4321 155.441 73.5462 155.422 73.6616C155.435 73.9415 155.529 74.2115 155.694 74.4378C155.962 74.8536 156.348 75.1804 156.802 75.377C157.405 75.6815 158.065 75.8535 158.739 75.8815C159.348 75.922 159.957 75.8238 160.522 75.5943C160.982 75.3977 161.155 75.1389 161.041 74.8181C160.866 74.4142 160.601 74.0558 160.266 73.7703C159.898 73.41 159.556 73.0235 159.243 72.6138C159.097 72.4344 159.006 72.2165 158.982 71.9864C158.957 71.7563 158.999 71.524 159.104 71.3176C159.5 70.7008 160.101 70.2444 160.801 70.0291C161.878 69.594 163.027 69.3675 164.188 69.3616C165.416 69.3217 166.642 69.5139 167.799 69.9282L169.713 69.1055L171.806 70.2464L169.892 71.0692C170.24 71.3278 170.521 71.6657 170.713 72.0549Z" fill="#EA8B24"/>
<path d="M161.483 82.611C169.949 82.611 176.812 78.5834 176.812 73.6152C176.812 68.6469 169.949 64.6193 161.483 64.6193C153.017 64.6193 146.153 68.6469 146.153 73.6152C146.153 78.5834 153.017 82.611 161.483 82.611Z" stroke="#F7931E" stroke-width="2.03" stroke-miterlimit="10"/>
<path d="M161.452 83.3872C171.536 83.3872 179.711 78.5916 179.711 72.676C179.711 66.7603 171.536 61.9647 161.452 61.9647C151.368 61.9647 143.193 66.7603 143.193 72.676C143.193 78.5916 151.368 83.3872 161.452 83.3872Z" fill="#FF912E"/>
<path d="M143.193 72.6762V69.587L145.177 72.0553L143.193 72.6762Z" fill="#E0944F"/>
<path d="M179.711 69.587V72.6762H177.394L179.091 70.1925L179.711 69.587Z" fill="#E0944F"/>
<path d="M161.452 80.29C171.536 80.29 179.711 75.4944 179.711 69.5788C179.711 63.6631 171.536 58.8676 161.452 58.8676C151.368 58.8676 143.193 63.6631 143.193 69.5788C143.193 75.4944 151.368 80.29 161.452 80.29Z" fill="#FFB92C"/>
<path d="M170.713 68.1508C170.834 68.3905 170.885 68.6595 170.86 68.9269L170.791 69.2141H167.458C167.488 69.1206 167.509 69.0244 167.52 68.9269C167.506 68.7111 167.437 68.5025 167.319 68.3215C167.146 67.9892 166.875 67.7182 166.544 67.5453C166.064 67.2949 165.534 67.1543 164.994 67.134C164.487 67.0985 163.978 67.1781 163.506 67.3668C163.041 67.5686 162.86 67.8274 162.963 68.143C163.121 68.5408 163.364 68.8986 163.676 69.1908C164.035 69.5582 164.372 69.947 164.684 70.3551C164.834 70.5434 164.926 70.7723 164.947 71.0127C164.967 71.2531 164.916 71.4943 164.8 71.7057C164.434 72.3127 163.857 72.7632 163.18 72.9708C162.059 73.4385 160.86 73.6888 159.646 73.7082C158.333 73.7541 157.022 73.5703 155.771 73.1649L153.888 74.0342L151.625 72.9243L153.493 72.1481C153.161 71.9326 152.861 71.6713 152.601 71.3719C152.407 71.1435 152.257 70.8801 152.16 70.5957C152.096 70.3996 152.057 70.1962 152.043 69.9903C152.021 69.8515 152.021 69.71 152.043 69.5712L152.105 69.4159H155.5C155.467 69.5279 155.441 69.642 155.422 69.7574C155.435 70.0373 155.529 70.3073 155.694 70.5336C155.962 70.9495 156.348 71.2763 156.802 71.4728C157.405 71.7773 158.065 71.9494 158.739 71.9773C159.348 72.0178 159.957 71.9196 160.522 71.6901C160.982 71.4935 161.155 71.2348 161.041 70.914C160.866 70.5101 160.601 70.1516 160.266 69.8661C159.898 69.5058 159.556 69.1193 159.243 68.7096C159.097 68.5303 159.006 68.3123 158.982 68.0822C158.957 67.8521 158.999 67.6198 159.104 67.4134C159.5 66.7966 160.101 66.3402 160.801 66.1249C161.878 65.6899 163.027 65.4634 164.188 65.4574C165.416 65.4175 166.642 65.6097 167.799 66.024L169.713 65.2013L171.806 66.3423L169.892 67.165C170.24 67.4236 170.521 67.7615 170.713 68.1508Z" fill="#EA8B24"/>
<path d="M161.483 78.7069C169.949 78.7069 176.812 74.6793 176.812 69.711C176.812 64.7427 169.949 60.7151 161.483 60.7151C153.017 60.7151 146.153 64.7427 146.153 69.711C146.153 74.6793 153.017 78.7069 161.483 78.7069Z" stroke="#F7931E" stroke-width="2.03" stroke-miterlimit="10"/>
<path d="M161.739 79.6771C171.823 79.6771 179.998 74.8815 179.998 68.9659C179.998 63.0502 171.823 58.2546 161.739 58.2546C151.655 58.2546 143.48 63.0502 143.48 68.9659C143.48 74.8815 151.655 79.6771 161.739 79.6771Z" fill="#FF912E"/>
<path d="M143.48 68.9659V65.8767L145.464 68.345L143.48 68.9659Z" fill="#E0944F"/>
<path d="M179.998 65.8767V68.9659H177.68L179.378 66.4821L179.998 65.8767Z" fill="#E0944F"/>
<path d="M161.739 76.588C171.823 76.588 179.998 71.7924 179.998 65.8768C179.998 59.9611 171.823 55.1655 161.739 55.1655C151.655 55.1655 143.48 59.9611 143.48 65.8768C143.48 71.7924 151.655 76.588 161.739 76.588Z" fill="#FFB92C"/>
<path d="M171 64.4407C171.121 64.6804 171.172 64.9494 171.147 65.2168L171.078 65.504H167.745C167.775 65.4105 167.795 65.3143 167.807 65.2168C167.793 65.001 167.724 64.7924 167.605 64.6114C167.433 64.2791 167.162 64.0081 166.83 63.8352C166.351 63.5847 165.821 63.4442 165.28 63.4239C164.773 63.3884 164.265 63.468 163.792 63.6567C163.327 63.8585 163.147 64.1172 163.25 64.4329C163.407 64.8306 163.651 65.1885 163.963 65.4807C164.322 65.8481 164.658 66.2369 164.971 66.645C165.119 66.821 165.214 67.0354 165.246 67.2634C165.277 67.4914 165.244 67.7238 165.149 67.9335C164.783 68.5405 164.206 68.991 163.529 69.1986C162.408 69.6663 161.209 69.9165 159.995 69.936C158.682 69.9819 157.37 69.7981 156.12 69.3927L154.206 70.2154L151.958 69.121L153.826 68.3448C153.494 68.1293 153.194 67.868 152.935 67.5686C152.74 67.3402 152.59 67.0769 152.493 66.7925C152.429 66.5964 152.39 66.393 152.377 66.1871C152.354 66.0483 152.354 65.9067 152.377 65.7679L152.439 65.6127H155.771C155.738 65.7247 155.712 65.8388 155.694 65.9542C155.706 66.234 155.8 66.5041 155.965 66.7304C156.22 67.16 156.598 67.5032 157.05 67.7161C157.653 68.0207 158.313 68.1927 158.988 68.2206C159.596 68.2612 160.205 68.163 160.77 67.9335C161.23 67.7368 161.403 67.4781 161.289 67.1573C161.114 66.7534 160.849 66.395 160.514 66.1094C160.146 65.7492 159.804 65.3626 159.491 64.9529C159.345 64.7736 159.254 64.5556 159.23 64.3255C159.205 64.0955 159.247 63.8631 159.352 63.6567C159.767 63.0369 160.392 62.5877 161.111 62.3915C162.188 61.9565 163.337 61.73 164.498 61.724C165.726 61.6841 166.952 61.8763 168.109 62.2906L170.024 61.4679L172.116 62.6089L170.225 63.4083C170.562 63.6855 170.828 64.0395 171 64.4407Z" fill="#EA8B24"/>
<path d="M161.77 74.9967C170.236 74.9967 177.099 70.9691 177.099 66.0008C177.099 61.0325 170.236 57.0049 161.77 57.0049C153.303 57.0049 146.44 61.0325 146.44 66.0008C146.44 70.9691 153.303 74.9967 161.77 74.9967Z" stroke="#F7931E" stroke-width="2.03" stroke-miterlimit="10"/>
<path d="M167.241 75.0277C177.325 75.0277 185.5 70.2321 185.5 64.3165C185.5 58.4008 177.325 53.6052 167.241 53.6052C157.157 53.6052 148.982 58.4008 148.982 64.3165C148.982 70.2321 157.157 75.0277 167.241 75.0277Z" fill="#FF912E"/>
<path d="M148.982 64.3169V61.2277L150.966 63.6959L148.982 64.3169Z" fill="#E0944F"/>
<path d="M185.5 61.2277V64.3169H183.183L184.88 61.8331L185.5 61.2277Z" fill="#E0944F"/>
<path d="M167.241 71.9385C177.325 71.9385 185.5 67.1429 185.5 61.2272C185.5 55.3116 177.325 50.516 167.241 50.516C157.157 50.516 148.982 55.3116 148.982 61.2272C148.982 67.1429 157.157 71.9385 167.241 71.9385Z" fill="#FFB92C"/>
<path d="M176.502 59.7916C176.623 60.0313 176.674 60.3003 176.65 60.5677L176.58 60.8549H173.247C173.277 60.7614 173.298 60.6652 173.309 60.5677C173.296 60.3519 173.226 60.1432 173.108 59.9623C172.935 59.63 172.665 59.359 172.333 59.1861C171.853 58.9356 171.324 58.7951 170.783 58.7748C170.276 58.7393 169.767 58.8189 169.295 59.0076C168.83 59.2094 168.649 59.4681 168.752 59.7838C168.91 60.1815 169.153 60.5394 169.465 60.8316C169.824 61.199 170.161 61.5878 170.473 61.9959C170.621 62.1719 170.717 62.3863 170.748 62.6143C170.78 62.8423 170.746 63.0746 170.651 63.2843C170.285 63.8914 169.709 64.3419 169.031 64.5495C167.911 65.0172 166.711 65.2674 165.497 65.2869C164.184 65.3328 162.873 65.149 161.622 64.7435L159.708 65.5663L157.461 64.4719L159.328 63.6957C158.996 63.4802 158.696 63.2189 158.437 62.9195C158.242 62.6911 158.092 62.4277 157.995 62.1434C157.919 61.9745 157.862 61.7974 157.825 61.6156C157.802 61.4768 157.802 61.3352 157.825 61.1964L157.887 61.0412H161.219C161.186 61.1532 161.16 61.2673 161.142 61.3827C161.154 61.6626 161.248 61.9326 161.413 62.1589C161.682 62.5747 162.068 62.9015 162.521 63.0981C163.124 63.4026 163.785 63.5746 164.459 63.6026C165.067 63.6431 165.677 63.5449 166.241 63.3154C166.701 63.1188 166.874 62.86 166.761 62.5392C166.586 62.1353 166.32 61.7769 165.986 61.4914C165.617 61.1311 165.275 60.7446 164.963 60.3349C164.817 60.1555 164.726 59.9376 164.701 59.7075C164.676 59.4774 164.719 59.2451 164.823 59.0387C165.239 58.3982 165.877 57.9339 166.613 57.7347C167.69 57.2996 168.839 57.0731 170 57.0672C171.229 57.0272 172.454 57.2195 173.612 57.6338L175.526 56.811L177.618 57.952L175.704 58.7748C176.048 59.0448 176.321 59.3935 176.502 59.7916Z" fill="#EA8B24"/>
<path d="M167.272 70.3477C175.738 70.3477 182.602 66.3201 182.602 61.3518C182.602 56.3836 175.738 52.356 167.272 52.356C158.806 52.356 151.943 56.3836 151.943 61.3518C151.943 66.3201 158.806 70.3477 167.272 70.3477Z" stroke="#F7931E" stroke-width="2.03" stroke-miterlimit="10"/>
<path d="M254.615 93.4935L165.017 113.434V139.878L200.001 160.92L254.615 128.872V93.4935Z" fill="#6E3FC3"/>
<path opacity="0.81" d="M254.925 93.4465L199.481 131.642L165.017 113.433L191.003 99.2446" fill="#452680"/>
<path d="M158.53 108.007L191.576 127.117C201.663 125.509 211.377 122.09 220.251 117.026C235.038 108.582 255.405 92.8641 255.405 92.8641L225.025 75.2527L182.067 100.657C182.067 100.657 170.225 106.424 158.53 108.007Z" fill="#6E3FC3"/>
<path d="M162.281 108.567L192.15 125.844C201.708 123.731 210.91 120.24 219.469 115.482C232.837 107.845 251.244 93.6406 251.244 93.6406L223.793 77.7135L184.95 100.681C177.686 104.086 170.089 106.729 162.281 108.567V108.567Z" stroke="#2E3192" stroke-width="1.015" stroke-miterlimit="10"/>
<path opacity="0.54" d="M199.481 131.642V160.919L254.615 128.871L255.413 92.8333L199.481 131.642Z" fill="#452680"/>
<path opacity="0.54" d="M199.481 131.642V160.919L254.615 128.871L255.413 92.8333L199.481 131.642Z" fill="#452680"/>
<path opacity="0.5" d="M202.449 94.7895L222.925 82.068L245.268 93.9125C245.268 93.9125 221.941 108.054 220.174 109.04C218.407 110.026 199.001 120.683 190.491 120.264L171 109.428L202.449 94.7895Z" fill="white"/>
<path opacity="0.54" d="M209.138 112.548C218.867 112.548 226.753 108.74 226.753 104.041C226.753 99.3431 218.867 95.5344 209.138 95.5344C199.409 95.5344 191.522 99.3431 191.522 104.041C191.522 108.74 199.409 112.548 209.138 112.548Z" fill="#452680"/>
<path opacity="0.68" d="M165.017 118.99C170.814 122.095 176.598 125.239 182.369 128.421C188.14 131.603 193.909 134.788 199.675 137.976H199.311L213.083 128.949L226.893 119.976L240.75 111.081C245.369 108.121 250.004 105.18 254.654 102.256C250.112 105.361 245.558 108.424 240.99 111.446L227.273 120.55L213.47 129.601L199.675 138.581L199.497 138.697L199.311 138.597C193.571 135.378 187.843 132.131 182.129 128.856C176.415 125.58 170.711 122.292 165.017 118.99Z" fill="#452680"/>
<path opacity="0.68" d="M165.017 125.929C170.814 129.034 176.598 132.178 182.369 135.36C188.14 138.542 193.909 141.727 199.675 144.915H199.311L213.083 135.888L226.893 126.915L240.75 118.02C245.369 115.06 250.004 112.119 254.654 109.195C250.112 112.3 245.558 115.363 240.99 118.385L227.273 127.489L213.47 136.532L199.675 145.52L199.497 145.636L199.311 145.536C193.571 142.317 187.843 139.07 182.129 135.795C176.415 132.519 170.711 129.231 165.017 125.929Z" fill="#452680"/>
<path opacity="0.68" d="M165.172 131.231C170.969 134.336 176.753 137.479 182.524 140.661C188.295 143.844 194.056 147.029 199.807 150.216H199.442L213.214 141.189L227.017 132.248L240.866 123.337C245.485 120.377 250.12 117.436 254.77 114.512C250.228 117.617 245.674 120.68 241.106 123.702L227.389 132.807L213.625 141.841L199.83 150.829L199.652 150.946L199.466 150.845C193.725 147.626 187.998 144.379 182.284 141.104C176.57 137.828 170.866 134.537 165.172 131.231Z" fill="#452680"/>
<path opacity="0.68" d="M165.017 136.416C170.814 139.521 176.598 142.664 182.369 145.846C188.14 149.029 193.909 152.214 199.675 155.401H199.311L213.083 146.374L226.893 137.402L240.75 128.507C245.369 125.547 250.004 122.605 254.654 119.682C250.112 122.786 245.558 125.85 240.99 128.871L227.273 137.976L213.47 146.995L199.675 156.007L199.497 156.123L199.311 156.022C193.571 152.804 187.843 149.557 182.129 146.281C176.415 143.006 170.711 139.717 165.017 136.416Z" fill="#452680"/>
<path d="M185.733 98.4604L220.259 116.995V149.036L233.256 141.282V108.372L199.481 90.326L185.733 98.4604Z" fill="#DCE5CA"/>
<path d="M220.259 116.996L233.256 108.372V141.282L220.259 149.036V116.996Z" fill="#C7D1B0"/>
<path d="M212.889 101.449C213.736 101.519 214.562 101.751 215.322 102.132C215.861 102.359 216.32 102.743 216.64 103.234C216.756 103.441 216.812 103.677 216.801 103.914C216.79 104.152 216.713 104.382 216.578 104.577C216.211 105.105 215.714 105.53 215.136 105.811L217.461 106.936L216.198 107.596L213.873 106.432C212.762 106.855 211.589 107.089 210.401 107.123C209.123 107.182 207.848 106.96 206.665 106.471L209.083 105.213C209.579 105.404 210.103 105.511 210.633 105.532C211.029 105.549 211.425 105.515 211.811 105.431L208.332 103.715C207.332 103.987 206.472 104.189 205.766 104.313C204.998 104.441 204.217 104.473 203.441 104.406C202.589 104.334 201.758 104.099 200.992 103.715C200.43 103.494 199.964 103.082 199.675 102.551C199.586 102.333 199.557 102.094 199.591 101.861C199.625 101.628 199.721 101.408 199.869 101.224C200.205 100.786 200.627 100.421 201.109 100.153L198.838 99.035L200.101 98.3752L202.426 99.5085C203.511 99.0596 204.67 98.8149 205.844 98.7866C207.054 98.7411 208.261 98.9499 209.386 99.3998L206.937 100.673C206.477 100.505 205.992 100.413 205.503 100.401C205.143 100.387 204.784 100.421 204.433 100.502L207.812 102.163H207.967C209.001 101.894 209.879 101.695 210.602 101.565C211.357 101.431 212.125 101.392 212.889 101.449ZM213.664 104.197C213.664 103.909 213.416 103.653 212.951 103.42C212.494 103.201 211.991 103.097 211.486 103.118C211.001 103.134 210.519 103.194 210.044 103.296L213.214 104.849C213.516 104.639 213.671 104.414 213.664 104.189V104.197ZM206.014 102.582L203.031 101.115C202.93 101.177 202.844 101.26 202.777 101.357C202.71 101.455 202.665 101.565 202.643 101.682C202.643 101.938 202.852 102.179 203.302 102.404C203.746 102.617 204.235 102.724 204.728 102.714C205.16 102.705 205.59 102.661 206.014 102.582Z" fill="#0A5293"/>
<path d="M119.757 127.886C118.044 128.15 106.156 129.958 103.242 147.678C97.6308 181.83 135.218 209.206 166.792 203.78C171.907 202.958 176.551 200.309 179.866 196.321C182.486 193.03 183.09 188.458 182.269 184.329C179.587 170.808 166.567 164.226 159.019 153.888C155.027 148.454 154.19 141.608 150.021 136.33C142.643 127.078 130.7 126.217 119.757 127.886Z" fill="#FFBE30"/>
<path d="M124.128 134.46C122.997 134.63 115.123 135.833 113.193 147.569C109.473 170.164 134.366 188.319 155.26 184.725C158.646 184.181 161.721 182.428 163.917 179.788C164.734 178.653 165.299 177.356 165.574 175.983C165.848 174.611 165.824 173.195 165.505 171.833C163.731 162.875 155.105 158.521 150.091 151.652C147.448 148.043 146.898 143.518 144.131 140.009C139.287 133.924 131.351 133.357 124.128 134.46Z" fill="#EFA91B"/>
<path d="M200.124 194.924L195.265 192.991L196.761 185.136L201.295 184.174L200.124 194.924Z" fill="#FF912E"/>
<path d="M128.863 123.182C128.863 123.182 126.282 124.105 125.996 124.105C125.709 124.105 121.167 124.051 121.462 126.721C121.756 129.391 128.855 128.7 128.855 128.7L132.126 125.254" fill="#EA831C"/>
<path d="M119.718 126.411L123.353 125.2C123.353 125.2 127.771 124.245 128.205 125.2C128.639 126.155 127.43 129.314 126.988 129.415L123.64 130.191L120.338 130.571" fill="#F7931E"/>
<path d="M148.424 161.835C148.424 161.835 170.961 176.66 173.17 176.87C175.379 177.079 197.598 185.804 197.598 185.804C197.598 185.804 196.498 191.408 197.087 193.985C197.087 193.985 156.477 183.739 151.362 181.993C146.247 180.246 134.498 168.596 137.497 165.46C140.496 162.324 148.424 161.835 148.424 161.835Z" fill="#FFF2CC"/>
<path d="M135.35 138.457C137.194 136.711 140.271 128.91 139.519 127.109C138.768 125.309 133.8 128.289 133.8 128.289L128.832 123.174C128.832 123.174 135.753 117.469 139.062 116.553C142.371 115.637 144.929 116.709 145.983 120.69C147.037 124.672 143.573 138.682 144.014 141.647C144.456 144.612 148.385 161.828 148.385 161.828C145.223 167.261 132.289 170.117 130.483 169.659C128.677 169.201 119.501 148.656 119.501 148.656C119.501 148.656 102.381 137.471 104.637 132.248C106.892 127.024 116.82 125.557 118.858 125.332C120.896 125.107 122.431 131.665 122.431 131.665C122.431 131.665 115.928 133.497 115.324 134.336C114.719 135.174 117.579 137.308 122.996 138.48C128.414 139.652 129.615 139 129.615 139" fill="#6E3FC3"/>
<path d="M200.124 194.924C200.124 194.924 199.706 191.206 199.412 189.49C199.117 187.775 198.04 178.259 202.349 178.585C206.658 178.911 203.899 188.171 204.061 189.195C204.224 190.22 204.635 193.115 203.999 194.015C203.364 194.916 201.512 195.894 200.124 194.924Z" fill="#FF912E"/>
<path d="M205.549 187.542C205.549 187.542 207.099 188.605 208.161 187.34C209.223 186.075 209.812 175.737 210.595 173.672C211.377 171.607 211.463 167.944 208.944 167.703C206.425 167.462 206.069 168.704 205.549 170.365C205.03 172.026 203 177.165 201.109 177.817C199.536 178.316 197.937 178.728 196.319 179.051L196.753 185.136L205.549 187.542Z" fill="#FF912E"/>
<path d="M133.49 141.236C133.49 141.236 137.915 161.308 138.101 161.835C138.287 162.363 142.302 164.715 142.302 164.715L143.193 161.106L134.714 140.863L133.49 141.236Z" fill="#091114"/>
<path d="M127.646 139.163C127.646 139.163 133.428 144.17 133.172 143.82C132.916 143.471 134.404 141.492 134.404 141.492L137.001 142.268L134.032 137.068" fill="#091114"/>
<path d="M136.822 129.841C136.822 129.841 139.008 137.945 135.396 139.722C131.785 141.5 129.251 138.853 128.15 136.431C127.05 134.01 127.476 128.343 132.141 127.761C136.21 127.265 136.822 129.841 136.822 129.841Z" fill="#F7931E"/>
<path d="M137.528 128.304C137.907 127.311 138.07 125.549 136.923 124.998C136.493 124.828 136.024 124.782 135.569 124.866C135.114 124.95 134.692 125.159 134.35 125.471C133.942 125.15 133.469 124.922 132.963 124.804C132.057 124.533 131.098 124.496 130.175 124.699C129.251 124.901 128.395 125.335 127.685 125.96C127.622 126.024 127.549 126.077 127.468 126.116C127.358 126.15 127.242 126.163 127.127 126.154C124.291 126.201 123.671 129.461 124.167 131.681C124.647 133.995 125.85 136.095 127.6 137.681C128.352 138.304 129.23 138.756 130.173 139.008C130.206 139.019 130.242 139.021 130.276 139.014C130.311 139.007 130.343 138.992 130.37 138.97C130.397 138.947 130.418 138.918 130.431 138.886C130.444 138.853 130.448 138.818 130.444 138.783C130.475 138.764 130.502 138.739 130.523 138.709C130.544 138.68 130.559 138.646 130.567 138.611C130.575 138.575 130.576 138.539 130.569 138.503C130.563 138.467 130.549 138.433 130.529 138.402C130.29 137.923 130.204 137.381 130.281 136.85C130.287 136.812 130.284 136.773 130.272 136.737C130.26 136.7 130.239 136.667 130.212 136.641C130.249 136.603 130.273 136.555 130.282 136.503C130.291 136.45 130.283 136.397 130.26 136.349C130.237 136.302 130.2 136.262 130.154 136.237C130.108 136.211 130.055 136.2 130.002 136.206C129.698 136.243 129.389 136.209 129.1 136.107C128.811 136.005 128.549 135.837 128.336 135.616C128.073 135.337 127.856 134.793 128.336 134.654C128.435 134.631 128.537 134.634 128.635 134.661C128.732 134.688 128.821 134.739 128.894 134.809C128.97 134.943 129.061 135.068 129.165 135.181C129.202 135.221 129.251 135.249 129.305 135.259C129.499 135.321 129.747 135.166 129.623 134.941C129.537 134.786 129.433 134.643 129.313 134.514C129.14 134.219 129.072 133.873 129.122 133.535C129.171 133.196 129.334 132.884 129.584 132.651C130.25 132.053 130.863 132.379 131.63 132.41C131.863 132.442 132.1 132.387 132.296 132.257C132.493 132.128 132.636 131.931 132.699 131.704C132.702 131.38 132.663 131.056 132.583 130.742C132.571 130.5 132.634 130.261 132.763 130.057C132.892 129.852 133.081 129.693 133.304 129.601C134.079 129.282 134.645 129.973 135.234 130.377C135.48 130.562 135.764 130.69 136.065 130.752C136.367 130.814 136.678 130.807 136.977 130.734C137.213 130.672 137.428 130.552 137.606 130.385C137.783 130.219 137.916 130.01 137.993 129.779C138.07 129.548 138.088 129.302 138.046 129.062C138.004 128.822 137.903 128.596 137.752 128.405C137.727 128.37 137.693 128.343 137.653 128.325C137.614 128.307 137.571 128.3 137.528 128.304ZM132.614 129.453C132.712 129.306 132.857 129.196 133.025 129.143C133.077 129.12 133.127 129.092 133.172 129.057H133.219H133.296C133.04 129.133 132.807 129.268 132.614 129.453ZM137.187 127.738C137.226 127.652 137.259 127.564 137.287 127.474C137.225 127.552 137.21 127.645 137.187 127.738Z" fill="#0A0A0A"/>
<path d="M130.514 169.667C130.514 169.667 134.234 181.31 141.651 183.732C149.067 186.153 155.05 181.504 158.515 182.567C161.979 183.631 190.228 187.139 197.598 185.765C197.598 185.765 198.846 177.755 197.086 176.079C195.327 174.402 164.443 168.092 161.436 167.665C158.429 167.238 144.937 165.173 144.937 165.173" fill="#FFF2CC"/>
<path d="M179.726 61.9414C179.726 61.9414 180.106 67.8403 175.526 68.2052C175.526 68.2052 179.401 69.8196 180.052 72.9088C180.052 72.9088 180.532 68.5932 184.469 68.1508C183.075 67.8414 181.834 67.0488 180.967 65.9127C180.099 64.7767 179.66 63.3702 179.726 61.9414Z" fill="white"/>
<path d="M47.775 72.4821C47.775 72.4821 48.1547 78.381 43.5745 78.7458C43.5745 78.7458 47.4495 80.3603 48.1005 83.4494C48.1005 83.4494 48.581 79.1339 52.518 78.6915C51.1236 78.3821 49.8831 77.5895 49.0153 76.4534C48.1476 75.3173 47.7083 73.9109 47.775 72.4821Z" fill="white"/>
<path d="M244.338 91.3973C244.338 91.3973 244.718 97.2963 240.138 97.6611C240.138 97.6611 244.013 99.2755 244.664 102.365C244.664 102.365 245.144 98.0492 249.081 97.6068C247.687 97.2974 246.446 96.5047 245.579 95.3687C244.711 94.2326 244.272 92.8261 244.338 91.3973Z" fill="white"/>
</svg>
