<svg width="311" height="235" viewBox="0 0 311 235" fill="none" xmlns="http://www.w3.org/2000/svg">
<path d="M151.067 225.613L11.784 143.3C7.35097 140.812 3.54572 136.72 7.87022 134.046L147.657 53.4463C149.757 52.1443 152.942 51.2918 155.074 52.5318L301.285 137.418C305.718 139.991 306.516 147.183 302.06 149.763L169.45 225.489C166.662 227.107 163.499 227.97 160.275 227.992C157.051 228.014 153.877 227.194 151.067 225.613Z" fill="#B095FE"/>
<path d="M240.285 160.125C240.208 160.28 239.828 161.675 239.51 161.412C239.192 161.148 237.619 161.791 237.619 161.791L233.186 156.149L233.775 154.305H237.766" fill="#FFF2CC"/>
<path d="M218.864 135.813L218.446 134.349L213.796 131.807V123.871C213.796 123.716 218.306 126.521 218.306 126.521L218.515 126.079C218.769 124.864 219.233 123.702 219.887 122.646L216.601 116.586L220.771 113.416L223.871 119.67C225.005 119.408 226.187 119.429 227.312 119.732V113.726L233.279 117.035V123.313C234.451 124.434 235.517 125.661 236.464 126.978L240.06 124.653L244.121 132.403L240.905 134.961L241.176 136.255C241.594 137.626 241.928 139.021 242.176 140.432L246.958 143.067V150.98L242.401 148.26C242.203 149.7 241.701 151.082 240.928 152.313L244.346 158.11L240.022 161.381L236.984 155.413H233.233V161.381L227.575 157.932V152.073C226.269 150.793 225.117 149.365 224.142 147.818L220.716 150.143L216.547 142.3L219.98 139.766L219.639 138.58C219.337 137.65 219.05 136.712 218.864 135.813Z" fill="#FFF2CC"/>
<path d="M208.045 127.172L213.323 123.987L214.64 125.932L212.594 130.202" fill="#FFF2CC"/>
<path d="M214.943 153.468L218.848 151.84V149.484" fill="#FFF2CC"/>
<path d="M227.497 164.713L233.232 161.404L231.776 157.072L226.614 158.583L227.497 164.713Z" fill="#FFF2CC"/>
<path d="M220.755 113.408L215.028 116.717L218.174 122.979L221.615 123.041L222.406 116.717L220.755 113.408Z" fill="#FFF2CC"/>
<path d="M225.894 144.923C227.225 144.4 227.575 142.123 226.677 139.836C225.778 137.55 223.971 136.12 222.641 136.642C221.31 137.165 220.96 139.443 221.858 141.729C222.757 144.016 224.564 145.446 225.894 144.923Z" fill="#FFF2CC"/>
<path d="M233.31 117.043L227.575 120.352L221.615 117.043L227.342 113.734L233.31 117.043Z" fill="#FFF2CC"/>
<path d="M234.356 127.994L240.091 124.684L244.152 132.419L238.417 135.72L234.356 127.994Z" fill="#FFF2CC"/>
<path d="M244.377 158.133L238.642 161.435L234.318 164.713L240.052 161.404L244.377 158.133Z" fill="#FFF2CC"/>
<path d="M240.285 160.125C240.208 160.28 239.828 161.675 239.51 161.412C239.192 161.148 237.619 161.791 237.619 161.791L233.186 156.149L233.775 154.305H237.766" fill="#0A0A0A"/>
<path d="M218.864 135.813L218.446 134.349L213.796 131.807V123.871C213.796 123.716 218.306 126.521 218.306 126.521L218.515 126.079C218.769 124.864 219.233 123.702 219.887 122.646L216.601 116.586L220.771 113.416L223.871 119.67C225.005 119.408 226.187 119.429 227.312 119.732V113.726L233.279 117.035V123.313C234.451 124.434 235.517 125.661 236.464 126.978L240.06 124.653L244.121 132.403L240.905 134.961L241.176 136.255C241.594 137.626 241.928 139.021 242.176 140.432L246.958 143.067V150.98L242.401 148.26C242.203 149.7 241.701 151.082 240.928 152.313L244.346 158.11L240.022 161.381L236.984 155.413H233.233V161.381L227.575 157.932V152.073C226.269 150.793 225.117 149.365 224.142 147.818L220.716 150.143L216.547 142.3L219.98 139.766L219.639 138.58C219.337 137.65 219.05 136.712 218.864 135.813Z" fill="#FFF2CC"/>
<path opacity="0.44" d="M208.045 127.172L213.323 123.987L214.64 125.932L212.594 130.202" fill="#053855"/>
<path d="M214.943 153.468L218.848 151.84V149.484" fill="#FFF2CC"/>
<path d="M227.497 164.713L233.232 161.404L231.776 157.072L226.614 158.583L227.497 164.713Z" fill="#FFF2CC"/>
<path d="M220.755 113.408L215.028 116.717L218.174 122.979L221.615 123.041L222.406 116.717L220.755 113.408Z" fill="#FFF2CC"/>
<path d="M225.894 144.923C227.225 144.4 227.575 142.123 226.677 139.836C225.778 137.55 223.971 136.12 222.641 136.642C221.31 137.165 220.96 139.443 221.858 141.729C222.757 144.016 224.564 145.446 225.894 144.923Z" fill="#FFF2CC"/>
<path d="M234.356 127.994L240.091 124.684L244.152 132.419L238.417 135.72L234.356 127.994Z" fill="#FFF2CC"/>
<path d="M244.377 158.133L238.642 161.435L234.318 164.713L240.052 161.404L244.377 158.133Z" fill="#FFF2CC"/>
<path d="M218.864 135.813L218.446 134.349L213.796 131.807V123.871C213.796 123.716 218.306 126.521 218.306 126.521L218.515 126.079C218.769 124.864 219.233 123.702 219.887 122.646L216.601 116.586L220.771 113.416L223.871 119.67C225.005 119.408 226.187 119.429 227.312 119.732V113.726L233.279 117.035V123.313C234.451 124.434 235.517 125.661 236.464 126.978L240.06 124.653L244.121 132.403L240.905 134.961L241.176 136.255C241.594 137.626 241.928 139.021 242.176 140.432L246.958 143.067V150.98L242.401 148.26C242.203 149.7 241.701 151.082 240.928 152.313L244.346 158.11L240.022 161.381L236.984 155.413H233.233V161.381L227.575 157.932V152.073C226.269 150.793 225.117 149.365 224.142 147.818L220.716 150.143L216.547 142.3L219.98 139.766L219.639 138.58C219.337 137.65 219.05 136.712 218.864 135.813Z" fill="#0A0A0A"/>
<path opacity="0.1" d="M214.943 153.468L218.848 151.84V149.484" fill="#053855"/>
<path opacity="0.1" d="M227.497 164.713L233.232 161.404L231.776 157.072L226.614 158.583L227.497 164.713Z" fill="#053855"/>
<path opacity="0.1" d="M225.894 144.923C227.225 144.4 227.575 142.123 226.677 139.836C225.778 137.55 223.971 136.12 222.641 136.642C221.31 137.165 220.96 139.443 221.858 141.729C222.757 144.016 224.564 145.446 225.894 144.923Z" fill="#053855"/>
<path opacity="0.1" d="M234.356 127.994L240.091 124.684L244.152 132.419L238.417 135.72L234.356 127.994Z" fill="#053855"/>
<path opacity="0.1" d="M244.377 158.133L238.642 161.435L234.318 164.713L240.052 161.404L244.377 158.133Z" fill="#053855"/>
<path opacity="0.1" d="M214.943 153.468L218.848 151.84V149.484" fill="#053855"/>
<path d="M227.497 164.713L233.232 161.404L231.776 157.072L226.614 158.583L227.497 164.713Z" fill="#0A0A0A"/>
<path d="M213.129 139.122L212.711 137.658L208.061 135.116V127.172C208.061 127.017 212.571 129.822 212.571 129.822L212.78 129.381C213.034 128.165 213.498 127.003 214.152 125.947L210.866 119.887L215.02 116.725L218.12 122.979C219.255 122.717 220.436 122.739 221.561 123.041V117.035L227.529 120.344V126.622C228.701 127.743 229.767 128.97 230.714 130.287L234.31 127.962L238.371 135.712L235.155 138.27L235.426 139.564C235.843 140.935 236.177 142.33 236.426 143.741L241.207 146.376V154.289L236.705 151.6C236.507 153.04 236.005 154.422 235.232 155.653L238.65 161.45L234.325 164.721L231.287 158.753H227.498V164.721L221.809 161.249V155.39C220.503 154.11 219.351 152.682 218.376 151.135L214.95 153.46L210.82 145.563L214.245 143.075L213.904 141.889C213.625 140.936 213.338 140.021 213.129 139.122Z" fill="white"/>
<path opacity="0.44" d="M225.894 144.923C227.225 144.4 227.575 142.123 226.677 139.836C225.778 137.55 223.971 136.12 222.641 136.642C221.31 137.165 220.96 139.443 221.858 141.729C222.757 144.016 224.564 145.446 225.894 144.923Z" fill="#053855"/>
<path d="M244.377 158.133L238.642 161.435L234.318 164.713L240.052 161.404L244.377 158.133Z" fill="#0A0A0A"/>
<path d="M233.31 117.043L227.575 120.352L221.615 117.043L227.342 113.734L233.31 117.043Z" fill="#FFF2CC"/>
<path d="M233.31 117.02L227.59 120.344L221.615 117.058L227.335 113.734L233.31 117.02Z" fill="#0A0A0A"/>
<path d="M246.989 143.083L241.254 146.392V154.305L246.989 150.996V143.083Z" fill="#FFF2CC"/>
<path d="M246.989 143.083L241.254 146.392V154.305L246.989 150.996V143.083Z" fill="#0A0A0A"/>
<path d="M222.5 163.345L136.998 216.677L102 195.677L200.158 132.677" fill="#452680"/>
<path d="M173.511 75.3401L187.81 67.7373L222.096 87.5308V161.722L207.968 169.882" fill="#452680"/>
<path d="M207.967 169.882C206.89 169.789 207.967 95.2266 207.967 95.2266L173.511 75.3401V150.515L207.967 169.882Z" fill="#7647CC"/>
<path d="M173.511 89.3676L207.797 108.665L222.096 101.38" stroke="#F2F2F2" stroke-width="0.25375" stroke-miterlimit="10"/>
<path d="M173.511 108.665L207.797 127.963L222.096 120.678" stroke="#F2F2F2" stroke-width="0.25375" stroke-miterlimit="10"/>
<path d="M173.511 126.033L207.797 145.33L222.096 138.045" stroke="#F2F2F2" stroke-width="0.25375" stroke-miterlimit="10"/>
<path d="M173.511 143.556L207.797 162.853L222.096 155.576" stroke="#F2F2F2" stroke-width="0.25375" stroke-miterlimit="10"/>
<path d="M207.968 95.2343L222.096 87.5308L187.81 67.7373L173.511 75.3401L207.968 95.2343Z" fill="#DECCFF"/>
<path d="M202.417 100.027C203.483 99.5908 203.92 98.1966 203.394 96.9134C202.868 95.6301 201.579 94.9437 200.513 95.3803C199.448 95.8168 199.01 97.2109 199.536 98.4942C200.062 99.7774 201.352 100.464 202.417 100.027Z" fill="white"/>
<path d="M177.727 85.4073L196.048 95.4823C196.373 95.6605 196.668 95.1645 196.342 94.9785L178.021 84.9035C177.696 84.7253 177.401 85.2213 177.727 85.4073Z" fill="#F2F2F2"/>
<path d="M202.42 116.903C203.485 116.466 203.923 115.072 203.397 113.789C202.871 112.506 201.581 111.819 200.516 112.256C199.451 112.692 199.013 114.086 199.539 115.37C200.065 116.653 201.355 117.339 202.42 116.903Z" fill="white"/>
<path d="M177.727 102.279L196.048 112.354C196.373 112.532 196.668 112.036 196.342 111.85L178.021 101.775C177.696 101.597 177.401 102.093 177.727 102.279Z" fill="#F2F2F2"/>
<path d="M202.412 135.335C203.477 134.899 203.915 133.505 203.389 132.221C202.863 130.938 201.573 130.252 200.508 130.688C199.443 131.125 199.005 132.519 199.531 133.802C200.057 135.085 201.347 135.772 202.412 135.335Z" fill="white"/>
<path d="M177.727 120.716L196.048 130.791C196.373 130.969 196.668 130.473 196.342 130.287L178.021 120.212C177.696 120.034 177.401 120.53 177.727 120.716Z" fill="#F2F2F2"/>
<path d="M202.416 152.074C203.482 151.637 203.919 150.243 203.393 148.96C202.867 147.677 201.578 146.99 200.512 147.427C199.447 147.863 199.009 149.257 199.535 150.541C200.061 151.824 201.351 152.51 202.416 152.074Z" fill="white"/>
<path d="M177.727 137.456L196.048 147.531C196.373 147.71 196.668 147.214 196.342 147.028L178.021 136.953C177.696 136.774 177.401 137.27 177.727 137.456Z" fill="#F2F2F2"/>
<path d="M184.175 106.216C184.097 106.371 183.718 107.766 183.4 107.502C183.082 107.239 181.509 107.882 181.509 107.882L177.076 102.24L177.665 100.396H181.656" fill="#FFF2CC"/>
<path d="M162.777 81.912L162.359 80.4473L157.709 77.9053V69.9693C157.709 69.8143 162.219 72.6198 162.219 72.6198L162.428 72.178C162.682 70.9624 163.146 69.8005 163.8 68.7448L160.514 62.6843L164.684 59.5145L167.784 65.7688C168.918 65.5069 170.1 65.5282 171.225 65.8308V59.8323L177.192 63.1415V69.45C178.364 70.5715 179.431 71.7986 180.377 73.1158L183.973 70.7908L188.034 78.5408L184.818 81.0983L185.089 82.3925C185.507 83.7634 185.841 85.1584 186.089 86.5698L190.871 89.2048V97.1175L186.314 94.3973C186.116 95.8375 185.614 97.2191 184.841 98.4505L188.259 104.248L183.935 107.518L180.897 101.551H177.115V107.518L171.426 104.046V98.187C170.12 96.907 168.968 95.4791 167.993 93.9323L164.567 96.2573L160.437 88.36L163.87 85.8258L163.529 84.64C163.25 83.7255 162.994 82.811 162.777 81.912Z" fill="#FFF2CC"/>
<path d="M151.966 73.2708L157.244 70.0856L158.554 72.0308L156.515 76.3011" fill="#FFF2CC"/>
<path d="M158.864 99.5665L162.77 97.9468V95.583" fill="#FFF2CC"/>
<path d="M171.418 110.812L177.146 107.503L175.696 103.163L170.535 104.682L171.418 110.812Z" fill="#FFF2CC"/>
<path d="M164.676 59.5068L158.941 62.8161L162.087 69.0781L165.528 69.1401L166.327 62.8161L164.676 59.5068Z" fill="#FFF2CC"/>
<path d="M169.815 91.0158C171.145 90.493 171.495 88.2155 170.597 85.9288C169.699 83.6422 167.892 82.2123 166.561 82.7351C165.23 83.2578 164.88 85.5354 165.779 87.822C166.677 90.1087 168.484 91.5386 169.815 91.0158Z" fill="#FFF2CC"/>
<path d="M177.223 63.1415L171.496 66.4508L165.529 63.1415L171.264 59.8323L177.223 63.1415Z" fill="#FFF2CC"/>
<path d="M178.277 74.0923L184.012 70.7831L188.073 78.5176L182.338 81.8191L178.277 74.0923Z" fill="#FFF2CC"/>
<path d="M188.298 104.232L182.563 107.534L178.239 110.812L183.974 107.503L188.298 104.232Z" fill="#FFF2CC"/>
<path opacity="0.44" d="M184.175 106.216C184.097 106.371 183.718 107.766 183.4 107.502C183.082 107.239 181.509 107.882 181.509 107.882L177.076 102.24L177.665 100.396H181.656" fill="#053855"/>
<path d="M162.777 81.912L162.359 80.4473L157.709 77.9053V69.9693C157.709 69.8143 162.219 72.6198 162.219 72.6198L162.428 72.178C162.682 70.9624 163.146 69.8005 163.8 68.7448L160.514 62.6843L164.684 59.5145L167.784 65.7688C168.918 65.5069 170.1 65.5282 171.225 65.8308V59.8323L177.192 63.1415V69.45C178.364 70.5715 179.431 71.7986 180.377 73.1158L183.973 70.7908L188.034 78.5408L184.818 81.0983L185.089 82.3925C185.507 83.7634 185.841 85.1584 186.089 86.5698L190.871 89.2048V97.1175L186.314 94.3973C186.116 95.8375 185.614 97.2191 184.841 98.4505L188.259 104.248L183.935 107.518L180.897 101.551H177.115V107.518L171.426 104.046V98.187C170.12 96.907 168.968 95.4791 167.993 93.9323L164.567 96.2573L160.437 88.36L163.87 85.8258L163.529 84.64C163.25 83.7255 162.994 82.811 162.777 81.912Z" fill="#FFF2CC"/>
<path opacity="0.44" d="M151.966 73.2708L157.244 70.0856L158.554 72.0308L156.515 76.3011" fill="#053855"/>
<path d="M158.864 99.5665L162.77 97.9468V95.583" fill="#FFF2CC"/>
<path d="M171.418 110.812L177.146 107.503L175.696 103.163L170.535 104.682L171.418 110.812Z" fill="#FFF2CC"/>
<path d="M164.676 59.5068L158.941 62.8161L162.087 69.0781L165.528 69.1401L166.327 62.8161L164.676 59.5068Z" fill="#FFF2CC"/>
<path d="M169.815 91.0158C171.145 90.493 171.495 88.2155 170.597 85.9288C169.699 83.6422 167.892 82.2123 166.561 82.7351C165.23 83.2578 164.88 85.5354 165.779 87.822C166.677 90.1087 168.484 91.5386 169.815 91.0158Z" fill="#FFF2CC"/>
<path d="M178.277 74.0923L184.012 70.7831L188.073 78.5176L182.338 81.8191L178.277 74.0923Z" fill="#FFF2CC"/>
<path d="M188.298 104.232L182.563 107.534L178.239 110.812L183.974 107.503L188.298 104.232Z" fill="#FFF2CC"/>
<path d="M162.777 81.912L162.359 80.4473L157.709 77.9053V69.9693C157.709 69.8143 162.219 72.6198 162.219 72.6198L162.428 72.178C162.682 70.9624 163.146 69.8005 163.8 68.7448L160.514 62.6843L164.684 59.5145L167.784 65.7688C168.918 65.5069 170.1 65.5282 171.225 65.8308V59.8323L177.192 63.1415V69.45C178.364 70.5715 179.431 71.7986 180.377 73.1158L183.973 70.7908L188.034 78.5408L184.818 81.0983L185.089 82.3925C185.507 83.7634 185.841 85.1584 186.089 86.5698L190.871 89.2048V97.1175L186.314 94.3973C186.116 95.8375 185.614 97.2191 184.841 98.4505L188.259 104.248L183.935 107.518L180.897 101.551H177.115V107.518L171.426 104.046V98.187C170.12 96.907 168.968 95.4791 167.993 93.9323L164.567 96.2573L160.437 88.36L163.87 85.8258L163.529 84.64C163.25 83.7255 162.994 82.811 162.777 81.912Z" fill="#0A0A0A"/>
<path opacity="0.1" d="M158.864 99.5665L162.77 97.9468V95.583" fill="#053855"/>
<path opacity="0.1" d="M171.418 110.812L177.146 107.503L175.696 103.163L170.535 104.682L171.418 110.812Z" fill="#053855"/>
<path opacity="0.1" d="M169.815 91.0158C171.145 90.493 171.495 88.2155 170.597 85.9288C169.699 83.6422 167.892 82.2123 166.561 82.7351C165.23 83.2578 164.88 85.5354 165.779 87.822C166.677 90.1087 168.484 91.5386 169.815 91.0158Z" fill="#053855"/>
<path opacity="0.1" d="M178.277 74.0923L184.012 70.7831L188.073 78.5176L182.338 81.8191L178.277 74.0923Z" fill="#053855"/>
<path opacity="0.1" d="M188.298 104.232L182.563 107.534L178.239 110.812L183.974 107.503L188.298 104.232Z" fill="#053855"/>
<path opacity="0.1" d="M158.864 99.5665L162.77 97.9468V95.583" fill="#053855"/>
<path opacity="0.44" d="M171.418 110.812L177.146 107.503L175.696 103.163L170.535 104.682L171.418 110.812Z" fill="#053855"/>
<path d="M157.05 85.2213L156.631 83.7565L151.981 81.2145V73.2708C151.981 73.1158 156.492 75.9213 156.492 75.9213L156.701 75.4795C156.955 74.2639 157.419 73.102 158.073 72.0463L154.787 65.9858L158.956 62.816L162.056 69.0703C163.191 68.8084 164.373 68.8297 165.497 69.1323V63.1415L171.465 66.4508V72.7283C172.649 73.8582 173.726 75.0957 174.681 76.425L178.277 74.1L182.338 81.85L179.122 84.4075L179.393 85.7018C179.811 87.0727 180.144 88.4677 180.393 89.879L185.175 92.514V100.427L180.618 97.7065C180.42 99.1467 179.918 100.528 179.145 101.76L182.563 107.557L178.238 110.827L175.2 104.86H171.418V110.827L165.73 107.355V101.496C164.424 100.216 163.272 98.7884 162.297 97.2415L158.871 99.5665L154.725 91.6693L158.158 89.135L157.817 87.9493C157.523 87.0348 157.259 86.1203 157.05 85.2213Z" fill="white"/>
<path opacity="0.44" d="M169.815 91.0158C171.145 90.493 171.495 88.2155 170.597 85.9288C169.699 83.6422 167.892 82.2123 166.561 82.7351C165.23 83.2578 164.88 85.5354 165.779 87.822C166.677 90.1087 168.484 91.5386 169.815 91.0158Z" fill="#053855"/>
<path opacity="0.44" d="M188.298 104.232L182.563 107.534L178.239 110.812L183.974 107.503L188.298 104.232Z" fill="#053855"/>
<path d="M177.223 63.1415L171.496 66.4508L165.529 63.1415L171.264 59.8323L177.223 63.1415Z" fill="#FFF2CC"/>
<path d="M177.223 63.1183L171.504 66.443L165.529 63.157L171.248 59.8323L177.223 63.1183Z" fill="#0A0A0A"/>
<path d="M190.91 89.1815L185.175 92.4908V100.404L190.91 97.0943V89.1815Z" fill="#FFF2CC"/>
<path d="M190.91 89.1815L185.175 92.4908V100.404L190.91 97.0943V89.1815Z" fill="#0A0A0A"/>
<path d="M214.447 67.1793C211.013 59.8401 203.666 56.3681 197.637 59.6851C195.064 61.0956 197.032 66.2493 199.621 64.8233C203.333 62.7851 208.208 64.6063 210.401 69.2951C211.881 72.4493 215.95 70.3646 214.447 67.1793Z" fill="#F0A200"/>
<path d="M219.476 58.8713C213.346 49.6876 204.069 46.4248 195.451 50.0983C192.77 51.2376 194.762 56.3758 197.435 55.2366C204.193 52.3536 211.3 55.0893 216.035 62.2116C217.98 65.0791 221.375 61.7001 219.476 58.8713Z" fill="#F0A200"/>
<path d="M224.033 52.6558C216.539 39.6513 203.751 34.9625 192.452 40.6123C189.832 41.922 191.809 47.068 194.436 45.7505C204.038 40.9455 214.33 45.0763 220.631 56.0193C222.367 59.0263 225.761 55.655 224.033 52.6558Z" fill="#F0A200"/>
<path d="M93.9983 191.677L160.445 152.034L135.645 119.6L55.4983 167.677C67.782 176.365 81.0248 184.044 93.9983 191.677Z" fill="#452680"/>
<path d="M105.582 54.4615L121.733 45.8745L160.445 68.2333V152.011L144.495 161.233" fill="#452680"/>
<path d="M144.495 161.233C143.278 161.132 144.495 76.9287 144.495 76.9287L105.582 54.4537V139.363L144.495 161.233Z" fill="#7647CC"/>
<path d="M105.582 70.3025L144.309 92.0955L160.445 83.865" stroke="#F2F2F2" stroke-width="0.25375" stroke-miterlimit="10"/>
<path d="M105.582 92.0956L144.309 113.889L160.445 105.658" stroke="#F2F2F2" stroke-width="0.25375" stroke-miterlimit="10"/>
<path d="M105.582 111.711L144.309 133.496L160.445 125.273" stroke="#F2F2F2" stroke-width="0.25375" stroke-miterlimit="10"/>
<path d="M105.582 131.497L144.309 153.29L160.445 145.067" stroke="#F2F2F2" stroke-width="0.25375" stroke-miterlimit="10"/>
<path d="M144.495 76.921L160.445 68.2333L121.733 45.8745L105.582 54.4615L144.495 76.921Z" fill="#DECCFF"/>
<path d="M138.232 82.3284C139.432 81.8367 139.924 80.263 139.33 78.8134C138.736 77.3638 137.281 76.5872 136.081 77.0789C134.881 77.5706 134.39 79.1444 134.984 80.594C135.578 82.0436 137.032 82.8201 138.232 82.3284Z" fill="white"/>
<path d="M110.364 65.7998L131.056 77.2001C131.382 77.3783 131.676 76.8823 131.351 76.6963L110.658 65.2961C110.333 65.1178 110.038 65.6138 110.364 65.7998Z" fill="#F2F2F2"/>
<path d="M138.227 101.389C139.427 100.897 139.918 99.3235 139.324 97.8739C138.73 96.4243 137.276 95.6478 136.076 96.1395C134.876 96.6312 134.385 98.2049 134.978 99.6545C135.572 101.104 137.027 101.881 138.227 101.389Z" fill="white"/>
<path d="M110.364 84.8571L131.049 96.2341C131.374 96.4123 131.669 95.9163 131.343 95.7303L110.658 84.3533C110.333 84.1751 110.038 84.6711 110.364 84.8571Z" fill="#F2F2F2"/>
<path d="M138.23 122.201C139.43 121.71 139.921 120.136 139.327 118.686C138.733 117.237 137.279 116.46 136.079 116.952C134.879 117.444 134.387 119.017 134.981 120.467C135.575 121.916 137.029 122.693 138.23 122.201Z" fill="white"/>
<path d="M110.364 105.673L131.049 117.05C131.374 117.229 131.669 116.733 131.343 116.547L110.658 105.17C110.333 104.991 110.038 105.487 110.364 105.673Z" fill="#F2F2F2"/>
<path d="M138.227 141.103C139.427 140.611 139.919 139.037 139.325 137.588C138.731 136.138 137.276 135.362 136.076 135.853C134.876 136.345 134.385 137.919 134.979 139.368C135.573 140.818 137.027 141.595 138.227 141.103Z" fill="white"/>
<path d="M110.364 124.576L131.049 135.953C131.374 136.131 131.669 135.635 131.343 135.449L110.658 124.072C110.333 123.894 110.038 124.39 110.364 124.576Z" fill="#F2F2F2"/>
<path d="M82.6499 105.402C82.6499 105.402 78.7749 153.972 114.913 196.55C114.913 196.55 129.181 196.318 143.456 172.378L147.603 148.206L146.2 139.006L127.096 120.825C127.096 120.825 102.715 108.859 102.25 108.2C101.785 107.541 82.6499 105.402 82.6499 105.402Z" fill="white"/>
<path d="M145.983 141.083C146.905 194.024 114.906 196.558 114.906 196.558C156.802 188.498 149.432 139.014 149.432 139.014" fill="#FFF2CC"/>
<path d="M145.983 141.083C145.983 141.083 123.198 111.161 82.6809 105.433L87.5169 102.442C87.5169 102.442 122.043 103.364 149.432 139.037L145.983 141.083Z" fill="#FFF2CC"/>
<path d="M145.983 141.083C146.905 194.024 114.906 196.558 114.906 196.558C156.802 188.498 149.432 139.014 149.432 139.014" fill="#0A0A0A"/>
<path d="M145.983 141.083C145.983 141.083 123.198 111.161 82.6809 105.433L87.5169 102.442C87.5169 102.442 122.043 103.364 149.432 139.037L145.983 141.083Z" fill="#0A0A0A"/>
<path d="M121.222 173.3L125.872 170.27C125.91 170.27 122.772 167.859 122.772 167.859L120.95 171.277" fill="#DECCFF"/>
<path d="M103.335 137.169L107.45 134.48L108.465 139.913L104.303 139.068" fill="#7342CC"/>
<path d="M109 134.348C108.78 134.222 108.53 134.155 108.276 134.154C108.022 134.154 107.772 134.219 107.55 134.344C107.329 134.469 107.144 134.65 107.014 134.868C106.883 135.086 106.812 135.334 106.807 135.588L106.35 158.769C106.35 159.128 106.444 159.482 106.622 159.794C106.8 160.107 107.056 160.367 107.365 160.551L123.64 170.277C123.954 170.455 124.309 170.548 124.67 170.547C125.031 170.546 125.385 170.45 125.698 170.271C126.011 170.091 126.272 169.832 126.455 169.521C126.637 169.209 126.736 168.856 126.74 168.495V145.818C126.74 145.446 126.64 145.081 126.451 144.76C126.261 144.44 125.989 144.176 125.663 143.997L109 134.348Z" fill="#452680"/>
<path d="M104.66 137.232C104.439 137.105 104.19 137.038 103.936 137.037C103.681 137.037 103.431 137.102 103.21 137.227C102.989 137.352 102.804 137.533 102.674 137.751C102.543 137.969 102.472 138.217 102.467 138.472L102.025 161.675C102.025 162.035 102.119 162.388 102.297 162.7C102.475 163.013 102.731 163.274 103.04 163.458L119.315 173.184C119.629 173.362 119.984 173.454 120.345 173.453C120.706 173.452 121.061 173.357 121.374 173.177C121.687 172.997 121.947 172.739 122.13 172.427C122.312 172.116 122.411 171.762 122.415 171.401V148.709C122.415 148.337 122.315 147.972 122.126 147.651C121.936 147.331 121.664 147.067 121.338 146.888L104.66 137.232Z" fill="#7342CC"/>
<path d="M111.962 156.751C113.894 156.597 115.263 153.982 115.018 150.91C114.773 147.838 113.007 145.472 111.074 145.627C109.142 145.781 107.773 148.396 108.018 151.468C108.263 154.54 110.029 156.905 111.962 156.751Z" fill="#FFF2CC"/>
<path d="M111.248 151.98H110.798C110.19 151.98 109.698 152.472 109.698 153.08V161.884C109.698 162.492 110.19 162.985 110.798 162.985H111.248C111.855 162.985 112.348 162.492 112.348 161.884V153.08C112.348 152.472 111.855 151.98 111.248 151.98Z" fill="#FFF2CC"/>
<path d="M120.501 144.718C121.43 144.718 122.183 144.263 122.183 143.703C122.183 143.142 121.43 142.688 120.501 142.688C119.572 142.688 118.819 143.142 118.819 143.703C118.819 144.263 119.572 144.718 120.501 144.718Z" fill="#452680"/>
<path d="M115.394 125.769C107.504 123.871 107.566 133 107.566 133V136.263C107.509 136.739 107.554 137.223 107.698 137.681C107.891 137.876 108.124 138.026 108.381 138.122C108.638 138.219 108.912 138.258 109.186 138.239C109.659 138.239 110.333 138.162 110.596 137.735C110.724 137.338 110.764 136.917 110.713 136.503C110.666 135.728 110.651 134.953 110.713 134.217C110.767 132.574 110.906 130.567 111.96 129.226C112.307 128.803 112.781 128.503 113.312 128.372C113.843 128.241 114.402 128.285 114.905 128.497C118.959 129.838 118.842 134.697 118.842 134.697V143.703H122.175V134.48C122.175 134.48 121.547 127.25 115.394 125.769Z" fill="#452680"/>
<path d="M143.735 47.5718C140.302 40.2325 132.955 36.7605 126.926 40.0775C124.353 41.488 126.321 46.6418 128.91 45.2158C132.622 43.1775 137.497 44.9988 139.69 49.6875C141.17 52.8418 145.231 50.7648 143.735 47.5718Z" fill="#F0A200"/>
<path d="M148.765 39.2716C142.635 30.0878 133.358 26.8251 124.74 30.4986C122.059 31.6378 124.051 36.7761 126.724 35.6368C133.482 32.7538 140.589 35.4896 145.324 42.6118C147.27 45.4793 150.672 42.1236 148.765 39.2716Z" fill="#F0A200"/>
<path d="M153.322 33.025C145.828 20.0515 133.025 15.3627 121.741 21.0125C119.122 22.3222 121.098 27.4682 123.725 26.1507C133.327 21.3457 143.619 25.4765 149.92 36.4195C151.625 39.4265 155.051 36.0475 153.322 33.025Z" fill="#F0A200"/>
<path d="M203.682 107.479C204.189 106.407 204.526 105.261 204.681 104.085C204.751 103.054 203.906 99.4813 204.681 99.2488C205.456 99.0163 206.007 101.737 206.007 101.737C206.007 101.737 206.154 95.8543 206.89 95.8543C207.626 95.8543 207.627 99.0008 207.627 99.0008C207.627 99.0008 208.285 94.9708 209.021 95.1258C209.758 95.2808 209.021 99.9153 209.021 99.9153C209.021 99.9153 209.618 95.9396 210.455 96.2341C211.292 96.5286 210.455 100.52 210.455 100.52C210.455 100.52 211.145 98.6986 211.68 99.2643C212.214 99.8301 209.905 105.162 209.61 105.743C209.316 106.325 207.216 109.618 207.006 109.789C206.797 109.959 203.682 107.479 203.682 107.479Z" fill="#FFC799"/>
<path d="M192.7 103.085C191.258 103.984 196.769 97.4431 196.691 96.4123C196.614 95.3816 197.466 91.8088 196.691 91.5763C195.916 91.3438 195.366 94.0641 195.366 94.0641C195.366 94.0641 195.219 88.1818 194.482 88.1818C193.746 88.1818 193.746 91.3283 193.746 91.3283C193.746 91.3283 193.087 87.2983 192.351 87.4533C191.615 87.6083 192.351 92.2428 192.351 92.2428C192.351 92.2428 191.754 88.2671 190.917 88.5616C190.08 88.8561 190.917 92.8473 190.917 92.8473C190.917 92.8473 190.228 91.0261 189.693 91.5918C189.158 92.1576 190.894 96.1798 191.181 96.7611C191.468 97.3423 187.616 101.938 187.825 102.109C188.034 102.279 192.7 103.085 192.7 103.085Z" fill="#FFC799"/>
<path d="M170.845 113.625C170.845 113.625 181.145 105.681 182.067 105.1C182.989 104.519 191.003 96.5131 191.003 96.5131C192.762 97.4251 194.573 98.2325 196.428 98.9311C196.428 98.9311 189.383 108.355 186.353 111.029C183.656 113.354 175.34 119.848 175.34 119.848" fill="#F0A200"/>
<path d="M171 183.925C171 183.925 169.543 190.125 170.434 190.823C170.434 190.823 175.805 187.994 176.634 190.311C177.301 192.14 173.588 193.59 171.101 194.752C168.985 195.744 164.831 197.077 164.071 195.225C163.312 193.373 166.877 180.275 166.877 180.275" fill="#07375D"/>
<path d="M187.213 194.179C187.213 194.179 186.771 200.549 187.756 201.076C187.756 201.076 193.39 198.061 194.583 200.216C195.529 201.913 191.522 204.308 189.414 205.323C187.306 206.338 183.214 208.105 182.183 206.431C181.153 204.757 182.586 191.234 182.586 191.234" fill="#07375D"/>
<path d="M172.55 187.25C174.495 178.725 180.517 151.244 179.796 142.579C178.936 132.264 170.907 135.279 170.907 135.279C170.907 135.279 168.001 150.593 165.862 162.404C164.172 171.773 162.762 183.902 162.289 188.552C165.684 190.11 170.031 189.885 172.55 187.25Z" fill="#FFF2CC"/>
<path d="M190.189 196.659C190.018 183.22 189.902 147.694 186.066 139.371C181.222 128.869 176.107 139.526 176.107 144.424C176.107 148.942 179.804 193.869 180.377 200.224C183.78 201.836 188.988 200.293 190.189 196.659Z" fill="#FFF2CC"/>
<path d="M186.182 139.874C186.748 134.449 188.244 118.298 186.128 116.733C182.253 113.873 172.829 108.324 170.845 113.633C169.295 117.732 169.683 130.078 170.613 136.883C175.146 139.556 180.997 141.176 186.182 139.874Z" fill="#F0A200"/>
<path d="M180.455 109.076C180.354 109.223 180.455 113.3 180.455 113.3C180.455 113.3 178.975 113.408 176.162 111.471L176.386 107.169L180.455 109.076Z" fill="#FFC799"/>
<path d="M179.13 99.489C179.13 99.489 180.393 102.589 181.703 103.635C183.012 104.682 184.19 107.053 183.059 109.06C181.927 111.068 173.883 108.541 173.759 106.216C173.635 103.891 174.232 98.187 179.13 99.489Z" fill="#FFC799"/>
<path d="M171.465 99.8456C172.048 99.2147 172.75 98.7052 173.531 98.3462C174.312 97.9871 175.156 97.7855 176.014 97.7531C178.672 97.8073 180.036 99.3031 179.781 100.853C179.525 102.403 177.603 102.992 177.541 103.891C177.479 104.79 178.789 109.037 178.161 110.091C177.533 111.145 176.347 111.013 175.162 110.975C173.976 110.936 170.07 108.107 169.334 104.713C169.127 103.78 169.222 102.806 169.605 101.931C169.988 101.056 170.639 100.326 171.465 99.8456Z" fill="#352118"/>
<path d="M183.036 115.253C183.036 115.253 194.498 113.579 195.436 112.997C196.373 112.416 204.325 104.403 204.325 104.403C206.084 105.315 207.896 106.122 209.75 106.821C209.75 106.821 202.705 116.245 199.675 118.918C196.978 121.243 185.903 126.32 185.903 126.32" fill="#F0A200"/>
</svg>
