<svg width="64" height="64" viewBox="0 0 64 64" fill="none" xmlns="http://www.w3.org/2000/svg">
<path d="M38.3041 11.5074C38.4237 12.3119 38.3012 13.1337 37.952 13.8687C37.6027 14.6037 37.0426 15.2188 36.3424 15.6362C35.6422 16.0536 34.8335 16.2545 34.0187 16.2134C33.2039 16.1723 32.4197 15.891 31.7654 15.4053C31.111 14.9195 30.616 14.2511 30.343 13.4847C30.0701 12.7183 30.0314 11.8883 30.2319 11.1C30.4324 10.3116 30.8631 9.60034 31.4694 9.05619C32.0758 8.51204 32.8304 8.1595 33.6379 8.04324C34.1724 7.96524 34.7172 7.99296 35.241 8.12484C35.7648 8.25671 36.2574 8.49015 36.6907 8.81183C37.124 9.13351 37.4895 9.53712 37.7664 9.99962C38.0432 10.4621 38.2259 10.9744 38.3041 11.5074Z" fill="#F5F5F5"/>
<path d="M37.3329 11.6484C37.4235 12.2612 37.3298 12.8871 37.0634 13.4468C36.7971 14.0065 36.3702 14.4749 35.8367 14.7926C35.3033 15.1103 34.6873 15.2631 34.0666 15.2316C33.446 15.2001 32.8488 14.9858 32.3504 14.6158C31.852 14.2457 31.475 13.7366 31.267 13.1529C31.0591 12.5691 31.0295 11.937 31.1821 11.3364C31.3347 10.7359 31.6625 10.194 32.1242 9.77939C32.5859 9.36473 33.1606 9.09593 33.7755 9.00703C34.5985 8.88806 35.4351 9.09934 36.102 9.59451C36.7689 10.0897 37.2115 10.8283 37.3329 11.6484Z" fill="#EBEBEB"/>
<path d="M37.3169 11.5511C37.2983 11.5511 37.2649 11.42 37.1805 11.1901C37.0624 10.8673 36.8949 10.5647 36.684 10.293C36.5394 10.108 36.3748 9.93933 36.1933 9.79014C35.9833 9.62061 35.7525 9.47858 35.5064 9.36752C35.3739 9.30707 35.2371 9.25639 35.0971 9.21588C34.8001 9.12987 34.4918 9.08898 34.1825 9.09458C33.8587 9.10081 33.5378 9.15759 33.2316 9.26284C33.0832 9.3143 32.9389 9.37676 32.7998 9.44969C32.6656 9.51986 32.5369 9.60032 32.4152 9.69035C32.2975 9.77595 32.1866 9.87047 32.0835 9.97308C31.7212 10.3265 31.4516 10.7632 31.2984 11.2448C31.194 11.5723 31.141 11.9138 31.1414 12.2574C31.1414 12.5029 31.1571 12.6399 31.1414 12.6428C31.1257 12.6458 31.0805 12.5137 31.0511 12.2632C31.0134 11.9059 31.0427 11.5446 31.1375 11.1979C31.2014 10.9589 31.293 10.7281 31.4103 10.5102C31.5497 10.2596 31.7227 10.0293 31.9245 9.82535C32.0333 9.71328 32.1507 9.60991 32.2758 9.51622C32.4055 9.41697 32.543 9.32831 32.687 9.2511C32.836 9.17043 32.9912 9.10173 33.1512 9.04566C33.3162 8.98939 33.4851 8.94525 33.6565 8.91359C33.8288 8.88431 34.003 8.86796 34.1776 8.86468C34.3471 8.86189 34.5164 8.87301 34.684 8.89794C34.8457 8.92075 35.0052 8.95674 35.1609 9.00555C35.3106 9.04761 35.4566 9.10159 35.5976 9.16697C36.0867 9.39847 36.5078 9.75154 36.8204 10.1922C37.0278 10.4854 37.1789 10.8145 37.2659 11.1627C37.3287 11.4082 37.3307 11.5491 37.3169 11.5511Z" fill="#E0E0E0"/>
<path d="M34.8479 13.8947L34.9342 14.4337L34.4514 14.51L34.368 13.9867C33.8862 14.0336 33.4034 13.9583 33.105 13.791L33.2768 13.162C33.584 13.3124 33.9254 13.3799 34.2669 13.3576L34.1374 12.5554C33.582 12.5114 32.9549 12.4283 32.845 11.7415C32.7635 11.2318 33.0638 10.7348 33.8116 10.5274L33.7262 9.9933L34.2081 9.91602L34.2925 10.4404C34.6403 10.4045 34.9918 10.4514 35.3179 10.5773L35.1717 11.2074C34.9241 11.112 34.6599 11.0668 34.3945 11.0743L34.526 11.8922C35.0805 11.9313 35.6977 12.0154 35.8066 12.6934C35.8871 13.1923 35.5898 13.6834 34.8479 13.8947ZM34.0295 11.8481L33.9195 11.1633C33.6732 11.2612 33.5947 11.4177 33.6202 11.5762C33.6458 11.7346 33.8008 11.8149 34.0295 11.8481ZM35.0442 12.8734C35.0177 12.7051 34.8626 12.6366 34.6438 12.5975L34.7507 13.2608C34.9784 13.1698 35.0638 13.0279 35.0392 12.8734H35.0442Z" fill="#E0E0E0"/>
<path d="M59.8066 29.1962C59.8066 29.1962 58.8929 28.6699 57.9479 30.8289C57.0029 32.988 56.6722 34.2197 56.6722 34.2197C56.6722 34.2197 56.4151 34.6756 56.0961 34.4075C55.7772 34.1395 55.3111 33.349 54.8076 33.5271C54.2836 33.711 54.1443 34.3146 54.2983 35.1794C54.4524 36.0442 54.7203 37.9538 54.7439 38.126C54.7674 38.2982 54.685 38.5525 54.4377 38.4038C54.1904 38.2551 52.7331 36.8219 52.0913 37.5517C51.4495 38.2815 52.2768 40.6226 52.3631 40.8779C52.4495 41.1332 52.4034 41.2506 52.2827 41.323C52.162 41.3954 51.7174 40.8671 51.2866 40.4758C50.8558 40.0845 50.2866 39.7069 49.952 40.1589C49.6174 40.6108 49.6095 42.4089 51.4907 45.2049L52.4475 46.4453L54.0177 46.2643C57.3454 45.6774 58.6368 44.4232 58.7281 43.8695C58.8193 43.3158 58.155 43.169 57.574 43.1309C56.9931 43.0927 56.2983 43.1397 56.2708 43.0027C56.2433 42.8658 56.2914 42.7542 56.5368 42.6369C56.7821 42.5195 59.047 41.4903 59.1294 40.5228C59.2119 39.5553 57.1668 39.5044 56.8861 39.43C56.6054 39.3557 56.736 39.118 56.8743 39.0172C57.0127 38.9164 58.5809 37.7826 59.3129 37.2935C60.045 36.8043 60.3846 36.2848 60.1539 35.781C59.9322 35.2919 59.0401 35.51 58.625 35.467C58.2099 35.424 58.3601 34.9231 58.3601 34.9231C58.3601 34.9231 59.0195 33.8293 59.9243 31.6536C60.8291 29.4779 59.7889 29.1854 59.7889 29.1854" fill="#EBEBEB"/>
<path d="M52.5078 46.1202C53.179 44.5246 54.1241 42.3293 55.1761 39.9061C56.228 37.4829 57.179 35.2915 57.858 33.6998L58.6618 31.8147L58.8806 31.3021L58.9385 31.17C58.9522 31.1397 58.9601 31.125 58.9601 31.125C58.9558 31.141 58.9506 31.1566 58.9444 31.172L58.8904 31.306C58.8423 31.4263 58.7717 31.5995 58.6814 31.8225C58.4989 32.2706 58.23 32.9172 57.8963 33.7145C57.2221 35.3101 56.2771 37.5113 55.2271 39.9276C54.1771 42.344 53.2242 44.5441 52.5451 46.1348" fill="#E0E0E0"/>
<path d="M55.4102 34.6523C55.4299 34.685 55.4457 34.7198 55.4573 34.756C55.4838 34.8235 55.5201 34.9224 55.5642 35.0495C55.6506 35.2951 55.7605 35.6365 55.8753 36.0171L56.1697 36.9904C56.205 37.1059 56.2345 37.2037 56.259 37.2839C56.2726 37.3192 56.2819 37.356 56.2865 37.3935C56.2666 37.3613 56.2508 37.3268 56.2394 37.2908C56.2119 37.2223 56.1756 37.1235 56.1334 36.9973C56.049 36.7508 55.944 36.4103 55.8292 36.0278L55.5348 35.0574L55.4445 34.7639C55.4276 34.7286 55.4161 34.691 55.4102 34.6523Z" fill="#E0E0E0"/>
<path d="M56.4258 37.4137C56.4258 37.4 57.1186 37.1418 57.9832 36.8365C58.8477 36.5313 59.5533 36.2955 59.5533 36.3102C59.5533 36.3249 58.8605 36.5822 57.9959 36.8874C57.1314 37.1926 56.4307 37.4235 56.4258 37.4137Z" fill="#E0E0E0"/>
<path d="M54.6445 41.0556C54.6821 41.0467 54.7207 41.0424 54.7593 41.0428L55.0744 41.0243C55.3393 41.0086 55.7063 40.9851 56.1097 40.945C56.513 40.9049 56.8771 40.8589 57.1401 40.8218L57.4521 40.7797C57.4902 40.7716 57.5291 40.7683 57.5679 40.7699C57.5321 40.7849 57.4945 40.7951 57.456 40.8002C57.3834 40.8159 57.2774 40.8364 57.1459 40.8599C56.8839 40.9059 56.5199 40.9577 56.1146 40.9988C55.7093 41.0399 55.3423 41.0556 55.0753 41.0614C54.9419 41.0614 54.8349 41.0614 54.7603 41.0614C54.7216 41.0646 54.6827 41.0627 54.6445 41.0556Z" fill="#E0E0E0"/>
<path d="M53.1719 38.7656C53.1719 38.7656 53.1994 38.793 53.2396 38.8488C53.2798 38.9045 53.3377 38.9848 53.4074 39.0865C53.5458 39.288 53.7352 39.5698 53.9412 39.8818C54.1473 40.1939 54.3338 40.4786 54.4633 40.686C54.5291 40.7897 54.5811 40.8748 54.6164 40.9335C54.6369 40.964 54.6537 40.9968 54.6664 41.0313C54.6402 41.0068 54.6174 40.9789 54.5987 40.9482C54.5585 40.8924 54.5006 40.8112 54.4309 40.7105C54.2926 40.508 54.1032 40.2272 53.8971 39.9141C53.691 39.6011 53.5045 39.3174 53.375 39.11C53.3093 39.0063 53.2572 38.9221 53.2219 38.8625C53.2015 38.8322 53.1847 38.7997 53.1719 38.7656Z" fill="#E0E0E0"/>
<path d="M51.1875 41.7852C51.2189 41.818 51.2471 41.8537 51.2719 41.8918C51.3288 41.973 51.4014 42.0747 51.4878 42.196C51.6674 42.4543 51.9127 42.8133 52.1806 43.2105C52.4485 43.6077 52.6889 43.9706 52.8607 44.2338L53.0618 44.5478C53.0883 44.5853 53.111 44.6253 53.1296 44.6672C53.0975 44.6343 53.0689 44.5982 53.0442 44.5596L52.8293 44.2553C52.6497 43.9971 52.4044 43.639 52.1355 43.2408C51.8666 42.8427 51.6271 42.4807 51.4554 42.2176C51.3749 42.0923 51.3082 41.9867 51.2542 41.9035C51.2275 41.8668 51.2051 41.8271 51.1875 41.7852Z" fill="#E0E0E0"/>
<path d="M53.1055 44.5848C53.1534 44.5733 53.2024 44.5664 53.2517 44.5643L53.6442 44.5271C53.9798 44.4948 54.444 44.4498 54.9543 44.3852C55.4646 44.3207 55.9258 44.2522 56.2595 44.1994L56.652 44.1377C56.7001 44.1276 56.7491 44.1223 56.7982 44.1221C56.752 44.1384 56.7044 44.1506 56.6559 44.1583C56.5637 44.1788 56.4302 44.2062 56.2634 44.2365C55.9317 44.2991 55.4705 44.3745 54.9592 44.4381C54.4479 44.5016 53.9779 44.5427 53.6452 44.5643C53.4764 44.575 53.34 44.5828 53.2458 44.5858C53.1991 44.5899 53.1521 44.5895 53.1055 44.5848Z" fill="#E0E0E0"/>
<path d="M24.9416 35.8145L6.2384 30.0113C6.00756 29.9397 5.8147 29.7796 5.70226 29.5662C5.58981 29.3528 5.56699 29.1037 5.63881 28.8735L9.2354 17.3581C9.27064 17.2437 9.32824 17.1374 9.40486 17.0452C9.48149 16.9531 9.57564 16.877 9.68189 16.8212C9.78815 16.7655 9.90441 16.7313 10.024 16.7205C10.1436 16.7097 10.2641 16.7226 10.3787 16.7585L29.0829 22.5626C29.3135 22.6342 29.5061 22.7942 29.6183 23.0074C29.7306 23.2206 29.7533 23.4695 29.6815 23.6994L26.08 35.2177C26.0084 35.4473 25.8482 35.6391 25.6347 35.751C25.4213 35.8629 25.172 35.8858 24.9416 35.8145Z" fill="#E0E0E0"/>
<path d="M25.9748 24.981C25.8878 25.2592 25.72 25.5054 25.4927 25.6886C25.2654 25.8717 24.9887 25.9835 24.6976 26.0099C24.4065 26.0363 24.1141 25.976 23.8574 25.8367C23.6006 25.6974 23.3911 25.4854 23.2553 25.2274C23.1194 24.9694 23.0634 24.677 23.0942 24.3873C23.125 24.0975 23.2413 23.8234 23.4284 23.5995C23.6155 23.3757 23.865 23.2122 24.1453 23.1296C24.4256 23.0471 24.7242 23.0493 25.0033 23.136C25.1887 23.1934 25.3609 23.2867 25.5101 23.4105C25.6593 23.5344 25.7825 23.6863 25.8727 23.8577C25.963 24.0291 26.0184 24.2165 26.0359 24.4092C26.0535 24.602 26.0327 24.7963 25.9748 24.981Z" fill="white"/>
<path d="M26.0791 26.5939C25.9882 26.5821 25.8986 26.5624 25.8112 26.5352C25.4382 26.4175 25.1251 26.1609 24.937 25.8188C24.749 25.4767 24.7005 25.0756 24.8017 24.6988C24.9028 24.322 25.1459 23.9986 25.4801 23.7959C25.8144 23.5932 26.2142 23.5268 26.5964 23.6105C26.9785 23.6943 27.3136 23.9217 27.5318 24.2454C27.75 24.5692 27.8346 24.9643 27.768 25.3487C27.7013 25.733 27.4886 26.077 27.174 26.3089C26.8594 26.5408 26.4672 26.6429 26.0791 26.5939ZM26.4451 23.6688C26.1774 23.6354 25.9057 23.6787 25.6619 23.7938C25.418 23.9089 25.2122 24.091 25.0685 24.3186C24.9248 24.5462 24.8493 24.81 24.8507 25.079C24.8521 25.3479 24.9305 25.6109 25.0766 25.837C25.2227 26.0631 25.4304 26.2429 25.6755 26.3555C25.9205 26.468 26.1927 26.5085 26.46 26.4722C26.7273 26.4359 26.9787 26.3243 27.1847 26.1506C27.3906 25.9769 27.5426 25.7482 27.6227 25.4914C27.7342 25.1335 27.6986 24.7461 27.5238 24.4143C27.349 24.0825 27.0493 23.8334 26.6904 23.7217C26.6087 23.6971 26.5249 23.6795 26.4402 23.6688H26.4451Z" fill="white"/>
<path d="M8.66732 25.5305L8.316 26.6614L8.19922 26.6252L8.52012 25.598L8.25319 25.5148L8.28558 25.4111L8.66732 25.5305Z" fill="white"/>
<path d="M9.51575 26.9204L9.48336 27.0241L8.6875 26.7766L8.714 26.6944L9.32929 26.3803C9.49612 26.2933 9.54421 26.2248 9.56874 26.1475C9.60995 26.0164 9.54224 25.9069 9.37247 25.854C9.31569 25.8326 9.2548 25.8242 9.19432 25.8295C9.13384 25.8347 9.07533 25.8535 9.02312 25.8844L8.96227 25.7865C9.03031 25.7476 9.10612 25.724 9.18431 25.7176C9.2625 25.7112 9.34115 25.722 9.41467 25.7494C9.64528 25.8208 9.75519 25.9832 9.69631 26.172C9.66196 26.2806 9.59818 26.3676 9.40191 26.4655L8.89751 26.7237L9.51575 26.9204Z" fill="white"/>
<path d="M10.7694 27.0964L10.5418 27.0269L10.4495 27.3204L10.3327 27.2833L10.425 26.9898L9.78516 26.7941L9.81067 26.71L10.6468 26.1475L10.7763 26.1876L9.96768 26.7374L10.4584 26.891L10.5398 26.6288L10.6527 26.664L10.5712 26.9262L10.7979 26.9966L10.7694 27.0964Z" fill="white"/>
<path d="M12.5116 27.6364L12.2849 27.566L12.1917 27.8595L12.0749 27.8233L12.1682 27.5298L11.5273 27.3341L11.5538 27.25L12.389 26.6865L12.5185 26.7266L11.7109 27.2774L12.2015 27.43L12.283 27.1688L12.3968 27.204L12.3144 27.4652L12.542 27.5357L12.5116 27.6364Z" fill="white"/>
<path d="M13.5131 27.908C13.4532 28.1037 13.2717 28.2093 12.9939 28.1233C12.8431 28.082 12.7139 27.9847 12.6328 27.8513L12.7182 27.7769C12.7851 27.8936 12.8955 27.9794 13.0253 28.0156C13.2216 28.0763 13.3502 28.0156 13.3933 27.8767C13.4365 27.7378 13.3757 27.6126 13.0872 27.5226L12.8458 27.4482L13.0813 26.8984L13.7025 27.0941L13.6701 27.1978L13.151 27.0364L12.9998 27.3856L13.146 27.4306C13.4876 27.5324 13.5759 27.7085 13.5131 27.908Z" fill="white"/>
<path d="M14.6363 28.2519C14.5706 28.4642 14.3616 28.5454 14.1457 28.4798C13.8444 28.382 13.7453 28.1267 13.8572 27.7696C13.9769 27.3851 14.2497 27.2491 14.5588 27.345C14.6534 27.3701 14.7395 27.4201 14.8081 27.4898L14.7325 27.569C14.6775 27.51 14.6066 27.4679 14.5284 27.4477C14.284 27.3714 14.077 27.48 13.9818 27.7872C13.9719 27.8177 13.9637 27.8487 13.9573 27.8801C14.0095 27.8277 14.076 27.7917 14.1485 27.7764C14.221 27.7611 14.2964 27.7672 14.3655 27.7941C14.5853 27.8645 14.6972 28.0455 14.6363 28.2519ZM14.5205 28.2176C14.5667 28.0689 14.4862 27.9398 14.3115 27.885C14.1368 27.8302 13.9867 27.9017 13.9425 28.0416C13.9033 28.1668 13.971 28.3165 14.1663 28.3771C14.1998 28.392 14.2361 28.3997 14.2728 28.3996C14.3096 28.3996 14.3458 28.3917 14.3793 28.3767C14.4128 28.3616 14.4427 28.3396 14.467 28.3122C14.4913 28.2848 14.5096 28.2526 14.5205 28.2176Z" fill="white"/>
<path d="M16.184 28.747C16.1241 28.9358 15.9416 29.0404 15.6678 28.9534C15.5164 28.9121 15.3866 28.8148 15.3047 28.6814L15.3901 28.6071C15.4578 28.7249 15.5697 28.8111 15.7011 28.8467C15.8886 28.9054 16.0201 28.8467 16.0633 28.7098C16.1064 28.5728 16.0377 28.4554 15.8277 28.3899L15.7463 28.3644L15.7728 28.2793L16.2105 27.9859L15.6295 27.8058L15.6619 27.7021L16.392 27.9291L16.3655 28.0113L15.919 28.3146C16.1584 28.4006 16.2399 28.566 16.184 28.747Z" fill="white"/>
<path d="M17.3248 29.087C17.2591 29.2983 17.0501 29.3804 16.8293 29.3139C16.528 29.2161 16.4289 28.9608 16.5407 28.6037C16.6605 28.2192 16.9333 28.0842 17.2424 28.1801C17.3371 28.205 17.4232 28.2551 17.4917 28.3249L17.4161 28.4041C17.3611 28.3448 17.2903 28.3024 17.212 28.2818C16.9666 28.2065 16.7606 28.3141 16.6654 28.6213C16.6554 28.6534 16.6472 28.6861 16.6408 28.7191C16.6928 28.6666 16.7591 28.6304 16.8314 28.615C16.9038 28.5995 16.9791 28.6054 17.0481 28.6321C17.2738 28.6986 17.3896 28.8796 17.3248 29.087ZM17.209 29.0537C17.2552 28.906 17.1747 28.7759 17 28.7221C16.8253 28.6682 16.6752 28.7377 16.631 28.8786C16.5918 29.0028 16.6585 29.1525 16.8548 29.2141C16.8884 29.229 16.9248 29.2367 16.9615 29.2365C16.9983 29.2364 17.0346 29.2285 17.0681 29.2133C17.1016 29.1982 17.1314 29.1761 17.1557 29.1486C17.18 29.1211 17.1982 29.0887 17.209 29.0537Z" fill="white"/>
<path d="M18.6228 28.6176L18.5963 28.6998L17.7946 29.6018L17.668 29.5617L18.453 28.6812L17.8701 28.5002L17.8034 28.7116L17.6886 28.6754L17.7867 28.3604L18.6228 28.6176Z" fill="white"/>
<path d="M20.24 29.1206L20.2145 29.2037L19.4117 30.1047L19.2852 30.0656L20.0702 29.1851L19.4814 29.0042L19.4157 29.2164L19.2999 29.1802L19.398 28.8652L20.24 29.1206Z" fill="white"/>
<path d="M21.1011 30.2837C21.0383 30.4842 20.8293 30.5557 20.5584 30.4715C20.2876 30.3874 20.16 30.2113 20.2228 30.0108C20.2417 29.9461 20.2824 29.8899 20.338 29.8516C20.3935 29.8133 20.4606 29.7953 20.528 29.8004C20.4808 29.7671 20.4457 29.7195 20.428 29.6646C20.4103 29.6098 20.411 29.5506 20.4299 29.4962C20.4868 29.3123 20.6801 29.2467 20.9205 29.3211C21.1609 29.3954 21.2846 29.5598 21.2277 29.7437C21.2118 29.8002 21.1777 29.8499 21.1308 29.8853C21.0838 29.9206 21.0265 29.9396 20.9676 29.9393C21.026 29.9728 21.0712 30.0253 21.0955 30.088C21.1198 30.1507 21.1217 30.2197 21.1011 30.2837ZM20.9823 30.2446C21.0255 30.1057 20.9323 29.9814 20.7311 29.9188C20.5299 29.8562 20.3847 29.9071 20.3386 30.046C20.2925 30.1849 20.3857 30.3111 20.5869 30.3727C20.788 30.4344 20.9382 30.3854 20.9823 30.2446ZM20.7606 29.8268C20.9372 29.8816 21.0667 29.8347 21.105 29.7124C21.1433 29.5901 21.0579 29.4727 20.8872 29.4189C20.7164 29.3651 20.5829 29.4091 20.5437 29.5353C20.5044 29.6615 20.5829 29.7721 20.7606 29.8268Z" fill="white"/>
<path d="M22.2868 30.3699C22.1671 30.7544 21.8943 30.8894 21.5852 30.7935C21.4904 30.7688 21.4042 30.7187 21.3359 30.6487L21.4115 30.5695C21.4661 30.629 21.5371 30.6712 21.6156 30.6908C21.86 30.7671 22.067 30.6595 22.1622 30.3523C22.1711 30.3259 22.1789 30.2936 22.1868 30.2545C22.1345 30.3069 22.068 30.3429 21.9955 30.3582C21.923 30.3735 21.8476 30.3674 21.7785 30.3406C21.5538 30.2711 21.438 30.0891 21.5028 29.8827C21.5675 29.6763 21.7775 29.5892 21.9934 29.6558C22.2996 29.7487 22.3987 30.0079 22.2868 30.3699ZM22.1966 30.095C22.2358 29.9708 22.1681 29.8201 21.9728 29.7595C21.9393 29.7447 21.903 29.7371 21.8663 29.7373C21.8296 29.7374 21.7934 29.7453 21.76 29.7603C21.7266 29.7754 21.6967 29.7973 21.6723 29.8246C21.648 29.8519 21.6296 29.8841 21.6186 29.9189C21.5715 30.0676 21.6519 30.1977 21.8276 30.2515C22.0032 30.3053 22.1554 30.232 22.1966 30.0911V30.095Z" fill="white"/>
<path d="M23.6107 30.1662L23.2574 31.2981L23.1406 31.2619L23.4615 30.2337L23.1936 30.1506L23.226 30.0469L23.6107 30.1662Z" fill="white"/>
<path d="M24.4552 31.5565L24.4228 31.6602L23.625 31.4127L23.6505 31.3305L24.2658 31.0165C24.4336 30.9304 24.4817 30.8619 24.5062 30.7836C24.5465 30.6535 24.4797 30.544 24.31 30.4902C24.2533 30.4687 24.1924 30.4601 24.1319 30.4652C24.0715 30.4703 24.0129 30.4889 23.9606 30.5195L23.9008 30.4217C23.9689 30.3829 24.0447 30.3595 24.1229 30.3533C24.2011 30.347 24.2797 30.358 24.3532 30.3855C24.5828 30.4569 24.6927 30.6183 24.6338 30.8071C24.5995 30.9157 24.5357 31.0028 24.3394 31.1006L23.836 31.3589L24.4552 31.5565Z" fill="white"/>
<path d="M25.5433 31.6513C25.4845 31.8401 25.3009 31.9447 25.0262 31.8577C24.8754 31.8157 24.7461 31.7186 24.6641 31.5857L24.7494 31.5114C24.8176 31.6284 24.9288 31.7144 25.0595 31.751C25.248 31.8097 25.3795 31.751 25.4226 31.6141C25.4658 31.4771 25.3971 31.3597 25.1871 31.2942L25.1057 31.2687L25.1322 31.1836L25.5698 30.8901L24.9889 30.7101L25.0213 30.6064L25.7514 30.8324L25.7259 30.9156L25.2784 31.2179C25.5178 31.3049 25.5993 31.4703 25.5433 31.6513Z" fill="white"/>
<path d="M16.4659 30.1102L16.3125 30.6016L25.4022 33.4222L25.5556 32.9308L16.4659 30.1102Z" fill="white"/>
<path d="M20.587 32.4657L20.4336 32.957L25.0961 34.4038L25.2495 33.9125L20.587 32.4657Z" fill="white"/>
<g opacity="0.5">
<path d="M12.5177 22.5385L9.63272 21.6432C9.37604 21.5636 9.1032 21.7065 9.02331 21.9623L8.42569 23.8763C8.3458 24.1321 8.4891 24.4041 8.74578 24.4838L11.6308 25.379C11.8874 25.4587 12.1603 25.3158 12.2402 25.0599L12.8378 23.146C12.9177 22.8901 12.7744 22.6181 12.5177 22.5385Z" fill="#EBEBEB"/>
</g>
<path d="M8.52734 23.5529L8.58426 23.3709L10.5469 23.9804C10.6014 23.9988 10.659 24.0063 10.7164 24.0022C10.7737 23.9981 10.8297 23.9826 10.881 23.9566C10.9322 23.9306 10.9777 23.8946 11.0149 23.8508C11.052 23.807 11.0799 23.7562 11.097 23.7015C11.1141 23.6468 11.12 23.5892 11.1144 23.5321C11.1088 23.475 11.0919 23.4196 11.0645 23.3692C11.0371 23.3188 10.9998 23.2744 10.9549 23.2385C10.91 23.2027 10.8584 23.1762 10.8031 23.1606L8.84039 22.5511L8.89731 22.3691L10.86 22.9786C10.9403 23.0008 11.0153 23.0389 11.0806 23.0906C11.1459 23.1422 11.2001 23.2065 11.24 23.2794C11.2799 23.3524 11.3046 23.4326 11.3128 23.5153C11.321 23.598 11.3125 23.6815 11.2877 23.7608C11.2629 23.8401 11.2224 23.9137 11.1685 23.9771C11.1146 24.0405 11.0485 24.0925 10.9741 24.1299C10.8997 24.1674 10.8185 24.1896 10.7354 24.1951C10.6522 24.2007 10.5688 24.1895 10.49 24.1623L8.52734 23.5529Z" fill="#E0E0E0"/>
<path d="M11.1473 23.7524L11.0898 23.9336L12.4314 24.3559L12.4888 24.1747L11.1473 23.7524Z" fill="#E0E0E0"/>
<path d="M20.1609 22.3447L10.3516 19.3008L10.0897 20.1396L19.899 23.1835L20.1609 22.3447Z" fill="white"/>
<path d="M13.3938 41.2765C13.4692 41.7849 13.3916 42.3042 13.1708 42.7686C12.95 43.2331 12.596 43.6218 12.1535 43.8855C11.7111 44.1493 11.2 44.2763 10.6851 44.2504C10.1702 44.2245 9.67463 44.0469 9.26102 43.7401C8.84741 43.4333 8.5344 43.011 8.36162 42.5268C8.18884 42.0426 8.16404 41.5182 8.29037 41.0199C8.4167 40.5216 8.68848 40.0719 9.07131 39.7276C9.45414 39.3834 9.9308 39.1601 10.441 39.0861C10.7791 39.0366 11.1238 39.054 11.4552 39.1373C11.7866 39.2206 12.0983 39.3682 12.3725 39.5716C12.6467 39.775 12.878 40.0302 13.0532 40.3228C13.2285 40.6153 13.3442 40.9394 13.3938 41.2765Z" fill="#F5F5F5"/>
<path d="M12.7792 41.3654C12.8367 41.753 12.7775 42.149 12.6092 42.503C12.4408 42.8571 12.1709 43.1534 11.8335 43.3545C11.4961 43.5556 11.1065 43.6523 10.714 43.6325C10.3214 43.6127 9.94358 43.4772 9.62829 43.2433C9.313 43.0093 9.07444 42.6873 8.94281 42.3181C8.81118 41.9489 8.7924 41.549 8.88884 41.1692C8.98528 40.7893 9.19261 40.4465 9.48458 40.1842C9.77655 39.9219 10.14 39.7518 10.529 39.6955C11.0495 39.6199 11.5788 39.7533 12.0006 40.0664C12.4225 40.3795 12.7025 40.8467 12.7792 41.3654Z" fill="#EBEBEB"/>
<path d="M12.77 41.3039C12.7334 41.2312 12.7044 41.1548 12.6837 41.076C12.6088 40.8719 12.5029 40.6805 12.3697 40.5086C12.116 40.1799 11.7641 39.9401 11.3648 39.8238C11.273 39.7963 11.1791 39.7764 11.0841 39.7641C10.9866 39.751 10.8881 39.7451 10.7897 39.7465C10.6874 39.7495 10.5855 39.7593 10.4845 39.7759C10.3847 39.7949 10.2864 39.8207 10.1901 39.8531C10.0963 39.8856 10.0051 39.9252 9.9173 39.9715C9.75106 40.0595 9.59837 40.1708 9.46393 40.3022C9.34191 40.4213 9.23601 40.5558 9.14892 40.7023C9.07306 40.8305 9.01153 40.9667 8.96541 41.1083C8.9 41.3153 8.8669 41.5311 8.86728 41.7481C8.8766 41.8293 8.8766 41.9114 8.86728 41.9926C8.83201 41.9171 8.81264 41.8352 8.81036 41.752C8.78731 41.5259 8.80594 41.2974 8.86532 41.078C8.90725 40.9256 8.96652 40.7786 9.04196 40.6397C9.13041 40.4803 9.24 40.3336 9.36776 40.2034C9.43639 40.1324 9.51055 40.067 9.58954 40.0077C9.67176 39.9453 9.7587 39.8894 9.84959 39.8404C9.94423 39.7899 10.0427 39.7467 10.144 39.7113C10.2485 39.6756 10.3554 39.6475 10.4639 39.6272C10.5729 39.6085 10.6831 39.5981 10.7936 39.5958C10.9007 39.5946 11.0077 39.6018 11.1136 39.6174C11.216 39.6316 11.3171 39.6542 11.4158 39.6849C11.5103 39.7138 11.6025 39.7497 11.6916 39.7925C12.0009 39.9389 12.2672 40.1623 12.4648 40.4411C12.5967 40.6264 12.6932 40.8343 12.7494 41.0545C12.7744 41.1351 12.7814 41.2203 12.77 41.3039Z" fill="#E0E0E0"/>
<path d="M11.2078 42.7857L11.2628 43.1261L10.9576 43.175L10.9046 42.8434C10.6325 42.8785 10.356 42.8364 10.1068 42.7221L10.2147 42.3239C10.4094 42.4177 10.6251 42.4594 10.8408 42.4452L10.7594 41.9375C10.4071 41.9101 10.0116 41.8583 9.94191 41.4229C9.8899 41.1011 10.0803 40.787 10.5533 40.655L10.4993 40.3175L10.8035 40.2686L10.8575 40.6002C11.0776 40.5777 11.2999 40.6075 11.5062 40.6873L11.4139 41.0854C11.2576 41.0253 11.0908 40.9967 10.9232 41.0013L11.0067 41.5188C11.358 41.5433 11.7476 41.5971 11.8163 42.0256C11.8653 42.3415 11.6779 42.6517 11.2078 42.7857ZM10.6877 41.4914L10.6181 41.059C10.462 41.1216 10.412 41.2204 10.4287 41.3202C10.4453 41.42 10.5464 41.4699 10.6877 41.4914ZM11.3295 42.14C11.3128 42.0334 11.2147 41.9903 11.0763 41.9649L11.144 42.3846C11.2912 42.3269 11.3452 42.2369 11.3295 42.14Z" fill="#E0E0E0"/>
<path d="M52.2508 45.6987C52.0604 45.9687 51.6904 45.8797 51.5197 45.7143C51.3489 45.549 51.2753 45.3093 51.2096 45.0804C51.0585 44.559 50.9073 44.0111 51.0192 43.4789C51.0464 43.3179 51.1173 43.1673 51.2243 43.0436C51.2787 42.9829 51.348 42.9374 51.4255 42.9116C51.503 42.8859 51.5859 42.8808 51.6659 42.8969C51.8524 42.9458 51.9682 43.1287 52.0516 43.3019C52.2984 43.8129 52.4278 44.3724 52.4304 44.9395C52.4304 45.2037 52.3999 45.4805 52.2508 45.6987Z" fill="#926ADB"/>
<g opacity="0.2">
<path d="M52.2508 45.6987C52.0604 45.9687 51.6904 45.8797 51.5197 45.7143C51.3489 45.549 51.2753 45.3093 51.2096 45.0804C51.0585 44.559 50.9073 44.0111 51.0192 43.4789C51.0464 43.3179 51.1173 43.1673 51.2243 43.0436C51.2787 42.9829 51.348 42.9374 51.4255 42.9116C51.503 42.8859 51.5859 42.8808 51.6659 42.8969C51.8524 42.9458 51.9682 43.1287 52.0516 43.3019C52.2984 43.8129 52.4278 44.3724 52.4304 44.9395C52.4304 45.2037 52.3999 45.4805 52.2508 45.6987Z" fill="black"/>
</g>
<path d="M51.539 47.0701C51.2199 46.9206 50.8612 46.8771 50.5155 46.9458C50.3268 46.9623 50.1491 47.0416 50.0111 47.1708C49.8845 47.3097 49.8609 47.5543 50.0052 47.6737C50.0989 47.7366 50.2117 47.765 50.3241 47.7539C50.594 47.7539 50.8943 47.703 51.1092 47.8654C51.2328 47.9583 51.3143 48.1119 51.4625 48.1589C51.5361 48.1756 51.6133 48.168 51.6823 48.1373C51.7513 48.1066 51.8084 48.0545 51.8452 47.9887C51.9161 47.8537 51.9316 47.6965 51.8884 47.5504C51.8713 47.4489 51.8309 47.3527 51.7703 47.2693C51.7097 47.186 51.6305 47.1178 51.539 47.0701Z" fill="#926ADB"/>
<path d="M52.7731 46.0873C52.6756 45.9599 52.6107 45.8107 52.584 45.6527C52.5574 45.4947 52.5697 45.3326 52.62 45.1804C52.7237 44.8749 52.9101 44.604 53.1588 44.3978C53.4403 44.1479 53.7679 43.9552 54.1234 43.8304C54.261 43.7751 54.409 43.7501 54.5572 43.757C54.6312 43.7612 54.703 43.7834 54.7664 43.8216C54.8299 43.8598 54.883 43.9128 54.9212 43.9761C55.0194 44.1718 54.9262 44.4036 54.8231 44.5944C54.6378 44.9316 54.4259 45.2535 54.1892 45.557C53.9998 45.8006 53.7819 46.0462 53.4924 46.1518C53.2029 46.2575 52.9036 46.2496 52.7486 46.054" fill="#926ADB"/>
<path d="M52.2637 49.7838C52.2545 49.7433 52.2489 49.702 52.247 49.6605C52.2382 49.5715 52.2274 49.459 52.2137 49.3249C52.1968 49.1607 52.1715 48.9975 52.1381 48.8358C52.0937 48.6377 52.0336 48.4434 51.9585 48.2547C51.886 48.0662 51.7869 47.889 51.6641 47.7284C51.4967 47.5056 51.2476 47.3578 50.9713 47.3175C50.9296 47.3163 50.8881 47.3104 50.8477 47.2999C50.8894 47.2959 50.9315 47.2959 50.9733 47.2999C51.0877 47.3089 51.1997 47.338 51.304 47.386C51.4573 47.4596 51.5916 47.5674 51.6965 47.701C51.825 47.8637 51.9288 48.0443 52.0046 48.2371C52.0815 48.4288 52.1412 48.6268 52.1832 48.829C52.2149 48.9938 52.2369 49.1604 52.249 49.3279C52.2598 49.4697 52.2637 49.5852 52.2657 49.6654C52.2696 49.7048 52.269 49.7445 52.2637 49.7838Z" fill="#263238"/>
<path d="M52.2413 49.5254C52.239 49.5066 52.239 49.4875 52.2413 49.4687C52.2413 49.4256 52.2413 49.3708 52.2413 49.3053C52.2413 49.1634 52.2413 48.958 52.2335 48.7046C52.2207 48.1979 52.1775 47.4994 52.0932 46.7304C52.0088 45.9615 51.8969 45.2699 51.7919 44.7739C51.7674 44.6496 51.7428 44.5381 51.7202 44.4393C51.6977 44.3405 51.679 44.2564 51.6614 44.1879C51.6437 44.1194 51.6329 44.0715 51.6231 44.0294C51.6175 44.011 51.6142 43.9919 51.6133 43.9727C51.6216 43.9899 51.6281 44.0079 51.6329 44.0265L51.681 44.183C51.7016 44.2515 51.7232 44.3356 51.7477 44.4334C51.7723 44.5313 51.8007 44.6418 51.8272 44.766C51.9672 45.4122 52.0727 46.0653 52.1432 46.7226C52.2286 47.4935 52.2659 48.19 52.2698 48.7017C52.2698 48.956 52.2698 49.1615 52.261 49.3033C52.261 49.3699 52.2531 49.4237 52.2511 49.4667C52.2496 49.4865 52.2464 49.5062 52.2413 49.5254Z" fill="#263238"/>
<path d="M52.2374 48.1727C52.2334 48.116 52.2334 48.0591 52.2374 48.0025C52.2443 47.8929 52.259 47.7344 52.2904 47.5407C52.3277 47.3134 52.3778 47.0883 52.4406 46.8667C52.5158 46.5949 52.6103 46.3288 52.7232 46.0703C52.9191 45.5941 53.2004 45.1575 53.5534 44.7819C53.6149 44.7176 53.6805 44.6571 53.7497 44.601C53.7801 44.5765 53.8066 44.5511 53.8331 44.5315L53.9096 44.4787C53.955 44.4444 54.0029 44.4137 54.0529 44.3867C53.8874 44.5175 53.7298 44.658 53.5809 44.8074C53.2403 45.1861 52.9669 45.6198 52.7723 46.0899C52.6601 46.3465 52.565 46.6103 52.4877 46.8794C52.4141 47.1269 52.365 47.3548 52.3277 47.5466C52.2904 47.7383 52.2718 47.8958 52.259 48.0044C52.2566 48.061 52.2494 48.1173 52.2374 48.1727Z" fill="#263238"/>
<path d="M43.5688 29.1367H18.4732C17.528 29.1367 16.7617 29.9006 16.7617 30.8428V48.0636C16.7617 49.0059 17.528 49.7697 18.4732 49.7697H43.5688C44.514 49.7697 45.2802 49.0059 45.2802 48.0636V30.8428C45.2802 29.9006 44.514 29.1367 43.5688 29.1367Z" fill="#926ADB"/>
<path d="M45.2767 30.8431C45.2767 30.8431 45.2767 30.8226 45.2767 30.7815C45.2749 30.7202 45.269 30.6591 45.2591 30.5985C45.2246 30.3604 45.1389 30.1324 45.0078 29.9304C44.9118 29.7817 44.794 29.6482 44.6585 29.5342C44.4929 29.3989 44.3036 29.2954 44.1001 29.2289C44.0452 29.2104 43.9873 29.1996 43.9294 29.183C43.8715 29.1663 43.8096 29.1644 43.7478 29.1546L43.5584 29.1458H42.5005L32.2682 29.1536H25.2026H21.2655H18.6836C18.5093 29.1467 18.3348 29.1565 18.1625 29.183C17.8154 29.2465 17.4974 29.4177 17.2538 29.6721C17.1307 29.7988 17.029 29.9445 16.9525 30.1035C16.8736 30.2625 16.8219 30.4334 16.7994 30.6093C16.7825 30.7881 16.7769 30.9678 16.7827 31.1474V33.9051C16.7827 35.3961 16.7827 36.9166 16.7827 38.4669V48.0541C16.7833 48.4633 16.9325 48.8584 17.2027 49.1664C17.4693 49.4727 17.8388 49.6713 18.242 49.725C18.443 49.7423 18.6448 49.7479 18.8465 49.7416H34.3672H42.478H43.422C43.576 49.7464 43.7302 49.7362 43.8823 49.7113C44.0317 49.6826 44.1767 49.6339 44.3131 49.5665C44.3807 49.5334 44.4463 49.4961 44.5093 49.455C44.5707 49.412 44.6297 49.3656 44.686 49.3161C44.853 49.1696 44.9892 48.9913 45.0864 48.7918C45.1836 48.5922 45.24 48.3754 45.2522 48.1539C45.262 46.9799 45.2522 45.851 45.2581 44.7749C45.2581 40.4704 45.265 36.9838 45.2669 34.5753C45.2669 33.371 45.2669 32.4367 45.2718 31.8018C45.2718 31.4858 45.2718 31.2442 45.2718 31.0808C45.2718 30.9175 45.2718 30.8353 45.2718 30.8353C45.2718 30.8353 45.2718 30.9184 45.2718 31.0808C45.2718 31.2432 45.2718 31.4858 45.2718 31.8018C45.2718 32.4367 45.2718 33.3671 45.2767 34.5753C45.2767 36.9838 45.2767 40.4685 45.2846 44.7749C45.2846 45.851 45.2914 46.979 45.2846 48.1558C45.2681 48.4575 45.1719 48.7494 45.0059 49.0021C44.9231 49.129 44.8241 49.2448 44.7115 49.3464C44.6538 49.3972 44.5932 49.4446 44.5299 49.4883C44.4668 49.5302 44.4013 49.5684 44.3337 49.6027C44.1944 49.6723 44.0461 49.7223 43.893 49.7514C43.7385 49.7774 43.5816 49.7879 43.4249 49.7827H42.4809H34.3702H25.4067H18.8425C18.6386 49.789 18.4344 49.7831 18.2312 49.7651C17.8158 49.7108 17.4349 49.5065 17.1605 49.1909C16.8835 48.8745 16.7302 48.4691 16.7288 48.0492C16.7288 44.7631 16.7288 41.5563 16.7288 38.462V33.9051C16.7288 33.1603 16.7288 32.4234 16.7288 31.6942V31.1493C16.7229 30.9675 16.7288 30.7855 16.7464 30.6044C16.7696 30.4237 16.823 30.2481 16.9044 30.0849C16.9828 29.9211 17.0876 29.771 17.2145 29.6408C17.3402 29.512 17.4844 29.4025 17.6424 29.316C17.8012 29.232 17.9719 29.1726 18.1487 29.1399L18.2812 29.1194L18.4137 29.1125C18.503 29.1076 18.5903 29.1125 18.6777 29.1125H25.1967H32.2623L42.4946 29.1213H43.5476L43.739 29.1311C43.8008 29.1419 43.8626 29.1487 43.9215 29.1614C43.9804 29.1742 44.0383 29.1888 44.0932 29.2084C44.2983 29.2757 44.489 29.3805 44.6555 29.5175C44.7918 29.6326 44.9099 29.7675 45.0059 29.9177C45.1364 30.1214 45.2208 30.3511 45.2532 30.5907C45.2632 30.6515 45.2684 30.713 45.2689 30.7746C45.2767 30.8226 45.2767 30.8431 45.2767 30.8431Z" fill="#263238"/>
<path d="M44.2812 30.4092C44.476 30.3753 44.6753 30.3753 44.8701 30.4092C44.6753 30.4431 44.476 30.4431 44.2812 30.4092Z" fill="#263238"/>
<path d="M41.8789 30.4092C42.2786 30.3753 42.6804 30.3753 43.0801 30.4092C42.6804 30.4431 42.2786 30.4431 41.8789 30.4092Z" fill="#263238"/>
<path d="M39.4766 30.4092C39.8759 30.3753 40.2774 30.3753 40.6767 30.4092C40.2774 30.4432 39.8759 30.4432 39.4766 30.4092Z" fill="#263238"/>
<path d="M37.0742 30.4092C37.4739 30.3753 37.8757 30.3753 38.2754 30.4092C37.8757 30.4431 37.4739 30.4431 37.0742 30.4092Z" fill="#263238"/>
<path d="M34.6719 30.4092C35.0712 30.3753 35.4727 30.3753 35.872 30.4092C35.4727 30.4432 35.0712 30.4432 34.6719 30.4092Z" fill="#263238"/>
<path d="M32.2695 30.4092C32.6692 30.3753 33.071 30.3753 33.4707 30.4092C33.071 30.4431 32.6692 30.4431 32.2695 30.4092Z" fill="#263238"/>
<path d="M29.8672 30.4092C30.2665 30.3753 30.668 30.3753 31.0674 30.4092C30.668 30.4432 30.2665 30.4432 29.8672 30.4092Z" fill="#263238"/>
<path d="M27.4648 30.4092C27.8645 30.3753 28.2663 30.3753 28.666 30.4092C28.2663 30.4431 27.8645 30.4431 27.4648 30.4092Z" fill="#263238"/>
<path d="M25.0625 30.4092C25.4622 30.3753 25.864 30.3753 26.2637 30.4092C25.864 30.4431 25.4622 30.4431 25.0625 30.4092Z" fill="#263238"/>
<path d="M22.6641 30.4083C22.8622 30.3834 23.0621 30.3749 23.2617 30.3829C23.4622 30.3747 23.6631 30.3832 23.8623 30.4083C23.6632 30.4341 23.4622 30.4426 23.2617 30.4338C23.0621 30.4424 22.8622 30.4339 22.6641 30.4083Z" fill="#263238"/>
<path d="M20.2617 30.4083C20.4608 30.3832 20.6617 30.3747 20.8623 30.3829C21.0628 30.3747 21.2637 30.3832 21.4629 30.4083C21.2638 30.4341 21.0628 30.4426 20.8623 30.4338C20.6617 30.4426 20.4608 30.4341 20.2617 30.4083Z" fill="#263238"/>
<path d="M18.4703 30.9962C18.4445 30.8017 18.4359 30.6052 18.4448 30.4092L18.4703 30.3838H18.699L18.8864 30.3897C18.9445 30.3875 19.0026 30.3935 19.0591 30.4073C19.0027 30.4217 18.9446 30.428 18.8864 30.4259L18.699 30.4307H18.5891H18.4703L18.4958 30.4053C18.5043 30.6026 18.4958 30.8003 18.4703 30.9962Z" fill="#263238"/>
<path d="M18.4703 33.1904C18.4445 33.0087 18.4359 32.8249 18.4448 32.6416C18.436 32.4586 18.4445 32.2752 18.4703 32.0938C18.4955 32.2752 18.504 32.4586 18.4958 32.6416C18.5041 32.8249 18.4955 33.0086 18.4703 33.1904Z" fill="#263238"/>
<path d="M18.4708 35.3847C18.4368 35.02 18.4368 34.6529 18.4708 34.2881C18.5048 34.6529 18.5048 35.02 18.4708 35.3847Z" fill="#263238"/>
<path d="M18.4708 37.5791C18.4368 37.214 18.4368 36.8465 18.4708 36.4814C18.5048 36.8465 18.5048 37.214 18.4708 37.5791Z" fill="#263238"/>
<path d="M18.4708 39.7744C18.4368 39.4093 18.4368 39.0419 18.4708 38.6768C18.5048 39.0419 18.5048 39.4093 18.4708 39.7744Z" fill="#263238"/>
<path d="M18.4708 41.9658C18.4368 41.601 18.4368 41.2339 18.4708 40.8691C18.5048 41.2339 18.5048 41.601 18.4708 41.9658Z" fill="#263238"/>
<path d="M18.4708 44.1601C18.4368 43.7954 18.4368 43.4282 18.4708 43.0635C18.5048 43.4282 18.5048 43.7954 18.4708 44.1601Z" fill="#263238"/>
<path d="M18.4708 46.3545C18.4368 45.9897 18.4368 45.6226 18.4708 45.2578C18.5048 45.6226 18.5048 45.9897 18.4708 46.3545Z" fill="#263238"/>
<path d="M19.0583 48.0391C18.8631 48.0642 18.6661 48.0728 18.4695 48.0646C18.4185 48.0137 18.4548 48.0499 18.444 48.0381V47.9217C18.444 47.8836 18.444 47.8474 18.444 47.8112C18.444 47.7466 18.444 47.685 18.444 47.6243C18.4411 47.5666 18.4474 47.5089 18.4626 47.4531C18.4765 47.5091 18.4825 47.5667 18.4803 47.6243C18.4803 47.685 18.4803 47.7466 18.4862 47.8112C18.4862 47.8474 18.4862 47.8836 18.4862 47.9217C18.4862 47.9403 18.4862 47.9599 18.4862 47.9794V48.0381C18.4744 48.0274 18.5117 48.0646 18.4607 48.0137C18.6602 48.0044 18.8602 48.0129 19.0583 48.0391Z" fill="#263238"/>
<path d="M21.4276 48.0394C21.2324 48.0644 21.0354 48.0729 20.8388 48.0649C20.6422 48.0729 20.4452 48.0644 20.25 48.0394C20.4451 48.0139 20.6422 48.0054 20.8388 48.014C21.0354 48.0054 21.2325 48.0139 21.4276 48.0394Z" fill="#263238"/>
<path d="M23.7948 48.0394C23.5996 48.0644 23.4026 48.0729 23.206 48.0649C23.0094 48.0729 22.8124 48.0644 22.6172 48.0394C22.8123 48.0139 23.0094 48.0054 23.206 48.014C23.4026 48.0054 23.5996 48.0139 23.7948 48.0394Z" fill="#263238"/>
<path d="M26.1601 48.0391C25.7663 48.073 25.3703 48.073 24.9766 48.0391C25.3703 48.0052 25.7663 48.0052 26.1601 48.0391Z" fill="#263238"/>
<path d="M28.5272 48.0391C28.1335 48.073 27.7375 48.073 27.3438 48.0391C27.7375 48.0052 28.1335 48.0052 28.5272 48.0391Z" fill="#263238"/>
<path d="M30.8944 48.0391C30.5007 48.073 30.1047 48.073 29.7109 48.0391C30.1047 48.0052 30.5007 48.0052 30.8944 48.0391Z" fill="#263238"/>
<path d="M33.2616 48.0391C32.8679 48.073 32.4719 48.073 32.0781 48.0391C32.4719 48.0052 32.8679 48.0052 33.2616 48.0391Z" fill="#263238"/>
<path d="M35.6249 48.0391C35.2311 48.073 34.8352 48.073 34.4414 48.0391C34.8352 48.0052 35.2311 48.0052 35.6249 48.0391Z" fill="#263238"/>
<path d="M37.996 48.0391C37.6022 48.073 37.2063 48.073 36.8125 48.0391C37.2063 48.0052 37.6022 48.0052 37.996 48.0391Z" fill="#263238"/>
<path d="M40.3632 48.0391C39.9694 48.073 39.5734 48.073 39.1797 48.0391C39.5734 48.0052 39.9694 48.0052 40.3632 48.0391Z" fill="#263238"/>
<path d="M42.7304 48.0391C42.3366 48.073 41.9406 48.073 41.5469 48.0391C41.9406 48.0052 42.3366 48.0052 42.7304 48.0391Z" fill="#263238"/>
<path d="M44.5029 48.0391C44.3081 48.073 44.1089 48.073 43.9141 48.0391C44.1089 48.0052 44.3081 48.0052 44.5029 48.0391Z" fill="#263238"/>
<g opacity="0.3">
<path d="M26.5986 40.5811C26.5986 40.5811 26.6045 41.5593 26.3042 42.1463C26.004 42.7333 25.9117 42.9661 25.2837 43.1931C24.6556 43.42 16.7539 44.2858 16.7539 44.2858V41.6278L26.5986 40.5811Z" fill="black"/>
</g>
<g opacity="0.3">
<path d="M26.4602 36.8927C26.4602 36.8927 26.5505 35.8939 24.0373 35.5231C21.163 35.0995 16.7617 34.5791 16.7617 34.5791V36.4682L26.4602 36.8927Z" fill="black"/>
</g>
<path d="M25.197 35.9873H17.0215C16.2459 35.9873 15.6172 36.6141 15.6172 37.3872V41.0362C15.6172 41.8094 16.2459 42.4362 17.0215 42.4362H25.197C25.9725 42.4362 26.6013 41.8094 26.6013 41.0362V37.3872C26.6013 36.6141 25.9725 35.9873 25.197 35.9873Z" fill="#926ADB"/>
<path d="M17.0209 42.4349C17.0209 42.4349 16.9925 42.4349 16.9375 42.4349C16.8552 42.4317 16.7734 42.4206 16.6932 42.4016C16.562 42.3721 16.436 42.3233 16.3193 42.2568C16.1594 42.1668 16.019 42.0461 15.9061 41.9017C15.7632 41.7206 15.6671 41.5073 15.6265 41.2805C15.606 41.1511 15.5981 41.02 15.6029 40.8892C15.6029 40.7542 15.6029 40.6133 15.6029 40.4675C15.6029 39.8854 15.6029 39.2231 15.6029 38.4904C15.6029 38.1235 15.6029 37.741 15.6029 37.3399C15.6095 37.1285 15.6635 36.9212 15.761 36.7333C15.8585 36.5454 15.9969 36.3816 16.1662 36.254C16.3441 36.1177 16.5526 36.0264 16.7736 35.9879C16.8858 35.9694 16.9995 35.9615 17.1132 35.9645H18.8796H25.2033C25.4163 35.964 25.6267 36.0112 25.819 36.1027C26.0113 36.1941 26.1805 36.3274 26.3142 36.4927C26.4912 36.7091 26.5998 36.973 26.6262 37.2509C26.637 37.3889 26.6331 37.5229 26.6341 37.6569C26.6341 37.925 26.6341 38.1907 26.6341 38.4542V40.0067C26.6341 40.2601 26.6341 40.5115 26.6341 40.759C26.6341 40.8843 26.639 41.0056 26.6341 41.1308C26.6305 41.1928 26.623 41.2546 26.6115 41.3157C26.5982 41.3758 26.5818 41.4352 26.5624 41.4937C26.4825 41.7228 26.3453 41.9277 26.1638 42.0891C25.9823 42.2506 25.7625 42.3631 25.5252 42.4163C25.4685 42.4293 25.4112 42.4394 25.3534 42.4466C25.2955 42.4515 25.2376 42.4534 25.1797 42.4554H24.1837H21.7794L18.2977 42.4466L17.3507 42.4417H17.1053H17.0209C17.0209 42.4417 17.0494 42.4417 17.1053 42.4417H17.3507L18.2977 42.4368L21.7794 42.429H24.1837H24.8422C25.0659 42.4231 25.2946 42.4476 25.5144 42.3899C25.7419 42.3357 25.952 42.2249 26.125 42.0678C26.298 41.9108 26.4282 41.7126 26.5036 41.4918C26.588 41.2658 26.5762 41.0202 26.5762 40.7718V40.0195C26.5762 39.5127 26.5762 38.9942 26.5762 38.4669V37.6696C26.5762 37.5356 26.5762 37.3996 26.5693 37.2685C26.5429 37.0005 26.4381 36.746 26.268 36.5368C26.1824 36.4332 26.0834 36.3414 25.9736 36.2638C25.8596 36.1889 25.7358 36.13 25.6056 36.0887C25.4739 36.0505 25.3376 36.0301 25.2004 36.0281H18.8766H17.1102C16.9989 36.0251 16.8875 36.0327 16.7776 36.0506C16.5635 36.0875 16.3615 36.1754 16.1888 36.3069C16.0241 36.4305 15.8893 36.5893 15.7943 36.7716C15.6992 36.9539 15.6462 37.1551 15.6392 37.3605C15.6343 37.7586 15.6392 38.1431 15.6392 38.51C15.6392 39.2427 15.6392 39.905 15.6392 40.4871C15.6392 40.6328 15.6392 40.7737 15.6392 40.9087C15.6343 41.0379 15.6415 41.1673 15.6608 41.2951C15.7079 41.5618 15.8316 41.8092 16.017 42.0071C16.2023 42.2051 16.4413 42.3452 16.705 42.4104C16.7844 42.4302 16.8656 42.4426 16.9473 42.4476L17.0209 42.4349Z" fill="#263238"/>
<path d="M23.2927 41.7983C24.5913 41.7983 25.644 40.7489 25.644 39.4543C25.644 38.1598 24.5913 37.1104 23.2927 37.1104C21.9941 37.1104 20.9414 38.1598 20.9414 39.4543C20.9414 40.7489 21.9941 41.7983 23.2927 41.7983Z" fill="#263238"/>
<path d="M23.8945 41.3684C24.0934 41.2948 24.2821 41.1962 24.4559 41.0749C24.6407 40.9397 24.8013 40.7743 24.9308 40.5857C25.092 40.3569 25.1988 40.0944 25.2428 39.8182C25.2868 39.5421 25.2671 39.2595 25.185 38.9921C25.1208 38.7726 25.0193 38.5658 24.8847 38.3807C24.7579 38.2115 24.6094 38.0595 24.4431 37.9287C24.4431 37.9287 24.4578 37.9346 24.4814 37.9502C24.5177 37.9728 24.5527 37.9973 24.5864 38.0236C24.7099 38.1206 24.8201 38.2334 24.9141 38.3592C25.0552 38.5454 25.1622 38.7551 25.2301 38.9784C25.3174 39.2522 25.3392 39.5425 25.2939 39.8261C25.2486 40.1098 25.1374 40.379 24.9691 40.6121C24.8356 40.8026 24.6695 40.9682 24.4784 41.1013C24.3502 41.1918 24.2102 41.2645 24.0623 41.3175C24.0226 41.3327 23.982 41.3454 23.9407 41.3556C23.9263 41.3628 23.9106 41.3672 23.8945 41.3684Z" fill="#FAFAFA"/>
<path d="M60.0998 24.4296C60.1793 25.2832 60.003 26.1412 59.593 26.8948C59.1831 27.6484 58.558 28.2638 57.797 28.663C57.0359 29.0622 56.1731 29.2273 55.3179 29.1373C54.4627 29.0472 53.6535 28.7062 52.9929 28.1574C52.3322 27.6086 51.8498 26.8766 51.6068 26.0543C51.3637 25.2319 51.371 24.3561 51.6276 23.5379C51.8843 22.7197 52.3787 21.9958 53.0484 21.4579C53.7181 20.92 54.5328 20.5924 55.3894 20.5165C56.5343 20.4137 57.6734 20.768 58.5565 21.5017C59.4397 22.2354 59.9947 23.2884 60.0998 24.4296Z" fill="#926ADB"/>
<g opacity="0.3">
<path d="M59.0594 24.4158C59.0398 24.4158 59.0133 24.2759 58.9378 24.0245C58.8319 23.6778 58.673 23.3495 58.4667 23.0511C58.3243 22.8474 58.1598 22.6601 57.9761 22.4925C57.766 22.3001 57.5318 22.1357 57.2793 22.0034C57.1434 21.932 57.0024 21.8708 56.8573 21.8204C56.7066 21.7676 56.5521 21.726 56.3951 21.6962C56.2332 21.6652 56.0692 21.6466 55.9045 21.6404C55.7341 21.6346 55.5635 21.6415 55.3942 21.661C55.2252 21.6819 55.058 21.7146 54.8937 21.7588C54.7345 21.8044 54.579 21.862 54.4285 21.931C54.1434 22.0615 53.8789 22.2329 53.6435 22.4397C53.4297 22.627 53.241 22.8411 53.0821 23.0765C52.9443 23.2831 52.8297 23.5042 52.7406 23.7359C52.6113 24.0743 52.5358 24.4308 52.5169 24.7924C52.5022 25.0507 52.511 25.1955 52.4904 25.1984C52.4698 25.2014 52.4345 25.0585 52.4178 24.7924C52.3991 24.4141 52.451 24.0357 52.5709 23.6762C52.7492 23.1356 53.065 22.6503 53.4874 22.2675C53.7365 22.04 54.0183 21.8511 54.3235 21.7069C54.485 21.6308 54.6524 21.5677 54.824 21.5181C55.0008 21.4677 55.1813 21.4307 55.3637 21.4076C55.5465 21.3868 55.7305 21.3796 55.9143 21.3861C56.093 21.394 56.2708 21.4156 56.4461 21.4506C56.7769 21.5178 57.0958 21.6339 57.3922 21.795C57.8938 22.0668 58.3167 22.4631 58.6198 22.9454C58.8226 23.2659 58.9637 23.6212 59.0359 23.9932C59.0771 24.2691 59.0771 24.4158 59.0594 24.4158Z" fill="black"/>
</g>
<g opacity="0.3">
<path d="M56.3213 26.7418L56.3812 27.3131L55.8689 27.3669L55.811 26.8103C55.3007 26.8318 54.7983 26.7242 54.4941 26.5344L54.71 25.8819C55.0251 26.0559 55.3802 26.1453 55.7404 26.1412L55.6511 25.2891C55.0691 25.2098 54.4146 25.0875 54.338 24.3568C54.2811 23.8158 54.6275 23.311 55.4263 23.1349L55.3675 22.5685L55.8797 22.5156L55.9376 23.0713C56.3059 23.0541 56.6731 23.1238 57.0092 23.2748L56.8198 23.9263C56.5645 23.8121 56.289 23.7496 56.0092 23.7424L56.0995 24.6101C56.6815 24.6835 57.3262 24.8058 57.4008 25.5278C57.4567 26.0619 57.1142 26.5618 56.3213 26.7418ZM55.5745 24.5387L55.498 23.8138C55.234 23.9028 55.1417 24.0623 55.1594 24.2306C55.1771 24.3988 55.341 24.4908 55.5745 24.5387ZM56.5833 25.6774C56.5647 25.4984 56.4057 25.4172 56.178 25.3634L56.2516 26.0678C56.5019 25.9856 56.6 25.8408 56.5833 25.6774Z" fill="black"/>
</g>
<path d="M52.4767 25.1173C52.48 25.1258 52.4823 25.1347 52.4836 25.1437C52.4836 25.1642 52.4915 25.1897 52.4974 25.221C52.5032 25.2523 52.5091 25.2983 52.517 25.3462C52.5249 25.4036 52.5364 25.4604 52.5513 25.5164C52.6923 26.1262 53.0025 26.6842 53.4463 27.1267L53.6014 27.2675C53.6278 27.2901 53.6524 27.3155 53.6808 27.338L53.7682 27.4026C53.8271 27.4456 53.885 27.4935 53.9478 27.5336L54.144 27.652C54.425 27.8103 54.7274 27.9272 55.0419 27.9993C55.7227 28.1545 56.4354 28.0891 57.0762 27.8125C57.3724 27.6844 57.6483 27.5144 57.8957 27.3077L58.0664 27.156C58.1214 27.1052 58.1645 27.0474 58.2185 26.9946C58.2431 26.9682 58.2686 26.9418 58.2921 26.9154C58.3157 26.889 58.3363 26.8586 58.3589 26.8312C58.4011 26.7745 58.4432 26.7197 58.4854 26.6649C58.6285 26.4549 58.7479 26.2299 58.8417 25.9938C58.9773 25.6503 59.0545 25.2866 59.0703 24.9177C59.0742 24.8601 59.0742 24.8022 59.0703 24.7446C59.0703 24.6956 59.0703 24.6526 59.0703 24.6174C59.0703 24.5822 59.0703 24.5597 59.0703 24.5391C59.0695 24.53 59.0695 24.5208 59.0703 24.5117C59.0714 24.5205 59.0714 24.5294 59.0703 24.5381C59.0703 24.5587 59.0703 24.5851 59.0762 24.6164C59.0821 24.6477 59.0762 24.6947 59.0831 24.7446C59.0876 24.8025 59.0876 24.8607 59.0831 24.9187C59.075 25.2906 59.0023 25.6584 58.8682 26.0056C58.7766 26.2467 58.6574 26.4765 58.5129 26.6904L58.3903 26.8616C58.3677 26.8899 58.3471 26.9203 58.3235 26.9477L58.2489 27.0288C58.1989 27.0827 58.1508 27.1404 58.0949 27.1922L57.9231 27.3478C57.6728 27.5584 57.3931 27.7317 57.0929 27.8623C56.444 28.1435 55.7218 28.21 55.0321 28.0521C54.7128 27.9783 54.406 27.8584 54.1215 27.696L53.9252 27.5757C53.8614 27.5346 53.8035 27.4857 53.7436 27.4427L53.6563 27.3761C53.6278 27.3536 53.6023 27.3272 53.5749 27.3037L53.4159 27.155C53.2356 26.9712 53.0766 26.7678 52.9419 26.5485C52.7466 26.2313 52.6078 25.8828 52.5317 25.5184C52.5177 25.4621 52.5079 25.4049 52.5023 25.3472C52.4964 25.2983 52.4915 25.2552 52.4866 25.22C52.4817 25.1848 52.4807 25.1623 52.4777 25.1417C52.4766 25.1336 52.4763 25.1254 52.4767 25.1173Z" fill="#263238"/>
<path d="M53.9756 37.197C53.7596 37.646 53.4148 38.021 52.9848 38.2745C52.5549 38.5281 52.0592 38.6487 51.5604 38.6212C51.0617 38.5938 50.5823 38.4193 50.1831 38.1201C49.7838 37.8209 49.4826 37.4103 49.3175 36.9403C49.1525 36.4703 49.1311 35.962 49.2559 35.4799C49.3808 34.9977 49.6464 34.5633 50.0191 34.2318C50.3917 33.9002 50.8547 33.6863 51.3494 33.6171C51.8441 33.548 52.3482 33.6268 52.798 33.8434C53.0962 33.9865 53.3632 34.1868 53.5838 34.4328C53.8044 34.6788 53.9742 34.9656 54.0835 35.2771C54.1929 35.5885 54.2396 35.9183 54.2211 36.2477C54.2026 36.5772 54.1192 36.8997 53.9756 37.197Z" fill="#926ADB"/>
<g opacity="0.3">
<path d="M53.4644 36.8833C53.4745 36.8049 53.4929 36.7279 53.5193 36.6534C53.57 36.4491 53.5888 36.2383 53.5753 36.0283C53.5647 35.8844 53.5387 35.7421 53.4977 35.6037C53.4495 35.446 53.3812 35.2951 53.2946 35.1547C53.2478 35.079 53.1956 35.0067 53.1386 34.9385C52.9523 34.7166 52.7173 34.5405 52.4516 34.4239C52.361 34.3843 52.2675 34.3516 52.172 34.326C52.0789 34.3017 51.9841 34.2844 51.8884 34.2742C51.7962 34.2637 51.7033 34.2604 51.6106 34.2644C51.5214 34.2679 51.4325 34.278 51.3447 34.2947C51.1821 34.3242 51.024 34.3749 50.8746 34.4454C50.7441 34.5076 50.6208 34.5837 50.5066 34.6724C50.3413 34.8034 50.1973 34.9592 50.0798 35.1341C50.0416 35.2036 49.9965 35.2692 49.9453 35.3298C49.9572 35.2498 49.9863 35.1734 50.0307 35.1057C50.1343 34.9096 50.2741 34.7346 50.4428 34.5902C50.5586 34.4898 50.6861 34.4037 50.8226 34.3339C50.9798 34.2535 51.1472 34.1946 51.3202 34.1588C51.5137 34.1188 51.7122 34.1083 51.909 34.1275C52.0123 34.1377 52.1147 34.156 52.2151 34.1822C52.3184 34.21 52.4194 34.2453 52.5174 34.2879C52.615 34.3315 52.7092 34.3825 52.799 34.4405C52.8857 34.4972 52.9677 34.5607 53.0444 34.6303C53.119 34.6972 53.188 34.7701 53.2504 34.8485C53.3108 34.9224 53.3653 35.0009 53.4133 35.0832C53.5036 35.2363 53.5726 35.4008 53.6184 35.5724C53.6575 35.72 53.6789 35.8717 53.6822 36.0244C53.6878 36.2445 53.6522 36.4638 53.5772 36.671C53.5547 36.7488 53.5163 36.821 53.4644 36.8833Z" fill="black"/>
</g>
<g opacity="0.3">
<path d="M51.4045 37.2317L51.2642 37.534L50.9924 37.4088L51.1297 37.1153C50.8923 36.9958 50.6931 36.8125 50.5547 36.586L50.8579 36.3248C50.9632 36.5055 51.1136 36.6558 51.2946 36.7612L51.5056 36.3092C51.2377 36.0969 50.9482 35.8406 51.1288 35.4542C51.2622 35.1675 51.5851 35.0178 52.0365 35.1675L52.1768 34.8672L52.4477 34.9934L52.3103 35.2869C52.4994 35.3874 52.6618 35.5312 52.7843 35.7066L52.4899 35.9766C52.3966 35.8438 52.2779 35.7307 52.1405 35.6439L51.9266 36.1037C52.1945 36.3131 52.4791 36.5665 52.3015 36.948C52.1749 37.2317 51.855 37.3755 51.4045 37.2317ZM51.6901 35.91L51.8697 35.5266C51.7107 35.4923 51.6165 35.5442 51.5753 35.6332C51.5341 35.7222 51.589 35.8151 51.6901 35.9081V35.91ZM51.854 36.7788C51.8972 36.6809 51.8432 36.5958 51.745 36.5009L51.5713 36.8746C51.7195 36.9059 51.8177 36.8629 51.854 36.7768V36.7788Z" fill="black"/>
</g>
<path d="M49.9689 35.2744C49.9689 35.2744 49.9395 35.3537 49.8914 35.4975C49.8264 35.701 49.7959 35.9139 49.8011 36.1275C49.805 36.2743 49.825 36.4203 49.861 36.5628C49.9037 36.7274 49.9667 36.8861 50.0484 37.0353C50.1414 37.1966 50.2571 37.3439 50.3919 37.4726C50.6831 37.7512 51.0563 37.9295 51.4566 37.9813C51.6415 38.0053 51.8289 38.0026 52.013 37.9735C52.3267 37.9234 52.6229 37.796 52.8746 37.6027C53.0447 37.4726 53.1922 37.3157 53.3113 37.138C53.3928 37.0109 53.4311 36.9346 53.436 36.9375C53.4301 36.957 53.4219 36.9757 53.4114 36.9933C53.3865 37.0463 53.3587 37.0979 53.328 37.1478C53.2136 37.3326 53.0679 37.4962 52.8972 37.6311C52.6438 37.8346 52.3419 37.9694 52.0209 38.0224C51.8321 38.054 51.6396 38.0577 51.4497 38.0332C51.246 38.0048 51.0475 37.9464 50.8609 37.86C50.6767 37.7696 50.507 37.6522 50.3575 37.5118C50.2198 37.3794 50.1021 37.2278 50.0082 37.0617C49.9227 36.9109 49.8567 36.7498 49.8119 36.5824C49.7772 36.4365 49.7591 36.2872 49.7579 36.1373C49.7555 35.9203 49.7917 35.7047 49.8649 35.5004C49.8841 35.4451 49.907 35.3912 49.9336 35.339C49.9427 35.3161 49.9546 35.2944 49.9689 35.2744Z" fill="#263238"/>
<path d="M12.312 36.8405C12.4315 37.6449 12.309 38.4666 11.9598 39.2016C11.6106 39.9365 11.0505 40.5516 10.3504 40.969C9.65033 41.3864 8.84175 41.5873 8.02705 41.5463C7.21235 41.5053 6.42819 41.2242 5.77384 40.7386C5.11949 40.2531 4.62439 39.5849 4.35123 38.8186C4.07807 38.0523 4.03914 37.2225 4.23937 36.4342C4.4396 35.6459 4.86997 34.9345 5.47601 34.3902C6.08204 33.8458 6.83647 33.493 7.64377 33.3764C8.17846 33.2982 8.72335 33.3259 9.24734 33.4577C9.77132 33.5895 10.2641 33.8229 10.6976 34.1445C11.1311 34.4662 11.4968 34.8699 11.7738 35.3325C12.0508 35.795 12.2337 36.3075 12.312 36.8405Z" fill="#926ADB"/>
<g opacity="0.3">
<path d="M11.3273 36.8809C11.3086 36.8809 11.2753 36.7508 11.1909 36.5209C11.0734 36.1976 10.9058 35.8945 10.6943 35.6228C10.5495 35.4381 10.385 35.2695 10.2037 35.12C9.99402 34.9501 9.76311 34.808 9.51672 34.6974C9.38437 34.6368 9.24757 34.5865 9.10751 34.5467C8.9621 34.5027 8.81347 34.47 8.66296 34.4489C8.50753 34.4279 8.35072 34.4187 8.19389 34.4215C8.03235 34.4256 7.87132 34.4413 7.71205 34.4685C7.55291 34.4973 7.39613 34.5379 7.24298 34.5898C7.09467 34.6415 6.95035 34.7039 6.81119 34.7766C6.67688 34.8471 6.54827 34.9279 6.42651 35.0183C6.30895 35.1041 6.19777 35.1982 6.09383 35.3C5.73245 35.6541 5.463 36.0906 5.30877 36.5718C5.20404 36.8994 5.15139 37.2414 5.15274 37.5853C5.15274 37.8299 5.16746 37.9668 5.15274 37.9698C5.13802 37.9727 5.09189 37.8406 5.06343 37.5902C5.02473 37.2328 5.05403 36.8714 5.14979 36.5248C5.21476 36.2837 5.30832 36.0512 5.42849 35.8322C5.5683 35.5805 5.74124 35.3485 5.94271 35.1425C6.05172 35.0307 6.16917 34.9273 6.29403 34.8334C6.42395 34.7345 6.56143 34.6458 6.7052 34.5683C6.85423 34.4879 7.00944 34.4195 7.16938 34.3638C7.49926 34.2476 7.84601 34.1861 8.19585 34.1818C8.36524 34.18 8.53453 34.1911 8.70222 34.2151C8.86418 34.238 9.02401 34.274 9.18013 34.3227C9.32967 34.3683 9.47564 34.4249 9.61682 34.4919C10.1059 34.7235 10.527 35.0765 10.8396 35.5172C11.0481 35.8107 11.2004 36.14 11.289 36.4886C11.34 36.742 11.341 36.879 11.3273 36.8809Z" fill="black"/>
</g>
<g opacity="0.3">
<path d="M8.85567 39.2248L8.94203 39.7628L8.46019 39.8401L8.3758 39.3158C7.89396 39.3627 7.41213 39.2874 7.1138 39.1201L7.28456 38.4911C7.59185 38.6412 7.9332 38.7087 8.27472 38.6867L8.14617 37.8845C7.58975 37.8405 6.96366 37.7574 6.85277 37.0706C6.77132 36.5609 7.07259 36.0639 7.82036 35.8565L7.73401 35.3224L8.21682 35.2461L8.30024 35.7695C8.64844 35.734 9.00012 35.781 9.32671 35.9064L9.18049 36.5365C8.93247 36.4413 8.66792 36.3964 8.40229 36.4044L8.53379 37.2213C9.08923 37.2604 9.70551 37.3445 9.81443 38.0225C9.8949 38.5214 9.59756 39.0125 8.85567 39.2248ZM8.03233 37.1772L7.92242 36.4924C7.67611 36.5903 7.5976 36.7468 7.62312 36.9053C7.64863 37.0638 7.80957 37.144 8.03233 37.1772ZM9.04801 38.2035C9.02053 38.0352 8.86647 37.9657 8.64763 37.9266L8.75361 38.5899C8.98619 38.5028 9.07254 38.357 9.04801 38.2035Z" fill="black"/>
</g>
<path d="M5.13087 37.8874C5.13382 37.8953 5.13611 37.9035 5.13774 37.9118C5.14264 37.9304 5.14853 37.9549 5.1554 37.9842L5.18092 38.1016C5.19145 38.1555 5.20521 38.2088 5.22213 38.2611C5.31963 38.597 5.47252 38.9144 5.67453 39.2002C5.81386 39.3968 5.97482 39.5773 6.1544 39.7383L6.30847 39.8635C6.33496 39.884 6.36048 39.9065 6.38796 39.9261L6.47431 39.9829C6.53221 40.02 6.58913 40.0621 6.65095 40.0973L6.84133 40.1951C7.11577 40.3303 7.40825 40.4255 7.70981 40.4779C8.03465 40.5291 8.36526 40.5327 8.69115 40.4886C9.01578 40.4363 9.33111 40.3375 9.62734 40.1951C9.90051 40.0581 10.1526 39.8828 10.3761 39.6747L10.5292 39.5211C10.5792 39.4702 10.6204 39.4135 10.6656 39.3616L10.7313 39.2824C10.7529 39.255 10.7706 39.2266 10.7892 39.1992C10.8275 39.1435 10.8638 39.0887 10.9011 39.0349C11.0253 38.8286 11.1266 38.6095 11.2034 38.3814C11.3138 38.0493 11.3678 37.7011 11.3633 37.3513C11.3652 37.2964 11.3629 37.2414 11.3564 37.1869C11.3564 37.1409 11.3496 37.1008 11.3476 37.0666C11.3457 37.0323 11.3476 37.0128 11.3427 36.9922C11.3414 36.9838 11.3414 36.9752 11.3427 36.9668C11.3457 36.975 11.3474 36.9835 11.3476 36.9922C11.3476 37.0118 11.3535 37.0363 11.3574 37.0656C11.3614 37.095 11.3663 37.14 11.3721 37.1859C11.3796 37.2407 11.3833 37.296 11.3829 37.3513C11.3957 37.704 11.3465 38.0563 11.2377 38.3922C11.163 38.6246 11.0619 38.8478 10.9364 39.0574L10.8255 39.2237C10.8059 39.2521 10.7883 39.2814 10.7667 39.3088L10.7009 39.389C10.6558 39.4428 10.6136 39.5006 10.5635 39.5524C10.5135 39.6043 10.4654 39.6561 10.4085 39.708C10.1824 39.921 9.92658 40.1003 9.64893 40.2401C9.0478 40.541 8.36566 40.6415 7.70294 40.5268C7.39587 40.472 7.09838 40.3731 6.81974 40.2333L6.62348 40.1286C6.56067 40.0934 6.50375 40.0504 6.44487 40.0122L6.35754 39.9545C6.33006 39.9339 6.30454 39.9105 6.27707 39.8899L6.12202 39.7627C5.94151 39.5981 5.78021 39.4136 5.64116 39.2129C5.4397 38.9225 5.29029 38.5995 5.19956 38.2581C5.18273 38.2054 5.17025 38.1514 5.16227 38.0967C5.15442 38.0507 5.14755 38.0116 5.14068 37.9774L5.12891 37.904C5.12908 37.8984 5.12974 37.8928 5.13087 37.8874Z" fill="#263238"/>
<path d="M50.5533 10.5155C50.5728 10.5131 50.5926 10.5131 50.6122 10.5155L50.7849 10.5204C50.8231 10.5204 50.8653 10.5204 50.9124 10.5204L51.0646 10.5419L51.2432 10.5673L51.4394 10.6172C51.7821 10.7044 52.108 10.8471 52.4041 11.0398C52.8442 11.3167 53.2146 11.6907 53.4868 12.1329C53.759 12.5751 53.9258 13.0736 53.9742 13.5902C53.9878 13.7447 53.9911 13.9 53.984 14.0549C53.9781 14.1332 53.984 14.2134 53.9683 14.2926C53.9526 14.3719 53.9438 14.4511 53.932 14.5323C53.8713 14.8615 53.7622 15.1799 53.6082 15.4773C53.4437 15.7894 53.2348 16.076 52.988 16.3284C52.725 16.5859 52.4238 16.8013 52.095 16.9673C51.7547 17.1415 51.3863 17.2544 51.0067 17.3009C50.9092 17.3156 50.8108 17.3238 50.7123 17.3253C50.6142 17.3307 50.5159 17.3307 50.4179 17.3253C50.2199 17.3174 50.0229 17.2928 49.8291 17.2519C49.4121 17.1627 49.0154 16.9968 48.6593 16.7628H48.6946L47.5023 17.2402L47.4317 17.2686L47.4523 17.1952C47.572 16.7589 47.6897 16.3353 47.8026 15.9234L47.8085 15.9547C47.4852 15.5273 47.2673 15.0299 47.1726 14.503C47.1273 14.2579 47.1118 14.0082 47.1265 13.7595C47.1286 13.6394 47.1397 13.5198 47.1598 13.4014C47.1687 13.3437 47.1785 13.286 47.1873 13.2282C47.1961 13.1705 47.2148 13.1157 47.2285 13.06C47.4281 12.279 47.8993 11.5939 48.5582 11.1269C48.8027 10.9559 49.0695 10.819 49.3511 10.7199C49.413 10.6974 49.4719 10.6759 49.5298 10.6563L49.6985 10.6133L49.8536 10.5751C49.9027 10.5654 49.9517 10.5605 49.9959 10.5536C50.0862 10.5419 50.1657 10.5262 50.2343 10.5233L50.41 10.5174H50.517C50.529 10.516 50.5412 10.516 50.5533 10.5174C50.5413 10.5198 50.5292 10.5215 50.517 10.5223L50.41 10.5301L50.2363 10.5419C50.1676 10.5477 50.0891 10.5644 49.9998 10.5781C49.3531 10.6893 48.7527 10.9854 48.2715 11.4303C47.7903 11.8752 47.4492 12.4499 47.2894 13.0844C47.2766 13.1392 47.2589 13.194 47.2491 13.2498C47.2393 13.3055 47.2324 13.3633 47.2236 13.421C47.2037 13.5367 47.1932 13.6538 47.1922 13.7712C47.1786 14.0152 47.1948 14.2599 47.2403 14.5C47.3348 15.0159 47.5496 15.5025 47.8674 15.9205L47.8782 15.9352V15.9518C47.7663 16.3627 47.6505 16.7873 47.5308 17.2236L47.4807 17.1795L48.6721 16.7012L48.6907 16.6933L48.7074 16.7041C49.0555 16.9338 49.4436 17.0967 49.8516 17.1844C50.0406 17.2245 50.2327 17.2487 50.4257 17.2568C50.5216 17.2603 50.6176 17.2583 50.7132 17.251C50.8082 17.25 50.903 17.2422 50.9968 17.2275C51.3683 17.183 51.7288 17.073 52.0616 16.9027C52.3835 16.7406 52.6784 16.5301 52.936 16.2785C53.1778 16.0323 53.3827 15.7526 53.5444 15.448C53.6964 15.1569 53.8046 14.8451 53.8653 14.5225C53.8771 14.4433 53.8898 14.365 53.9016 14.2877C53.9134 14.2104 53.9114 14.1322 53.9173 14.0549C53.9253 13.9026 53.923 13.75 53.9104 13.598C53.8648 13.0905 53.704 12.5999 53.4402 12.1635C53.1763 11.7271 52.8163 11.3562 52.3874 11.079C52.0966 10.8867 51.7764 10.7426 51.4394 10.6524L51.2432 10.6006L51.0675 10.5712L50.9164 10.5468C50.8703 10.5419 50.8271 10.5409 50.7898 10.537L50.6112 10.5243C50.5917 10.5224 50.5724 10.5194 50.5533 10.5155Z" fill="#263238"/>
<path d="M51.6749 14.731C51.6615 14.7322 51.648 14.7322 51.6346 14.731H51.5188L51.089 14.7378L49.6494 14.7506H49.6376V14.7388C49.6259 14.6635 49.6141 14.5823 49.6023 14.5011C49.5042 13.8055 49.4139 13.1843 49.356 12.7793L49.3638 12.7862H48.9811H48.883H48.8477C48.8594 12.7849 48.8712 12.7849 48.883 12.7862H48.9811L49.3638 12.7744H49.3717V12.7813C49.4325 13.1873 49.5248 13.8075 49.6288 14.5021L49.6631 14.7398L49.6494 14.7281H51.089L51.5228 14.731H51.6396C51.6513 14.7299 51.6631 14.7299 51.6749 14.731Z" fill="#926ADB"/>
<path d="M49.678 14.7701H49.6299L49.622 14.7212V14.7095L49.5936 14.5138L49.3433 12.8038H48.8762C48.835 12.8038 48.8281 12.8038 48.8281 12.7901V12.7852C48.8281 12.7852 48.8281 12.7852 48.8723 12.7783H48.9704L49.3306 12.7735V12.7637L49.3404 12.7725H49.3737V12.7901C49.3733 12.7953 49.3733 12.8005 49.3737 12.8057L49.3836 12.8145H49.3747C49.4356 13.2205 49.5259 13.83 49.6279 14.5109L49.6593 14.7271H51.0764H51.622C51.6681 14.7271 51.674 14.7271 51.674 14.7418C51.674 14.7564 51.674 14.7555 51.622 14.7564H51.5062L51.0773 14.7623L49.6672 14.775L49.678 14.7701ZM49.678 14.7408H50.0607H49.678ZM49.5465 14.0462L49.6446 14.7154L49.6132 14.5031C49.5906 14.3475 49.5681 14.1949 49.5465 14.0462Z" fill="#926ADB"/>
<path d="M49.5848 14.3235H49.625H49.7408L50.1736 14.3166L51.6681 14.3029L51.6554 14.3137C51.6986 14.0632 51.7447 13.7913 51.7928 13.5105C51.8173 13.3667 51.8418 13.2248 51.8644 13.0889L51.8781 13.1045L50.1167 13.1104H49.4582H49.4219H49.4582H49.5985L50.1196 13.1035L51.8811 13.0889H51.8968V13.1045C51.8742 13.2395 51.8497 13.3814 51.8252 13.5262C51.7771 13.8069 51.727 14.0779 51.6868 14.3293V14.3401H51.676H50.1814H49.7487H49.6329H49.5926L49.5848 14.3235Z" fill="#926ADB"/>
<path d="M50.1757 14.3391H49.5967C49.5859 14.3391 49.5741 14.3391 49.5741 14.3254C49.5741 14.3118 49.5859 14.3127 49.5967 14.3118H49.7419L50.1757 14.3059L51.6477 14.2922L51.7811 13.5096C51.8047 13.3755 51.8273 13.2444 51.8488 13.1182L50.1178 13.1241H49.4191C49.4063 13.1241 49.3945 13.1241 49.3945 13.1104C49.3945 13.0967 49.4063 13.0977 49.4191 13.0967H49.5957L50.1178 13.0889L51.8577 13.0742H51.9136L51.9058 13.1212L51.7095 14.2951L51.7016 14.3421H51.6536L50.1757 14.3391ZM51.6477 14.3098H51.4298H51.6477ZM51.8773 13.1114C51.8557 13.2386 51.8331 13.3716 51.8096 13.5027L51.6771 14.2853L51.8734 13.1114H51.8773ZM51.8567 13.085H51.4259H51.8567Z" fill="#926ADB"/>
<path d="M50.1576 15.2866C50.1576 15.2866 50.1576 15.269 50.1458 15.2387C50.1335 15.1964 50.1072 15.1596 50.0713 15.134C50.0452 15.1157 50.015 15.104 49.9834 15.0999C49.9518 15.0958 49.9196 15.0995 49.8897 15.1105C49.8535 15.1243 49.8224 15.1487 49.8005 15.1805C49.7786 15.2123 49.7669 15.25 49.7671 15.2886C49.7679 15.3272 49.7801 15.3647 49.8023 15.3964C49.8245 15.4281 49.8556 15.4525 49.8917 15.4666C49.9218 15.4773 49.9541 15.4805 49.9857 15.4759C50.0174 15.4713 50.0474 15.459 50.0732 15.4402C50.1085 15.4138 50.1343 15.3768 50.1468 15.3346C50.1557 15.3052 50.1557 15.2866 50.1576 15.2866C50.1621 15.3033 50.1621 15.3208 50.1576 15.3375C50.1483 15.3838 50.1229 15.4253 50.086 15.4549C50.0617 15.4743 50.0334 15.4882 50.0031 15.4956C49.9729 15.503 49.9413 15.5037 49.9108 15.4977C49.8802 15.4917 49.8513 15.4791 49.8261 15.4608C49.801 15.4425 49.7801 15.4189 49.765 15.3917C49.7499 15.3645 49.741 15.3344 49.7388 15.3034C49.7366 15.2724 49.7413 15.2413 49.7524 15.2123C49.7635 15.1833 49.7809 15.157 49.8032 15.1354C49.8256 15.1138 49.8524 15.0973 49.8819 15.0871C49.9155 15.0747 49.9518 15.0712 49.9872 15.0768C50.0226 15.0825 50.0559 15.0971 50.084 15.1193C50.1212 15.1486 50.1472 15.1897 50.1576 15.2358C50.1625 15.269 50.1596 15.2866 50.1576 15.2866Z" fill="#926ADB"/>
<path d="M49.9523 15.5138C49.9275 15.5138 49.9029 15.5095 49.8797 15.5011C49.8353 15.486 49.7967 15.4576 49.7693 15.4198C49.7419 15.3819 49.7269 15.3365 49.7266 15.2898C49.7261 15.2475 49.7377 15.2059 49.7599 15.1699C49.7821 15.1338 49.814 15.1047 49.852 15.0859C49.89 15.0671 49.9325 15.0594 49.9748 15.0636C50.017 15.0678 50.0571 15.0838 50.0906 15.1097C50.1306 15.1406 50.1581 15.1847 50.1682 15.234C50.1715 15.2514 50.1715 15.2694 50.1682 15.2868C50.1711 15.3043 50.1711 15.3222 50.1682 15.3396C50.1584 15.3891 50.1313 15.4335 50.0916 15.4649C50.052 15.4962 50.0029 15.5134 49.9523 15.5138ZM49.9101 15.0912L49.8846 15.099C49.8453 15.113 49.8113 15.1387 49.7873 15.1727C49.7633 15.2067 49.7504 15.2472 49.7504 15.2888C49.7504 15.3303 49.7633 15.3709 49.7873 15.4049C49.8113 15.4388 49.8453 15.4646 49.8846 15.4786L49.9101 15.4854L49.8855 15.4776C49.8466 15.4634 49.813 15.4376 49.7892 15.4038C49.7655 15.3699 49.7527 15.3296 49.7527 15.2883C49.7527 15.247 49.7655 15.2066 49.7892 15.1728C49.813 15.1389 49.8466 15.1132 49.8855 15.099L49.9101 15.0912ZM49.9572 15.1107C49.9354 15.1105 49.9137 15.1145 49.8934 15.1225C49.8596 15.1353 49.8306 15.1581 49.8101 15.1878C49.7896 15.2175 49.7786 15.2527 49.7786 15.2888C49.7789 15.3218 49.7884 15.354 49.806 15.382C49.8236 15.4099 49.8486 15.4325 49.8783 15.4472C49.9079 15.4619 49.9411 15.4681 49.9741 15.4652C50.007 15.4622 50.0385 15.4503 50.0651 15.4306C50.0981 15.4061 50.1224 15.3719 50.1348 15.3328C50.1385 15.321 50.1411 15.3089 50.1427 15.2966C50.1427 15.2966 50.1427 15.2907 50.1427 15.2878C50.1421 15.2852 50.1421 15.2825 50.1427 15.28C50.1408 15.2677 50.1379 15.2556 50.1338 15.2438C50.122 15.2044 50.0975 15.17 50.0642 15.1459C50.0334 15.1233 49.9963 15.111 49.9582 15.1107H49.9572Z" fill="#926ADB"/>
<path d="M51.46 15.2787C51.46 15.2787 51.46 15.2611 51.4482 15.2308C51.4357 15.1889 51.4094 15.1523 51.3736 15.1271C51.3446 15.1077 51.311 15.0965 51.2762 15.0944C51.2414 15.0923 51.2067 15.0995 51.1756 15.1153C51.1445 15.131 51.1182 15.1547 51.0994 15.184C51.0805 15.2132 51.0699 15.2469 51.0684 15.2816C51.0695 15.3202 51.082 15.3576 51.1044 15.3891C51.1267 15.4206 51.1579 15.4448 51.194 15.4587C51.2242 15.4694 51.2565 15.4725 51.2881 15.4679C51.3197 15.4633 51.3498 15.4511 51.3756 15.4323C51.4108 15.4062 51.4366 15.3695 51.4492 15.3276C51.458 15.2973 51.458 15.2787 51.46 15.2787C51.464 15.2954 51.464 15.3128 51.46 15.3296C51.4513 15.3764 51.4259 15.4185 51.3883 15.4479C51.3567 15.4725 51.3189 15.4877 51.279 15.4918C51.2392 15.4959 51.199 15.4888 51.163 15.4713C51.127 15.4537 51.0966 15.4265 51.0754 15.3926C51.0542 15.3587 51.043 15.3196 51.043 15.2797C51.043 15.2397 51.0542 15.2006 51.0754 15.1667C51.0966 15.1329 51.127 15.1056 51.163 15.0881C51.199 15.0705 51.2392 15.0634 51.279 15.0675C51.3189 15.0717 51.3567 15.0869 51.3883 15.1114C51.4258 15.1409 51.4518 15.1824 51.4619 15.2288C51.4656 15.2453 51.4649 15.2625 51.46 15.2787Z" fill="#926ADB"/>
<path d="M51.2533 15.5053C51.2283 15.5055 51.2034 15.5015 51.1797 15.4935C51.1482 15.4832 51.1193 15.4662 51.095 15.4435C51.0708 15.4209 51.0519 15.3933 51.0396 15.3625C51.0273 15.3318 51.0219 15.2987 51.0238 15.2657C51.0257 15.2327 51.0349 15.2005 51.0507 15.1713C51.0664 15.1422 51.0884 15.1169 51.1151 15.0972C51.1417 15.0775 51.1724 15.0639 51.205 15.0573C51.2375 15.0507 51.2711 15.0513 51.3033 15.059C51.3356 15.0668 51.3658 15.0815 51.3917 15.1022C51.4312 15.1334 51.4586 15.1773 51.4692 15.2265C51.4725 15.2439 51.4725 15.2618 51.4692 15.2793C51.4722 15.2968 51.4722 15.3146 51.4692 15.3321C51.4588 15.3816 51.4315 15.426 51.392 15.4578C51.3524 15.4895 51.3031 15.5066 51.2523 15.5062L51.2533 15.5053ZM51.2092 15.0836L51.1856 15.0905C51.1463 15.1045 51.1124 15.1302 51.0883 15.1642C51.0643 15.1981 51.0514 15.2387 51.0514 15.2803C51.0514 15.3218 51.0643 15.3624 51.0883 15.3963C51.1124 15.4303 51.1463 15.4561 51.1856 15.47L51.2141 15.4779L51.1866 15.47C51.1477 15.4556 51.1143 15.4297 51.0906 15.3958C51.067 15.3619 51.0543 15.3216 51.0543 15.2803C51.0543 15.2389 51.067 15.1986 51.0906 15.1647C51.1143 15.1308 51.1477 15.1049 51.1866 15.0905L51.2092 15.0836ZM51.2582 15.1022C51.2364 15.1019 51.2147 15.1059 51.1944 15.1139C51.1705 15.1231 51.1489 15.1372 51.1309 15.1554C51.113 15.1735 51.0992 15.1954 51.0904 15.2193C51.0817 15.2433 51.0782 15.2689 51.0802 15.2943C51.0822 15.3197 51.0897 15.3444 51.1021 15.3667C51.1145 15.389 51.1316 15.4084 51.1522 15.4235C51.1728 15.4387 51.1964 15.4492 51.2215 15.4545C51.2465 15.4597 51.2724 15.4596 51.2973 15.454C51.3223 15.4484 51.3458 15.4375 51.3662 15.4221C51.3991 15.3976 51.4235 15.3634 51.4358 15.3243C51.4391 15.3124 51.4417 15.3003 51.4437 15.2881C51.4432 15.2852 51.4432 15.2822 51.4437 15.2793C51.4431 15.2767 51.4431 15.274 51.4437 15.2715C51.4437 15.2636 51.4437 15.2509 51.4349 15.2353C51.4231 15.1959 51.3986 15.1615 51.3652 15.1374C51.3341 15.1147 51.2967 15.1024 51.2582 15.1022Z" fill="#926ADB"/>
</svg>
