<svg width="64" height="65" viewBox="0 0 64 65" fill="none" xmlns="http://www.w3.org/2000/svg">
<g clip-path="url(#clip0_12388_268871)">
<path d="M32.0014 61.5581C47.7941 61.5581 60.5966 54.0382 60.5966 44.762C60.5966 35.4857 47.7941 27.9658 32.0014 27.9658C16.2088 27.9658 3.40625 35.4857 3.40625 44.762C3.40625 54.0382 16.2088 61.5581 32.0014 61.5581Z" fill="#F5F5F5"/>
<path d="M18.5614 13.5652L17.5861 14.1284C17.5911 14.0859 17.5937 14.0432 17.5938 14.0004V13.7188C17.5938 13.2158 17.2405 13.0122 16.8053 13.2631C16.6185 13.3789 16.4584 13.5329 16.3355 13.715C16.2651 13.0826 15.7685 12.8471 15.1656 13.1953C14.5154 13.5716 13.9867 14.4855 13.9867 15.2433V15.6657C13.9825 15.8345 14.0167 16.0022 14.0866 16.1559L13.2763 16.6231C13.1493 16.7064 13.0436 16.8183 12.9677 16.95C12.8919 17.0816 12.8481 17.2292 12.8398 17.3809C12.8398 17.6599 13.0357 17.7726 13.2763 17.6369L18.5614 14.5802C18.6885 14.4973 18.7942 14.3855 18.87 14.2541C18.9458 14.1227 18.9897 13.9753 18.9979 13.8238C19.0018 13.5396 18.8059 13.4282 18.5614 13.5652Z" fill="#F0F0F0"/>
<path d="M13.8434 10.3564L12.6428 11.0489C12.6493 10.9963 12.6527 10.9433 12.653 10.8902V10.5369C12.653 9.91867 12.2191 9.66779 11.6828 9.97755C11.4524 10.1191 11.255 10.3086 11.1042 10.5331C11.0172 9.75483 10.4066 9.46555 9.66421 9.89307C8.86293 10.3564 8.21269 11.4828 8.21269 12.4044V12.9241C8.20909 13.1322 8.25286 13.3383 8.34069 13.527L7.34357 14.103C7.18686 14.2051 7.05641 14.3426 6.96278 14.5045C6.86916 14.6664 6.815 14.8481 6.80469 15.0348C6.80469 15.3792 7.04661 15.5174 7.34357 15.3459L13.8485 11.5903C14.0054 11.4885 14.1361 11.351 14.2297 11.1891C14.3234 11.0271 14.3774 10.8453 14.3874 10.6585C14.3823 10.318 14.1416 10.1798 13.8434 10.3564Z" fill="#F0F0F0"/>
<path d="M51.8359 21.5838L56.3633 18.6846L58.3588 19.3246L51.8359 21.5838Z" fill="#926ADB"/>
<path d="M51.8359 21.5839L55.7489 18.3199L54.8798 17.3164L51.8359 21.5839Z" fill="#926ADB"/>
<path d="M55.7489 18.3193V19.0771L51.8359 21.5833L55.7489 18.3193Z" fill="#926ADB"/>
<path opacity="0.25" d="M55.7489 18.3193V19.0771L51.8359 21.5833L55.7489 18.3193Z" fill="black"/>
<path d="M56.4001 18.2571C56.3808 18.2571 56.362 18.2513 56.346 18.2404C56.3301 18.2295 56.3178 18.2141 56.3107 18.1961C56.3037 18.1782 56.3022 18.1585 56.3065 18.1397C56.3108 18.1209 56.3207 18.1038 56.3348 18.0907C56.469 17.9666 56.5927 17.8318 56.7047 17.6875C56.7121 17.6767 56.7216 17.6676 56.7326 17.6607C56.7436 17.6537 56.7559 17.6491 56.7688 17.647C56.7816 17.645 56.7948 17.6456 56.8074 17.6488C56.82 17.6519 56.8318 17.6577 56.8422 17.6656C56.8525 17.6735 56.8611 17.6834 56.8675 17.6948C56.8739 17.7061 56.8779 17.7186 56.8793 17.7316C56.8807 17.7445 56.8795 17.7576 56.8756 17.77C56.8718 17.7825 56.8655 17.794 56.8571 17.8039C56.7384 17.9569 56.6074 18.0999 56.4654 18.2315C56.4474 18.2476 56.4242 18.2567 56.4001 18.2571ZM57.1207 17.3009C57.1056 17.3012 57.0907 17.2976 57.0772 17.2907C57.066 17.2851 57.056 17.2773 57.0478 17.2679C57.0395 17.2584 57.0333 17.2474 57.0294 17.2355C57.0254 17.2236 57.0239 17.211 57.0249 17.1985C57.0258 17.186 57.0293 17.1738 57.035 17.1627C57.1468 16.9398 57.2326 16.7049 57.291 16.4625C57.2969 16.4377 57.3125 16.4163 57.3342 16.403C57.3559 16.3897 57.382 16.3855 57.4068 16.3915C57.4316 16.3974 57.453 16.4129 57.4663 16.4347C57.4797 16.4564 57.4838 16.4825 57.4779 16.5073C57.4175 16.764 57.3273 17.0127 57.2091 17.2484C57.2008 17.2646 57.1882 17.2782 57.1725 17.2875C57.1569 17.2968 57.1389 17.3014 57.1207 17.3009ZM57.4715 15.9479C57.4589 15.9475 57.4465 15.9445 57.435 15.9392C57.4235 15.9339 57.4132 15.9264 57.4047 15.9171C57.3961 15.9079 57.3895 15.897 57.3851 15.8851C57.3808 15.8733 57.3788 15.8607 57.3793 15.8481C57.3793 15.7956 57.3793 15.7444 57.3793 15.6932C57.3792 15.4955 57.3625 15.2981 57.3294 15.1031C57.3272 15.0907 57.3274 15.0779 57.3302 15.0656C57.3329 15.0533 57.338 15.0416 57.3453 15.0313C57.3526 15.0209 57.3618 15.0121 57.3724 15.0053C57.3831 14.9985 57.395 14.9939 57.4075 14.9918C57.4327 14.9877 57.4586 14.9937 57.4794 15.0086C57.5003 15.0235 57.5144 15.0459 57.5188 15.0711C57.5534 15.2767 57.571 15.4848 57.5713 15.6932C57.5713 15.747 57.5713 15.802 57.5713 15.8558C57.5708 15.8684 57.5678 15.8808 57.5625 15.8922C57.5573 15.9037 57.5498 15.914 57.5405 15.9226C57.5312 15.9311 57.5204 15.9378 57.5085 15.9421C57.4967 15.9465 57.4841 15.9485 57.4715 15.9479ZM57.2654 14.5643C57.2453 14.5642 57.2257 14.5579 57.2094 14.5462C57.1931 14.5345 57.1809 14.518 57.1745 14.499C57.0917 14.263 56.9876 14.0351 56.8635 13.818C56.8524 13.7961 56.8499 13.7708 56.8566 13.7471C56.8632 13.7234 56.8784 13.703 56.8993 13.69C56.9212 13.6786 56.9466 13.676 56.9704 13.6827C56.9941 13.6893 57.0145 13.7048 57.0273 13.7259C57.1571 13.9534 57.2655 14.1925 57.3511 14.4401C57.3562 14.4523 57.3587 14.4655 57.3584 14.4787C57.3582 14.4919 57.3552 14.505 57.3497 14.517C57.3441 14.529 57.3362 14.5397 57.3263 14.5485C57.3164 14.5573 57.3048 14.564 57.2923 14.5681C57.2828 14.5679 57.2733 14.5666 57.2641 14.5643H57.2654ZM56.5921 13.3342C56.5775 13.3341 56.5631 13.3308 56.5501 13.3243C56.537 13.3179 56.5255 13.3086 56.5166 13.2971C56.363 13.0984 56.1944 12.9118 56.0123 12.739C56.0006 12.7314 55.9907 12.7213 55.9832 12.7095C55.9758 12.6977 55.9711 12.6844 55.9693 12.6706C55.9675 12.6567 55.9688 12.6427 55.9731 12.6294C55.9773 12.6161 55.9844 12.6038 55.9938 12.5936C56.0032 12.5833 56.0148 12.5752 56.0277 12.5698C56.0406 12.5645 56.0545 12.562 56.0684 12.5625C56.0823 12.5631 56.096 12.5667 56.1084 12.5731C56.1208 12.5794 56.1317 12.5885 56.1403 12.5995C56.3296 12.7792 56.505 12.9731 56.6651 13.1793C56.6786 13.199 56.6842 13.2231 56.6809 13.2468C56.6776 13.2704 56.6655 13.292 56.6471 13.3073C56.6319 13.3224 56.6121 13.3318 56.5908 13.3342H56.5921ZM55.5899 12.3511C55.5691 12.3512 55.5488 12.3445 55.5323 12.3319C55.3306 12.1805 55.1199 12.0416 54.9012 11.9159C54.8803 11.9029 54.8652 11.8825 54.8588 11.8587C54.8523 11.835 54.8552 11.8097 54.8667 11.7879C54.8792 11.7666 54.8997 11.751 54.9236 11.7445C54.9475 11.7381 54.973 11.7413 54.9947 11.7534C55.22 11.8829 55.4371 12.0261 55.6449 12.1822C55.661 12.1943 55.6729 12.2111 55.6789 12.2304C55.6849 12.2496 55.6847 12.2702 55.6784 12.2893C55.672 12.3085 55.6598 12.3251 55.6434 12.3369C55.6271 12.3486 55.6075 12.355 55.5873 12.355L55.5899 12.3511ZM45.5303 11.9799C45.5091 11.9801 45.4885 11.9732 45.4716 11.9604C45.4547 11.9476 45.4425 11.9296 45.4369 11.9091C45.4314 11.8886 45.4328 11.8669 45.4409 11.8473C45.449 11.8277 45.4633 11.8113 45.4817 11.8007C45.7044 11.6727 45.9348 11.5524 46.1691 11.4411C46.1805 11.4357 46.1929 11.4326 46.2055 11.432C46.2181 11.4313 46.2307 11.4332 46.2426 11.4375C46.2545 11.4418 46.2655 11.4484 46.2748 11.4569C46.2841 11.4654 46.2917 11.4757 46.2971 11.4871C46.3026 11.4985 46.3059 11.5109 46.3066 11.5236C46.3073 11.5363 46.3054 11.549 46.3011 11.5609C46.2968 11.5728 46.2902 11.5838 46.2816 11.5931C46.2729 11.6024 46.2625 11.6099 46.251 11.6151C46.0219 11.7239 45.7953 11.8417 45.5777 11.9671C45.5629 11.9757 45.5461 11.9801 45.5291 11.9799H45.5303ZM54.3828 11.6356C54.3687 11.6359 54.3546 11.6328 54.3419 11.6267C54.114 11.5166 53.8798 11.4155 53.6443 11.3246C53.632 11.3201 53.6208 11.3131 53.6114 11.3042C53.6019 11.2952 53.5944 11.2844 53.5892 11.2724C53.5841 11.2604 53.5814 11.2475 53.5814 11.2345C53.5814 11.2215 53.5841 11.2086 53.5892 11.1966C53.5937 11.1843 53.6007 11.1732 53.6096 11.1637C53.6186 11.1542 53.6294 11.1467 53.6414 11.1416C53.6534 11.1364 53.6663 11.1337 53.6793 11.1337C53.6923 11.1337 53.7052 11.1364 53.7172 11.1415C53.9566 11.2337 54.1959 11.3374 54.4289 11.45C54.4481 11.4597 54.4636 11.4756 54.4727 11.4951C54.4818 11.5145 54.4842 11.5365 54.4793 11.5575C54.4744 11.5785 54.4626 11.5972 54.4458 11.6107C54.429 11.6242 54.4082 11.6316 54.3867 11.6318L54.3828 11.6356ZM46.7963 11.3796C46.777 11.3793 46.7582 11.3733 46.7422 11.3624C46.7263 11.3514 46.7139 11.3361 46.7067 11.3182C46.7015 11.3062 46.6989 11.2933 46.6989 11.2803C46.6989 11.2672 46.7015 11.2543 46.7067 11.2424C46.7118 11.2304 46.7194 11.2196 46.7288 11.2106C46.7383 11.2016 46.7495 11.1947 46.7617 11.1902C47.0011 11.0967 47.2481 11.011 47.4951 10.9342C47.5196 10.9269 47.5459 10.9296 47.5684 10.9417C47.5908 10.9538 47.6075 10.9744 47.6148 10.9988C47.6221 11.0233 47.6194 11.0496 47.6073 11.0721C47.5952 11.0945 47.5746 11.1112 47.5502 11.1185C47.3083 11.1902 47.0663 11.2747 46.8321 11.3655C46.8207 11.3701 46.8085 11.3723 46.7963 11.3719V11.3796ZM53.0683 11.1236C53.059 11.1255 53.0494 11.1255 53.0401 11.1236C52.7995 11.0507 52.5524 10.9867 52.3054 10.9329C52.2927 10.9299 52.2807 10.9244 52.2702 10.9167C52.2596 10.9091 52.2506 10.8994 52.2438 10.8883C52.23 10.8659 52.2257 10.8389 52.2318 10.8132C52.2379 10.7876 52.2539 10.7654 52.2764 10.7516C52.2988 10.7378 52.3258 10.7335 52.3515 10.7396C52.6075 10.7947 52.8558 10.8599 53.1015 10.9355C53.1137 10.9391 53.125 10.9451 53.1348 10.9532C53.1445 10.9612 53.1526 10.9711 53.1586 10.9823C53.1645 10.9935 53.1682 11.0057 53.1694 11.0183C53.1706 11.031 53.1693 11.0437 53.1655 11.0558C53.1593 11.0754 53.1471 11.0925 53.1305 11.1047C53.1139 11.1169 53.0939 11.1235 53.0734 11.1236H53.0683ZM48.1403 10.9559C48.1186 10.9559 48.0976 10.9486 48.0806 10.9351C48.0636 10.9216 48.0517 10.9028 48.0468 10.8817C48.0415 10.8568 48.0461 10.8307 48.0597 10.8092C48.0734 10.7876 48.095 10.7723 48.1198 10.7665C48.3694 10.7089 48.6254 10.6603 48.8814 10.6231C48.8943 10.6203 48.9076 10.6201 48.9205 10.6226C48.9334 10.6252 48.9457 10.6303 48.9566 10.6378C48.9674 10.6452 48.9766 10.6549 48.9836 10.666C48.9906 10.6772 48.9952 10.6897 48.9971 10.7028C48.9991 10.7158 48.9983 10.7291 48.9949 10.7418C48.9914 10.7545 48.9854 10.7664 48.9772 10.7767C48.969 10.787 48.9588 10.7955 48.9471 10.8017C48.9355 10.8079 48.9227 10.8116 48.9095 10.8126C48.6535 10.8497 48.4078 10.8971 48.162 10.9547L48.1403 10.9559ZM51.7012 10.8087H51.6871C51.4375 10.7716 51.1828 10.7447 50.9307 10.7281C50.9173 10.7285 50.904 10.726 50.8916 10.721C50.8793 10.7159 50.8681 10.7083 50.8588 10.6987C50.8496 10.689 50.8424 10.6776 50.8379 10.665C50.8333 10.6524 50.8314 10.6391 50.8323 10.6257C50.8332 10.6124 50.8368 10.5994 50.8431 10.5875C50.8493 10.5757 50.8579 10.5653 50.8683 10.557C50.8788 10.5487 50.8909 10.5426 50.9038 10.5392C50.9168 10.5359 50.9303 10.5352 50.9435 10.5374C51.1995 10.554 51.4555 10.5809 51.7115 10.618C51.7351 10.6219 51.7565 10.6345 51.7713 10.6534C51.7862 10.6722 51.7934 10.6959 51.7916 10.7198C51.7899 10.7437 51.7792 10.7661 51.7618 10.7826C51.7443 10.799 51.7214 10.8084 51.6974 10.8087H51.7012ZM49.5355 10.7396C49.51 10.7406 49.4852 10.7315 49.4665 10.7142C49.4477 10.6969 49.4366 10.6729 49.4356 10.6475C49.4346 10.622 49.4437 10.5972 49.461 10.5785C49.4783 10.5597 49.5023 10.5486 49.5278 10.5476C49.7838 10.5271 50.0462 10.5156 50.3035 10.5156C50.3289 10.5156 50.3533 10.5257 50.3713 10.5437C50.3894 10.5617 50.3995 10.5862 50.3995 10.6116C50.3995 10.6371 50.3894 10.6615 50.3713 10.6795C50.3533 10.6975 50.3289 10.7076 50.3035 10.7076C50.0475 10.7076 49.7915 10.7191 49.5431 10.7396H49.5355Z" fill="#E0E0E0"/>
<path d="M15.2891 37.056L47.1255 24.6973L48.4001 25.1916C48.5739 25.2682 48.7187 25.371 48.8228 25.492C48.9268 25.613 48.9872 25.7487 48.9992 25.8882V41.6817C48.9876 41.8213 48.9273 41.9571 48.8232 42.0781C48.7192 42.1991 48.5742 42.302 48.4001 42.3783L17.7619 54.2716C17.5768 54.3344 17.3724 54.3671 17.1652 54.3671C16.9579 54.3671 16.7535 54.3344 16.5684 54.2716L15.8929 54.01C15.7191 53.9335 15.5743 53.8306 15.4703 53.7096C15.3662 53.5886 15.3058 53.4529 15.2938 53.3134L15.2891 37.056Z" fill="#926ADB"/>
<path opacity="0.2" d="M15.2891 37.056L47.1255 24.6973L48.4001 25.1916C48.5739 25.2682 48.7187 25.371 48.8228 25.492C48.9268 25.613 48.9872 25.7487 48.9992 25.8882V41.6817C48.9876 41.8213 48.9273 41.9571 48.8232 42.0781C48.7192 42.1991 48.5742 42.302 48.4001 42.3783L17.7619 54.2716C17.5768 54.3344 17.3724 54.3671 17.1652 54.3671C16.9579 54.3671 16.7535 54.3344 16.5684 54.2716L15.8929 54.01C15.7191 53.9335 15.5743 53.8306 15.4703 53.7096C15.3662 53.5886 15.3058 53.4529 15.2938 53.3134L15.2891 37.056Z" fill="black"/>
<path d="M46.9512 23.308L47.0801 23.2599L46.586 23.0673C46.5444 23.0505 46.5004 23.0365 46.4547 23.0256L32.4437 19.533C32.2509 19.4907 32.0432 19.4903 31.85 19.5318C31.6568 19.5733 31.4879 19.6545 31.3672 19.7641L15.6948 35.1548C15.4497 35.4197 15.31 35.7226 15.2891 36.0344V37.0552L15.7664 37.2462L47.1159 24.6964V23.674C47.1133 23.544 47.0563 23.4172 46.9512 23.308Z" fill="#926ADB"/>
<path opacity="0.1" d="M32.0158 19.8402C31.9534 19.873 31.8987 19.912 31.8535 19.9558L16.1787 35.3464C16.05 35.4826 15.9518 35.6308 15.8875 35.7862L15.4102 35.5968C15.4455 35.5176 15.4877 35.4399 15.5367 35.3641C15.5581 35.332 15.5796 35.3015 15.6035 35.271L15.6154 35.2566C15.6403 35.2243 15.6682 35.1932 15.699 35.1635L31.3713 19.7728C31.3949 19.75 31.4213 19.7285 31.4501 19.7086L31.5336 19.6572L32.0158 19.8402Z" fill="black"/>
<path opacity="0.35" d="M47.0714 23.2581C47.0291 23.2408 46.9843 23.2262 46.9378 23.2147L32.9243 19.7222C32.7703 19.6877 32.6057 19.6803 32.4462 19.7005C32.2866 19.7207 32.1374 19.768 32.0125 19.8378L31.5352 19.6484C31.661 19.5792 31.8106 19.5324 31.9703 19.5122C32.13 19.492 32.2947 19.4991 32.4493 19.5328L46.4604 23.0237C46.5062 23.0353 46.5501 23.0498 46.5917 23.0671L47.0714 23.2581Z" fill="white"/>
<path d="M15.6172 35.2493C15.6428 35.2173 15.6709 35.1863 15.7014 35.1562C15.6709 35.1863 15.6428 35.2173 15.6172 35.2493Z" fill="#926ADB"/>
<path d="M31.4453 19.7004L31.5305 19.6484L31.4453 19.7004Z" fill="#926ADB"/>
<path d="M15.3945 35.595C15.4299 35.5159 15.4721 35.4381 15.521 35.3623C15.4721 35.4381 15.4299 35.5159 15.3945 35.595Z" fill="#926ADB"/>
<path d="M15.5312 35.3558C15.5529 35.3237 15.5746 35.2932 15.5986 35.2627C15.5746 35.2932 15.5529 35.3237 15.5312 35.3558Z" fill="#926ADB"/>
<path opacity="0.2" d="M15.5938 35.2633C15.5968 35.2579 15.6008 35.2528 15.6057 35.248C15.6008 35.2528 15.5968 35.2579 15.5938 35.2633Z" fill="black"/>
<path opacity="0.2" d="M31.3711 19.7634C31.3955 19.7409 31.422 19.7195 31.4505 19.6992C31.4209 19.7188 31.3943 19.7403 31.3711 19.7634Z" fill="black"/>
<path d="M31.8476 19.9533L16.1729 35.344C15.9296 35.6094 15.7908 35.9121 15.7695 36.2235V37.2459L47.6059 24.8872V23.8664C47.5946 23.7279 47.5257 23.5943 47.4072 23.4808C47.2886 23.3673 47.1251 23.2785 46.9352 23.2243L32.9217 19.7238C32.7297 19.6804 32.5221 19.6793 32.329 19.7206C32.1359 19.7618 31.9673 19.8433 31.8476 19.9533Z" fill="#926ADB"/>
<path opacity="0.05" d="M47.6113 23.8634C47.605 23.7354 47.5463 23.611 47.4419 23.5039L15.8871 35.784C15.8201 35.9253 15.7831 36.0723 15.7773 36.2206V37.243L47.6137 24.8842L47.6113 23.8634Z" fill="black"/>
<path d="M46.2565 16.7524C46.2629 16.7095 46.2526 16.6663 46.2267 16.6269C46.2007 16.5875 46.16 16.5533 46.1085 16.5277L45.1347 16.1505C45.0759 16.1327 45.0111 16.1257 44.9469 16.1302C44.8828 16.1347 44.8216 16.1506 44.7695 16.1762L18.6569 26.3184C18.5061 26.3842 18.3807 26.473 18.2907 26.5776C18.2007 26.6822 18.1487 26.7996 18.1389 26.9203V47.9462C18.1318 47.9893 18.142 48.0329 18.1685 48.0724C18.1949 48.1119 18.2366 48.146 18.2893 48.1709L19.2584 48.5481C19.3171 48.5658 19.3817 48.5729 19.4457 48.5687C19.5098 48.5645 19.5711 48.5491 19.6236 48.5241L45.741 38.3883C45.891 38.3221 46.0158 38.2331 46.1053 38.1286C46.1949 38.0241 46.2467 37.9068 46.2565 37.7864V16.7524Z" fill="#F0F0F0"/>
<path d="M19.621 48.5326L45.736 38.3888C45.8861 38.3226 46.0109 38.2337 46.1004 38.1291C46.19 38.0246 46.2418 37.9074 46.2516 37.7869V16.7529C46.2516 16.5314 46.0129 16.4416 45.736 16.5523L19.621 26.6945C19.471 26.7607 19.3462 26.8496 19.2567 26.9542C19.1671 27.0587 19.1153 27.1759 19.1055 27.2964V48.3224C19.1055 48.5487 19.337 48.6385 19.621 48.5326Z" fill="#FAFAFA"/>
<path d="M38.061 30.0145C38.0285 30.319 37.9428 30.6201 37.8056 30.9116C37.6829 31.1736 37.5179 31.4261 37.3134 31.6647C37.1366 31.8736 36.9211 32.0672 36.6718 32.2409C36.4656 32.386 36.2246 32.5077 35.9584 32.601C35.6687 32.7267 35.3218 32.7819 34.9772 32.7574C34.7767 32.7301 34.5971 32.6573 34.4694 32.5516C34.3947 32.6586 34.3168 32.7656 34.2358 32.8726C34.1486 32.9869 34.0442 33.0951 33.9243 33.1956C33.7898 33.3102 33.6362 33.4144 33.4664 33.5063C33.2608 33.6191 33.036 33.7158 32.7967 33.7944C32.5416 33.8941 32.2427 33.9333 31.9494 33.9055C31.6917 33.8672 31.4677 33.7628 31.3264 33.6154C31.1331 33.417 31.0048 33.1941 30.9495 32.9611C30.8671 32.6362 30.8389 32.3064 30.8654 31.9775C30.8862 31.6149 30.9539 31.2542 31.0678 30.8993C31.1714 30.58 31.3205 30.2679 31.5133 29.9672C31.683 29.7038 31.9074 29.4572 32.1799 29.2346C32.4148 29.0391 32.7086 28.8779 33.0428 28.7614C33.1537 28.7097 33.2794 28.6734 33.4121 28.6547C33.5449 28.6359 33.682 28.6351 33.8153 28.6523C33.9855 28.7026 34.1257 28.7887 34.214 28.8972V28.7861C34.2211 28.6923 34.2605 28.6008 34.3293 28.5186C34.3834 28.4427 34.47 28.379 34.5785 28.3354L35.2451 28.1112C35.2813 28.0953 35.3247 28.0883 35.3679 28.0913C35.4111 28.0943 35.4514 28.1071 35.4818 28.1276C35.5175 28.156 35.544 28.1889 35.5595 28.2243C35.5751 28.2597 35.5794 28.2968 35.5722 28.3334L35.4226 30.9487C35.4102 31.1462 35.4662 31.2758 35.5908 31.3376C35.6563 31.3674 35.734 31.3834 35.8136 31.3834C35.8931 31.3834 35.9708 31.3674 36.0363 31.3376C36.2318 31.2645 36.3893 31.154 36.488 31.0207C36.638 30.8236 36.7219 30.6074 36.734 30.3869C36.7652 30.1585 36.787 29.924 36.8026 29.6812C36.8182 29.4384 36.8182 29.2141 36.8026 29.0083C36.7947 28.639 36.7109 28.2721 36.5534 27.9177C36.4555 27.6679 36.2368 27.4461 35.9304 27.286C35.624 27.1504 35.2509 27.0967 34.8869 27.1358C34.3537 27.1909 33.8392 27.3072 33.3667 27.4795C32.8688 27.6494 32.4147 27.8703 32.021 28.1338C31.6171 28.4075 31.2656 28.713 30.9744 29.0433C30.6722 29.3919 30.4278 29.7609 30.2455 30.1441C30.0542 30.5396 29.9197 30.946 29.8437 31.3581C29.8218 31.4713 29.8032 31.6153 29.7876 31.7944C29.772 31.9734 29.7595 32.1586 29.7471 32.352C29.7346 32.5454 29.7253 32.7327 29.7191 32.9137C29.7128 33.0948 29.7191 33.2368 29.7191 33.3458C29.7329 33.678 29.8233 34.0069 29.9869 34.3212C30.105 34.5643 30.3202 34.7818 30.6099 34.9508C30.8844 35.1012 31.2315 35.1815 31.5881 35.1772C32.0507 35.1669 32.5028 35.0829 32.9057 34.9323C33.2218 34.8267 33.5267 34.7071 33.8184 34.5743C34.0585 34.4644 34.2865 34.3434 34.5006 34.2121C34.6789 34.0992 34.8474 33.9796 35.0052 33.8541C35.1454 33.7368 35.2731 33.6236 35.3884 33.5125C35.5036 33.4014 35.5628 33.3417 35.622 33.2944C35.6825 33.2433 35.7604 33.2024 35.8494 33.1751L36.7839 32.8541C36.8189 32.8367 36.8616 32.8273 36.9054 32.8273C36.9492 32.8273 36.9918 32.8367 37.0269 32.8541C37.0954 32.8911 37.1234 32.9631 37.1079 33.0742C37.0974 33.1468 37.0634 33.2169 37.0082 33.28C36.8182 33.5125 36.6032 33.7594 36.3665 34.0166C36.1187 34.2841 35.8374 34.5374 35.5254 34.7739C35.1736 35.0367 34.7892 35.2797 34.376 35.5002C33.8935 35.7554 33.3714 35.9761 32.8185 36.1587C32.2281 36.3836 31.5594 36.5034 30.8778 36.5064C30.3663 36.4965 29.8774 36.365 29.501 36.136C29.1039 35.8762 28.8153 35.553 28.6631 35.1977C28.4611 34.7594 28.3562 34.304 28.3516 33.8458C28.3516 33.7347 28.3516 33.5825 28.3516 33.389C28.3516 33.1977 28.3671 32.996 28.3796 32.7862C28.3921 32.5763 28.4076 32.3746 28.4232 32.1853C28.4388 31.996 28.4544 31.8438 28.4699 31.7347C28.5483 31.1891 28.709 30.6501 28.9496 30.1256C29.1929 29.5821 29.525 29.0577 29.9402 28.5618C30.3505 28.0695 30.8529 27.6133 31.4354 27.2037C32.0038 26.7989 32.6754 26.4632 33.4197 26.2119C34.0912 25.9562 34.8424 25.8056 35.6158 25.7716C36.1437 25.7576 36.6598 25.8776 37.058 26.107C37.4572 26.3677 37.7332 26.6994 37.8523 27.0618C38.0265 27.5229 38.1185 27.996 38.1265 28.4713C38.1265 28.677 38.1265 28.926 38.1046 29.2099C38.0828 29.4939 38.0891 29.7779 38.061 30.0145ZM32.2111 31.5207C32.1568 31.8119 32.2213 32.1075 32.398 32.3767C32.5444 32.5454 32.7686 32.5824 33.0677 32.4775C33.408 32.3532 33.6682 32.1513 33.7997 31.9096C33.9878 31.5806 34.087 31.2324 34.0925 30.8808C34.1446 30.5872 34.0824 30.2898 33.9119 30.0166C33.7686 29.8437 33.5381 29.8108 33.2234 29.9178C32.8892 30.0455 32.6359 30.2486 32.5101 30.4898C32.3223 30.8168 32.2212 31.1628 32.2111 31.5125V31.5207Z" fill="#926ADB"/>
<path d="M19.1078 48.3264C19.1031 48.3656 19.1116 48.405 19.1327 48.4417C19.1538 48.4784 19.1869 48.5114 19.2296 48.5383L18.2915 48.1755C18.2384 48.1507 18.1962 48.1168 18.1693 48.0773C18.1425 48.0377 18.1319 47.9941 18.1387 47.9508V26.9249C18.1446 26.8039 18.1973 26.6861 18.2915 26.583L19.2606 26.9586C19.1663 27.0622 19.1136 27.1806 19.1078 27.3021V48.3264Z" fill="#E0E0E0"/>
<path d="M48.1889 41.8915C48.1794 41.9029 48.1682 41.9137 48.1555 41.9236L34.8867 39.102C34.383 38.9525 33.8159 38.9302 33.2897 39.0393C32.7635 39.1484 32.3135 39.3815 32.0224 39.6958L17.8371 53.8683L17.312 54.0721C17.2535 54.0996 17.1858 54.1167 17.1149 54.1221C17.044 54.1274 16.9723 54.1207 16.9062 54.1026L31.4926 39.4968C31.7847 39.1832 32.2345 38.9506 32.7602 38.8414C33.2859 38.7321 33.8525 38.7533 34.3568 38.9013L48.1889 41.8915Z" fill="#926ADB"/>
<path opacity="0.4" d="M30.7144 41.0791L30.7478 41.0598L17.8371 53.868L17.312 54.0718C17.2533 54.0989 17.1856 54.1158 17.1148 54.1211C17.044 54.1264 16.9724 54.12 16.9062 54.1023L30.2036 40.8672L30.7144 41.0791Z" fill="white"/>
<path opacity="0.4" d="M48.1876 41.8911C48.1781 41.9025 48.1669 41.9133 48.1542 41.9232L34.8855 39.1015C34.3818 38.9517 33.8146 38.9293 33.2882 39.0384C32.7619 39.1475 32.312 39.3809 32.0212 39.6954L31.4961 39.49C31.7886 39.1767 32.2389 38.9447 32.7648 38.8363C33.2907 38.7278 33.857 38.7502 34.3604 38.8993L48.1876 41.8911Z" fill="white"/>
<path d="M48.9799 25.7886C48.9512 25.673 48.8605 25.6409 48.7412 25.6955C48.6822 25.7251 48.6306 25.7609 48.5884 25.8014L48.5216 25.864L35.4295 39.2468L33.4746 41.0782C33.3488 41.1849 33.182 41.2665 32.9924 41.3143C32.8027 41.3621 32.5973 41.3742 32.3981 41.3494L30.7106 41.0798L17.8214 37.8922C17.7347 37.8803 17.6454 37.8803 17.5588 37.8922C17.5252 37.8967 17.4923 37.9037 17.4609 37.913L17.9383 37.7236L30.2881 40.7732L31.9136 41.1632C32.1127 41.1884 32.3184 41.1764 32.5081 41.1286C32.6979 41.0808 32.8646 40.999 32.9901 40.892L34.9449 39.0622L48.1015 25.6169C48.1416 25.5802 48.1919 25.5492 48.2495 25.5254L47.1109 25.084L47.5883 24.8994L48.376 25.2044C48.5294 25.2698 48.6618 25.3552 48.7655 25.4556C48.8692 25.5559 48.9421 25.6691 48.9799 25.7886Z" fill="#926ADB"/>
<path opacity="0.4" d="M35.4376 39.2465L33.4828 41.0779C33.3569 41.1846 33.1902 41.2662 33.0005 41.314C32.8109 41.3618 32.6054 41.3739 32.4063 41.3491L30.7188 41.0795L30.7522 41.0602L30.8333 40.9735L31.9385 41.1501C32.1376 41.1753 32.3432 41.1633 32.533 41.1155C32.7228 41.0677 32.8894 40.9858 33.0149 40.8788L34.9507 39.0684L35.4376 39.2465Z" fill="white"/>
<path opacity="0.1" d="M48.3916 25.1897L47.6039 24.8848L47.1265 25.0693L48.265 25.5107C48.207 25.5342 48.1567 25.5653 48.1171 25.6022L34.9605 39.0476L34.9414 39.0652L35.4188 39.2434L48.5109 25.859L48.5777 25.7964C48.6199 25.7559 48.6715 25.7201 48.7305 25.6905C48.8474 25.6359 48.9381 25.668 48.9692 25.7836C48.9363 25.6638 48.8683 25.5496 48.7691 25.4476C48.67 25.3457 48.5416 25.258 48.3916 25.1897Z" fill="black"/>
<path d="M18.1023 38.1465L15.293 37.0566V53.314C15.3049 53.4535 15.3653 53.5892 15.4694 53.7102C15.5734 53.8312 15.7182 53.9341 15.8921 54.0106L16.5676 54.2722C16.7526 54.335 16.957 54.3677 17.1643 54.3677C17.3716 54.3677 17.576 54.335 17.761 54.2722L18.0976 54.1422L18.1023 38.1465Z" fill="#926ADB"/>
<path opacity="0.15" d="M18.1023 38.1465L15.293 37.0566V53.314C15.3049 53.4535 15.3653 53.5892 15.4694 53.7102C15.5734 53.8312 15.7182 53.9341 15.8921 54.0106L16.5676 54.2722C16.7526 54.335 16.957 54.3677 17.1643 54.3677C17.3716 54.3677 17.576 54.335 17.761 54.2722L18.0976 54.1422L18.1023 38.1465Z" fill="black"/>
<path d="M49.0021 25.8886V41.6805C48.9946 41.8251 48.9304 41.9657 48.816 42.0882C48.727 42.1916 48.6076 42.2817 48.4651 42.3531L48.4412 42.3611C48.429 42.3675 48.4163 42.3734 48.403 42.3787L17.7649 54.272C17.7063 54.3 17.6382 54.3176 17.5669 54.3233C17.4955 54.3289 17.4233 54.3223 17.3567 54.3041C17.3059 54.2842 17.263 54.2563 17.2318 54.2227C17.2006 54.1891 17.1821 54.151 17.1777 54.1115C17.1751 54.0875 17.1751 54.0634 17.1777 54.0393V38.2458C17.1724 38.1892 17.1876 38.1326 17.222 38.0809C17.2563 38.0292 17.3089 37.9838 17.3751 37.9488C17.4413 37.9137 17.5192 37.89 17.6021 37.8797C17.6849 37.8694 17.7703 37.8727 17.8508 37.8895L30.74 41.0771L32.4275 41.3467C32.6267 41.3715 32.8321 41.3594 33.0218 41.3116C33.2115 41.2638 33.3782 41.1822 33.504 41.0754L35.4589 39.2441L48.551 25.8613L48.6178 25.7987C48.8207 25.5933 49.0021 25.6318 49.0021 25.8886Z" fill="#926ADB"/>
<path d="M48.3983 42.3785L48.4389 42.3608L48.4604 42.3512C48.6034 42.2809 48.7229 42.1912 48.8113 42.088C48.9241 41.9674 48.9883 41.8291 48.9974 41.6867L35.4375 39.2471L44.5077 43.884L48.3983 42.3785Z" fill="#926ADB"/>
<path opacity="0.2" d="M48.3983 42.3785L48.4389 42.3608L48.4604 42.3512C48.6034 42.2809 48.7229 42.1912 48.8113 42.088C48.9241 41.9674 48.9883 41.8291 48.9974 41.6867L35.4375 39.2471L44.5077 43.884L48.3983 42.3785Z" fill="black"/>
<path d="M17.1589 54.0394C17.1502 54.0908 17.163 54.1429 17.1959 54.1897C17.2288 54.2365 17.2805 54.2762 17.3451 54.3042C17.4114 54.3228 17.4837 54.3297 17.555 54.3244C17.6264 54.319 17.6946 54.3016 17.7533 54.2737L28.3057 50.1761L30.7165 41.0771L17.1589 53.7762V54.0394Z" fill="#926ADB"/>
<path opacity="0.15" d="M32.015 39.6848L17.3451 54.3034C17.2805 54.2754 17.2288 54.2357 17.1959 54.1889C17.163 54.1421 17.1502 54.09 17.1589 54.0386V53.777L31.4803 39.4922L32.015 39.6848Z" fill="black"/>
<path d="M48.8108 42.0885C48.7224 42.1918 48.6029 42.2814 48.4599 42.3517L48.4385 42.3614L17.7597 54.2723C17.7011 54.3002 17.6329 54.3176 17.5615 54.3229C17.4901 54.3283 17.4179 54.3214 17.3516 54.3028L32.0238 39.6826C32.3176 39.3667 32.7708 39.1327 33.3004 39.0233C33.8299 38.914 34.4004 38.9366 34.9072 39.0871L48.8108 42.0885Z" fill="#926ADB"/>
<path opacity="0.15" d="M15.4012 35.5938L15.8786 35.7831C15.811 35.9255 15.7732 36.0735 15.7664 36.2229V37.2437L15.2891 37.0543V36.0319C15.296 35.8831 15.3338 35.7356 15.4012 35.5938Z" fill="black"/>
<path d="M17.9583 37.7157L17.4714 37.9051L16.9797 37.7141L15.7695 37.2454L16.2397 37.0576L17.9583 37.7157Z" fill="#926ADB"/>
<path opacity="0.1" d="M17.987 37.7221L16.2469 37.0576L15.7695 37.2454L16.9797 37.7141L17.4714 37.9051L17.5645 37.8858C17.6511 37.8739 17.7404 37.8739 17.827 37.8858L18.8248 38.1378L30.0694 40.9225L30.246 40.7476L17.987 37.7221Z" fill="black"/>
</g>
<defs>
<clipPath id="clip0_12388_268871">
<rect width="64" height="64" fill="white" transform="translate(0 0.5)"/>
</clipPath>
</defs>
</svg>
