<svg width="266" height="200" viewBox="0 0 266 200" fill="none" xmlns="http://www.w3.org/2000/svg">
<path d="M128.434 192.047L9.20134 121.588C5.4067 119.452 2.14941 115.922 5.85118 113.66L125.508 44.6668C127.306 43.5523 130.033 42.8225 131.857 43.884L257.014 116.586C260.809 118.788 261.492 124.945 257.677 127.154L144.15 191.935C141.766 193.318 139.063 194.056 136.307 194.075C133.551 194.095 130.837 193.396 128.434 192.047Z" fill="#FFD24C"/>
<path d="M134.06 159.6C176.941 159.6 211.704 143.089 211.704 122.722C211.704 102.355 176.941 85.8438 134.06 85.8438C91.1779 85.8438 56.4154 102.355 56.4154 122.722C56.4154 143.089 91.1779 159.6 134.06 159.6Z" fill="#FFF2CC"/>
<path d="M131.731 145.064C143.91 145.064 153.782 142.114 153.782 138.476C153.782 134.838 143.91 131.889 131.731 131.889C119.552 131.889 109.68 134.838 109.68 138.476C109.68 142.114 119.552 145.064 131.731 145.064Z" fill="#94A7DD"/>
<path d="M138.936 129.189C138.902 127.199 138.856 125.295 138.936 125.209C139.015 125.123 135.711 125.547 135.711 125.547C135.711 125.547 135.672 126.211 135.619 127.046C135.478 127.212 135.397 127.42 135.386 127.637C135.254 129.766 135.055 131.896 134.909 134.025C134.67 136.173 134.613 138.336 134.736 140.494C134.889 142.039 136.063 143.811 137.848 142.756C138.342 142.41 138.751 141.955 139.042 141.425C139.333 140.896 139.499 140.307 139.526 139.704C139.758 136.274 139.314 132.626 138.936 129.189Z" fill="#FCBF81"/>
<path d="M124.812 126.649C124.812 126.649 125.561 130.536 123.896 132.268C122.231 133.999 119.253 135.976 118.277 137.078C117.302 138.179 118.941 138.696 120.931 138.404C122.921 138.112 124.407 136.281 126.371 136.507C128.334 136.733 129.024 135.751 129.097 134.006C129.17 132.261 128.845 129.362 129.217 125.959" fill="#FCBF81"/>
<path d="M121.356 83.3496C121.356 83.3496 120.526 126.471 121.754 127.174C122.981 127.877 130.338 128.706 131.705 127.731L130.219 83.9467L121.356 83.3496Z" fill="#68E1FD"/>
<path d="M126.338 83.9865C126.338 83.9865 132.826 127.685 134.152 128.255C135.479 128.826 141.45 128.295 143.002 127.18L135.632 83.3496L126.338 83.9865Z" fill="#68E1FD"/>
<path d="M147.872 75.7595C148.535 76.078 149.198 76.4229 149.948 76.6816C151.207 76.7153 152.467 76.6821 153.723 76.5821C154.241 76.4568 154.777 76.4165 155.308 76.4627C155.411 76.4597 155.512 76.4804 155.605 76.5232C155.698 76.566 155.78 76.6297 155.844 76.7094C155.908 76.789 155.953 76.8825 155.975 76.9824C155.998 77.0823 155.996 77.186 155.972 77.2853C155.889 77.5224 155.743 77.7327 155.55 77.8939C155.358 78.055 155.125 78.1611 154.877 78.2008C154.466 78.307 154.048 78.3998 153.63 78.4861C154.825 79.0573 156.06 79.5406 157.325 79.9323C158.128 80.1977 157.796 81.478 156.993 81.206L156.131 80.9141C156.611 81.1915 157.076 81.4949 157.524 81.823C158.068 82.2277 157.809 83.2957 157.033 83.0304C155.989 82.6801 154.973 82.2499 153.995 81.7434C154.601 82.1856 155.22 82.5947 155.852 82.9707C156.569 83.4151 155.925 84.5628 155.189 84.1183C154.304 83.5699 153.44 82.9861 152.595 82.367C152.794 82.7318 152.993 83.0967 153.179 83.4748C153.557 84.2311 152.429 84.9144 152.051 84.1382C151.673 83.3621 151.295 82.6987 150.877 82.0087L150.791 81.9756C148.685 80.9849 146.602 79.95 144.541 78.8709C143.792 78.4795 144.442 77.3318 145.205 77.7232L146.16 78.2141C146.18 78.1127 146.22 78.0164 146.279 77.9309C146.337 77.8454 146.411 77.7725 146.498 77.7165C146.433 77.6204 146.394 77.5087 146.385 77.3927C146.376 77.2767 146.398 77.1605 146.449 77.0557C146.499 76.9508 146.576 76.8611 146.672 76.7954C146.768 76.7298 146.88 76.6905 146.996 76.6816C146.925 76.5578 146.895 76.4142 146.912 76.2723C146.929 76.1304 146.991 75.9977 147.09 75.8941C147.188 75.7904 147.318 75.7214 147.458 75.6971C147.599 75.6729 147.744 75.6948 147.872 75.7595Z" fill="#FCBF81"/>
<path d="M153.245 79.169C152.502 79.9518 151.6 80.7346 150.439 80.4958C150.394 80.484 150.356 80.4559 150.331 80.4172C150.306 80.3785 150.296 80.3318 150.303 80.2863C150.311 80.2408 150.335 80.1997 150.371 80.171C150.407 80.1423 150.453 80.128 150.499 80.131C151.527 80.33 152.303 79.6069 152.953 78.9236C153.146 78.771 153.431 78.9965 153.245 79.169Z" fill="#6D320B"/>
<path d="M154.054 79.972C155.049 80.3663 156.066 80.703 157.099 80.9803C157.272 81.0268 157.225 81.2988 157.053 81.2523C155.997 80.9673 154.958 80.6218 153.942 80.2174C153.776 80.1577 153.908 79.9056 154.054 79.972Z" fill="#6D320B"/>
<path d="M153.444 81.2789C154.576 81.9617 155.794 82.4904 157.066 82.8511C157.239 82.8975 157.192 83.1762 157.02 83.1231C155.725 82.7567 154.484 82.219 153.331 81.5243C153.179 81.4248 153.292 81.186 153.444 81.2789Z" fill="#6D320B"/>
<path d="M152.071 81.982C152.93 82.6418 153.852 83.2151 154.824 83.6936C154.983 83.7732 154.87 84.0253 154.711 83.9457C153.719 83.458 152.776 82.8736 151.898 82.2009C151.752 82.0882 151.918 81.8759 152.071 81.982Z" fill="#6D320B"/>
<path d="M153.146 68.323C153.61 67.0758 154.028 65.8153 154.439 64.535C155.114 62.731 155.585 60.8575 155.846 58.9492C155.514 58.0602 154.32 57.3769 153.477 57.1779C152.416 56.9258 151.335 57.3769 150.26 57.357C148.86 57.357 147.752 56.7799 146.452 56.4084C145.1 56.0708 143.679 56.1377 142.365 56.6007C141.164 57.0258 139.876 57.1423 138.618 56.9394C137.36 56.7365 136.174 56.2209 135.167 55.4398C133.973 54.4911 133.051 53.7216 131.545 53.3236C129.223 52.7132 126.822 53.1444 125.296 55.1015C123.916 56.8661 123.611 59.1814 125.084 60.9858C125.873 61.8249 126.906 62.3956 128.036 62.6178C129.058 62.9097 130.026 63.5134 131.068 63.7057H131.18C132.176 63.7752 133.167 63.9081 134.146 64.1038C135.38 64.4686 136.527 65.0856 137.741 65.5168C139.354 66.094 140.913 65.8684 142.571 65.6628C144.681 65.3974 145.795 66.0475 147.434 67.2483L147.732 67.4539C148.887 68.1518 150.218 68.5041 151.567 68.4689C152.096 68.4654 152.624 68.4166 153.146 68.323Z" fill="#E55600"/>
<path d="M113.753 52.9577C113.388 52.2943 113.01 51.6309 112.692 50.9675C112.574 49.715 112.523 48.4572 112.539 47.1994C112.625 46.6722 112.625 46.1344 112.539 45.6072C112.533 45.5059 112.504 45.4074 112.453 45.3192C112.403 45.2309 112.334 45.1554 112.25 45.0984C112.166 45.0413 112.07 45.0043 111.969 44.9902C111.869 44.976 111.766 44.9852 111.67 45.0168C111.438 45.1152 111.238 45.2744 111.089 45.4777C110.941 45.6809 110.85 45.9206 110.827 46.1711C110.748 46.589 110.688 47.007 110.628 47.4316C109.98 46.2756 109.417 45.0738 108.943 43.8359C108.625 43.0531 107.371 43.4644 107.696 44.2539L108.048 45.0964C107.738 44.6363 107.404 44.1933 107.046 43.7696C106.608 43.2522 105.56 43.5839 105.872 44.3401C106.293 45.3589 106.792 46.3437 107.364 47.2856C106.896 46.7107 106.453 46.1202 106.038 45.5143C105.547 44.8509 104.445 45.5475 104.936 46.2374C105.542 47.0866 106.181 47.9092 106.854 48.7053C106.475 48.5262 106.097 48.3537 105.713 48.1945C104.936 47.8694 104.326 49.037 105.109 49.3687C105.892 49.7004 106.595 50.0321 107.311 50.397L107.351 50.4766C108.483 52.511 109.655 54.5211 110.867 56.5069C111.312 57.23 112.406 56.5069 111.968 55.7838L111.411 54.8683C111.511 54.841 111.603 54.7941 111.684 54.7303C111.765 54.6665 111.833 54.5871 111.882 54.4968C111.982 54.5546 112.096 54.5852 112.211 54.5857C112.327 54.5862 112.44 54.5564 112.541 54.4995C112.642 54.4425 112.725 54.3602 112.784 54.2609C112.843 54.1615 112.875 54.0484 112.877 53.9329C113.01 54.0189 113.169 54.0548 113.326 54.034C113.482 54.0132 113.626 53.9372 113.732 53.8196C113.838 53.702 113.898 53.5505 113.902 53.3925C113.905 53.2345 113.853 53.0803 113.753 52.9577Z" fill="#FCBF81"/>
<path d="M109.992 47.8028C109.255 48.5988 108.539 49.5475 108.844 50.6952C108.904 50.9274 109.268 50.8411 109.202 50.6089C108.93 49.6006 109.6 48.7713 110.244 48.0748C110.403 47.8956 110.124 47.6236 109.992 47.8028Z" fill="#6D320B"/>
<path d="M109.142 47.0681C108.681 46.1016 108.276 45.1093 107.928 44.0961C107.869 43.9302 107.597 43.9899 107.656 44.1624C108.011 45.1982 108.425 46.2126 108.897 47.2008C108.97 47.36 109.215 47.2273 109.142 47.0681Z" fill="#6D320B"/>
<path d="M107.875 47.7699C107.117 46.6904 106.506 45.5147 106.058 44.2738C105.998 44.108 105.726 44.1677 105.786 44.3401C106.236 45.6085 106.854 46.811 107.623 47.9159C107.729 48.0485 107.975 47.9159 107.875 47.7699Z" fill="#6D320B"/>
<path d="M107.265 49.1841C106.548 48.3643 105.915 47.4754 105.374 46.5305C105.288 46.3779 105.036 46.5305 105.129 46.6632C105.682 47.6224 106.329 48.5245 107.059 49.3566C107.179 49.5092 107.384 49.3168 107.265 49.1841Z" fill="#6D320B"/>
<path d="M131.618 61.4361L127.12 60.5405C123.316 60.3915 119.714 58.7887 117.057 56.0626C115.477 54.4345 114.095 52.6265 112.937 50.6758C111.571 51.4835 110.355 52.5203 109.341 53.7407C108.805 54.3504 108.313 54.9977 107.869 55.6778C109.832 59.7444 114.768 66.2126 120.739 68.488C120.739 68.488 121.176 78.1405 121.356 83.3482C121.356 83.3482 127.233 86.3202 135.625 83.3482C135.632 83.3482 133.137 63.6452 131.618 61.4361Z" fill="#7342CC"/>
<path d="M129.316 61.291C129.316 61.291 138.013 67.8321 151.474 76.1777C151.474 76.1777 150.671 80.6689 148.78 82.3805C148.78 82.3805 134.053 77.2259 130.252 70.5521" fill="#7342CC"/>
<path d="M125.382 57.2116C125.382 57.2116 123.79 61.809 126.709 63.8921C129.628 65.9751 133.622 61.6233 132.534 57.5301C131.446 53.4369 127.26 53.2711 125.382 57.2116Z" fill="#FCBF81"/>
<path d="M132.945 63.2472C132.708 63.2957 132.462 63.2841 132.23 63.2134C131.999 63.1427 131.788 63.0152 131.618 62.8425C131.275 62.3728 131.131 61.7858 131.22 61.2106C131.239 60.8405 131.161 60.4718 130.994 60.1413C130.826 59.8107 130.575 59.5298 130.265 59.3265C129.495 58.8024 128.527 58.6631 127.83 57.9997C127.757 57.9334 127.691 57.8604 127.625 57.7874C127.716 57.8722 127.816 57.9478 127.923 58.013C129.058 58.6764 130.743 58.8688 131.24 59.1408C131.738 59.4127 130.928 61.5025 131.87 62.4246C132.812 63.3467 135.055 57.5884 133.761 56.0228C132.467 54.4572 128.195 52.6262 126.338 55.2267C126.388 55.4509 126.45 55.6723 126.523 55.8901C126.568 56.5924 126.827 57.2641 127.266 57.814C127.93 58.6764 128.965 58.8688 129.874 59.3928C130.167 59.5368 130.417 59.7554 130.598 60.0268C130.78 60.2982 130.887 60.6127 130.908 60.9386C130.87 61.4775 130.928 62.019 131.081 62.5374C131.25 62.8906 131.536 63.1753 131.889 63.3442C132.243 63.5131 132.643 63.5561 133.025 63.4661C133.21 63.4727 133.124 63.2074 132.945 63.2472Z" fill="#E55600"/>
<path d="M134.292 127.862C131.479 114.736 128.987 101.545 126.815 88.2906C126.749 87.8727 126.105 88.0518 126.152 88.4697C128.323 101.738 130.816 114.928 133.628 128.041C133.741 128.473 134.378 128.3 134.292 127.862Z" fill="#6A9B15"/>
<path d="M74.4532 81.4258V110.874C74.4532 110.874 90.4279 119.439 115.518 117.183V89.9836C115.518 89.9836 91.622 93.8711 74.4532 81.4258Z" fill="#7647CC"/>
<path d="M178.368 87.2771V113.866C178.368 113.866 203.577 106.894 209.866 86.3549V59.2617C209.866 59.2617 203.571 78.487 178.368 87.2771Z" fill="#7647CC"/>
<path d="M58.0739 50.5177V78.951C58.0739 78.951 60.2499 60.6544 87.9268 50.9157V25.6602C87.9268 25.6602 64.1971 30.2376 58.0739 50.5177Z" fill="#7647CC"/>
<path d="M191.264 26.0842V54.6104C191.264 54.6104 177.691 48.0759 151.255 46.6231V17.7387C151.255 17.7387 172.298 17.5397 191.264 26.0842Z" fill="#7647CC"/>
<path d="M147.454 33.9721V31.9819C143.095 31.617 138.63 31.418 134.06 31.418C117.793 31.418 102.668 33.8062 90.1094 37.8994V39.8896C102.561 35.7964 117.713 33.3816 134.06 33.3816C138.65 33.4082 143.102 33.6072 147.454 33.9721Z" fill="#EBE0FF"/>
<path d="M63.9384 102.229C59.7391 97.7973 57.3973 92.8947 57.3973 87.7335C57.3973 76.5486 68.3898 66.5445 85.5784 59.957V57.9668C67.2421 64.9059 55.4336 75.6729 55.4336 87.7468C55.4336 93.8965 58.5051 99.6879 63.9384 104.849V102.229Z" fill="#EBE0FF"/>
<path d="M68.4694 117.541V119.843C77.3523 126.298 90.2222 131.373 105.388 134.245V132.255C89.9569 129.343 77.014 124.135 68.4694 117.541Z" fill="#EBE0FF"/>
<path d="M134.06 100.119C125.98 100.129 117.911 99.5168 109.925 98.2875V100.278C117.911 101.507 125.98 102.119 134.06 102.109C157.279 102.109 178.156 97.2394 192.558 89.5041V87.3945C178.487 95.1629 157.491 100.119 134.06 100.119Z" fill="#EBE0FF"/>
<path d="M147.606 130.987V132.977C165.326 131.491 181.022 127.139 192.565 120.949V118.84C181.267 125.069 165.505 129.481 147.606 130.987Z" fill="#EBE0FF"/>
<path d="M197.096 22.5352V24.7509C205.673 30.5424 210.722 37.5678 210.722 45.1371C210.722 52.7065 205.654 59.7253 197.096 65.5035V67.7259C206.888 61.4103 212.692 53.5822 212.692 45.1172C212.692 36.6523 206.881 28.8441 197.096 22.5352Z" fill="#EBE0FF"/>
</svg>
