<svg width="494" height="368" viewBox="0 0 494 368" fill="none" xmlns="http://www.w3.org/2000/svg">
<g clip-path="url(#clip0_1798:14430)">
<path opacity="0.05" d="M5.33301 123.963C13.1509 145.355 29.6973 163.846 55.8493 172.809C110.199 191.437 232.77 181.829 324.247 170.801C371.556 165.098 413.15 149.365 443.364 127.202L5.33301 123.963Z" fill="#7342CC"/>
<path opacity="0.05" d="M485.042 23.2709H434.85C432.464 23.2709 430.512 22.0211 430.512 20.4936C430.512 18.9661 432.464 17.7163 434.85 17.7163H443.525C441.139 17.7163 439.187 16.4665 439.187 14.939C439.187 13.4115 441.139 12.1618 443.525 12.1618H437.328C434.943 12.1618 432.991 10.912 432.991 9.38449C432.991 7.85701 434.943 6.6072 437.328 6.6072H463.525C456.857 4.70513 450.009 3.4966 443.09 3.001C371.658 -2.87346 346.154 1.01225 337.156 5.00887C325.477 10.1782 313.112 13.6485 300.441 15.3134C256.366 21.1342 173.943 28.1386 99.2375 13.0715C62.1064 5.58258 34.5109 18.237 17.9695 39.3879H493.758C493.135 33.2402 491.278 27.5627 487.863 22.5962C486.994 23.052 486.024 23.2839 485.042 23.2709Z" fill="#7342CC"/>
<path opacity="0.05" d="M1.07342 79.3125C-0.853861 91.7548 -0.190751 104.459 3.02154 116.635L443.701 126.955C455.901 117.961 466.235 107.917 474.318 97.0575L1.07342 79.3125ZM175.369 105.938H166.694C169.08 105.938 171.032 107.187 171.032 108.715C171.032 110.242 169.08 111.492 166.694 111.492H116.502C114.116 111.492 112.164 110.242 112.164 108.715C112.164 107.187 114.116 105.938 116.502 105.938H125.177C122.791 105.938 120.84 104.688 120.84 103.16C120.84 101.633 122.791 100.383 125.177 100.383H118.981C116.595 100.383 114.643 99.1331 114.643 97.6057C114.643 96.0782 116.595 94.8284 118.981 94.8284H169.173C171.559 94.8284 173.51 96.0782 173.51 97.6057C173.51 99.1332 171.559 100.383 169.173 100.383H175.369C177.755 100.383 179.707 101.633 179.707 103.16C179.707 104.688 177.755 105.938 175.369 105.938Z" fill="#7342CC"/>
<path opacity="0.05" d="M493.778 39.5801L12.66 47.0732C6.79214 56.8366 2.87975 67.6396 1.13916 78.885H485.347C488.452 72.4158 490.797 65.6118 492.337 58.6077C493.779 51.9727 494.357 45.557 493.778 39.5801ZM98.8219 64.1327H90.1467C92.5323 64.1327 94.4843 65.3824 94.4843 66.91C94.4843 68.4375 92.5323 69.6872 90.1467 69.6872H39.9544C37.5687 69.6872 35.6167 68.4374 35.6167 66.91C35.6167 65.3825 37.5687 64.1327 39.9544 64.1327H48.6296C46.2439 64.1327 44.292 62.8829 44.292 61.3554C44.292 59.8279 46.2439 58.5781 48.6296 58.5781H42.433C40.0473 58.5781 38.0954 57.3283 38.0954 55.8008C38.0954 54.2734 40.0473 53.0235 42.433 53.0235H92.6253C95.011 53.0235 96.9629 54.2733 96.9629 55.8008C96.9629 57.3283 95.011 58.5781 92.6253 58.5781H98.8219C101.208 58.5781 103.159 59.8279 103.159 61.3554C103.159 62.8829 101.208 64.1327 98.8219 64.1327Z" fill="#7342CC"/>
<path d="M228.8 282.777V296.345H231.851C231.851 296.345 233.429 283.085 231.44 280.965C229.451 278.845 228.8 282.777 228.8 282.777Z" fill="#504F60"/>
<path d="M119.203 261.346C119.203 261.346 208.392 243.77 209.631 249.937C209.631 249.937 211.025 251.941 210.483 256.027C209.941 260.113 209.089 272.293 219.309 273.218C229.528 274.143 231.773 276.071 231.851 283.086L144.287 311.687L133.99 299.198C133.99 299.198 124.7 294.65 124.468 294.65C124.235 294.65 119.203 283.471 119.203 283.471L118.351 273.527L119.667 264.816L119.203 261.346Z" fill="#6E6D84"/>
<path d="M210.067 250.724L120.638 264.979L120.712 265.436L210.14 251.181L210.067 250.724Z" fill="#504F60"/>
<path d="M210.538 254.792L119.941 270.154L120.019 270.61L210.616 255.248L210.538 254.792Z" fill="#504F60"/>
<path d="M210.161 259.441L119.62 276.826L119.708 277.281L210.249 259.895L210.161 259.441Z" fill="#504F60"/>
<path d="M210.156 262.98L119.927 282.078L120.023 282.531L210.253 263.432L210.156 262.98Z" fill="#504F60"/>
<path d="M211.107 266.536L121.785 287.033L121.89 287.484L211.211 266.987L211.107 266.536Z" fill="#504F60"/>
<path d="M213.153 270.131L124.338 291.352L124.447 291.801L213.261 270.581L213.153 270.131Z" fill="#504F60"/>
<path d="M215.852 272.132L129.982 294.111L130.098 294.559L215.968 272.58L215.852 272.132Z" fill="#504F60"/>
<path d="M222.231 273.333L134.547 297.193L134.669 297.64L222.354 273.78L222.231 273.333Z" fill="#504F60"/>
<path d="M228.738 275.246L139.497 300.893L139.626 301.337L228.867 275.69L228.738 275.246Z" fill="#504F60"/>
<path d="M231.38 279.017L142.125 305.354L142.257 305.797L231.512 279.461L231.38 279.017Z" fill="#504F60"/>
<path d="M119.977 260.266C119.977 260.266 115.487 261.422 115.332 277.071C115.113 279.927 115.509 282.796 116.493 285.486C118.119 289.714 120.597 295.65 119.358 299.351C119.358 299.351 118.151 309.295 115.271 311.685L118.042 314.152C118.042 314.152 124.35 299.782 131.281 302.049C138.211 304.315 140.339 307.985 139.565 319.317L138.791 328.953L142.197 330.881C142.197 330.881 147.307 316.542 142.971 303.205C142.971 303.205 138.636 296.884 132.907 294.802C127.177 292.721 124.269 291.753 121.371 283.344C121.371 283.344 120.287 275.259 120.984 272.349C121.68 269.439 121.603 260.728 119.977 260.266Z" fill="#504F60"/>
<path d="M355.015 220.905V224.983H355.931C355.931 224.983 356.406 220.998 355.808 220.36C355.21 219.723 355.015 220.905 355.015 220.905Z" fill="#504F60"/>
<path d="M322.076 214.464C322.076 214.464 348.881 209.181 349.253 211.035C349.549 211.597 349.64 212.244 349.509 212.865C349.347 214.093 349.091 217.754 352.162 218.032C355.233 218.31 355.908 218.889 355.931 220.998L329.615 229.593L326.52 225.84C326.52 225.84 323.728 224.473 323.658 224.473C323.588 224.473 322.076 221.113 322.076 221.113L321.82 218.125L322.216 215.507L322.076 214.464Z" fill="#6E6D84"/>
<path d="M349.384 211.273L322.507 215.557L322.529 215.694L349.406 211.41L349.384 211.273Z" fill="#504F60"/>
<path d="M349.526 212.494L322.298 217.111L322.321 217.248L349.549 212.631L349.526 212.494Z" fill="#504F60"/>
<path d="M349.413 213.892L322.201 219.117L322.228 219.254L349.439 214.029L349.413 213.892Z" fill="#504F60"/>
<path d="M349.411 214.955L322.293 220.695L322.322 220.831L349.44 215.091L349.411 214.955Z" fill="#504F60"/>
<path d="M349.697 216.023L322.852 222.184L322.883 222.319L349.728 216.159L349.697 216.023Z" fill="#504F60"/>
<path d="M350.312 217.105L323.619 223.482L323.652 223.618L350.345 217.24L350.312 217.105Z" fill="#504F60"/>
<path d="M351.123 217.707L325.316 224.312L325.35 224.447L351.158 217.841L351.123 217.707Z" fill="#504F60"/>
<path d="M353.04 218.067L326.688 225.238L326.724 225.372L353.077 218.201L353.04 218.067Z" fill="#504F60"/>
<path d="M354.996 218.642L328.175 226.35L328.214 226.483L355.035 218.775L354.996 218.642Z" fill="#504F60"/>
<path d="M355.79 219.776L328.965 227.691L329.005 227.825L355.83 219.91L355.79 219.776Z" fill="#504F60"/>
<path d="M322.309 214.141C322.309 214.141 320.959 214.488 320.913 219.191C320.847 220.05 320.966 220.912 321.262 221.721C321.75 222.991 322.495 224.775 322.122 225.887C322.122 225.887 321.76 228.876 320.894 229.594L321.727 230.336C321.727 230.336 323.623 226.017 325.706 226.698C327.789 227.379 328.428 228.482 328.195 231.888L327.963 234.784L328.987 235.363C328.987 235.363 330.522 231.054 329.219 227.046C329.219 227.046 327.916 225.146 326.194 224.52C324.473 223.895 323.599 223.604 322.727 221.077C322.727 221.077 322.402 218.647 322.611 217.772C322.821 216.898 322.797 214.28 322.309 214.141Z" fill="#504F60"/>
<path d="M28.5322 315.321C28.5322 315.321 31.0736 314.916 32.5984 316.704C32.5984 316.704 31.4802 317.581 29.0744 316.366L28.5322 315.321Z" fill="#7342CC"/>
<path d="M28.2607 315.281C28.2607 315.281 26.6398 317.272 27.4347 319.48C27.4347 319.48 28.7563 318.953 28.9003 316.271L28.2607 315.281Z" fill="#7342CC"/>
<path d="M26.804 312.013C26.804 312.013 27.8205 310.157 31.8867 312.755C31.8867 312.755 31.3445 314.004 29.5486 313.903C27.7527 313.801 27.2783 312.992 26.804 312.013Z" fill="#7342CC"/>
<path d="M26.5418 311.881C26.5418 311.881 24.4326 311.641 24.228 316.448C24.228 316.448 25.5654 316.724 26.5153 315.203C27.4652 313.682 27.0728 312.83 26.5418 311.881Z" fill="#7342CC"/>
<path d="M25.3132 308.046C25.3132 308.046 26.4992 304.774 30.8026 307.102C30.8026 307.102 29.8199 310.105 25.7537 309.16L25.3132 308.046Z" fill="#7342CC"/>
<path d="M23.9917 303.153C23.9917 303.153 26.2281 299.847 30.1926 302.917C30.1926 302.917 28.8033 306.021 24.3305 304.334L23.9917 303.153Z" fill="#7342CC"/>
<path d="M23.5173 298.498C23.5173 298.498 26.1265 295.461 30.0571 298.498C30.0571 298.498 27.5835 301.163 23.5173 299.274V298.498Z" fill="#7342CC"/>
<path d="M23.1106 293.977C23.1106 293.977 25.7536 290.805 29.5148 293.808C29.5148 293.808 26.533 296.608 23.1106 294.719V293.977Z" fill="#7342CC"/>
<path d="M23.3479 289.961C23.3479 289.961 26.1264 285.879 29.6505 288.645C29.6505 288.645 26.6686 292.154 23.3479 290.737V289.961Z" fill="#7342CC"/>
<path d="M23.9917 285.272C23.9917 285.272 26.9397 281.223 30.362 284.327C30.362 284.327 26.8719 287.836 23.9917 286.014V285.272Z" fill="#7342CC"/>
<path d="M24.9747 281.079C24.9747 281.079 28.4644 277.275 31.514 278.793C31.514 278.793 27.877 282.834 24.8274 282.092L24.9747 281.079Z" fill="#7342CC"/>
<path d="M26.194 277.106C26.194 277.106 30.2263 272.45 32.5643 274.002C32.5643 274.002 29.5972 277.613 25.9038 277.984L26.194 277.106Z" fill="#7342CC"/>
<path d="M27.9547 272.498C27.9547 272.498 31.4801 268.692 34.0553 269.637C34.0553 269.637 31.0396 273.585 27.4817 273.686L27.9547 272.498Z" fill="#7342CC"/>
<path d="M29.5488 268.186C29.5488 268.186 33.4456 264.542 35.1398 265.183C35.1398 265.183 32.3274 269.232 29.3794 268.996L29.5488 268.186Z" fill="#7342CC"/>
<path d="M31.1074 264.204C31.1074 264.204 34.462 259.851 36.2918 260.189C36.2918 260.189 34.2587 264.069 31.1074 264.642V264.204Z" fill="#7342CC"/>
<path d="M32.7986 258.837C32.7986 258.837 35.7637 255.5 37.3652 255.508C37.3652 255.508 35.025 259.963 32.6768 259.925L32.7986 258.837Z" fill="#7342CC"/>
<path d="M33.8012 255.263L36.6645 248.312C36.6645 248.312 36.8081 254.595 33.4365 256.552L33.8012 255.263Z" fill="#7342CC"/>
<path d="M34.9636 247.598C34.9636 247.598 35.438 241.795 35.133 241.322C35.133 241.322 37.1808 246.147 34.9441 250.162L34.9636 247.598Z" fill="#7342CC"/>
<path d="M25.2025 307.968C25.2025 307.968 22.2323 306.136 20.3101 310.621C20.3101 310.621 22.9526 312.368 25.5513 309.113L25.2025 307.968Z" fill="#7342CC"/>
<path d="M23.8967 302.967C23.8967 302.967 20.2542 301.313 18.4868 305.994C18.4868 305.994 21.3009 307.917 24.2279 304.15L23.8967 302.967Z" fill="#7342CC"/>
<path d="M23.3479 298.775C23.3479 298.775 20.7387 295.739 16.8081 298.775C16.8081 298.775 19.2817 301.441 23.3479 299.551V298.775Z" fill="#7342CC"/>
<path d="M23.0216 293.977C23.0216 293.977 20.3786 290.805 16.6174 293.808C16.6174 293.808 19.5993 296.608 23.0216 294.719V293.977Z" fill="#7342CC"/>
<path d="M23.3478 290.076C23.3478 290.076 21.4937 285.503 17.4641 287.47C17.4641 287.47 19.6381 291.525 23.1838 290.835L23.3478 290.076Z" fill="#7342CC"/>
<path d="M24.225 285.247C24.225 285.247 22.3827 280.595 18.2917 282.753C18.2917 282.753 20.7941 287.017 24.0393 285.966L24.225 285.247Z" fill="#7342CC"/>
<path d="M25.3674 281.102C25.3674 281.102 24.6371 276.002 21.2585 275.545C21.2585 275.545 21.9768 280.924 24.9163 282.021L25.3674 281.102Z" fill="#7342CC"/>
<path d="M26.2806 277.115C26.2806 277.115 25.9971 270.973 23.1956 270.756C23.1956 270.756 23.2901 275.42 25.9648 277.983L26.2806 277.115Z" fill="#7342CC"/>
<path d="M28.2456 272.32C28.2456 272.32 27.4098 267.211 24.738 266.586C24.738 266.586 25.0698 271.535 27.9827 273.572L28.2456 272.32Z" fill="#7342CC"/>
<path d="M29.8658 268.222C29.8658 268.222 29.8375 262.899 28.2041 262.117C28.2041 262.117 27.1911 266.936 29.3926 268.902L29.8658 268.222Z" fill="#7342CC"/>
<path d="M31.2322 264.145C31.2322 264.145 31.0032 258.663 29.3116 257.891C29.3116 257.891 28.7326 262.229 30.9787 264.503L31.2322 264.145Z" fill="#7342CC"/>
<path d="M33.0351 259.273C33.0351 259.273 33.0248 254.817 31.8174 253.77C31.8174 253.77 30.6167 258.653 32.4045 260.17L33.0351 259.273Z" fill="#7342CC"/>
<path d="M33.6589 255.044L32.4846 247.623C32.4846 247.623 30.8881 253.703 33.7148 256.382L33.6589 255.044Z" fill="#7342CC"/>
<path d="M33.8885 247.669C33.8885 247.669 30.8723 242.681 30.9345 242.123C30.9345 242.123 31.2547 247.351 35.051 249.957L33.8885 247.669Z" fill="#7342CC"/>
<path d="M34.2418 246.196C34.2418 246.196 31.3955 239.111 30.1079 238.537C30.1079 238.537 34.1738 240.595 34.479 245.994L34.2418 246.196Z" fill="#7342CC"/>
<path d="M32.6617 259.967L32.4673 259.908C34.8693 252.108 35.4686 247.13 34.1549 245.889L34.2947 245.742C35.6873 247.057 35.1226 251.976 32.6617 259.967Z" fill="#C7C7C7"/>
<path d="M26.0475 278.224L25.76 278.123C26.0144 277.408 26.2895 276.683 26.5777 275.968C29.0848 269.746 31.2193 263.958 32.588 259.514L32.8382 259.389C31.4672 263.841 29.371 269.851 26.8607 276.081C26.5741 276.792 26.3005 277.513 26.0475 278.224Z" fill="#C7C7C7"/>
<path d="M32.1083 321.159C32.0693 321.115 28.176 316.751 25.4623 309.297C23.8715 304.935 22.9853 300.348 22.8369 295.709C22.6511 289.91 23.8729 283.434 25.9667 277.553L26.1941 277.818C21.4946 291.019 23.3617 302.332 25.8383 309.142C28.5237 316.527 32.3722 320.845 32.4107 320.888L32.1083 321.159Z" fill="#C7C7C7"/>
<path d="M308.016 205.277C308.016 205.277 324.032 204.606 325.718 173.383C327.403 142.159 310.713 136.872 310.713 136.872C310.713 136.872 305.425 133.931 303.081 133.808C300.736 133.685 292.899 134.423 292.899 134.423L301.538 132.764C301.538 132.764 289.382 128.156 285.741 127.787L298.885 130.552C298.885 130.552 299.07 123.302 295.923 120.906C295.923 120.906 298.606 120.706 300.036 125.928C300.44 127.435 301.193 128.826 302.235 129.991C303.277 131.155 304.578 132.06 306.035 132.633C310.911 134.526 317.65 137.515 319.186 140.075C319.186 140.075 322.024 143.025 321.592 135.344C321.16 127.664 319.124 121.088 318.383 120.905C318.383 120.905 312.583 114.761 304.438 114.393C304.438 114.393 309.189 112.488 317.211 118.448C317.211 118.448 317.89 115.437 314.866 111.874C311.843 108.31 307.153 100.814 302.032 100.015C302.032 100.015 309.189 99.5854 314.866 108.802C314.866 108.802 316.964 110.153 317.149 106.713C317.38 104.094 317.855 101.502 318.569 98.971C318.569 98.971 320.296 106.897 316.656 110.461C316.656 110.461 323.628 119.492 323.32 129.63C323.32 129.63 325.48 134.238 326.282 128.832C326.282 128.832 326.746 121.385 327.675 115.069C328.05 112.523 327.893 109.928 327.215 107.446C326.537 104.963 325.352 102.646 323.735 100.641C322.193 98.7299 321.119 96.8732 321.715 95.8989L329.799 105.484C329.799 105.484 336.586 89.8162 341.523 86.4369C346.459 83.0576 347.076 82.3203 347.076 82.3203L339.116 91.598L349.113 88.0958L339.116 92.704C339.116 92.704 334.488 96.4519 331.835 106.713C329.182 116.973 328.935 123.363 328.935 123.363C328.935 123.363 343.189 112.119 345.904 112.488L336.679 119.435C334.171 121.324 332.098 123.727 330.603 126.483C329.107 129.238 328.223 132.281 328.009 135.406C328.009 135.406 345.842 130.859 350.162 129.999L358.307 121.704L352.136 129.569L364.847 129.385L372.129 124.223C372.129 124.223 366.39 129.016 366.945 129.323C367.501 129.63 375.893 129.999 375.893 129.999C375.893 129.999 354.543 129.876 352.198 131.412C349.853 132.948 344.608 133.501 344.608 133.501L359.726 135.774L341.708 134.484C341.708 134.484 328.071 136.942 327.331 141.181C327.331 141.181 330.109 148.397 331.959 151.258C333.495 153.635 336.586 161.334 337.203 168.093C337.821 174.851 338.684 185.235 336.34 191.563C333.995 197.892 333.131 201.517 334.303 203.422C335.476 205.326 336.586 207.784 332.761 208.276C328.935 208.767 312.151 208.03 312.151 208.03C312.151 208.03 307.028 209.037 308.016 205.277Z" fill="#DEA3A2"/>
<path opacity="0.1" d="M316.986 201.925C318.663 201.074 320.586 200.835 322.422 201.248C325.565 201.925 330.378 201.566 330.817 201.492" fill="black"/>
<path opacity="0.1" d="M327.039 165.133C327.039 165.133 327.803 177.143 326.444 179.511L327.039 165.133Z" fill="black"/>
<path opacity="0.1" d="M329.861 179.512C329.861 179.512 328.881 190.761 328.202 192.96C327.524 195.159 329.861 179.512 329.861 179.512Z" fill="black"/>
<path opacity="0.1" d="M330.817 151.854C331.511 152.107 334.484 158.112 333.889 159.889C333.294 161.665 330.817 151.854 330.817 151.854Z" fill="black"/>
<path opacity="0.1" d="M323.279 145.619C323.601 145.765 324.984 149.224 324.708 150.247C324.431 151.269 323.279 145.619 323.279 145.619Z" fill="black"/>
<path opacity="0.1" d="M336.152 165.789C335.809 169.277 335.622 171.561 335.84 174.352C336.025 176.52 335.994 178.702 335.746 180.864" fill="black"/>
<path opacity="0.1" d="M298.925 125.18C299.315 125.686 299.52 126.31 299.505 126.948C299.526 127.58 299.443 128.213 299.485 128.844C299.529 129.508 299.845 130.287 300.507 130.376" fill="black"/>
<path opacity="0.1" d="M310.32 104.385C311.164 105.22 311.913 106.146 312.553 107.145C312.739 107.462 312.951 107.762 313.187 108.044C313.569 108.407 313.979 108.741 314.412 109.042C315.374 109.822 316.058 110.891 316.363 112.089" fill="black"/>
<path opacity="0.1" d="M342.576 86.4336C342.373 86.8269 342.105 87.1834 341.784 87.4881C341.504 87.7528 341.186 87.977 340.932 88.2666C340.729 88.5189 340.547 88.7868 340.386 89.0678C339.707 90.0858 338.944 91.0457 338.104 91.9375" fill="black"/>
<path opacity="0.1" d="M327.638 104.207C328.17 104.538 328.308 105.246 328.297 105.87C328.211 106.489 328.25 107.119 328.411 107.724C328.517 107.987 328.689 108.221 328.8 108.482C328.96 108.946 329.023 109.437 328.983 109.926C328.974 110.491 328.957 111.057 328.932 111.622C328.903 112.302 328.838 113.042 328.374 113.541" fill="black"/>
<path opacity="0.1" d="M328.079 137.876C328.429 137.59 328.803 137.332 329.194 137.104C329.553 136.886 329.939 136.717 330.343 136.602C330.969 136.485 331.603 136.417 332.239 136.398C332.881 136.377 333.494 136.126 333.966 135.691" fill="black"/>
<path opacity="0.1" d="M353.168 130.115C352.416 130.08 351.665 130.213 350.97 130.504C350.629 130.679 350.333 130.929 349.998 131.115C349.565 131.354 349.078 131.48 348.583 131.482" fill="black"/>
<path opacity="0.1" d="M342.758 133.198C342.848 133.15 342.952 133.136 343.052 133.159C343.151 133.182 343.238 133.241 343.298 133.323C343.432 133.476 343.506 133.675 343.644 133.824C343.959 134.081 344.363 134.204 344.768 134.167" fill="black"/>
<path opacity="0.1" d="M338.465 117.318L337.742 117.695C336.993 118.055 336.281 118.487 335.616 118.986" fill="black"/>
<path opacity="0.1" d="M330.221 124.344C329.747 124.232 329.338 124.735 329.253 125.213C329.239 125.698 329.198 126.181 329.131 126.661C328.983 127.066 328.74 127.43 328.42 127.722" fill="black"/>
<path opacity="0.1" d="M322.194 125.221C321.763 126.503 322.678 127.904 322.41 129.231C322.328 129.635 322.14 130.01 322.045 130.411C321.951 130.947 321.981 131.497 322.132 132.019C322.283 132.542 322.552 133.023 322.917 133.427" fill="black"/>
<path d="M129.762 242.763C129.762 242.763 104.446 241.702 101.781 192.347C99.1161 142.992 125.498 134.634 125.498 134.634C125.498 134.634 133.857 129.986 137.563 129.792C141.27 129.598 153.657 130.763 153.657 130.763L140.002 128.141C140.002 128.141 159.217 120.857 164.972 120.274L144.196 124.645C144.196 124.645 143.903 113.184 148.878 109.396C148.878 109.396 144.637 109.081 142.376 117.336C141.737 119.717 140.547 121.917 138.9 123.757C137.253 125.598 135.196 127.028 132.894 127.934C125.186 130.927 114.533 135.651 112.106 139.698C112.106 139.698 107.619 144.36 108.302 132.22C108.985 120.08 112.204 109.685 113.374 109.395C113.374 109.395 122.543 99.6843 135.418 99.1016C135.418 99.1016 127.907 96.0908 115.227 105.512C115.227 105.512 114.154 100.753 118.934 95.1197C123.713 89.4866 131.126 77.6378 139.222 76.3752C139.222 76.3752 127.907 75.6954 118.934 90.2636C118.934 90.2636 115.617 92.4002 115.325 86.9614C115.032 81.5227 113.081 74.7242 113.081 74.7242C113.081 74.7242 110.35 87.2528 116.105 92.8858C116.105 92.8858 105.083 107.163 105.571 123.188C105.571 123.188 102.157 130.472 100.889 121.925C100.889 121.925 100.155 110.155 98.6873 100.17C98.0945 96.1466 98.3417 92.0445 99.4133 88.1202C100.485 84.196 102.358 80.5341 104.915 77.3633C107.352 74.343 109.05 71.4082 108.107 69.8681L95.3295 85.019C95.3295 85.019 84.6004 60.2531 76.7973 54.9114C68.9943 49.5697 68.0189 48.4043 68.0189 48.4043L80.6013 63.0696L64.8002 57.5337L80.6013 64.8178C80.6013 64.8178 87.9167 70.7422 92.1108 86.9615C96.3049 103.181 96.6951 113.281 96.6951 113.281C96.6951 113.281 74.1638 95.5081 69.8722 96.0909L84.4534 107.071C88.4191 110.057 91.6949 113.857 94.0592 118.212C96.4235 122.568 97.8213 127.378 98.1581 132.317C98.1581 132.317 69.9697 125.13 63.142 123.77L50.2671 110.659L60.0208 123.091L39.928 122.799L28.4186 114.641C28.4186 114.641 37.4896 122.216 36.6117 122.702C35.7339 123.188 22.4688 123.77 22.4688 123.77C22.4688 123.77 56.2168 123.576 59.9233 126.004C63.6297 128.432 71.9204 129.306 71.9204 129.306L48.0237 132.9L76.5047 130.86C76.5047 130.86 98.0606 134.745 99.231 141.447C99.231 141.447 94.8386 152.852 91.9157 157.374C89.4871 161.132 84.6004 173.302 83.625 183.986C82.6496 194.669 81.2841 211.082 84.9905 221.086C88.697 231.089 90.0625 236.82 88.2093 239.83C86.356 242.841 84.6003 246.726 90.6477 247.503C96.6951 248.28 123.225 247.114 123.225 247.114C123.225 247.114 131.324 248.707 129.762 242.763Z" fill="#DEA3A2"/>
<path opacity="0.1" d="M115.583 237.462C112.932 236.118 109.892 235.739 106.99 236.393C102.022 237.462 94.4141 236.895 93.7202 236.778" fill="black"/>
<path opacity="0.1" d="M99.6924 179.307C99.6924 179.307 98.484 198.291 100.632 202.035L99.6924 179.307Z" fill="black"/>
<path opacity="0.1" d="M95.2322 202.033C95.2322 202.033 96.7813 219.815 97.8538 223.291C98.9262 226.767 95.2322 202.033 95.2322 202.033Z" fill="black"/>
<path opacity="0.1" d="M93.7201 158.316C92.6234 158.717 87.9241 168.21 88.864 171.017C89.8038 173.825 93.7201 158.316 93.7201 158.316Z" fill="black"/>
<path opacity="0.1" d="M105.636 148.463C105.126 148.694 102.94 154.161 103.377 155.777C103.815 157.394 105.636 148.463 105.636 148.463Z" fill="black"/>
<path opacity="0.1" d="M85.2878 180.344C85.8301 185.857 86.1258 189.467 85.7808 193.879C85.488 197.307 85.5375 200.755 85.9287 204.173" fill="black"/>
<path opacity="0.1" d="M144.132 116.152C143.515 116.952 143.191 117.938 143.216 118.947C143.183 119.946 143.314 120.947 143.248 121.945C143.178 122.994 142.678 124.225 141.631 124.366" fill="black"/>
<path opacity="0.1" d="M126.12 83.2832C124.785 84.6033 123.601 86.0665 122.589 87.6461C122.296 88.1469 121.961 88.6221 121.587 89.0666C120.983 89.6409 120.336 90.1684 119.652 90.6443C118.13 91.8785 117.049 93.5678 116.568 95.4619" fill="black"/>
<path opacity="0.1" d="M75.1331 54.9043C75.4533 55.526 75.8765 56.0895 76.3847 56.5712C76.8264 56.9895 77.3303 57.3441 77.7306 57.8017C78.0515 58.2005 78.3402 58.624 78.594 59.0682C79.6675 60.6774 80.8739 62.1947 82.2006 63.6043" fill="black"/>
<path opacity="0.1" d="M98.7452 83C97.905 83.5225 97.6858 84.6427 97.7043 85.6289C97.7228 86.6151 97.8913 87.643 97.5232 88.5587C97.3557 88.9756 97.0846 89.3442 96.9093 89.7579C96.6552 90.4902 96.5565 91.2671 96.6195 92.0394C96.6343 92.9336 96.6611 93.8276 96.6999 94.7212C96.7466 95.7964 96.8488 96.9649 97.5827 97.7548" fill="black"/>
<path opacity="0.1" d="M98.049 136.221C97.4943 135.768 96.9045 135.36 96.2851 135.001C95.7184 134.656 95.1078 134.389 94.4695 134.206C93.4805 134.022 92.4785 133.914 91.4728 133.884C90.4574 133.851 89.4881 133.454 88.7419 132.768" fill="black"/>
<path opacity="0.1" d="M58.3892 123.953C59.5758 123.985 60.8086 124.028 61.864 124.569C62.4026 124.845 62.8711 125.24 63.4005 125.533C64.0853 125.912 64.855 126.112 65.6382 126.114" fill="black"/>
<path opacity="0.1" d="M74.8446 128.827C74.7027 128.751 74.5378 128.729 74.3809 128.765C74.2239 128.802 74.0857 128.894 73.992 129.024C73.7801 129.266 73.6635 129.58 73.445 129.816C73.0131 130.283 72.3046 130.336 71.668 130.359" fill="black"/>
<path opacity="0.1" d="M81.6313 103.727L82.7733 104.322C83.9581 104.89 85.0838 105.574 86.1342 106.363" fill="black"/>
<path opacity="0.1" d="M94.6624 114.832C95.4123 114.655 96.0588 115.45 96.1922 116.206C96.3255 116.962 96.1694 117.757 96.3846 118.494C96.6187 119.135 97.0042 119.71 97.5086 120.172" fill="black"/>
<path opacity="0.1" d="M107.351 116.217C108.033 118.244 106.586 120.459 107.009 122.555C107.138 123.194 107.436 123.787 107.587 124.421C107.983 126.089 107.302 127.866 106.207 129.189" fill="black"/>
<path d="M452.786 278.538C452.786 278.538 447.664 279.091 450.304 270.958L451.864 270.76L452.627 268.984C452.627 268.984 453.738 266.457 454.491 266.694C455.244 266.931 456.263 267.207 456.428 266.22C456.551 265.656 456.815 265.132 457.196 264.697C457.577 264.262 458.062 263.93 458.606 263.733C459.725 263.377 465.355 259.827 466.584 256.904C467.814 253.981 468.964 253.211 468.964 253.211C468.964 253.211 470.589 253.257 469.558 259.739C469.558 259.739 469.201 261.956 468.686 262.43C468.17 262.903 463.769 267.444 463.769 267.444L461.549 272.695L460.716 275.301C460.716 275.301 462.778 277.314 459.943 279.367C457.108 281.42 453.444 280.236 453.444 280.236L452.786 278.538Z" fill="#7342CC"/>
<path d="M453.023 277.434L457.533 269.538L461.707 264.8C461.707 264.8 466.386 259.391 466.981 258.286C466.981 258.286 468.567 255.324 468.606 254.594" stroke="#C7C7C7" stroke-miterlimit="10"/>
<path d="M459.173 277.59C459.173 277.59 454.549 276.824 453.152 277.207" stroke="#C7C7C7" stroke-miterlimit="10"/>
<path d="M451.001 274.354C451.001 274.354 453.102 275.577 453.023 275.933" stroke="#C7C7C7" stroke-miterlimit="10"/>
<path d="M454.848 268.234C454.848 268.234 455.435 273.21 455.017 273.943" stroke="#C7C7C7" stroke-miterlimit="10"/>
<path d="M459.943 272.418C459.943 272.418 454.764 274.384 454.586 274.695" stroke="#C7C7C7" stroke-miterlimit="10"/>
<path d="M458.621 265.154C458.621 265.154 458.269 268.615 457.831 269.199" stroke="#C7C7C7" stroke-miterlimit="10"/>
<path d="M461.351 268.234C461.351 268.234 457.81 269.052 457.533 269.537" stroke="#C7C7C7" stroke-miterlimit="10"/>
<path d="M464.879 263.693L461.394 265.154C461.394 265.154 462.104 262.667 461.945 262.43" stroke="#C7C7C7" stroke-miterlimit="10"/>
<path d="M468.131 260.164C468.131 260.164 464.089 261.523 464.187 261.878L464.641 260.164" stroke="#C7C7C7" stroke-miterlimit="10"/>
<path d="M468.607 257.105L466.981 258.285L466.782 257.209" stroke="#C7C7C7" stroke-miterlimit="10"/>
<path d="M454.768 245.215C454.768 245.215 458.218 226.383 459.467 224.902L459.943 225.258C459.943 225.258 455.123 242.899 455.183 248.229C455.183 248.229 451.814 275.196 454.015 283.487C454.015 283.487 454.293 285.013 453.519 285.19C452.327 276.633 452.301 267.954 453.443 259.39" fill="#C7C7C7"/>
<path d="M454.613 248.178C454.613 248.178 456.635 245.394 458.597 245.217" stroke="#C7C7C7" stroke-miterlimit="10"/>
<path d="M459.668 243.973C459.668 243.973 458.1 244.81 458.171 245.294C458.241 245.779 460.055 245.897 460.055 245.897L459.668 243.973Z" fill="#C7C7C7"/>
<path d="M460.59 242.699C460.59 242.699 463.237 240.774 463.95 242.225C464.664 243.676 463.653 244.15 463.653 244.15L461.72 244.801C461.72 244.801 464.367 244.653 463.772 247.496C463.772 247.496 462.017 249.036 461.006 247.318C461.006 247.318 460.828 248.587 460.293 248.13C459.757 247.673 458.657 247.185 459.549 244.957L460.59 242.699Z" fill="#7342CC"/>
<path d="M460.768 244.298C460.768 244.298 461.185 240.685 459.846 241.011C458.508 241.337 458.806 242.995 458.806 242.995L459.519 244.653L460.768 244.298Z" fill="#7342CC"/>
<path d="M460.194 244.494C460.224 244.496 460.255 244.491 460.285 244.481C460.328 244.457 460.362 244.419 460.381 244.374C460.491 244.176 460.583 243.969 460.657 243.755C460.676 243.742 460.694 243.772 460.697 243.795L460.754 244.243C460.754 244.268 460.763 244.292 460.779 244.311C460.795 244.323 460.813 244.331 460.833 244.332C460.888 244.347 460.946 244.346 461.001 244.331C461.028 244.323 461.052 244.307 461.069 244.284C461.085 244.261 461.094 244.233 461.093 244.205C461.172 244.186 461.255 244.188 461.333 244.209C461.372 244.22 461.407 244.242 461.434 244.272C461.461 244.301 461.48 244.338 461.488 244.377C461.492 244.401 461.489 244.425 461.48 244.446C461.471 244.468 461.455 244.487 461.436 244.5C461.418 244.508 461.4 244.515 461.382 244.52C461.253 244.568 461.192 244.745 461.056 244.755C461.032 244.757 461.003 244.755 460.989 244.775C460.982 244.787 460.98 244.801 460.983 244.815C461.005 244.903 461.045 244.986 461.099 245.059C461.154 245.131 461.223 245.193 461.301 245.239L461.582 245.458C461.582 245.593 461.567 245.755 461.447 245.82C461.411 245.839 461.37 245.846 461.33 245.841C461.289 245.836 461.251 245.818 461.221 245.791C461.162 245.734 461.137 245.64 461.061 245.609C460.975 245.573 460.878 245.648 460.848 245.735C460.827 245.826 460.82 245.918 460.828 246.01C460.821 246.209 460.738 246.398 460.598 246.538C460.572 246.559 460.551 246.586 460.537 246.615C460.529 246.652 460.527 246.689 460.531 246.726C460.53 246.765 460.519 246.803 460.497 246.836C460.476 246.869 460.445 246.895 460.41 246.912C460.373 246.927 460.333 246.929 460.296 246.917C460.258 246.906 460.225 246.883 460.203 246.85C460.144 246.754 460.207 246.633 460.24 246.524C460.302 246.315 460.243 246.087 460.294 245.875C460.32 245.765 460.376 245.664 460.402 245.553C460.416 245.505 460.417 245.453 460.403 245.404C460.389 245.369 460.369 245.336 460.344 245.309C460.264 245.214 460.169 245.132 460.063 245.067C459.973 245.028 459.897 244.964 459.843 244.882C459.823 244.824 459.819 244.763 459.829 244.703C459.84 244.643 459.865 244.586 459.903 244.539C459.971 244.467 460.096 244.495 460.194 244.494Z" fill="#C7C7C7"/>
<path d="M451.392 247.719C451.392 247.719 452.506 249.1 452.251 249.519C451.996 249.937 450.28 249.339 450.28 249.339L451.392 247.719Z" fill="#C7C7C7"/>
<path d="M451.044 246.189C451.044 246.189 449.364 243.386 448.137 244.443C446.91 245.501 447.655 246.331 447.655 246.331L449.178 247.683C449.178 247.683 446.8 246.516 446.23 249.363C446.23 249.363 447.24 251.464 448.845 250.277C448.845 250.277 448.511 251.515 449.183 251.303C449.855 251.091 451.06 251.07 451.114 248.672L451.044 246.189Z" fill="#7342CC"/>
<path d="M450.251 247.592C450.251 247.592 451.288 244.105 452.391 244.926C453.495 245.747 452.569 247.157 452.569 247.157L451.261 248.405L450.251 247.592Z" fill="#7342CC"/>
<path d="M450.703 247.995C450.674 247.985 450.647 247.969 450.625 247.948C450.595 247.909 450.578 247.861 450.578 247.811C450.555 247.587 450.551 247.36 450.567 247.135C450.555 247.115 450.526 247.136 450.514 247.156L450.286 247.546C450.276 247.569 450.259 247.588 450.236 247.599C450.217 247.604 450.197 247.604 450.179 247.598C450.122 247.589 450.069 247.566 450.024 247.531C450.002 247.513 449.987 247.488 449.981 247.461C449.974 247.433 449.977 247.404 449.989 247.378C449.923 247.331 449.847 247.3 449.767 247.289C449.727 247.285 449.686 247.291 449.649 247.307C449.612 247.324 449.581 247.35 449.558 247.384C449.545 247.403 449.538 247.427 449.538 247.45C449.538 247.474 449.545 247.497 449.558 247.517C449.571 247.531 449.585 247.544 449.6 247.556C449.699 247.65 449.685 247.838 449.807 247.9C449.829 247.911 449.856 247.92 449.861 247.944C449.862 247.958 449.859 247.972 449.851 247.983C449.796 248.056 449.727 248.116 449.648 248.162C449.569 248.208 449.482 248.237 449.391 248.249L449.046 248.341C448.993 248.466 448.944 248.621 449.028 248.728C449.054 248.759 449.089 248.782 449.128 248.792C449.168 248.803 449.209 248.802 449.248 248.788C449.325 248.76 449.385 248.682 449.467 248.683C449.56 248.684 449.62 248.791 449.613 248.883C449.597 248.974 449.567 249.062 449.524 249.144C449.452 249.329 449.454 249.535 449.528 249.719C449.543 249.748 449.552 249.781 449.554 249.814C449.547 249.85 449.534 249.886 449.516 249.918C449.501 249.954 449.497 249.994 449.504 250.033C449.51 250.071 449.528 250.107 449.554 250.136C449.582 250.164 449.618 250.181 449.657 250.186C449.696 250.19 449.735 250.181 449.769 250.16C449.861 250.094 449.85 249.958 449.863 249.846C449.888 249.629 450.032 249.442 450.068 249.228C450.087 249.116 450.076 249.001 450.095 248.889C450.101 248.839 450.121 248.791 450.153 248.751C450.179 248.724 450.211 248.702 450.245 248.687C450.356 248.63 450.475 248.592 450.598 248.574C450.697 248.573 450.792 248.543 450.874 248.489C450.914 248.444 450.943 248.389 450.957 248.329C450.97 248.27 450.969 248.208 450.953 248.15C450.919 248.058 450.793 248.034 450.703 247.995Z" fill="#C7C7C7"/>
<path d="M453.551 261.877C453.551 261.877 454.53 258.367 455.963 256.904" stroke="#C7C7C7" stroke-miterlimit="10"/>
<path d="M456.672 253.863C456.672 253.863 456.751 250.744 458.535 250.784C460.32 250.823 460.478 253.034 459.943 253.863C459.943 253.863 462.537 253.587 462.638 255.719C462.738 257.851 460.141 257.614 460.141 257.614C460.141 257.614 459.844 259.825 457.742 260.141C455.641 260.457 456.052 257.456 456.052 257.456C456.052 257.456 453.658 257.14 453.46 255.758C453.262 254.376 454.92 253.855 454.92 253.855L456.672 253.863Z" fill="#7342CC"/>
<path d="M458.962 255.664C459.011 255.686 459.069 255.67 459.121 255.684C459.172 255.703 459.217 255.737 459.25 255.782C459.358 255.904 459.473 256.078 459.385 256.215C459.294 256.356 459.079 256.319 458.927 256.247C458.776 256.176 458.596 256.086 458.452 256.17L458.486 256.739C458.492 256.778 458.486 256.817 458.466 256.852C458.449 256.869 458.428 256.882 458.405 256.891C458.381 256.899 458.357 256.903 458.332 256.9C458.202 256.907 458.072 256.906 457.942 256.9C457.956 256.698 457.943 256.495 457.903 256.297C457.899 256.253 457.88 256.212 457.849 256.179C457.817 256.156 457.777 256.144 457.737 256.145C457.541 256.135 457.056 256.275 456.987 255.973C456.929 255.723 457.277 255.751 457.401 255.611C457.646 255.335 457.664 254.915 458.033 254.693C458.421 254.46 458.317 254.574 458.404 254.861C458.433 254.959 458.319 255.063 458.402 255.171C458.498 255.297 458.66 255.166 458.751 255.247C458.865 255.346 458.835 255.607 458.962 255.664Z" fill="#C7C7C7"/>
<path opacity="0.1" d="M459.726 254.096C459.594 254.095 459.462 254.123 459.342 254.179C459.222 254.234 459.115 254.316 459.03 254.417C458.861 254.62 458.723 254.848 458.621 255.091" fill="black"/>
<path opacity="0.1" d="M457.533 256.406C457.4 256.406 457.269 256.434 457.148 256.49C457.028 256.545 456.921 256.626 456.836 256.727C456.667 256.931 456.53 257.158 456.428 257.402" fill="black"/>
<path opacity="0.1" d="M457.308 254.954C457.271 254.827 457.206 254.71 457.118 254.611C457.03 254.512 456.922 254.433 456.8 254.381C456.556 254.278 456.298 254.211 456.034 254.184" fill="black"/>
<path opacity="0.1" d="M459.74 257.689C459.723 257.558 459.678 257.432 459.607 257.321C459.537 257.209 459.442 257.114 459.33 257.043C459.106 256.902 458.862 256.796 458.606 256.727" fill="black"/>
<path d="M452.844 238.314C452.844 238.314 451.502 235.494 453.113 234.728C454.723 233.962 455.866 235.865 455.764 236.845C455.764 236.845 457.954 235.434 459.009 237.291C460.064 239.149 457.639 240.104 457.639 240.104C457.639 240.104 458.375 242.211 456.642 243.436C454.909 244.662 453.918 241.799 453.918 241.799C453.918 241.799 451.638 242.591 450.835 241.447C450.033 240.303 451.276 239.092 451.276 239.092L452.844 238.314Z" fill="#7342CC"/>
<path d="M455.704 238.892C455.757 238.889 455.802 238.849 455.854 238.839C455.909 238.833 455.964 238.843 456.014 238.868C456.166 238.928 456.347 239.032 456.33 239.194C456.313 239.361 456.104 239.424 455.936 239.428C455.769 239.433 455.568 239.433 455.477 239.573L455.765 240.065C455.789 240.097 455.801 240.136 455.799 240.175C455.791 240.223 455.744 240.254 455.701 240.279C455.588 240.342 455.472 240.401 455.353 240.453C455.274 240.266 455.171 240.091 455.045 239.932C455.021 239.895 454.985 239.867 454.944 239.852C454.904 239.845 454.863 239.852 454.828 239.871C454.649 239.95 454.279 240.293 454.08 240.055C453.916 239.858 454.239 239.726 454.286 239.545C454.38 239.189 454.206 238.806 454.435 238.443C454.676 238.061 454.634 238.209 454.842 238.426C454.912 238.5 454.858 238.644 454.98 238.703C455.123 238.773 455.209 238.584 455.326 238.614C455.473 238.652 455.564 238.898 455.704 238.892Z" fill="#C7C7C7"/>
<path opacity="0.1" d="M455.676 237.15C455.557 237.209 455.453 237.294 455.37 237.397C455.288 237.501 455.23 237.621 455.199 237.75C455.141 238.007 455.121 238.272 455.14 238.535" fill="black"/>
<path opacity="0.1" d="M454.765 240.199C454.646 240.258 454.542 240.342 454.459 240.446C454.377 240.55 454.319 240.67 454.288 240.799C454.23 241.056 454.21 241.321 454.229 241.584" fill="black"/>
<path opacity="0.1" d="M453.905 239.002C453.815 238.905 453.704 238.83 453.581 238.781C453.458 238.732 453.325 238.711 453.193 238.718C452.928 238.736 452.668 238.792 452.42 238.886" fill="black"/>
<path opacity="0.1" d="M457.316 240.352C457.242 240.243 457.144 240.151 457.03 240.083C456.917 240.015 456.789 239.972 456.657 239.959C456.393 239.934 456.127 239.949 455.868 240.002" fill="black"/>
<path d="M451.993 249.244C451.993 249.244 454.834 251.924 454.226 253.39" stroke="#C7C7C7" stroke-miterlimit="10"/>
<path d="M450.569 256.131C450.569 256.131 451.682 257.512 451.427 257.931C451.172 258.349 449.457 257.752 449.457 257.752L450.569 256.131Z" fill="#C7C7C7"/>
<path d="M450.221 254.601C450.221 254.601 448.541 251.798 447.314 252.856C446.087 253.913 446.832 254.743 446.832 254.743L448.354 256.095C448.354 256.095 445.977 254.928 445.407 257.776C445.407 257.776 446.417 259.876 448.022 258.69C448.022 258.69 447.688 259.927 448.36 259.715C449.032 259.503 450.237 259.482 450.291 257.084L450.221 254.601Z" fill="#7342CC"/>
<path d="M449.428 256.002C449.428 256.002 450.464 252.515 451.568 253.336C452.672 254.157 451.746 255.567 451.746 255.567L450.438 256.815L449.428 256.002Z" fill="#7342CC"/>
<path d="M449.88 256.406C449.851 256.395 449.824 256.379 449.801 256.358C449.771 256.319 449.755 256.271 449.755 256.222C449.732 255.997 449.728 255.77 449.744 255.545C449.732 255.525 449.703 255.546 449.691 255.566L449.463 255.957C449.453 255.979 449.435 255.998 449.413 256.009C449.394 256.014 449.374 256.014 449.356 256.008C449.299 255.999 449.246 255.976 449.201 255.941C449.179 255.923 449.164 255.899 449.158 255.871C449.151 255.843 449.154 255.814 449.166 255.789C449.1 255.741 449.024 255.71 448.944 255.7C448.904 255.695 448.863 255.701 448.826 255.718C448.789 255.734 448.758 255.761 448.735 255.794C448.722 255.814 448.715 255.837 448.715 255.86C448.715 255.884 448.722 255.907 448.735 255.927C448.748 255.941 448.762 255.954 448.777 255.967C448.876 256.06 448.862 256.248 448.984 256.31C449.005 256.321 449.033 256.33 449.038 256.354C449.039 256.368 449.036 256.382 449.028 256.393C448.973 256.466 448.904 256.526 448.825 256.572C448.746 256.618 448.659 256.647 448.568 256.66L448.223 256.751C448.17 256.876 448.121 257.031 448.205 257.138C448.231 257.169 448.266 257.192 448.305 257.203C448.345 257.214 448.386 257.212 448.425 257.199C448.502 257.17 448.562 257.092 448.644 257.093C448.737 257.094 448.797 257.201 448.79 257.293C448.774 257.384 448.744 257.472 448.701 257.554C448.629 257.739 448.631 257.945 448.705 258.129C448.72 258.159 448.729 258.191 448.731 258.224C448.724 258.26 448.711 258.296 448.693 258.328C448.678 258.365 448.674 258.404 448.681 258.443C448.687 258.481 448.705 258.517 448.731 258.546C448.759 258.574 448.795 258.592 448.834 258.596C448.873 258.6 448.912 258.591 448.945 258.57C449.038 258.504 449.027 258.368 449.04 258.256C449.065 258.039 449.209 257.852 449.245 257.638C449.264 257.526 449.253 257.411 449.272 257.299C449.278 257.249 449.298 257.201 449.33 257.161C449.356 257.134 449.388 257.112 449.422 257.097C449.533 257.04 449.652 257.002 449.775 256.984C449.873 256.983 449.969 256.953 450.051 256.899C450.091 256.854 450.12 256.799 450.133 256.739C450.147 256.68 450.146 256.618 450.13 256.56C450.096 256.468 449.97 256.444 449.88 256.406Z" fill="#C7C7C7"/>
<path d="M451.17 257.654C451.17 257.654 454.011 260.334 453.402 261.8" stroke="#C7C7C7" stroke-miterlimit="10"/>
<path d="M456.041 226.236C456.041 226.236 457.155 227.618 456.9 228.036C456.645 228.455 454.929 227.857 454.929 227.857L456.041 226.236Z" fill="#C7C7C7"/>
<path d="M455.693 224.706C455.693 224.706 454.014 221.904 452.787 222.961C451.56 224.018 452.304 224.848 452.304 224.848L453.827 226.201C453.827 226.201 451.45 225.033 450.88 227.881C450.88 227.881 451.89 229.982 453.495 228.795C453.495 228.795 453.161 230.033 453.833 229.821C454.505 229.609 455.709 229.588 455.764 227.19L455.693 224.706Z" fill="#7342CC"/>
<path d="M454.901 226.107C454.901 226.107 455.937 222.62 457.041 223.442C458.144 224.263 457.219 225.673 457.219 225.673L455.911 226.921L454.901 226.107Z" fill="#7342CC"/>
<path d="M455.353 226.513C455.324 226.503 455.297 226.486 455.274 226.466C455.244 226.426 455.228 226.378 455.228 226.329C455.205 226.104 455.201 225.878 455.217 225.652C455.205 225.633 455.176 225.654 455.164 225.673L454.936 226.064C454.926 226.087 454.908 226.105 454.886 226.117C454.867 226.122 454.847 226.121 454.828 226.115C454.772 226.107 454.719 226.084 454.674 226.049C454.652 226.031 454.637 226.006 454.63 225.978C454.624 225.951 454.627 225.922 454.638 225.896C454.573 225.848 454.497 225.818 454.416 225.807C454.376 225.802 454.335 225.808 454.299 225.825C454.262 225.842 454.23 225.868 454.207 225.901C454.194 225.921 454.188 225.944 454.188 225.968C454.188 225.991 454.194 226.014 454.207 226.034C454.22 226.049 454.234 226.062 454.249 226.074C454.349 226.168 454.335 226.355 454.457 226.417C454.478 226.428 454.505 226.438 454.511 226.461C454.512 226.475 454.508 226.489 454.5 226.501C454.445 226.573 454.376 226.634 454.297 226.68C454.219 226.725 454.131 226.755 454.041 226.767L453.696 226.859C453.643 226.983 453.594 227.138 453.678 227.245C453.704 227.276 453.739 227.299 453.778 227.31C453.817 227.321 453.859 227.32 453.897 227.306C453.974 227.277 454.034 227.199 454.117 227.201C454.209 227.202 454.269 227.308 454.263 227.4C454.247 227.491 454.216 227.579 454.173 227.661C454.102 227.847 454.103 228.052 454.178 228.237C454.193 228.266 454.202 228.298 454.203 228.331C454.196 228.368 454.183 228.403 454.165 228.436C454.151 228.472 454.146 228.512 454.153 228.55C454.16 228.589 454.178 228.624 454.204 228.653C454.231 228.681 454.268 228.699 454.307 228.703C454.346 228.708 454.385 228.699 454.418 228.678C454.511 228.612 454.5 228.476 454.513 228.363C454.538 228.147 454.682 227.96 454.718 227.745C454.737 227.633 454.726 227.518 454.745 227.407C454.751 227.356 454.771 227.308 454.803 227.269C454.829 227.242 454.86 227.22 454.895 227.204C455.006 227.148 455.125 227.11 455.248 227.091C455.346 227.09 455.442 227.061 455.523 227.007C455.564 226.961 455.592 226.906 455.606 226.847C455.62 226.788 455.619 226.726 455.603 226.667C455.569 226.575 455.443 226.552 455.353 226.513Z" fill="#C7C7C7"/>
<path d="M456.642 227.76C456.642 227.76 458.949 229.261 458.341 230.726" stroke="#C7C7C7" stroke-miterlimit="10"/>
<path d="M457.621 218.438C457.621 218.438 458.735 219.819 458.48 220.237C458.225 220.656 456.509 220.058 456.509 220.058L457.621 218.438Z" fill="#C7C7C7"/>
<path d="M457.273 216.907C457.273 216.907 455.594 214.105 454.367 215.162C453.14 216.219 453.884 217.049 453.884 217.049L455.407 218.402C455.407 218.402 453.03 217.234 452.46 220.082C452.46 220.082 453.47 222.183 455.075 220.996C455.075 220.996 454.74 222.234 455.412 222.022C456.085 221.81 457.289 221.789 457.344 219.391L457.273 216.907Z" fill="#7342CC"/>
<path d="M456.481 218.308C456.481 218.308 457.517 214.822 458.621 215.643C459.724 216.464 458.799 217.874 458.799 217.874L457.491 219.122L456.481 218.308Z" fill="#7342CC"/>
<path d="M456.933 218.712C456.904 218.702 456.877 218.686 456.854 218.665C456.824 218.626 456.808 218.578 456.808 218.528C456.785 218.303 456.781 218.077 456.797 217.852C456.785 217.832 456.756 217.853 456.744 217.873L456.516 218.263C456.506 218.286 456.488 218.305 456.466 218.316C456.447 218.321 456.427 218.32 456.408 218.314C456.352 218.306 456.299 218.283 456.254 218.248C456.232 218.23 456.217 218.205 456.21 218.178C456.204 218.15 456.207 218.121 456.218 218.095C456.153 218.048 456.077 218.017 455.996 218.006C455.956 218.001 455.916 218.008 455.879 218.024C455.842 218.041 455.81 218.067 455.787 218.1C455.775 218.12 455.768 218.143 455.768 218.167C455.768 218.191 455.775 218.214 455.787 218.233C455.8 218.248 455.814 218.261 455.829 218.273C455.929 218.367 455.915 218.554 456.037 218.617C456.058 218.628 456.086 218.637 456.091 218.66C456.092 218.674 456.088 218.688 456.08 218.7C456.025 218.772 455.956 218.833 455.877 218.879C455.799 218.924 455.712 218.954 455.621 218.966L455.276 219.058C455.223 219.183 455.174 219.338 455.258 219.444C455.284 219.476 455.319 219.498 455.358 219.509C455.397 219.52 455.439 219.519 455.477 219.505C455.554 219.476 455.614 219.399 455.697 219.4C455.789 219.401 455.849 219.507 455.843 219.6C455.827 219.691 455.796 219.779 455.753 219.861C455.682 220.046 455.683 220.252 455.758 220.436C455.773 220.465 455.782 220.497 455.783 220.53C455.776 220.567 455.764 220.602 455.745 220.635C455.731 220.671 455.726 220.711 455.733 220.749C455.74 220.788 455.758 220.824 455.784 220.853C455.811 220.881 455.848 220.898 455.887 220.903C455.926 220.907 455.965 220.898 455.998 220.877C456.091 220.811 456.08 220.675 456.093 220.562C456.118 220.346 456.262 220.159 456.298 219.944C456.317 219.833 456.306 219.717 456.325 219.606C456.331 219.555 456.351 219.508 456.383 219.468C456.409 219.441 456.44 219.419 456.475 219.403C456.586 219.347 456.705 219.309 456.828 219.291C456.926 219.289 457.022 219.26 457.103 219.206C457.144 219.16 457.172 219.105 457.186 219.046C457.2 218.987 457.199 218.925 457.183 218.866C457.149 218.775 457.023 218.751 456.933 218.712Z" fill="#C7C7C7"/>
<path d="M458.222 219.961C458.222 219.961 460.529 221.462 459.921 222.927" stroke="#C7C7C7" stroke-miterlimit="10"/>
<path d="M468.258 226.09C468.258 226.09 467.144 227.471 467.399 227.89C467.654 228.308 469.37 227.71 469.37 227.71L468.258 226.09Z" fill="#C7C7C7"/>
<path d="M468.606 224.558C468.606 224.558 470.285 221.755 471.512 222.813C472.739 223.87 471.995 224.7 471.995 224.7L470.472 226.052C470.472 226.052 472.849 224.885 473.419 227.733C473.419 227.733 472.41 229.833 470.804 228.647C470.804 228.647 471.139 229.884 470.467 229.672C469.794 229.46 468.59 229.439 468.535 227.041L468.606 224.558Z" fill="#7342CC"/>
<path d="M469.398 225.961C469.398 225.961 468.362 222.474 467.258 223.295C466.155 224.116 467.08 225.526 467.08 225.526L468.388 226.774L469.398 225.961Z" fill="#7342CC"/>
<path d="M468.946 226.365C468.975 226.354 469.002 226.338 469.025 226.317C469.055 226.278 469.071 226.23 469.071 226.181C469.094 225.956 469.098 225.729 469.082 225.504C469.094 225.484 469.123 225.505 469.135 225.525L469.363 225.916C469.373 225.938 469.391 225.957 469.413 225.968C469.432 225.973 469.452 225.973 469.471 225.967C469.527 225.958 469.58 225.935 469.625 225.9C469.647 225.882 469.662 225.858 469.669 225.83C469.675 225.802 469.672 225.773 469.661 225.748C469.726 225.7 469.802 225.669 469.883 225.659C469.923 225.654 469.964 225.66 470 225.677C470.037 225.693 470.069 225.72 470.092 225.753C470.105 225.773 470.111 225.796 470.111 225.819C470.111 225.843 470.105 225.866 470.092 225.886C470.079 225.9 470.065 225.913 470.05 225.926C469.95 226.019 469.964 226.207 469.842 226.269C469.821 226.28 469.794 226.289 469.789 226.313C469.787 226.327 469.791 226.341 469.799 226.352C469.854 226.425 469.923 226.485 470.002 226.531C470.081 226.577 470.168 226.606 470.258 226.619L470.603 226.71C470.656 226.835 470.705 226.99 470.621 227.097C470.595 227.128 470.56 227.151 470.521 227.162C470.482 227.173 470.44 227.171 470.402 227.158C470.325 227.129 470.265 227.051 470.183 227.052C470.09 227.053 470.03 227.16 470.036 227.252C470.053 227.343 470.083 227.431 470.126 227.513C470.197 227.698 470.196 227.904 470.121 228.088C470.106 228.118 470.097 228.15 470.096 228.183C470.103 228.219 470.116 228.255 470.134 228.287C470.149 228.324 470.153 228.363 470.146 228.402C470.139 228.44 470.121 228.476 470.095 228.505C470.068 228.533 470.031 228.551 469.992 228.555C469.953 228.559 469.914 228.55 469.881 228.529C469.788 228.463 469.799 228.327 469.786 228.215C469.761 227.998 469.617 227.811 469.581 227.597C469.562 227.485 469.573 227.37 469.554 227.258C469.548 227.208 469.528 227.16 469.496 227.12C469.47 227.093 469.439 227.071 469.404 227.056C469.293 226.999 469.174 226.961 469.051 226.943C468.953 226.942 468.857 226.912 468.776 226.858C468.735 226.813 468.707 226.758 468.693 226.698C468.679 226.639 468.68 226.577 468.696 226.519C468.73 226.427 468.856 226.403 468.946 226.365Z" fill="#C7C7C7"/>
<path d="M467.657 227.613C467.657 227.613 457.173 230.76 457.782 232.226" stroke="#C7C7C7" stroke-miterlimit="10"/>
<path d="M461.12 231.522C461.12 231.522 461.03 228.403 462.814 228.347C464.598 228.29 464.876 230.49 464.386 231.346C464.386 231.346 466.962 230.931 467.178 233.055C467.393 235.178 464.787 235.081 464.787 235.081C464.787 235.081 464.61 237.305 462.529 237.733C460.447 238.161 460.695 235.143 460.695 235.143C460.695 235.143 458.288 234.956 458.015 233.586C457.743 232.217 459.37 231.607 459.37 231.607L461.12 231.522Z" fill="#7342CC"/>
<path d="M463.504 233.195C463.554 233.214 463.611 233.195 463.664 233.207C463.716 233.223 463.763 233.255 463.798 233.297C463.913 233.413 464.037 233.581 463.956 233.723C463.873 233.868 463.656 233.843 463.501 233.78C463.346 233.716 463.162 233.636 463.022 233.728L463.087 234.294C463.095 234.332 463.091 234.373 463.073 234.408C463.057 234.426 463.037 234.441 463.014 234.45C462.991 234.46 462.967 234.464 462.942 234.464C462.813 234.477 462.683 234.484 462.553 234.484C462.556 234.281 462.532 234.08 462.481 233.884C462.474 233.84 462.453 233.8 462.421 233.77C462.387 233.748 462.347 233.738 462.307 233.741C462.111 233.742 461.634 233.907 461.548 233.61C461.477 233.364 461.826 233.372 461.943 233.226C462.172 232.937 462.168 232.517 462.524 232.276C462.899 232.022 462.801 232.141 462.903 232.424C462.938 232.52 462.83 232.629 462.918 232.733C463.021 232.854 463.176 232.715 463.271 232.79C463.39 232.883 463.374 233.145 463.504 233.195Z" fill="#C7C7C7"/>
<path opacity="0.1" d="M464.182 231.59C464.05 231.596 463.92 231.632 463.803 231.694C463.686 231.755 463.584 231.842 463.504 231.948C463.346 232.16 463.221 232.394 463.133 232.643" fill="black"/>
<path opacity="0.1" d="M462.117 234.016C461.985 234.022 461.855 234.057 461.738 234.119C461.621 234.181 461.519 234.268 461.439 234.374C461.281 234.586 461.156 234.82 461.068 235.069" fill="black"/>
<path opacity="0.1" d="M461.814 232.576C461.77 232.451 461.699 232.338 461.606 232.244C461.513 232.149 461.4 232.077 461.276 232.031C461.026 231.941 460.765 231.888 460.5 231.875" fill="black"/>
<path opacity="0.1" d="M464.391 235.178C464.367 235.048 464.315 234.925 464.238 234.817C464.162 234.709 464.062 234.62 463.947 234.554C463.715 234.426 463.466 234.333 463.207 234.277" fill="black"/>
<path d="M461.539 221.445C461.549 221.331 462.029 213.908 462.029 213.908" stroke="#C7C7C7" stroke-width="2" stroke-miterlimit="10"/>
<path d="M467.151 217.158C467.151 217.158 466.563 218.83 466.944 219.14C467.324 219.45 468.742 218.317 468.742 218.317L467.151 217.158Z" fill="#C7C7C7"/>
<path d="M466.968 215.598C466.968 215.598 467.613 212.399 469.124 212.989C470.635 213.578 470.21 214.608 470.21 214.608L469.227 216.388C469.227 216.388 471.078 214.499 472.568 216.995C472.568 216.995 472.319 219.311 470.408 218.724C470.408 218.724 471.138 219.78 470.433 219.803C469.728 219.826 468.586 220.206 467.732 217.963L466.968 215.598Z" fill="#7342CC"/>
<path d="M468.184 216.658C468.184 216.658 466.04 213.714 465.274 214.854C464.509 215.995 465.853 217.017 465.853 217.017L467.504 217.76L468.184 216.658Z" fill="#7342CC"/>
<path d="M467.893 217.189C467.917 217.169 467.937 217.145 467.951 217.118C467.966 217.071 467.966 217.02 467.949 216.974C467.896 216.754 467.824 216.539 467.734 216.332C467.738 216.31 467.773 216.32 467.79 216.334L468.136 216.627C468.153 216.645 468.176 216.657 468.201 216.66C468.22 216.658 468.239 216.651 468.254 216.64C468.305 216.613 468.347 216.574 468.378 216.526C468.392 216.501 468.399 216.473 468.395 216.445C468.392 216.417 468.38 216.39 468.36 216.37C468.406 216.303 468.468 216.249 468.54 216.212C468.576 216.194 468.617 216.187 468.657 216.19C468.697 216.194 468.736 216.208 468.768 216.232C468.787 216.246 468.801 216.266 468.809 216.288C468.817 216.31 468.818 216.334 468.813 216.357C468.805 216.375 468.797 216.392 468.787 216.409C468.724 216.53 468.8 216.702 468.706 216.801C468.689 216.819 468.667 216.837 468.67 216.86C468.673 216.874 468.681 216.886 468.693 216.894C468.769 216.944 468.854 216.979 468.944 216.996C469.033 217.012 469.126 217.012 469.215 216.993L469.571 216.965C469.663 217.065 469.761 217.195 469.717 217.323C469.703 217.362 469.678 217.395 469.644 217.418C469.611 217.441 469.571 217.454 469.531 217.454C469.448 217.452 469.366 217.399 469.289 217.427C469.248 217.449 469.218 217.487 469.205 217.531C469.192 217.575 469.196 217.623 469.217 217.664C469.263 217.744 469.321 217.817 469.389 217.88C469.519 218.031 469.586 218.226 469.578 218.424C469.573 218.457 469.576 218.49 469.585 218.522C469.604 218.554 469.628 218.583 469.656 218.608C469.682 218.637 469.699 218.673 469.706 218.711C469.712 218.75 469.707 218.79 469.692 218.826C469.676 218.861 469.647 218.89 469.612 218.907C469.577 218.924 469.537 218.928 469.498 218.92C469.389 218.888 469.354 218.756 469.304 218.654C469.208 218.459 469.01 218.33 468.904 218.14C468.849 218.041 468.821 217.928 468.765 217.83C468.743 217.784 468.708 217.746 468.665 217.719C468.631 217.702 468.594 217.692 468.556 217.688C468.433 217.672 468.307 217.676 468.185 217.699C468.092 217.731 467.992 217.735 467.897 217.711C467.844 217.681 467.799 217.639 467.766 217.587C467.733 217.536 467.713 217.477 467.709 217.417C467.71 217.319 467.821 217.255 467.893 217.189Z" fill="#C7C7C7"/>
<path d="M467.095 218.793C467.095 218.793 458.263 225.237 459.327 226.417" stroke="#C7C7C7" stroke-miterlimit="10"/>
<path d="M460.51 222.459C460.51 222.459 459.038 219.705 460.611 218.865C462.184 218.026 463.415 219.873 463.358 220.857C463.358 220.857 465.48 219.345 466.621 221.152C467.762 222.959 465.384 224.025 465.384 224.025C465.384 224.025 466.218 226.095 464.544 227.4C462.871 228.705 461.746 225.891 461.746 225.891C461.746 225.891 459.506 226.789 458.651 225.683C457.795 224.577 458.981 223.31 458.981 223.31L460.51 222.459Z" fill="#7342CC"/>
<path d="M463.394 222.906C463.447 222.901 463.49 222.859 463.542 222.846C463.597 222.838 463.652 222.845 463.703 222.868C463.858 222.921 464.043 223.016 464.034 223.179C464.025 223.346 463.819 223.419 463.652 223.431C463.485 223.443 463.284 223.453 463.2 223.597L463.511 224.075C463.536 224.106 463.549 224.144 463.549 224.183C463.544 224.232 463.498 224.265 463.457 224.291C463.347 224.36 463.233 224.424 463.117 224.482C463.029 224.299 462.918 224.129 462.785 223.976C462.759 223.94 462.722 223.913 462.68 223.9C462.64 223.896 462.6 223.905 462.565 223.925C462.39 224.013 462.037 224.372 461.827 224.143C461.653 223.954 461.97 223.807 462.009 223.625C462.085 223.265 461.894 222.89 462.106 222.516C462.329 222.123 462.294 222.274 462.511 222.481C462.585 222.552 462.537 222.697 462.663 222.751C462.809 222.814 462.885 222.621 463.004 222.646C463.152 222.677 463.255 222.919 463.394 222.906Z" fill="#C7C7C7"/>
<path opacity="0.1" d="M463.285 221.166C463.169 221.23 463.069 221.319 462.991 221.427C462.914 221.534 462.861 221.657 462.837 221.787C462.79 222.047 462.783 222.312 462.815 222.574" fill="black"/>
<path opacity="0.1" d="M462.517 224.254C462.401 224.318 462.301 224.407 462.224 224.515C462.147 224.622 462.094 224.745 462.07 224.875C462.023 225.135 462.016 225.4 462.047 225.662" fill="black"/>
<path opacity="0.1" d="M461.603 223.097C461.508 223.005 461.394 222.935 461.268 222.891C461.143 222.848 461.01 222.833 460.878 222.847C460.614 222.876 460.357 222.945 460.114 223.05" fill="black"/>
<path opacity="0.1" d="M465.073 224.289C464.994 224.183 464.892 224.096 464.775 224.033C464.658 223.97 464.529 223.934 464.397 223.927C464.132 223.914 463.867 223.941 463.61 224.006" fill="black"/>
<path d="M462.029 210.947C462.029 210.947 460.487 213.632 462.029 214.382C462.029 214.382 464.135 212.961 462.029 210.947Z" fill="#C7C7C7"/>
<path d="M466.008 210.348C466.008 210.348 463.279 211.823 464.194 213.269C464.194 213.269 466.736 213.163 466.008 210.348Z" fill="#C7C7C7"/>
<path d="M467.075 212.002C467.075 212.002 464.345 213.477 465.26 214.923C465.26 214.923 467.802 214.818 467.075 212.002Z" fill="#C7C7C7"/>
<path d="M464.341 212.916L461.539 219.411" stroke="#C7C7C7" stroke-width="2" stroke-miterlimit="10"/>
<path d="M465.712 214.381C465.712 214.381 462.271 216.598 462.273 217.759" stroke="#C7C7C7" stroke-width="2" stroke-miterlimit="10"/>
<path opacity="0.1" d="M31.9925 338.677C36.3068 338.677 39.8043 338.088 39.8043 337.362C39.8043 336.636 36.3068 336.047 31.9925 336.047C27.6781 336.047 24.1807 336.636 24.1807 337.362C24.1807 338.088 27.6781 338.677 31.9925 338.677Z" fill="#7342CC"/>
<path d="M26.7463 331.251C26.7463 331.251 31.2024 331.114 32.5453 330.162C33.8882 329.21 39.3998 328.073 39.7329 329.6C40.0661 331.127 46.4295 337.195 41.3987 337.236C36.3679 337.276 29.7093 336.455 28.3689 335.643C27.0286 334.83 26.7463 331.251 26.7463 331.251Z" fill="#A8A8A8"/>
<path opacity="0.2" d="M41.4885 336.705C36.4576 336.745 29.7991 335.925 28.4587 335.112C27.438 334.493 27.0312 332.271 26.8951 331.246C26.8008 331.25 26.7463 331.252 26.7463 331.252C26.7463 331.252 27.0286 334.83 28.3689 335.643C29.7093 336.456 36.3679 337.277 41.3987 337.237C42.8509 337.225 43.3525 336.71 43.325 335.948C43.1232 336.409 42.5694 336.696 41.4885 336.705Z" fill="black"/>
<path opacity="0.1" d="M350.289 271.622C352.417 271.622 354.143 271.331 354.143 270.973C354.143 270.615 352.417 270.324 350.289 270.324C348.16 270.324 346.434 270.615 346.434 270.973C346.434 271.331 348.16 271.622 350.289 271.622Z" fill="#7342CC"/>
<path d="M347.7 267.958C347.7 267.958 349.898 267.891 350.561 267.421C351.224 266.951 353.943 266.39 354.107 267.144C354.272 267.897 357.412 270.891 354.929 270.911C352.447 270.931 349.162 270.526 348.5 270.125C347.839 269.724 347.7 267.958 347.7 267.958Z" fill="#A8A8A8"/>
<path opacity="0.2" d="M354.974 270.648C352.491 270.668 349.206 270.264 348.545 269.862C348.041 269.557 347.84 268.461 347.773 267.955C347.727 267.957 347.7 267.958 347.7 267.958C347.7 267.958 347.839 269.724 348.5 270.125C349.162 270.526 352.447 270.931 354.929 270.911C355.646 270.905 355.893 270.651 355.88 270.275C355.78 270.502 355.507 270.644 354.974 270.648Z" fill="black"/>
<path opacity="0.1" d="M149.981 218.022C151.187 218.022 152.164 217.858 152.164 217.655C152.164 217.452 151.187 217.287 149.981 217.287C148.776 217.287 147.798 217.452 147.798 217.655C147.798 217.858 148.776 218.022 149.981 218.022Z" fill="#7342CC"/>
<path d="M148.515 215.947C148.515 215.947 149.761 215.909 150.136 215.643C150.511 215.377 152.051 215.059 152.144 215.486C152.237 215.913 154.016 217.608 152.61 217.62C151.204 217.631 149.343 217.402 148.969 217.174C148.594 216.947 148.515 215.947 148.515 215.947Z" fill="#A8A8A8"/>
<path opacity="0.2" d="M152.635 217.471C151.229 217.482 149.368 217.253 148.994 217.025C148.709 216.853 148.595 216.232 148.557 215.945C148.531 215.946 148.515 215.947 148.515 215.947C148.515 215.947 148.594 216.947 148.969 217.174C149.343 217.401 151.204 217.631 152.61 217.619C153.016 217.616 153.156 217.472 153.148 217.259C153.092 217.388 152.937 217.468 152.635 217.471Z" fill="black"/>
<path opacity="0.1" d="M352.114 354.214C357.371 354.214 361.632 353.631 361.632 352.913C361.632 352.194 357.371 351.611 352.114 351.611C346.857 351.611 342.596 352.194 342.596 352.913C342.596 353.631 346.857 354.214 352.114 354.214Z" fill="#7342CC"/>
<path opacity="0.1" d="M388.572 357.895C393.829 357.895 398.09 357.313 398.09 356.594C398.09 355.876 393.829 355.293 388.572 355.293C383.316 355.293 379.054 355.876 379.054 356.594C379.054 357.313 383.316 357.895 388.572 357.895Z" fill="#7342CC"/>
<path opacity="0.1" d="M431.516 352.913C436.773 352.913 441.034 352.33 441.034 351.612C441.034 350.893 436.773 350.311 431.516 350.311C426.259 350.311 421.998 350.893 421.998 351.612C421.998 352.33 426.259 352.913 431.516 352.913Z" fill="#7342CC"/>
<path opacity="0.1" d="M373.98 368C377.717 368 380.746 367.586 380.746 367.075C380.746 366.565 377.717 366.15 373.98 366.15C370.243 366.15 367.214 366.565 367.214 367.075C367.214 367.586 370.243 368 373.98 368Z" fill="#7342CC"/>
<path opacity="0.1" d="M411.82 367.075C415.556 367.075 418.585 366.66 418.585 366.15C418.585 365.639 415.556 365.225 411.82 365.225C408.083 365.225 405.054 365.639 405.054 366.15C405.054 366.66 408.083 367.075 411.82 367.075Z" fill="#7342CC"/>
<path d="M388.777 356.303C388.777 356.303 375.429 312.731 390.866 295.278C402.415 282.223 415.523 283.785 421.394 285.4C422.913 285.803 424.327 286.53 425.536 287.53C426.745 288.53 427.721 289.78 428.397 291.194C430.449 295.604 430.078 302.76 415.59 311.112C391.331 325.097 389.822 344.283 389.822 344.283L388.777 356.303Z" fill="#7342CC"/>
<path d="M419.304 291.58C419.304 291.58 379.956 303.831 388.777 356.303" stroke="white" stroke-miterlimit="10"/>
<path d="M396.322 295.971C396.322 295.971 401.74 299.607 400.017 305.07" stroke="white" stroke-miterlimit="10"/>
<path d="M415.358 299.208C415.358 299.208 412.045 295.852 408.014 297.704" stroke="white" stroke-miterlimit="10"/>
<path d="M399.804 316.082C399.804 316.082 393.987 313.143 392.484 316.824" stroke="white" stroke-miterlimit="10"/>
<path d="M385.411 322.207C385.411 322.207 389.778 321.86 389.858 323.941" stroke="white" stroke-miterlimit="10"/>
<path d="M388.237 356.65C388.237 356.65 403.871 324.982 408.166 325.675C410.206 326.005 411.146 328.003 411.57 330.01C412.098 332.606 411.8 335.3 410.719 337.719C408.501 342.786 402.542 352.41 388.237 356.65Z" fill="#7342CC"/>
<path d="M408.049 331.684C408.049 331.684 391.64 355.377 388.469 356.417" stroke="white" stroke-miterlimit="10"/>
<path d="M409.558 335.383H405.728" stroke="white" stroke-miterlimit="10"/>
<path d="M404.971 344.051L398.967 344.306" stroke="white" stroke-miterlimit="10"/>
<path d="M401.317 337.117L401.969 340.231" stroke="white" stroke-miterlimit="10"/>
<path d="M394.933 346.594L395.049 349.424" stroke="white" stroke-miterlimit="10"/>
<path d="M388.702 356.65C388.702 356.65 373.068 324.982 368.773 325.675C366.733 326.005 365.793 328.003 365.369 330.01C364.841 332.606 365.139 335.3 366.22 337.719C368.438 342.786 374.397 352.41 388.702 356.65Z" fill="#7342CC"/>
<path d="M368.889 331.684C368.889 331.684 385.299 355.377 388.47 356.417" stroke="white" stroke-miterlimit="10"/>
<path d="M367.38 335.383H371.211" stroke="white" stroke-miterlimit="10"/>
<path d="M371.968 344.051L377.972 344.306" stroke="white" stroke-miterlimit="10"/>
<path d="M375.622 337.117L374.97 340.231" stroke="white" stroke-miterlimit="10"/>
<path d="M382.006 346.594L381.89 349.424" stroke="white" stroke-miterlimit="10"/>
<path d="M415.545 364.045C415.971 363.7 416.282 363.233 416.435 362.708C416.504 362.444 416.48 362.165 416.366 361.917C416.253 361.67 416.058 361.468 415.813 361.346C415.242 361.129 414.632 361.523 414.169 361.921C413.707 362.319 413.176 362.773 412.571 362.689C412.882 362.408 413.115 362.051 413.247 361.654C413.379 361.256 413.405 360.832 413.324 360.421C413.297 360.251 413.225 360.092 413.114 359.96C412.797 359.623 412.222 359.768 411.843 360.034C410.636 360.879 410.299 362.512 410.292 363.981C410.226 363.442 410.218 362.897 410.27 362.355C410.294 362.084 410.25 361.811 410.143 361.56C410.036 361.309 409.869 361.088 409.657 360.917C409.37 360.763 409.047 360.687 408.721 360.698C408.452 360.659 408.178 360.678 407.917 360.752C407.655 360.826 407.412 360.954 407.204 361.127C407.004 361.398 406.901 361.729 406.911 362.065C406.922 362.402 407.046 362.725 407.263 362.983C407.711 363.487 408.242 363.911 408.834 364.235C409.284 364.502 409.668 364.867 409.957 365.301C409.991 365.362 410.018 365.426 410.04 365.492H413.442C414.205 365.106 414.913 364.62 415.545 364.045Z" fill="#7342CC"/>
<path d="M355.973 351.291C356.399 350.946 356.71 350.479 356.863 349.954C356.932 349.691 356.908 349.411 356.794 349.164C356.681 348.916 356.486 348.714 356.241 348.592C355.67 348.375 355.06 348.769 354.597 349.167C354.135 349.565 353.604 350.019 352.999 349.935C353.31 349.654 353.543 349.297 353.675 348.9C353.807 348.502 353.833 348.078 353.752 347.667C353.725 347.498 353.653 347.338 353.542 347.207C353.225 346.869 352.65 347.014 352.271 347.28C351.064 348.125 350.727 349.758 350.72 351.228C350.654 350.688 350.646 350.143 350.698 349.601C350.722 349.33 350.678 349.057 350.571 348.806C350.464 348.555 350.297 348.335 350.085 348.163C349.798 348.009 349.475 347.933 349.149 347.944C348.88 347.905 348.606 347.924 348.345 347.998C348.083 348.072 347.84 348.2 347.632 348.373C347.432 348.645 347.329 348.975 347.339 349.311C347.35 349.648 347.474 349.971 347.691 350.229C348.139 350.733 348.67 351.157 349.262 351.481C349.712 351.748 350.096 352.113 350.385 352.548C350.419 352.608 350.446 352.672 350.468 352.738H353.87C354.633 352.353 355.341 351.866 355.973 351.291Z" fill="#7342CC"/>
<path d="M375.828 364.045C376.254 363.7 376.564 363.233 376.717 362.708C376.786 362.444 376.762 362.165 376.649 361.917C376.536 361.67 376.34 361.468 376.096 361.346C375.525 361.129 374.914 361.523 374.452 361.921C373.989 362.319 373.459 362.773 372.853 362.689C373.165 362.408 373.398 362.051 373.53 361.654C373.661 361.256 373.688 360.832 373.606 360.421C373.579 360.251 373.507 360.092 373.396 359.96C373.079 359.623 372.505 359.768 372.125 360.034C370.918 360.879 370.581 362.512 370.575 363.981C370.508 363.442 370.5 362.897 370.552 362.355C370.576 362.084 370.532 361.811 370.425 361.56C370.318 361.309 370.152 361.088 369.939 360.917C369.652 360.763 369.329 360.687 369.004 360.698C368.735 360.659 368.46 360.678 368.199 360.752C367.937 360.826 367.695 360.954 367.486 361.127C367.286 361.398 367.183 361.729 367.194 362.065C367.204 362.402 367.328 362.725 367.546 362.983C367.993 363.487 368.524 363.911 369.116 364.235C369.566 364.502 369.95 364.867 370.239 365.301C370.273 365.362 370.301 365.426 370.322 365.492H373.724C374.488 365.106 375.195 364.62 375.828 364.045Z" fill="#7342CC"/>
<path d="M432.134 338.264C432.134 338.264 433.41 339.924 431.546 342.431C429.682 344.939 428.145 347.055 428.766 348.618C428.766 348.618 431.578 343.962 433.867 343.897C436.156 343.832 434.652 341.064 432.134 338.264Z" fill="#7342CC"/>
<path opacity="0.1" d="M432.134 338.264C432.246 338.424 432.333 338.599 432.395 338.784C434.628 341.397 435.818 343.836 433.671 343.897C431.672 343.954 429.273 347.514 428.698 348.413C428.717 348.483 428.74 348.551 428.766 348.618C428.766 348.618 431.578 343.962 433.867 343.897C436.156 343.832 434.652 341.064 432.134 338.264Z" fill="black"/>
<path d="M434.505 340.38C434.505 340.964 434.439 341.438 434.358 341.438C434.277 341.438 434.211 340.964 434.211 340.38C434.211 339.795 434.293 340.071 434.374 340.071C434.456 340.071 434.505 339.795 434.505 340.38Z" fill="#FFD037"/>
<path d="M435.319 341.078C434.803 341.358 434.354 341.527 434.315 341.456C434.276 341.385 434.662 341.101 435.178 340.821C435.693 340.541 435.49 340.745 435.529 340.816C435.568 340.887 435.834 340.799 435.319 341.078Z" fill="#FFD037"/>
<path d="M425.398 338.264C425.398 338.264 424.123 339.924 425.987 342.431C427.851 344.939 429.387 347.055 428.766 348.618C428.766 348.618 425.954 343.962 423.665 343.897C421.376 343.832 422.88 341.064 425.398 338.264Z" fill="#7342CC"/>
<path opacity="0.1" d="M425.398 338.264C425.287 338.424 425.199 338.599 425.137 338.784C422.904 341.397 421.714 343.836 423.861 343.897C425.861 343.954 428.26 347.514 428.834 348.413C428.815 348.483 428.793 348.551 428.766 348.618C428.766 348.618 425.954 343.962 423.665 343.897C421.376 343.832 422.88 341.064 425.398 338.264Z" fill="black"/>
<path d="M423.027 340.38C423.027 340.964 423.093 341.438 423.174 341.438C423.256 341.438 423.322 340.964 423.322 340.38C423.322 339.795 423.239 340.071 423.158 340.071C423.077 340.071 423.027 339.795 423.027 340.38Z" fill="#FFD037"/>
<path d="M422.214 341.078C422.729 341.358 423.179 341.527 423.217 341.456C423.256 341.385 422.87 341.101 422.355 340.821C421.839 340.541 422.043 340.745 422.004 340.816C421.965 340.887 421.698 340.799 422.214 341.078Z" fill="#FFD037"/>
<path d="M423.433 348.401C423.433 348.401 426.999 348.291 428.074 347.53C429.148 346.768 433.558 345.858 433.825 347.08C434.091 348.302 439.183 353.157 435.158 353.19C431.132 353.222 425.804 352.565 424.732 351.915C423.659 351.264 423.433 348.401 423.433 348.401Z" fill="#A8A8A8"/>
<path opacity="0.2" d="M435.23 352.765C431.204 352.797 425.876 352.14 424.804 351.49C423.987 350.994 423.661 349.217 423.552 348.396C423.477 348.4 423.433 348.401 423.433 348.401C423.433 348.401 423.659 351.265 424.732 351.915C425.804 352.566 431.132 353.222 435.158 353.19C436.32 353.181 436.721 352.769 436.699 352.159C436.538 352.528 436.094 352.758 435.23 352.765Z" fill="black"/>
</g>
<defs>
<clipPath id="clip0_1798:14430">
<rect width="494" height="368" fill="white"/>
</clipPath>
</defs>
</svg>
