<svg width="406" height="306" viewBox="0 0 406 306" fill="none" xmlns="http://www.w3.org/2000/svg">
<g clip-path="url(#clip0_3548_22870)">
<path opacity="0.1" d="M399.12 244.493C389.064 265.992 368.634 280.367 347.47 289.848C330.525 297.388 312.613 302.34 294.294 304.549C290.786 304.98 287.266 305.315 283.735 305.553C274.711 306.162 265.659 306.152 256.637 305.522C251.211 305.148 245.803 304.55 240.414 303.729C221.689 300.899 203.434 295.392 186.17 287.365C181.188 285.04 176.306 282.503 171.526 279.752C163.541 275.167 155.89 269.983 148.635 264.243C147.029 262.972 145.444 261.673 143.879 260.348L143.236 259.802C142.005 258.751 140.786 257.676 139.548 256.633C137.49 254.847 135.306 253.224 133.013 251.777C132.858 251.683 132.703 251.589 132.544 251.499C132.12 251.244 131.688 251.005 131.249 250.777C130.344 250.305 129.417 249.88 128.47 249.506C124.097 247.78 119.413 247.153 114.666 247.259C113.878 247.259 113.091 247.314 112.299 247.368C111.194 247.447 110.085 247.565 108.979 247.714L108.57 247.772C105.047 248.289 101.564 249.064 98.1469 250.091C92.8691 251.66 87.6859 253.621 82.4686 255.39C80.2537 256.147 78.0351 256.868 75.7975 257.516L75.3053 257.657C72.1229 258.584 68.8833 259.287 65.609 259.759C58.1684 260.745 50.6112 260.114 43.4186 257.908L43.1688 257.833L42.7069 257.692L42.0746 257.488C41.0145 257.143 39.9632 256.765 38.9207 256.355L38.2885 256.104C37.2788 255.701 36.2907 255.268 35.3239 254.805L34.6917 254.507C33.682 254.021 32.6939 253.507 31.7271 252.966C31.3788 252.777 31.0343 252.573 30.6935 252.381C29.6637 251.785 28.6541 251.16 27.6646 250.506C26.6146 249.813 25.5873 249.09 24.5827 248.337C24.1183 247.992 23.6589 247.638 23.2046 247.274C20.5855 245.199 18.133 242.907 15.8709 240.422C15.7459 240.293 15.6286 240.159 15.5112 240.03C14.9092 239.355 14.3186 238.669 13.7469 237.967C13.5349 237.708 13.3228 237.449 13.1146 237.182C12.4356 236.324 11.7806 235.447 11.1496 234.55C11.055 234.421 10.9641 234.287 10.8732 234.158C8.28631 230.452 6.14168 226.435 4.48605 222.195C4.43304 222.065 4.38382 221.932 4.33839 221.802C3.83357 220.456 3.37293 219.087 2.95646 217.696C2.78608 217.115 2.62328 216.519 2.47941 215.939C2.43019 215.766 2.38475 215.589 2.34311 215.417C0.253173 206.894 0.0146484 198.033 0.0146484 189.223C0.0146484 188.196 0.0146484 187.169 0.0146484 186.144C0.0752262 171.894 0.287248 157.401 2.3166 143.347C2.3166 143.249 2.34311 143.151 2.35825 143.057C3.03747 138.326 3.96135 133.636 5.1259 129.007C6.34472 124.15 7.90239 119.392 9.78661 114.769C14.4549 103.394 21.2434 93.0427 28.7815 83.4486C37.8682 71.905 48.28 61.2519 59.8769 52.4618C61.5428 51.1988 63.2314 49.9724 64.9427 48.7827L65.734 48.2453C66.0104 48.0531 66.2868 47.8531 66.5632 47.6844C67.1311 47.2922 67.699 46.9235 68.2745 46.5508L68.9181 46.1351L70.1448 45.3506L70.5234 45.127L71.1784 44.7348L71.8258 44.3425C72.5831 43.8797 73.3491 43.4273 74.124 42.9854C77.4331 41.0739 80.8204 39.3271 84.2859 37.7451C85.3082 37.277 86.3368 36.826 87.3716 36.3919C92.07 34.4095 96.8965 32.7698 101.816 31.485C103.633 31.0091 105.462 30.5907 107.302 30.2298C109.472 29.7958 111.654 29.4362 113.848 29.1512C117.338 28.6962 120.849 28.4252 124.366 28.3392C149.097 27.7156 174.077 36.0546 193.458 52.0382C201.182 58.4082 208.122 65.9509 216.796 70.8342C224.368 75.0861 233.232 76.8472 241.341 73.5015C248.043 70.7362 252.404 69.3633 259.931 69.783C275.506 70.6919 290.861 74.0186 305.482 79.6517C306.073 79.8753 306.663 80.1067 307.25 80.3381C345.38 95.4589 378.164 125.485 395.194 164.069C395.643 165.089 396.081 166.117 396.508 167.152C406.666 191.726 410.331 220.536 399.12 244.493Z" fill="#6C63FF"/>
<path opacity="0.1" d="M75.7867 108.803V257.524L75.2945 257.665C72.1121 258.592 68.8726 259.295 65.5983 259.767C58.1576 260.753 50.6004 260.122 43.4079 257.916L43.158 257.841L42.6961 257.7L42.0638 257.496C41.0037 257.151 39.9524 256.773 38.91 256.363L38.2777 256.112C37.2681 255.709 36.2799 255.276 35.3132 254.813L34.6809 254.515C33.6713 254.029 32.6831 253.515 31.7164 252.974C31.3681 252.786 31.0235 252.582 30.6828 252.389C29.653 251.793 28.6433 251.168 27.6539 250.514C26.6039 249.822 25.5766 249.098 24.572 248.345C24.1076 248 23.6482 247.646 23.1938 247.282C20.5748 245.207 18.1222 242.915 15.8601 240.43C15.7352 240.301 15.6178 240.167 15.5005 240.038C14.8985 239.363 14.3078 238.677 13.7361 237.975C13.5241 237.716 13.3121 237.457 13.1039 237.19C12.4249 236.332 11.7699 235.455 11.1389 234.558C11.0442 234.429 10.9533 234.295 10.8625 234.166C8.27557 230.46 6.13093 226.443 4.47531 222.203C4.4223 222.073 4.37308 221.94 4.32765 221.811C3.82283 220.464 3.36219 219.095 2.94572 217.704C2.77534 217.123 2.61254 216.527 2.46866 215.947C2.41945 215.774 2.37401 215.598 2.33236 215.425C0.24243 206.902 0.00390625 198.041 0.00390625 189.231C0.00390625 188.204 0.00390625 187.177 0.00390625 186.152C0.064484 171.902 0.276506 157.409 2.30586 143.355C2.30586 143.257 2.33236 143.159 2.34751 143.065C3.02672 138.334 3.9506 133.644 5.11516 129.015H43.7789V108.803H51.4875V92.5684H68.0782V108.803H75.7867Z" fill="#6C63FF"/>
<path opacity="0.1" d="M399.121 244.493C389.065 265.992 368.635 280.367 347.471 289.847C330.526 297.388 312.613 302.34 294.295 304.548C290.786 304.98 287.267 305.315 283.735 305.553C274.712 306.162 265.66 306.151 256.638 305.521C251.211 305.147 245.804 304.55 240.415 303.729C221.69 300.899 203.435 295.392 186.171 287.365C181.189 285.04 176.307 282.502 171.526 279.751C163.542 275.166 155.891 269.983 148.636 264.242C147.03 262.971 145.445 261.673 143.88 260.347L143.237 259.802C142.006 258.751 140.787 257.676 139.549 256.633C137.491 254.847 135.307 253.224 133.014 251.777C132.859 251.683 132.704 251.589 132.545 251.498C132.121 251.243 131.689 251.004 131.25 250.777C130.345 250.304 129.417 249.88 128.471 249.506V188.666H198.737V202.21H229.575V103.139H265.873V142.755H283.826V119.299H298.66V94.2426H305.475V79.6514C306.066 79.8749 306.657 80.1064 307.243 80.3378V94.2426H313.877V119.314H328.699V142.77H350.557V232.134H385.298V167.144H396.493C406.667 191.725 410.332 220.535 399.121 244.493Z" fill="#6E3FC3"/>
<path opacity="0.1" d="M256.645 118.048H240.422V134.855H256.645V118.048Z" fill="#7342CC"/>
<path opacity="0.1" d="M256.645 152.887H240.422V169.694H256.645V152.887Z" fill="#7342CC"/>
<path opacity="0.1" d="M256.645 187.729H240.422V204.536H256.645V187.729Z" fill="#7342CC"/>
<path opacity="0.1" d="M256.645 222.571H240.422V239.379H256.645V222.571Z" fill="#7342CC"/>
<path opacity="0.1" d="M256.645 257.409H240.422V274.217H256.645V257.409Z" fill="#7342CC"/>
<path opacity="0.1" d="M256.645 292.244V305.517C251.219 305.144 245.811 304.546 240.422 303.725V292.244H256.645Z" fill="#7342CC"/>
<path opacity="0.1" d="M190.608 210.388H133.82V218.001H190.608V210.388Z" fill="#7342CC"/>
<path opacity="0.1" d="M190.608 233.511H133.82V241.124H190.608V233.511Z" fill="#7342CC"/>
<path opacity="0.1" d="M190.608 256.633V264.242H148.642C147.037 262.971 145.452 261.673 143.887 260.347L143.243 259.802C142.013 258.751 140.794 257.676 139.556 256.633H190.608Z" fill="#7342CC"/>
<path opacity="0.1" d="M190.609 279.752V287.365H186.179C181.196 285.041 176.315 282.503 171.534 279.752H190.609Z" fill="#7342CC"/>
<path opacity="0.1" d="M294.302 163.56H283.742V174.499H294.302V163.56Z" fill="#7342CC"/>
<path opacity="0.1" d="M65.621 112.576H55.0615V123.516H65.621V112.576Z" fill="#7342CC"/>
<path opacity="0.1" d="M65.621 137.993H55.0615V148.933H65.621V137.993Z" fill="#7342CC"/>
<path opacity="0.1" d="M65.621 163.406H55.0615V174.346H65.621V163.406Z" fill="#7342CC"/>
<path opacity="0.1" d="M65.621 188.823H55.0615V199.763H65.621V188.823Z" fill="#7342CC"/>
<path opacity="0.1" d="M65.621 214.24H55.0615V225.18H65.621V214.24Z" fill="#7342CC"/>
<path opacity="0.1" d="M65.621 239.653H55.0615V250.593H65.621V239.653Z" fill="#7342CC"/>
<path opacity="0.1" d="M334.62 163.56H324.061V174.499H334.62V163.56Z" fill="#7342CC"/>
<path opacity="0.1" d="M294.302 190.545H283.742V201.484H294.302V190.545Z" fill="#7342CC"/>
<path opacity="0.1" d="M334.62 190.545H324.061V201.484H334.62V190.545Z" fill="#7342CC"/>
<path opacity="0.1" d="M294.302 217.535H283.742V228.475H294.302V217.535Z" fill="#7342CC"/>
<path opacity="0.1" d="M334.62 217.535H324.061V228.475H334.62V217.535Z" fill="#7342CC"/>
<path opacity="0.1" d="M294.302 244.524H283.742V255.464H294.302V244.524Z" fill="#7342CC"/>
<path opacity="0.1" d="M334.62 244.524H324.061V255.464H334.62V244.524Z" fill="#7342CC"/>
<path opacity="0.1" d="M294.302 271.51H283.742V282.449H294.302V271.51Z" fill="#7342CC"/>
<path opacity="0.1" d="M334.62 271.51H324.061V282.449H334.62V271.51Z" fill="#7342CC"/>
<path opacity="0.1" d="M283.742 305.552V298.496H294.302V304.548L283.742 305.552Z" fill="#7342CC"/>
<path opacity="0.1" d="M2.30957 143.068V149.344H42.696V143.068H2.30957ZM5.90638 148.952H2.94185V143.461H5.90638V148.952ZM9.50319 148.952H6.53866V143.461H9.50319V148.952ZM13.1 148.952H10.1355V143.461H13.1V148.952ZM16.6968 148.952H13.7323V143.461H16.6968V148.952ZM20.2936 148.952H17.3291V143.461H20.2936V148.952ZM23.8904 148.952H20.9259V143.461H23.8904V148.952ZM27.4872 148.952H24.5227V143.461H27.4872V148.952ZM31.084 148.952H28.1195V143.461H31.084V148.952ZM34.6808 148.952H31.7163V143.461H34.6808V148.952ZM38.2776 148.952H35.3131V143.461H38.2776V148.952ZM42.0638 148.952H38.9099V143.461H42.0638V148.952Z" fill="#6C63FF"/>
<path opacity="0.1" d="M2.30957 161.291V167.547H42.696V161.291H2.30957ZM5.90638 167.155H2.94185V161.683H5.90638V167.155ZM9.50319 167.155H6.53866V161.683H9.50319V167.155ZM13.1 167.155H10.1355V161.683H13.1V167.155ZM16.6968 167.155H13.7323V161.683H16.6968V167.155ZM20.2936 167.155H17.3291V161.683H20.2936V167.155ZM23.8904 167.155H20.9259V161.683H23.8904V167.155ZM27.4872 167.155H24.5227V161.683H27.4872V167.155ZM31.084 167.155H28.1195V161.683H31.084V167.155ZM34.6808 167.155H31.7163V161.683H34.6808V167.155ZM38.2776 167.155H35.3131V161.683H38.2776V167.155ZM42.0638 167.155H38.9099V161.683H42.0638V167.155Z" fill="#6C63FF"/>
<path opacity="0.1" d="M2.30957 179.511V185.767H42.696V179.511H2.30957ZM5.90638 185.375H2.94185V179.903H5.90638V185.375ZM9.50319 185.375H6.53866V179.903H9.50319V185.375ZM13.1 185.375H10.1355V179.903H13.1V185.375ZM16.6968 185.375H13.7323V179.903H16.6968V185.375ZM20.2936 185.375H17.3291V179.903H20.2936V185.375ZM23.8904 185.375H20.9259V179.903H23.8904V185.375ZM27.4872 185.375H24.5227V179.903H27.4872V185.375ZM31.084 185.375H28.1195V179.903H31.084V185.375ZM34.6808 185.375H31.7163V179.903H34.6808V185.375ZM38.2776 185.375H35.3131V179.903H38.2776V185.375ZM42.0638 185.375H38.9099V179.903H42.0638V185.375Z" fill="#6C63FF"/>
<path opacity="0.1" d="M2.30957 197.715V203.991H42.696V197.715H2.30957ZM5.90638 203.598H2.94185V198.107H5.90638V203.598ZM9.50319 203.598H6.53866V198.107H9.50319V203.598ZM13.1 203.598H10.1355V198.107H13.1V203.598ZM16.6968 203.598H13.7323V198.107H16.6968V203.598ZM20.2936 203.598H17.3291V198.107H20.2936V203.598ZM23.8904 203.598H20.9259V198.107H23.8904V203.598ZM27.4872 203.598H24.5227V198.107H27.4872V203.598ZM31.084 203.598H28.1195V198.107H31.084V203.598ZM34.6808 203.598H31.7163V198.107H34.6808V203.598ZM38.2776 203.598H35.3131V198.107H38.2776V203.598ZM42.0638 203.598H38.9099V198.107H42.0638V203.598Z" fill="#6C63FF"/>
<path opacity="0.1" d="M2.46484 215.95C2.60872 216.539 2.77152 217.127 2.94189 217.707V216.342H5.90642V221.834H4.32383C4.36926 221.963 4.41848 222.097 4.47148 222.226H42.7112V215.95H2.46484ZM9.50323 221.834H6.5387V216.342H9.50323V221.834ZM13.1 221.834H10.1355V216.342H13.1V221.834ZM16.6968 221.834H13.7323V216.342H16.6968V221.834ZM20.2936 221.834H17.3291V216.342H20.2936V221.834ZM23.8905 221.834H20.9259V216.342H23.8905V221.834ZM27.4873 221.834H24.5227V216.342H27.4873V221.834ZM31.0841 221.834H28.1195V216.342H31.0841V221.834ZM34.6809 221.834H31.7164V216.342H34.6809V221.834ZM38.2777 221.834H35.3132V216.342H38.2777V221.834ZM42.0638 221.834H38.91V216.342H42.0638V221.834Z" fill="#6C63FF"/>
<path opacity="0.1" d="M10.8584 234.169C10.9493 234.298 11.0401 234.432 11.1348 234.561H13.0998V237.193C13.308 237.456 13.52 237.715 13.7321 237.978V234.565H16.6966V240.056H15.4964C15.6138 240.186 15.7311 240.319 15.8561 240.449H42.6958V234.173L10.8584 234.169ZM20.2934 240.053H17.3289V234.561H20.2934V240.053ZM23.8902 240.053H20.9257V234.561H23.8902V240.053ZM27.487 240.053H24.5225V234.561H27.487V240.053ZM31.0838 240.053H28.1193V234.561H31.0838V240.053ZM34.6806 240.053H31.7161V234.561H34.6806V240.053ZM38.2774 240.053H35.3129V234.561H38.2774V240.053ZM42.0635 240.053H38.9097V234.561H42.0635V240.053Z" fill="#6C63FF"/>
<path opacity="0.1" d="M30.6826 252.389C31.0234 252.589 31.3679 252.781 31.7162 252.973V252.781H34.6807V254.515L35.313 254.813V252.781H38.2776V256.111L38.9098 256.362V252.781H42.0637V257.488L42.696 257.692V252.389H30.6826Z" fill="#6C63FF"/>
<path opacity="0.1" d="M155.216 88.7398C155.216 88.7398 146.189 88.1749 147.265 94.7253C147.21 95.0582 147.258 95.4007 147.402 95.7036C147.546 96.0066 147.779 96.2545 148.067 96.4119C148.067 96.4119 148.067 95.9255 148.991 96.0903C149.315 96.1454 149.644 96.1612 149.972 96.1373C150.415 96.1071 150.836 95.9281 151.172 95.6274C151.172 95.6274 153.709 94.5409 154.697 90.2459C154.697 90.2459 155.424 89.3085 155.397 89.0692L153.883 89.7439C153.883 89.7439 154.405 90.8814 153.996 91.8267C153.996 91.8267 153.947 89.787 153.652 89.8341C153.595 89.8341 152.861 90.2263 152.861 90.2263C152.861 90.2263 153.758 92.2111 153.08 93.6506C153.08 93.6506 153.338 91.2108 152.584 90.3715L151.486 91.0265C151.486 91.0265 152.535 93.074 151.823 94.7449C151.823 94.7449 152.009 92.1836 151.263 91.1873L150.29 91.9718C150.29 91.9718 151.274 93.9879 150.668 95.3764C150.668 95.3764 150.589 92.3915 150.074 92.164C149.705 92.4866 149.375 92.8555 149.093 93.2623C149.093 93.2623 149.767 94.7253 149.351 95.498C149.351 95.498 149.093 93.5133 148.881 93.5015C148.881 93.5015 148.037 94.8194 147.95 95.7216C147.989 94.8846 148.24 94.073 148.677 93.3682C148.189 93.4638 147.739 93.7051 147.382 94.0624C147.382 94.0624 147.515 93.1328 148.897 93.0504C148.897 93.0504 149.597 92.0542 149.786 91.9914C149.786 91.9914 148.42 91.8737 147.59 92.2542C147.59 92.2542 148.321 91.3756 150.036 91.7757L150.994 90.9637C150.994 90.9637 149.196 90.7088 148.435 90.9912C148.435 90.9912 149.309 90.2067 151.252 90.7794L152.296 90.1322C151.494 89.9501 150.672 89.8763 149.851 89.9125C149.851 89.9125 150.812 89.3752 152.603 89.9596L153.36 89.6105C153.36 89.6105 152.225 89.383 151.91 89.3477C151.596 89.3124 151.562 89.2183 151.562 89.2183C152.273 89.0954 153.003 89.1796 153.671 89.4615C153.671 89.4615 155.242 88.8417 155.216 88.7398Z" fill="#6C63FF"/>
<path opacity="0.1" d="M131.522 120.618C131.522 120.618 128.436 129.419 134.804 130.223C135.096 130.372 135.425 130.421 135.746 130.364C136.066 130.307 136.361 130.147 136.588 129.906C136.588 129.906 136.145 129.753 136.554 128.894C136.697 128.589 136.806 128.267 136.879 127.937C136.975 127.487 136.927 127.018 136.743 126.599C136.743 126.599 136.459 123.771 132.764 121.571C132.764 121.571 132.105 120.578 131.874 120.539L132.063 122.245C132.063 122.245 133.263 122.049 134.024 122.724C134.024 122.724 132.131 122.194 132.082 122.5C132.082 122.559 132.222 123.398 132.222 123.398C132.222 123.398 134.312 123.069 135.452 124.152C135.452 124.152 133.263 123.202 132.275 123.716L132.571 124.964C132.571 124.964 134.763 124.509 136.107 125.685C136.107 125.685 133.79 124.779 132.654 125.234L133.104 126.411C133.104 126.411 135.251 126.019 136.364 126.995C136.364 126.995 133.578 126.211 133.226 126.674C133.419 127.13 133.666 127.561 133.96 127.956C133.96 127.956 135.509 127.705 136.103 128.349C136.103 128.349 134.191 128.039 134.123 128.243C134.123 128.243 135.103 129.459 135.914 129.812C135.153 129.533 134.475 129.053 133.949 128.419C133.899 128.932 133.995 129.449 134.225 129.906C134.225 129.906 133.4 129.513 133.714 128.121C133.714 128.121 132.987 127.144 132.987 126.944C132.987 126.944 132.487 128.266 132.608 129.2C132.608 129.2 132.003 128.223 132.858 126.634L132.381 125.458C132.381 125.458 131.624 127.172 131.677 128.011C131.677 128.011 131.208 126.917 132.283 125.148L131.984 123.928C131.587 124.669 131.286 125.46 131.086 126.281C131.086 126.281 130.859 125.171 131.908 123.559L131.798 122.72C131.798 122.72 131.268 123.771 131.143 124.089C131.018 124.407 130.924 124.395 130.924 124.395C131.011 123.653 131.295 122.951 131.745 122.367C131.745 122.367 131.624 120.618 131.522 120.618Z" fill="#6C63FF"/>
<path opacity="0.1" d="M191.354 113.196C191.354 113.196 188.272 122.013 194.637 122.798C194.93 122.946 195.26 122.995 195.581 122.937C195.902 122.879 196.197 122.718 196.424 122.476C196.424 122.476 195.977 122.323 196.39 121.468C196.534 121.162 196.642 120.84 196.712 120.507C196.809 120.058 196.762 119.589 196.579 119.169C196.579 119.169 196.295 116.341 192.6 114.141C192.6 114.141 191.937 113.153 191.707 113.113L191.9 114.816C191.9 114.816 193.1 114.623 193.861 115.298C193.861 115.298 191.968 114.769 191.915 115.071C191.915 115.133 192.055 115.969 192.055 115.969C192.055 115.969 194.145 115.643 195.288 116.722C195.288 116.722 193.1 115.777 192.108 116.286L192.407 117.538C192.407 117.538 194.599 117.079 195.943 118.259C195.943 118.259 193.622 117.349 192.486 117.804L192.937 118.981C192.937 118.981 195.084 118.589 196.197 119.566C196.197 119.566 193.414 118.781 193.058 119.248C193.258 119.706 193.512 120.137 193.815 120.53C193.815 120.53 195.36 120.276 195.958 120.923C195.958 120.923 194.046 120.613 193.978 120.821C193.978 120.821 194.955 122.033 195.765 122.39C195.005 122.112 194.328 121.632 193.804 120.997C193.754 121.51 193.849 122.026 194.077 122.484C194.077 122.484 193.255 122.092 193.569 120.703C193.569 120.703 192.842 119.722 192.839 119.526C192.839 119.526 192.343 120.852 192.46 121.782C192.46 121.782 191.854 120.809 192.71 119.216L192.233 118.04C192.233 118.04 191.476 119.754 191.529 120.589C191.529 120.589 191.059 119.499 192.134 117.73L191.831 116.506C191.435 117.247 191.134 118.038 190.934 118.86C190.934 118.86 190.711 117.75 191.76 116.137L191.65 115.298C191.65 115.298 191.12 116.349 190.991 116.667C190.862 116.985 190.771 116.973 190.771 116.973C190.861 116.231 191.147 115.529 191.597 114.945C191.597 114.945 191.46 113.2 191.354 113.196Z" fill="#6C63FF"/>
<path opacity="0.1" d="M105.826 185.163C105.826 185.163 102.74 193.969 109.108 194.773C109.4 194.922 109.73 194.971 110.05 194.913C110.371 194.855 110.665 194.694 110.891 194.452C110.891 194.452 110.448 194.299 110.857 193.444C111.003 193.138 111.112 192.815 111.183 192.483C111.281 192.033 111.233 191.563 111.047 191.145C111.047 191.145 110.763 188.317 107.067 186.12C107.067 186.12 106.409 185.128 106.178 185.089L106.367 186.791C106.367 186.791 107.571 186.599 108.328 187.274C108.328 187.274 106.435 186.744 106.386 187.046C106.386 187.109 106.526 187.944 106.526 187.944C106.526 187.944 108.616 187.619 109.756 188.697C109.756 188.697 107.567 187.752 106.579 188.262L106.874 189.513C106.874 189.513 109.066 189.054 110.411 190.235C110.411 190.235 108.093 189.325 106.958 189.78L107.408 190.957C107.408 190.957 109.555 190.564 110.668 191.541C110.668 191.541 107.885 190.757 107.529 191.223C107.723 191.68 107.97 192.111 108.264 192.506C108.264 192.506 109.812 192.251 110.411 192.898C110.411 192.898 108.495 192.588 108.427 192.796C108.427 192.796 109.407 194.008 110.217 194.365C109.456 194.089 108.779 193.61 108.252 192.977C108.202 193.488 108.298 194.004 108.529 194.459C108.529 194.459 107.703 194.067 108.018 192.679C108.018 192.679 107.295 191.698 107.291 191.502C107.291 191.502 106.791 192.828 106.912 193.757C106.912 193.757 106.306 192.785 107.162 191.192L106.685 190.015C106.685 190.015 105.928 191.729 105.985 192.565C105.985 192.565 105.515 191.474 106.59 189.705L106.287 188.486C105.89 189.226 105.589 190.017 105.39 190.839C105.39 190.839 105.163 189.725 106.212 188.117L106.102 187.274C106.102 187.274 105.572 188.325 105.447 188.643C105.322 188.96 105.227 188.948 105.227 188.948C105.315 188.206 105.601 187.504 106.053 186.921C106.053 186.921 105.928 185.163 105.826 185.163Z" fill="#6C63FF"/>
<path opacity="0.1" d="M93.5809 102.17C93.5809 102.17 90.4991 110.972 96.8635 111.776C97.1558 111.924 97.4858 111.974 97.8066 111.917C98.1274 111.86 98.4227 111.699 98.6506 111.458C98.6506 111.458 98.2038 111.305 98.6165 110.446C98.7593 110.14 98.8673 109.818 98.9383 109.485C99.0352 109.038 98.9887 108.57 98.8058 108.152C98.8058 108.152 98.5218 105.324 94.8228 103.123C94.8228 103.123 94.164 102.131 93.9331 102.092L94.1262 103.798C94.1262 103.798 95.3263 103.602 96.0836 104.277C96.0836 104.277 94.1905 103.747 94.1413 104.053C94.1413 104.112 94.2814 104.951 94.2814 104.951C94.2814 104.951 96.3713 104.622 97.5147 105.704C97.5147 105.704 95.3263 104.755 94.3344 105.269L94.6297 106.516C94.6297 106.516 96.8219 106.057 98.1697 107.238C98.1697 107.238 95.8488 106.328 94.713 106.787L95.1635 107.964C95.1635 107.964 97.3103 107.571 98.4234 108.552C98.4234 108.552 95.6406 107.767 95.2847 108.23C95.4786 108.687 95.7252 109.118 96.0192 109.513C96.0192 109.513 97.5677 109.262 98.1659 109.905C98.1659 109.905 96.254 109.595 96.1858 109.799C96.1858 109.799 97.1626 111.015 97.9728 111.368C97.2125 111.088 96.5353 110.608 96.0079 109.976C95.9577 110.489 96.0538 111.005 96.2842 111.462C96.2842 111.462 95.4589 111.07 95.7769 109.678C95.7769 109.678 95.05 108.701 95.0462 108.501C95.0462 108.501 94.5502 109.823 94.6676 110.756C94.6676 110.756 94.058 109.78 94.9174 108.191L94.4366 107.014C94.4366 107.014 93.6794 108.728 93.7362 109.568C93.7362 109.568 93.2667 108.474 94.342 106.705L94.0391 105.485C93.6428 106.226 93.3412 107.017 93.1418 107.838C93.1418 107.838 92.9184 106.728 93.9634 105.116L93.8573 104.277C93.8573 104.277 93.3235 105.328 93.1985 105.642C93.0736 105.955 92.979 105.951 92.979 105.951C93.0665 105.209 93.3523 104.507 93.8043 103.924C93.8043 103.924 93.687 102.17 93.5809 102.17Z" fill="#6C63FF"/>
<path opacity="0.1" d="M116.465 150.102C116.465 150.102 118.846 159.123 124.495 155.985C124.816 155.932 125.113 155.775 125.343 155.537C125.573 155.299 125.724 154.992 125.775 154.659C125.775 154.659 125.328 154.801 125.188 153.855C125.135 153.52 125.043 153.192 124.915 152.879C124.748 152.453 124.448 152.097 124.064 151.867C124.064 151.867 122.258 149.725 118.006 150.133C118.006 150.133 116.915 149.721 116.703 149.827L117.809 151.102C117.809 151.102 118.683 150.227 119.679 150.317C119.679 150.317 117.828 151.023 117.964 151.294C117.994 151.349 118.577 151.945 118.577 151.945C118.577 151.945 120.092 150.427 121.637 150.627C121.637 150.627 119.323 151.161 118.801 152.173L119.736 153.016C119.736 153.016 121.273 151.333 123.03 151.49C123.03 151.49 120.626 152.133 119.952 153.185L120.982 153.887C120.982 153.887 122.496 152.275 123.973 152.42C123.973 152.42 121.269 153.451 121.228 154.032C121.641 154.289 122.084 154.494 122.545 154.64C122.545 154.64 123.681 153.51 124.51 153.671C124.51 153.671 122.773 154.561 122.833 154.769C122.833 154.769 124.31 155.161 125.162 154.973C124.386 155.201 123.566 155.214 122.784 155.012C123.027 155.461 123.394 155.826 123.836 156.06C123.836 156.06 122.943 156.228 122.428 154.906C122.428 154.906 121.292 154.542 121.171 154.377C121.171 154.377 121.504 155.758 122.117 156.448C122.117 156.448 121.08 156.013 120.895 154.2L119.846 153.522C119.846 153.522 120.19 155.369 120.69 156.024C120.69 156.024 119.698 155.412 119.592 153.326L118.668 152.51C118.758 153.356 118.954 154.187 119.251 154.981C119.251 154.981 118.453 154.196 118.411 152.267L117.854 151.643C117.854 151.643 118.006 152.82 118.078 153.153C118.15 153.487 118.078 153.545 118.078 153.545C117.737 152.886 117.579 152.142 117.623 151.396C117.623 151.396 116.552 150.043 116.465 150.102Z" fill="#6C63FF"/>
<path opacity="0.1" d="M181.07 158.158C181.07 158.158 183.452 167.179 189.097 164.041C189.419 163.99 189.717 163.834 189.947 163.595C190.178 163.357 190.33 163.049 190.38 162.716C190.38 162.716 189.93 162.857 189.79 161.931C189.739 161.595 189.649 161.267 189.521 160.955C189.35 160.529 189.05 160.174 188.665 159.943C188.665 159.943 186.859 157.801 182.607 158.213C182.607 158.213 181.517 157.797 181.309 157.903L182.411 159.178C182.411 159.178 183.285 158.303 184.281 158.393C184.281 158.393 182.43 159.099 182.57 159.37C182.596 159.425 183.183 160.021 183.183 160.021C183.183 160.021 184.697 158.503 186.242 158.703C186.242 158.703 183.925 159.237 183.403 160.249L184.341 161.092C184.341 161.092 185.856 159.409 187.632 159.566C187.632 159.566 185.231 160.209 184.557 161.261L185.587 161.963C185.587 161.963 187.102 160.351 188.574 160.496C188.574 160.496 185.871 161.527 185.833 162.108C186.245 162.366 186.687 162.57 187.147 162.716C187.147 162.716 188.283 161.586 189.112 161.747C189.112 161.747 187.378 162.637 187.435 162.845C187.435 162.845 188.911 163.237 189.767 163.049C188.99 163.277 188.169 163.29 187.386 163.088C187.63 163.536 187.996 163.9 188.438 164.136C188.438 164.136 187.545 164.304 187.03 162.982C187.03 162.982 185.894 162.618 185.776 162.453C185.776 162.453 186.106 163.834 186.719 164.524C186.719 164.524 185.682 164.089 185.496 162.276L184.448 161.59C184.448 161.59 184.792 163.437 185.296 164.092C185.296 164.092 184.304 163.481 184.198 161.394L183.27 160.578C183.36 161.425 183.557 162.256 183.857 163.049C183.857 163.049 183.054 162.265 183.013 160.335L182.456 159.711C182.456 159.711 182.607 160.888 182.679 161.221C182.751 161.555 182.679 161.614 182.679 161.614C182.338 160.955 182.181 160.21 182.225 159.464C182.225 159.464 181.157 158.099 181.07 158.158Z" fill="#6C63FF"/>
<path d="M156.832 248.757C156.832 248.757 176.475 241.905 172.408 217.625L147.458 210.914L141.665 230.836L156.832 248.757Z" fill="#CED7E7"/>
<path opacity="0.1" d="M141.665 230.836L156.828 248.757C156.828 248.757 176.471 241.905 172.405 217.625L141.665 230.836Z" fill="black"/>
<path d="M59.1273 51.4658C59.1273 51.4658 61.7776 55.9334 65.4009 53.7015C69.0242 51.4697 65.5486 45.3037 65.5486 45.3037C65.5486 45.3037 58.6086 44.3192 59.1273 51.4658Z" fill="#7342CC"/>
<path opacity="0.1" d="M65.401 53.7012C64.9736 53.9877 64.4942 54.1807 63.9923 54.2684C63.4903 54.3561 62.9763 54.3366 62.4819 54.2111C61.153 53.862 60.1307 52.803 59.5817 52.1087C59.418 51.9053 59.2662 51.6918 59.1274 51.4694C58.9419 48.9199 59.7067 47.4019 60.7668 46.5076C62.2245 45.2799 64.2425 45.2289 65.1133 45.2681C65.3821 45.2681 65.5373 45.3074 65.5373 45.3074L65.6092 45.4329C65.7115 45.6329 65.9348 46.0761 66.1734 46.6684C66.9836 48.61 67.9491 52.1284 65.401 53.7012Z" fill="black"/>
<path d="M158.763 216.483L172.393 217.625L197.76 217.841L177.773 243.336C177.773 243.336 171.432 243.693 170.125 244.619C168.819 245.544 150.479 245.05 150.479 245.05L147.519 231.981L158.763 216.483Z" fill="#FFA2A2"/>
<path opacity="0.05" d="M158.763 216.483L172.393 217.625L197.76 217.841L177.773 243.336C177.773 243.336 171.432 243.693 170.125 244.619C168.819 245.544 150.479 245.05 150.479 245.05L147.519 231.981L158.763 216.483Z" fill="black"/>
<path d="M144.978 147.936L148.147 153.506L148.836 163.217C148.836 163.217 151.043 171.498 152.698 173.926C154.352 176.353 155.041 182.782 155.041 182.782C155.041 182.782 155.73 188.78 156.556 190.062C157.381 191.345 158.486 200.653 158.486 200.653C158.486 200.653 165.794 215.789 172.408 217.644C172.408 217.644 139.601 228.784 156.832 248.776C156.832 248.776 144.565 251.914 141.669 248.349C138.772 244.783 131.192 191.941 131.192 191.941L133.536 147.383L144.978 147.936Z" fill="#CED7E7"/>
<path opacity="0.05" d="M144.978 147.936L148.147 153.506L148.836 163.217C148.836 163.217 151.043 171.498 152.698 173.926C154.352 176.353 155.041 182.782 155.041 182.782C155.041 182.782 155.73 188.78 156.556 190.062C157.381 191.345 158.486 200.653 158.486 200.653C158.486 200.653 165.794 215.789 172.408 217.644C172.408 217.644 139.601 228.784 156.832 248.776C156.832 248.776 144.565 251.914 141.669 248.349C138.772 244.783 131.192 191.941 131.192 191.941L133.536 147.383L144.978 147.936Z" fill="black"/>
<path d="M105.174 93.655C104.253 98.6025 104.526 103.709 105.969 108.521L100.865 123.657C100.865 123.657 61.9934 101.237 65.3024 95.8084C67.1766 92.7293 67.4151 84.5826 67.2636 78.1107C67.1538 73.192 66.8169 69.2461 66.8169 69.2461C66.8169 69.2461 114.522 74.1059 108.173 85.3867C106.736 87.9506 105.722 90.7452 105.174 93.655Z" fill="#FFA2A2"/>
<path opacity="0.1" d="M108.173 85.3867C106.736 87.9506 105.723 90.7452 105.174 93.655C98.0949 96.0014 90.4495 95.735 83.5381 92.9011C76.6267 90.0672 70.8761 84.8409 67.2641 78.1107C67.1543 73.192 66.8174 69.2461 66.8174 69.2461C66.8174 69.2461 114.511 74.1059 108.173 85.3867Z" fill="black"/>
<path d="M127.471 61.1062C127.475 66.3421 126.285 71.5049 124 76.1749C121.715 80.8449 118.398 84.8904 114.32 87.9825C110.241 91.0746 105.516 93.1261 100.528 93.9701C95.54 94.8141 90.4303 94.4269 85.614 92.8399C80.7978 91.2529 76.411 88.511 72.8102 84.837C69.2094 81.1629 66.4962 76.6605 64.8913 71.6957C63.2863 66.7308 62.8348 61.4437 63.5735 56.2641C64.3122 51.0844 66.2202 46.1585 69.1424 41.8866C69.5968 41.225 70.0751 40.5791 70.5774 39.9489C73.4394 36.3451 77.0009 33.4051 81.0308 31.3197C83.2172 30.1865 85.5232 29.3204 87.9026 28.7388C92.1989 27.6843 96.6587 27.557 101.004 28.3648C105.35 29.1726 109.489 30.8981 113.164 33.4341C116.838 35.9701 119.97 39.2623 122.363 43.1058C124.757 46.9494 126.362 51.2621 127.078 55.7757C127.345 57.5389 127.477 59.3214 127.471 61.1062Z" fill="#FFA2A2"/>
<path d="M140.15 197.923C139.669 200.582 140.271 205.442 141.184 210.388C141.222 210.604 141.263 210.82 141.305 211.035C141.347 211.251 141.407 211.584 141.46 211.855C141.88 213.981 142.339 216.087 142.785 218.001C143.232 219.916 143.633 221.555 143.974 222.904C144.489 224.924 144.841 226.195 144.841 226.195C144.841 226.195 144.887 227.443 144.947 229.427C144.981 230.573 145.019 231.969 145.057 233.51C145.057 233.958 145.084 234.413 145.095 234.883C145.114 235.703 145.133 236.554 145.152 237.425C145.152 237.707 145.152 237.99 145.171 238.276C145.171 239.214 145.205 240.171 145.22 241.124C145.239 242.434 145.254 243.744 145.261 245.015C145.261 245.501 145.261 245.98 145.261 246.45C145.261 247.666 145.261 248.831 145.261 249.902C145.22 252.942 145.102 255.237 144.853 255.899C144.766 256.127 144.686 256.374 144.61 256.633C144.282 257.85 144.044 259.092 143.898 260.347L143.255 259.802C142.024 258.751 140.805 257.676 139.567 256.633C137.509 254.847 135.325 253.224 133.032 251.777C132.877 251.683 132.722 251.589 132.563 251.498C132.139 251.244 131.707 251.004 131.268 250.777C130.363 250.304 129.436 249.88 128.489 249.506C124.116 247.78 119.433 247.152 114.685 247.258C112.792 248.008 111.561 248.545 111.561 248.545L109.153 249.298L108.752 249.424C106.143 250.247 102.475 251.416 101.153 251.902C99.0179 252.687 80.4773 256.684 80.4773 256.684C78.7835 257.163 77.0533 257.491 75.3055 257.664C72.1231 258.592 68.8835 259.294 65.6092 259.767C58.1686 260.752 50.6114 260.122 43.4188 257.915C43.2042 257.929 42.9888 257.922 42.7752 257.896C42.9077 257.896 43.0364 257.864 43.1538 257.841L42.6919 257.7L42.0596 257.496C40.9995 257.151 39.9482 256.773 38.9058 256.362L38.2735 256.111C37.2639 255.708 36.2757 255.276 35.309 254.813L34.6767 254.515C33.6671 254.028 32.6789 253.515 31.7122 252.973C31.3639 252.785 31.0193 252.581 30.6786 252.389C29.6487 251.793 28.6391 251.168 27.6497 250.514C27.4831 249.035 27.396 248.047 27.396 248.047L25.9194 240.43L25.8437 240.037L24.7836 234.546L24.7079 234.154L22.4021 222.206L22.3264 221.814L21.2663 216.323L21.1906 215.93L18.8545 203.991L18.7788 203.598L17.7187 198.107L17.643 197.715L15.3259 185.752L15.2502 185.359L14.19 179.888L14.1143 179.495L13.6941 177.338L13.0618 174.071C13.0618 174.071 11.0438 171.082 8.77212 167.548L8.51845 167.156C7.87103 166.163 7.20467 165.132 6.55725 164.12C6.34144 163.786 6.1332 163.457 5.92497 163.131C5.60946 162.637 5.30404 162.155 5.00872 161.684L4.80427 161.358L4.76263 161.292C1.499 156.059 3.68359 153.784 3.68359 153.784C3.68359 153.784 5.05416 151.862 6.82227 149.321C6.90935 149.191 7.00022 149.062 7.09487 148.928C7.8521 147.83 8.68504 146.63 9.50284 145.43L10.1351 144.496C10.3736 144.147 10.6084 143.798 10.8356 143.453C10.9264 143.323 11.0135 143.19 11.0968 143.061C12.8422 140.448 14.2809 138.169 14.5762 137.361C15.0381 136.087 17.9837 132.317 20.918 129.011C23.2313 126.398 25.5332 124.076 26.5669 123.519C28.9105 122.237 29.8759 118.091 29.8759 118.091C29.8759 118.091 34.9758 116.239 35.6649 114.812C36.354 113.384 46.0048 106.967 46.0048 106.967C46.0048 106.967 49.9082 104.362 51.487 102.793C51.7105 102.588 51.9055 102.352 52.0663 102.091C52.6153 101.072 56.2008 100.232 57.6584 99.9301C58.037 99.8517 58.2718 99.8086 58.2718 99.8086C58.8602 98.7008 59.6041 97.6895 60.4791 96.8079C61.0735 96.2627 61.8156 94.3839 62.4403 92.5639C63.118 90.5792 63.6442 88.669 63.6442 88.669C64.7498 84.8133 66.9533 85.9547 66.9533 85.9547C66.9503 86.4814 66.9985 87.007 67.0972 87.5237C68.0172 92.2305 73.0149 94.1917 75.6386 96.3922C78.535 98.8162 83.0822 105.104 86.6676 106.386C89.6359 107.449 93.0775 111.458 94.1679 112.796L94.2512 112.898C94.4329 113.117 94.5238 113.243 94.5238 113.243C94.5238 113.243 96.5569 113.133 97.795 113.109H98.2455C98.4974 113.083 98.7366 112.982 98.9346 112.819C100.165 111.952 101.998 109.411 102.796 108.826C103.758 108.108 104.727 96.5412 104.727 96.5412L104.777 96.5177C108.211 94.8507 111.894 111.536 111.894 111.536C111.894 111.536 118.373 113.537 118.925 114.965C119.031 115.247 119.52 115.749 120.254 116.357C123.599 119.005 127.158 121.347 130.893 123.358C130.976 123.402 131.056 123.445 131.139 123.48C131.214 123.522 131.291 123.56 131.37 123.594C131.51 123.664 131.647 123.727 131.775 123.786C131.98 123.88 132.169 123.959 132.343 124.021L132.57 124.104C133.113 124.291 133.624 124.565 134.085 124.916C134.221 125.018 134.357 125.124 134.49 125.237C135.006 125.682 135.48 126.176 135.906 126.712C135.97 126.791 136.031 126.873 136.092 126.951C136.379 127.324 136.637 127.693 136.849 128.034C137.197 128.56 137.514 129.108 137.799 129.673C137.799 129.673 143.448 139.672 145.243 140.809C147.037 141.947 148.139 153.522 148.139 153.522L142.081 176.785C142.081 176.785 141.797 182.669 141.267 188.67C140.972 192.035 140.597 195.46 140.15 197.923Z" fill="#CED7E7"/>
<path d="M94.5245 113.949C94.5245 113.949 90.462 116.231 87.2892 116.447C86.8739 116.467 86.4577 116.442 86.0474 116.373C82.7232 115.851 77.8467 113.019 77.8467 113.019L83.5675 106.52L90.5264 110.093L93.0858 112.56L94.5245 113.949Z" fill="#6E3FC3"/>
<path opacity="0.1" d="M127.062 55.7766C126.918 55.9875 126.754 56.1833 126.573 56.3611C124.582 58.3223 121.045 57.5103 118.331 57.0553C115.972 56.6558 113.667 55.9658 111.467 55C109.551 54.1528 107.253 53.1173 105.53 54.3332C104.867 54.796 104.413 55.5374 103.724 55.9453C103.035 56.3532 102.156 56.3807 101.342 56.3925C98.6922 56.3925 96.0419 56.4238 93.456 55.8041C89.598 54.8706 85.6074 52.5211 81.9387 54.0704C79.0688 55.2785 77.5127 58.5145 76.7365 61.6249C76.3579 63.1507 76.0778 64.7628 75.2221 66.0572C74.3664 67.3516 72.7119 68.2694 71.3035 67.6614C69.2249 66.7632 68.9182 63.1076 66.4118 62.9232C63.6593 62.7232 63.6934 65.6689 64.496 67.7987C65.6849 70.9366 67.241 74.0745 67.3091 77.3458C64.3509 71.8567 62.9531 65.6122 63.2774 59.3345C63.6017 53.0568 65.6348 47.0025 69.1416 41.8718C69.7519 41.4803 70.2295 40.9018 70.5084 40.2166C70.5364 40.1239 70.5592 40.0296 70.5765 39.9342C70.7848 38.8398 70.1979 37.6906 70.1638 36.5453C70.0313 33.7486 72.9542 31.7992 75.6348 31.4462C77.418 31.2108 79.2429 31.3913 81.03 31.3324C81.9301 31.3119 82.8253 31.1882 83.6992 30.9637C85.2068 30.4957 86.6185 29.7445 87.8639 28.7476C92.1602 27.6931 96.62 27.5658 100.966 28.3736C105.312 29.1814 109.451 30.9069 113.125 33.4429C116.8 35.9789 119.931 39.2711 122.325 43.1146C124.718 46.9582 126.323 51.2709 127.039 55.7845L127.062 55.7766Z" fill="black"/>
<path d="M127.709 53.466C127.52 54.2418 127.127 54.948 126.573 55.5056C124.582 57.4668 121.046 56.651 118.331 56.196C115.972 55.8051 113.667 55.1203 111.467 54.1563C109.551 53.313 107.253 52.2775 105.53 53.4935C104.867 53.9563 104.413 54.6976 103.724 55.1055C103.035 55.5135 102.157 55.5409 101.343 55.5488C98.6923 55.5684 96.0421 55.5841 93.4561 54.9643C89.5981 54.0269 85.6075 51.6813 81.9388 53.2267C79.0689 54.4348 77.5128 57.6747 76.7367 60.7851C76.3581 62.3109 76.0779 63.923 75.2222 65.2135C74.3666 66.504 72.712 67.4296 71.3036 66.8217C69.225 65.9234 68.9183 62.2678 66.4119 62.0835C63.6594 61.8834 63.6935 64.8291 64.4962 66.959C65.9046 70.6734 67.8204 74.3683 67.1919 78.3064C66.5672 78.3064 65.5336 78.2828 64.9202 78.2672C65.3973 77.4238 64.4886 76.4197 63.5837 76.1334C62.6788 75.8471 61.6225 75.851 60.9334 75.1685C60.2444 74.486 60.2406 73.4309 60.3125 72.4856C60.4696 70.4652 60.9467 68.4853 61.7247 66.6256C62.2207 65.4488 62.8606 64.1741 62.482 62.9424C62.2547 62.3842 61.9811 61.8474 61.6641 61.3382C60.8766 59.7692 61.0622 57.8081 61.7361 56.1881C62.0238 55.4978 62.2321 54.8467 62.4706 54.2269C62.7718 53.346 63.2077 52.5209 63.7617 51.7833C64.6287 50.6654 65.4768 48.9827 64.5189 47.9433C64.2766 47.6805 64.7612 47.5001 64.606 47.1588C64.5785 47.1005 64.5594 47.0384 64.5492 46.9745C64.5047 46.5613 64.6011 46.145 64.8218 45.7978C64.8665 45.7075 64.9158 45.6198 64.9694 45.535C65.013 45.4453 65.0623 45.3588 65.1171 45.2761C65.9555 43.8259 67.0697 42.5675 68.3921 41.5773C69.2137 40.9615 70.1753 40.3692 70.5009 39.3729C70.8795 38.1962 70.2132 36.945 70.1564 35.7016C70.0239 32.9049 72.9468 30.9555 75.6273 30.6025C78.3079 30.2495 81.0869 30.8339 83.6993 30.1161C87.4059 29.1041 90.0108 25.7152 93.3766 23.8129C95.2179 22.7929 97.2599 22.2224 99.3466 22.1449C101.433 22.0674 103.509 22.4849 105.416 23.3657C109.346 25.2249 112.311 28.9825 116.415 30.3946C117.869 30.8967 119.444 31.0967 120.754 31.9283C122.268 32.8932 123.188 34.5798 123.976 36.2429C125.176 38.7649 125.419 41.2988 126.248 43.9699C126.906 46.088 127.819 48.8572 127.895 51.2969C127.937 52.0255 127.875 52.7565 127.709 53.466Z" fill="#896363"/>
<g opacity="0.1">
<path opacity="0.1" d="M65.0115 48.551C65.0721 48.2999 65.0781 48.0381 65.029 47.7844C64.9798 47.5306 64.8769 47.2914 64.7276 47.084C64.826 47.3899 64.3982 47.5664 64.6329 47.8214C64.8199 48.0251 64.9507 48.277 65.0115 48.551Z" fill="black"/>
<path opacity="0.1" d="M64.7162 46.1855C64.6716 46.3224 64.6449 46.4649 64.6367 46.6092C64.7087 46.4836 64.8071 46.3542 64.7162 46.1855Z" fill="black"/>
<path opacity="0.1" d="M126.68 54.5484C124.685 56.5096 121.152 55.6977 118.43 55.2387C116.073 54.8455 113.77 54.1567 111.573 53.1873C109.654 52.3401 107.359 51.3046 105.633 52.5205C104.974 52.9834 104.52 53.7247 103.827 54.1326C103.134 54.5406 102.26 54.568 101.446 54.5759C98.7953 54.5759 96.145 54.6112 93.5553 53.9875C89.701 53.054 85.7105 50.7123 82.0417 52.2538C79.1719 53.4658 77.6158 56.7018 76.8396 59.8122C76.461 61.338 76.1846 62.9501 75.3252 64.2445C74.4657 65.5389 72.8112 66.4567 71.4065 65.8527C69.328 64.9505 69.0213 61.2988 66.5149 61.1145C64.5575 60.9693 64.0123 62.4206 64.1448 64.0327C64.2584 62.8011 64.902 61.8519 66.5149 61.9695C69.0213 62.1539 69.328 65.8095 71.4065 66.7078C72.8112 67.3157 74.4695 66.4018 75.3252 65.0996C76.1808 63.7974 76.461 62.1931 76.8396 60.6712C77.6158 57.5608 79.1719 54.3209 82.0417 53.1128C85.7105 51.5674 89.701 53.8973 93.5553 54.8465C96.1299 55.4702 98.8028 55.4505 101.446 55.4309C102.26 55.4309 103.119 55.4074 103.827 54.9916C104.535 54.5759 104.963 53.8424 105.633 53.3756C107.359 52.1636 109.654 53.1991 111.573 54.0424C113.771 55.0112 116.073 55.7013 118.43 56.0977C121.152 56.5527 124.685 57.3725 126.68 55.4035C127.763 54.3327 128.088 52.7833 128.017 51.0889C127.956 52.4342 127.577 53.6541 126.68 54.5484Z" fill="black"/>
<path opacity="0.1" d="M70.2893 34.9912C70.2683 35.1865 70.2607 35.3831 70.2665 35.5796C70.3044 36.3954 70.6035 37.2113 70.6982 38.0075C70.8382 37.0308 70.4028 36.011 70.2893 34.9912Z" fill="black"/>
<path opacity="0.1" d="M62.5964 62.8205C62.6276 62.9378 62.6516 63.057 62.6683 63.1775C62.7297 62.7728 62.7051 62.3592 62.5964 61.9654C62.3707 61.4052 62.097 60.867 61.7786 60.3573C61.4941 59.777 61.3255 59.1434 61.2826 58.4941C61.2056 59.4314 61.3771 60.3726 61.7786 61.2163C62.0977 61.7241 62.3714 62.2611 62.5964 62.8205Z" fill="black"/>
<path opacity="0.1" d="M67.2948 77.3251L65.0799 77.2898C65.1315 77.4285 65.1522 77.5774 65.1404 77.7255C65.1286 77.8736 65.0846 78.017 65.0117 78.1449C65.6364 78.1449 66.6738 78.1685 67.2834 78.1841C67.3893 77.5128 67.4261 76.8317 67.3932 76.1523C67.3846 76.5451 67.3517 76.9368 67.2948 77.3251Z" fill="black"/>
<path opacity="0.1" d="M63.6713 75.1563C62.7665 74.8738 61.7139 74.8699 61.04 74.1835C60.6433 73.7339 60.4196 73.1491 60.4115 72.54C60.3547 73.4422 60.4115 74.4149 61.04 75.0425C61.7139 75.7289 62.7665 75.7329 63.6713 76.0153C63.9657 76.104 64.2395 76.2541 64.4759 76.4565C64.7122 76.6588 64.9061 76.9091 65.0457 77.192C65.4281 76.38 64.5497 75.4269 63.6713 75.1563Z" fill="black"/>
</g>
<path opacity="0.1" d="M132.552 251.498C132.128 251.243 131.696 251.004 131.257 250.777C130.352 250.304 129.425 249.88 128.478 249.506C124.105 247.78 119.422 247.152 114.674 247.258C112.781 248.007 111.55 248.545 111.55 248.545L109.142 249.298L108.741 249.423C108.714 249.149 108.684 248.874 108.658 248.596C108.631 248.317 108.601 248.051 108.571 247.776C107.722 239.457 107.056 230.91 107.056 230.91V223.528V222.669L107.011 200.919L106.632 193.749L106.454 190.576L106.42 189.972L106.352 188.733L106.314 187.995C106.23 187.761 106.16 187.523 106.102 187.281C106.076 187.183 106.049 187.073 106.026 186.96C105.932 186.567 105.829 186.061 105.723 185.512C105.031 181.904 104.164 175.82 104.111 174.585C104.042 172.937 102.664 163.084 102.664 163.084C102.524 157.659 98.1209 147.446 97.0116 145.52C95.9022 143.594 94.6642 132.023 95.0806 131.399C95.2965 131.066 95.4365 129.093 95.5236 127.273C95.5236 127.065 95.5426 126.861 95.5501 126.661C95.6069 125.237 95.6334 124.049 95.6334 124.049L99.9647 123.162L101.127 122.927L101.218 122.907L101.256 122.986C101.381 123.225 101.771 123.99 102.229 124.994C102.282 125.1 102.331 125.214 102.384 125.327C102.407 125.382 102.433 125.437 102.46 125.492C103.308 127.414 104.288 129.944 104.247 131.399C104.179 133.972 107.007 140.185 107.007 140.185C107.28 141.613 113.277 155.82 113.277 155.82C113.277 155.82 118.172 169.744 117.896 172.031C117.619 174.318 120.239 189.454 120.239 189.454L122.928 205.022C124.234 208.089 125.956 215.158 125.956 215.158L126.611 219.166L126.736 219.931L128.482 230.627L129.337 235.868C129.337 235.868 129.697 238.653 130.242 241.751C130.288 242.03 130.341 242.312 130.394 242.595C130.73 244.634 131.207 246.646 131.821 248.615C132.126 249.559 132.37 250.522 132.552 251.498Z" fill="black"/>
<path d="M133.022 251.777C132.866 251.683 132.711 251.589 132.552 251.498C132.128 251.243 131.696 251.004 131.257 250.777C130.353 250.304 129.425 249.88 128.478 249.506C124.105 247.78 119.422 247.152 114.674 247.258C112.781 248.007 111.551 248.545 111.551 248.545L109.143 249.298C109.112 249.023 109.086 248.749 109.056 248.47C109.025 248.192 109.003 247.968 108.98 247.717C108.132 239.417 107.465 230.91 107.465 230.91V223.457V222.598L107.42 200.904L107.041 194.055L106.966 192.635L106.913 191.674L106.844 190.403L106.776 189.113L106.727 188.183V187.979C106.727 187.96 106.727 187.936 106.701 187.913C106.629 187.701 106.542 187.379 106.447 186.971L106.401 186.775C106.383 186.685 106.36 186.587 106.341 186.489C105.629 183.143 104.584 175.93 104.527 174.577C104.459 172.929 103.081 163.076 103.081 163.076C102.941 157.652 98.5377 147.438 97.4284 145.512C96.3191 143.586 95.0848 132.015 95.4975 131.391C95.736 130.999 95.8761 128.618 95.9669 126.653C95.9669 126.496 95.9669 126.343 95.9669 126.198C96.0162 124.986 96.0351 124.041 96.0351 124.041L100.064 123.217L101.086 123.009L101.245 122.978L101.623 122.899C101.623 122.899 102.119 123.849 102.714 125.155L102.79 125.32C103.657 127.257 104.683 129.893 104.652 131.391C104.584 133.964 107.412 140.177 107.412 140.177C107.685 141.605 113.682 155.812 113.682 155.812C113.682 155.812 118.578 169.736 118.301 172.023C118.025 174.31 120.645 189.446 120.645 189.446L123.333 205.014C124.639 208.082 126.362 215.15 126.362 215.15L126.971 218.884L127.096 219.641L128.471 228.082L129.739 235.86C129.739 235.86 130.118 238.633 130.64 241.743C130.689 242.026 130.739 242.308 130.792 242.595C131.127 244.643 131.604 246.665 132.219 248.643C132.555 249.668 132.823 250.715 133.022 251.777Z" fill="#6E3FC3"/>
<path d="M129.607 50.3277C129.607 50.3277 128.16 52.2575 126.854 52.2575C125.548 52.2575 120.463 52.0418 117.813 51.1867C115.163 50.3317 102.169 49.6845 102.169 49.6845C102.169 49.6845 83.7682 49.7551 83.1473 49.1118C82.5264 48.4685 71.7057 45.0404 70.6039 45.2561C70.373 45.3032 69.8088 45.4052 69.0554 45.5346L68.1922 45.6797C66.886 45.8955 65.2541 46.1465 63.7624 46.3308C61.9186 46.5544 60.2981 46.6682 59.7832 46.472V44.8286C59.7832 44.8286 61.9186 41.6122 62.0549 40.6905C62.1912 39.7687 63.9858 26.4052 68.673 21.6238C70.6094 17.789 73.7431 14.7471 77.5628 12.9946C83.9045 10.1352 90.2463 7.71116 90.2463 7.71116L91.3556 7.54642L94.9335 6.99729C95.0422 6.88512 95.16 6.78277 95.2856 6.69134C96.2775 5.90687 99.2837 4.20064 103.202 7.86806L103.895 9.01339C103.895 9.01339 115.954 11.9395 121.535 22.1494C127.115 32.3594 127.396 42.3575 127.808 46.927C127.808 46.927 127.532 48.2136 128.085 48.7117C128.285 48.8949 128.476 49.0886 128.656 49.2922C128.706 49.3432 128.755 49.3942 128.8 49.4491C128.959 49.6139 129.107 49.7865 129.228 49.9277C129.243 49.9387 129.255 49.9519 129.266 49.9669C129.296 50.004 129.327 50.0394 129.361 50.0728L129.607 50.3277Z" fill="#854EE9"/>
<path opacity="0.05" d="M129.606 50.3281C129.606 50.3281 128.16 52.2579 126.853 52.2579C125.547 52.2579 120.463 52.0422 117.812 51.1871C115.162 50.332 102.168 49.6848 102.168 49.6848C102.168 49.6848 83.7675 49.7554 83.1466 49.1122C82.5257 48.4689 71.705 45.0407 70.6032 45.2565C70.3723 45.3035 69.8081 45.4055 69.0547 45.535L68.8578 44.2798L68.8086 43.9699C68.8086 43.9699 89.6928 39.3298 103.614 41.7616C117.536 44.1935 127.808 46.8999 127.808 46.8999C127.808 46.8999 127.531 48.1865 128.084 48.6846C128.284 48.8678 128.475 49.0615 128.656 49.2651C128.705 49.3161 128.754 49.3671 128.8 49.422C128.959 49.5868 129.106 49.7594 129.227 49.9006C129.242 49.9116 129.255 49.9248 129.265 49.9398C129.295 49.9769 129.326 50.0122 129.36 50.0457L129.606 50.3281Z" fill="black"/>
<path opacity="0.1" d="M127.71 53.466C125.131 53.6739 120.38 53.0228 118.301 52.705C117.71 52.6148 117.131 52.505 116.548 52.3716C114.318 51.8696 107.461 50.4614 103.297 51.1126C98.2649 51.897 84.067 50.4693 84.067 50.4693C84.067 50.4693 75.3135 48.614 71.7962 47.1157C70.5052 46.5626 68.3471 46.39 66.2004 46.6646C65.6529 46.7353 65.1095 46.8361 64.5723 46.9666C61.6419 47.6844 59.1695 49.32 59.5974 52.1088C59.4336 51.9054 59.2819 51.6919 59.143 51.4695C58.9575 48.92 59.7223 47.402 60.7824 46.5077L61.0323 46.4018C62.3273 46.0206 63.6452 45.7284 64.9774 45.5271C65.1857 45.4918 65.4015 45.4604 65.6211 45.433C69.3883 44.9074 74.8365 44.7897 79.4328 47.1863C79.4328 47.1863 83.7036 49.2612 86.5999 49.2612C89.4963 49.2612 113.065 49.4769 118.581 51.1165C119.679 51.4452 120.799 51.6903 121.932 51.85C123.943 52.1186 125.987 51.9189 127.914 51.2655C127.953 52.0055 127.884 52.7474 127.71 53.466Z" fill="black"/>
<path opacity="0.1" d="M129.607 50.3284C129.607 50.3284 128.16 52.2582 126.854 52.2582C125.548 52.2582 120.463 52.0424 117.813 51.1874C115.163 50.3323 102.169 49.6851 102.169 49.6851C102.169 49.6851 83.7682 49.7557 83.1473 49.1124C82.5264 48.4692 71.7057 45.041 70.6039 45.2567C70.373 45.3038 69.8088 45.4058 69.0554 45.5352L68.1922 45.6804C66.6928 45.6724 65.2004 45.8918 63.7624 46.3315C61.9186 46.555 60.2981 46.6688 59.7832 46.4727V46.1471C60.1802 45.9084 60.5941 45.7013 61.0213 45.5274C63.5762 44.7862 66.207 44.3622 68.8585 44.2644C72.1638 44.1389 76.0294 44.5389 79.4256 46.3119C79.4256 46.3119 83.6963 48.3868 86.5927 48.3868C89.489 48.3868 113.058 48.5986 118.574 50.2421C119.673 50.5677 120.792 50.8115 121.925 50.9716C124.409 51.296 126.932 50.9207 129.228 49.8851C129.243 49.8962 129.255 49.9094 129.266 49.9244C129.296 49.9615 129.327 49.9968 129.361 50.0303L129.607 50.3284Z" fill="black"/>
<path d="M59.6505 52.042C59.6505 52.042 55.0314 48.3981 61.0286 45.9702C61.0286 45.9702 71.5048 42.6165 79.4329 46.7546C79.4329 46.7546 83.7036 48.8217 86.6 48.8217C89.4964 48.8217 113.065 49.0375 118.581 50.6809C119.68 51.007 120.8 51.2508 121.932 51.4105C124.867 51.7792 127.84 51.1939 130.439 49.7356C130.818 49.5199 131.159 49.4101 131.261 49.5356C131.606 49.9671 131.333 52.4656 128.3 52.9638C125.934 53.356 120.558 52.6147 118.297 52.2734C117.71 52.1832 117.127 52.0695 116.548 51.94C114.318 51.438 107.461 50.0298 103.278 50.6809C98.2499 51.4654 84.0482 50.0377 84.0482 50.0377C84.0482 50.0377 75.2985 48.1824 71.7812 46.6801C68.2639 45.1779 58.3405 46.4722 59.6505 52.042Z" fill="#854EE9"/>
<path opacity="0.1" d="M98.59 13.7557C98.2114 13.1909 93.3462 9.15475 91.3623 7.52305L94.9402 6.97391C95.0489 6.86175 95.1667 6.7594 95.2923 6.66797C97.8933 9.496 98.59 13.7557 98.59 13.7557Z" fill="black"/>
<path opacity="0.1" d="M82.81 35.4034L81.2236 37.8314L87.289 37.6196L87.4253 34.9053L82.81 35.4034Z" fill="black"/>
<path opacity="0.1" d="M119.819 38.333L120.508 40.5452L124.37 41.1885L122.716 38.5448L119.819 38.333Z" fill="black"/>
<path opacity="0.1" d="M53.5166 112.6C53.9293 113.313 67.5063 131.819 71.0917 131.305C74.6772 130.792 53.5166 112.6 53.5166 112.6Z" fill="black"/>
<path opacity="0.1" d="M99.0068 129.513C99.0068 129.513 102.316 132.8 101.831 134.082C101.347 135.365 99.0068 129.513 99.0068 129.513Z" fill="black"/>
<path opacity="0.1" d="M62.8916 152.078C62.8916 152.078 59.9952 166.144 61.5134 166.591C63.0317 167.038 62.8916 152.078 62.8916 152.078Z" fill="black"/>
<path opacity="0.1" d="M100.108 206.701C100.589 208.129 104.587 217.413 105.485 217.911C106.382 218.409 100.108 206.701 100.108 206.701Z" fill="black"/>
<path opacity="0.1" d="M146.564 168.572C146.424 169.07 142.978 172 143.736 173.071C144.493 174.142 146.564 168.572 146.564 168.572Z" fill="black"/>
<path opacity="0.1" d="M119.819 194.632C119.751 194.993 119.062 202.477 120.372 203.916C121.682 205.356 119.819 194.632 119.819 194.632Z" fill="black"/>
<path opacity="0.1" d="M155.136 233.511C154.136 234.088 153.103 234.645 152.05 235.178C150.914 235.751 149.778 236.296 148.62 236.81C148.158 237.018 147.696 237.222 147.238 237.418C146.541 237.716 145.852 238.002 145.171 238.277C143.1 239.116 141.104 239.846 139.329 240.462C138.64 240.701 137.981 240.92 137.367 241.124C134.278 242.14 132.226 242.693 132.226 242.693C131.757 242.589 131.277 242.549 130.799 242.572C130.666 242.572 130.53 242.572 130.39 242.572C129.748 242.62 129.11 242.704 128.478 242.823C124.249 243.607 118.274 245.808 114.673 247.247C112.78 247.996 111.55 248.534 111.55 248.534L109.142 249.287L108.741 249.412C106.132 250.236 102.463 251.405 101.142 251.891C99.0065 252.676 80.4659 256.673 80.4659 256.673C78.7721 257.152 77.0419 257.48 75.2941 257.653C70.9873 258.063 66.6584 258.165 62.338 257.959C57.9991 258.249 50.9797 257.261 46.8945 256.594L46.2433 256.488C44.6645 256.222 43.6611 256.029 43.6611 256.029L44.1912 255.272L55.0611 239.736L55.1255 239.642L65.2533 225.172L65.6319 224.647L66.552 223.333C66.552 223.333 67.1047 222.548 69.2325 222.497C69.4824 222.497 69.755 222.497 70.0541 222.497C71.8414 222.646 73.6047 223.019 75.3055 223.607L75.7977 223.76C83.1314 225.937 94.467 225.392 94.467 225.392C94.467 225.392 101.521 224.215 107.063 223.509L107.476 223.454C109.287 223.189 111.111 223.025 112.939 222.964C116.317 223.034 123.624 221.179 123.624 221.179C125.195 220.83 125.858 220.536 126.744 219.881C126.861 219.795 126.986 219.7 127.122 219.598C127.501 219.304 127.936 218.943 128.497 218.496C129.519 217.684 130.954 216.582 133.21 215.037C133.407 214.903 133.615 214.77 133.839 214.644C134.062 214.519 134.346 214.35 134.619 214.209C136.804 213.137 139.108 212.347 141.479 211.856C143.446 211.418 145.442 211.133 147.45 211.005H147.749C153.428 210.691 159.228 211.699 162.621 215.005C163.214 215.586 163.731 216.246 164.158 216.967C164.365 217.309 164.55 217.665 164.711 218.033C165.02 218.736 165.25 219.473 165.396 220.23C165.424 220.371 165.447 220.512 165.464 220.654C165.464 220.697 165.464 220.736 165.464 220.779C165.464 220.893 165.487 221.007 165.494 221.12C165.797 225.815 161.095 230.059 155.136 233.511Z" fill="black"/>
<path d="M43.6611 255.186C43.6611 255.186 55.9281 257.54 62.338 257.112C62.338 257.112 74.1242 257.755 80.4659 255.829C80.4659 255.829 99.0179 251.829 101.142 251.044C103.266 250.26 111.55 247.687 111.55 247.687C111.55 247.687 127.679 240.689 132.226 241.83C132.226 241.83 167.929 232.264 165.377 219.34C162.825 206.415 140.29 209.345 133.195 214.197C126.1 219.049 127.137 219.555 123.616 220.34C123.616 220.34 116.309 222.195 112.932 222.124C109.555 222.054 94.4594 224.552 94.4594 224.552C94.4594 224.552 82.6051 225.125 75.3017 222.768C67.9983 220.41 66.5482 222.481 66.5482 222.481L43.6611 255.186Z" fill="#FFA2A2"/>
<path opacity="0.1" d="M70.2627 221.642C70.2646 221.657 70.2646 221.673 70.2627 221.689C70.2363 221.98 70.1634 222.265 70.0469 222.532C68.593 226.227 60.3393 236.194 60.3393 236.194C59.963 237.378 59.5089 238.534 58.9801 239.653C57.8428 242.047 56.5329 244.348 55.0615 246.537C52.8804 249.812 50.4991 252.94 47.9322 255.9H47.9133C47.5866 256.151 47.2466 256.383 46.8948 256.594C46.0051 257.143 44.6686 257.822 43.4078 257.904C43.1931 257.917 42.9777 257.911 42.7642 257.884C42.8967 257.884 43.0254 257.853 43.1428 257.83L42.6809 257.688L42.0486 257.484C40.9885 257.139 39.9372 256.761 38.8948 256.351L38.2625 256.1C37.2529 255.697 36.2647 255.264 35.298 254.801L34.6657 254.503C33.656 254.017 32.6679 253.503 31.7011 252.962C31.3528 252.774 31.0083 252.57 30.6675 252.377C29.6377 251.781 28.6281 251.156 27.6386 250.503C26.5886 249.81 25.5613 249.087 24.5568 248.333C23.7995 246.878 23.1748 245.588 22.8341 244.894C22.2131 243.603 22.1601 241.756 22.2359 240.418C22.2359 240.281 22.2359 240.151 22.2586 240.026C22.3229 239.186 22.4214 238.61 22.4214 238.61C21.8604 237.833 21.3542 237.015 20.9069 236.162C20.65 235.739 20.5038 235.254 20.4829 234.754C20.5 234.554 20.4821 234.352 20.4299 234.158C20.1384 232.919 18.8852 230.789 17.7266 229.451C16.8634 228.467 16.8104 224.787 16.8937 222.179C16.9429 220.61 17.0375 219.457 17.0375 219.457C16.8679 219.343 16.7409 219.173 16.6778 218.974C16.3734 218.116 16.1675 217.223 16.0645 216.315C16.0645 216.186 16.0304 216.056 16.0115 215.923C15.7692 214.122 15.6594 212.314 15.6594 212.314C12.8577 210.2 11.5249 206.901 10.904 203.96L10.8245 203.567C10.4835 201.759 10.3387 199.917 10.3929 198.076C10.3929 197.9 10.3929 197.766 10.3929 197.684C10.3929 197.601 10.3929 197.586 10.3929 197.586C10.3929 197.586 10.7639 189.086 11.8013 185.768C11.843 185.626 11.8884 185.497 11.9338 185.375C12.0103 185.167 12.1094 184.968 12.2292 184.783C12.6078 184.261 12.8766 183.277 13.1 182.112C13.2552 181.304 13.3839 180.406 13.4786 179.511C13.5657 178.766 13.6338 178.025 13.6868 177.338C13.8345 175.503 13.8799 174.071 13.8799 174.071L13.1795 170.494C12.9864 169.517 12.8387 168.533 12.7365 167.548C12.7365 167.419 12.7062 167.289 12.6911 167.156C12.514 165.338 12.4823 163.508 12.5964 161.684C12.5964 161.551 12.5964 161.422 12.6191 161.292C12.9148 157.139 13.9629 153.08 15.7086 149.329L15.8979 148.937C16.1503 148.414 16.4153 147.9 16.693 147.395C16.8937 147.022 17.1057 146.654 17.3253 146.289C17.9074 145.312 18.5393 144.368 19.2183 143.461C19.3168 143.328 19.419 143.198 19.5212 143.069C20.7026 141.551 22.0156 140.149 23.4436 138.88C27.2676 135.475 30.7773 133.996 33.9652 133.883C47.9057 133.373 55.724 158.915 56.9886 163.391C57.1098 163.822 57.1703 164.057 57.1703 164.057C57.1703 164.057 62.8192 169.913 61.1647 172.483C60.8439 173.048 60.6486 173.681 60.593 174.334C60.1386 177.79 61.4411 183.481 61.4411 183.481C61.4411 183.481 61.903 185.05 63.2508 188.808L63.6484 189.906C64.4927 192.259 64.6896 196.209 64.2049 199.747C63.7392 203.136 62.6451 206.133 60.8921 206.901C57.3066 208.47 58.2721 210.039 59.0975 211.33C59.5879 212.255 59.9972 213.224 60.3204 214.224C60.8391 215.672 61.3199 217.194 61.5016 217.786C61.5546 217.951 61.5812 218.041 61.5812 218.041C62.0834 217.84 62.6051 217.695 63.1372 217.609C63.815 217.511 64.4851 217.582 64.6138 218.182C64.682 218.504 65.0719 218.884 65.6209 219.265C67.249 220.426 70.2627 221.642 70.2627 221.642Z" fill="black"/>
<path d="M69.4374 221.641C69.4143 221.94 69.3412 222.232 69.2216 222.504C67.7753 226.203 59.514 236.193 59.514 236.193C59.1361 237.377 58.682 238.532 58.1548 239.653C57.2411 241.586 56.2079 243.455 55.0615 245.25C52.6881 248.959 50.0588 252.485 47.194 255.801L47.1069 255.899C47.1069 255.899 46.7737 256.162 46.2437 256.499C45.2966 257.126 44.2529 257.579 43.158 257.841L42.6961 257.7L42.0638 257.496C41.0037 257.15 39.9524 256.773 38.91 256.362L38.2777 256.111C37.2681 255.708 36.2799 255.276 35.3132 254.813L34.6809 254.515C33.6713 254.028 32.6831 253.514 31.7164 252.973C31.368 252.785 31.0235 252.581 30.6828 252.389C29.6529 251.792 28.6433 251.167 27.6539 250.514C26.6039 249.821 25.5766 249.098 24.572 248.345C24.1075 248 23.6482 247.645 23.1938 247.282C22.6827 246.278 22.2738 245.43 22.0201 244.905C21.3992 243.614 21.3462 241.767 21.4219 240.429C21.4219 240.292 21.4219 240.163 21.4446 240.037C21.509 239.198 21.6074 238.621 21.6074 238.621C21.6074 238.621 21.3008 238.194 20.9297 237.613C20.7215 237.291 20.4981 236.919 20.2975 236.55C19.9188 235.86 19.6235 235.162 19.6803 234.765C19.688 234.698 19.688 234.629 19.6803 234.561C19.6746 234.429 19.6556 234.298 19.6235 234.169C19.332 232.93 18.075 230.8 16.9165 229.462C16.0532 228.478 16.0002 224.799 16.0797 222.19C16.0797 222.057 16.0797 221.928 16.0797 221.798C16.1327 220.445 16.2122 219.468 16.2122 219.468C15.7844 219.276 15.455 217.852 15.243 216.33L15.1862 215.938C14.9439 214.138 14.8341 212.329 14.8341 212.329C12.0324 210.215 10.6997 206.917 10.0825 203.975C9.65258 201.914 9.48708 199.804 9.59032 197.699C9.59032 197.636 9.59032 197.601 9.59032 197.601C9.59032 197.601 9.91593 189.058 10.9533 185.736C10.995 185.595 11.0404 185.465 11.0858 185.344C11.1767 185.14 11.2897 184.948 11.4228 184.771C11.9983 183.939 12.3807 181.939 12.6306 179.891L12.676 179.499C12.9903 176.754 13.0773 174.059 13.0773 174.059L12.3731 170.482C12.1813 169.501 12.0336 168.519 11.9301 167.536C11.9112 167.407 11.8999 167.273 11.8847 167.144C11.7077 165.326 11.676 163.496 11.7901 161.672C11.7901 161.539 11.7901 161.409 11.8166 161.28C12.1104 157.126 13.1586 153.067 14.906 149.317C14.9666 149.183 15.0272 149.054 15.0953 148.924C15.5821 147.906 16.1231 146.916 16.7158 145.959C16.9202 145.626 17.1285 145.296 17.3481 144.971C17.6926 144.453 18.0523 143.943 18.4271 143.449L18.73 143.056C19.9013 141.545 21.2028 140.147 22.6183 138.879C26.7831 135.18 30.5692 133.753 33.9767 133.882C47.3985 134.38 54.9328 159.005 56.1709 163.39C56.292 163.822 56.3526 164.057 56.3526 164.057C56.3526 164.057 62.0053 169.913 60.3507 172.482C60.0299 173.048 59.8347 173.68 59.779 174.333C59.3209 177.789 60.6271 183.48 60.6271 183.48C60.6271 183.48 61.089 185.049 62.4369 188.807C62.558 189.156 62.6906 189.521 62.8155 189.905C63.6598 192.259 63.8567 196.209 63.3721 199.747C62.9064 203.139 61.816 206.132 60.0592 206.901C56.4776 208.47 57.4392 210.039 58.2684 211.329C58.7588 212.254 59.1681 213.223 59.4913 214.224C60.1463 216.071 60.7483 218.04 60.7483 218.04C60.9961 217.941 61.2488 217.856 61.5055 217.785C62.0322 217.606 62.59 217.546 63.1411 217.609C63.2936 217.621 63.4384 217.683 63.5548 217.786C63.6711 217.889 63.7529 218.028 63.7885 218.182C63.8908 218.652 64.6745 219.237 65.6248 219.79C66.8587 220.486 68.1319 221.104 69.4374 221.641Z" fill="#CED7E7"/>
<path opacity="0.1" d="M19.6045 183.924C20.9145 183.854 34.9761 178.213 37.8725 180.139C40.7689 182.065 58.6961 194.562 58.6961 194.562C58.6961 194.562 47.4627 179.355 37.6756 175.785C27.8885 172.216 19.6045 183.924 19.6045 183.924Z" fill="black"/>
<path opacity="0.1" d="M39.8184 206.917C39.8184 206.917 53.88 209.843 56.0153 211.843L39.8184 206.917Z" fill="black"/>
<path opacity="0.1" d="M37.1113 228.701C36.9068 228.917 31.8107 240.766 32.2196 240.766C32.6285 240.766 36.975 233.706 36.975 233.706L37.1113 228.701Z" fill="black"/>
<path opacity="0.1" d="M46.6945 214.482C46.6945 214.482 42.56 215.985 43.0409 216.126C43.5217 216.267 46.5544 215.126 46.6945 214.482Z" fill="black"/>
<path opacity="0.1" d="M42.5596 232.409C43.2486 233.908 45.4522 238.406 45.9368 237.693C46.4214 236.979 42.5596 232.409 42.5596 232.409Z" fill="black"/>
<path opacity="0.1" d="M94.1721 113.647L93.5815 114.518C93.5815 114.518 88.8905 111.094 86.9634 109.379C85.0362 107.665 80.4853 115.518 76.8999 117.66C73.3144 119.801 67.2529 120.374 67.2529 120.374C67.2529 120.374 62.5657 115.518 62.7095 114.098C62.8534 112.678 60.506 112.243 60.3659 111.243C60.2258 110.242 59.4005 107.387 58.2987 105.959C57.7156 105.206 57.6324 102.849 57.6854 100.797C58.064 100.719 58.2987 100.676 58.2987 100.676C58.8872 99.5679 59.631 98.5567 60.506 97.6751C61.7479 96.5337 63.675 89.5362 63.675 89.5362C64.7767 85.6805 66.9803 86.8219 66.9803 86.8219C66.9803 92.678 72.773 94.8196 75.6656 97.2476C78.5582 99.6755 83.1091 105.959 86.6946 107.246C89.6364 108.285 93.078 112.306 94.1721 113.647Z" fill="black"/>
<path d="M94.1725 112.788L93.5819 113.663C93.5819 113.663 88.8719 110.247 86.9448 108.521C85.0177 106.795 80.4668 114.659 76.8813 116.801C73.2959 118.943 67.2343 119.519 67.2343 119.519C67.2343 119.519 62.5471 114.659 62.691 113.243C62.8348 111.827 60.4875 111.388 60.3474 110.384C60.2073 109.38 59.3819 106.528 58.2802 105.101C57.6971 104.347 57.6138 101.99 57.6668 99.9387L58.2802 99.821C58.8686 98.7132 59.6125 97.702 60.4875 96.8204C61.7293 95.6751 63.6564 88.6815 63.6564 88.6815C64.7582 84.8258 66.9617 85.9633 66.9617 85.9633C66.9617 91.8194 72.7545 93.9649 75.6471 96.3929C78.5396 98.8208 83.0905 105.101 86.676 106.387C89.6367 107.442 93.0783 111.447 94.1725 112.788Z" fill="#CED7E7"/>
<path opacity="0.1" d="M94.524 113.949C94.524 113.949 90.4615 116.232 87.2887 116.447C86.8734 116.467 86.4572 116.442 86.0469 116.373C86.0469 116.373 89.549 113.662 92.8013 113.109L94.524 113.949Z" fill="black"/>
<path opacity="0.1" d="M102.796 125.586C102.796 125.586 97.6738 123.519 95.9814 126.63C96.0382 125.202 96.061 124.017 96.061 124.017L101.645 122.872C101.645 122.872 102.183 123.904 102.812 125.292C102.796 125.477 102.796 125.586 102.796 125.586Z" fill="black"/>
<path d="M86.0469 116.373C86.0469 116.373 92.1842 112.557 95.1335 112.879C98.2268 113.212 104.22 113.447 104.22 113.447C104.22 113.447 102.153 118.303 102.429 119.303C102.706 120.304 102.774 125.16 102.774 125.16C102.774 125.16 96.5723 122.661 95.5387 127.301C95.5387 127.301 92.1614 122.088 89.886 120.515C88.3761 119.385 87.0756 117.982 86.0469 116.373Z" fill="#6E3FC3"/>
<path opacity="0.1" d="M120.716 120.805C118.925 120.805 112.583 116.659 111.205 113.949C109.827 111.239 107.896 114.231 106.105 115.236C104.97 115.879 100.468 114.534 98.041 113.557C99.2715 112.69 101.998 110.25 102.796 109.666C103.758 108.948 104.727 97.381 104.727 97.381C108.173 95.5257 111.894 112.376 111.894 112.376C111.894 112.376 118.376 114.377 118.925 115.804C119.031 116.087 119.52 116.589 120.254 117.197C121.011 119.174 121.428 120.805 120.716 120.805Z" fill="black"/>
<path d="M120.716 119.946C118.925 119.946 112.583 115.804 111.205 113.094C109.827 110.383 107.896 113.376 106.105 114.376C104.97 115.019 101.361 113.776 98.9346 112.807C100.165 111.944 101.998 109.403 102.796 108.814C103.758 108.1 104.727 96.5333 104.727 96.5333C108.173 94.678 111.894 111.529 111.894 111.529C111.894 111.529 118.376 113.529 118.925 114.957C119.031 115.239 119.52 115.741 120.254 116.349C121.011 118.314 121.428 119.946 120.716 119.946Z" fill="#CED7E7"/>
<path d="M145.209 245.059L205.147 193.283C205.745 192.76 206.507 192.481 207.29 192.499L229.651 193.107C229.651 193.107 231.199 194.284 228.928 196.857L172.386 244.925C171.775 245.443 171.017 245.738 170.228 245.765L145.777 246.604C145.601 246.61 145.429 246.559 145.282 246.458C145.136 246.357 145.024 246.211 144.961 246.041C144.899 245.871 144.889 245.685 144.934 245.509C144.978 245.333 145.074 245.175 145.209 245.059Z" fill="#7342CC"/>
<path d="M174.203 238.688C174.203 238.688 187.296 258.112 201.842 240.046C216.388 221.979 212.182 212.487 207.771 211.985C203.36 211.483 178.542 231.263 174.203 238.688Z" fill="#FFA2A2"/>
<path opacity="0.1" d="M262.507 21.4437C262.507 21.4437 279.382 -12.4848 299.327 5.01287C299.327 5.01287 303.681 6.65634 303.351 11.4259C303.351 11.4259 301.674 10.4728 300.341 14.1167C299.852 15.4096 299.216 16.638 298.448 17.7763C297.427 19.3139 295.953 20.4672 294.246 21.0632C294.246 21.0632 285.295 28.0097 268.716 22.6518C268.716 22.6518 264.029 23.35 263.272 22.7459L268.72 18.6196C268.72 18.6196 271.487 22.8754 275.535 23.3617C275.535 23.3617 268.72 18.9294 269.5 17.9685C269.659 17.7723 272.483 15.9171 272.483 15.9171C272.483 15.9171 277.326 23.295 283.603 23.8403C283.603 23.8403 274.808 19.6865 273.547 15.211L277.966 12.6576C277.966 12.6576 282.713 20.718 289.843 21.6202C289.843 21.6202 280.794 16.9486 278.969 12.1673L283.645 10.2767C283.645 10.2767 288.427 18.043 294.359 18.7529C294.359 18.7529 284.432 12.2614 284.743 9.91583C284.743 9.91583 289.138 8.44887 290.486 8.64106C290.486 8.64106 294.041 14.1324 297.525 14.2304C297.525 14.2304 291.334 9.16274 291.743 8.38219C291.743 8.38219 297.96 8.04878 301.208 9.60597C301.208 9.60597 296.589 6.94268 291.743 7.37414C291.743 7.37414 293.935 4.703 296.794 4.11464C296.794 4.11464 293.367 2.65552 290.236 7.4722C290.236 7.4722 285.401 7.93111 284.803 8.48809C284.803 8.48809 287.249 3.27918 290.259 1.06304C290.259 1.06304 285.772 1.88282 283.55 8.94309L278.81 10.7356C278.81 10.7356 281.691 3.67534 284.232 1.4945C284.232 1.4945 279.779 3.06345 277.651 11.3004L273.29 13.7558C273.29 13.7558 275.323 7.48004 277.644 4.41667C277.644 4.41667 273.816 6.79363 272.063 14.505L269.337 16.4937C269.337 16.4937 270.901 11.9359 271.465 10.6689C272.029 9.402 271.745 9.13921 271.745 9.13921C269.85 11.4601 268.614 14.2804 268.175 17.286C268.175 17.286 262.821 21.7575 262.507 21.4437Z" fill="#6C63FF"/>
<path opacity="0.1" d="M332.296 39.5879C332.296 39.5879 339.921 24.2554 348.932 32.1629C348.932 32.1629 350.901 32.9042 350.749 35.0576C350.749 35.0576 349.992 34.6301 349.39 36.2775C349.172 36.861 348.887 37.4154 348.542 37.9288C348.081 38.6219 347.418 39.1431 346.649 39.4154C346.649 39.4154 342.602 42.5533 335.109 40.1332C335.109 40.1332 332.993 40.4469 332.652 40.1763L335.113 38.3093C335.113 38.3093 336.362 40.2351 338.195 40.4509C338.195 40.4509 335.12 38.4505 335.469 38.0151C335.537 37.9288 336.813 37.0894 336.813 37.0894C336.813 37.0894 339.001 40.4234 341.841 40.6705C341.841 40.6705 337.865 38.7917 337.297 36.7481L339.296 35.5989C339.296 35.5989 341.439 39.2428 344.661 39.6507C344.661 39.6507 340.572 37.5405 339.739 35.3792L341.852 34.5242C341.852 34.5242 344.01 38.0347 346.691 38.3563C346.691 38.3563 342.204 35.4224 342.348 34.3633C342.348 34.3633 344.332 33.7005 344.942 33.7868C344.942 33.7868 346.547 36.2696 348.122 36.3088C348.122 36.3088 345.324 34.0221 345.509 33.6691C345.509 33.6691 348.319 33.52 349.78 34.2221C349.78 34.2221 347.694 33.018 345.509 33.2141C346.112 32.504 346.902 31.9915 347.781 31.7393C347.781 31.7393 346.233 31.0803 344.817 33.2572C344.817 33.2572 342.632 33.4651 342.363 33.7162C342.363 33.7162 343.469 31.3627 344.828 30.3625C344.828 30.3625 342.799 30.7312 341.799 33.924L339.679 34.7477C339.679 34.7477 340.977 31.5588 342.128 30.5704C342.128 30.5704 340.114 31.2804 339.153 34.9988L337.184 36.1049C337.184 36.1049 338.1 33.2651 339.149 31.8844C339.149 31.8844 337.419 32.9591 336.631 36.4422L335.397 37.3404C335.397 37.3404 336.105 35.2812 336.358 34.7085C336.612 34.1358 336.483 34.0182 336.483 34.0182C335.627 35.0706 335.069 36.3481 334.87 37.7091C334.87 37.7091 332.428 39.7292 332.296 39.5879Z" fill="#6C63FF"/>
<path opacity="0.1" d="M249.672 57.4278C249.672 57.4278 257.297 42.0952 266.331 50.0027C266.331 50.0027 268.296 50.7441 268.148 52.9014C268.148 52.9014 267.391 52.4699 266.789 54.1173C266.569 54.7002 266.285 55.2544 265.941 55.7686C265.475 56.4651 264.804 56.9866 264.029 57.2552C264.029 57.2552 259.985 60.3931 252.493 57.973C252.493 57.973 250.376 58.2907 250.035 58.0161L252.496 56.1491C252.496 56.1491 253.746 58.075 255.574 58.2946C255.574 58.2946 252.5 56.2903 252.848 55.8549C252.92 55.7686 254.196 54.9292 254.196 54.9292C254.196 54.9292 256.385 58.2633 259.22 58.5104C259.22 58.5104 255.249 56.6315 254.677 54.588L256.676 53.4427C256.676 53.4427 258.823 57.0826 262.045 57.4905C262.045 57.4905 257.956 55.3803 257.123 53.2191L259.236 52.364C259.236 52.364 261.397 55.8745 264.078 56.1962C264.078 56.1962 259.592 53.2622 259.732 52.2032C259.732 52.2032 261.719 51.5403 262.329 51.6266C262.329 51.6266 263.934 54.1095 265.509 54.1526C265.509 54.1526 262.711 51.8619 262.897 51.5089C262.897 51.5089 265.702 51.3599 267.167 52.062C267.167 52.062 265.078 50.8578 262.893 51.0539C263.496 50.3439 264.285 49.8313 265.165 49.5791C265.165 49.5791 263.62 48.9202 262.204 51.0971C262.204 51.0971 260.019 51.305 259.751 51.556C259.751 51.556 260.852 49.2026 262.215 48.2024C262.215 48.2024 260.186 48.5711 259.186 51.7639L257.04 52.5876C257.04 52.5876 258.342 49.3987 259.489 48.4142C259.489 48.4142 257.479 49.1202 256.517 52.8386L254.545 53.9447C254.545 53.9447 255.465 51.1049 256.513 49.7242C256.513 49.7242 254.783 50.799 253.992 54.282L252.758 55.1803C252.758 55.1803 253.466 53.121 253.719 52.5484C253.973 51.9757 253.848 51.858 253.848 51.858C252.99 52.9093 252.431 54.1874 252.235 55.549C252.235 55.549 249.804 57.569 249.672 57.4278Z" fill="#6C63FF"/>
</g>
<defs>
<clipPath id="clip0_3548_22870">
<rect width="406" height="306" fill="white"/>
</clipPath>
</defs>
</svg>
