<?xml version="1.0" standalone="no"?>
<!DOCTYPE svg PUBLIC "-//W3C//DTD SVG 20010904//EN"
 "http://www.w3.org/TR/2001/REC-SVG-20010904/DTD/svg10.dtd">
<svg version="1.0" xmlns="http://www.w3.org/2000/svg"
 width="700.000000pt" height="700.000000pt" viewBox="0 0 700.000000 700.000000"
 preserveAspectRatio="xMidYMid meet">
<metadata>
Created by potrace 1.14, written by Peter Selinger 2001-2017
</metadata>
<g transform="translate(0.000000,700.000000) scale(0.100000,-0.100000)"
fill="#000000" stroke="none">
<path d="M1379 6988 c12 -16 11 -18 -11 -18 -13 0 -29 -5 -36 -12 -8 -8 -15
-8 -27 2 -10 8 -15 9 -15 1 0 -6 -5 -11 -11 -11 -5 0 -7 6 -3 13 6 10 4 10 -7
0 -15 -15 -33 -18 -25 -5 3 5 -1 9 -8 9 -7 0 -13 -6 -13 -13 0 -7 5 -10 11 -7
6 3 5 0 -2 -8 -11 -12 -14 -12 -22 1 -5 8 -10 10 -10 4 0 -7 -7 -15 -16 -18
-14 -5 -15 -4 -5 8 9 11 9 16 0 22 -7 4 -10 3 -7 -2 3 -5 0 -15 -8 -22 -11
-10 -14 -10 -15 0 0 7 -4 4 -9 -7 -5 -11 -9 -15 -9 -8 -1 14 -49 10 -64 -7
-10 -10 -8 -10 9 -2 15 8 21 8 21 -1 0 -16 -39 -17 -49 -3 -5 7 -8 6 -8 -2 0
-8 -5 -10 -12 -6 -8 5 -9 2 -5 -10 5 -12 3 -16 -5 -13 -7 2 -12 10 -10 16 1 7
-2 9 -8 6 -6 -4 -9 -14 -6 -22 3 -8 1 -11 -5 -8 -5 4 -17 1 -26 -7 -12 -9 -15
-9 -9 -1 5 9 2 11 -8 7 -9 -3 -13 -11 -9 -18 4 -6 -2 -4 -12 4 -17 14 -18 13
-13 -2 7 -17 -8 -28 -30 -21 -6 3 -9 10 -6 15 4 7 2 8 -5 4 -6 -4 -8 -12 -5
-18 5 -8 1 -9 -11 -4 -18 6 -18 6 1 -15 l19 -22 -28 18 c-24 15 -27 16 -21 1
6 -15 -11 -22 -40 -17 -5 1 -6 -6 -2 -15 5 -13 4 -15 -7 -5 -11 9 -17 8 -27
-4 -7 -8 -9 -15 -4 -15 5 0 -2 -7 -14 -16 -12 -8 -27 -12 -32 -9 -6 3 -10 1
-10 -5 0 -6 -4 -8 -10 -5 -5 3 -10 0 -10 -8 0 -13 -33 -31 -52 -28 -4 0 -5 -9
-3 -20 4 -18 2 -19 -12 -7 -14 11 -16 10 -11 -8 4 -17 2 -20 -12 -17 -10 3
-21 -1 -25 -8 -6 -8 -4 -10 5 -4 9 5 11 4 6 -4 -6 -9 -11 -9 -22 0 -9 7 -14 8
-13 3 4 -22 -2 -35 -13 -28 -8 5 -9 2 -4 -11 5 -15 4 -16 -9 -5 -9 7 -15 9
-14 4 4 -22 -2 -44 -12 -44 -5 0 -7 6 -3 13 3 6 -5 0 -18 -15 -14 -15 -29 -24
-33 -20 -4 4 -2 -4 5 -18 13 -24 12 -24 -5 -10 -17 13 -18 13 -13 -1 5 -11 1
-16 -10 -15 -12 1 -17 -7 -17 -25 1 -22 -4 -26 -21 -24 -19 2 -21 -2 -18 -24
5 -25 5 -25 -10 -6 -13 16 -15 17 -10 3 4 -11 1 -18 -6 -18 -7 0 -10 -7 -6
-15 3 -8 1 -15 -5 -15 -6 0 -7 -6 -3 -12 5 -9 2 -8 -9 1 -10 8 -20 11 -24 7
-3 -3 -1 -6 5 -6 7 0 12 -5 12 -11 0 -5 -6 -7 -12 -3 -10 6 -10 4 0 -8 10 -13
10 -17 -3 -22 -11 -4 -14 -2 -9 6 4 7 3 8 -4 4 -7 -4 -12 -18 -12 -32 0 -14
-3 -23 -7 -21 -5 3 -14 -2 -22 -10 -12 -13 -11 -14 9 -8 l22 7 -21 -21 c-12
-12 -19 -26 -16 -32 4 -5 1 -8 -7 -7 -7 2 -12 -3 -10 -11 2 -8 -3 -11 -12 -8
-10 4 -14 0 -11 -14 2 -10 -2 -19 -8 -20 -7 0 -3 -4 8 -9 l20 -9 -20 -1 c-11
-2 -23 -2 -26 -2 -4 1 -4 -8 -1 -20 4 -16 2 -19 -9 -13 -11 7 -11 5 1 -10 9
-11 10 -16 2 -11 -6 4 -12 3 -12 -3 0 -5 6 -12 13 -15 6 -4 2 -4 -11 -2 -12 2
-20 0 -17 -4 3 -5 1 -11 -4 -15 -6 -3 -8 -12 -4 -20 3 -9 -1 -22 -8 -31 -8
-10 -9 -18 -3 -22 15 -10 11 -37 -5 -37 -8 0 -16 -6 -19 -14 -3 -9 0 -11 9 -5
12 7 12 5 1 -9 -8 -9 -10 -22 -6 -28 5 -9 2 -10 -11 -5 -18 6 -18 6 1 -15 10
-12 14 -19 8 -16 -16 10 -28 -25 -12 -35 10 -5 8 -8 -5 -8 -10 0 -15 -4 -12
-10 3 -5 0 -10 -7 -11 -7 0 -4 -4 7 -9 l20 -9 -20 0 c-15 -1 -17 -3 -6 -10 11
-7 11 -9 0 -13 -12 -5 -12 -9 -1 -28 8 -12 9 -19 3 -15 -6 3 -11 -1 -11 -9 0
-9 5 -16 11 -16 6 0 3 -7 -5 -16 -16 -16 -22 -39 -8 -30 4 2 8 -6 8 -19 0 -13
-4 -21 -10 -18 -5 4 -7 -1 -2 -12 5 -14 4 -15 -6 -7 -11 8 -13 -377 -13 -2021
0 -1796 2 -2031 15 -2034 13 -4 13 -3 0 6 -9 7 -10 11 -3 11 14 0 25 -15 17
-23 -9 -9 -7 -134 2 -149 12 -18 14 -39 4 -33 -7 4 -6 -24 0 -32 7 -9 4 -29
-5 -36 -5 -5 1 -5 13 -2 22 6 23 5 12 -16 -11 -19 -10 -21 4 -16 11 4 15 3 10
-4 -3 -6 -7 -23 -8 -39 -1 -20 2 -26 11 -23 8 3 13 2 12 -3 -4 -21 2 -45 9
-40 10 6 9 -30 -1 -40 -14 -14 -7 -26 8 -14 9 7 18 10 22 6 3 -3 1 -6 -5 -6
-6 0 -9 -7 -5 -17 5 -12 3 -14 -7 -8 -9 5 -11 4 -6 -4 4 -7 17 -9 29 -6 18 5
19 4 7 -4 -9 -7 -11 -14 -5 -18 6 -5 10 -17 10 -28 0 -11 5 -26 12 -33 7 -8
11 -18 8 -23 -4 -5 1 -9 9 -9 9 0 16 -5 16 -11 0 -5 -5 -7 -11 -3 -7 4 -7 -1
1 -16 7 -14 17 -20 28 -16 15 5 15 4 -1 -8 -16 -12 -16 -14 -2 -20 9 -3 13
-11 9 -17 -4 -8 1 -9 17 -4 23 7 23 7 4 -8 -19 -14 -18 -15 15 -37 19 -12 27
-19 17 -16 -12 4 -17 2 -14 -6 2 -7 11 -12 18 -11 9 2 15 -5 15 -17 0 -11 -5
-20 -10 -20 -5 0 -6 -3 -3 -6 4 -4 14 -1 24 7 11 9 14 10 9 2 -4 -8 -2 -13 5
-13 9 0 9 -4 -1 -15 -10 -12 -8 -14 8 -10 15 3 19 -1 15 -16 -3 -11 0 -19 6
-19 7 0 9 4 6 10 -3 6 1 7 10 3 11 -4 13 -8 5 -13 -6 -3 -8 -14 -4 -24 5 -14
9 -15 16 -4 7 9 8 6 5 -10 -5 -20 -3 -22 11 -10 12 10 14 10 8 0 -4 -7 -2 -12
4 -12 6 0 8 -5 5 -10 -3 -6 2 -10 12 -10 15 0 16 -2 3 -10 -12 -8 -11 -10 6
-10 12 0 28 -8 35 -17 11 -15 11 -16 -1 -5 -20 17 -34 15 -16 -3 8 -8 19 -15
24 -15 6 0 12 -7 16 -15 3 -8 0 -15 -6 -15 -6 0 -8 -3 -5 -6 4 -4 13 -1 22 6
12 10 15 10 15 -4 0 -10 4 -14 10 -11 5 3 10 1 10 -5 0 -6 5 -8 12 -4 6 4 8 3
4 -4 -3 -6 0 -17 8 -25 8 -8 12 -18 8 -22 -4 -4 4 -2 17 5 15 7 21 8 17 1 -4
-6 -2 -19 4 -28 11 -16 11 -16 6 -1 -3 10 0 20 6 24 6 4 8 3 5 -3 -4 -6 1 -19
9 -29 9 -10 12 -12 8 -4 -7 13 -6 13 10 1 12 -10 13 -16 6 -21 -8 -5 -6 -9 5
-13 9 -4 13 -3 10 3 -3 6 1 10 10 10 9 0 13 -4 10 -10 -3 -5 0 -10 8 -10 8 0
21 -8 28 -17 12 -16 12 -17 -2 -6 -13 10 -16 10 -16 -1 0 -15 14 -16 36 -2 10
7 12 6 6 -4 -6 -10 -4 -12 10 -6 16 6 16 4 4 -11 -7 -10 -9 -15 -4 -10 4 4 18
-1 29 -10 20 -17 20 -17 7 0 -12 15 -12 17 3 11 9 -3 16 -9 16 -13 0 -3 9 -12
21 -19 17 -11 20 -11 13 0 -4 7 3 4 16 -7 14 -12 20 -14 15 -5 -7 12 -6 13 6
2 12 -11 12 -14 -1 -23 -12 -9 -11 -10 4 -5 11 4 27 0 38 -11 18 -16 19 -16
12 2 -6 14 -4 16 7 9 8 -5 19 -9 24 -9 6 0 9 -8 7 -16 -2 -12 5 -16 23 -14 14
2 25 -2 25 -8 0 -8 4 -7 12 1 10 10 15 7 25 -10 8 -15 12 -18 13 -8 0 13 2 13
9 1 5 -8 26 -14 50 -14 26 0 40 -4 38 -11 -3 -6 -10 -10 -16 -8 -7 1 -9 -3 -6
-9 5 -8 10 -8 18 0 15 15 47 14 48 -1 0 -7 4 -4 9 7 l9 20 0 -20 c1 -15 3 -17
10 -6 6 9 10 10 12 2 6 -16 59 -22 59 -7 1 6 6 2 13 -9 10 -17 23 -20 94 -21
46 -1 80 2 78 7 -3 4 0 11 6 15 7 4 9 3 5 -4 -10 -17 13 -25 31 -10 12 9 14 9
9 1 -8 -14 50 -13 73 1 10 6 12 5 7 -3 -9 -14 30 -11 53 3 10 7 12 5 6 -3 -5
-9 -2 -12 11 -9 11 2 18 10 16 17 -1 7 2 10 8 6 6 -3 8 -11 4 -16 -3 -5 8 -8
26 -7 22 2 29 6 25 18 -4 13 -3 13 7 -1 16 -19 103 -26 92 -6 -6 9 -5 9 7 0
17 -14 162 -16 154 -3 -3 5 -1 12 5 15 6 4 9 1 8 -6 -2 -10 26 -14 115 -16 90
-2 116 0 110 10 -4 7 2 5 12 -3 17 -14 18 -13 12 5 -6 17 -5 18 5 5 17 -20 64
-27 52 -8 -6 10 -5 11 7 2 17 -13 163 -18 154 -5 -3 5 -1 13 5 16 6 4 9 1 8
-6 -2 -10 26 -14 115 -16 90 -2 116 0 110 10 -4 7 2 5 12 -3 17 -14 18 -13 12
5 -6 17 -5 18 5 5 17 -20 64 -27 52 -8 -6 10 -5 11 7 2 17 -13 163 -18 154 -5
-3 5 -1 13 5 16 6 4 9 1 8 -6 -4 -18 190 -22 211 -6 12 9 13 9 7 -1 -6 -9 -1
-12 16 -10 12 2 29 7 37 12 10 7 12 5 6 -3 -5 -9 -2 -12 11 -9 11 2 18 10 16
17 -1 7 2 10 8 6 6 -3 8 -11 4 -16 -3 -5 8 -8 26 -7 22 2 29 6 25 18 -4 13 -3
13 7 -1 15 -18 104 -26 93 -8 -4 6 2 5 14 -3 17 -11 25 -11 42 0 13 8 18 9 14
2 -8 -13 32 -10 54 4 10 7 12 5 6 -3 -5 -9 -2 -12 11 -9 11 2 18 10 16 17 -1
7 2 10 8 6 6 -3 8 -11 4 -16 -3 -5 8 -8 26 -7 22 2 29 6 25 18 -4 13 -3 13 7
-1 16 -19 103 -26 92 -6 -5 9 -4 9 7 0 7 -7 28 -13 47 -13 24 0 31 3 26 13 -5
7 0 6 11 -3 17 -14 18 -13 12 5 -6 17 -5 18 5 5 17 -20 64 -27 52 -8 -6 10 -5
11 7 2 17 -13 163 -18 154 -5 -3 5 -1 13 5 16 6 4 9 1 8 -6 -2 -10 30 -14 144
-15 103 0 145 3 141 10 -3 6 0 5 8 -1 18 -18 103 -18 93 0 -5 7 0 6 11 -3 17
-14 18 -13 12 5 -6 17 -5 18 5 5 17 -20 64 -27 52 -8 -6 10 -5 11 7 2 17 -13
163 -18 154 -5 -3 5 -1 13 5 16 6 4 9 1 8 -6 -2 -6 10 -13 25 -16 22 -3 27 -1
21 9 -6 11 -5 11 8 0 18 -15 76 -13 97 2 11 8 13 8 8 0 -4 -8 30 -11 114 -13
96 -1 119 1 113 11 -5 8 -1 7 11 -2 17 -14 18 -13 12 5 -6 17 -5 18 5 5 17
-20 64 -27 52 -8 -6 10 -5 11 7 2 17 -13 163 -18 154 -5 -3 5 -1 13 5 16 6 4
9 1 8 -7 -2 -10 16 -13 75 -15 46 -1 75 2 72 8 -4 5 -1 9 4 9 6 0 11 -4 11 -9
0 -10 90 -9 107 2 6 4 14 1 17 -5 3 -7 3 -3 0 9 -4 18 -2 22 10 17 9 -3 13
-11 10 -18 -3 -6 1 -3 9 6 11 14 16 15 27 5 8 -8 11 -8 7 -1 -4 7 0 15 9 18 8
3 12 2 9 -4 -3 -6 -2 -10 4 -10 5 0 12 6 14 13 4 9 8 8 16 -3 7 -10 11 -11 11
-2 0 6 7 12 16 12 9 0 23 8 30 18 13 16 14 16 8 0 -3 -10 -1 -18 5 -18 6 0 11
7 11 16 0 8 5 12 10 9 6 -4 18 -1 27 7 12 9 15 9 9 1 -4 -7 -2 -13 3 -13 6 0
11 5 11 11 0 6 7 9 15 5 8 -3 14 0 12 6 -1 6 4 13 12 16 10 3 11 0 5 -9 -7
-12 -5 -12 9 -1 9 8 22 10 28 6 8 -5 10 -2 7 8 -4 8 0 15 8 15 7 0 10 -5 7
-10 -4 -6 -1 -7 6 -3 7 5 10 15 6 23 -4 12 -2 13 7 6 15 -11 63 9 51 21 -4 4
1 4 11 0 15 -6 17 -4 11 7 -4 8 -5 11 0 7 4 -4 15 -2 23 5 13 9 14 9 8 -1 -4
-6 -3 -12 3 -12 5 0 13 5 16 10 4 6 11 7 17 4 7 -4 8 -2 4 5 -4 6 -11 9 -16 6
-5 -3 -11 -1 -15 4 -3 6 5 8 19 5 14 -2 28 0 31 6 4 6 11 8 16 4 6 -3 9 2 7
11 -2 12 5 19 20 21 16 3 21 0 16 -8 -4 -7 -3 -8 5 -4 9 6 9 11 0 22 -10 12
-9 13 6 8 12 -5 16 -4 11 4 -9 15 7 23 24 12 18 -11 41 6 34 25 -4 10 1 12 18
8 19 -5 21 -4 11 8 -8 10 -9 19 -1 29 8 13 9 12 5 -2 -4 -12 0 -16 12 -15 11
1 17 7 14 14 -3 7 2 13 11 13 9 0 16 5 16 11 0 5 6 7 13 3 6 -4 8 -3 4 1 -4 5
3 15 15 23 13 7 15 11 6 8 -10 -3 -20 0 -24 6 -4 6 -3 8 4 4 6 -3 13 -2 17 3
3 6 12 8 19 5 8 -3 17 0 22 7 5 8 3 10 -7 4 -11 -7 -12 -6 -2 7 7 8 9 19 5 24
-4 4 2 2 13 -6 11 -8 16 -10 12 -5 -4 5 3 15 15 22 l23 14 -25 -7 c-24 -6 -24
-6 -5 9 14 11 24 12 33 5 10 -8 11 -7 6 7 -5 12 -4 16 4 11 7 -4 10 1 7 15 -4
21 -4 21 18 3 12 -10 16 -12 10 -4 -16 18 -17 34 -1 24 8 -5 9 -2 5 10 -4 10
-3 15 3 11 5 -3 14 4 21 16 9 17 13 19 20 8 5 -8 9 -9 9 -3 0 5 -5 15 -10 20
-7 7 -3 17 12 30 l23 19 -20 -25 -19 -25 24 23 c20 18 22 24 11 31 -8 6 -9 11
-3 15 6 3 13 2 17 -4 12 -19 26 0 15 20 -8 15 -5 23 16 39 17 14 24 26 20 37
-6 15 -4 15 10 3 16 -13 16 -12 6 7 -13 24 -7 35 13 28 9 -4 13 2 11 20 -2 17
2 26 10 26 8 0 14 5 14 11 0 5 6 7 13 3 8 -5 8 -2 -2 9 -11 14 -11 17 0 17 11
0 11 2 -1 10 -10 7 -11 10 -2 10 8 0 11 9 8 23 -3 16 1 24 10 24 9 0 11 -4 4
-12 -7 -8 -5 -12 4 -12 9 0 12 10 11 29 -1 15 1 31 6 34 5 3 9 10 9 15 0 6 -5
7 -12 3 -7 -5 -8 -3 -4 5 5 7 14 10 20 8 7 -3 13 1 13 9 0 8 -6 13 -13 10 -8
-3 -16 -1 -19 5 -4 5 -3 9 2 8 18 -3 36 1 30 8 -4 3 1 12 11 20 9 8 12 12 6 9
-7 -3 -15 1 -18 10 -3 8 -2 13 3 10 4 -3 17 4 27 17 10 12 12 16 4 9 -19 -16
-31 -15 -24 3 4 8 14 15 23 15 14 0 14 2 1 10 -13 9 -13 10 0 10 13 0 13 1 0
10 -12 8 -12 10 -1 10 10 0 11 3 2 14 -9 10 -9 16 -1 21 6 4 10 19 9 33 -3 43
0 62 12 62 5 0 8 -4 4 -9 -3 -5 -2 -12 3 -15 11 -7 9 105 -2 123 -6 9 -5 12 2
7 7 -4 10 4 10 23 -1 17 -5 28 -9 25 -4 -2 -11 0 -14 6 -4 6 -1 9 7 8 9 -2 13
10 13 42 0 32 -4 44 -13 42 -8 -1 -11 2 -7 8 3 6 10 8 15 5 5 -3 7 30 6 72 -2
57 -6 77 -15 75 -7 -1 -10 2 -6 8 3 6 10 8 15 5 5 -3 9 31 9 75 0 46 -3 78 -9
75 -5 -3 -12 -1 -15 5 -4 6 -1 9 6 8 7 -2 15 5 17 16 2 11 0 16 -6 12 -6 -3
-14 -2 -17 4 -4 6 -1 9 6 8 6 -2 13 10 16 25 2 17 0 26 -6 23 -5 -4 -13 -2
-16 4 -4 6 -1 9 7 8 8 -2 14 8 16 26 2 17 0 26 -7 22 -5 -4 -13 -2 -16 4 -4 6
-1 9 6 8 7 -2 15 5 17 16 3 13 0 16 -9 11 -8 -6 -10 -4 -3 6 15 24 17 62 2 53
-10 -5 -11 -4 0 7 14 15 17 63 3 54 -5 -3 -13 -1 -16 5 -4 6 -1 9 6 8 7 -2 15
5 17 16 2 11 0 16 -6 12 -6 -3 -14 -2 -17 4 -4 6 -1 9 6 8 6 -2 13 10 16 25 2
17 0 26 -6 23 -5 -4 -13 -2 -16 4 -4 6 -1 9 7 8 8 -2 14 8 16 26 2 17 0 26 -7
22 -5 -4 -13 -2 -16 4 -4 6 -1 9 6 8 7 -2 15 5 17 16 3 13 0 16 -9 11 -8 -6
-10 -4 -3 6 5 8 10 25 12 37 2 17 -1 22 -10 16 -10 -6 -10 -5 -1 7 16 21 12
215 -6 211 -7 -1 -10 2 -6 8 3 6 10 8 15 5 5 -3 8 44 7 104 0 61 -4 108 -8
105 -4 -2 -11 0 -14 6 -4 6 -1 9 7 8 9 -2 13 10 13 42 0 32 -4 44 -13 42 -8
-1 -11 2 -7 8 3 6 10 8 15 5 5 -3 7 30 6 72 -2 57 -6 77 -15 75 -7 -1 -10 2
-6 8 3 6 10 8 15 5 5 -3 8 44 7 104 0 61 -4 108 -8 105 -4 -2 -11 0 -14 6 -4
6 -1 9 7 8 9 -2 13 10 13 42 0 32 -4 44 -13 42 -8 -1 -11 2 -7 8 3 6 10 8 15
5 5 -3 7 30 6 72 -2 57 -6 77 -15 75 -7 -1 -10 2 -6 8 3 6 10 8 15 5 5 -3 9
31 9 75 0 46 -3 78 -9 75 -5 -3 -12 -1 -15 5 -4 6 -1 9 6 8 7 -2 15 5 17 16 2
11 0 16 -6 12 -6 -3 -14 -2 -17 4 -4 6 -1 9 6 8 6 -2 13 10 16 25 2 17 0 26
-6 23 -5 -4 -13 -2 -16 4 -4 6 -1 9 7 8 8 -2 14 8 16 26 2 17 0 26 -7 22 -5
-4 -13 -2 -16 4 -4 6 -1 9 6 8 7 -2 15 5 17 16 3 13 0 16 -9 11 -8 -6 -10 -4
-3 6 15 24 17 62 2 53 -10 -5 -11 -4 0 7 14 15 17 63 3 54 -5 -3 -13 -1 -16 5
-4 6 -1 9 6 8 7 -2 15 5 17 16 2 11 0 16 -6 12 -6 -3 -14 -2 -17 4 -4 6 -1 9
6 8 6 -2 13 10 16 25 2 17 0 26 -6 23 -5 -4 -13 -2 -16 4 -4 6 -1 9 7 8 8 -2
14 8 16 26 2 17 0 26 -7 22 -5 -4 -13 -2 -16 4 -4 6 -1 9 6 8 7 -2 15 5 17 16
3 13 0 16 -9 11 -8 -6 -10 -4 -3 6 15 24 17 62 2 53 -10 -5 -11 -4 0 7 14 15
17 63 3 54 -5 -3 -13 -1 -16 5 -4 6 -1 9 6 8 7 -2 15 5 17 16 2 11 0 16 -6 12
-6 -3 -14 -2 -17 4 -4 6 -1 9 6 8 6 -2 13 10 16 25 2 17 0 26 -6 23 -5 -4 -13
-2 -16 4 -4 6 -1 9 7 8 8 -2 14 8 16 26 2 17 0 26 -7 22 -5 -4 -13 -2 -16 4
-4 6 -1 9 6 8 7 -2 15 5 17 16 3 13 0 16 -9 11 -8 -6 -10 -4 -3 6 15 24 17 62
2 53 -10 -5 -11 -4 0 7 14 15 17 63 3 54 -5 -3 -13 -1 -16 5 -4 6 -1 9 6 8 7
-2 15 5 17 16 2 11 0 16 -6 12 -6 -3 -14 -2 -17 4 -4 6 -1 9 6 8 6 -2 13 10
16 25 2 17 0 26 -6 23 -5 -4 -13 -2 -16 4 -4 6 -1 9 7 8 8 -2 14 8 16 26 2 17
0 26 -7 22 -5 -4 -13 -2 -16 4 -4 6 -1 9 6 8 7 -2 15 5 17 16 3 13 0 16 -9 11
-8 -6 -10 -4 -3 6 5 8 10 25 12 37 2 17 -1 22 -10 16 -10 -6 -10 -4 -2 7 15
20 16 61 1 52 -7 -4 -7 -1 1 10 15 18 7 41 -10 31 -7 -4 -8 -2 -4 5 4 6 12 9
17 5 7 -4 9 5 7 22 -2 18 -8 28 -16 26 -8 -1 -11 2 -7 8 3 6 11 8 16 4 6 -3 8
6 6 23 -3 15 -10 27 -16 25 -7 -1 -10 2 -6 8 3 6 10 8 15 5 5 -3 8 44 7 104 0
61 -4 108 -8 105 -4 -2 -11 0 -14 6 -4 6 -1 9 7 8 10 -2 13 17 13 84 0 78 -2
85 -17 77 -11 -6 -19 -5 -24 3 -4 6 -3 8 4 4 6 -3 13 -2 17 4 3 5 0 10 -7 10
-10 0 -10 2 1 9 7 5 9 11 4 14 -4 3 -8 28 -8 56 1 30 -3 47 -8 44 -6 -4 -8 3
-4 16 4 17 3 20 -8 11 -10 -8 -13 -2 -13 32 0 24 -1 48 -2 53 -1 6 -2 13 -1
18 2 12 -17 8 -21 -5 -3 -7 -7 -5 -11 6 -4 10 -3 15 3 11 6 -3 10 4 10 16 0
19 -2 20 -17 8 -15 -13 -15 -12 -5 8 10 17 9 25 -3 37 -9 8 -17 19 -18 23 -1
4 -6 7 -10 5 -4 -1 -3 6 2 17 8 14 7 21 -2 25 -9 5 -9 7 1 12 6 3 12 10 12 16
0 6 -7 5 -16 -3 -13 -10 -17 -10 -24 0 -4 8 -7 21 -6 29 3 20 -16 42 -29 34
-5 -3 -3 3 5 13 12 15 12 17 1 10 -11 -6 -13 -2 -7 21 4 19 3 24 -3 15 -7 -10
-13 -11 -27 -1 -15 9 -16 10 -2 6 12 -3 15 -1 11 10 -3 7 -13 14 -22 14 -13 0
-14 2 -2 9 12 8 10 12 -12 22 -15 7 -27 16 -27 21 0 12 14 10 30 -4 8 -7 6 -3
-4 9 -11 13 -24 19 -34 15 -15 -5 -15 -4 -2 14 8 10 11 16 6 12 -14 -12 -49
29 -42 49 5 15 4 15 -10 -2 -16 -20 -16 -20 -9 3 5 16 2 22 -10 22 -10 0 -13
-5 -9 -12 4 -7 3 -9 -1 -5 -14 12 -15 38 -2 30 8 -5 8 -2 0 9 -7 8 -9 18 -5
23 4 4 -3 2 -16 -4 -23 -12 -23 -12 -11 11 11 21 11 22 -4 9 -15 -12 -17 -11
-17 10 0 19 -2 21 -10 9 -8 -12 -10 -11 -10 6 0 11 -10 30 -22 42 -22 20 -26
22 -48 22 -5 0 -10 5 -10 11 0 5 5 7 12 3 6 -4 8 -3 4 4 -3 6 -19 9 -34 6 -15
-2 -22 -1 -17 3 6 5 11 14 13 22 3 12 1 12 -14 0 -10 -8 -15 -9 -11 -3 4 7 0
15 -9 18 -8 3 -12 10 -9 16 4 6 -1 7 -11 3 -13 -5 -16 -2 -12 9 4 8 1 15 -7
15 -7 0 -11 -7 -8 -16 2 -9 -5 0 -16 19 -11 19 -20 28 -21 20 0 -13 -1 -13
-10 0 -9 13 -11 13 -20 0 -5 -8 -10 -10 -10 -4 0 5 6 16 13 23 8 10 8 12 0 7
-6 -3 -17 2 -23 11 -10 16 -11 16 -6 1 3 -12 1 -15 -9 -11 -8 3 -12 9 -9 14 3
5 -2 9 -11 9 -10 0 -13 -5 -9 -12 4 -7 3 -8 -5 -4 -9 6 -9 11 1 24 8 10 9 13
1 9 -7 -4 -17 0 -23 10 -10 15 -11 15 -6 1 3 -11 -1 -15 -12 -14 -9 2 -18 13
-20 24 -2 12 -8 22 -13 22 -6 0 -7 -5 -3 -11 4 -7 1 -10 -7 -7 -8 3 -13 10
-12 16 2 8 -5 9 -23 2 -14 -6 -23 -6 -20 -2 10 16 -13 35 -45 39 -18 2 -37 10
-41 18 -5 8 -15 12 -23 9 -9 -4 -15 0 -15 7 0 10 -3 10 -12 1 -15 -15 -28 -15
-28 -1 0 5 4 8 8 5 5 -3 9 1 9 9 0 12 -4 12 -20 -2 -11 -10 -17 -12 -13 -5 4
7 0 15 -10 19 -10 4 -19 2 -22 -5 -2 -7 -8 -10 -12 -7 -5 3 -7 13 -4 23 5 14
4 15 -5 2 -8 -12 -13 -12 -23 -2 -15 15 -28 16 -28 1 0 -5 5 -7 12 -3 7 4 8 3
4 -4 -4 -6 -13 -9 -21 -6 -8 4 -12 10 -9 15 5 8 -25 14 -55 10 -7 -2 -11 2 -8
6 3 5 -3 10 -14 10 -13 1 -17 -2 -12 -10 5 -9 3 -9 -8 -1 -8 6 -26 11 -41 10
-14 -1 -25 2 -22 5 2 4 -4 6 -13 4 -10 -2 -18 -4 -18 -5 0 -1 -13 -3 -30 -5
-21 -3 -26 -2 -15 5 11 7 11 10 2 10 -7 0 -11 3 -8 8 5 9 -180 10 -189 1 -3
-4 8 -5 25 -4 31 3 41 -9 15 -18 -8 -4 -17 -2 -20 3 -3 5 -12 7 -20 3 -9 -3
-15 1 -15 9 0 11 -22 14 -109 13 -60 0 -112 -3 -116 -6 -3 -4 8 -5 25 -4 31 3
41 -9 15 -18 -8 -4 -17 -2 -20 3 -3 5 -12 7 -20 3 -9 -3 -15 1 -15 9 0 11 -22
14 -109 13 -60 0 -112 -3 -116 -6 -3 -4 8 -5 25 -4 31 3 41 -9 15 -18 -8 -4
-17 -2 -20 3 -3 5 -12 7 -20 3 -9 -3 -15 1 -15 9 0 11 -22 14 -109 13 -60 0
-112 -3 -116 -6 -3 -4 8 -5 25 -4 31 3 41 -9 15 -18 -8 -4 -17 -2 -20 3 -3 5
-12 7 -20 3 -9 -3 -15 1 -15 9 0 11 -22 14 -109 13 -60 0 -112 -3 -116 -6 -3
-4 8 -5 25 -4 31 3 41 -9 15 -18 -8 -4 -17 -2 -20 3 -3 5 -12 7 -20 3 -9 -3
-15 1 -15 9 0 11 -22 14 -109 13 -60 0 -112 -3 -116 -6 -3 -4 8 -5 25 -4 31 3
41 -9 15 -18 -8 -4 -17 -2 -20 3 -3 5 -12 7 -20 3 -9 -3 -15 1 -15 9 0 11 -22
14 -109 13 -60 0 -112 -3 -116 -6 -3 -4 8 -5 25 -4 31 3 41 -9 15 -18 -8 -4
-17 -2 -20 3 -3 5 -12 7 -20 3 -9 -3 -15 1 -15 9 0 11 -22 14 -109 13 -60 0
-112 -3 -116 -6 -3 -4 8 -5 25 -4 31 3 41 -9 15 -18 -8 -4 -17 -2 -20 3 -3 5
-12 7 -20 3 -9 -3 -15 1 -15 9 0 11 -22 14 -109 13 -60 0 -112 -3 -116 -6 -3
-4 8 -5 25 -4 31 3 41 -9 15 -18 -8 -4 -17 -2 -20 3 -3 5 -12 7 -20 3 -9 -3
-15 1 -15 9 0 11 -22 14 -109 13 -60 0 -112 -3 -116 -6 -3 -4 8 -5 25 -4 31 3
41 -9 15 -18 -8 -4 -17 -2 -20 3 -3 5 -12 7 -20 3 -9 -3 -15 1 -15 9 0 11 -22
14 -109 13 -60 0 -112 -3 -116 -6 -3 -4 8 -5 25 -4 31 3 41 -9 15 -18 -8 -4
-17 -2 -20 3 -3 5 -12 7 -20 3 -9 -3 -15 1 -15 9 0 11 -22 14 -109 13 -60 0
-112 -3 -116 -6 -3 -4 8 -5 25 -4 31 3 41 -9 15 -18 -8 -4 -17 -2 -20 3 -3 5
-12 7 -20 3 -9 -3 -15 1 -15 9 0 11 -22 14 -109 13 -60 0 -112 -3 -116 -6 -3
-4 8 -5 25 -4 31 3 41 -9 15 -18 -8 -4 -17 -2 -20 3 -3 5 -12 7 -20 3 -9 -3
-15 1 -15 9 0 11 -22 14 -109 13 -60 0 -112 -3 -116 -6 -3 -4 8 -5 25 -4 31 3
41 -9 15 -18 -8 -4 -17 -2 -20 3 -3 5 -12 7 -20 3 -9 -3 -15 1 -15 9 0 11 -22
14 -109 13 -60 0 -112 -3 -116 -6 -3 -4 8 -5 25 -4 31 3 41 -9 15 -18 -8 -4
-17 -2 -20 3 -3 5 -12 7 -20 3 -9 -3 -15 1 -15 9 0 11 -22 14 -109 13 -60 0
-112 -3 -116 -6 -3 -4 8 -5 25 -4 31 3 41 -9 15 -18 -8 -4 -17 -2 -20 3 -3 5
-12 7 -20 3 -9 -3 -15 1 -15 9 0 11 -26 14 -134 13 -74 0 -132 -3 -129 -8 2
-4 9 -4 15 -1 6 4 8 2 5 -4 -4 -5 -16 -8 -27 -5 -16 4 -19 2 -13 -13 5 -14 1
-13 -16 6 -19 21 -22 22 -16 5 5 -16 4 -17 -6 -8 -10 10 -15 9 -26 -5 -13 -16
-14 -16 -9 0 2 9 -3 22 -12 30 -15 12 -16 11 -3 -4z m201 -9 c0 -12 -29 -19
-36 -8 -4 6 -12 5 -22 -3 -15 -11 -15 -11 -5 3 12 15 63 22 63 8z m35 -18 c-6
-5 -25 10 -25 20 0 5 6 4 14 -3 8 -7 12 -15 11 -17z m39 17 c-3 -4 -9 -8 -15
-8 -5 0 -9 4 -9 8 0 5 7 9 15 9 8 0 12 -4 9 -9z m81 1 c3 -4 -5 -6 -17 -5 -13
1 -29 -2 -36 -7 -7 -6 -15 -7 -19 -3 -3 3 -1 6 6 6 7 0 10 4 7 9 -6 9 49 9 59
0z m120 -18 c-6 -5 -25 10 -25 20 0 5 6 4 14 -3 8 -7 12 -15 11 -17z m39 17
c-3 -4 -9 -8 -15 -8 -5 0 -9 4 -9 8 0 5 7 9 15 9 8 0 12 -4 9 -9z m81 1 c3 -4
-5 -6 -17 -5 -13 1 -29 -2 -36 -7 -7 -6 -15 -7 -19 -3 -3 3 -1 6 6 6 7 0 10 4
7 9 -6 9 49 9 59 0z m120 -18 c-6 -5 -25 10 -25 20 0 5 6 4 14 -3 8 -7 12 -15
11 -17z m39 17 c-3 -4 -9 -8 -15 -8 -5 0 -9 4 -9 8 0 5 7 9 15 9 8 0 12 -4 9
-9z m81 1 c3 -4 -5 -6 -17 -5 -13 1 -29 -2 -36 -7 -7 -6 -15 -7 -19 -3 -3 3
-1 6 6 6 7 0 10 4 7 9 -6 9 49 9 59 0z m120 -18 c-6 -5 -25 10 -25 20 0 5 6 4
14 -3 8 -7 12 -15 11 -17z m39 17 c-3 -4 -9 -8 -15 -8 -5 0 -9 4 -9 8 0 5 7 9
15 9 8 0 12 -4 9 -9z m81 1 c3 -4 -5 -6 -17 -5 -13 1 -29 -2 -36 -7 -7 -6 -15
-7 -19 -3 -3 3 -1 6 6 6 7 0 10 4 7 9 -6 9 49 9 59 0z m120 -18 c-6 -5 -25 10
-25 20 0 5 6 4 14 -3 8 -7 12 -15 11 -17z m39 17 c-3 -4 -9 -8 -15 -8 -5 0 -9
4 -9 8 0 5 7 9 15 9 8 0 12 -4 9 -9z m81 1 c3 -4 -5 -6 -17 -5 -13 1 -29 -2
-36 -7 -7 -6 -15 -7 -19 -3 -3 3 -1 6 6 6 7 0 10 4 7 9 -6 9 49 9 59 0z m120
-18 c-6 -5 -25 10 -25 20 0 5 6 4 14 -3 8 -7 12 -15 11 -17z m39 17 c-3 -4 -9
-8 -15 -8 -5 0 -9 4 -9 8 0 5 7 9 15 9 8 0 12 -4 9 -9z m81 1 c3 -4 -5 -6 -17
-5 -13 1 -29 -2 -36 -7 -7 -6 -15 -7 -19 -3 -3 3 -1 6 6 6 7 0 10 4 7 9 -6 9
49 9 59 0z m120 -18 c-6 -5 -25 10 -25 20 0 5 6 4 14 -3 8 -7 12 -15 11 -17z
m39 17 c-3 -4 -9 -8 -15 -8 -5 0 -9 4 -9 8 0 5 7 9 15 9 8 0 12 -4 9 -9z m81
1 c3 -4 -5 -6 -17 -5 -13 1 -29 -2 -36 -7 -7 -6 -15 -7 -19 -3 -3 3 -1 6 6 6
7 0 10 4 7 9 -6 9 49 9 59 0z m120 -18 c-6 -5 -25 10 -25 20 0 5 6 4 14 -3 8
-7 12 -15 11 -17z m39 17 c-3 -4 -9 -8 -15 -8 -5 0 -9 4 -9 8 0 5 7 9 15 9 8
0 12 -4 9 -9z m81 1 c3 -4 -5 -6 -17 -5 -13 1 -29 -2 -36 -7 -7 -6 -15 -7 -19
-3 -3 3 -1 6 6 6 7 0 10 4 7 9 -6 9 49 9 59 0z m120 -18 c-6 -5 -25 10 -25 20
0 5 6 4 14 -3 8 -7 12 -15 11 -17z m39 17 c-3 -4 -9 -8 -15 -8 -5 0 -9 4 -9 8
0 5 7 9 15 9 8 0 12 -4 9 -9z m81 1 c3 -4 -5 -6 -17 -5 -13 1 -29 -2 -36 -7
-7 -6 -15 -7 -19 -3 -3 3 -1 6 6 6 7 0 10 4 7 9 -6 9 49 9 59 0z m120 -18 c-6
-5 -25 10 -25 20 0 5 6 4 14 -3 8 -7 12 -15 11 -17z m39 17 c-3 -4 -9 -8 -15
-8 -5 0 -9 4 -9 8 0 5 7 9 15 9 8 0 12 -4 9 -9z m81 1 c3 -4 -5 -6 -17 -5 -13
1 -29 -2 -36 -7 -7 -6 -15 -7 -19 -3 -3 3 -1 6 6 6 7 0 10 4 7 9 -6 9 49 9 59
0z m120 -18 c-6 -5 -25 10 -25 20 0 5 6 4 14 -3 8 -7 12 -15 11 -17z m39 17
c-3 -4 -9 -8 -15 -8 -5 0 -9 4 -9 8 0 5 7 9 15 9 8 0 12 -4 9 -9z m81 1 c3 -4
-5 -6 -17 -5 -13 1 -29 -2 -36 -7 -7 -6 -15 -7 -19 -3 -3 3 -1 6 6 6 7 0 10 4
7 9 -6 9 49 9 59 0z m120 -18 c-6 -5 -25 10 -25 20 0 5 6 4 14 -3 8 -7 12 -15
11 -17z m39 17 c-3 -4 -9 -8 -15 -8 -5 0 -9 4 -9 8 0 5 7 9 15 9 8 0 12 -4 9
-9z m81 1 c3 -4 -5 -6 -17 -5 -13 1 -29 -2 -36 -7 -7 -6 -15 -7 -19 -3 -3 3
-1 6 6 6 7 0 10 4 7 9 -6 9 49 9 59 0z m120 -18 c-6 -5 -25 10 -25 20 0 5 6 4
14 -3 8 -7 12 -15 11 -17z m39 17 c-3 -4 -9 -8 -15 -8 -5 0 -9 4 -9 8 0 5 7 9
15 9 8 0 12 -4 9 -9z m81 1 c3 -4 -5 -6 -17 -5 -13 1 -29 -2 -36 -7 -7 -6 -15
-7 -19 -3 -3 3 -1 6 6 6 7 0 10 4 7 9 -6 9 49 9 59 0z m120 -18 c-6 -5 -25 10
-25 20 0 5 6 4 14 -3 8 -7 12 -15 11 -17z m39 17 c-3 -4 -9 -8 -15 -8 -5 0 -9
4 -9 8 0 5 7 9 15 9 8 0 12 -4 9 -9z m81 1 c3 -4 -5 -6 -17 -5 -13 1 -29 -2
-36 -7 -7 -6 -15 -7 -19 -3 -3 3 -1 6 6 6 7 0 10 4 7 9 -6 9 49 9 59 0z m120
-18 c-6 -5 -25 10 -25 20 0 5 6 4 14 -3 8 -7 12 -15 11 -17z m39 17 c-3 -4 -9
-8 -15 -8 -5 0 -9 4 -9 8 0 5 7 9 15 9 8 0 12 -4 9 -9z m81 1 c3 -4 -5 -6 -17
-5 -13 1 -29 -2 -36 -7 -7 -6 -15 -7 -19 -3 -3 3 -1 6 6 6 7 0 10 4 7 9 -6 9
49 9 59 0z m120 -18 c-6 -5 -25 10 -25 20 0 5 6 4 14 -3 8 -7 12 -15 11 -17z
m39 17 c-3 -4 -9 -8 -15 -8 -5 0 -9 4 -9 8 0 5 7 9 15 9 8 0 12 -4 9 -9z m81
1 c3 -4 -5 -6 -17 -5 -13 1 -29 -2 -36 -7 -7 -6 -15 -7 -19 -3 -3 3 -1 6 6 6
7 0 10 4 7 9 -6 9 49 9 59 0z m120 -18 c-6 -5 -25 10 -25 20 0 5 6 4 14 -3 8
-7 12 -15 11 -17z m39 17 c-3 -4 -9 -8 -15 -8 -5 0 -9 4 -9 8 0 5 7 9 15 9 8
0 12 -4 9 -9z m46 1 c0 -9 -31 -21 -38 -14 -3 3 0 5 7 5 7 0 10 4 7 8 -3 5 1
9 9 9 8 0 15 -4 15 -8z m985 -419 c16 -17 16 -20 3 -15 -9 4 -19 13 -22 21 -7
19 -2 18 19 -6z m432 -775 c0 -8 -4 -12 -9 -9 -5 3 -6 10 -3 15 9 13 12 11 12
-6z m30 -140 c0 -8 -4 -15 -9 -15 -10 0 -11 14 -1 23 9 10 10 9 10 -8z m-2
-34 c3 -5 2 -12 -3 -15 -5 -3 -9 1 -9 9 0 17 3 19 12 6z m-1 -57 c3 -8 2 -12
-4 -9 -6 3 -10 10 -10 16 0 14 7 11 14 -7z m-6947 -50 c-3 -3 -12 -4 -19 -1
-8 3 -5 6 6 6 11 1 17 -2 13 -5z m-9 -38 c-1 -14 -6 -23 -9 -20 -10 6 -7 44 3
44 4 0 7 -11 6 -24z m-1 -71 c-4 -8 -2 -17 3 -20 5 -3 7 -12 3 -20 -9 -26 -19
-16 -19 20 0 19 4 35 9 35 5 0 7 -7 4 -15z m6963 -15 c0 -5 -2 -10 -4 -10 -3
0 -8 5 -11 10 -3 6 -1 10 4 10 6 0 11 -4 11 -10z m-6958 -65 c0 -5 -5 -10 -11
-12 -8 -1 -7 0 0 4 8 4 7 8 -2 15 -11 8 -11 9 -1 6 8 -2 14 -8 14 -13z m6955
0 c0 -8 -4 -12 -9 -9 -5 3 -6 10 -3 15 9 13 12 11 12 -6z m-6957 -34 c0 -6 -4
-12 -8 -15 -5 -3 -9 1 -9 9 0 8 4 15 9 15 4 0 8 -4 8 -9z m4 -43 c-10 -16 -12
-98 -2 -104 4 -3 5 -11 1 -19 -12 -32 -18 -12 -18 59 -1 41 3 72 7 70 4 -3 8
0 8 7 0 7 3 10 6 6 3 -3 2 -12 -2 -19z m-2 -163 c0 -5 -5 -10 -11 -11 -8 -2
-7 -1 0 3 8 4 7 8 -2 15 -11 8 -11 9 -1 6 8 -2 14 -8 14 -13z m-2 -34 c0 -6
-4 -12 -8 -15 -5 -3 -9 1 -9 9 0 8 4 15 9 15 4 0 8 -4 8 -9z m4 -43 c-10 -16
-12 -98 -2 -104 4 -3 5 -11 1 -19 -12 -32 -18 -12 -18 59 -1 41 3 72 7 70 4
-3 8 0 8 7 0 7 3 10 6 6 3 -3 2 -12 -2 -19z m-2 -163 c0 -5 -5 -10 -11 -11 -8
-2 -7 -1 0 3 8 4 7 8 -2 15 -11 8 -11 9 -1 6 8 -2 14 -8 14 -13z m-2 -34 c0
-6 -4 -12 -8 -15 -5 -3 -9 1 -9 9 0 8 4 15 9 15 4 0 8 -4 8 -9z m4 -43 c-10
-16 -12 -98 -2 -104 4 -3 5 -11 1 -19 -12 -32 -18 -12 -18 59 -1 41 3 72 7 70
4 -3 8 0 8 7 0 7 3 10 6 6 3 -3 2 -12 -2 -19z m-2 -163 c0 -5 -5 -10 -11 -11
-8 -2 -7 -1 0 3 8 4 7 8 -2 15 -11 8 -11 9 -1 6 8 -2 14 -8 14 -13z m-2 -34
c0 -6 -4 -12 -8 -15 -5 -3 -9 1 -9 9 0 8 4 15 9 15 4 0 8 -4 8 -9z m4 -43
c-10 -16 -12 -98 -2 -104 4 -3 5 -11 1 -19 -12 -32 -18 -12 -18 59 -1 41 3 72
7 70 4 -3 8 0 8 7 0 7 3 10 6 6 3 -3 2 -12 -2 -19z m-2 -163 c0 -5 -5 -10 -11
-11 -8 -2 -7 -1 0 3 8 4 7 8 -2 15 -11 8 -11 9 -1 6 8 -2 14 -8 14 -13z m-2
-34 c0 -6 -4 -12 -8 -15 -5 -3 -9 1 -9 9 0 8 4 15 9 15 4 0 8 -4 8 -9z m4 -43
c-10 -16 -12 -98 -2 -104 4 -3 5 -11 1 -19 -12 -32 -18 -12 -18 59 -1 41 3 72
7 70 4 -3 8 0 8 7 0 7 3 10 6 6 3 -3 2 -12 -2 -19z m-2 -163 c0 -5 -5 -10 -11
-11 -8 -2 -7 -1 0 3 8 4 7 8 -2 15 -11 8 -11 9 -1 6 8 -2 14 -8 14 -13z m-2
-34 c0 -6 -4 -12 -8 -15 -5 -3 -9 1 -9 9 0 8 4 15 9 15 4 0 8 -4 8 -9z m4 -43
c-10 -16 -12 -98 -2 -104 4 -3 5 -11 1 -19 -12 -32 -18 -12 -18 59 -1 41 3 72
7 70 4 -3 8 0 8 7 0 7 3 10 6 6 3 -3 2 -12 -2 -19z m-2 -163 c0 -5 -5 -10 -11
-11 -8 -2 -7 -1 0 3 8 4 7 8 -2 15 -11 8 -11 9 -1 6 8 -2 14 -8 14 -13z m-2
-34 c0 -6 -4 -12 -8 -15 -5 -3 -9 1 -9 9 0 8 4 15 9 15 4 0 8 -4 8 -9z m4 -43
c-10 -16 -12 -98 -2 -104 4 -3 5 -11 1 -19 -12 -32 -18 -12 -18 59 -1 41 3 72
7 70 4 -3 8 0 8 7 0 7 3 10 6 6 3 -3 2 -12 -2 -19z m6956 -18 c0 -5 -2 -10 -4
-10 -3 0 -8 5 -11 10 -3 6 -1 10 4 10 6 0 11 -4 11 -10z m-3 -65 c0 -8 -4 -12
-9 -9 -5 3 -6 10 -3 15 9 13 12 11 12 -6z m-6955 -80 c0 -5 -5 -10 -11 -11 -8
-2 -7 -1 0 3 8 4 7 8 -2 15 -11 8 -11 9 -1 6 8 -2 14 -8 14 -13z m-2 -34 c0
-6 -4 -12 -8 -15 -5 -3 -9 1 -9 9 0 8 4 15 9 15 4 0 8 -4 8 -9z m4 -43 c-10
-16 -12 -98 -2 -104 4 -3 5 -11 1 -19 -12 -32 -18 -12 -18 59 -1 41 3 72 7 70
4 -3 8 0 8 7 0 7 3 10 6 6 3 -3 2 -12 -2 -19z m6950 -84 c3 -8 2 -12 -4 -9 -6
3 -10 10 -10 16 0 14 7 11 14 -7z m-6952 -79 c0 -5 -5 -10 -11 -11 -8 -2 -7
-1 0 3 8 4 7 8 -2 15 -11 8 -11 9 -1 6 8 -2 14 -8 14 -13z m-2 -34 c0 -6 -4
-12 -8 -15 -5 -3 -9 1 -9 9 0 8 4 15 9 15 4 0 8 -4 8 -9z m4 -43 c-10 -16 -12
-98 -2 -104 4 -3 5 -11 1 -19 -12 -32 -18 -12 -18 59 -1 41 3 72 7 70 4 -3 8
0 8 7 0 7 3 10 6 6 3 -3 2 -12 -2 -19z m6956 -18 c0 -5 -2 -10 -4 -10 -3 0 -8
5 -11 10 -3 6 -1 10 4 10 6 0 11 -4 11 -10z m-3 -65 c0 -8 -4 -12 -9 -9 -5 3
-6 10 -3 15 9 13 12 11 12 -6z m-6955 -80 c0 -5 -5 -10 -11 -11 -8 -2 -7 -1 0
3 8 4 7 8 -2 15 -11 8 -11 9 -1 6 8 -2 14 -8 14 -13z m-2 -34 c0 -6 -4 -12 -8
-15 -5 -3 -9 1 -9 9 0 8 4 15 9 15 4 0 8 -4 8 -9z m4 -43 c-10 -16 -12 -98 -2
-104 4 -3 5 -11 1 -19 -12 -32 -18 -12 -18 59 -1 41 3 72 7 70 4 -3 8 0 8 7 0
7 3 10 6 6 3 -3 2 -12 -2 -19z m6950 -84 c3 -8 2 -12 -4 -9 -6 3 -10 10 -10
16 0 14 7 11 14 -7z m-6952 -79 c0 -5 -5 -10 -11 -11 -8 -2 -7 -1 0 3 8 4 7 8
-2 15 -11 8 -11 9 -1 6 8 -2 14 -8 14 -13z m-2 -34 c0 -6 -4 -12 -8 -15 -5 -3
-9 1 -9 9 0 8 4 15 9 15 4 0 8 -4 8 -9z m4 -43 c-10 -16 -12 -98 -2 -104 4 -3
5 -11 1 -19 -12 -32 -18 -12 -18 59 -1 41 3 72 7 70 4 -3 8 0 8 7 0 7 3 10 6
6 3 -3 2 -12 -2 -19z m6956 -18 c0 -5 -2 -10 -4 -10 -3 0 -8 5 -11 10 -3 6 -1
10 4 10 6 0 11 -4 11 -10z m-3 -65 c0 -8 -4 -12 -9 -9 -5 3 -6 10 -3 15 9 13
12 11 12 -6z m-6955 -80 c0 -5 -5 -10 -11 -11 -8 -2 -7 -1 0 3 8 4 7 8 -2 15
-11 8 -11 9 -1 6 8 -2 14 -8 14 -13z m-2 -34 c0 -6 -4 -12 -8 -15 -5 -3 -9 1
-9 9 0 8 4 15 9 15 4 0 8 -4 8 -9z m4 -43 c-10 -16 -12 -98 -2 -104 4 -3 5
-11 1 -19 -12 -32 -18 -12 -18 59 -1 41 3 72 7 70 4 -3 8 0 8 7 0 7 3 10 6 6
3 -3 2 -12 -2 -19z m6956 -18 c0 -5 -2 -10 -4 -10 -3 0 -8 5 -11 10 -3 6 -1
10 4 10 6 0 11 -4 11 -10z m-6958 -145 c0 -5 -5 -10 -11 -11 -8 -2 -7 -1 0 3
8 4 7 8 -2 15 -11 8 -11 9 -1 6 8 -2 14 -8 14 -13z m-2 -34 c0 -6 -4 -12 -8
-15 -5 -3 -9 1 -9 9 0 8 4 15 9 15 4 0 8 -4 8 -9z m4 -43 c-10 -16 -12 -98 -2
-104 4 -3 5 -11 1 -19 -12 -32 -18 -12 -18 59 -1 41 3 72 7 70 4 -3 8 0 8 7 0
7 3 10 6 6 3 -3 2 -12 -2 -19z m-2 -163 c0 -5 -5 -10 -11 -11 -8 -2 -7 -1 0 3
8 4 7 8 -2 15 -11 8 -11 9 -1 6 8 -2 14 -8 14 -13z m-2 -34 c0 -6 -4 -12 -8
-15 -5 -3 -9 1 -9 9 0 8 4 15 9 15 4 0 8 -4 8 -9z m4 -43 c-10 -16 -12 -98 -2
-104 4 -3 5 -11 1 -19 -12 -32 -18 -12 -18 59 -1 41 3 72 7 70 4 -3 8 0 8 7 0
7 3 10 6 6 3 -3 2 -12 -2 -19z m-2 -163 c0 -5 -5 -10 -11 -11 -8 -2 -7 -1 0 3
8 4 7 8 -2 15 -11 8 -11 9 -1 6 8 -2 14 -8 14 -13z m-2 -34 c0 -6 -4 -12 -8
-15 -5 -3 -9 1 -9 9 0 8 4 15 9 15 4 0 8 -4 8 -9z m4 -43 c-10 -16 -12 -98 -2
-104 4 -3 5 -11 1 -19 -12 -32 -18 -12 -18 59 -1 41 3 72 7 70 4 -3 8 0 8 7 0
7 3 10 6 6 3 -3 2 -12 -2 -19z m6956 -18 c0 -5 -2 -10 -4 -10 -3 0 -8 5 -11
10 -3 6 -1 10 4 10 6 0 11 -4 11 -10z m-3 -65 c0 -8 -4 -12 -9 -9 -5 3 -6 10
-3 15 9 13 12 11 12 -6z m-6955 -80 c0 -5 -5 -10 -11 -11 -8 -2 -7 -1 0 3 8 4
7 8 -2 15 -11 8 -11 9 -1 6 8 -2 14 -8 14 -13z m-2 -34 c0 -6 -4 -12 -8 -15
-5 -3 -9 1 -9 9 0 8 4 15 9 15 4 0 8 -4 8 -9z m4 -43 c-10 -16 -12 -98 -2
-104 4 -3 5 -11 1 -19 -12 -32 -18 -12 -18 59 -1 41 3 72 7 70 4 -3 8 0 8 7 0
7 3 10 6 6 3 -3 2 -12 -2 -19z m6950 -84 c3 -8 2 -12 -4 -9 -6 3 -10 10 -10
16 0 14 7 11 14 -7z m3 -184 c2 -11 -1 -20 -5 -20 -4 0 -8 11 -8 25 0 28 8 24
13 -5z m-617 -1076 c0 -8 -19 -13 -24 -6 -3 5 1 9 9 9 8 0 15 -2 15 -3z m-697
-259 c4 -8 3 -16 -1 -19 -4 -3 -9 4 -9 15 -2 23 3 25 10 4z m-4308 -10 c6 0
13 3 16 8 3 5 9 2 12 -6 5 -13 -6 -14 -55 -8 -5 1 -8 6 -8 12 0 6 5 7 13 2 6
-4 17 -8 22 -8z m65 -5 c0 -5 -2 -10 -4 -10 -3 0 -8 5 -11 10 -3 6 -1 10 4 10
6 0 11 -4 11 -10z m515 0 c3 -5 1 -10 -4 -10 -6 0 -11 5 -11 10 0 6 2 10 4 10
3 0 8 -4 11 -10z m69 2 c3 -5 -1 -9 -9 -9 -8 0 -12 4 -9 9 7 10 11 10 18 0z
m171 -2 c3 -5 1 -10 -4 -10 -6 0 -11 5 -11 10 0 6 2 10 4 10 3 0 8 -4 11 -10z
m69 2 c3 -5 -1 -9 -9 -9 -8 0 -12 4 -9 9 7 10 11 10 18 0z m171 -2 c3 -5 1
-10 -4 -10 -6 0 -11 5 -11 10 0 6 2 10 4 10 3 0 8 -4 11 -10z m69 2 c3 -5 -1
-9 -9 -9 -8 0 -12 4 -9 9 7 10 11 10 18 0z m171 -2 c3 -5 1 -10 -4 -10 -6 0
-11 5 -11 10 0 6 2 10 4 10 3 0 8 -4 11 -10z m69 2 c3 -5 -1 -9 -9 -9 -8 0
-12 4 -9 9 3 4 7 8 9 8 2 0 6 -4 9 -8z m171 -2 c3 -5 1 -10 -4 -10 -6 0 -11 5
-11 10 0 6 2 10 4 10 3 0 8 -4 11 -10z m69 2 c3 -5 -1 -9 -9 -9 -8 0 -12 4 -9
9 3 4 7 8 9 8 2 0 6 -4 9 -8z m171 -2 c3 -5 1 -10 -4 -10 -6 0 -11 5 -11 10 0
6 2 10 4 10 3 0 8 -4 11 -10z m709 2 c3 -5 -1 -9 -9 -9 -8 0 -12 4 -9 9 3 4 7
8 9 8 2 0 6 -4 9 -8z m171 -2 c3 -5 1 -10 -4 -10 -6 0 -11 5 -11 10 0 6 2 10
4 10 3 0 8 -4 11 -10z m69 2 c3 -5 -1 -9 -9 -9 -8 0 -12 4 -9 9 3 4 7 8 9 8 2
0 6 -4 9 -8z m400 0 c2 -4 -4 -8 -14 -8 -10 0 -16 4 -14 8 7 10 21 10 28 0z
m171 -2 c3 -5 1 -10 -4 -10 -6 0 -11 5 -11 10 0 6 2 10 4 10 3 0 8 -4 11 -10z
m69 2 c3 -5 -1 -9 -9 -9 -8 0 -12 4 -9 9 3 4 7 8 9 8 2 0 6 -4 9 -8z m156 4
c0 -2 -7 -7 -16 -10 -8 -3 -12 -2 -9 4 6 10 25 14 25 6z m155 -6 c3 -5 1 -10
-4 -10 -6 0 -11 5 -11 10 0 6 2 10 4 10 3 0 8 -4 11 -10z m89 2 c3 -5 -1 -9
-9 -9 -8 0 -12 4 -9 9 3 4 7 8 9 8 2 0 6 -4 9 -8z m171 -2 c3 -5 1 -10 -4 -10
-6 0 -11 5 -11 10 0 6 2 10 4 10 3 0 8 -4 11 -10z m69 2 c3 -5 -1 -9 -9 -9 -8
0 -12 4 -9 9 3 4 7 8 9 8 2 0 6 -4 9 -8z m276 -3 c0 -4 -11 -6 -25 -6 -13 0
-22 3 -20 8 6 9 45 8 45 -2z"/>
<path d="M5570 6996 c0 -2 8 -10 18 -17 15 -13 16 -12 3 4 -13 16 -21 21 -21
13z"/>
<path d="M6181 6804 c0 -11 3 -14 6 -6 3 7 2 16 -1 19 -3 4 -6 -2 -5 -13z"/>
<path d="M708 6753 c6 -2 9 -10 6 -15 -4 -7 -2 -8 5 -4 13 9 5 26 -12 25 -9 0
-8 -2 1 -6z"/>
<path d="M6670 6400 c0 -5 5 -10 11 -10 5 0 7 5 4 10 -3 6 -8 10 -11 10 -2 0
-4 -4 -4 -10z"/>
<path d="M6970 1301 c0 -5 7 -15 17 -22 15 -13 15 -12 4 9 -12 23 -21 28 -21
13z"/>
</g>
</svg>
