<svg width="372" height="280" viewBox="0 0 372 280" fill="none" xmlns="http://www.w3.org/2000/svg">
<path d="M25.0207 134.957L150.97 61.7058C151.875 61.1833 152.901 60.9082 153.946 60.9082C154.991 60.9082 156.018 61.1833 156.923 61.7058L345.266 169.488C346.175 170.01 346.93 170.762 347.455 171.668C347.98 172.575 348.257 173.604 348.257 174.652C348.257 175.7 347.98 176.729 347.455 177.636C346.93 178.543 346.175 179.295 345.266 179.816L224.843 249.361C221.888 251.068 218.536 251.966 215.124 251.966C211.711 251.966 208.359 251.068 205.404 249.361L25.0765 145.266C24.1691 144.748 23.414 144.001 22.887 143.099C22.3599 142.197 22.0795 141.172 22.0738 140.128C22.0682 139.083 22.3375 138.055 22.8548 137.148C23.3721 136.24 24.1191 135.484 25.0207 134.957Z" fill="#FFD24D"/>
<path d="M157.517 77.5504V22.9766H153.895V77.2996C154.45 77.5872 155.057 77.7579 155.68 77.8011C156.303 77.8442 156.929 77.7589 157.517 77.5504Z" fill="#772E29"/>
<path d="M76.0468 159.216L185.51 221.935L212.416 206.118L103.733 143.223L76.0468 159.216Z" fill="#A04D42"/>
<path d="M103.733 143.223V175.079L76.0466 159.216L103.733 143.223Z" fill="#772E29"/>
<path d="M159.158 40.4751C166.61 39.0266 171.297 30.8847 169.626 22.2897C167.956 13.6947 160.56 7.90134 153.108 9.34987C145.656 10.7984 140.969 18.9403 142.64 27.5353C144.311 36.1303 151.706 41.9236 159.158 40.4751Z" fill="#7342CC"/>
<path d="M158.566 37.4302C164.558 36.2655 168.326 29.717 166.982 22.8037C165.639 15.8905 159.692 11.2304 153.7 12.395C147.708 13.5597 143.94 20.1082 145.284 27.0215C146.628 33.9347 152.574 38.5949 158.566 37.4302Z" fill="#7342CC" stroke="#F2F2F2" stroke-width="1.015" stroke-miterlimit="10"/>
<path d="M157.072 16.9578C156.699 16.6312 156.22 16.4512 155.725 16.4512C155.229 16.4512 154.751 16.6312 154.378 16.9578C153.57 17.8029 153.849 18.9732 153.849 20.0412V23.4591C153.849 24.7593 153.849 26.0596 153.849 27.3599C153.826 27.6913 153.887 28.0233 154.027 28.3247C154.167 28.6261 154.381 28.8872 154.648 29.0838C154.916 29.2803 155.23 29.4059 155.559 29.4487C155.889 29.4916 156.224 29.4503 156.533 29.3288C157.638 28.9109 157.545 27.815 157.545 26.8305C157.545 24.49 157.545 22.1867 157.545 19.7998C157.545 18.9825 157.796 17.9423 157.267 17.1807C157.209 17.1001 157.144 17.0255 157.072 16.9578Z" fill="white"/>
<path d="M155.298 31.2431C155.14 31.2975 154.996 31.3854 154.876 31.5009C154.756 31.6164 154.662 31.7565 154.601 31.9118C154.053 33.2678 155.53 34.8745 156.793 33.7693C156.953 33.592 157.069 33.3803 157.134 33.1505C157.199 32.9208 157.209 32.6792 157.165 32.4447C157.121 32.2101 157.024 31.9889 156.88 31.7982C156.737 31.6075 156.551 31.4525 156.338 31.3452C156.018 31.1765 155.644 31.1398 155.298 31.2431Z" fill="white"/>
<path style="mix-blend-mode:multiply" opacity="0.63" d="M183.049 110.512L116.559 149.511L78.0343 126.097L132.45 94.3242" fill="url(#paint0_linear_1800:14328)"/>
<path style="mix-blend-mode:multiply" opacity="0.63" d="M221.144 147.62C217.148 149.52 212.859 150.781 208.445 151.356C201.766 152.301 192.674 153.864 186.529 150.36C180.777 147.079 180.456 141.308 182.7 136L140 159.824L185.194 184L235 155.83L221.144 147.62Z" fill="url(#paint1_linear_1800:14328)"/>
<path style="mix-blend-mode:multiply" opacity="0.63" d="M283.624 190.543L239.025 216.706L198.568 194.258L245.424 167.129" fill="url(#paint2_linear_1800:14328)"/>
<path d="M301.308 166.294L299.014 164.966L290.181 165.811L290.989 163.34L279.779 160.238H245.192L225.15 166.554V178.08L243.428 188.63H242.499V200.193L255.13 207.484L265.625 201.466L272.377 205.367L283.253 199.042V191.222L313.697 173.529H313.781V162.003L301.308 166.294ZM263.832 187.85L247.821 178.563L286.438 174.671L263.832 187.85Z" fill="#68E1FD"/>
<path opacity="0.95" d="M301.308 166.294L299.014 164.966L290.181 165.811L290.989 163.34L279.779 160.238H245.192L225.15 166.554V178.08L243.428 188.63H242.499V200.193L255.13 207.484L265.625 201.466L272.377 205.367L283.253 199.042V191.222L313.697 173.529H313.781V162.003L301.308 166.294ZM263.832 187.85L247.821 178.563L286.438 174.671L263.832 187.85Z" fill="#7342CC"/>
<path d="M276.463 183.586L283.215 187.487L272.34 193.812L265.588 189.911L255.121 195.994L242.489 188.703L252.956 182.62L225.094 166.562L237.651 159.262L298.949 153.42L313.679 161.927L276.463 183.586ZM263.832 176.295L286.438 163.163L247.82 167.054L263.832 176.342" fill="#DECCFF"/>
<path d="M245.043 140.233V127.1L235.756 128.233L235.57 128.122C233.912 127.175 232.182 126.358 230.397 125.679C229.301 122.763 226.682 117.181 222.688 116.122C217.171 114.674 207.893 116.317 207.893 116.317L187.405 125.271C187.498 125.271 188.919 125.67 190.953 126.134C187.082 127.494 183.35 129.22 179.808 131.289C177.469 132.629 175.239 134.151 173.139 135.84L164.929 136.834V150.161C164.972 155.486 168.158 159.981 174.486 163.647C181.513 167.703 190.29 169.517 200.816 169.089C211.196 168.675 221.313 165.702 230.267 160.433C239.424 155.109 244.35 149.403 245.043 143.316C245.16 142.292 245.16 141.257 245.043 140.233ZM192.364 138.58C197.829 135.24 203.967 133.156 210.336 132.478C216.181 131.97 220.825 132.704 224.267 134.679C225.155 135.174 225.962 135.801 226.663 136.536C221.221 143.641 212.621 148.425 203.797 150.273C197.008 151.694 190.934 151.248 185.222 147.152C184.674 146.762 184.071 146.316 183.439 145.843C185.148 143.465 188.126 141.041 192.374 138.57L192.364 138.58Z" fill="#68E1FD"/>
<path opacity="0.95" d="M245.043 140.233V127.1L235.756 128.233L235.57 128.122C233.912 127.175 232.182 126.358 230.397 125.679C229.301 122.763 226.682 117.181 222.688 116.122C217.171 114.674 207.893 116.317 207.893 116.317L187.405 125.271C187.498 125.271 188.919 125.67 190.953 126.134C187.082 127.494 183.35 129.22 179.808 131.289C177.469 132.629 175.239 134.151 173.139 135.84L164.929 136.834V150.161C164.972 155.486 168.158 159.981 174.486 163.647C181.513 167.703 190.29 169.517 200.816 169.089C211.196 168.675 221.313 165.702 230.267 160.433C239.424 155.109 244.35 149.403 245.043 143.316C245.16 142.292 245.16 141.257 245.043 140.233ZM192.364 138.58C197.829 135.24 203.967 133.156 210.336 132.478C216.181 131.97 220.825 132.704 224.267 134.679C225.155 135.174 225.962 135.801 226.663 136.536C221.221 143.641 212.621 148.425 203.797 150.273C197.008 151.694 190.934 151.248 185.222 147.152C184.674 146.762 184.071 146.316 183.439 145.843C185.148 143.465 188.126 141.041 192.374 138.57L192.364 138.58Z" fill="#7342CC"/>
<path d="M245.044 130.248C244.35 136.334 239.425 142.04 230.267 147.365C221.291 152.633 211.151 155.598 200.751 155.993C190.225 156.42 181.448 154.606 174.421 150.55C167.393 146.495 164.235 141.43 164.947 135.356C165.659 129.257 170.591 123.548 179.742 118.23C188.715 112.965 198.853 110.006 209.249 109.62C219.775 109.199 228.543 111.016 235.552 115.072C242.561 119.127 245.725 124.186 245.044 130.248ZM199.683 146.176C206.052 145.495 212.19 143.408 217.654 140.065C223.79 136.498 227.286 133.022 228.14 129.635C228.995 126.248 227.707 123.564 224.276 121.582C220.846 119.601 216.202 118.867 210.345 119.381C203.977 120.059 197.838 122.143 192.374 125.483C186.244 129.043 182.752 132.52 181.897 135.913C181.043 139.306 182.328 141.99 185.752 143.965C189.188 145.947 193.832 146.684 199.683 146.176Z" fill="#DECCFF"/>
<path d="M180.764 99.4325L178.47 98.1043L169.638 98.9495L170.446 96.479L159.236 93.377H124.63L104.587 99.6925V111.209L122.865 121.76H121.937V133.323L134.568 140.614L145.035 134.53L151.787 138.431L162.663 132.106V124.286L193.107 106.593H193.191V95.1416L180.764 99.4325ZM143.289 120.989L127.277 111.701L165.895 107.81L143.289 120.989Z" fill="#68E1FD"/>
<path opacity="0.95" d="M180.764 99.4325L178.47 98.1043L169.638 98.9495L170.446 96.479L159.236 93.377H124.63L104.587 99.6925V111.209L122.865 121.76H121.937V133.323L134.568 140.614L145.035 134.53L151.787 138.431L162.663 132.106V124.286L193.107 106.593H193.191V95.1416L180.764 99.4325ZM143.289 120.989L127.277 111.701L165.895 107.81L143.289 120.989Z" fill="#7342CC"/>
<path d="M155.92 116.725L162.672 120.625L151.796 126.95L145.044 123.05L134.577 129.133L121.946 121.842L132.413 115.759L104.55 99.7005L117.107 92.4005L178.405 86.5586L193.182 95.0567L155.92 116.725ZM143.289 109.434L165.895 96.3013L127.24 100.183L143.252 109.471" fill="#DECCFF"/>
<path style="mix-blend-mode:multiply" opacity="0.63" d="M60.9823 135.105L35.2278 150.142L57.8802 163.906L83.1146 149.111C75.4616 144.839 67.7993 140.539 60.9823 135.105Z" fill="url(#paint3_linear_1800:14328)"/>
<path style="mix-blend-mode:multiply" opacity="0.63" d="M208.803 219.873L183.049 234.91L205.701 248.665L230.936 233.869C223.283 229.634 215.648 225.334 208.803 219.873Z" fill="url(#paint4_linear_1800:14328)"/>
<path d="M72.2573 155.519L92.9686 143.231C93.4336 142.957 93.8207 142.569 94.0933 142.103C94.3658 141.637 94.5148 141.109 94.5259 140.569C94.5371 140.029 94.4101 139.496 94.1571 139.019C93.904 138.542 93.5333 138.138 93.0801 137.845L75.9631 126.699C75.0943 126.124 74.0751 125.816 73.0328 125.816C71.9905 125.816 70.9713 126.124 70.1026 126.699L49.7628 140.389C49.3213 140.687 48.962 141.091 48.7181 141.565C48.4742 142.038 48.3536 142.565 48.3675 143.098C48.3814 143.63 48.5293 144.15 48.7975 144.61C49.0658 145.07 49.4457 145.455 49.9021 145.73L66.0996 155.51C67.0298 156.066 68.0932 156.361 69.1772 156.363C70.2612 156.365 71.3255 156.073 72.2573 155.519Z" fill="#B24800"/>
<path d="M72.2573 153.661L92.9686 141.374C93.4336 141.1 93.8207 140.711 94.0933 140.245C94.3658 139.779 94.5148 139.251 94.5259 138.712C94.5371 138.172 94.4101 137.638 94.1571 137.161C93.904 136.685 93.5333 136.28 93.0801 135.987L75.9631 124.842C75.0943 124.266 74.0751 123.959 73.0328 123.959C71.9905 123.959 70.9713 124.266 70.1026 124.842L49.7628 138.532C49.3213 138.83 48.962 139.234 48.7181 139.707C48.4742 140.181 48.3536 140.708 48.3675 141.24C48.3814 141.773 48.5293 142.293 48.7975 142.753C49.0658 143.213 49.4457 143.598 49.9021 143.872L66.0904 153.587C67.0157 154.156 68.0777 154.463 69.1636 154.476C70.2495 154.489 71.3186 154.207 72.2573 153.661Z" fill="#DF5D00"/>
<path d="M68.8116 104.43L57.8151 139.212C57.8151 139.212 55.131 148.035 71.6258 147.143C88.1205 146.252 85.9472 138.06 85.9472 138.06L74.9415 104.43" fill="#FF8522"/>
<path d="M64.7344 117.31C64.7344 117.31 66.917 119.567 71.9416 119.567C78.22 119.567 78.8887 116.475 78.8887 116.475L81.192 123.505C81.192 123.505 79.5389 127.471 71.9045 127.341C65.0317 127.23 62.3383 124.759 62.3383 124.759" fill="white"/>
<path d="M60.648 130.565C63.6327 133.453 67.6398 135.043 71.7931 134.986C79.9569 134.893 83.0218 129.088 83.0218 129.088L85.4458 136.518C85.4458 136.518 81.9444 141.951 71.8767 142.676C62.3847 143.354 58.3075 138.032 58.3075 138.032" fill="white"/>
<g style="mix-blend-mode:multiply" opacity="0.15">
<path d="M71.1801 104.707H68.8303L57.8338 139.47C57.8338 139.47 55.3354 147.699 70.0098 147.458C70.3256 133.192 71.0408 118.945 71.1801 104.707Z" fill="#FF8522"/>
</g>
<path d="M71.9416 106.481C73.6702 106.481 75.0715 105.679 75.0715 104.689C75.0715 103.699 73.6702 102.896 71.9416 102.896C70.213 102.896 68.8116 103.699 68.8116 104.689C68.8116 105.679 70.213 106.481 71.9416 106.481Z" fill="#FF9F57"/>
<path d="M216.995 242.628L237.706 230.341C238.171 230.066 238.558 229.678 238.831 229.212C239.104 228.746 239.252 228.218 239.264 227.678C239.275 227.139 239.148 226.605 238.895 226.128C238.642 225.651 238.271 225.247 237.818 224.954L220.701 213.809C219.832 213.233 218.813 212.926 217.771 212.926C216.728 212.926 215.709 213.233 214.84 213.809L194.5 227.499C194.059 227.796 193.7 228.201 193.456 228.674C193.212 229.148 193.091 229.675 193.105 230.207C193.119 230.739 193.267 231.26 193.535 231.72C193.803 232.18 194.183 232.565 194.64 232.839L210.828 242.61C211.758 243.17 212.823 243.467 213.909 243.47C214.995 243.474 216.061 243.183 216.995 242.628Z" fill="#B24800"/>
<path d="M216.995 240.761L237.706 228.474C238.171 228.199 238.558 227.811 238.831 227.345C239.104 226.879 239.252 226.351 239.264 225.811C239.275 225.272 239.148 224.738 238.895 224.261C238.642 223.784 238.271 223.38 237.818 223.087L220.701 211.942C219.832 211.366 218.813 211.059 217.771 211.059C216.728 211.059 215.709 211.366 214.84 211.942L194.5 225.632C194.059 225.929 193.7 226.334 193.456 226.807C193.212 227.28 193.091 227.808 193.105 228.34C193.119 228.872 193.267 229.393 193.535 229.853C193.803 230.313 194.183 230.698 194.64 230.972L210.828 240.752C211.759 241.31 212.824 241.606 213.91 241.608C214.996 241.609 216.062 241.317 216.995 240.761Z" fill="#DF5D00"/>
<path d="M213.549 191.537L202.553 226.319C202.553 226.319 199.869 235.142 216.364 234.251C232.858 233.359 230.685 225.167 230.685 225.167L219.689 191.537" fill="#FF8522"/>
<path d="M209.472 204.418C209.472 204.418 211.655 206.675 216.679 206.675C222.958 206.675 223.626 203.582 223.626 203.582L225.93 210.613C225.93 210.613 224.277 214.579 216.642 214.449C209.769 214.337 207.076 211.867 207.076 211.867" fill="white"/>
<path d="M205.395 217.672C208.38 220.561 212.387 222.15 216.54 222.093C224.704 222 227.769 216.195 227.769 216.195L230.193 223.625C230.193 223.625 226.691 229.059 216.624 229.783C207.132 230.461 203.054 225.139 203.054 225.139" fill="white"/>
<g style="mix-blend-mode:multiply" opacity="0.15">
<path d="M215.927 191.797H213.568L202.571 226.579C202.571 226.579 200.073 234.808 214.747 234.566C215.063 220.3 215.778 206.053 215.927 191.797Z" fill="#FF8522"/>
</g>
<path d="M216.679 193.589C218.408 193.589 219.809 192.786 219.809 191.796C219.809 190.806 218.408 190.004 216.679 190.004C214.951 190.004 213.549 190.806 213.549 191.796C213.549 192.786 214.951 193.589 216.679 193.589Z" fill="#FF9F57"/>
<defs>
<linearGradient id="paint0_linear_1800:14328" x1="120.664" y1="141.7" x2="131.187" y2="116.772" gradientUnits="userSpaceOnUse">
<stop stop-color="white" stop-opacity="0"/>
<stop offset="0.98" stop-color="#84210B"/>
</linearGradient>
<linearGradient id="paint1_linear_1800:14328" x1="18323" y1="9251.2" x2="18604.3" y2="7932.89" gradientUnits="userSpaceOnUse">
<stop stop-color="white" stop-opacity="0"/>
<stop offset="0.98" stop-color="#84210B"/>
</linearGradient>
<linearGradient id="paint2_linear_1800:14328" x1="21696.4" y1="11204.5" x2="21979.8" y2="10052.3" gradientUnits="userSpaceOnUse">
<stop stop-color="white" stop-opacity="0"/>
<stop offset="0.98" stop-color="#84210B"/>
</linearGradient>
<linearGradient id="paint3_linear_1800:14328" x1="2784.89" y1="5005.9" x2="2942.64" y2="4640.59" gradientUnits="userSpaceOnUse">
<stop stop-color="white" stop-opacity="0"/>
<stop offset="0.98" stop-color="#84210B"/>
</linearGradient>
<linearGradient id="paint4_linear_1800:14328" x1="10516.1" y1="7756.63" x2="10633.3" y2="7478.4" gradientUnits="userSpaceOnUse">
<stop stop-color="white" stop-opacity="0"/>
<stop offset="0.98" stop-color="#84210B"/>
</linearGradient>
</defs>
</svg>
