<svg width="307.98" height="202.82" viewBox="0 0 320 240" fill="none" xmlns="http://www.w3.org/2000/svg">
<path d="M155.057 230.52L11.6205 145.96C7.05531 143.405 3.13658 139.202 7.59005 136.455L151.546 53.663C153.709 52.3256 156.989 51.4499 159.184 52.7237L309.756 139.902C314.321 142.545 315.143 149.933 310.554 152.584L173.989 230.384C171.118 232.049 167.861 232.936 164.541 232.96C161.221 232.984 157.952 232.143 155.057 230.52V230.52Z" fill="#B095FE"/>
<path style="mix-blend-mode:multiply" opacity="0.63" d="M200.055 205.18C196.823 206.167 197.142 209.487 193.822 210.147C191.795 210.553 191.22 215.242 189.169 215.401L174.851 226.26L132.391 199.886L172.209 177.07L206.472 199.026C201.125 202.959 206.296 203.309 200.055 205.18Z" fill="url(#paint0_linear)"/>
<path style="mix-blend-mode:multiply" opacity="0.63" d="M152.879 160.974C148.481 162.32 148.888 166.833 144.387 167.741C141.625 168.298 140.843 174.683 138.05 174.906L118.56 189.697L60.7444 153.77L114.96 122.723L161.61 152.615C154.347 157.909 161.378 158.379 152.879 160.974Z" fill="url(#paint1_linear)"/>
<path style="mix-blend-mode:multiply" opacity="0.63" d="M297.568 154.606L252.076 125.453L195.745 157.734L242.666 186.871C261.374 176.816 279.076 165.026 297.568 154.606Z" fill="url(#paint2_linear)"/>
<path d="M126.142 90.1865L33.8799 110.63V137.752L69.9067 159.342L126.142 126.464V90.1865Z" fill="#6E3FC3"/>
<path opacity="0.81" d="M126.469 90.1309L69.372 129.306L33.8799 110.63L60.6406 96.0776" fill="#3099AA"/>
<path d="M27.1917 105.074L61.2233 124.673C71.6107 123.024 81.6145 119.518 90.7534 114.324C105.981 105.663 126.956 89.5423 126.956 89.5423L95.6778 71.4395L51.4384 97.4951C51.4384 97.4951 39.2033 103.45 27.1917 105.074Z" fill="#6E3FC3"/>
<path d="M31.0546 105.671L61.8139 123.392C71.6574 121.224 81.1338 117.644 89.9474 112.764C103.715 104.931 122.67 90.3625 122.67 90.3625L94.4008 73.9951L54.3994 97.5511C46.92 101.055 39.0966 103.776 31.0546 105.671V105.671Z" stroke="#2E3192" stroke-width="1.015" stroke-miterlimit="10"/>
<path opacity="0.54" d="M69.3719 129.306V159.342L126.142 126.464L126.964 89.502L69.3719 129.306Z" fill="#3099AA"/>
<path opacity="0.54" d="M69.3719 129.306V159.342L126.142 126.464L126.964 89.502L69.3719 129.306Z" fill="#3099AA"/>
<path opacity="0.5" d="M72.4208 91.5087L93.475 78.4609L116.525 90.6091C116.525 90.6091 92.5013 105.114 90.6816 106.125C88.8619 107.136 68.8772 118.066 60.1139 117.636L40.0653 106.491L72.4208 91.5087Z" fill="white"/>
<path opacity="0.54" d="M79.3165 109.722C89.3355 109.722 97.4576 105.816 97.4576 100.997C97.4576 96.1788 89.3355 92.2725 79.3165 92.2725C69.2974 92.2725 61.1754 96.1788 61.1754 100.997C61.1754 105.816 69.2974 109.722 79.3165 109.722Z" fill="#3099AA"/>
<path opacity="0.68" d="M33.8799 116.339C39.8498 119.523 45.8064 122.747 51.7496 126.011C57.6929 129.275 63.6256 132.541 69.5476 135.811H69.1725L83.3549 126.552L97.5773 117.35L111.84 108.211C116.596 105.175 121.369 102.158 126.158 99.1592C121.481 102.343 116.791 105.485 112.087 108.585L97.9604 117.923L83.8019 127.213L69.5955 136.432L69.4119 136.551L69.2203 136.447C63.309 133.146 57.4109 129.816 51.5262 126.457C45.6414 123.097 39.7593 119.725 33.8799 116.339Z" fill="#3099AA"/>
<path opacity="0.68" d="M33.8799 123.447C39.8498 126.631 45.8064 129.855 51.7496 133.119C57.6929 136.383 63.6256 139.65 69.5476 142.919H69.1725L83.3549 133.661L97.5773 124.458L111.84 115.319C116.596 112.283 121.369 109.266 126.158 106.268C121.481 109.452 116.791 112.594 112.087 115.693L97.9604 125.031L83.8019 134.329L69.5955 143.548L69.4119 143.667L69.2203 143.564C63.2877 140.257 57.3817 136.914 51.5022 133.533C45.6228 130.153 39.7487 126.79 33.8799 123.447Z" fill="#3099AA"/>
<path opacity="0.68" d="M34.0395 128.892C40.0094 132.076 45.966 135.3 51.9092 138.564C57.8525 141.828 63.7852 145.095 69.7072 148.364H69.3321L83.5065 139.105L97.7289 129.903L111.991 120.796C116.748 117.76 121.521 114.743 126.309 111.744C121.632 114.928 116.942 118.07 112.239 121.17L98.112 130.508L83.9455 139.782L69.7391 149.001L69.5555 149.12L69.364 149.017C63.4526 145.715 57.5546 142.385 51.6698 139.026C45.7851 135.666 39.9083 132.288 34.0395 128.892Z" fill="#3099AA"/>
<path opacity="0.68" d="M33.8799 134.21C39.8498 137.394 45.8064 140.618 51.7496 143.882C57.6929 147.146 63.6256 150.412 69.5476 153.682H69.1725L83.3549 144.423L97.5773 135.221L111.84 126.082C116.596 123.046 121.369 120.029 126.158 117.03C121.481 120.215 116.791 123.356 112.087 126.456L97.9604 135.794L83.8019 145.084L69.5955 154.303L69.4119 154.422L69.2203 154.319C63.309 151.017 57.4109 147.687 51.5262 144.328C45.6414 140.968 39.7593 137.596 33.8799 134.21Z" fill="#3099AA"/>
<path d="M55.2134 95.2744L90.7614 114.293V147.147L104.154 139.202V105.44L69.3719 86.9395L55.2134 95.2744Z" fill="#DCE5CA"/>
<path d="M90.7614 114.292L104.154 105.439V139.201L90.7614 147.146V114.292Z" fill="#C7D1B0"/>
<path d="M83.1793 98.3387C84.0518 98.4109 84.9024 98.6486 85.6854 99.0392C86.2407 99.2725 86.7133 99.6662 87.0422 100.17C87.1624 100.382 87.2201 100.624 87.2088 100.867C87.1975 101.111 87.1177 101.347 86.9784 101.547C86.6007 102.089 86.0894 102.525 85.4939 102.813L87.8882 103.967L86.5873 104.644L84.1929 103.45C83.0493 103.884 81.8406 104.123 80.6174 104.158C79.3015 104.219 77.9882 103.991 76.7705 103.489L79.2606 102.2C79.7711 102.395 80.3104 102.505 80.8568 102.526C81.264 102.544 81.6718 102.509 82.07 102.423L78.4864 100.663C77.4569 100.942 76.571 101.149 75.8447 101.276C75.0537 101.408 74.2493 101.44 73.4503 101.372C72.5722 101.297 71.7163 101.057 70.9283 100.663C70.3496 100.436 69.8693 100.014 69.5715 99.4691C69.4797 99.2452 69.4498 99.0007 69.4849 98.7613C69.52 98.5219 69.6188 98.2962 69.771 98.1078C70.1172 97.6586 70.5517 97.2848 71.048 97.0093L68.6377 95.8788L69.9386 95.2021L72.333 96.3644C73.4506 95.904 74.6438 95.6531 75.8527 95.6241C77.0991 95.5773 78.3416 95.7916 79.5 96.253L76.978 97.5585C76.5043 97.3862 76.0056 97.2921 75.5015 97.2799C75.1314 97.2656 74.761 97.3004 74.4001 97.3834L77.8799 99.087H78.0395C79.1036 98.811 80.0082 98.6067 80.7531 98.474C81.5526 98.3248 82.3681 98.2793 83.1793 98.3387V98.3387ZM83.9775 101.157C83.9775 100.862 83.7221 100.6 83.2432 100.361C82.7733 100.136 82.2554 100.029 81.7348 100.05C81.2354 100.067 80.7386 100.128 80.2503 100.233L83.5145 101.826C83.8258 101.611 83.9854 101.38 83.9775 101.149V101.157ZM76.1001 99.501L73.0273 97.9964C72.9238 98.06 72.8348 98.1446 72.766 98.2447C72.6973 98.3448 72.6504 98.4582 72.6283 98.5775C72.6283 98.8402 72.8438 99.087 73.3067 99.3179C73.7645 99.5371 74.2675 99.6461 74.7752 99.6363C75.2198 99.6273 75.6629 99.582 76.1001 99.501Z" fill="#0A5293"/>
<path d="M135.352 53.2568L43.0822 73.7001V100.823L79.109 122.412L135.352 89.5341V53.2568Z" fill="#6E3FC3"/>
<path opacity="0.81" d="M135.671 53.2012L78.5743 92.3762L43.0822 73.7002L69.8429 59.1479" fill="#3099AA"/>
<path d="M36.394 68.1433L70.4255 87.7428C80.813 86.0934 90.8167 82.5876 99.9557 77.3938C115.184 68.7324 136.158 52.6118 136.158 52.6118L104.872 34.5488L60.6566 60.5647C60.6566 60.5647 48.4135 66.5193 36.394 68.1433Z" fill="#6E3FC3"/>
<path d="M40.2648 68.7086L71.0321 86.4372C80.8756 84.2696 90.352 80.6898 99.1656 75.8096C112.933 67.9762 131.888 53.4079 131.888 53.4079L103.611 37.0645L63.6096 60.6204C56.129 64.1136 48.3056 66.8241 40.2648 68.7086V68.7086Z" stroke="#2E3192" stroke-width="1.015" stroke-miterlimit="10"/>
<path opacity="0.54" d="M78.5742 92.3762V122.412L135.352 89.5342L136.174 52.5723L78.5742 92.3762Z" fill="#3099AA"/>
<path opacity="0.54" d="M78.5742 92.3762V122.412L135.352 89.5342L136.174 52.5723L78.5742 92.3762Z" fill="#3099AA"/>
<path opacity="0.5" d="M81.631 54.578L102.685 41.5303L125.695 53.6784C125.695 53.6784 101.672 68.183 99.8519 69.194C98.0322 70.205 78.0475 81.1352 69.2842 80.7053L49.2356 69.5602L81.631 54.578Z" fill="white"/>
<path opacity="0.54" d="M88.5188 72.7918C98.5378 72.7918 106.66 68.8855 106.66 64.0668C106.66 59.2481 98.5378 55.3418 88.5188 55.3418C78.4997 55.3418 70.3777 59.2481 70.3777 64.0668C70.3777 68.8855 78.4997 72.7918 88.5188 72.7918Z" fill="#3099AA"/>
<path opacity="0.68" d="M43.0981 79.3998C49.068 82.5841 55.0246 85.8082 60.9679 89.0721C66.9112 92.3361 72.8438 95.6026 78.7658 98.8719H78.3907L92.5811 89.6294L106.804 80.4267L121.066 71.2877C125.823 68.252 130.595 65.2349 135.384 62.2363C130.707 65.4206 126.017 68.5625 121.313 71.6619L107.155 80.9919L92.9802 90.2822L78.7738 99.4928L78.5902 99.6122L78.3987 99.5087C72.4873 96.1864 66.5892 92.8562 60.7045 89.5179C54.8197 86.1797 48.9509 82.807 43.0981 79.3998Z" fill="#3099AA"/>
<path opacity="0.68" d="M43.0981 86.517C49.068 89.7013 55.0246 92.9254 60.9679 96.1893C66.9112 99.4532 72.8438 102.72 78.7658 105.989H78.3907L92.5811 96.7466L106.804 87.5439L121.066 78.4049C125.823 75.3692 130.595 72.3521 135.384 69.3535C130.707 72.5378 126.017 75.6797 121.313 78.7791L107.147 88.1569L92.9802 97.3994L78.7738 106.61L78.5902 106.729L78.3987 106.626C72.482 103.335 66.5839 100.005 60.7045 96.6351C54.8251 93.2651 48.9563 89.8923 43.0981 86.517Z" fill="#3099AA"/>
<path opacity="0.68" d="M43.2418 91.9614C49.2117 95.1458 55.1683 98.3699 61.1115 101.634C67.0548 104.898 72.9875 108.164 78.9095 111.434H78.5344L92.7168 102.175L106.947 92.9804L121.209 83.8415C125.966 80.8057 130.739 77.7886 135.528 74.79C130.851 77.9744 126.16 81.1162 121.457 84.2156L107.33 93.5536L93.1398 102.836L78.9334 112.039L78.7499 112.158L78.5583 112.054C72.6469 108.753 66.7489 105.423 60.8641 102.064C54.9794 98.7042 49.1053 95.3368 43.2418 91.9614Z" fill="#3099AA"/>
<path opacity="0.68" d="M43.0981 97.2718C49.068 100.456 55.0246 103.68 60.9679 106.944C66.9112 110.208 72.8438 113.475 78.7658 116.744H78.3907L92.5811 107.501L106.804 98.2988L121.066 89.1598C125.823 86.1241 130.595 83.107 135.384 80.1084C130.707 83.2927 126.017 86.4346 121.313 89.534L107.187 98.872L92.9802 108.154L78.7738 117.365L78.5902 117.484L78.3987 117.381C72.4873 114.08 66.5892 110.749 60.7045 107.39C54.8197 104.031 48.9509 100.658 43.0981 97.2718Z" fill="#3099AA"/>
<path d="M64.4157 58.3437L99.9717 77.362V110.216L113.356 102.271V68.5096L78.5742 50.0088L64.4157 58.3437Z" fill="#DCE5CA"/>
<path d="M99.9717 77.3622L113.356 68.5098V102.271L99.9717 110.216V77.3622Z" fill="#C7D1B0"/>
<path d="M92.3816 61.4086C93.2541 61.4808 94.1047 61.7186 94.8877 62.1092C95.4429 62.3424 95.9155 62.7361 96.2445 63.2396C96.3646 63.452 96.4224 63.6938 96.4111 63.9374C96.3998 64.181 96.3199 64.4164 96.1806 64.6168C95.8009 65.153 95.2898 65.5833 94.6961 65.8667L97.0905 67.021L95.7895 67.6976L93.3952 66.5035C92.2516 66.9379 91.0429 67.1774 89.8196 67.212C88.5037 67.2731 87.1904 67.0448 85.9727 66.5433L88.4629 65.2537C88.9734 65.4492 89.5126 65.5594 90.0591 65.5801C90.4662 65.5979 90.874 65.5631 91.2722 65.4766L87.6887 63.7173C86.6591 63.9959 85.7732 64.2029 85.0469 64.3302C84.256 64.4619 83.4516 64.494 82.6526 64.4258C81.7745 64.3514 80.9185 64.1109 80.1306 63.7173C79.5518 63.4903 79.0715 63.0676 78.7738 62.5231C78.682 62.2992 78.6521 62.0547 78.6872 61.8153C78.7223 61.5759 78.8211 61.3502 78.9733 61.1618C79.3194 60.7126 79.754 60.3388 80.2503 60.0633L77.9118 58.9169L79.2127 58.2402L81.6071 59.4025C82.7247 58.9421 83.9179 58.6911 85.1267 58.6622C86.3732 58.6154 87.6157 58.8297 88.7741 59.2911L86.1962 60.6285C85.7225 60.4561 85.2238 60.362 84.7197 60.3498C84.3496 60.3355 83.9792 60.3703 83.6183 60.4533L87.0981 62.1569H87.2577C88.3219 61.881 89.2264 61.6766 89.9713 61.544C90.7656 61.3961 91.5757 61.3506 92.3816 61.4086V61.4086ZM93.1797 64.2267C93.1797 63.9322 92.9243 63.6695 92.4454 63.4307C91.9756 63.2059 91.4577 63.0993 90.937 63.1202C90.4377 63.1369 89.9409 63.1982 89.4525 63.3033L92.7168 64.8954C93.0281 64.6805 93.1877 64.4496 93.1797 64.2188V64.2267ZM85.3023 62.5709L82.2056 61.0902C82.1021 61.1539 82.0131 61.2385 81.9443 61.3386C81.8756 61.4387 81.8287 61.552 81.8066 61.6713C81.8066 61.934 82.0221 62.1808 82.485 62.4117C82.9428 62.6309 83.4458 62.7399 83.9535 62.7301C84.3981 62.7211 84.8412 62.6758 85.2784 62.5948" fill="#0A5293"/>
<path style="mix-blend-mode:multiply" opacity="0.63" d="M183.702 87.4326L153.972 102.996L184.252 120.589H185.05C196.918 114.061 204.955 109.213 213.383 104.023C202.449 98.2195 193.79 94.5257 183.702 87.4326Z" fill="url(#paint3_linear)"/>
<path d="M165.896 105.456C176.281 105.456 184.699 100.538 184.699 94.4703C184.699 88.4029 176.281 83.4844 165.896 83.4844C155.511 83.4844 147.092 88.4029 147.092 94.4703C147.092 100.538 155.511 105.456 165.896 105.456Z" fill="#FF912E"/>
<path d="M147.092 94.4772V91.3008L149.143 93.8403L147.092 94.4772Z" fill="#E0944F"/>
<path d="M184.707 91.3008V94.4772H182.321L184.069 91.9217L184.707 91.3008Z" fill="#E0944F"/>
<path d="M165.896 102.287C176.281 102.287 184.699 97.3687 184.699 91.3013C184.699 85.234 176.281 80.3154 165.896 80.3154C155.511 80.3154 147.092 85.234 147.092 91.3013C147.092 97.3687 155.511 102.287 165.896 102.287Z" fill="#FFB92C"/>
<path d="M175.441 89.8286C175.566 90.0745 175.618 90.3504 175.593 90.6247L175.521 90.9193H172.089C172.12 90.8233 172.141 90.7247 172.153 90.6247C172.139 90.4033 172.067 90.1894 171.946 90.0038C171.768 89.663 171.489 89.385 171.147 89.2077C170.653 88.9508 170.108 88.8067 169.551 88.7858C169.029 88.7494 168.505 88.831 168.019 89.0246C167.54 89.2316 167.354 89.4969 167.46 89.8207C167.622 90.2286 167.873 90.5957 168.194 90.8954C168.564 91.2721 168.911 91.6709 169.232 92.0895C169.385 92.27 169.483 92.4899 169.515 92.7238C169.548 92.9576 169.513 93.1959 169.415 93.411C169.039 94.0336 168.445 94.4957 167.747 94.7086C166.593 95.1883 165.358 95.4449 164.108 95.4649C162.755 95.512 161.405 95.3234 160.117 94.9076L158.146 95.7515L155.832 94.629L157.755 93.8329C157.413 93.6119 157.104 93.3439 156.837 93.0368C156.636 92.8026 156.482 92.5324 156.382 92.2408C156.316 92.0396 156.276 91.831 156.263 91.6198C156.239 91.4775 156.239 91.3323 156.263 91.1899L156.326 91.0307H159.758C159.724 91.1456 159.697 91.2626 159.679 91.381C159.691 91.668 159.788 91.945 159.958 92.1771C160.235 92.6036 160.632 92.9387 161.099 93.1403C161.72 93.4527 162.4 93.6291 163.094 93.6578C163.721 93.6993 164.348 93.5986 164.93 93.3632C165.404 93.1616 165.582 92.8962 165.465 92.5671C165.284 92.1529 165.011 91.7853 164.667 91.4924C164.287 91.1229 163.935 90.7265 163.613 90.3063C163.463 90.1223 163.369 89.8988 163.344 89.6628C163.318 89.4268 163.362 89.1885 163.47 88.9768C163.877 88.3443 164.497 87.8761 165.217 87.6553C166.326 87.2091 167.51 86.9768 168.705 86.9707C169.97 86.9298 171.232 87.1269 172.424 87.5518L174.396 86.708L176.551 87.8782L174.579 88.7221C174.956 89.0122 175.253 89.3929 175.441 89.8286V89.8286Z" fill="#EA8B24"/>
<path d="M165.936 100.663C174.654 100.663 181.722 96.5322 181.722 91.4365C181.722 86.3408 174.654 82.21 165.936 82.21C157.217 82.21 150.149 86.3408 150.149 91.4365C150.149 96.5322 157.217 100.663 165.936 100.663Z" stroke="#F7931E" stroke-width="2.03" stroke-miterlimit="10"/>
<path d="M165.896 101.459C176.281 101.459 184.699 96.5405 184.699 90.4732C184.699 84.4059 176.281 79.4873 165.896 79.4873C155.511 79.4873 147.092 84.4059 147.092 90.4732C147.092 96.5405 155.511 101.459 165.896 101.459Z" fill="#FF912E"/>
<path d="M147.092 90.4732V87.2969L149.143 89.8364L147.092 90.4732Z" fill="#E0944F"/>
<path d="M184.707 87.2969V90.4732H182.321L184.069 87.9258L184.707 87.2969Z" fill="#E0944F"/>
<path d="M165.896 98.2823C176.281 98.2823 184.699 93.3638 184.699 87.2964C184.699 81.2291 176.281 76.3105 165.896 76.3105C155.511 76.3105 147.092 81.2291 147.092 87.2964C147.092 93.3638 155.511 98.2823 165.896 98.2823Z" fill="#FFB92C"/>
<path d="M175.441 85.8244C175.566 86.0702 175.618 86.3461 175.593 86.6205L175.521 86.915H172.089C172.12 86.8191 172.141 86.7204 172.153 86.6205C172.139 86.399 172.067 86.1851 171.945 85.9995C171.768 85.6587 171.489 85.3808 171.147 85.2034C170.653 84.9465 170.108 84.8024 169.551 84.7815C169.029 84.7451 168.505 84.8268 168.019 85.0203C167.54 85.2273 167.354 85.4927 167.46 85.8164C167.622 86.2244 167.873 86.5914 168.194 86.8911C168.555 87.2919 168.891 87.7146 169.2 88.1569C169.353 88.3374 169.451 88.5573 169.483 88.7912C169.516 89.025 169.481 89.2633 169.384 89.4784C169.007 90.101 168.413 90.5631 167.715 90.776C166.561 91.2557 165.326 91.5123 164.076 91.5323C162.724 91.5794 161.373 91.3908 160.085 90.975L158.114 91.8188L155.8 90.6964L157.723 89.9003C157.381 89.6793 157.072 89.4113 156.805 89.1042C156.604 88.87 156.45 88.5998 156.35 88.3081C156.284 88.107 156.244 87.8984 156.231 87.6872C156.207 87.5448 156.207 87.3997 156.231 87.2573L156.294 87.0981H159.726C159.692 87.213 159.665 87.33 159.647 87.4484C159.659 87.7354 159.756 88.0124 159.926 88.2445C160.203 88.6709 160.6 89.0061 161.067 89.2077C161.688 89.5201 162.368 89.6965 163.062 89.7252C163.689 89.7667 164.316 89.666 164.898 89.4306C165.372 89.2289 165.55 88.9636 165.433 88.6345C165.252 88.2203 164.979 87.8527 164.635 87.5598C164.255 87.1903 163.903 86.7939 163.581 86.3737C163.431 86.1897 163.337 85.9662 163.312 85.7302C163.286 85.4942 163.33 85.2559 163.438 85.0442C163.845 84.4117 164.465 83.9435 165.185 83.7227C166.294 83.2765 167.478 83.0442 168.673 83.0381C169.939 82.9971 171.2 83.1943 172.392 83.6192L174.364 82.7754L176.519 83.9456L174.547 84.7895C174.926 85.0556 175.233 85.4111 175.441 85.8244V85.8244Z" fill="#EA8B24"/>
<path d="M165.936 96.6591C174.654 96.6591 181.722 92.5283 181.722 87.4326C181.722 82.3369 174.654 78.2061 165.936 78.2061C157.217 78.2061 150.149 82.3369 150.149 87.4326C150.149 92.5283 157.217 96.6591 165.936 96.6591Z" stroke="#F7931E" stroke-width="2.03" stroke-miterlimit="10"/>
<path d="M165.896 97.6534C176.281 97.6534 184.699 92.7348 184.699 86.6675C184.699 80.6002 176.281 75.6816 165.896 75.6816C155.511 75.6816 147.092 80.6002 147.092 86.6675C147.092 92.7348 155.511 97.6534 165.896 97.6534Z" fill="#FF912E"/>
<path d="M147.092 86.6676V83.4912L149.143 86.0307L147.092 86.6676Z" fill="#E0944F"/>
<path d="M184.707 83.4912V86.6676H182.321L184.069 84.1201L184.707 83.4912Z" fill="#E0944F"/>
<path d="M165.896 94.4776C176.281 94.4776 184.699 89.5591 184.699 83.4917C184.699 77.4244 176.281 72.5059 165.896 72.5059C155.511 72.5059 147.092 77.4244 147.092 83.4917C147.092 89.5591 155.511 94.4776 165.896 94.4776Z" fill="#FFB92C"/>
<path d="M175.441 82.0269C175.566 82.2727 175.618 82.5487 175.593 82.823L175.521 83.1175H172.089C172.12 83.0216 172.141 82.9229 172.153 82.823C172.139 82.6016 172.067 82.3876 171.946 82.202C171.768 81.8612 171.489 81.5833 171.147 81.4059C170.653 81.149 170.108 81.0049 169.551 80.984C169.029 80.9476 168.505 81.0293 168.019 81.2228C167.54 81.4298 167.354 81.6952 167.46 82.0189C167.622 82.4269 167.873 82.7939 168.194 83.0936C168.564 83.4704 168.911 83.8691 169.232 84.2877C169.385 84.4682 169.483 84.6881 169.515 84.922C169.548 85.1559 169.513 85.3942 169.415 85.6092C169.039 86.2319 168.445 86.6939 167.747 86.9068C166.593 87.3865 165.358 87.6432 164.108 87.6631C162.755 87.7102 161.405 87.5217 160.117 87.1059L158.146 87.9497L155.832 86.8272L157.755 86.0312C157.413 85.8102 157.104 85.5422 156.837 85.2351C156.636 85.0008 156.482 84.7307 156.382 84.439C156.316 84.2379 156.276 84.0292 156.263 83.8181C156.239 83.6757 156.239 83.5305 156.263 83.3882L156.326 83.229H159.758C159.724 83.3438 159.697 83.4609 159.679 83.5792C159.691 83.8663 159.788 84.1432 159.958 84.3753C160.235 84.8018 160.632 85.137 161.099 85.3386C161.72 85.6509 162.4 85.8273 163.094 85.856C163.721 85.8976 164.348 85.7969 164.93 85.5615C165.404 85.3598 165.582 85.0944 165.465 84.7654C165.284 84.3511 165.011 83.9835 164.667 83.6907C164.287 83.3212 163.935 82.9247 163.613 82.5045C163.463 82.3206 163.369 82.097 163.344 81.8611C163.318 81.6251 163.362 81.3868 163.47 81.1751C163.877 80.5425 164.497 80.0744 165.217 79.8536C166.326 79.4074 167.51 79.175 168.705 79.169C169.97 79.128 171.232 79.3251 172.424 79.7501L174.396 78.9062L176.551 80.0765L174.619 80.992C174.972 81.2667 175.254 81.6215 175.441 82.0269V82.0269Z" fill="#EA8B24"/>
<path d="M165.936 92.8535C174.654 92.8535 181.722 88.7226 181.722 83.6269C181.722 78.5313 174.654 74.4004 165.936 74.4004C157.217 74.4004 150.149 78.5313 150.149 83.6269C150.149 88.7226 157.217 92.8535 165.936 92.8535Z" stroke="#F7931E" stroke-width="2.03" stroke-miterlimit="10"/>
<path d="M165.896 93.7774C176.281 93.7774 184.699 88.8589 184.699 82.7915C184.699 76.7242 176.281 71.8057 165.896 71.8057C155.511 71.8057 147.092 76.7242 147.092 82.7915C147.092 88.8589 155.511 93.7774 165.896 93.7774Z" fill="#FF912E"/>
<path d="M147.092 82.7916V79.6152L149.143 82.1547L147.092 82.7916Z" fill="#E0944F"/>
<path d="M184.707 79.6152V82.7916H182.321L184.069 80.2441L184.707 79.6152Z" fill="#E0944F"/>
<path d="M165.896 90.6007C176.281 90.6007 184.699 85.6821 184.699 79.6148C184.699 73.5474 176.281 68.6289 165.896 68.6289C155.511 68.6289 147.092 73.5474 147.092 79.6148C147.092 85.6821 155.511 90.6007 165.896 90.6007Z" fill="#FFB92C"/>
<path d="M175.441 78.1503C175.566 78.3962 175.618 78.6721 175.593 78.9464L175.521 79.2409H172.089C172.12 79.145 172.141 79.0464 172.153 78.9464C172.139 78.725 172.067 78.511 171.945 78.3254C171.768 77.9846 171.489 77.7067 171.147 77.5294C170.653 77.2724 170.108 77.1283 169.551 77.1074C169.029 77.071 168.505 77.1527 168.019 77.3463C167.54 77.5532 167.354 77.8186 167.46 78.1423C167.622 78.5503 167.873 78.9173 168.194 79.217C168.564 79.5938 168.911 79.9926 169.232 80.4112C169.384 80.5916 169.483 80.8115 169.515 81.0454C169.548 81.2793 169.513 81.5176 169.415 81.7326C169.039 82.3553 168.445 82.8173 167.747 83.0302C166.593 83.5099 165.358 83.7666 164.108 83.7865C162.755 83.8337 161.405 83.6451 160.117 83.2293L158.114 84.1766L155.8 83.0541L157.723 82.258C157.381 82.037 157.072 81.769 156.805 81.462C156.604 81.2277 156.45 80.9576 156.35 80.6659C156.284 80.4648 156.244 80.2561 156.231 80.045C156.207 79.9026 156.207 79.7574 156.231 79.6151L156.294 79.4559H159.726C159.692 79.5707 159.665 79.6878 159.647 79.8061C159.659 80.0932 159.756 80.3701 159.926 80.6022C160.203 81.0287 160.6 81.3639 161.067 81.5655C161.688 81.8778 162.368 82.0542 163.062 82.0829C163.689 82.1245 164.316 82.0238 164.898 81.7884C165.372 81.5867 165.55 81.3213 165.433 80.9923C165.252 80.578 164.979 80.2104 164.635 79.9176C164.264 79.524 163.922 79.1036 163.613 78.6598C163.463 78.4758 163.369 78.2523 163.344 78.0163C163.318 77.7803 163.362 77.542 163.469 77.3303C163.877 76.6978 164.497 76.2296 165.217 76.0089C166.326 75.5626 167.51 75.3303 168.705 75.3242C169.97 75.2833 171.232 75.4804 172.424 75.9054L174.396 75.0615L176.551 76.2318L174.579 77.0756C174.952 77.3568 175.248 77.7262 175.441 78.1503Z" fill="#EA8B24"/>
<path d="M165.936 88.9765C174.654 88.9765 181.722 84.8457 181.722 79.75C181.722 74.6543 174.654 70.5234 165.936 70.5234C157.217 70.5234 150.149 74.6543 150.149 79.75C150.149 84.8457 157.217 88.9765 165.936 88.9765Z" stroke="#F7931E" stroke-width="2.03" stroke-miterlimit="10"/>
<path d="M165.752 89.0167C176.137 89.0167 184.556 84.0981 184.556 78.0308C184.556 71.9635 176.137 67.0449 165.752 67.0449C155.367 67.0449 146.949 71.9635 146.949 78.0308C146.949 84.0981 155.367 89.0167 165.752 89.0167Z" fill="#FF912E"/>
<path d="M146.949 78.0308V74.8545L148.992 77.394L146.949 78.0308Z" fill="#E0944F"/>
<path d="M184.556 74.8545V78.0308H182.169L183.917 75.4834L184.556 74.8545Z" fill="#E0944F"/>
<path d="M165.752 85.8399C176.137 85.8399 184.556 80.9214 184.556 74.854C184.556 68.7867 176.137 63.8682 165.752 63.8682C155.367 63.8682 146.949 68.7867 146.949 74.854C146.949 80.9214 155.367 85.8399 165.752 85.8399Z" fill="#FFB92C"/>
<path d="M175.29 73.3894C175.414 73.6352 175.467 73.9111 175.441 74.1854L175.369 74.48H171.938C171.968 74.384 171.989 74.2854 172.001 74.1854C171.987 73.964 171.916 73.7501 171.794 73.5645C171.616 73.2237 171.337 72.9457 170.996 72.7684C170.502 72.5115 169.956 72.3674 169.4 72.3465C168.877 72.3101 168.353 72.3917 167.867 72.5853C167.388 72.7923 167.202 73.0577 167.308 73.3814C167.471 73.7894 167.721 74.1564 168.043 74.4561C168.412 74.8329 168.759 75.2316 169.08 75.6502C169.233 75.8307 169.331 76.0506 169.364 76.2845C169.396 76.5184 169.362 76.7566 169.264 76.9717C168.887 77.5944 168.293 78.0564 167.596 78.2693C166.442 78.749 165.207 79.0056 163.956 79.0256C162.604 79.0727 161.253 78.8841 159.966 78.4683L157.963 79.3997L155.632 78.2852L157.556 77.4892C157.214 77.2682 156.905 77.0002 156.638 76.6931C156.437 76.4588 156.283 76.1887 156.183 75.897C156.117 75.6959 156.077 75.4872 156.063 75.2761C156.04 75.1337 156.04 74.9885 156.063 74.8462L156.127 74.687H159.623C159.588 74.8018 159.562 74.9189 159.543 75.0372C159.555 75.3243 159.652 75.6012 159.822 75.8333C160.099 76.2598 160.496 76.595 160.963 76.7966C161.584 77.1089 162.264 77.2853 162.959 77.314C163.585 77.3556 164.213 77.2549 164.794 77.0195C165.268 76.8178 165.446 76.5524 165.329 76.2234C165.149 75.8091 164.876 75.4415 164.531 75.1487C164.152 74.7792 163.8 74.3827 163.478 73.9625C163.327 73.7786 163.234 73.5551 163.208 73.3191C163.183 73.0831 163.226 72.8448 163.334 72.6331C163.742 72.0005 164.361 71.5324 165.082 71.3116C166.19 70.8654 167.374 70.6331 168.57 70.627C169.835 70.586 171.097 70.7831 172.289 71.2081L174.26 70.3643L176.415 71.5345L174.444 72.3783C174.802 72.6435 175.092 72.9901 175.29 73.3894Z" fill="#EA8B24"/>
<path d="M165.784 84.2158C174.503 84.2158 181.571 80.0849 181.571 74.9892C181.571 69.8936 174.503 65.7627 165.784 65.7627C157.065 65.7627 149.997 69.8936 149.997 74.9892C149.997 80.0849 157.065 84.2158 165.784 84.2158Z" stroke="#F7931E" stroke-width="2.03" stroke-miterlimit="10"/>
<path d="M165.752 85.0118C176.137 85.0118 184.556 80.0933 184.556 74.0259C184.556 67.9586 176.137 63.04 165.752 63.04C155.367 63.04 146.949 67.9586 146.949 74.0259C146.949 80.0933 155.367 85.0118 165.752 85.0118Z" fill="#FF912E"/>
<path d="M146.949 74.0268V70.8584L148.992 73.3899L146.949 74.0268Z" fill="#E0944F"/>
<path d="M184.556 70.8584V74.0268H182.169L183.917 71.4793L184.556 70.8584Z" fill="#E0944F"/>
<path d="M165.752 81.836C176.137 81.836 184.556 76.9175 184.556 70.8501C184.556 64.7828 176.137 59.8643 165.752 59.8643C155.367 59.8643 146.949 64.7828 146.949 70.8501C146.949 76.9175 155.367 81.836 165.752 81.836Z" fill="#FFB92C"/>
<path d="M175.29 69.3854C175.414 69.6313 175.467 69.9072 175.441 70.1815L175.369 70.4761H171.938C171.968 70.3801 171.989 70.2815 172.001 70.1815C171.987 69.9601 171.916 69.7462 171.794 69.5606C171.616 69.2198 171.337 68.9418 170.996 68.7645C170.502 68.5076 169.956 68.3635 169.4 68.3426C168.877 68.3062 168.353 68.3878 167.867 68.5814C167.388 68.7884 167.202 69.0538 167.308 69.3775C167.471 69.7854 167.721 70.1525 168.043 70.4522C168.412 70.829 168.759 71.2277 169.08 71.6463C169.236 71.8394 169.33 72.0742 169.351 72.3208C169.372 72.5674 169.32 72.8147 169.2 73.0315C168.823 73.6541 168.229 74.1162 167.532 74.3291C166.378 74.8088 165.143 75.0654 163.893 75.0854C162.54 75.1325 161.19 74.9439 159.902 74.5281L157.963 75.4197L155.632 74.2813L157.556 73.4853C157.214 73.2643 156.905 72.9963 156.638 72.6892C156.437 72.4549 156.283 72.1848 156.183 71.8931C156.117 71.692 156.077 71.4833 156.063 71.2722C156.04 71.1298 156.04 70.9846 156.063 70.8423L156.127 70.6831H159.623C159.588 70.7979 159.562 70.915 159.543 71.0333C159.555 71.3204 159.652 71.5973 159.822 71.8294C160.099 72.2559 160.496 72.5911 160.963 72.7927C161.584 73.105 162.264 73.2814 162.959 73.3101C163.585 73.3517 164.213 73.251 164.794 73.0156C165.268 72.8139 165.446 72.5485 165.329 72.2195C165.149 71.8052 164.876 71.4376 164.531 71.1448C164.152 70.7753 163.8 70.3788 163.478 69.9586C163.327 69.7747 163.234 69.5512 163.208 69.3152C163.183 69.0792 163.226 68.8409 163.334 68.6292C163.742 67.9966 164.361 67.5285 165.082 67.3077C166.19 66.8615 167.374 66.6291 168.57 66.6231C169.835 66.5821 171.097 66.7792 172.289 67.2042L174.26 66.3604L176.415 67.5306L174.444 68.3744C174.802 68.6396 175.092 68.9862 175.29 69.3854Z" fill="#EA8B24"/>
<path d="M165.784 80.2119C174.503 80.2119 181.571 76.081 181.571 70.9853C181.571 65.8897 174.503 61.7588 165.784 61.7588C157.065 61.7588 149.997 65.8897 149.997 70.9853C149.997 76.081 157.065 80.2119 165.784 80.2119Z" stroke="#F7931E" stroke-width="2.03" stroke-miterlimit="10"/>
<path d="M166.048 81.2071C176.432 81.2071 184.851 76.2886 184.851 70.2212C184.851 64.1539 176.432 59.2354 166.048 59.2354C155.663 59.2354 147.244 64.1539 147.244 70.2212C147.244 76.2886 155.663 81.2071 166.048 81.2071Z" fill="#FF912E"/>
<path d="M147.244 70.2211V67.0527L149.287 69.5843L147.244 70.2211Z" fill="#E0944F"/>
<path d="M184.851 67.0527V70.2211H182.465L184.212 67.6737L184.851 67.0527Z" fill="#E0944F"/>
<path d="M166.048 78.0391C176.432 78.0391 184.851 73.1206 184.851 67.0533C184.851 60.9859 176.432 56.0674 166.048 56.0674C155.663 56.0674 147.244 60.9859 147.244 67.0533C147.244 73.1206 155.663 78.0391 166.048 78.0391Z" fill="#FFB92C"/>
<path d="M175.585 65.5802C175.709 65.8261 175.762 66.102 175.737 66.3763L175.665 66.6709H172.233C172.263 66.5749 172.285 66.4763 172.297 66.3763C172.283 66.1549 172.211 65.9409 172.089 65.7554C171.911 65.4146 171.633 65.1366 171.291 64.9593C170.797 64.7024 170.252 64.5583 169.695 64.5374C169.173 64.501 168.649 64.5826 168.162 64.7762C167.684 64.9832 167.497 65.2485 167.604 65.5723C167.766 65.9802 168.017 66.3473 168.338 66.647C168.708 67.0237 169.054 67.4225 169.376 67.8411C169.528 68.0216 169.626 68.2415 169.659 68.4754C169.691 68.7092 169.657 68.9475 169.559 69.1626C169.182 69.7852 168.588 70.2473 167.891 70.4602C166.737 70.9399 165.502 71.1965 164.252 71.2165C162.899 71.2636 161.549 71.075 160.261 70.6592L158.29 71.5031L155.975 70.3806L157.899 69.5845C157.557 69.3635 157.248 69.0955 156.981 68.7884C156.78 68.5542 156.626 68.284 156.526 67.9923C156.46 67.7912 156.42 67.5826 156.406 67.3714C156.383 67.2291 156.383 67.0839 156.406 66.9415L156.47 66.7823H159.902C159.868 66.8972 159.841 67.0142 159.822 67.1326C159.835 67.4196 159.932 67.6966 160.102 67.9287C160.365 68.3693 160.754 68.7214 161.219 68.9397C161.839 69.252 162.52 69.4285 163.214 69.4571C163.841 69.4987 164.468 69.398 165.05 69.1626C165.523 68.9609 165.702 68.6956 165.585 68.3665C165.404 67.9523 165.131 67.5846 164.786 67.2918C164.407 66.9223 164.055 66.5259 163.733 66.1056C163.583 65.9217 163.489 65.6982 163.463 65.4622C163.438 65.2262 163.482 64.9879 163.589 64.7762C164.017 64.1405 164.66 63.6798 165.401 63.4786C166.51 63.0324 167.693 62.8 168.889 62.794C170.154 62.753 171.416 62.9501 172.608 63.3751L174.579 62.5312L176.734 63.7015L174.787 64.5214C175.134 64.8057 175.408 65.1688 175.585 65.5802V65.5802Z" fill="#EA8B24"/>
<path d="M166.079 76.4062C174.798 76.4062 181.866 72.2754 181.866 67.1797C181.866 62.084 174.798 57.9531 166.079 57.9531C157.361 57.9531 150.293 62.084 150.293 67.1797C150.293 72.2754 157.361 76.4062 166.079 76.4062Z" stroke="#F7931E" stroke-width="2.03" stroke-miterlimit="10"/>
<path d="M171.714 76.4386C182.099 76.4386 190.518 71.52 190.518 65.4527C190.518 59.3853 182.099 54.4668 171.714 54.4668C161.329 54.4668 152.91 59.3853 152.91 65.4527C152.91 71.52 161.329 76.4386 171.714 76.4386Z" fill="#FF912E"/>
<path d="M152.91 65.4526V62.2842L154.954 64.8157L152.91 65.4526Z" fill="#E0944F"/>
<path d="M190.518 62.2842V65.4526H188.131L189.879 62.9051L190.518 62.2842Z" fill="#E0944F"/>
<path d="M171.714 73.2696C182.099 73.2696 190.518 68.3511 190.518 62.2837C190.518 56.2164 182.099 51.2979 171.714 51.2979C161.329 51.2979 152.91 56.2164 152.91 62.2837C152.91 68.3511 161.329 73.2696 171.714 73.2696Z" fill="#FFB92C"/>
<path d="M181.251 60.8118C181.376 61.0577 181.429 61.3336 181.403 61.6079L181.331 61.9024H177.899C177.93 61.8065 177.951 61.7079 177.963 61.6079C177.949 61.3865 177.878 61.1725 177.756 60.987C177.578 60.6462 177.299 60.3682 176.958 60.1909C176.463 59.934 175.918 59.7899 175.361 59.769C174.839 59.7326 174.315 59.8142 173.829 60.0078C173.35 60.2148 173.164 60.4801 173.27 60.8039C173.432 61.2118 173.683 61.5789 174.005 61.8786C174.374 62.2553 174.721 62.6541 175.042 63.0727C175.195 63.2532 175.293 63.4731 175.326 63.707C175.358 63.9408 175.323 64.1791 175.226 64.3942C174.849 65.0168 174.255 65.4789 173.558 65.6918C172.404 66.1715 171.168 66.4281 169.918 66.4481C168.566 66.4952 167.215 66.3066 165.928 65.8908L163.956 66.7346L161.642 65.6122L163.565 64.8161C163.223 64.5951 162.914 64.3271 162.647 64.02C162.447 63.7858 162.292 63.5156 162.193 63.2239C162.114 63.0507 162.055 62.8691 162.017 62.6826C161.994 62.5402 161.994 62.3951 162.017 62.2527L162.081 62.0935H165.513C165.478 62.2084 165.452 62.3254 165.433 62.4438C165.445 62.7308 165.542 63.0078 165.712 63.2399C165.989 63.6663 166.386 64.0015 166.854 64.2031C167.474 64.5155 168.154 64.6919 168.849 64.7206C169.475 64.7621 170.103 64.6614 170.684 64.426C171.158 64.2243 171.336 63.959 171.219 63.6299C171.039 63.2157 170.766 62.8481 170.421 62.5552C170.042 62.1857 169.69 61.7893 169.368 61.3691C169.217 61.1851 169.124 60.9616 169.098 60.7256C169.073 60.4896 169.116 60.2513 169.224 60.0396C169.653 59.3827 170.309 58.9065 171.068 58.7022C172.176 58.256 173.36 58.0237 174.555 58.0176C175.821 57.9766 177.082 58.1738 178.275 58.5987L180.246 57.7549L182.401 58.9251L180.429 59.769C180.783 60.0459 181.065 60.4036 181.251 60.8118V60.8118Z" fill="#EA8B24"/>
<path d="M171.746 71.6386C180.465 71.6386 187.533 67.5078 187.533 62.4121C187.533 57.3164 180.465 53.1855 171.746 53.1855C163.027 53.1855 155.959 57.3164 155.959 62.4121C155.959 67.5078 163.027 71.6386 171.746 71.6386Z" stroke="#F7931E" stroke-width="2.03" stroke-miterlimit="10"/>
<path d="M261.693 95.3779L169.423 115.829V142.952L205.45 164.533L261.693 131.663V95.3779Z" fill="#6E3FC3"/>
<path opacity="0.81" d="M262.013 95.3291L204.916 134.504L169.423 115.828L196.184 101.276" fill="#3099AA"/>
<path d="M162.743 110.263L196.775 129.863C207.162 128.214 217.166 124.708 226.305 119.514C241.533 110.853 262.507 94.732 262.507 94.732L231.221 76.6689L186.982 102.725C186.982 102.725 174.787 108.639 162.743 110.263Z" fill="#6E3FC3"/>
<path d="M166.606 110.837L197.365 128.558C207.209 126.391 216.685 122.811 225.499 117.931C239.266 110.097 258.222 95.5289 258.222 95.5289L229.952 79.1934L189.951 102.749C182.47 106.242 174.647 108.953 166.606 110.837V110.837Z" stroke="#2E3192" stroke-width="1.015" stroke-miterlimit="10"/>
<path opacity="0.54" d="M204.916 134.504V164.532L261.693 131.662L262.515 94.7002L204.916 134.504Z" fill="#3099AA"/>
<path opacity="0.54" d="M204.916 134.504V164.532L261.693 131.662L262.515 94.7002L204.916 134.504Z" fill="#3099AA"/>
<path opacity="0.5" d="M207.972 96.7069L229.058 83.6592L252.068 95.8073C252.068 95.8073 228.045 110.312 226.225 111.323C224.405 112.334 204.421 123.264 195.657 122.834L175.585 111.721L207.972 96.7069Z" fill="white"/>
<path opacity="0.54" d="M214.86 114.921C224.879 114.921 233.001 111.014 233.001 106.196C233.001 101.377 224.879 97.4707 214.86 97.4707C204.841 97.4707 196.719 101.377 196.719 106.196C196.719 111.014 204.841 114.921 214.86 114.921Z" fill="#3099AA"/>
<path opacity="0.68" d="M169.423 121.529C175.393 124.713 181.35 127.937 187.293 131.201C193.237 134.465 199.177 137.732 205.115 141.001H204.74L218.922 131.742L233.145 122.54L247.415 113.417C252.172 110.381 256.945 107.364 261.733 104.365C257.056 107.55 252.366 110.691 247.663 113.791L233.536 123.129L219.322 132.411L205.115 141.622L204.932 141.741L204.74 141.638C198.829 138.337 192.931 135.006 187.046 131.647C181.161 128.287 175.287 124.915 169.423 121.529Z" fill="#3099AA"/>
<path opacity="0.68" d="M169.423 128.645C175.393 131.829 181.35 135.053 187.293 138.317C193.237 141.581 199.177 144.848 205.115 148.117H204.74L218.922 138.859L233.145 129.656L247.415 120.533C252.172 117.497 256.945 114.48 261.733 111.481C257.056 114.666 252.366 117.808 247.663 120.907L233.536 130.245L219.322 139.519L205.115 148.738L204.932 148.857L204.74 148.754C198.829 145.453 192.931 142.122 187.046 138.763C181.161 135.404 175.287 132.031 169.423 128.645Z" fill="#3099AA"/>
<path opacity="0.68" d="M169.583 134.083C175.553 137.267 181.51 140.491 187.453 143.755C193.396 147.019 199.329 150.286 205.251 153.555H204.876L219.058 144.297L233.272 135.126L247.535 125.987C252.292 122.951 257.064 119.934 261.853 116.936C257.176 120.12 252.486 123.262 247.782 126.361L233.656 135.699L219.481 144.965L205.275 154.184L205.091 154.303L204.9 154.2C198.988 150.899 193.09 147.569 187.205 144.209C181.321 140.85 175.447 137.474 169.583 134.083Z" fill="#3099AA"/>
<path opacity="0.68" d="M169.423 139.401C175.393 142.585 181.35 145.809 187.293 149.073C193.237 152.337 199.177 155.604 205.115 158.873H204.74L218.922 149.614L233.145 140.412L247.415 131.289C252.172 128.253 256.945 125.236 261.733 122.237C257.056 125.422 252.366 128.563 247.663 131.663L233.536 141.001L219.322 150.251L205.115 159.494L204.932 159.613L204.74 159.51C198.829 156.209 192.931 152.878 187.046 149.519C181.161 146.159 175.287 142.787 169.423 139.401Z" fill="#3099AA"/>
<path d="M190.757 100.472L226.313 119.482V152.344L239.697 144.391V110.638L204.916 92.1289L190.757 100.472Z" fill="#DCE5CA"/>
<path d="M226.313 119.482L239.697 110.638V144.391L226.313 152.344V119.482Z" fill="#C7D1B0"/>
<path d="M218.723 103.537C219.595 103.609 220.446 103.847 221.229 104.238C221.784 104.471 222.257 104.865 222.586 105.368C222.706 105.581 222.764 105.822 222.752 106.066C222.741 106.31 222.661 106.545 222.522 106.745C222.144 107.287 221.633 107.723 221.037 108.011L223.432 109.166L222.131 109.842L219.737 108.648C218.593 109.082 217.384 109.322 216.161 109.357C214.845 109.418 213.532 109.189 212.314 108.688L214.804 107.398C215.315 107.594 215.854 107.704 216.4 107.725C216.808 107.742 217.215 107.708 217.614 107.621L214.03 105.862C213 106.14 212.115 106.347 211.388 106.475C210.597 106.606 209.793 106.639 208.994 106.57C208.116 106.496 207.26 106.255 206.472 105.862C205.893 105.635 205.413 105.212 205.115 104.668C205.023 104.444 204.993 104.199 205.028 103.96C205.064 103.72 205.162 103.495 205.315 103.306C205.661 102.857 206.095 102.483 206.592 102.208L204.253 101.061L205.554 100.385L207.948 101.547C209.066 101.087 210.259 100.836 211.468 100.807C212.715 100.76 213.957 100.974 215.115 101.436L212.593 102.741C212.12 102.569 211.621 102.475 211.117 102.463C210.747 102.448 210.376 102.483 210.016 102.566L213.495 104.27H213.655C214.719 103.994 215.624 103.789 216.368 103.657C217.145 103.519 217.936 103.479 218.723 103.537ZM219.521 106.355C219.521 106.061 219.266 105.798 218.787 105.559C218.317 105.335 217.799 105.228 217.278 105.249C216.779 105.266 216.282 105.327 215.794 105.432L219.058 107.024C219.369 106.809 219.529 106.578 219.521 106.347V106.355ZM211.644 104.7L208.571 103.195C208.467 103.259 208.378 103.343 208.31 103.443C208.241 103.543 208.194 103.657 208.172 103.776C208.172 104.039 208.387 104.286 208.85 104.516C209.308 104.736 209.811 104.845 210.319 104.835C210.763 104.826 211.206 104.781 211.644 104.7Z" fill="#0A5293"/>
<path d="M122.814 130.652C121.05 130.922 108.807 132.777 105.806 150.952C100.028 185.979 138.736 214.057 171.251 208.492C176.519 207.649 181.302 204.932 184.715 200.842C187.413 197.467 188.035 192.778 187.189 188.542C184.428 174.675 171.02 167.924 163.246 157.32C159.136 151.748 158.274 144.726 153.98 139.313C146.382 129.824 134.083 128.94 122.814 130.652Z" fill="#FFBE30"/>
<path d="M127.315 137.394C126.15 137.569 118.041 138.803 116.054 150.84C112.223 174.014 137.858 192.634 159.375 188.948C162.863 188.391 166.03 186.592 168.29 183.885C169.132 182.721 169.714 181.39 169.997 179.982C170.279 178.575 170.255 177.123 169.926 175.725C168.099 166.539 159.216 162.073 154.052 155.027C151.33 151.325 150.764 146.684 147.914 143.086C142.926 136.845 134.753 136.264 127.315 137.394Z" fill="#EFA91B"/>
<path d="M205.578 199.409L200.574 197.426L202.114 189.37L206.783 188.383L205.578 199.409Z" fill="#7C1251"/>
<path d="M132.191 125.827C132.191 125.827 129.534 126.774 129.238 126.774C128.943 126.774 124.266 126.719 124.57 129.457C124.873 132.196 132.184 131.487 132.184 131.487L135.552 127.953" fill="#EA831C"/>
<path d="M122.774 129.139L126.517 127.897C126.517 127.897 131.066 126.918 131.513 127.897C131.96 128.876 130.715 132.116 130.26 132.22L126.812 133.016L123.412 133.406" fill="#F7931E"/>
<path d="M152.336 165.472C152.336 165.472 175.545 180.677 177.82 180.892C180.094 181.107 202.976 190.055 202.976 190.055C202.976 190.055 201.843 195.802 202.449 198.445C202.449 198.445 160.628 187.937 155.361 186.146C150.093 184.355 137.994 172.406 141.082 169.189C144.171 165.973 152.336 165.472 152.336 165.472Z" fill="#E86A58"/>
<path d="M138.872 141.494C140.771 139.703 143.94 131.702 143.165 129.856C142.391 128.009 137.275 131.066 137.275 131.066L132.159 125.819C132.159 125.819 139.287 119.968 142.695 119.029C146.103 118.089 148.736 119.188 149.822 123.272C150.907 127.356 147.34 141.725 147.795 144.766C148.249 147.807 152.296 165.464 152.296 165.464C149.04 171.037 135.719 173.966 133.859 173.497C132 173.027 122.55 151.955 122.55 151.955C122.55 151.955 104.92 140.483 107.242 135.126C109.565 129.768 119.789 128.263 121.888 128.032C123.987 127.802 125.567 134.528 125.567 134.528C125.567 134.528 118.871 136.407 118.248 137.267C117.626 138.127 120.571 140.316 126.15 141.518C131.729 142.72 132.966 142.051 132.966 142.051" fill="#6E3FC3"/>
<path d="M205.578 199.408C205.578 199.408 205.147 195.595 204.844 193.836C204.54 192.077 203.431 182.317 207.869 182.651C212.306 182.985 209.465 192.483 209.632 193.533C209.8 194.584 210.223 197.554 209.569 198.477C208.914 199.4 207.007 200.403 205.578 199.408Z" fill="#7C1251"/>
<path d="M211.165 191.837C211.165 191.837 212.761 192.928 213.854 191.63C214.948 190.333 215.554 179.729 216.36 177.611C217.167 175.494 217.254 171.736 214.66 171.49C212.067 171.243 211.699 172.517 211.165 174.22C210.63 175.924 208.539 181.194 206.592 181.863C204.972 182.375 203.325 182.797 201.659 183.128L202.106 189.37L211.165 191.837Z" fill="#981E61"/>
<path d="M136.956 144.344C136.956 144.344 141.513 164.931 141.705 165.472C141.897 166.013 146.031 168.425 146.031 168.425L146.949 164.724L138.217 143.962L136.956 144.344Z" fill="#091114"/>
<path d="M130.938 142.219C130.938 142.219 136.892 147.353 136.629 146.995C136.366 146.637 137.898 144.607 137.898 144.607L140.572 145.403L137.515 140.069" fill="#091114"/>
<path d="M140.388 132.658C140.388 132.658 142.639 140.969 138.92 142.792C135.2 144.615 132.591 141.9 131.457 139.416C130.324 136.933 130.763 131.121 135.567 130.524C139.758 130.015 140.388 132.658 140.388 132.658Z" fill="#F7931E"/>
<path d="M141.114 131.081C141.505 130.062 141.673 128.255 140.492 127.69C140.049 127.516 139.566 127.469 139.097 127.555C138.629 127.641 138.194 127.856 137.842 128.176C137.422 127.846 136.934 127.612 136.413 127.491C135.481 127.213 134.493 127.176 133.542 127.383C132.591 127.591 131.709 128.036 130.978 128.677C130.914 128.743 130.838 128.797 130.755 128.837C130.641 128.872 130.522 128.885 130.404 128.876C127.483 128.924 126.844 132.268 127.355 134.544C127.85 136.917 129.088 139.072 130.891 140.698C131.665 141.337 132.569 141.801 133.54 142.059C133.575 142.07 133.611 142.072 133.647 142.066C133.682 142.059 133.715 142.043 133.743 142.02C133.771 141.997 133.793 141.967 133.806 141.934C133.819 141.901 133.824 141.864 133.82 141.828C133.851 141.809 133.879 141.783 133.901 141.753C133.923 141.723 133.938 141.688 133.946 141.652C133.954 141.616 133.955 141.578 133.949 141.541C133.942 141.505 133.928 141.47 133.907 141.438C133.661 140.946 133.572 140.391 133.652 139.846C133.658 139.807 133.655 139.767 133.642 139.73C133.63 139.693 133.608 139.659 133.58 139.631C133.618 139.593 133.644 139.543 133.653 139.49C133.662 139.436 133.654 139.381 133.63 139.333C133.606 139.284 133.568 139.243 133.521 139.217C133.473 139.191 133.419 139.18 133.365 139.186C133.051 139.224 132.733 139.189 132.435 139.084C132.138 138.979 131.868 138.807 131.649 138.58C131.377 138.294 131.154 137.737 131.649 137.593C131.75 137.571 131.856 137.573 131.956 137.601C132.056 137.629 132.148 137.681 132.223 137.753C132.302 137.89 132.396 138.018 132.503 138.135C132.541 138.176 132.591 138.204 132.646 138.214C132.846 138.278 133.101 138.119 132.974 137.888C132.886 137.729 132.779 137.582 132.654 137.45C132.476 137.147 132.407 136.793 132.458 136.446C132.509 136.099 132.676 135.779 132.934 135.539C133.62 134.927 134.251 135.261 135.041 135.293C135.281 135.325 135.525 135.269 135.727 135.136C135.93 135.003 136.077 134.801 136.142 134.568C136.145 134.235 136.105 133.904 136.022 133.581C136.01 133.334 136.075 133.088 136.208 132.879C136.34 132.669 136.535 132.506 136.765 132.411C137.563 132.085 138.145 132.793 138.752 133.207C139.005 133.397 139.298 133.528 139.609 133.592C139.919 133.655 140.24 133.649 140.548 133.573C140.79 133.509 141.012 133.387 141.195 133.216C141.378 133.045 141.515 132.831 141.594 132.594C141.673 132.357 141.692 132.104 141.649 131.858C141.605 131.612 141.501 131.381 141.346 131.185C141.32 131.149 141.284 131.121 141.244 131.103C141.203 131.084 141.159 131.077 141.114 131.081V131.081ZM136.054 132.26C136.155 132.109 136.304 131.996 136.477 131.941C136.531 131.918 136.582 131.889 136.629 131.854H136.677H136.757C136.493 131.931 136.253 132.07 136.054 132.26V132.26ZM140.763 130.5C140.803 130.412 140.838 130.322 140.867 130.23C140.803 130.309 140.787 130.405 140.763 130.5V130.5Z" fill="#935542"/>
<path d="M133.891 173.505C133.891 173.505 137.722 185.446 145.36 187.93C152.998 190.414 159.16 185.645 162.727 186.736C166.295 187.826 195.386 191.425 202.976 190.016C202.976 190.016 204.261 181.8 202.449 180.08C200.638 178.361 168.833 171.889 165.736 171.451C162.64 171.013 148.744 168.896 148.744 168.896" fill="#FF7B61"/>
<path d="M184.572 63.0166C184.572 63.0166 184.963 69.0668 180.246 69.441C180.246 69.441 184.236 71.0968 184.907 74.2652C184.907 74.2652 185.402 69.839 189.456 69.3852C188.02 69.0679 186.743 68.255 185.849 67.0898C184.955 65.9246 184.503 64.482 184.572 63.0166Z" fill="white"/>
<path d="M48.6849 73.8271C48.6849 73.8271 49.076 79.8773 44.3591 80.2515C44.3591 80.2515 48.3497 81.9073 49.0201 85.0757C49.0201 85.0757 49.5149 80.6495 53.5693 80.1958C52.1334 79.8785 50.8559 79.0655 49.9623 77.9003C49.0686 76.7351 48.6162 75.2926 48.6849 73.8271V73.8271Z" fill="white"/>
<path d="M251.11 93.2275C251.11 93.2275 251.502 99.2777 246.785 99.6519C246.785 99.6519 250.775 101.308 251.446 104.476C251.446 104.476 251.94 100.05 255.995 99.5962C254.559 99.2788 253.281 98.4659 252.388 97.3007C251.494 96.1355 251.042 94.693 251.11 93.2275V93.2275Z" fill="white"/>
<defs>
<linearGradient id="paint0_linear" x1="185.25" y1="214.383" x2="160.95" y2="191.401" gradientUnits="userSpaceOnUse">
<stop stop-color="white" stop-opacity="0"/>
<stop offset="0.99" stop-color="#0071BC"/>
</linearGradient>
<linearGradient id="paint1_linear" x1="16486.7" y1="14128.3" x2="12770.3" y2="9984.28" gradientUnits="userSpaceOnUse">
<stop stop-color="white" stop-opacity="0"/>
<stop offset="0.99" stop-color="#0071BC"/>
</linearGradient>
<linearGradient id="paint2_linear" x1="32969.6" y1="13035.4" x2="31238.9" y2="9729.15" gradientUnits="userSpaceOnUse">
<stop stop-color="white" stop-opacity="0"/>
<stop offset="0.99" stop-color="#0071BC"/>
</linearGradient>
<linearGradient id="paint3_linear" x1="14250.5" y1="4625.59" x2="13657.4" y2="3498.07" gradientUnits="userSpaceOnUse">
<stop stop-color="white" stop-opacity="0"/>
<stop offset="0.99" stop-color="#0071BC"/>
</linearGradient>
</defs>
</svg>
