<svg width="272" height="204" viewBox="0 0 272 204" fill="none" xmlns="http://www.w3.org/2000/svg">
<path opacity="0.3" d="M137.319 169.911C194.539 169.911 240.924 166.118 240.924 161.439C240.924 156.759 194.539 152.966 137.319 152.966C80.0998 152.966 33.7144 156.759 33.7144 161.439C33.7144 166.118 80.0998 169.911 137.319 169.911Z" fill="#E3E3E3"/>
<path d="M222.408 156.4H124.766V84.2114C124.766 82.5432 125.429 80.9433 126.609 79.7637C127.788 78.5841 129.388 77.9214 131.056 77.9214H222.408C223.555 77.9214 224.691 78.1475 225.75 78.5867C226.81 79.0259 227.773 79.6696 228.584 80.4811C229.395 81.2926 230.038 82.2559 230.476 83.316C230.914 84.3761 231.14 85.5122 231.139 86.6594V147.655C231.141 148.803 230.916 149.94 230.478 151.001C230.04 152.062 229.397 153.026 228.586 153.838C227.775 154.65 226.812 155.295 225.752 155.734C224.692 156.174 223.555 156.4 222.408 156.4Z" fill="#C551FB"/>
<path opacity="0.08" d="M222.408 156.4H124.766V84.2114C124.766 82.5432 125.429 80.9433 126.609 79.7637C127.788 78.5841 129.388 77.9214 131.056 77.9214H222.408C223.555 77.9214 224.691 78.1475 225.75 78.5867C226.81 79.0259 227.773 79.6696 228.584 80.4811C229.395 81.2926 230.038 82.2559 230.476 83.316C230.914 84.3761 231.14 85.5122 231.139 86.6594V147.655C231.141 148.803 230.916 149.94 230.478 151.001C230.04 152.062 229.397 153.026 228.586 153.838C227.775 154.65 226.812 155.295 225.752 155.734C224.692 156.174 223.555 156.4 222.408 156.4Z" fill="black"/>
<path opacity="0.08" d="M155.958 98.6885C166.237 98.6885 174.57 90.3558 174.57 80.0769C174.57 69.798 166.237 61.4653 155.958 61.4653C145.679 61.4653 137.346 69.798 137.346 80.0769C137.346 90.3558 145.679 98.6885 155.958 98.6885Z" fill="black"/>
<path d="M155.958 98.6885C166.237 98.6885 174.57 90.3558 174.57 80.0769C174.57 69.798 166.237 61.4653 155.958 61.4653C145.679 61.4653 137.346 69.798 137.346 80.0769C137.346 90.3558 145.679 98.6885 155.958 98.6885Z" fill="#FFD200"/>
<g opacity="0.08">
<path opacity="0.08" d="M156.862 93.085C167.141 93.085 175.474 84.7523 175.474 74.4734C175.474 64.1945 167.141 55.8618 156.862 55.8618C146.583 55.8618 138.251 64.1945 138.251 74.4734C138.251 84.7523 146.583 93.085 156.862 93.085Z" fill="black"/>
</g>
<path opacity="0.08" d="M155.958 98.6885C166.237 98.6885 174.57 90.3558 174.57 80.0769C174.57 69.798 166.237 61.4653 155.958 61.4653C145.679 61.4653 137.346 69.798 137.346 80.0769C137.346 90.3558 145.679 98.6885 155.958 98.6885Z" fill="black"/>
<path d="M156.862 93.085C167.141 93.085 175.474 84.7523 175.474 74.4734C175.474 64.1945 167.141 55.8618 156.862 55.8618C146.583 55.8618 138.251 64.1945 138.251 74.4734C138.251 84.7523 146.583 93.085 156.862 93.085Z" fill="#FFD200"/>
<path d="M157.468 66.1436C157.991 66.1436 158.148 66.3272 158.148 66.8236V68C159.072 68.0991 159.952 68.4475 160.693 69.0081C161.434 69.5686 162.01 70.3202 162.357 71.1824C162.629 71.7332 162.513 72.0324 161.901 72.3044L160.779 72.8076C160.249 73.0592 159.997 72.9504 159.698 72.3996C159.465 71.8303 159.055 71.3514 158.528 71.0341C158.001 70.7167 157.386 70.578 156.774 70.6384C154.822 70.6384 153.932 71.2096 153.932 72.5152C153.977 72.9132 154.159 73.2831 154.447 73.562C154.735 73.8409 155.11 74.0116 155.509 74.0452C156.054 74.1667 156.606 74.2508 157.162 74.2968C158.201 74.346 159.227 74.5477 160.208 74.8952C160.703 75.051 161.164 75.2977 161.568 75.6228C161.974 76.0502 162.29 76.5541 162.499 77.1052C162.708 77.6562 162.805 78.2434 162.785 78.8324C162.785 81.328 161.112 83.0212 158.161 83.4564V84.6464C158.161 85.17 157.998 85.3264 157.481 85.3264H156.216C155.693 85.3264 155.536 85.1428 155.536 84.6464V83.4768C154.511 83.4065 153.53 83.0346 152.715 82.4078C151.901 81.7811 151.29 80.9274 150.96 79.9544C150.911 79.852 150.886 79.7399 150.887 79.6266C150.888 79.5132 150.915 79.4015 150.965 79.3C151.016 79.1985 151.089 79.1098 151.178 79.0405C151.268 78.9713 151.373 78.9234 151.484 78.9004L152.606 78.4856C153.177 78.2816 153.428 78.4176 153.68 78.9888C154.183 80.2762 155.215 80.9177 156.774 80.9132C158.882 80.9132 159.929 80.2332 159.929 78.8732C159.948 78.561 159.862 78.2514 159.684 77.9938C159.507 77.7363 159.248 77.5455 158.95 77.452C158.218 77.1971 157.453 77.0504 156.679 77.0168C155.627 76.9508 154.593 76.7214 153.612 76.3368C153.117 76.1694 152.656 75.9137 152.252 75.582C151.842 75.178 151.52 74.6932 151.307 74.1582C151.094 73.6232 150.994 73.0498 151.014 72.4744C151.014 69.9992 152.572 68.3536 155.502 67.9592V66.8576C155.502 66.3272 155.686 66.1776 156.182 66.1776L157.468 66.1436Z" fill="white"/>
<path opacity="0.08" d="M199.356 108.134C209.635 108.134 217.967 99.8011 217.967 89.5222C217.967 79.2433 209.635 70.9106 199.356 70.9106C189.077 70.9106 180.744 79.2433 180.744 89.5222C180.744 99.8011 189.077 108.134 199.356 108.134Z" fill="black"/>
<path d="M199.356 108.134C209.635 108.134 217.967 99.8011 217.967 89.5222C217.967 79.2433 209.635 70.9106 199.356 70.9106C189.077 70.9106 180.744 79.2433 180.744 89.5222C180.744 99.8011 189.077 108.134 199.356 108.134Z" fill="#FFD200"/>
<g opacity="0.08">
<path opacity="0.08" d="M197.064 102.939C207.343 102.939 215.676 94.6058 215.676 84.3269C215.676 74.048 207.343 65.7153 197.064 65.7153C186.785 65.7153 178.452 74.048 178.452 84.3269C178.452 94.6058 186.785 102.939 197.064 102.939Z" fill="black"/>
</g>
<path opacity="0.08" d="M199.356 108.134C209.635 108.134 217.967 99.8011 217.967 89.5222C217.967 79.2433 209.635 70.9106 199.356 70.9106C189.077 70.9106 180.744 79.2433 180.744 89.5222C180.744 99.8011 189.077 108.134 199.356 108.134Z" fill="black"/>
<path d="M197.064 102.939C207.343 102.939 215.676 94.6058 215.676 84.3269C215.676 74.048 207.343 65.7153 197.064 65.7153C186.785 65.7153 178.452 74.048 178.452 84.3269C178.452 94.6058 186.785 102.939 197.064 102.939Z" fill="#FFD200"/>
<path d="M193.038 77.0169C193.48 76.7313 193.718 76.7925 193.997 77.2345L194.609 78.1797C195.438 77.7577 196.365 77.5695 197.293 77.6354C198.22 77.7013 199.112 78.0188 199.872 78.5537C200.403 78.8665 200.471 79.1793 200.104 79.7437L199.424 80.7773C199.118 81.2737 198.846 81.3145 198.295 81.0153C197.789 80.6715 197.187 80.4974 196.576 80.5182C195.965 80.539 195.376 80.7535 194.895 81.1309C193.263 82.1917 192.855 83.1709 193.535 84.2521C193.791 84.561 194.146 84.7722 194.54 84.8502C194.934 84.9282 195.342 84.8683 195.697 84.6805C196.218 84.484 196.727 84.2569 197.22 84.0005C198.116 83.4732 199.086 83.0835 200.097 82.8445C200.594 82.7072 201.114 82.6657 201.627 82.7221C202.2 82.8594 202.74 83.1107 203.215 83.4612C203.689 83.8117 204.088 84.2541 204.388 84.7621C205.748 86.8565 205.265 89.1889 203.028 91.1609L203.674 92.1537C203.959 92.5957 203.925 92.8337 203.483 93.1261L202.429 93.8061C201.987 94.0917 201.749 94.0373 201.45 93.5953L200.811 92.6161C199.912 93.1143 198.886 93.3362 197.861 93.254C196.837 93.1717 195.859 92.789 195.051 92.1537C194.954 92.0948 194.871 92.0143 194.81 91.9184C194.749 91.8225 194.71 91.7139 194.698 91.6008C194.685 91.4877 194.699 91.3732 194.738 91.2663C194.777 91.1593 194.84 91.0628 194.922 90.9841L195.636 90.0253C196.003 89.5425 196.316 89.5153 196.812 89.8621C197.934 90.6645 199.145 90.6373 200.45 89.7941C202.218 88.6449 202.742 87.5161 202.008 86.3941C201.856 86.1184 201.616 85.9015 201.326 85.7783C201.036 85.655 200.714 85.6324 200.41 85.7141C199.659 85.8965 198.939 86.1899 198.274 86.5845C197.358 87.1032 196.367 87.4792 195.337 87.6997C194.838 87.8172 194.323 87.8471 193.814 87.7881C193.252 87.6681 192.721 87.4342 192.253 87.1009C191.785 86.7676 191.39 86.3419 191.094 85.8501C189.734 83.8101 190.155 81.5457 192.406 79.6213L191.794 78.6829C191.508 78.2409 191.563 78.0029 191.998 77.6969L193.038 77.0169Z" fill="white"/>
<path d="M124.766 84.2114H215.023C217.452 84.2114 219.782 85.1765 221.5 86.8942C223.217 88.612 224.182 90.9417 224.182 93.371V153.524C224.182 155.953 223.217 158.283 221.5 160.001C219.782 161.718 217.452 162.683 215.023 162.683H124.766V84.2114Z" fill="#C551FB"/>
<path d="M199.186 115.253H231.941V131.641H199.186C198.11 131.641 197.044 131.429 196.05 131.017C195.056 130.605 194.152 130.002 193.392 129.241C192.631 128.48 192.027 127.577 191.615 126.583C191.204 125.588 190.992 124.523 190.992 123.447C190.992 121.274 191.855 119.19 193.392 117.653C194.928 116.116 197.012 115.253 199.186 115.253Z" fill="#24285B"/>
<path d="M200.954 127.616C203.256 127.616 205.122 125.749 205.122 123.447C205.122 121.145 203.256 119.279 200.954 119.279C198.651 119.279 196.785 121.145 196.785 123.447C196.785 125.749 198.651 127.616 200.954 127.616Z" fill="#FFD200"/>
<path opacity="0.58" d="M111.636 156.019C111.636 156.019 106.379 154.584 105.237 149.688C105.237 149.688 113.397 148.043 113.614 156.488L111.636 156.019Z" fill="#C551FB"/>
<path opacity="0.73" d="M112.282 155.496C112.282 155.496 108.61 149.689 111.84 144.262C111.84 144.262 118.034 148.193 115.28 155.509L112.282 155.496Z" fill="#C551FB"/>
<path d="M113.227 155.502C113.227 155.502 115.172 149.382 121.033 148.206C121.033 148.206 122.135 152.191 117.239 155.516L113.227 155.502Z" fill="#C551FB"/>
<path d="M109.412 155.366L110.48 162.656L117.191 162.683L118.184 155.4L109.412 155.366Z" fill="#24285B"/>
<path d="M93.6019 156.455C93.6019 156.455 95.6419 158.365 97.8519 157.461C100.062 156.557 101.68 158.345 100.048 159.855C98.4163 161.364 92.2555 161.439 92.2555 161.439L90.4399 157.468L93.6019 156.455Z" fill="#C551FB"/>
<path d="M59.2348 155.564C59.2348 155.564 58.2352 158.175 59.9148 159.882C61.5944 161.588 60.5404 163.758 58.5548 162.819C56.5692 161.881 54.1552 156.196 54.1552 156.196L57.12 153L59.2348 155.564Z" fill="#C551FB"/>
<path d="M53.7608 106.481C53.7608 106.481 51.6052 115.002 55.352 119.197C59.0988 123.393 64.872 143.256 55.352 153.197L59.1056 156.727C59.1056 156.727 75.548 148.342 70.856 118.103L82.5928 106.488L53.7608 106.481Z" fill="#24285B"/>
<path d="M82.5927 57.9497C82.5927 57.9497 94.2071 60.9077 94.2887 70.5229C94.3703 80.1381 89.1411 96.9681 96.6075 98.3417C104.074 99.7153 108.542 78.9345 108.542 78.9345L113.866 81.0833C113.866 81.0833 108.202 116.579 88.6243 110.725C69.0471 104.87 82.5927 57.9497 82.5927 57.9497Z" fill="#C551FB"/>
<path opacity="0.44" d="M82.5927 57.9497C82.5927 57.9497 94.2071 60.9077 94.2887 70.5229C94.3703 80.1381 89.1411 96.9681 96.6075 98.3417C104.074 99.7153 108.542 78.9345 108.542 78.9345L113.866 81.0833C113.866 81.0833 108.202 116.579 88.6243 110.725C69.0471 104.87 82.5927 57.9497 82.5927 57.9497Z" fill="white"/>
<path d="M72.1479 42.1602L68.6119 54.6314L75.6227 56.0866L75.3847 46.4306L72.1479 42.1602Z" fill="#F4A28C"/>
<path opacity="0.31" d="M75.5276 48.5383C74.671 48.2193 73.9264 47.6568 73.3856 46.9199C73.3856 46.9199 73.2088 49.2863 75.5208 51.9247L75.5276 48.5383Z" fill="#CE8172"/>
<path d="M68.612 54.631L72.76 55.4946C72.76 55.4946 91.8 57.5346 92.5684 68.2854C93.3368 79.0362 82.586 106.481 82.586 106.481H53.7608C53.7608 106.481 30.6544 51.7886 68.612 54.631Z" fill="#C551FB"/>
<path opacity="0.09" d="M66.1232 64.6001C66.1232 64.6001 68.4488 71.3049 62.3492 75.6841C56.2496 80.0633 59.228 96.5601 65.8988 99.1985C72.5696 101.837 61.7304 107.556 57.12 105.223C52.5096 102.891 51.8364 101.32 51.8364 101.32C51.8364 101.32 47.5456 88.9169 47.0764 81.0017C46.6072 73.0865 66.1232 64.6001 66.1232 64.6001Z" fill="black"/>
<path d="M66.1232 64.5999C66.1232 58.6907 60.1392 54.6583 54.5224 56.5011C49.64 58.0855 43.6832 61.0571 40.0656 66.4835C33.116 76.9147 17.2244 107.44 57.562 108.582L58.7452 104.094C58.7452 104.094 34.5304 97.3963 45.22 83.2319C53.5364 72.2091 66.1436 72.9503 66.1232 64.5999Z" fill="#C551FB"/>
<path opacity="0.44" d="M66.1232 64.5999C66.1232 58.6907 60.1392 54.6583 54.5224 56.5011C49.64 58.0855 43.6832 61.0571 40.0656 66.4835C33.116 76.9147 17.2244 107.44 57.562 108.582L58.7452 104.094C58.7452 104.094 34.5304 97.3963 45.22 83.2319C53.5364 72.2091 66.1436 72.9503 66.1232 64.5999Z" fill="white"/>
<path d="M109.786 79.4376C109.786 79.4376 110.092 74.2968 112.152 72.8416C114.213 71.3864 113.866 75.072 113.866 75.072C113.866 75.072 115.906 72.6648 117.647 73.7868C119.388 74.9088 113.866 81.0832 113.866 81.0832L109.786 79.4376Z" fill="#F4A28C"/>
<path d="M79.4104 42.5205C79.4104 42.5205 79.0568 46.4645 77.9484 48.9261C77.8413 49.1653 77.6877 49.3807 77.4966 49.56C77.3055 49.7393 77.0807 49.8789 76.8353 49.9706C76.5898 50.0623 76.3286 50.1044 76.0668 50.0944C75.805 50.0843 75.5477 50.0224 75.31 49.9121C74.5216 49.6091 73.8376 49.0846 73.3406 48.4017C72.8435 47.7188 72.5545 46.9067 72.5084 46.0633L71.944 42.4525C71.9083 41.7177 72.1018 40.99 72.4977 40.3699C72.8936 39.7498 73.4724 39.2681 74.154 38.9913C76.6292 37.8013 79.7436 40.1201 79.4104 42.5205Z" fill="#F4A28C"/>
<path d="M79.0636 44.9956L79.8796 46.6888C79.9253 46.7847 79.9461 46.8906 79.9401 46.9966C79.9341 47.1027 79.9015 47.2055 79.8452 47.2956C79.789 47.3858 79.711 47.4603 79.6183 47.5123C79.5257 47.5643 79.4215 47.5921 79.3152 47.5932H77.7784L79.0636 44.9956Z" fill="#F4A28C"/>
<path d="M82.5927 106.481L94.6491 156.72L88.6243 157.604C88.6243 157.604 76.5679 123.169 68.6119 116.124L82.5927 106.481Z" fill="#24285B"/>
<path d="M58.582 104.72C58.582 104.72 62.8864 104.04 64.3212 107.011C65.756 109.983 57.562 108.589 57.562 108.589L58.582 104.72Z" fill="#F4A28C"/>
<path d="M70.9716 46.3011L73.3856 45.7163L74.8544 44.9955C74.8544 44.9955 75.9084 44.9275 75.5344 42.3639C75.5344 42.3639 80.716 44.1523 81.396 41.0787C82.144 37.7263 78.2748 36.2371 75.5344 36.5227C74.7358 36.6189 73.9788 36.9322 73.3458 37.4285C72.7128 37.9249 72.2279 38.5853 71.944 39.3379C71.944 39.3379 67.6328 38.6511 70.9716 46.3011Z" fill="#24285B"/>
<path d="M74.6775 45.1179C74.6775 45.1179 74.9155 43.6151 73.7663 43.5335C72.6171 43.4519 72.2635 45.6211 73.7663 46.0903L74.6775 45.1179Z" fill="#F4A28C"/>
<path opacity="0.08" d="M117.694 76.9214C127.973 76.9214 136.306 68.5887 136.306 58.3098C136.306 48.0309 127.973 39.6982 117.694 39.6982C107.415 39.6982 99.0828 48.0309 99.0828 58.3098C99.0828 68.5887 107.415 76.9214 117.694 76.9214Z" fill="black"/>
<path d="M117.694 76.9214C127.973 76.9214 136.306 68.5887 136.306 58.3098C136.306 48.0309 127.973 39.6982 117.694 39.6982C107.415 39.6982 99.0828 48.0309 99.0828 58.3098C99.0828 68.5887 107.415 76.9214 117.694 76.9214Z" fill="#FFD200"/>
<g opacity="0.08">
<path opacity="0.08" d="M118.606 71.3184C128.885 71.3184 137.217 62.9857 137.217 52.7068C137.217 42.4279 128.885 34.0952 118.606 34.0952C108.327 34.0952 99.994 42.4279 99.994 52.7068C99.994 62.9857 108.327 71.3184 118.606 71.3184Z" fill="black"/>
</g>
<path opacity="0.08" d="M117.694 76.9214C127.973 76.9214 136.306 68.5887 136.306 58.3098C136.306 48.0309 127.973 39.6982 117.694 39.6982C107.415 39.6982 99.0828 48.0309 99.0828 58.3098C99.0828 68.5887 107.415 76.9214 117.694 76.9214Z" fill="black"/>
<path d="M118.606 71.3184C128.885 71.3184 137.217 62.9857 137.217 52.7068C137.217 42.4279 128.885 34.0952 118.606 34.0952C108.327 34.0952 99.994 42.4279 99.994 52.7068C99.994 62.9857 108.327 71.3184 118.606 71.3184Z" fill="#FFD200"/>
<path d="M119.204 44.377C119.728 44.377 119.884 44.5606 119.884 45.057V46.2402C120.808 46.3365 121.688 46.6831 122.43 47.2427C123.172 47.8023 123.747 48.5536 124.093 49.4158C124.372 49.9666 124.256 50.2658 123.638 50.5378L122.516 51.041C121.985 51.2926 121.734 51.1838 121.441 50.633C121.206 50.0638 120.794 49.5853 120.267 49.2682C119.739 48.951 119.123 48.812 118.51 48.8718C116.566 48.8718 115.668 49.4429 115.668 50.7485C115.714 51.1476 115.897 51.5184 116.186 51.7974C116.475 52.0765 116.852 52.2465 117.252 52.2785C117.794 52.4002 118.344 52.4843 118.898 52.5302C119.937 52.5821 120.963 52.7837 121.944 53.1285C122.439 53.2844 122.9 53.5311 123.304 53.8561C123.711 54.2827 124.029 54.7865 124.238 55.3378C124.447 55.889 124.543 56.4766 124.522 57.0658C124.522 59.5614 122.849 61.2546 119.898 61.6898V62.8798C119.898 63.4034 119.734 63.5598 119.218 63.5598H117.96C117.429 63.5598 117.28 63.3762 117.28 62.8798V61.683C116.254 61.6127 115.273 61.2408 114.459 60.614C113.644 59.9873 113.033 59.1336 112.703 58.1606C112.654 58.0577 112.63 57.9452 112.631 57.8314C112.633 57.7176 112.66 57.6057 112.711 57.504C112.762 57.4024 112.836 57.3138 112.926 57.2449C113.017 57.176 113.122 57.1287 113.234 57.1066L114.356 56.6918C114.927 56.4878 115.178 56.6238 115.43 57.195C115.933 58.4779 116.962 59.1194 118.517 59.1194C120.625 59.1194 121.679 58.4394 121.679 57.0794C121.699 56.766 121.612 56.4553 121.433 56.1973C121.254 55.9394 120.994 55.7494 120.693 55.6582C119.964 55.4038 119.201 55.2572 118.429 55.223C117.378 55.1544 116.343 54.9251 115.362 54.543C114.867 54.3715 114.407 54.1137 114.002 53.7813C113.593 53.3768 113.272 52.8917 113.06 52.3568C112.848 51.8218 112.75 51.2487 112.771 50.6737C112.771 48.1985 114.328 46.553 117.252 46.1654V45.091C117.252 44.5606 117.436 44.411 117.932 44.411L119.204 44.377Z" fill="white"/>
</svg>
