<svg width="200" height="143" viewBox="0 0 285 228" fill="none" xmlns="http://www.w3.org/2000/svg">
<g opacity="0.5">
<path opacity="0.5" d="M132.476 191.764C125.525 191.787 118.574 191.949 111.637 192.705C109.021 192.99 106.462 193.617 103.84 193.867C98.6013 194.372 93.4571 195.312 88.2017 195.748C83.9694 196.099 79.7201 196.304 75.4992 196.749C71.4163 197.177 67.2942 197.054 63.2442 196.381C60.3372 195.871 57.4188 195.586 54.5603 194.768C51.3626 193.853 47.8913 193.2 44.5596 193.223C39.8087 193.257 35.1831 193.26 30.6374 194.876C29.0442 195.446 27.0891 196.372 25.8779 197.561C23.1048 200.283 22.7429 207.074 25.4988 209.899C30.1643 214.65 40.1193 216.513 46.6572 216.602C53.8221 216.699 60.7818 216.177 67.9581 215.872C74.6271 215.587 81.2762 215.182 87.9566 215.197C101.597 215.225 115.237 215.197 128.854 214.305C141.645 213.467 154.47 213.752 167.295 213.752C180.442 213.752 193.501 213.852 206.554 215.562C212.225 216.317 218.025 216.57 223.725 217.092C228.855 217.559 233.763 217.092 238.861 216.653C243.161 216.303 247.366 215.201 251.284 213.396C254.362 211.953 259.851 207.482 260.795 204.045C263.442 194.412 223.494 194.64 217.361 194.665C210.501 194.688 203.584 194.91 196.727 194.665C193.843 194.557 191.001 194.007 188.177 193.403C185.352 192.799 182.548 192.952 179.704 192.699C167.848 191.644 155.966 191.798 144.079 191.798C140.22 191.787 136.35 191.753 132.476 191.764Z" fill="#E3D5EE"/>
</g>
<path d="M227.647 150.752L227.704 152.473L224.66 153.582L222.907 152.254V150.248L224.6 150.153L224.651 149.712L225.207 149.355L227.647 150.752Z" fill="#E1CFB5"/>
<path d="M165.454 164.75L166.089 179.493C166.091 179.512 166.091 179.531 166.089 179.55L164.208 204.881C164.2 204.996 164.15 205.104 164.068 205.185C163.987 205.266 163.879 205.315 163.764 205.323L161.752 205.465C161.632 205.474 161.512 205.438 161.418 205.363C161.324 205.288 161.262 205.18 161.244 205.061L157.824 182.112C157.827 182.098 157.827 182.084 157.824 182.07L153.184 162.975C153.168 162.899 153.171 162.82 153.192 162.746C153.213 162.671 153.251 162.603 153.305 162.547C153.358 162.49 153.424 162.448 153.498 162.423C153.571 162.399 153.65 162.392 153.726 162.405L165.06 164.303C165.167 164.322 165.264 164.377 165.335 164.458C165.407 164.539 165.448 164.642 165.454 164.75Z" fill="#353A85"/>
<path d="M162.196 207.423H165.066C165.259 207.423 165.445 207.353 165.589 207.225C165.734 207.098 165.826 206.922 165.85 206.731L165.884 206.477C165.901 206.333 165.879 206.188 165.82 206.056C165.761 205.924 165.667 205.81 165.548 205.727L164.627 205.092C164.479 204.991 164.302 204.942 164.123 204.955L162.088 205.1C161.983 205.108 161.881 205.136 161.788 205.183C161.694 205.23 161.611 205.295 161.542 205.374C161.474 205.454 161.423 205.546 161.391 205.646C161.358 205.746 161.346 205.851 161.355 205.955L161.41 206.699C161.426 206.897 161.516 207.081 161.662 207.215C161.807 207.349 161.998 207.423 162.196 207.423Z" fill="#292949"/>
<path d="M145.122 160.27L144.518 171.288C144.515 171.305 144.515 171.322 144.518 171.339L146.359 204.949C146.365 205.068 146.415 205.179 146.498 205.263C146.582 205.347 146.694 205.396 146.812 205.403L148.838 205.502C148.954 205.509 149.069 205.474 149.161 205.404C149.253 205.333 149.317 205.231 149.34 205.118L153.564 183.173L157.269 159.278C157.277 159.208 157.269 159.136 157.246 159.069C157.222 159.002 157.185 158.941 157.135 158.89C157.085 158.839 157.025 158.8 156.959 158.776C156.892 158.751 156.821 158.742 156.75 158.748L145.567 159.828C145.452 159.836 145.344 159.885 145.262 159.966C145.18 160.047 145.131 160.155 145.122 160.27Z" fill="#353A85"/>
<path d="M148.305 207.569L145.618 207.68C145.423 207.688 145.231 207.633 145.069 207.524C144.908 207.415 144.786 207.257 144.72 207.073C144.661 206.903 144.652 206.72 144.696 206.546C144.74 206.371 144.835 206.214 144.968 206.093L145.869 205.28C146.048 205.118 146.285 205.033 146.527 205.044L148.343 205.135C148.582 205.15 148.807 205.259 148.967 205.438C149.127 205.617 149.21 205.853 149.198 206.093L149.169 206.703C149.157 206.928 149.063 207.141 148.903 207.301C148.744 207.461 148.531 207.557 148.305 207.569Z" fill="#292949"/>
<path d="M161.506 125.216L152.939 124.298C152.895 124.291 152.85 124.291 152.805 124.298C152.184 124.418 147.655 125.652 144.512 136.653C142.637 143.222 142.061 153.565 141.921 161.465C141.918 161.498 141.918 161.532 141.921 161.565C142.158 162.776 143.423 167.573 148.55 166.746C157.474 165.307 162.23 163.868 166.109 164.589C169.421 165.307 169.139 160.75 168.777 157.273L167.46 146.543C167.462 146.521 167.462 146.499 167.46 146.477L161.92 125.564C161.894 125.471 161.841 125.388 161.767 125.326C161.693 125.263 161.602 125.225 161.506 125.216Z" fill="#D67086"/>
<path d="M160.105 114.102C157.847 113.604 155.522 113.159 153.265 113.607C152.771 113.703 152.239 113.877 151.971 114.305C151.875 114.475 151.804 114.658 151.76 114.849C151.19 116.97 150.466 120.11 151.862 122.065C152.135 122.431 152.478 122.739 152.871 122.972C153.249 123.21 153.659 123.393 154.088 123.516C154.21 123.553 154.313 123.636 154.374 123.749C154.434 123.861 154.449 123.992 154.413 124.114C154.339 124.368 154.256 124.619 154.159 124.864C154.117 124.97 154.113 125.089 154.15 125.197C154.186 125.306 154.261 125.398 154.359 125.457C155.12 125.91 156.696 125.933 157.266 125.457C157.312 125.416 157.349 125.365 157.375 125.309C157.4 125.252 157.414 125.191 157.414 125.129C157.434 124.639 157.451 124.146 157.471 123.656C157.473 123.569 157.5 123.485 157.547 123.412C157.594 123.34 157.661 123.282 157.739 123.245C157.943 123.151 158.139 123.042 158.326 122.917C159.326 122.229 160.066 121.226 160.429 120.067C160.86 118.813 161.464 117.619 161.854 116.343C161.997 115.875 162.111 115.345 161.854 114.918C161.598 114.49 161.031 114.316 160.523 114.202L160.105 114.102Z" fill="#C17E72"/>
<path d="M161.093 119.987C162.176 118.873 163.447 117.317 163.544 115.903C163.624 114.732 163.464 113.139 162.809 112.127C162.196 111.181 160.626 110.662 159.694 110.115L157.058 108.567C156.885 108.448 156.692 108.362 156.488 108.314C156.237 108.289 155.983 108.317 155.744 108.396L149.502 110.012C149.103 110.115 148.647 110.266 148.502 110.651C148.436 110.894 148.442 111.151 148.519 111.392C148.756 112.472 149.209 113.572 149.32 114.666C149.494 115.521 149.46 116.299 150.089 116.932C150.719 117.565 151.472 117.85 151.948 118.576C152.29 119.101 152.421 119.733 152.691 120.286C153.908 122.851 158.833 122.167 160.537 120.531C160.711 120.372 160.899 120.187 161.093 119.987Z" fill="#353A85"/>
<path d="M160.121 125.814L165.947 119.521C165.992 119.473 166.026 119.416 166.048 119.353C166.069 119.291 166.078 119.225 166.072 119.159L164.667 101.68C164.659 101.581 164.682 101.481 164.733 101.396C164.784 101.311 164.861 101.244 164.952 101.204L166.856 100.366C166.917 100.339 166.983 100.324 167.05 100.324C167.117 100.324 167.183 100.338 167.244 100.365C167.305 100.391 167.36 100.431 167.405 100.48C167.45 100.529 167.484 100.588 167.506 100.651L172.995 118.139C173.029 118.237 173.029 118.345 172.995 118.444L171.062 123.804C171.048 123.85 171.026 123.892 170.997 123.93L163.342 134.218C163.29 134.293 163.219 134.352 163.135 134.388C163.052 134.423 162.96 134.434 162.87 134.42C162.78 134.405 162.697 134.365 162.629 134.305C162.561 134.244 162.512 134.166 162.487 134.079L160.016 126.284C159.991 126.203 159.987 126.117 160.006 126.035C160.024 125.952 160.064 125.876 160.121 125.814Z" fill="#D67086"/>
<path d="M166.48 100.528C166.565 100.491 166.637 100.43 166.688 100.353C166.738 100.275 166.765 100.185 166.765 100.092V98.7524C166.765 98.1511 165.249 96.7574 164.864 96.2416C164.644 95.9566 163.636 97.5212 163.624 97.7834C163.604 98.1511 164.046 98.8721 164.294 99.368C164.333 99.4453 164.35 99.5316 164.344 99.6178C164.338 99.7041 164.309 99.7871 164.26 99.8582L164.086 100.106C164.028 100.191 163.998 100.292 164.002 100.394C164.005 100.497 164.042 100.596 164.106 100.676L164.411 101.047C164.477 101.13 164.569 101.188 164.672 101.213C164.776 101.238 164.884 101.228 164.981 101.183L166.48 100.528Z" fill="#C17E72"/>
<path d="M148.704 127.224L142.112 121.74C142.061 121.698 142.02 121.645 141.99 121.586C141.961 121.526 141.944 121.462 141.941 121.395L141.075 103.885C141.07 103.785 141.034 103.69 140.972 103.612C140.91 103.534 140.826 103.477 140.73 103.449L138.735 102.879C138.671 102.86 138.603 102.855 138.536 102.864C138.47 102.873 138.406 102.896 138.348 102.931C138.291 102.967 138.242 103.014 138.205 103.07C138.167 103.126 138.142 103.189 138.131 103.255L134.962 121.296C134.945 121.399 134.962 121.505 135.01 121.598L137.621 126.662C137.643 126.703 137.671 126.742 137.703 126.776L146.63 135.985C146.691 136.048 146.768 136.093 146.854 136.115C146.939 136.137 147.029 136.135 147.113 136.11C147.197 136.084 147.273 136.036 147.331 135.97C147.39 135.904 147.429 135.823 147.445 135.737L148.87 127.685C148.887 127.601 148.881 127.513 148.852 127.431C148.823 127.35 148.772 127.278 148.704 127.224Z" fill="#D67086"/>
<path d="M139.12 102.981C139.031 102.955 138.951 102.904 138.89 102.835C138.83 102.765 138.791 102.679 138.778 102.587C138.718 102.117 138.607 101.276 138.604 101.256C138.527 100.661 139.846 99.0704 140.163 98.5175C140.345 98.204 141.548 99.629 141.588 99.8855C141.653 100.25 141.303 101.025 141.129 101.547C141.101 101.628 141.095 101.716 141.113 101.8C141.13 101.885 141.17 101.963 141.229 102.026L141.434 102.251C141.502 102.328 141.544 102.425 141.554 102.527C141.564 102.63 141.541 102.733 141.488 102.821L141.234 103.229C141.179 103.317 141.096 103.386 140.998 103.423C140.901 103.461 140.793 103.465 140.693 103.437L139.12 102.981Z" fill="#C17E72"/>
<path d="M39.5123 116.159C38.3901 115.607 37.3377 114.924 36.3773 114.124C36.0638 113.862 35.7275 113.497 35.8386 113.103C35.964 112.653 36.5568 112.556 37.0242 112.599C37.905 112.677 38.761 112.932 39.5408 113.349C39.7317 113.286 39.4837 112.978 39.5692 112.796C39.5947 112.757 39.6295 112.726 39.6704 112.705C39.7114 112.684 39.757 112.674 39.803 112.676C41.0626 112.605 41.5528 114.32 41.986 115.144C41.1026 115.609 40.1906 115.626 39.4211 116.327L39.5123 116.159Z" fill="#EFBFA5"/>
<path d="M93.4229 136.119C93.4583 136.25 93.531 136.368 93.6322 136.459C93.7334 136.549 93.8587 136.609 93.9929 136.629L95.1728 136.8C95.7685 136.889 98.3734 135.575 98.9263 135.267C99.2455 135.09 96.8429 133.882 96.5893 133.842C96.2558 133.776 95.5747 134.05 95.0588 134.23C94.9376 134.272 94.8071 134.28 94.6815 134.253C94.556 134.227 94.44 134.166 94.3463 134.079C94.234 133.971 94.0894 133.903 93.9348 133.886C93.7802 133.869 93.6244 133.904 93.4913 133.984L93.3716 134.059C93.2397 134.137 93.1372 134.257 93.0801 134.4C93.0229 134.542 93.0142 134.7 93.0553 134.848L93.4229 136.119Z" fill="#EFBFA5"/>
<path d="M53.5514 203.791L53.3804 205.125C53.3639 205.255 53.3837 205.386 53.4376 205.505C53.4914 205.623 53.5772 205.725 53.6853 205.798L56.2104 207.494C56.3329 207.575 56.4778 207.617 56.6249 207.612C56.7721 207.608 56.9141 207.557 57.0312 207.468L57.1053 207.408C57.5074 207.097 57.7699 206.64 57.835 206.136C57.9002 205.632 57.7628 205.123 57.453 204.72L57.1538 204.347C57.1073 204.287 57.0515 204.235 56.9885 204.193L54.7085 202.671C54.6092 202.604 54.4944 202.563 54.3749 202.553C54.2554 202.543 54.1354 202.564 54.0262 202.613C53.917 202.663 53.8223 202.739 53.7511 202.836C53.68 202.932 53.6347 203.045 53.6198 203.164L53.5514 203.791Z" fill="#292949"/>
<path d="M53.5059 202.635L55.9797 180.762C55.9854 180.708 55.9854 180.653 55.9797 180.599L52.9331 155.559C52.926 155.501 52.926 155.443 52.9331 155.385L53.5344 150.7C53.5547 150.535 53.6333 150.382 53.7561 150.27C53.8789 150.157 54.0378 150.093 54.2042 150.087L66.6188 149.625C66.8027 149.619 66.9817 149.685 67.1175 149.809C67.2534 149.933 67.3352 150.106 67.3455 150.289L67.7987 158.269C67.8015 158.306 67.8015 158.344 67.7987 158.381L65.5187 180.636C65.5132 180.695 65.5007 180.752 65.4816 180.807L57.0969 203.716C57.0337 203.887 56.9062 204.028 56.7412 204.107C56.5763 204.186 56.387 204.198 56.2134 204.14L53.9876 203.388C53.8323 203.338 53.6993 203.236 53.6114 203.098C53.5235 202.961 53.4862 202.797 53.5059 202.635Z" fill="#292949"/>
<path d="M70.7541 125.907L75.5136 128.702C75.5993 128.753 75.6732 128.821 75.7302 128.902L80.2759 135.274C80.3515 135.379 80.454 135.46 80.5726 135.511C80.6911 135.561 80.8211 135.578 80.9485 135.559L92.8159 133.849C92.9091 133.836 93.0041 133.841 93.0953 133.865C93.1864 133.889 93.2718 133.931 93.3465 133.988C93.4212 134.045 93.4836 134.117 93.53 134.199C93.5764 134.281 93.606 134.372 93.6168 134.465L93.8761 136.762C93.8948 136.922 93.8577 137.084 93.771 137.22C93.6843 137.356 93.5533 137.458 93.4002 137.509L79.401 142.166C79.2499 142.22 79.0847 142.22 78.9336 142.166L71.9824 139.564C71.8628 139.519 71.7579 139.442 71.679 139.341C71.6001 139.241 71.5503 139.121 71.535 138.994L69.7024 126.608C69.684 126.477 69.7028 126.344 69.7569 126.223C69.8109 126.102 69.8979 126 70.0078 125.926C70.1177 125.853 70.246 125.812 70.3781 125.809C70.5101 125.805 70.6404 125.839 70.7541 125.907Z" fill="#BABCBE"/>
<path d="M77.3575 152.71L77.3917 174.78C77.3944 174.816 77.3944 174.852 77.3917 174.888L72.9115 203.491C72.8849 203.657 72.7995 203.809 72.6709 203.917C72.5423 204.026 72.3789 204.085 72.2104 204.084L70.1755 204.064C69.9987 204.062 69.8291 203.994 69.7006 203.872C69.5722 203.75 69.4945 203.585 69.483 203.408L67.7188 177.034V176.975L63.6376 150.88C63.6205 150.771 63.6295 150.659 63.6638 150.554C63.6982 150.448 63.757 150.353 63.8354 150.275C63.9138 150.197 64.0095 150.138 64.1149 150.104C64.2202 150.07 64.332 150.062 64.4413 150.079L76.7733 152.02C76.9361 152.048 77.0839 152.133 77.1907 152.259C77.2975 152.385 77.3566 152.544 77.3575 152.71Z" fill="#292949"/>
<path d="M69.9162 205.641L72.6237 207.029C72.755 207.096 72.9038 207.12 73.0495 207.098C73.1951 207.076 73.3302 207.009 73.436 206.907L74.3708 205.989C74.4359 205.924 74.4876 205.847 74.5229 205.761C74.5581 205.676 74.5763 205.585 74.5763 205.493C74.5763 205.401 74.5581 205.31 74.5229 205.225C74.4876 205.14 74.4359 205.062 74.3708 204.997L73.3049 203.908C73.2403 203.842 73.1632 203.789 73.0781 203.753C72.993 203.717 72.9015 203.698 72.809 203.698L70.244 203.672C70.1518 203.671 70.0603 203.688 69.9748 203.722C69.8893 203.757 69.8114 203.808 69.7457 203.872C69.68 203.937 69.6277 204.014 69.5919 204.099C69.5561 204.184 69.5375 204.275 69.5372 204.367V205.011C69.5355 205.141 69.5701 205.269 69.6371 205.38C69.7041 205.492 69.8007 205.582 69.9162 205.641Z" fill="#292949"/>
<path d="M51.5052 159.837C51.5366 158.854 51.5936 158.033 51.5993 157.74C51.6705 155.098 51.9071 152.461 52.2377 149.839C52.5227 147.488 52.9074 141.654 53.3093 139.317C53.6427 137.388 54.7998 132.574 55.6349 130.784C57.7154 126.335 57.0599 125.925 66.2055 124.606C70.1955 124.036 71.156 126.521 74.4278 129.391C74.7498 129.676 74.7327 131.357 74.8097 131.805C74.9408 132.588 75.0804 133.375 75.2429 134.156C75.3711 134.769 75.5108 135.379 75.6675 135.988C75.6675 135.988 78.4149 148.491 80.2275 151.148C82.0401 153.804 85.7993 157.514 79.5179 159.78C78.4446 160.147 77.3452 160.433 76.229 160.635C76.1629 160.645 76.0956 160.645 76.0295 160.635C75.3113 160.558 70.7769 160.065 68.3516 160.094C65.9157 160.123 63.4861 160.349 61.0869 160.772C59.4881 161.04 57.855 161.428 56.4243 162.174C55.0592 162.887 54.0759 163.936 52.6908 164.674C52.5658 164.758 52.4171 164.801 52.2662 164.796C51.4767 164.705 51.4397 161.912 51.5052 159.837Z" fill="#BABCBE"/>
<path d="M65.0341 126.001C64.5417 126.247 64.0045 126.389 63.4552 126.42C63.1547 126.443 62.8555 126.361 62.6097 126.186C62.3639 126.012 62.1871 125.757 62.11 125.465C62.0273 125.146 61.9589 124.827 61.8962 124.505C61.8717 124.356 61.7986 124.219 61.6883 124.116C61.578 124.013 61.4366 123.949 61.2863 123.935C60.5282 123.858 59.7587 123.65 59.431 122.986C59.3199 122.724 59.2525 122.446 59.2315 122.162C59.0833 120.996 58.9341 119.83 58.784 118.665C58.7042 118.265 58.7042 117.854 58.784 117.454C58.9721 116.767 59.6048 116.297 60.2404 115.975C61.862 115.151 63.8428 114.949 65.5157 115.664C65.9714 115.836 66.3736 116.125 66.6814 116.502C67.1288 117.101 67.1773 117.896 67.2086 118.642L67.2941 120.709C67.3254 121.498 67.2941 122.419 66.6814 122.909C66.3508 123.171 65.8976 123.265 65.624 123.584C65.2279 124.049 65.396 124.724 65.4046 125.346C65.4098 125.479 65.378 125.61 65.3125 125.726C65.2471 125.842 65.1506 125.937 65.0341 126.001Z" fill="#EFBFA5"/>
<path d="M71.8855 111.686C71.9661 111.358 72.0689 111.037 72.1933 110.723C72.4783 110.044 72.8659 109.415 73.034 108.705C73.2022 107.995 73.0768 107.143 72.4811 106.71C72.0739 106.466 71.6001 106.358 71.1274 106.399C69.5669 106.421 68.0406 106.86 66.707 107.67C65.4445 108.44 64.3985 109.38 62.8624 109.301C61.4174 109.215 60.5425 109.7 59.3369 110.6C58.0345 111.572 56.105 112.31 55.0078 113.45C54.5604 113.944 54.2396 114.538 54.073 115.183C53.7762 116.295 53.7967 117.468 54.1321 118.569C54.4676 119.67 55.1046 120.655 55.9711 121.413C56.3694 121.741 56.7957 122.034 57.245 122.288C57.7528 122.6 58.2792 122.881 58.8211 123.129C58.9529 123.186 59.099 123.201 59.2396 123.172C59.3803 123.143 59.5087 123.072 59.6076 122.968C59.7064 122.864 59.7709 122.732 59.7923 122.59C59.8138 122.448 59.7911 122.303 59.7274 122.174C59.2201 121.137 58.6244 119.874 58.9151 119.284C59.6105 117.859 62.0729 117.526 63.4409 117.403C64.9343 117.269 66.4904 117.879 67.9439 117.663C68.9927 117.509 70.1185 116.625 70.811 115.847C71.6632 114.895 71.5805 112.883 71.8855 111.686Z" fill="#292949"/>
<path d="M57.3905 126.775L51.5223 128.283C51.3793 128.319 51.2284 128.31 51.0909 128.257C50.9535 128.203 50.8362 128.107 50.7557 127.984L42.6531 115.39C42.5729 115.264 42.4547 115.168 42.3159 115.114C42.177 115.06 42.0246 115.052 41.8808 115.09L39.4298 115.752C39.3384 115.776 39.253 115.819 39.1787 115.878C39.1043 115.937 39.0425 116.01 38.997 116.093C38.9515 116.176 38.9233 116.267 38.9139 116.361C38.9045 116.455 38.9142 116.55 38.9424 116.641L44.6766 134.881C44.7179 135.01 44.7951 135.124 44.8991 135.21C45.0031 135.296 45.1296 135.351 45.2637 135.368L57.989 136.899C58.0909 136.911 58.1944 136.901 58.2919 136.869C58.3895 136.836 58.4788 136.783 58.5536 136.713C58.6283 136.643 58.6867 136.557 58.7246 136.461C58.7625 136.366 58.7789 136.263 58.7727 136.16L58.2654 127.419C58.2602 127.316 58.232 127.214 58.1828 127.123C58.1336 127.031 58.0646 126.951 57.9808 126.89C57.8971 126.828 57.8006 126.786 57.6985 126.766C57.5964 126.746 57.4912 126.749 57.3905 126.775Z" fill="#BABCBE"/>
<path d="M233.099 201.187C233.225 201.02 233.393 200.889 233.586 200.806C233.779 200.723 233.99 200.691 234.199 200.714C234.398 200.747 234.585 200.828 234.746 200.95C234.907 201.072 235.036 201.23 235.122 201.413C235.221 201.665 235.275 201.933 235.282 202.205C235.396 203.601 235.387 206.913 233.526 207.392C232.745 207.591 232.101 207.036 231.89 206.335C231.577 205.277 232.041 202.35 233.099 201.187Z" fill="#292949"/>
<path d="M232.438 180.121L232.534 188.634C232.42 192.416 233.01 196.218 232.899 200C232.871 200.869 232.646 201.787 232.865 202.647C233.084 203.508 233.763 203.642 234.467 203.217C235.41 202.647 235.256 201.308 235.413 200.333C235.846 197.657 236.351 194.992 236.801 192.316C237.02 191.005 236.567 189.167 236.667 187.842L238.041 180.717L232.438 180.121Z" fill="#F4C7B3"/>
<path d="M242.164 166.378L238.459 182.836L237.67 198.38L231.796 198.249L230.197 154.77L241.589 154.978L242.164 166.378Z" fill="#292949"/>
<path d="M224.694 200.88C224.829 200.721 225.003 200.599 225.199 200.528C225.395 200.457 225.606 200.439 225.811 200.475C226.009 200.519 226.194 200.61 226.349 200.741C226.504 200.871 226.626 201.037 226.703 201.225C226.79 201.484 226.831 201.755 226.826 202.028C226.883 203.431 226.729 206.748 224.856 207.116C224.07 207.27 223.449 206.677 223.272 205.961C223.004 204.884 223.591 201.983 224.694 200.88Z" fill="#292949"/>
<path d="M227.792 181.328L227.293 189.827C227.25 192.189 226.937 194.535 226.692 196.881C226.464 199.061 226.817 201.329 225.68 203.31C225.321 203.934 224.6 204.348 224.095 203.595C223.708 203.025 223.939 202.042 223.865 201.381C223.56 198.687 223.181 196 222.856 193.307C222.696 191.987 223.238 190.172 223.203 188.844L222.166 181.653L227.792 181.328Z" fill="#F4C7B3"/>
<path d="M220.356 165.372L219.877 181.349L222.385 197.505L228.362 197.685L228.097 180.197L231.26 165.696L232.321 156.206L222.839 155.086L220.356 165.372Z" fill="#292949"/>
<path d="M227.857 122.386L238.075 122.141L243.997 133.159L241.891 143.479L241.517 155.825L226.943 156.024L222.149 155.246L223.423 142.051L222.69 124.426L227.857 122.386Z" fill="#8CABEF"/>
<path d="M229.197 112.86C231.209 108.585 236.892 110.865 237.69 114.969C238.2 117.639 235.843 120.78 233.084 121.239C233.062 121.342 232.765 122.211 232.757 122.291C232.704 122.705 232.621 123.114 232.509 123.516C232.469 123.67 230.172 122.966 229.915 122.886C229.823 122.87 229.741 122.818 229.687 122.741C229.607 122.584 230.083 121.39 230.118 121.23C230.152 121.071 230.2 120.848 230.243 120.66C228.989 119.871 228.305 118.409 228.222 116.984C228.14 115.559 228.593 114.14 229.197 112.86Z" fill="#F4C7B3"/>
<path d="M233.463 109.243C233.714 109.614 233.853 110.049 233.865 110.497C233.909 110.756 233.896 111.021 233.828 111.275C233.501 112.261 232.506 112.102 231.694 112.344C230.694 112.657 229.812 113.265 229.163 114.088C228.182 115.331 228.373 117.086 228.556 118.594C228.618 119.127 228.778 119.922 228.325 120.341C227.872 120.76 226.928 120.595 226.467 120.298C226.005 120.002 225.72 119.583 225.238 119.443C224.757 119.304 224.001 119.443 223.813 118.95C223.784 118.803 223.746 118.659 223.699 118.517C223.457 118.075 222.69 118.48 222.317 118.146C222.086 117.941 222.129 117.562 222.246 117.271C222.401 116.998 222.492 116.693 222.511 116.379C222.449 116.119 222.353 115.868 222.226 115.633C222.14 115.38 222.128 115.108 222.19 114.849C222.253 114.59 222.388 114.353 222.579 114.168C223.298 113.498 224.52 113.772 225.281 113.148C225.677 112.825 225.874 112.315 226.059 111.834C226.244 111.352 226.461 110.85 226.88 110.554C227.396 110.192 228.071 110.335 228.59 109.893C228.895 109.633 229.12 109.277 229.445 109.058C229.884 108.773 230.702 108.602 231.223 108.488C231.63 108.39 232.056 108.408 232.452 108.542C232.849 108.676 233.199 108.919 233.463 109.243Z" fill="#292949"/>
<path d="M236.416 116.751C236.285 118.218 235.387 119.723 235.923 121.085C236.459 122.448 238.137 122.878 239.577 123.103C239.813 123.14 242.84 123.733 242.86 123.673C243.199 122.679 243.547 121.661 244.177 120.823C244.806 119.985 245.778 119.338 246.807 119.384C246.522 119.301 246.408 118.925 246.474 118.626C246.573 118.33 246.699 118.044 246.85 117.771C246.997 117.423 247.045 117.041 246.99 116.667C246.936 116.294 246.78 115.942 246.539 115.65C245.564 114.528 243.561 114.736 242.76 113.479C242.264 112.701 242.444 111.666 242.239 110.757C241.837 109.001 240.021 108.449 238.719 107.534C237.345 106.57 236.014 105.978 234.296 106.077C232.167 106.2 230.38 108.164 230.972 110.255C231.731 112.94 235.892 113.162 236.387 115.859C236.438 116.153 236.448 116.453 236.416 116.751Z" fill="#292949"/>
<path d="M235.051 122.326L231.882 126.806L230.391 126.684L227.909 122.141L235.051 122.326Z" fill="#F9F9F9"/>
<path d="M227.909 122.143L222.149 122.456C222.149 122.456 215.682 125.637 215.255 125.403C214.827 125.169 207.845 111.176 207.845 111.176L204.425 112.287L208.7 128.29L212.835 132.565L224.52 130.618L227.909 122.143Z" fill="#8CABEF"/>
<path d="M204.952 112.084L204.034 110.713C203.698 110.215 204.174 108.202 204.214 107.578C204.237 107.216 205.95 107.96 206.103 108.168C206.368 108.524 206.366 109.667 206.477 110.149L207.352 110.488L207.238 111.688L204.952 112.084Z" fill="#F4C7B3"/>
<path d="M83.9523 70.6525L65.9517 62.5186V40.8672L83.9523 49.0011V70.6525Z" fill="#373F8C"/>
<path d="M83.9524 70.6525L101.956 62.5186V40.8672L83.9524 49.0011V70.6525Z" fill="#333A7F"/>
<path d="M65.9517 40.8677L83.9523 49.0016L101.956 40.8677L83.9523 33.4805L65.9517 40.8677Z" fill="#3F4991"/>
<path d="M227.712 58.5678L212.584 51.7306V33.5391L227.712 40.3734V58.5678Z" fill="#5D66D3"/>
<path d="M227.712 58.5678L242.837 51.7306V33.5391L227.712 40.3734V58.5678Z" fill="#474EBB"/>
<path d="M212.584 33.5404L227.712 40.3747L242.837 33.5404L227.712 27.3359L212.584 33.5404Z" fill="#717DDB"/>
<path d="M136.193 75.8388L134.072 74.8784L134.446 74.0519L136.566 75.0124L136.193 75.8388ZM132.419 74.1288L129.94 73.0059L130.316 72.1794L132.793 73.3023L132.419 74.1288ZM128.29 72.2592L125.81 71.1363L126.184 70.3098L128.663 71.4327L128.29 72.2592ZM124.157 70.3953L121.695 69.2553L122.068 68.4288L124.548 69.5489L124.157 70.3953ZM120.028 68.5257L117.551 67.4028L117.924 66.5763L120.401 67.6992L120.028 68.5257ZM115.898 66.6561L113.418 65.5332L113.795 64.7067L116.28 65.8353L115.898 66.6561ZM111.768 64.7837L109.289 63.6608L109.662 62.8371L112.142 63.9572L111.768 64.7837ZM107.636 62.9141L105.165 61.7826L105.538 60.9561L108.018 62.079L107.636 62.9141ZM103.506 61.0445L101.029 59.9216L101.403 59.0951L103.879 60.218L103.506 61.0445ZM99.3765 59.172L96.897 58.0491L97.2732 57.2255L99.7498 58.3455L99.3765 59.172ZM95.2468 57.2853L92.7673 56.1624L93.1407 55.3359L95.6202 56.4588L95.2468 57.2853Z" fill="#D67086"/>
<path d="M47.4836 75.9104L46.9421 75.1808L48.0622 74.3515L48.6037 75.0811L47.4836 75.9104ZM50.0486 74.0009L49.51 73.2713L51.6959 71.6525L52.2346 72.3793L50.0486 74.0009ZM53.6909 71.302L53.1523 70.5724L55.3382 68.9536L55.8769 69.6803L53.6909 71.302ZM57.3361 68.6002L56.7946 67.8734L58.9805 66.2518L59.5192 66.9814L57.3361 68.6002ZM60.9898 65.9012L60.4483 65.1716L62.6342 63.5528L63.1757 64.2824L60.9898 65.9012ZM64.6321 63.2023L64.0906 62.4727L66.2765 60.8539L66.818 61.5806L64.6321 63.2023ZM68.2744 60.5005L67.7357 59.7737L69.9217 58.1521L70.4603 58.8817L68.2744 60.5005ZM71.9167 57.8015L71.378 57.0748L73.564 55.4531L74.1026 56.1827L71.9167 57.8015Z" fill="#D67086"/>
<path d="M41.1254 102.583L26.0005 95.7462V77.5547L41.1254 84.389V102.583Z" fill="#5D66D3"/>
<path d="M41.1255 102.583L56.2533 95.7462V77.5547L41.1255 84.389V102.583Z" fill="#474EBB"/>
<path d="M26.0005 77.556L41.1254 84.3903L56.2532 77.556L41.1254 71.3516L26.0005 77.556Z" fill="#717DDB"/>
<path d="M135.477 80.0858L135.141 79.2308L135.218 79.1995L135.552 80.0545L135.477 80.0858ZM137.239 79.3847L136.902 78.5297L139.433 77.5265L139.767 78.3815L137.239 79.3847ZM141.451 77.7118L141.118 76.8568L143.646 75.8507L143.982 76.7057L141.451 77.7118ZM145.666 76.036L145.33 75.181L147.861 74.1778L148.194 75.0328L145.666 76.036ZM149.878 74.363L149.545 73.508L152.073 72.5048L152.409 73.3456L149.878 74.363ZM154.094 72.6758L153.757 71.8351L156.288 70.829L156.622 71.684L154.094 72.6758ZM158.309 71.0029L157.972 70.1479L160.5 69.1447L160.837 69.9854L158.309 71.0029ZM162.521 69.3271L162.188 68.4863L164.716 67.4803L165.049 68.3353L162.521 69.3271ZM166.725 67.6655L166.389 66.8105L168.916 65.8073L169.253 66.6481L166.725 67.6655ZM170.937 65.9897L170.604 65.149L173.132 64.1429L173.465 64.9979L170.937 65.9897ZM175.152 64.3168L174.816 63.4618L177.344 62.4586L177.68 63.3136L175.152 64.3168ZM179.365 62.6438L179.031 61.7888L181.559 60.7828L181.893 61.6378L179.365 62.6438ZM183.58 60.968L183.255 60.1358L185.783 59.1326L186.119 59.9876L183.58 60.968ZM187.815 59.2951L187.481 58.4401L190.009 57.4369L190.343 58.2919L187.815 59.2951ZM192.03 57.6193L191.694 56.7785L194.222 55.7725L194.558 56.6275L192.03 57.6193ZM196.242 55.9463L195.909 55.0913L198.437 54.0881L198.77 54.9431L196.242 55.9463ZM200.457 54.2705L200.121 53.4298L202.649 52.4237L202.985 53.2787L200.457 54.2705ZM204.67 52.5976L204.336 51.7426L206.864 50.7394L207.198 51.5944L204.67 52.5976ZM208.885 50.9246L208.549 50.0696L211.079 49.0636L211.413 49.9186L208.885 50.9246ZM213.097 49.2488L212.764 48.3938L215.292 47.3906L215.628 48.2456L213.097 49.2488ZM217.312 47.5759L216.976 46.7209L219.507 45.7148L219.84 46.5698L217.312 47.5759Z" fill="#D67086"/>
<path d="M150.642 105.034L119.974 91.1777V54.293L150.642 68.1497V105.034Z" fill="#5D66D3"/>
<path d="M150.642 105.034L181.311 91.1777V54.293L150.642 68.1497V105.034Z" fill="#474EBB"/>
<path d="M119.974 54.2937L150.642 68.1504L181.311 54.2937L150.642 41.7109L119.974 54.2937Z" fill="#717DDB"/>
<path d="M201.381 96.0108L198.899 94.8994L199.269 94.0728L201.751 95.1844L201.381 96.0108ZM197.243 94.1583L194.76 93.0469L195.131 92.2203L197.613 93.3319L197.243 94.1583ZM193.105 92.3058L190.622 91.1944L190.993 90.3678L193.475 91.4794L193.105 92.3058ZM188.955 90.4533L186.473 89.3419L186.843 88.5125L189.325 89.6269L188.955 90.4533ZM184.817 88.6008L182.334 87.4894L182.705 86.66L185.187 87.7715L184.817 88.6008ZM180.69 86.7483L178.208 85.6369L178.578 84.8075L181.06 85.919L180.69 86.7483ZM176.552 84.893L174.069 83.7815L174.44 82.955L176.922 84.0665L176.552 84.893ZM172.425 83.0405L169.943 81.929L170.313 81.1025L172.795 82.214L172.425 83.0405ZM168.287 81.188L165.804 80.0765L166.175 79.25L168.657 80.3615L168.287 81.188Z" fill="#D67086"/>
<path d="M110.446 96.3317L109.953 95.5708L112.233 94.0916L112.726 94.8526L110.446 96.3317ZM114.251 93.8665L113.758 93.1055L116.038 91.6235L116.531 92.3845L114.251 93.8665ZM118.055 91.3984L117.562 90.6317L119.842 89.1526L120.335 89.9135L118.055 91.3984ZM121.86 88.9217L121.367 88.1608L123.647 86.6788L124.14 87.4397L121.86 88.9217ZM125.665 86.4536L125.172 85.6927L127.452 84.2135L127.945 84.9745L125.665 86.4536ZM129.47 83.9855L128.974 83.2217L131.254 81.7426L131.747 82.5035L129.47 83.9855ZM133.272 81.5203L132.779 80.7593L135.059 79.2773L135.552 80.0383L133.272 81.5203Z" fill="#D67086"/>
<path d="M99.9608 135.252L78.9849 125.773V100.551L99.9608 110.027V135.252Z" fill="#5D66D3"/>
<path d="M99.9609 135.252L120.934 125.773V100.551L99.9609 110.027V135.252Z" fill="#474EBB"/>
<path d="M78.9849 100.552L99.9609 110.029L120.934 100.552L99.9609 91.9453L78.9849 100.552Z" fill="#717DDB"/>
<path d="M213.103 113.42L192.13 103.944V78.7188L213.103 88.195V113.42Z" fill="#373F8C"/>
<path d="M213.103 113.42L234.079 103.944V78.7188L213.103 88.195V113.42Z" fill="#333A7F"/>
<path d="M192.13 78.7174L213.103 88.1937L234.079 78.7174L213.103 70.1133L192.13 78.7174Z" fill="#3F4991"/>
<path d="M231.771 151.841C231.152 152.471 230.297 153.016 229.419 152.902C229.069 152.859 228.721 152.796 228.376 152.719C228.101 152.673 227.839 152.565 227.612 152.403C227.499 152.316 227.414 152.198 227.368 152.063C227.321 151.928 227.315 151.783 227.35 151.645C227.478 151.263 227.943 151.16 228.285 150.955C228.707 150.696 228.966 150.234 229.3 149.861C230.061 149.006 231.084 148.929 232.053 148.473C232.276 148.668 232.483 148.881 232.671 149.111C233.022 149.504 233.053 149.59 232.854 150.089C232.61 150.738 232.242 151.333 231.771 151.841Z" fill="#F4C7B3"/>
<path d="M238.414 122.902L246.707 135.534L245.459 142.57L232.614 151.471L230.197 149.356L238.784 138.5L238.451 131.64L238.414 122.902Z" fill="#8CABEF"/>
</svg>
