<svg width="143" height="56" viewBox="0 0 143 56" fill="none" xmlns="http://www.w3.org/2000/svg">
<path fill-rule="evenodd" clip-rule="evenodd" d="M15.2381 10.1876C13.252 10.5611 12.2961 10.8775 10.8409 11.6431C7.9277 13.1759 5.63821 15.8244 4.60637 18.8552C3.90676 20.91 3.97018 19.6379 3.93035 32.4181C3.90527 40.4767 3.92476 43.9782 3.99611 44.2392C4.14152 44.771 4.6213 45.3367 5.19714 45.6552C5.63476 45.8973 5.77905 45.9294 6.37877 45.9182C7.09219 45.9049 7.08492 45.9075 8.5693 45.1045C8.85144 44.9519 9.50199 44.58 10.015 44.2781C10.528 43.9762 11.1365 43.6244 11.3674 43.4962C12.2157 43.0253 14.6484 41.643 16.9636 40.3166C17.4509 40.0373 18.0805 39.6845 18.3626 39.5326C18.6447 39.3807 18.8896 39.2227 18.9066 39.1817C18.9238 39.1405 18.9771 39.1069 19.0251 39.1069C19.0731 39.1069 19.29 38.9957 19.507 38.8598C19.724 38.7239 20.1324 38.4914 20.4145 38.3433C20.6967 38.1951 21.3262 37.8477 21.8136 37.5714C22.3009 37.2949 22.7626 37.0332 22.8395 36.9899C22.9165 36.9464 23.2103 36.7786 23.4924 36.617C23.7746 36.4554 24.1943 36.2207 24.4251 36.0955C24.656 35.9702 24.8868 35.8366 24.9381 35.7985C25.051 35.7145 27.4483 34.3552 27.7986 34.1764C28.0547 34.0457 28.2501 34.1344 29.7415 35.0589C29.8697 35.1385 30.1006 35.2655 30.2545 35.3413C30.4084 35.4171 30.933 35.7121 31.4203 35.9971C31.9077 36.282 32.7681 36.7739 33.3323 37.0902C33.8966 37.4064 34.4842 37.7367 34.6381 37.824C35.3419 38.2235 38.2795 39.9056 38.542 40.0593C38.7033 40.1538 39.0241 40.3317 39.255 40.4546C39.6972 40.6901 39.7518 40.7217 40.537 41.1964C40.8086 41.3605 41.0516 41.4949 41.0772 41.4949C41.1028 41.4949 41.4001 41.6602 41.7378 41.8622C42.0756 42.0643 42.3634 42.2296 42.3773 42.2296C42.3912 42.2296 42.8591 42.4904 43.417 42.8093C43.975 43.1282 44.998 43.712 45.6906 44.1067C46.3831 44.5015 46.9917 44.855 47.043 44.8923C47.0943 44.9296 47.5462 45.1724 48.0475 45.4318C48.9023 45.8742 49.0008 45.9034 49.6388 45.9034C50.6943 45.9034 51.3452 45.5155 51.8738 44.5716L52.0795 44.2043V32.7696C52.0795 20.4464 52.1099 21.3599 51.6443 19.6818C50.9282 17.1007 49.5112 14.9495 47.2295 12.9792C46.5414 12.385 44.6237 11.297 43.592 10.9153C43.0628 10.7196 42.7211 10.6098 42.4261 10.5407C42.2466 10.4988 41.9318 10.4242 41.7266 10.3751C39.9201 9.94292 37.3981 9.9893 35.5089 10.4897C34.2047 10.835 32.1736 11.7423 30.954 12.5244C30.3943 12.8833 30.254 12.9647 29.6254 13.2955C29.3308 13.4506 28.8924 13.7007 28.6512 13.8514C28.1388 14.1713 28.0258 14.1826 27.5926 13.9572C26.9203 13.6072 26.125 13.1665 25.4044 12.7444C24.9941 12.5041 24.5114 12.2276 24.3318 12.1301C24.1523 12.0326 23.7326 11.804 23.3992 11.6221C22.2855 11.0146 20.6607 10.4645 19.3419 10.2485C18.569 10.1218 15.8058 10.0809 15.2381 10.1876ZM19.202 12.7829C20.0643 12.982 20.4078 13.0764 20.8458 13.2349C21.3308 13.4105 22.6294 14.047 23.3041 14.4399C24.9216 15.3818 25.2179 15.5738 25.2179 15.6799C25.2179 15.8059 25.2115 15.8099 23.1484 16.9656C22.3886 17.3913 21.4102 17.955 20.9741 18.2184C20.5381 18.4817 19.8666 18.8599 19.4818 19.0589C19.0971 19.258 18.3416 19.6811 17.803 19.9992C17.2643 20.3174 16.6348 20.6823 16.4039 20.8102C16.1731 20.9381 15.8276 21.1395 15.6363 21.2578C15.4449 21.3761 15.2716 21.4728 15.2512 21.4728C15.139 21.4728 14.074 22.1623 13.8127 22.404C12.8715 23.275 12.8497 24.8398 13.7649 25.8436C13.9228 26.0168 15.1286 26.7998 15.2374 26.7998C15.2652 26.7998 15.6264 27.0064 16.0399 27.259C16.4535 27.5115 16.8056 27.7182 16.8223 27.7182C16.8644 27.7182 19.1326 29.0026 19.2487 29.0921C19.3 29.1317 19.6147 29.3072 19.9482 29.4821C20.2816 29.657 21.0781 30.1023 21.7182 30.4716C22.3583 30.8409 23.0088 31.2141 23.1638 31.3008C23.3189 31.3876 23.819 31.6709 24.2752 31.9304C24.7315 32.1899 25.1438 32.4023 25.1915 32.4023C25.4432 32.4023 25.1459 32.7467 24.6256 33.0581C24.2999 33.253 24.0171 33.4125 23.9972 33.4125C23.9773 33.4125 23.5094 33.6754 22.9572 33.9968C22.4052 34.318 21.3449 34.9227 20.6011 35.3405C19.8572 35.7583 18.8818 36.322 18.4336 36.5932C17.9852 36.8644 17.5795 37.0863 17.5319 37.0863C17.4844 37.0863 17.4315 37.1173 17.4143 37.1552C17.3973 37.193 17.0685 37.3874 16.6837 37.5871C16.299 37.7866 15.6904 38.1266 15.3313 38.3427C14.9722 38.5586 14.4266 38.8656 14.1188 39.0248C13.811 39.184 13.5382 39.3399 13.5126 39.3713C13.4661 39.4282 13.3412 39.5012 12.6897 39.8531C12.501 39.955 12.1564 40.1491 11.9237 40.2843C11.691 40.4197 11.2084 40.6911 10.8511 40.8875C10.4938 41.0838 10.0546 41.3372 9.87507 41.4507C9.69553 41.564 9.31779 41.7792 9.03565 41.9288C8.75351 42.0783 8.24985 42.3649 7.91641 42.5656C7.58297 42.7662 7.2472 42.9584 7.17026 42.9927C7.09331 43.027 6.96264 43.1032 6.87982 43.1621C6.79699 43.221 6.65867 43.2425 6.5724 43.2099C6.42643 43.1547 6.41795 42.3992 6.4504 32.2887C6.48836 20.4675 6.44789 21.3632 7.01869 19.7017C7.87444 17.2107 9.62147 15.1841 12.0483 13.8671C13.2231 13.2294 13.6877 13.0698 15.3313 12.739C16.331 12.5379 18.2339 12.5594 19.202 12.7829ZM40.7473 12.7451C42.0362 13.0279 42.2618 13.0935 42.9907 13.3973C44.7324 14.1232 46.3566 15.3874 47.4946 16.9031C47.9771 17.5457 48.955 19.3659 48.955 19.6214C48.955 19.6899 49.0144 19.8762 49.0871 20.0353C49.1597 20.1945 49.24 20.4487 49.2655 20.6003C49.621 22.7123 49.6097 22.2728 49.5849 32.9324L49.5612 43.194L49.363 43.2218C49.254 43.2371 49.0996 43.1854 49.0199 43.107C48.9403 43.0286 48.8503 42.9644 48.8201 42.9644C48.79 42.9644 48.4617 42.783 48.0907 42.5613C47.7196 42.3395 47.1642 42.0275 46.8564 41.8677C46.5486 41.708 45.8771 41.3301 45.3641 41.0277C44.8511 40.7255 44.3685 40.4516 44.2915 40.4192C44.2146 40.3867 44.1306 40.3365 44.105 40.3076C44.0499 40.2455 43.8181 40.1155 43.0969 39.7426C42.8049 39.5917 42.2995 39.3042 41.9738 39.1038C41.648 38.9035 41.3642 38.7395 41.3432 38.7395C41.3221 38.7395 40.9801 38.5409 40.583 38.2981C40.1861 38.0553 39.7143 37.7852 39.5348 37.6977C39.3552 37.6102 39.0152 37.4266 38.7792 37.2896C38.5431 37.1525 37.9975 36.8425 37.5667 36.6006C36.7394 36.136 36.5538 36.0279 36.1774 35.7916C36.049 35.7109 35.7131 35.521 35.4309 35.3697C34.8187 35.0412 32.3022 33.6054 31.3504 33.0415C30.9784 32.8212 30.6742 32.611 30.6742 32.5744C30.6742 32.5378 30.9155 32.3756 31.2105 32.2139C31.5055 32.0521 31.9147 31.8276 32.1198 31.7149C32.325 31.6021 32.7238 31.3742 33.0059 31.2085C33.8566 30.7086 35.9098 29.5457 36.4569 29.2539C36.739 29.1035 37.3686 28.7452 37.8559 28.4577C39.2038 27.6625 39.8202 27.3059 40.2809 27.0543C41.3012 26.497 41.9283 26.1124 42.1237 25.9243C42.4486 25.6111 42.7992 25.0655 42.7992 24.8729C42.7992 24.7774 42.8411 24.5907 42.8924 24.458C42.9989 24.182 42.8838 23.583 42.6073 22.9746C42.3686 22.4495 41.911 22.1146 39.8612 20.9652C38.8865 20.4187 37.6789 19.7307 37.1775 19.4363C36.6762 19.142 36.252 18.9011 36.2349 18.9011C36.207 18.9011 35.7206 18.6271 34.0086 17.6468C32.9029 17.0138 32.2967 16.669 31.9799 16.4931C30.6254 15.7407 30.6736 15.7768 30.7855 15.6003C30.844 15.5081 31.0632 15.346 31.2727 15.2399C31.7125 15.0172 32.2591 14.7142 32.7261 14.4343C34.842 13.1656 36.7569 12.5878 38.8819 12.5767C39.6118 12.5729 40.2077 12.6267 40.7473 12.7451ZM28.8344 17.6028C29.1538 17.7981 30.038 18.3043 30.7994 18.7279C31.5608 19.1515 32.3163 19.5754 32.4783 19.6699C32.6402 19.7643 33.0455 19.9888 33.379 20.1687C33.7124 20.3486 34.415 20.757 34.9402 21.0762C35.4655 21.3954 35.9213 21.6565 35.9531 21.6565C35.985 21.6565 36.4576 21.9197 37.0034 22.2413C37.5492 22.563 38.1427 22.9056 38.3223 23.0026C39.2647 23.5122 40.1877 24.0784 40.1877 24.1468C40.1877 24.1894 40.0303 24.3099 39.8379 24.4145C39.6456 24.519 39.0419 24.8607 38.4965 25.174C37.9511 25.4872 37.0487 26.0044 36.4912 26.3233C35.9337 26.6421 35.4146 26.9409 35.3376 26.9872C35.2137 27.0619 33.8305 27.8376 33.0416 28.275C32.8818 28.3636 32.4682 28.6052 32.1227 28.8119C31.7773 29.0186 31.4782 29.1877 31.458 29.1877C31.3962 29.1877 28.4879 30.8513 28.3937 30.9406C28.2551 31.072 27.7618 31.0268 27.483 30.8572C27.1973 30.6833 24.0796 28.9127 23.3575 28.5143C23.0983 28.3713 22.5084 28.0345 22.0467 27.7659C21.5851 27.4972 21.0604 27.1971 20.8809 27.0987C20.4616 26.8692 17.5386 25.209 16.2308 24.4577C15.9671 24.3062 15.7512 24.1594 15.7511 24.1316C15.7511 24.0874 16.239 23.8018 17.4299 23.1488C17.6094 23.0504 18.0292 22.806 18.3626 22.6057C18.696 22.4054 19.0318 22.2127 19.1088 22.1774C19.1857 22.1421 19.4165 22.0172 19.6217 21.8999C19.8269 21.7825 20.6664 21.3016 21.4871 20.8312C22.3079 20.3607 23.1054 19.9056 23.2592 19.8199C23.5675 19.6479 25.1334 18.7556 25.528 18.527C25.6652 18.4474 26.0713 18.2257 26.4304 18.0343C26.7895 17.8428 27.2092 17.5895 27.3631 17.4714C27.7761 17.1543 28.1561 17.1882 28.8344 17.6028Z" fill="white"/>
<path d="M82.504 19.912V37H79.768V26.392L75.232 37H73.192L68.632 26.512V37H65.896V19.912H68.344L74.224 33.28L80.056 19.912H82.504ZM97.4946 24.88L91.8546 37.816C91.2146 39.32 90.3986 40.416 89.4066 41.104C88.4146 41.792 87.1906 42.248 85.7346 42.472L85.0626 40.168C86.1986 39.912 87.0466 39.584 87.6066 39.184C88.1826 38.8 88.6466 38.224 88.9986 37.456L89.3826 36.568L84.3426 24.88H87.4866L90.9666 33.592L94.5186 24.88H97.4946ZM105.582 24.592C106.046 24.592 106.446 24.656 106.782 24.784L106.758 27.52C106.246 27.312 105.718 27.208 105.174 27.208C104.15 27.208 103.366 27.504 102.822 28.096C102.294 28.688 102.03 29.472 102.03 30.448V37H99.0539V28.312C99.0539 27.032 98.9899 25.888 98.8619 24.88H101.67L101.91 27.016C102.214 26.232 102.694 25.632 103.35 25.216C104.006 24.8 104.75 24.592 105.582 24.592ZM108.452 24.88H111.428V37H108.452V24.88ZM111.596 19.384V22.336H108.26V19.384H111.596ZM126.302 24.88V37H123.35V35.056C122.982 35.728 122.454 36.256 121.766 36.64C121.078 37.008 120.294 37.192 119.414 37.192C118.358 37.192 117.422 36.936 116.606 36.424C115.79 35.912 115.158 35.184 114.71 34.24C114.262 33.296 114.038 32.2 114.038 30.952C114.038 29.704 114.262 28.6 114.71 27.64C115.174 26.664 115.814 25.912 116.63 25.384C117.446 24.84 118.374 24.568 119.414 24.568C120.294 24.568 121.078 24.76 121.766 25.144C122.454 25.512 122.982 26.032 123.35 26.704V24.88H126.302ZM120.23 34.84C121.222 34.84 121.99 34.496 122.534 33.808C123.078 33.12 123.35 32.152 123.35 30.904C123.35 29.624 123.078 28.64 122.534 27.952C121.99 27.264 121.214 26.92 120.206 26.92C119.214 26.92 118.438 27.28 117.878 28C117.334 28.704 117.062 29.688 117.062 30.952C117.062 32.2 117.334 33.16 117.878 33.832C118.438 34.504 119.222 34.84 120.23 34.84ZM141.161 19.336V37H138.21V35.056C137.842 35.728 137.314 36.256 136.626 36.64C135.938 37.008 135.154 37.192 134.273 37.192C133.234 37.192 132.306 36.928 131.49 36.4C130.674 35.872 130.034 35.128 129.57 34.168C129.122 33.192 128.898 32.08 128.898 30.832C128.898 29.584 129.122 28.488 129.57 27.544C130.018 26.6 130.65 25.872 131.465 25.36C132.282 24.832 133.218 24.568 134.273 24.568C135.138 24.568 135.906 24.752 136.578 25.12C137.266 25.472 137.794 25.976 138.162 26.632V19.336H141.161ZM135.066 34.84C136.058 34.84 136.826 34.496 137.37 33.808C137.93 33.12 138.21 32.144 138.21 30.88C138.21 29.616 137.938 28.64 137.394 27.952C136.85 27.264 136.082 26.92 135.09 26.92C134.082 26.92 133.298 27.264 132.738 27.952C132.194 28.624 131.922 29.584 131.922 30.832C131.922 32.096 132.194 33.08 132.738 33.784C133.298 34.488 134.074 34.84 135.066 34.84Z" fill="white"/>
</svg>
