<svg width="221" height="48" viewBox="0 14 221 58" fill="none" xmlns="http://www.w3.org/2000/svg">
<path fill-rule="evenodd" clip-rule="evenodd" d="M23.8649 15.8272C20.7578 16.4075 19.2623 16.899 16.9857 18.0885C12.4282 20.4698 8.84638 24.5844 7.23212 29.293C6.13761 32.4853 6.23683 30.5089 6.17452 50.3638C6.13527 62.8834 6.16577 68.3234 6.27739 68.7287C6.50488 69.555 7.25547 70.4338 8.15635 70.9287C8.84099 71.3048 9.06672 71.3546 10.005 71.3372C11.1211 71.3165 11.1097 71.3206 13.4319 70.0731C13.8733 69.836 14.8911 69.2582 15.6936 68.7892C16.4962 68.3202 17.4483 67.7736 17.8094 67.5745C19.1365 66.843 22.9424 64.6954 26.5643 62.6347C27.3267 62.2008 28.3117 61.6528 28.7531 61.4168C29.1945 61.1807 29.5775 60.9353 29.6042 60.8715C29.631 60.8076 29.7144 60.7554 29.7895 60.7554C29.8646 60.7554 30.2039 60.5826 30.5434 60.3716C30.8828 60.1604 31.5218 59.7993 31.9632 59.5691C32.4046 59.3388 33.3895 58.7992 34.1519 58.3698C34.9143 57.9403 35.6366 57.5338 35.757 57.4665C35.8774 57.399 36.337 57.1383 36.7784 56.8872C37.2198 56.6362 37.8764 56.2715 38.2376 56.077C38.5987 55.8824 38.9599 55.6748 39.0401 55.6155C39.2168 55.4851 42.9671 53.3734 43.5152 53.0955C43.9159 52.8925 44.2216 53.0303 46.5548 54.4666C46.7554 54.5902 47.1165 54.7875 47.3573 54.9052C47.5981 55.023 48.4188 55.4814 49.1812 55.9242C49.9436 56.3668 51.2897 57.1309 52.1725 57.6223C53.0553 58.1136 53.9746 58.6267 54.2153 58.7624C55.3164 59.383 59.912 61.9962 60.3228 62.2351C60.5751 62.3819 61.077 62.6583 61.4381 62.8492C62.1301 63.215 62.2154 63.2641 63.4438 64.0015C63.8687 64.2565 64.2489 64.4653 64.2889 64.4653C64.329 64.4653 64.7941 64.7221 65.3224 65.036C65.8509 65.3499 66.3011 65.6068 66.3228 65.6068C66.3446 65.6068 67.0766 66.012 67.9495 66.5074C68.8223 67.0028 70.4229 67.9097 71.5063 68.523C72.5897 69.1362 73.5418 69.6855 73.6221 69.7434C73.7023 69.8015 74.4095 70.1786 75.1936 70.5815C76.5309 71.2688 76.685 71.3142 77.6832 71.3142C79.3344 71.3142 80.3527 70.7117 81.1796 69.2453L81.5015 68.6745V50.91C81.5015 31.765 81.5491 33.1842 80.8207 30.5771C79.7003 26.5672 77.4836 23.2252 73.9139 20.1641C72.8374 19.241 69.8373 17.5507 68.2232 16.9577C67.3953 16.6536 66.8608 16.4831 66.3993 16.3758C66.1184 16.3106 65.6259 16.1947 65.3049 16.1185C62.4787 15.4471 58.5331 15.5191 55.5776 16.2965C53.5373 16.833 50.3596 18.2426 48.4517 19.4576C47.576 20.0152 47.3566 20.1416 46.3732 20.6556C45.9123 20.8966 45.2265 21.2851 44.849 21.5191C44.0475 22.0162 43.8706 22.0338 43.193 21.6835C42.1411 21.1398 40.897 20.4551 39.7697 19.7994C39.1277 19.426 38.3725 18.9965 38.0917 18.845C37.8108 18.6935 37.1541 18.3383 36.6325 18.0558C34.8903 17.1119 32.3483 16.2574 30.2852 15.9218C29.076 15.725 24.7531 15.6614 23.8649 15.8272ZM30.0663 19.8592C31.4153 20.1684 31.9527 20.3151 32.6379 20.5614C33.3967 20.8342 35.4283 21.823 36.4838 22.4334C39.0143 23.8967 39.4779 24.195 39.4779 24.3598C39.4779 24.5556 39.4678 24.5619 36.2403 26.3573C35.0515 27.0187 33.5209 27.8945 32.8387 28.3036C32.1565 28.7127 31.1059 29.3002 30.504 29.6094C29.9021 29.9186 28.7202 30.576 27.8776 31.0703C27.0349 31.5645 26.05 32.1314 25.6888 32.3302C25.3277 32.5288 24.7872 32.8417 24.4879 33.0255C24.1885 33.2093 23.9174 33.3595 23.8855 33.3595C23.7099 33.3595 22.0437 34.4307 21.635 34.8062C20.1626 36.1593 20.1284 38.5904 21.5602 40.1499C21.8072 40.419 23.6936 41.6354 23.8639 41.6354C23.9073 41.6354 24.4723 41.9564 25.1193 42.3488C25.7663 42.7412 26.3171 43.0622 26.3434 43.0622C26.4092 43.0622 29.9577 45.0577 30.1393 45.1967C30.2195 45.2582 30.712 45.5309 31.2336 45.8025C31.7553 46.0744 33.0014 46.7661 34.0027 47.3398C35.0041 47.9136 36.0218 48.4933 36.2644 48.628C36.507 48.7629 37.2894 49.203 38.0031 49.6061C38.7169 50.0094 39.3619 50.3393 39.4366 50.3393C39.8302 50.3393 39.3652 50.8743 38.5513 51.3582C38.0416 51.661 37.5992 51.9088 37.5681 51.9088C37.537 51.9088 36.805 52.3172 35.9412 52.8164C35.0775 53.3156 33.4187 54.255 32.255 54.9041C31.0914 55.5532 29.5654 56.4289 28.8641 56.8502C28.1627 57.2716 27.528 57.6163 27.4535 57.6163C27.3791 57.6163 27.2964 57.6644 27.2695 57.7233C27.2428 57.7821 26.7285 58.084 26.1266 58.3942C25.5247 58.7043 24.5726 59.2325 24.0108 59.5681C23.449 59.9036 22.5954 60.3806 22.1139 60.6278C21.6324 60.8753 21.2056 61.1174 21.1655 61.1662C21.0928 61.2545 20.8974 61.368 19.878 61.9147C19.5829 62.073 19.0437 62.3745 18.6798 62.5846C18.3157 62.795 17.5606 63.2166 17.0017 63.5217C16.4427 63.8267 15.7556 64.2204 15.4747 64.3966C15.1939 64.5727 14.6029 64.907 14.1615 65.1395C13.7201 65.3717 12.9322 65.8169 12.4105 66.1287C11.8889 66.4403 11.3636 66.739 11.2432 66.7923C11.1228 66.8456 10.9184 66.964 10.7888 67.0555C10.6592 67.1469 10.4428 67.1803 10.3079 67.1296C10.0795 67.0439 10.0662 65.8703 10.117 50.1629C10.1764 31.7977 10.1131 33.1893 11.0061 30.6081C12.3449 26.7382 15.078 23.5896 18.8746 21.5435C20.7125 20.5528 21.4395 20.3048 24.0108 19.791C25.5747 19.4785 28.5517 19.5119 30.0663 19.8592ZM63.7728 19.8004C65.7892 20.2398 66.1422 20.3416 67.2825 20.8137C70.0073 21.9415 72.5483 23.9055 74.3286 26.2602C75.0836 27.2585 76.6134 30.0863 76.6134 30.4833C76.6134 30.5897 76.7063 30.8791 76.82 31.1263C76.9336 31.3736 77.0593 31.7686 77.0991 32.004C77.6553 35.2852 77.6375 34.6025 77.5989 51.1628L77.5618 67.105L77.2517 67.1482C77.0812 67.172 76.8395 67.0917 76.7149 66.9698C76.5903 66.848 76.4496 66.7482 76.4024 66.7482C76.3552 66.7482 75.8416 66.4664 75.2612 66.122C74.6807 65.7774 73.8118 65.2927 73.3303 65.0446C72.8487 64.7964 71.7981 64.2093 70.9956 63.7396C70.1931 63.27 69.438 62.8445 69.3176 62.7941C69.1972 62.7437 69.0659 62.6657 69.0257 62.6207C68.9397 62.5243 68.5769 62.3224 67.4487 61.7431C66.9918 61.5085 66.2011 61.0619 65.6916 60.7505C65.1819 60.4393 64.7379 60.1847 64.705 60.1847C64.6721 60.1847 64.137 59.876 63.5158 59.4989C62.8948 59.1216 62.1568 58.702 61.8759 58.5662C61.595 58.4302 61.063 58.1449 60.6938 57.9321C60.3245 57.7192 59.4709 57.2375 58.7969 56.8616C57.5027 56.1399 57.2123 55.972 56.6235 55.6048C56.4226 55.4794 55.897 55.1845 55.4556 54.9493C54.4978 54.4391 50.5609 52.2085 49.0718 51.3324C48.4899 50.9901 48.0139 50.6636 48.0139 50.6067C48.0139 50.5499 48.3914 50.2979 48.8529 50.0466C49.3145 49.7953 49.9546 49.4465 50.2756 49.2714C50.5966 49.0962 51.2204 48.7422 51.6618 48.4846C52.9927 47.708 56.2047 45.9014 57.0607 45.4481C57.5021 45.2144 58.487 44.6578 59.2494 44.2111C61.3582 42.9758 62.3224 42.4217 63.0432 42.0308C64.6394 41.1651 65.6205 40.5675 65.9261 40.2753C66.4344 39.7887 66.9829 38.9412 66.9829 38.6419C66.9829 38.4935 67.0484 38.2035 67.1287 37.9973C67.2953 37.5685 67.1153 36.6379 66.6826 35.6927C66.3092 34.8769 65.5934 34.3566 62.3866 32.5709C60.8618 31.7219 58.9725 30.6531 58.188 30.1957C57.4037 29.7384 56.7401 29.3643 56.7134 29.3643C56.6698 29.3643 55.9088 28.9385 53.2304 27.4156C51.5007 26.4322 50.5523 25.8966 50.0567 25.6232C47.9376 24.4543 48.013 24.5104 48.1881 24.2363C48.2796 24.093 48.6225 23.8412 48.9502 23.6764C49.6384 23.3304 50.4935 22.8596 51.2241 22.4247C54.5343 20.4538 57.5301 19.5562 60.8545 19.5389C61.9964 19.5329 62.9287 19.6165 63.7728 19.8004ZM45.1357 27.3473C45.6353 27.6506 47.0186 28.4371 48.2099 29.0952C49.401 29.7533 50.5829 30.4118 50.8364 30.5586C51.0897 30.7053 51.7238 31.054 52.2455 31.3335C52.7671 31.613 53.8663 32.2476 54.6879 32.7434C55.5097 33.2393 56.2228 33.6449 56.2726 33.6449C56.3225 33.6449 57.0618 34.0538 57.9157 34.5535C58.7696 35.0532 59.6981 35.5854 59.979 35.7363C61.4533 36.5279 62.8973 37.4076 62.8973 37.5139C62.8973 37.5801 62.6511 37.7671 62.3501 37.9296C62.0492 38.092 61.1049 38.623 60.2516 39.1097C59.3982 39.5962 57.9865 40.3997 57.1144 40.8951C56.2422 41.3905 55.4301 41.8547 55.3097 41.9266C55.1158 42.0426 52.9518 43.2477 51.7177 43.9272C51.4676 44.0649 50.8206 44.4403 50.2801 44.7613C49.7397 45.0825 49.2717 45.3452 49.2402 45.3452C49.1434 45.3452 44.5936 47.9297 44.4463 48.0684C44.2294 48.2726 43.4577 48.2024 43.0216 47.9388C42.5745 47.6687 37.697 44.918 36.5673 44.299C36.1618 44.0769 35.239 43.5536 34.5167 43.1363C33.7944 42.7189 32.9737 42.2526 32.6928 42.0998C32.0369 41.7432 27.4639 39.164 25.418 37.9969C25.0054 37.7614 24.6677 37.5334 24.6676 37.4902C24.6674 37.4215 25.4309 36.9778 27.2939 35.9634C27.5748 35.8105 28.2314 35.4308 28.7531 35.1196C29.2747 34.8084 29.8 34.509 29.9204 34.4542C30.0408 34.3994 30.4019 34.2054 30.7229 34.023C31.0439 33.8407 32.3572 33.0936 33.6412 32.3627C34.9253 31.6319 36.1729 30.9249 36.4136 30.7916C36.8959 30.5245 39.3457 29.1381 39.963 28.783C40.1777 28.6594 40.813 28.315 41.3748 28.0176C41.9365 27.7201 42.5932 27.3266 42.8339 27.1431C43.48 26.6505 44.0745 26.7032 45.1357 27.3473Z" fill="#7342CC"/>
<path d="M129.099 30.9339V57.4813H124.819V41.0011L117.722 57.4813H114.531L107.397 41.1875V57.4813H103.117V30.9339H106.946L116.145 51.7021L125.269 30.9339H129.099Z" fill="black"/>
<path d="M152.551 38.6521L143.728 58.7491C142.726 61.0856 141.45 62.7883 139.898 63.8572C138.346 64.9261 136.431 65.6345 134.153 65.9825L133.102 62.4031C134.879 62.0053 136.206 61.4958 137.082 60.8743C137.983 60.2778 138.709 59.3829 139.26 58.1898L139.86 56.8102L131.976 38.6521H136.894L142.338 52.1868L147.895 38.6521H152.551Z" fill="black"/>
<path d="M165.203 38.2046C165.929 38.2046 166.555 38.3041 167.081 38.5029L167.043 42.7535C166.242 42.4303 165.416 42.2688 164.565 42.2688C162.963 42.2688 161.736 42.7286 160.885 43.6483C160.059 44.5681 159.646 45.7861 159.646 47.3023V57.4813H154.991V43.9839C154.991 41.9953 154.89 40.2181 154.69 38.6521H159.083L159.459 41.9705C159.934 40.7525 160.685 39.8203 161.711 39.1741C162.738 38.5278 163.902 38.2046 165.203 38.2046Z" fill="black"/>
<path d="M169.694 38.6521H174.35V57.4813H169.694V38.6521ZM174.613 30.1136V34.6998H169.394V30.1136H174.613Z" fill="black"/>
<path d="M197.619 38.6521V57.4813H193.001V54.4612C192.425 55.5052 191.599 56.3255 190.523 56.9221C189.446 57.4938 188.22 57.7796 186.843 57.7796C185.191 57.7796 183.727 57.3819 182.45 56.5865C181.174 55.7911 180.185 54.6601 179.484 53.1935C178.783 51.7269 178.433 50.0242 178.433 48.0853C178.433 46.1465 178.783 44.4313 179.484 42.9399C180.21 41.4236 181.211 40.2553 182.488 39.4351C183.764 38.5899 185.216 38.1673 186.843 38.1673C188.22 38.1673 189.446 38.4656 190.523 39.0622C191.599 39.6339 192.425 40.4418 193.001 41.4858V38.6521H197.619ZM188.12 54.1256C189.672 54.1256 190.873 53.5912 191.724 52.5223C192.575 51.4535 193.001 49.9496 193.001 48.0108C193.001 46.0222 192.575 44.4935 191.724 43.4246C190.873 42.3558 189.659 41.8213 188.082 41.8213C186.53 41.8213 185.316 42.3806 184.44 43.4992C183.589 44.5929 183.164 46.1216 183.164 48.0853C183.164 50.0242 183.589 51.5156 184.44 52.5596C185.316 53.6036 186.543 54.1256 188.12 54.1256Z" fill="black"/>
<path d="M220.866 30.0391V57.4813H216.248V54.4612C215.672 55.5052 214.846 56.3255 213.77 56.9221C212.693 57.4938 211.467 57.7796 210.09 57.7796C208.463 57.7796 207.011 57.3695 205.735 56.5492C204.458 55.7289 203.457 54.5731 202.731 53.0816C202.03 51.5653 201.679 49.8378 201.679 47.8989C201.679 45.9601 202.03 44.2573 202.731 42.7908C203.432 41.3242 204.42 40.1932 205.697 39.3978C206.974 38.5775 208.438 38.1673 210.09 38.1673C211.442 38.1673 212.643 38.4532 213.694 39.0249C214.771 39.5718 215.597 40.3548 216.173 41.3739V30.0391H220.866ZM211.329 54.1256C212.881 54.1256 214.082 53.5912 214.934 52.5223C215.81 51.4535 216.248 49.9372 216.248 47.9735C216.248 46.0098 215.822 44.4935 214.971 43.4246C214.12 42.3558 212.918 41.8213 211.367 41.8213C209.79 41.8213 208.563 42.3558 207.687 43.4246C206.836 44.4686 206.41 45.9601 206.41 47.8989C206.41 49.8626 206.836 51.3913 207.687 52.4851C208.563 53.5788 209.777 54.1256 211.329 54.1256Z" fill="black"/>
</svg>
