<svg width="266" height="200" viewBox="0 0 266 200" fill="none" xmlns="http://www.w3.org/2000/svg">
<path d="M125.76 192.877L10.6144 124.858C6.94576 122.802 3.80125 119.418 7.37697 117.203L122.941 50.6108C124.672 49.5361 127.306 48.8329 129.071 49.8545L249.935 120.002C253.604 122.132 254.261 128.076 250.599 130.205L140.939 192.804C138.634 194.134 136.021 194.841 133.359 194.853C130.698 194.866 128.079 194.185 125.76 192.877Z" fill="#FFD24D"/>
<path d="M103.862 132.625L133.416 121.434L157.889 132.632L130.325 149.383C124.095 145.329 109.899 136.937 103.862 132.625Z" fill="url(#paint0_linear_2932:19733)"/>
<path d="M71.4613 148.209L99.6623 134.277L120.977 147.22L93.4131 162.087C87.1904 158.06 77.4982 152.521 71.4613 148.209Z" fill="url(#paint1_linear_2932:19733)"/>
<path d="M145.517 116.896L125.714 124.327C125.714 124.327 124.885 124.864 125.416 126.151C125.721 126.887 127.359 127.949 127.359 127.949L144.455 137.9C145.39 138.316 146.383 138.585 147.401 138.696C148.767 138.775 151.056 137.667 151.056 137.667L166.977 128.446L145.517 116.896Z" fill="#34323D"/>
<path d="M145.238 115.975L126.318 123.71C126.318 123.71 124.991 124.433 125.342 125.415C125.721 126.145 126.31 126.743 127.034 127.133L144.176 136.984C145.111 137.401 146.105 137.67 147.122 137.781C148.488 137.86 150.777 136.752 150.777 136.752L165.85 128.181L145.238 115.975Z" fill="#68E1FD"/>
<path opacity="0.45" d="M145.238 115.975L126.318 123.71C126.318 123.71 124.991 124.433 125.342 125.415C125.721 126.145 126.31 126.743 127.034 127.133L144.176 136.984C145.111 137.401 146.105 137.67 147.122 137.781C148.488 137.86 150.777 136.752 150.777 136.752L165.85 128.181L145.238 115.975Z" fill="#06577A"/>
<path d="M189.984 142.013C190.345 142.167 190.746 142.2 191.127 142.108C191.508 142.016 191.849 141.804 192.1 141.502C192.1 141.502 192.472 141.429 192.472 139.804V64.3689C192.452 63.7164 192.294 63.0754 192.01 62.4878C191.725 61.9003 191.32 61.3794 190.82 60.959C188.971 59.6643 187.043 58.4857 185.048 57.4298L101.235 9.04809L100.293 8.57045C99.9752 8.41283 99.6119 8.37434 99.2685 8.462C98.9252 8.54966 98.6248 8.75763 98.4218 9.04809C98.1762 9.46607 98.0351 9.93715 98.0105 10.4213C97.9773 11.2108 98.0105 18.8332 98.0105 18.8332V86.6989C98.0104 87.3504 98.146 87.9949 98.4087 88.5911C98.6714 89.1873 99.0554 89.7223 99.5363 90.1619L189.984 142.013Z" fill="#68E1FD"/>
<path d="M190.933 130.582V65.5024C190.933 63.3397 190.634 62.1323 188.942 61.2301L100.545 10.0157C100.371 9.88634 100.164 9.80799 99.948 9.78944C99.7319 9.77088 99.515 9.81286 99.3214 9.91066C99.1279 10.0085 98.9654 10.1582 98.8522 10.3432C98.739 10.5281 98.6795 10.7409 98.6805 10.9577L98.8994 77.8814L190.933 130.582Z" fill="white"/>
<path d="M201.182 129.853L219.917 121.461L230.199 129.09L214.457 138.218C210.675 135.77 204.824 132.434 201.182 129.853Z" fill="url(#paint2_linear_2932:19733)"/>
<path d="M184.849 66.1129V88.5822L168.59 79.1553L168.702 56.7324L184.849 66.1129Z" fill="#7342CC"/>
<path d="M164.549 54.8961V77.3654L148.29 67.9319L148.402 45.5156L164.549 54.8961Z" fill="#FFD24D"/>
<path d="M143.878 43.0875V65.5568L127.618 56.1233L127.724 33.707L143.878 43.0875Z" fill="#7342CC"/>
<path d="M122.304 30.814V53.2834L106.044 43.8565L106.15 21.4336L122.304 30.814Z" fill="#FFD24D"/>
<path d="M185.354 93.9369L148.794 73.1725C148.567 73.0509 148.301 73.0221 148.053 73.0923C147.805 73.1624 147.594 73.326 147.464 73.5486C147.335 73.7712 147.296 74.0355 147.357 74.2858C147.418 74.5361 147.574 74.753 147.792 74.8907L184.352 95.6551C184.579 95.7768 184.845 95.8055 185.092 95.7354C185.34 95.6653 185.552 95.5017 185.681 95.2791C185.811 95.0565 185.849 94.7922 185.788 94.5419C185.727 94.2915 185.571 94.0747 185.354 93.9369Z" fill="#FBB03B"/>
<path d="M184.637 100.126L148.077 79.362C147.85 79.2404 147.585 79.2116 147.337 79.2817C147.089 79.3519 146.878 79.5154 146.748 79.738C146.618 79.9607 146.58 80.2249 146.641 80.4753C146.702 80.7256 146.858 80.9424 147.076 81.0802L183.635 101.845C183.863 101.966 184.128 101.995 184.376 101.925C184.624 101.855 184.835 101.691 184.965 101.469C185.095 101.246 185.133 100.982 185.072 100.731C185.011 100.481 184.855 100.264 184.637 100.126Z" fill="#FBB03B"/>
<path d="M184.213 106.037L147.653 85.2721C147.425 85.1505 147.16 85.1217 146.912 85.1919C146.664 85.262 146.453 85.4256 146.323 85.6482C146.193 85.8708 146.155 86.1351 146.216 86.3854C146.277 86.6357 146.433 86.8526 146.651 86.9903L183.211 107.755C183.438 107.876 183.703 107.905 183.951 107.835C184.199 107.765 184.41 107.601 184.54 107.379C184.67 107.156 184.708 106.892 184.647 106.641C184.586 106.391 184.43 106.174 184.213 106.037Z" fill="#FBB03B"/>
<path d="M135.318 82.4693C138.727 81.5609 140.484 77.0475 139.243 72.3885C138.001 67.7294 134.231 64.6889 130.822 65.5973C127.413 66.5058 125.655 71.0191 126.897 75.6782C128.138 80.3372 131.908 83.3777 135.318 82.4693Z" fill="#06577A"/>
<path d="M113.261 71.9635C116.671 71.055 118.428 66.5417 117.187 61.8826C115.945 57.2235 112.175 54.183 108.766 55.0915C105.356 55.9999 103.599 60.5133 104.84 65.1723C106.082 69.8314 109.852 72.8719 113.261 71.9635Z" fill="#FB9C4D"/>
<path d="M102.217 136.168C102.217 136.168 106.23 134.383 107.199 134.31C108.167 134.237 109.779 134.569 108.373 136.34C108.373 136.34 104.154 139.1 103.596 139.186C103.039 139.272 101.686 138.848 101.653 138.994C101.619 139.14 101.493 140.208 101.493 140.208C101.493 140.208 97.9642 141.534 97.8116 139.193C97.8116 138.887 98.3224 134.502 98.3224 134.502" fill="#E55600"/>
<path d="M97.6125 125.82C98.3091 121.282 99.6027 116.884 100.12 112.293C100.452 109.407 100.691 106.501 101.049 103.616C101.407 100.73 102.482 97.9369 103.172 95.0777C103.19 95.0112 103.185 94.9406 103.159 94.877C103.132 94.8134 103.086 94.7603 103.026 94.7261C103.026 94.6266 103.086 94.5271 103.119 94.4276C103.477 94.0892 103.842 93.7641 104.193 93.459L109.129 96.776C109.129 96.776 109.129 99.7944 108.943 104.18C108.373 106.734 107.935 109.009 107.285 111.43C107.354 111.508 107.403 111.601 107.43 111.701C107.456 111.801 107.459 111.906 107.437 112.008C105.832 119.63 104.663 127.338 103.935 135.094C103.926 135.222 103.879 135.345 103.802 135.448C103.724 135.55 103.618 135.628 103.497 135.671L103.358 136.865C99.0654 138.524 98.1234 135.638 98.1234 135.638C98.1234 135.638 97.931 133.177 97.6855 129.767C97.5993 128.44 97.5794 127.133 97.6125 125.82Z" fill="#34323D"/>
<path d="M128.036 78.5258L128.149 78.5656C128.096 78.4967 128.059 78.4162 128.043 78.3306C128.027 78.245 128.032 78.1569 128.056 78.0733C128.081 77.9898 128.125 77.9133 128.185 77.8501C128.245 77.7869 128.319 77.7389 128.401 77.7098C128.64 77.6302 128.885 77.5639 129.131 77.4843C129.15 77.4554 129.172 77.4288 129.197 77.4047C129.276 77.3337 129.363 77.2714 129.456 77.2189C129.499 77.1531 129.558 77.0991 129.628 77.062C129.697 77.0249 129.775 77.0059 129.854 77.0066H130.039C130.245 76.9602 130.457 76.9204 130.703 76.8739L131.452 76.7081C131.475 76.6397 131.511 76.5765 131.559 76.5223C132.592 75.2807 133.534 73.966 134.378 72.5884C134.683 72.124 135.546 72.4026 135.333 72.9864C135.137 73.645 134.882 74.2844 134.57 74.897C135.678 73.7692 136.282 73.5171 137.29 72.2965C137.722 71.779 138.451 72.522 138.027 73.0329C137.768 73.3447 136.746 74.1341 136.488 74.4393C136.985 73.9815 138.246 73.0395 138.75 72.5884C139.254 72.1373 139.99 72.8803 139.486 73.3248C138.681 74.0412 137.887 74.7688 137.105 75.5073C137.814 75.0695 138.511 74.6118 139.188 74.1208C139.732 73.7228 140.249 74.6317 139.712 75.0231C138.936 75.5869 138.133 76.111 137.31 76.602C137.829 76.4945 138.339 76.3481 138.836 76.1641C139.46 75.9186 139.732 76.927 139.115 77.1725C138.604 77.3715 138.073 77.5373 137.549 77.7032L136.76 77.9553C136.45 78.0384 136.155 78.1682 135.884 78.3401C134.857 78.9725 133.738 79.4404 132.567 79.7266L132.348 79.8592C132.279 79.8982 132.202 79.9187 132.123 79.9187C132.043 79.9187 131.966 79.8982 131.897 79.8592C130.513 80.1343 129.08 80.0195 127.757 79.5275C127.14 79.302 127.373 78.2936 128.036 78.5258Z" fill="#FCBF81"/>
<path d="M112.711 70.0733C112.904 69.859 113.113 69.6595 113.335 69.4763C113.331 69.4915 113.331 69.5075 113.335 69.5227C113.331 69.5435 113.333 69.5651 113.342 69.5845C113.35 69.6038 113.365 69.6199 113.384 69.6303C113.402 69.6406 113.424 69.6448 113.445 69.6422C113.466 69.6395 113.485 69.6302 113.501 69.6156L113.912 69.3038C113.888 69.3539 113.872 69.4077 113.866 69.463C113.852 69.5706 113.879 69.6795 113.941 69.768C114.004 69.8566 114.098 69.9182 114.204 69.9407C114.265 69.9587 114.329 69.9628 114.392 69.9527C114.455 69.9425 114.515 69.9184 114.567 69.8821C114.619 69.8458 114.662 69.7983 114.694 69.7429C114.725 69.6876 114.744 69.626 114.748 69.5625L114.921 69.463C114.914 69.507 114.914 69.5517 114.921 69.5957C114.92 69.6591 114.935 69.7217 114.964 69.7777C114.994 69.8338 115.037 69.8815 115.09 69.9166C115.143 69.9516 115.203 69.9727 115.267 69.9781C115.33 69.9835 115.393 69.9729 115.451 69.9473L115.63 69.8677C115.661 69.8984 115.697 69.9224 115.737 69.9384C115.777 69.9544 115.82 69.9619 115.863 69.9606C116.252 69.9664 116.642 69.9486 117.03 69.9075C117.01 69.8892 116.995 69.8663 116.986 69.8407C116.977 69.8152 116.974 69.7878 116.978 69.7609C116.982 69.7341 116.992 69.7086 117.008 69.6867C117.024 69.6649 117.046 69.6473 117.07 69.6355C117.574 69.4582 118.091 69.3185 118.616 69.2176H118.675L118.715 69.1844C118.933 68.8908 119.035 68.5268 119 68.1627C119.15 68.0726 119.276 67.9501 119.372 67.8043C119.467 67.6584 119.528 67.493 119.551 67.3202C119.518 67.3047 119.49 67.2792 119.471 67.2473C119.427 67.1711 119.396 67.0882 119.379 67.0018C119.336 66.878 119.316 66.7478 119.319 66.617C119.32 66.5857 119.331 66.5556 119.35 66.5306C119.369 66.5057 119.395 66.4872 119.425 66.4777C119.339 66.2057 119.226 65.9337 119.12 65.6883C119.772 65.1394 120.247 64.4101 120.486 63.5919C120.51 63.5156 120.509 63.4335 120.483 63.358C120.456 63.2825 120.406 63.2176 120.34 63.1728C120.273 63.1281 120.194 63.106 120.114 63.1098C120.034 63.1136 119.958 63.1431 119.896 63.1939C119.646 63.4001 119.409 63.6217 119.186 63.8573C119.134 63.8693 119.086 63.8944 119.047 63.9303C117.861 65.103 116.612 66.2104 115.305 67.2473C115.086 67.4197 112.506 69.1977 112.652 69.3237C112.599 69.3502 110.005 72.1365 112.711 70.0733ZM114.098 69.4099C114.102 69.4237 114.109 69.4364 114.119 69.4471C114.129 69.4578 114.141 69.4663 114.154 69.472C114.167 69.4777 114.181 69.4804 114.196 69.48C114.21 69.4796 114.224 69.4761 114.237 69.4696C114.269 69.5159 114.31 69.5547 114.358 69.5834C114.406 69.612 114.46 69.6298 114.516 69.6355C114.49 69.6944 114.442 69.7408 114.383 69.7645C114.323 69.7881 114.256 69.7871 114.197 69.7615C114.138 69.736 114.092 69.6881 114.068 69.6284C114.045 69.5687 114.046 69.5021 114.071 69.4431L114.098 69.4099Z" fill="#FCBF81"/>
<path d="M113.169 69.3778C113.654 69.2207 114.104 68.9731 114.496 68.6481C114.573 68.579 114.663 68.5261 114.761 68.4923C114.859 68.4585 114.962 68.4446 115.065 68.4514C115.168 68.4582 115.269 68.4855 115.362 68.5319C115.454 68.5782 115.537 68.6425 115.604 68.7211C115.698 68.5389 115.78 68.3505 115.849 68.1572C115.93 67.967 116.08 67.8146 116.269 67.7306C116.457 67.6466 116.671 67.6374 116.866 67.7047C117.062 67.7721 117.224 67.911 117.321 68.0935C117.418 68.276 117.442 68.4884 117.388 68.6879C117.148 69.4777 116.668 70.1732 116.015 70.6781C115.342 71.1014 114.598 71.4003 113.819 71.5604C113.684 71.5834 113.545 71.5727 113.415 71.5292C113.284 71.4858 113.167 71.4109 113.072 71.3112C112.978 71.2115 112.91 71.0901 112.873 70.9577C112.837 70.8253 112.834 70.686 112.864 70.5521L112.818 70.4725C112.722 70.2802 112.705 70.0581 112.77 69.8535C112.836 69.649 112.979 69.4782 113.169 69.3778Z" fill="#FCBF81"/>
<path d="M115.431 70.8104C116.22 70.6206 116.911 70.1486 117.375 69.4836C117.378 69.4959 117.382 69.5077 117.389 69.5181C117.396 69.5285 117.405 69.5374 117.416 69.5442C117.426 69.551 117.438 69.5556 117.451 69.5578C117.463 69.5599 117.476 69.5595 117.488 69.5566L118.244 69.3642C118.4 69.3346 118.55 69.2809 118.689 69.205C119.014 68.9993 118.921 68.6013 118.921 68.2696C118.927 68.2501 118.927 68.2293 118.921 68.2099L119.054 68.0971C119.283 67.9316 119.456 67.7002 119.551 67.4337C119.604 67.1551 119.418 66.8897 119.379 66.6177C119.443 66.4918 119.466 66.3486 119.443 66.2089C119.42 66.0693 119.354 65.9406 119.253 65.8415C118.981 65.5762 118.709 65.7619 118.45 65.941C117.893 66.3214 117.349 66.7216 116.818 67.1418C116.712 67.2214 116.818 67.374 116.951 67.2944C117.238 67.0688 117.53 66.8477 117.826 66.631C118.099 66.3653 118.41 66.1417 118.748 65.9676C119.571 65.815 119.1 66.7106 118.908 66.9162C118.715 67.1219 118.662 67.1418 118.536 67.2479L117.694 67.9777C117.683 67.9866 117.674 67.9978 117.669 68.0104C117.663 68.023 117.66 68.0368 117.66 68.0507C117.613 68.6638 117.369 69.2453 116.966 69.709C116.562 70.1727 116.019 70.4938 115.418 70.6246C115.252 70.6711 115.292 70.8701 115.431 70.8104ZM117.932 68.1568C117.917 68.146 117.898 68.1401 117.879 68.1401C117.86 68.1401 117.842 68.146 117.826 68.1568C117.826 68.1568 117.826 68.1104 117.826 68.0905C118.341 67.7264 118.808 67.3009 119.219 66.8234C119.219 66.903 119.272 66.9759 119.299 67.0622C119.337 67.1793 119.339 67.3051 119.304 67.4233C119.27 67.5416 119.201 67.6468 119.107 67.7256C118.861 67.9976 118.251 68.6013 117.913 68.2099L117.932 68.1568ZM117.455 69.3045C117.631 69.0017 117.751 68.6688 117.806 68.3226C118.078 68.6013 118.43 68.4885 118.728 68.3226C118.742 68.4639 118.742 68.606 118.728 68.7472C118.728 68.9595 118.563 69.0457 118.37 69.0988C118.085 69.2116 117.747 69.2779 117.422 69.3575L117.455 69.3045Z" fill="#34323D"/>
<path d="M103.643 75.0298C103.961 74.5323 114.516 68.1437 115.159 67.3477C115.844 68.2202 116.249 69.279 116.323 70.3855C116.396 71.4921 116.134 72.5951 115.571 73.5504C115.571 73.5504 109.653 80.483 106.575 81.0999" fill="#7342CC"/>
<path d="M111 142.77L113.388 143.625C113.46 143.842 113.586 144.036 113.754 144.189C113.923 144.343 114.128 144.45 114.35 144.501C114.434 144.602 114.552 144.668 114.682 144.687C115.649 144.756 116.618 144.599 117.514 144.229C118.655 143.871 123.114 142.166 121.88 145.363C121.064 145.934 120.155 146.431 119.325 146.936C118.854 147.221 118.39 147.506 117.906 147.772C117.65 147.945 117.368 148.075 117.07 148.156C116.407 148.256 114.874 147.772 114.834 147.937C114.794 148.103 114.649 149.331 114.649 149.331C114.649 149.331 110.589 150.883 110.409 148.163C110.39 147.805 111 142.77 111 142.77Z" fill="#E55600"/>
<path d="M107.643 118.363C107.145 110.343 106.873 102.269 105.175 94.3882C105.102 92.3383 103.775 93.6452 103.848 92.8358C104.571 86.235 114.184 94.0897 114.184 94.0897C114.576 94.4081 114.622 96.4315 114.702 96.8892C115.144 99.4234 115.515 101.966 115.816 104.518C117.408 117.402 116.818 130.225 116.168 143.148C114.124 145.238 112.791 145.861 109.501 144.515C108.837 136.056 108.22 127.598 107.676 119.126L107.643 118.363Z" fill="#34323D"/>
<path d="M102.163 88.0582C101.793 84.0891 101.706 80.0985 101.905 76.117C101.978 75.0755 102.263 72.5148 103.304 71.9111C105.593 70.5843 108.777 71.7718 110.708 73.1914C113.282 75.0888 114.768 92.7352 114.775 97.0738C111.232 98.4736 106.601 99.0043 102.979 97.505C102.661 97.3723 102.588 93.0403 102.541 92.503C102.449 91.017 102.316 89.531 102.163 88.0582Z" fill="#7342CC"/>
<path d="M109.534 82.2731C109.643 83.5217 110.132 84.7067 110.937 85.6678C111.741 86.6289 112.822 87.3196 114.032 87.6466C114.032 87.892 114.111 89.4179 114.131 89.6368C111.239 88.9734 109.109 85.3181 108.824 82.2465C108.764 81.8087 109.461 81.8153 109.534 82.2731Z" fill="#34323D"/>
<path d="M109.613 64.3294C109.839 64.4356 110.94 69.3779 109.653 72.0116C108.366 74.6453 104.173 70.8904 103.391 68.5553C102.608 66.2201 105.374 62.3326 109.613 64.3294Z" fill="#FCBF81"/>
<path d="M109.461 64.9522C109.377 65.3763 109.172 65.7671 108.871 66.0769C108.569 66.3867 108.184 66.6021 107.762 66.6969C106.349 66.9357 105.195 67.0551 105.149 67.6787C105.102 68.3023 107.55 68.0436 107.291 69.4434C107.114 70.3844 106.811 71.2971 106.389 72.1567C106.117 72.8201 102.555 69.9675 101.925 66.1396C101.294 62.3118 104.744 61.9868 104.91 61.9868C105.529 61.3849 106.355 61.043 107.218 61.0315C108.89 60.985 109.209 61.6949 109.209 61.6949C109.615 61.5456 110.059 61.5328 110.473 61.6585C110.887 61.7842 111.249 62.0415 111.504 62.3914C112.758 63.8443 111.975 65.9141 110.144 66.4713L109.461 64.9522Z" fill="#E55600"/>
<path d="M110.582 75.1033C110.582 75.1033 119.637 78.1682 122.569 77.5977C125.38 76.8723 128.139 75.9615 130.829 74.8711C133.184 76.1979 133.9 79.15 133.098 81.6842C129.655 82.9579 119.425 86.5469 115.796 85.5518C111.404 84.3511 106.509 82.5665 106.509 82.5665C106.509 82.5665 101.759 79.4353 110.582 75.1033Z" fill="#7342CC"/>
<path d="M183.708 112.234V117.667C183.708 117.862 183.657 118.054 183.56 118.223C183.463 118.393 183.324 118.534 183.156 118.634C182.989 118.733 182.798 118.788 182.603 118.791C182.408 118.795 182.215 118.748 182.043 118.655L177.021 115.922C176.844 115.825 176.697 115.682 176.594 115.508C176.492 115.334 176.437 115.136 176.438 114.934V109.374C176.438 109.178 176.491 108.984 176.59 108.814C176.688 108.644 176.83 108.502 177 108.404C177.171 108.305 177.364 108.253 177.561 108.252C177.758 108.251 177.951 108.302 178.123 108.399L183.145 111.285C183.312 111.382 183.452 111.52 183.55 111.686C183.649 111.852 183.704 112.041 183.708 112.234Z" fill="#EF7F6C"/>
<path d="M173.558 106.633V112.067C173.558 112.262 173.507 112.453 173.41 112.623C173.313 112.792 173.174 112.934 173.006 113.033C172.838 113.133 172.648 113.187 172.453 113.191C172.258 113.195 172.065 113.148 171.893 113.055L166.871 110.295C166.694 110.198 166.547 110.055 166.444 109.881C166.342 109.707 166.287 109.509 166.288 109.307V103.747C166.288 103.551 166.341 103.357 166.44 103.187C166.538 103.017 166.68 102.875 166.85 102.777C167.021 102.678 167.214 102.626 167.411 102.625C167.608 102.624 167.801 102.675 167.973 102.772L172.994 105.658C173.166 105.757 173.308 105.899 173.407 106.07C173.506 106.241 173.558 106.436 173.558 106.633Z" fill="#06577A"/>
<path d="M162.413 100.366V105.799C162.413 105.994 162.362 106.186 162.265 106.355C162.168 106.525 162.029 106.666 161.861 106.766C161.693 106.865 161.503 106.92 161.308 106.923C161.113 106.927 160.92 106.88 160.748 106.787L155.726 104.028C155.549 103.93 155.402 103.787 155.299 103.613C155.197 103.439 155.142 103.241 155.142 103.039V97.4799C155.143 97.283 155.196 97.0898 155.295 96.9195C155.393 96.7492 155.535 96.6077 155.705 96.5091C155.876 96.4105 156.069 96.3582 156.266 96.3574C156.463 96.3567 156.656 96.4074 156.828 96.5047L161.849 99.3905C162.021 99.4894 162.163 99.6315 162.262 99.8027C162.361 99.9738 162.413 100.168 162.413 100.366Z" fill="#22B573"/>
<path d="M234.392 114.23C234.392 114.23 235.911 127.273 229.005 129.8C222.099 132.328 218.391 125.754 218.305 114.23" fill="#06577A"/>
<path d="M226.345 118.881C230.786 118.881 234.385 116.799 234.385 114.23C234.385 111.662 230.786 109.58 226.345 109.58C221.904 109.58 218.305 111.662 218.305 114.23C218.305 116.799 221.904 118.881 226.345 118.881Z" fill="#F2696A"/>
<path d="M224.289 103.888C224.289 103.888 227.446 99.3304 226.066 96.1793C226.066 96.1793 224.932 94.1559 223.32 93.8308C223.32 93.8308 223.479 98.1496 221.874 97.599C220.268 97.0483 221.874 93.0746 221.874 93.0746C221.874 93.0746 220.182 90.7859 218.331 90.8588C216.48 90.9318 218.331 94.8989 217.044 94.2422C215.757 93.5854 216.965 90.2087 215.518 89.804C214.195 89.4932 212.852 89.2716 211.498 89.1406C211.498 89.1406 210.132 93.0812 211.498 93.6451C212.865 94.209 214.875 94.4014 213.913 95.2704C212.951 96.1395 210.211 95.1377 210.211 95.1377C210.211 95.1377 210.039 97.3535 210.967 98.3154C211.896 99.2774 217.369 97.1545 216.401 99.0584C215.432 100.962 211.817 100.007 211.817 100.007C211.817 100.007 213.668 102.661 215.837 103.855C218.006 105.049 224.289 103.888 224.289 103.888Z" fill="#8CCC00"/>
<path d="M223.565 115.292C223.565 115.292 225.848 113.043 225.396 111.106C225.168 110.42 224.696 109.842 224.07 109.48C224.07 109.48 223.698 111.948 222.842 111.471C221.987 110.993 223.327 108.903 223.327 108.903C223.327 108.903 222.61 107.424 221.555 107.265C220.501 107.106 221.124 109.56 220.461 109.049C219.797 108.538 220.845 106.747 220.069 106.396C219.349 106.081 218.609 105.815 217.854 105.6C217.854 105.6 216.659 107.689 217.376 108.16C218.092 108.631 219.214 108.95 218.57 109.341C217.927 109.733 216.48 108.87 216.48 108.87C216.48 108.87 216.149 110.111 216.573 110.754C216.998 111.398 220.328 110.754 219.578 111.756C218.829 112.758 216.872 111.809 216.872 111.809C217.325 112.791 217.96 113.677 218.743 114.423C219.857 115.312 223.565 115.292 223.565 115.292Z" fill="#8CCC00"/>
<path d="M231.937 110.429C231.937 110.429 237.477 110.642 239.394 107.776C239.394 107.776 240.489 105.732 239.898 104.2C239.898 104.2 236.342 106.655 235.918 105.003C235.493 103.351 239.732 102.575 239.732 102.575C239.732 102.575 240.754 99.9211 239.732 98.4019C238.711 96.8827 236.322 100.571 236.19 99.1316C236.057 97.6921 239.553 96.896 239.109 95.4564C238.653 94.1744 238.113 92.9244 237.49 91.7148C237.49 91.7148 233.43 92.6768 233.689 94.1363C233.947 95.5957 234.87 97.3935 233.616 97.0419C232.362 96.6903 231.738 93.851 231.738 93.851C231.738 93.851 229.748 94.8992 229.47 96.1994C229.191 97.4997 233.888 100.976 231.765 101.182C229.642 101.387 228.501 97.8247 228.501 97.8247C228.501 97.8247 227.267 100.803 227.413 103.285C227.559 105.766 231.937 110.429 231.937 110.429Z" fill="#8CCC00"/>
<path d="M212.699 90.9108L214.47 92.4233C214.411 91.7931 214.338 91.1695 214.238 90.5459C214.185 90.2142 214.689 90.0749 214.742 90.4066C214.875 91.2425 214.974 92.0806 215.041 92.9209C216.593 94.2808 218.132 95.7071 219.572 97.2197C219.694 96.1584 219.725 95.0887 219.665 94.0221C219.665 93.6838 220.169 93.6838 220.189 94.0221C220.257 95.2559 220.206 96.4933 220.036 97.7172C220.951 98.7057 221.811 99.7444 222.61 100.829C223.509 99.585 224.121 98.1576 224.401 96.6492C224.461 96.3175 224.965 96.4568 224.905 96.7885C224.606 98.3938 223.943 99.9095 222.968 101.22C222.953 101.238 222.935 101.253 222.915 101.266C225.341 104.503 226.741 108.392 226.935 112.431C226.935 112.77 226.425 112.77 226.411 112.431C226.224 108.535 224.883 104.783 222.557 101.651C220.445 102.223 218.253 102.447 216.069 102.315C215.737 102.315 215.731 101.771 216.069 101.791C218.141 101.925 220.22 101.732 222.232 101.22C221.121 99.7215 219.902 98.3068 218.583 96.9875H218.537C217.316 97.0936 216.096 97.2064 214.868 97.2462C214.1 97.3566 213.315 97.2651 212.593 96.9809C212.294 96.8283 212.56 96.3772 212.858 96.5298C213.701 96.9543 214.882 96.7288 215.79 96.6757C216.567 96.6293 217.343 96.5629 218.119 96.4966C216.255 94.6457 214.251 92.9275 212.321 91.2955C212.069 91.0634 212.44 90.7118 212.699 90.9108Z" fill="#06577A"/>
<path d="M228.919 101.102C228.901 101.035 228.909 100.964 228.944 100.904C228.978 100.843 229.035 100.799 229.101 100.78C229.168 100.762 229.24 100.771 229.3 100.805C229.36 100.839 229.405 100.896 229.423 100.963C229.989 102.894 231.167 104.589 232.78 105.792C233.373 104.147 233.914 102.482 234.405 100.797C233.142 99.5387 232.103 98.0736 231.334 96.465C231.188 96.1598 231.639 95.8945 231.785 96.1996C232.497 97.6672 233.44 99.0111 234.578 100.18C235.122 98.2562 235.606 96.3058 236.011 94.3421C236.077 94.0104 236.581 94.1497 236.515 94.4814C235.958 97.1704 235.27 99.824 234.452 102.442C235.44 102.249 236.4 101.935 237.311 101.507C237.616 101.361 237.882 101.812 237.576 101.958C236.524 102.458 235.408 102.813 234.259 103.013C233.709 104.738 233.085 106.436 232.428 108.121C233.994 108.072 235.537 107.732 236.979 107.119C237.284 106.987 237.55 107.438 237.245 107.57C235.656 108.252 233.951 108.62 232.223 108.652C231.382 110.748 230.458 112.813 229.45 114.848C229.297 115.146 228.846 114.888 228.999 114.582C230.348 111.88 231.546 109.105 232.588 106.27C230.829 104.999 229.539 103.182 228.919 101.102Z" fill="#06577A"/>
<path d="M219.439 107.874L220.879 110.289C221.055 110.052 221.209 109.799 221.336 109.533C221.482 109.227 221.933 109.493 221.787 109.798C221.623 110.138 221.42 110.459 221.184 110.753L222.743 113.374C222.917 113.206 223.029 112.984 223.061 112.743C223.101 112.412 223.625 112.412 223.585 112.743C223.538 113.162 223.331 113.547 223.008 113.818L224.958 117.095C224.994 117.155 225.004 117.227 224.986 117.294C224.969 117.361 224.925 117.418 224.866 117.454C224.806 117.489 224.734 117.499 224.667 117.481C224.6 117.464 224.543 117.421 224.507 117.361L221.933 113.042C221.501 113.049 221.071 112.984 220.66 112.85C220.341 112.743 220.48 112.239 220.799 112.345C221.062 112.428 221.333 112.479 221.608 112.498L219.001 108.12C218.986 108.064 218.99 108.005 219.012 107.952C219.034 107.898 219.074 107.854 219.124 107.826C219.175 107.798 219.233 107.787 219.29 107.796C219.347 107.805 219.399 107.832 219.439 107.874Z" fill="#06577A"/>
<path d="M9.65252 123.47L37.8536 109.539L59.1686 122.482L31.6044 137.375C25.3817 133.322 15.6894 127.783 9.65252 123.47Z" fill="url(#paint3_linear_2932:19733)"/>
<path d="M60.5749 86.6914V119.47C60.5749 119.47 29.07 121.221 29.07 119.47V86.6914" fill="#68E1FD"/>
<path d="M44.8192 126.39C53.5208 126.39 60.5749 123.167 60.5749 119.192C60.5749 115.217 53.5208 111.994 44.8192 111.994C36.1175 111.994 29.0635 115.217 29.0635 119.192C29.0635 123.167 36.1175 126.39 44.8192 126.39Z" fill="#68E1FD"/>
<path d="M44.8192 93.8899C53.5208 93.8899 60.5749 90.6673 60.5749 86.692C60.5749 82.7167 53.5208 79.4941 44.8192 79.4941C36.1175 79.4941 29.0635 82.7167 29.0635 86.692C29.0635 90.6673 36.1175 93.8899 44.8192 93.8899Z" fill="#3129A3"/>
<path d="M54.6375 92.2908L54.5313 92.3505C53.9276 92.5627 53.3173 92.7551 52.6937 92.9077L56.9793 57.0112C56.9793 57.0112 57.8749 56.5203 59.1751 57.4159L54.7768 92.2244L54.6375 92.2908Z" fill="#F78B72"/>
<path d="M49.7548 93.3985L48.428 59.7045C48.428 59.7045 49.2374 59.0742 50.6571 59.7575L51.745 93.1199C51.0875 93.2505 50.423 93.3435 49.7548 93.3985Z" fill="#F78B72"/>
<path d="M44.8193 93.8906L40.4674 58.7637L31.6972 63.4075L35.2464 92.9154C38.3524 93.8155 41.5956 94.1459 44.8193 93.8906Z" fill="#FCB749"/>
<defs>
<linearGradient id="paint0_linear_2932:19733" x1="121.913" y1="141.216" x2="136.813" y2="126.933" gradientUnits="userSpaceOnUse">
<stop stop-color="#FB9C4D"/>
<stop offset="0.98" stop-color="#E16C3F"/>
</linearGradient>
<linearGradient id="paint1_linear_2932:19733" x1="6731.37" y1="6528.56" x2="7761.48" y2="5138.2" gradientUnits="userSpaceOnUse">
<stop stop-color="#FB9C4D"/>
<stop offset="0.98" stop-color="#E16C3F"/>
</linearGradient>
<linearGradient id="paint2_linear_2932:19733" x1="9455.01" y1="3458.04" x2="9822.78" y2="2975.19" gradientUnits="userSpaceOnUse">
<stop stop-color="#FB9C4D"/>
<stop offset="0.98" stop-color="#E16C3F"/>
</linearGradient>
<linearGradient id="paint3_linear_2932:19733" x1="1926.42" y1="5493.9" x2="2368.02" y2="4970.03" gradientUnits="userSpaceOnUse">
<stop stop-color="#FB9C4D"/>
<stop offset="0.98" stop-color="#E16C3F"/>
</linearGradient>
</defs>
</svg>
