<svg width="91" height="91" viewBox="0 0 91 91" fill="none" xmlns="http://www.w3.org/2000/svg">
<path d="M15 76L28.0435 64M20.2174 44C20.2174 59.464 32.4809 72 47.6087 72C62.7365 72 75 59.464 75 44C75 28.536 62.7365 16 47.6087 16C32.4809 16 20.2174 28.536 20.2174 44Z" stroke="#757575" stroke-width="3" stroke-linecap="round" stroke-linejoin="round"/>
<path d="M57.3333 54.6666H38.6667C37.1939 54.6666 36 53.4727 36 51.9999L36 35.9999C36 34.5272 37.1939 33.3333 38.6667 33.3333L52 33.3333C53.4728 33.3333 54.6667 34.5272 54.6667 35.9999V37.3333M57.3333 54.6666C55.8606 54.6666 54.6667 53.4727 54.6667 51.9999L54.6667 37.3333M57.3333 54.6666C58.8061 54.6666 60 53.4727 60 51.9999V39.9999C60 38.5272 58.8061 37.3333 57.3333 37.3333L54.6667 37.3333M49.3333 33.3333L44 33.3333M41.3333 49.3333H49.3333M41.3333 38.6666H49.3333V43.9999H41.3333V38.6666Z" stroke="#9E9E9E" stroke-width="2" stroke-linecap="round" stroke-linejoin="round"/>
</svg>
