<svg width="271" height="200" viewBox="0 0 271 200" fill="none" xmlns="http://www.w3.org/2000/svg">
<path d="M131.125 197.853L5.25492 123.462C1.24897 121.214 -2.18783 117.515 1.71597 115.1L128.031 42.2922C129.928 41.1174 132.803 40.3512 134.73 41.4676L266.875 118.15C270.881 120.478 271.603 126.979 267.604 129.307L147.732 197.736C145.214 199.199 142.357 199.979 139.444 199.999C136.532 200.02 133.664 199.28 131.125 197.853Z" fill="#FFD24D"/>
<path d="M202.583 114.676C202.583 114.676 203.196 120.988 202.853 121.666C202.02 122.954 200.988 124.102 199.795 125.066C198.569 126.015 197.008 127.65 198.708 128.532C200.408 129.415 205.567 125.409 206.114 125.132C206.662 124.855 206.654 118.069 206.654 118.069" fill="#473E39"/>
<path d="M211.273 118.324C211.273 118.324 211.886 124.636 211.543 125.315C210.71 126.602 209.678 127.75 208.486 128.715C207.26 129.663 205.698 131.298 207.398 132.181C209.099 133.064 214.257 129.058 214.805 128.781C215.352 128.503 215.345 121.717 215.345 121.717" fill="#473E39"/>
<path d="M215.775 91.2549C215.907 94.1372 215.885 97.0413 215.732 100.055C215.718 100.171 215.733 100.289 215.775 100.398C215.817 100.507 215.885 100.605 215.972 100.682C215.819 110.57 215.608 124.806 215.608 125.032C215.608 125.382 212.499 127.155 210.376 123.864L207.844 100.113L207.625 122.004C207.625 122.004 204.173 123.974 202.101 120.391L200.554 87.2344L215.775 91.2549Z" fill="#847066"/>
<path d="M204.859 109.787C204.859 109.787 205.472 116.099 205.129 116.777C204.296 118.065 203.264 119.213 202.072 120.178C200.846 121.126 199.285 122.761 200.985 123.644C202.685 124.527 207.844 120.521 208.391 120.243C208.938 119.966 208.931 113.18 208.931 113.18" fill="#473E39"/>
<path d="M209.923 116.041L211.383 89.3854L212.441 114.428C213.71 113.604 214.958 112.757 216.155 111.845C216.768 108.467 217.454 105.103 218.103 101.732C218.271 96.3174 218.738 90.9031 218.205 85.5108L202.809 82.4023L204.356 115.552C205.485 116.44 206.839 116.996 208.267 117.157C208.812 116.773 209.364 116.401 209.923 116.041Z" fill="#847066"/>
<path d="M160.976 131.984C160.976 131.984 160.363 138.296 160.706 138.975C161.54 140.263 162.571 141.41 163.764 142.375C164.99 143.324 166.551 144.958 164.851 145.841C163.151 146.724 157.992 142.718 157.445 142.441C156.897 142.163 156.905 135.377 156.905 135.377" fill="#473E39"/>
<path d="M152.278 135.633C152.278 135.633 151.665 141.945 152.008 142.623C152.842 143.911 153.873 145.059 155.066 146.023C156.292 146.972 157.853 148.607 156.153 149.489C154.453 150.372 149.294 146.366 148.747 146.089C148.199 145.812 148.207 139.026 148.207 139.026" fill="#473E39"/>
<path d="M147.542 110.051C147.499 112.487 147.594 114.923 147.827 117.348C147.84 117.464 147.825 117.582 147.783 117.691C147.741 117.8 147.674 117.898 147.586 117.975C147.739 127.862 147.951 142.099 147.951 142.325C147.951 142.675 151.059 144.448 153.183 141.157L154.438 111.488L155.897 139.26C157.878 139.461 159.86 138.883 161.421 137.647L162.968 104.498L147.542 110.051Z" fill="#847066"/>
<path style="mix-blend-mode:multiply" opacity="0.63" d="M117.64 171.985L145.726 188.461L230.952 136.53L203.013 120.871" fill="url(#paint0_linear_2923:19016)"/>
<path d="M135.824 152.619C135.824 152.619 135.211 158.931 135.554 159.609C136.387 160.897 137.419 162.045 138.611 163.01C139.837 163.958 141.399 165.593 139.699 166.476C137.999 167.359 132.84 163.353 132.292 163.075C131.745 162.798 131.752 156.012 131.752 156.012" fill="#473E39"/>
<path d="M127.126 156.268C127.126 156.268 126.513 162.579 126.856 163.258C127.689 164.546 128.721 165.693 129.914 166.658C131.139 167.607 132.701 169.241 131.001 170.124C129.301 171.007 124.142 167.001 123.594 166.724C123.047 166.447 123.055 159.661 123.055 159.661" fill="#473E39"/>
<path d="M122.632 129.206C122.5 132.088 122.522 134.992 122.675 138.006C122.688 138.122 122.673 138.239 122.632 138.349C122.59 138.458 122.522 138.555 122.435 138.633C122.588 148.52 122.799 162.756 122.799 162.983C122.799 163.333 125.908 165.106 128.031 161.815L129.286 132.146L130.746 159.918C132.727 160.119 134.708 159.541 136.269 158.305L137.845 125.178L122.632 129.206Z" fill="#847066"/>
<path d="M95.159 62.3223H94.2323C93.2893 62.3223 92.5249 63.0867 92.5249 64.0297V92.8667C92.5249 93.8097 93.2893 94.5742 94.2323 94.5742H95.159C96.102 94.5742 96.8665 93.8097 96.8665 92.8667V64.0297C96.8665 63.0867 96.102 62.3223 95.159 62.3223Z" fill="#42210B"/>
<path d="M119.684 140.135H118.757C117.814 140.135 117.05 140.899 117.05 141.842V170.701C117.05 171.644 117.814 172.409 118.757 172.409H119.684C120.627 172.409 121.391 171.644 121.391 170.701V141.842C121.391 140.899 120.627 140.135 119.684 140.135Z" fill="#42210B"/>
<path d="M145.47 154.342H144.544C143.601 154.342 142.836 155.106 142.836 156.049V186.754C142.836 187.697 143.601 188.462 144.544 188.462H145.47C146.413 188.462 147.178 187.697 147.178 186.754V156.049C147.178 155.106 146.413 154.342 145.47 154.342Z" fill="#42210B"/>
<path d="M229.895 104.17H228.968C228.025 104.17 227.26 104.934 227.26 105.877V136.582C227.26 137.525 228.025 138.29 228.968 138.29H229.895C230.838 138.29 231.602 137.525 231.602 136.582V105.877C231.602 104.934 230.838 104.17 229.895 104.17Z" fill="#42210B"/>
<path d="M232.426 104.717V107.774L230.974 108.927L230.405 105.432L232.426 104.717Z" fill="#F2CEC9"/>
<path d="M231.434 106.031L122.018 41.9941C112.328 48.5613 102.521 54.9971 92.6998 61.3891V65.0375L168.514 107.622C168.82 107.796 169.075 108.049 169.252 108.354C169.429 108.659 169.522 109.006 169.522 109.358C169.522 109.711 169.429 110.057 169.252 110.362C169.075 110.667 168.82 110.92 168.514 111.095L118.37 140.501L116.911 139.633V142.916C116.905 143.016 116.905 143.116 116.911 143.215V143.646H116.976C117.061 144.055 117.236 144.441 117.488 144.774C117.741 145.107 118.064 145.38 118.436 145.572L143.245 158.203C143.856 158.515 144.535 158.668 145.221 158.651C145.906 158.633 146.576 158.444 147.171 158.101L231.427 109.49C231.73 109.315 231.982 109.063 232.158 108.76C232.333 108.457 232.426 108.113 232.426 107.762C232.427 107.412 232.336 107.068 232.162 106.764C231.988 106.46 231.737 106.207 231.434 106.031Z" fill="#68E1FD"/>
<path opacity="0.61" d="M231.434 106.031L122.018 41.9941C112.328 48.5613 102.521 54.9971 92.6998 61.3891V65.0375L168.514 107.622C168.82 107.796 169.075 108.049 169.252 108.354C169.429 108.659 169.522 109.006 169.522 109.358C169.522 109.711 169.429 110.057 169.252 110.362C169.075 110.667 168.82 110.92 168.514 111.095L118.37 140.501L116.911 139.633V142.916C116.905 143.016 116.905 143.116 116.911 143.215V143.646H116.976C117.061 144.055 117.236 144.441 117.488 144.774C117.741 145.107 118.064 145.38 118.436 145.572L143.245 158.203C143.856 158.515 144.535 158.668 145.221 158.651C145.906 158.633 146.576 158.444 147.171 158.101L231.427 109.49C231.73 109.315 231.982 109.063 232.158 108.76C232.333 108.457 232.426 108.113 232.426 107.762C232.427 107.412 232.336 107.068 232.162 106.764C231.988 106.46 231.737 106.207 231.434 106.031Z" fill="#606060"/>
<path d="M231.434 102.973L125.74 41.1252C125.347 40.8949 124.898 40.7808 124.443 40.7963C123.988 40.8118 123.547 40.9562 123.171 41.2127C113.102 48.0717 102.915 54.7556 92.6998 61.3957V61.9722L168.514 104.556C168.82 104.731 169.075 104.984 169.252 105.289C169.429 105.594 169.522 105.94 169.522 106.293C169.522 106.646 169.429 106.992 169.252 107.297C169.075 107.602 168.82 107.855 168.514 108.03L118.275 137.48C117.83 137.74 117.463 138.115 117.214 138.566C116.964 139.017 116.84 139.527 116.856 140.042C116.872 140.558 117.026 141.059 117.303 141.494C117.579 141.929 117.968 142.282 118.428 142.514L143.238 155.145C143.849 155.457 144.528 155.61 145.213 155.593C145.899 155.575 146.569 155.386 147.163 155.043L231.427 106.432C231.73 106.257 231.982 106.005 232.158 105.702C232.333 105.399 232.426 105.055 232.426 104.704C232.427 104.354 232.336 104.01 232.162 103.706C231.988 103.402 231.737 103.149 231.434 102.973Z" fill="#68E1FD"/>
<path d="M161.903 64.5617V10.4121L153.475 12.9514L153.293 59.651C156.131 61.3511 159.086 62.847 161.903 64.5617Z" fill="#F7CF91"/>
<path d="M161.903 64.5617V10.4121L159.327 11.1418V63.0513C160.193 63.5426 161.052 64.0461 161.903 64.5617Z" fill="#DEAB7C"/>
<path d="M101.879 30.7925L112.926 36.3892L164.639 6.07095L153.256 0L101.879 30.7925Z" fill="#F7CF91"/>
<path d="M112.926 40.0662L164.785 9.59467V6.07031L112.926 36.3886V40.0662Z" fill="#EDA421"/>
<path d="M104.492 33.9805L104.28 102.228L110.344 105.555L112.927 103.971V36.3884L104.492 33.9805Z" fill="#F7CF91"/>
<path d="M110.344 105.555V36.3887L112.927 37.797V103.972L110.344 105.555Z" fill="#DEAB7C"/>
<path d="M113.548 30.1286C114.192 28.8829 113.705 27.3508 112.459 26.7065C111.213 26.0622 109.681 26.5497 109.037 27.7953C108.393 29.041 108.88 30.5731 110.126 31.2174C111.371 31.8617 112.903 31.3742 113.548 30.1286Z" fill="#E05342"/>
<path d="M108.797 29.4199C108.797 29.4199 109.008 30.7261 111.292 30.7917C113.576 30.8574 113.737 29.6534 113.737 29.6534C113.884 30.0394 113.92 30.4594 113.839 30.8647C113.693 31.4703 113 32.1635 111.292 32.1635C110.814 32.1846 110.337 32.0902 109.903 31.8882C109.468 31.6863 109.089 31.3828 108.797 31.0033C108.678 30.7564 108.616 30.4858 108.616 30.2116C108.616 29.9375 108.678 29.6669 108.797 29.4199Z" fill="#3A3935"/>
<path d="M138.302 14.1936C139.469 11.9385 138.586 9.16486 136.331 7.99845C134.076 6.83204 131.303 7.71456 130.136 9.96961C128.97 12.2247 129.852 14.9983 132.107 16.1647C134.362 17.3311 137.136 16.4486 138.302 14.1936Z" fill="#E05342"/>
<path d="M129.709 12.9219C129.709 12.9657 130.096 15.2787 134.219 15.4028C138.524 15.5341 138.641 13.3451 138.641 13.3451C138.906 14.0432 138.969 14.8018 138.823 15.5341C138.553 16.6287 137.305 17.891 134.226 17.891C133.361 17.9279 132.5 17.7563 131.715 17.3906C130.93 17.0248 130.245 16.4757 129.717 15.7895C128.921 14.571 129.709 12.9219 129.709 12.9219Z" fill="#3A3935"/>
<path d="M157.47 5.1481C158.114 3.90246 157.627 2.37035 156.381 1.72605C155.135 1.08175 153.603 1.56923 152.959 2.81488C152.315 4.06052 152.802 5.59262 154.048 6.23693C155.293 6.88123 156.826 6.39375 157.47 5.1481Z" fill="#F7CF91"/>
<path d="M152.716 4.44336C152.716 4.44336 152.928 5.74949 155.212 5.81516C157.496 5.88083 157.656 4.67686 157.656 4.67686C157.804 5.06287 157.839 5.48282 157.758 5.88813C157.612 6.49376 156.919 7.18696 155.212 7.18696C154.733 7.20803 154.257 7.11362 153.822 6.91168C153.388 6.70974 153.009 6.40622 152.716 6.02677C152.597 5.7798 152.536 5.50919 152.536 5.23506C152.536 4.96093 152.597 4.69033 152.716 4.44336Z" fill="#F7CF91"/>
<path d="M101.879 30.793V34.6968L112.926 40.0672V36.3896L101.879 30.793Z" fill="#EDA421"/>
<path d="M154.834 6.90786C155.478 5.66221 154.991 4.13011 153.745 3.48581C152.5 2.8415 150.968 3.32899 150.323 4.57463C149.679 5.82028 150.166 7.35239 151.412 7.99669C152.658 8.64099 154.19 8.1535 154.834 6.90786Z" fill="#E05342"/>
<path d="M150.082 6.20117C150.082 6.20117 150.294 7.5073 152.578 7.57297C154.861 7.63864 155.029 6.43467 155.029 6.43467C155.177 6.82069 155.212 7.24064 155.131 7.64594C154.986 8.25158 154.292 8.94477 152.585 8.94477C152.106 8.96585 151.63 8.87143 151.195 8.66949C150.761 8.46756 150.382 8.16404 150.089 7.78458C149.969 7.53816 149.906 7.26784 149.905 6.99371C149.904 6.71958 149.964 6.44869 150.082 6.20117Z" fill="#3A3935"/>
<path style="mix-blend-mode:multiply" opacity="0.63" d="M196.154 86.8164L185.778 92.8801L194.782 98.1265L205.129 92.5736C202.145 90.6399 199.168 88.6917 196.154 86.8164Z" fill="url(#paint1_linear_2923:19016)"/>
<path d="M197.957 78.3684V89.6274L189.179 94.6476L179.262 88.7883V77.5293" fill="#FFAD4A"/>
<path d="M197.957 78.3674L187.77 72.5664L179.262 77.5282L189.179 83.3876L197.957 78.3674Z" fill="#FFDD99"/>
<path d="M189.179 83.3886V94.6476L179.262 88.7883V77.5293L189.179 83.3886Z" fill="#FFC36C"/>
<path d="M194.775 80.0242L184.596 74.2598L182.451 75.5148L192.557 81.2939V88.1967L194.775 87.0365V80.0242Z" fill="#7342CC"/>
<path style="mix-blend-mode:multiply" opacity="0.63" d="M158.145 131.102L145.74 138.355L156.518 144.63L168.922 137.982C165.31 135.677 161.75 133.356 158.145 131.102Z" fill="url(#paint2_linear_2923:19016)"/>
<path d="M140.501 122.324V135.371L150.68 141.201L162.173 134.408V121.354" fill="#FFAD4A"/>
<path d="M140.501 122.324L152.315 115.604L162.173 121.353L150.68 128.147L140.501 122.324Z" fill="#FFDD99"/>
<path d="M150.68 128.147V141.201L162.173 134.408V121.354L150.68 128.147Z" fill="#FFC36C"/>
<path d="M144.201 124.243L155.992 117.566L158.481 119.018L146.769 125.717V133.714L144.201 132.372V124.243Z" fill="#7342CC"/>
<path style="mix-blend-mode:multiply" opacity="0.63" d="M182.714 115.225L170.309 122.478L181.086 128.753L193.491 122.105C189.879 119.8 186.318 117.479 182.714 115.225Z" fill="url(#paint3_linear_2923:19016)"/>
<path d="M165.07 106.445V119.499L175.249 125.315L186.741 118.529V105.475" fill="#FFAD4A"/>
<path d="M165.07 106.445L176.883 99.7246L186.741 105.475L175.249 112.268L165.07 106.445Z" fill="#FFDD99"/>
<path d="M175.249 112.268V125.315L186.741 118.529V105.475L175.249 112.268Z" fill="#FFC36C"/>
<path d="M168.769 108.371L180.561 101.688L183.049 103.14L171.338 109.838V117.835L168.769 116.493V108.371Z" fill="#7342CC"/>
<path d="M167.383 83.1621C167.383 83.1621 170.6 89.9992 171.819 91.4075C173.038 92.8158 177.656 99.1786 177.656 99.1786C177.656 99.1786 180.035 100.915 179.517 101.426C178.999 101.937 177.328 100.207 177.328 100.207L174.059 100.397C174.059 100.397 168.951 94.1657 167.828 92.8231C166.704 91.4805 163.603 85.373 163.603 85.373" fill="#F3AE83"/>
<path d="M149.272 97.5215C149.278 97.5797 149.278 97.6383 149.272 97.6966C148.303 101.749 147.733 105.887 147.572 110.05C153.023 112.093 159.546 109.401 163.939 105.044L149.272 97.5215Z" fill="#847066"/>
<path d="M155.08 74.7554C155.08 74.7554 149.352 76.149 148.046 80.5928C146.74 85.0366 149.79 101.381 149.79 101.381C149.79 101.381 158.984 104.862 165.113 98.9297C165.113 98.9297 165.113 76.0834 161.691 74.2519C159.108 72.8801 155.08 74.7554 155.08 74.7554Z" fill="#7342CC"/>
<path d="M161.29 74.0996C161.29 74.0996 166.128 75.7414 168.2 84.0452C166.717 85.0095 165.166 85.8654 163.559 86.6063" fill="#7342CC"/>
<path d="M164.596 84.7459L162.91 83.3522C162.91 75.8803 158.408 73.1367 158.408 73.1367L157.934 73.5599C161.283 76.9384 161.925 82.9436 161.633 83.1698C161.341 83.396 156.423 84.6657 156.423 84.6657C156.371 83.682 156.229 82.7051 156 81.747C155.804 80.9286 155.541 80.1281 155.212 79.3536C154.942 78.7177 154.625 78.103 154.263 77.5148C153.991 77.0677 153.686 76.6409 153.351 76.2379C153.222 76.0351 153.034 75.8771 152.811 75.7855C152.753 75.7855 152.585 75.7125 152.534 75.7344C152.114 75.9544 151.707 76.198 151.315 76.4641C154.139 76.6903 155.263 84.9211 155.263 84.9211C155.263 84.9211 153.804 85.0378 154.344 88.9635C154.884 92.8892 149.433 99.8358 149.433 99.8358L150.958 118.34L164.727 110.27L164.596 84.7459Z" fill="#473E39"/>
<path d="M153.227 92.3415L149.053 85.5117L149.214 87.4892C149.231 87.5188 149.243 87.5508 149.25 87.584C149.666 89.6636 150.089 93.6987 150.206 94.3044L150.936 97.7266L153.563 93.9614L153.227 92.3415Z" fill="#452680"/>
<path d="M155.08 87.6338C155.08 87.6338 156.722 92.3329 157.999 93.6391C159.276 94.9452 165.755 101.629 165.989 101.702C166.222 101.775 170.141 102.395 169.907 103.161C169.674 103.928 167.375 103.548 167.375 103.548C167.375 103.548 171.06 106.467 170.294 107.467C169.528 108.466 164.15 106.16 163.763 105.088C163.377 104.015 162.727 102.41 162.727 102.41C162.727 102.41 153.869 96.2513 152.942 95.0254C152.016 93.7996 149.863 88.5751 149.863 88.5751C149.863 88.5751 152.11 86.1671 155.08 87.6338Z" fill="#F3AE83"/>
<path d="M148.382 86.0221C148.382 86.0221 150.702 91.7428 150.855 91.8595C151.009 91.9763 155.963 89.7361 156.591 89.6705L153.935 83.1836" fill="#7342CC"/>
<path d="M156.489 76.6677C157.252 76.8832 158.064 76.8526 158.809 76.5801V72.7274L154.19 72.0488L154.489 75.5732C155.054 76.0988 155.742 76.475 156.489 76.6677Z" fill="#EAA37D"/>
<path d="M161.268 67.2914C161.421 67.4812 160.538 75.3763 158.787 75.2158C157.036 75.0552 153.993 72.9392 153.964 69.8599C153.935 66.7807 159.123 64.6135 161.268 67.2914Z" fill="#F3AE83"/>
<path d="M158.641 63.7738C154.147 63.263 152.14 66.2985 152.169 68.3708C152.198 70.4431 152.826 73.6829 153.898 73.7266C154.051 73.729 154.201 73.694 154.336 73.6245C154.405 72.8449 154.582 72.0788 154.862 71.3479C154.584 70.8444 154.132 69.9396 154.73 69.531C154.796 69.4729 154.874 69.4311 154.958 69.4089C155.042 69.3868 155.131 69.3848 155.216 69.4033C155.302 69.4218 155.381 69.4602 155.449 69.5153C155.517 69.5705 155.571 69.6409 155.606 69.7207C155.632 69.4342 155.768 69.1691 155.986 68.9812C156.204 68.7933 156.486 68.6974 156.773 68.7137C156.773 68.7137 160.903 69.6988 162.049 68.991C163.195 68.2832 163.136 64.2846 158.641 63.7738Z" fill="#4C2E22"/>
<path d="M156.766 61.4107C154.022 61.6369 151.374 63.0671 150.695 65.7888C150.016 68.5105 150.914 69.554 152.337 69.9553C152.337 69.9553 156.773 64.8475 162.107 66.3434C162.494 66.4528 162.552 64.8256 162.56 64.6213C162.617 64.0841 162.497 63.5429 162.219 63.0795C161.942 62.6162 161.521 62.2558 161.02 62.0528C159.678 61.486 158.215 61.2652 156.766 61.4107Z" fill="#E0D6CD"/>
<path d="M152.337 69.9829L151.84 69.8078C151.84 69.8078 155.744 64.0433 162.435 65.8237L162.253 66.4659C160.338 65.9923 158.321 66.1589 156.51 66.9402C154.944 67.6891 153.529 68.7207 152.337 69.9829Z" fill="#CCB09A"/>
<path d="M142.457 102.557C142.457 102.557 145.675 109.394 146.894 110.802C148.112 112.21 152.731 118.573 152.731 118.573C152.731 118.573 155.11 120.31 154.592 120.821C154.074 121.331 152.403 119.602 152.403 119.602L149.134 119.792C149.134 119.792 144.026 113.56 142.902 112.218C141.778 110.875 138.692 104.746 138.692 104.746" fill="#F3AE83"/>
<path d="M124.346 116.881C124.352 116.939 124.352 116.998 124.346 117.056C123.377 121.108 122.807 125.246 122.646 129.409C128.097 131.453 134.62 128.76 139.013 124.404L124.346 116.881Z" fill="#847066"/>
<path d="M130.154 94.1147C130.154 94.1147 124.426 95.5084 123.12 99.9522C121.814 104.396 124.864 120.741 124.864 120.741C124.864 120.741 134.058 124.221 140.188 118.289C140.188 118.289 140.188 95.4427 136.765 93.6112C134.182 92.2394 130.154 94.1147 130.154 94.1147Z" fill="#7342CC"/>
<path d="M136.364 93.4434C136.364 93.4434 141.202 95.0851 143.274 103.389C141.791 104.353 140.24 105.209 138.633 105.95" fill="#7342CC"/>
<path d="M139.706 104.103L138.02 102.71C138.02 95.2377 133.518 92.4941 133.518 92.4941L133.044 92.9173C136.393 96.2958 137.035 102.301 136.743 102.527C136.452 102.753 131.534 104.023 131.534 104.023C131.481 103.039 131.339 102.062 131.11 101.104C130.915 100.286 130.651 99.4855 130.322 98.711C130.053 98.0751 129.736 97.4605 129.374 96.8722C129.101 96.4251 128.796 95.9983 128.462 95.5953C128.332 95.3925 128.144 95.2345 127.922 95.1429C127.863 95.1429 127.695 95.0699 127.644 95.0918C127.225 95.3118 126.818 95.5554 126.426 95.8215C129.25 96.0477 130.373 104.278 130.373 104.278C130.373 104.278 128.914 104.395 129.454 108.321C129.994 112.247 124.543 119.193 124.543 119.193V133.86C124.171 134.246 140.129 124.724 140.129 124.724L139.706 104.103Z" fill="#473E39"/>
<path d="M128.301 111.699L124.127 104.869L124.288 106.847C124.304 106.876 124.317 106.908 124.324 106.941C124.74 109.021 125.163 113.056 125.28 113.662L126.01 117.084L128.637 113.319L128.301 111.699Z" fill="#452680"/>
<path d="M130.155 107C130.155 107 131.796 111.699 133.073 113.005C134.35 114.311 140.83 120.995 141.063 121.068C141.297 121.141 145.215 121.762 144.982 122.528C144.748 123.294 142.45 122.914 142.45 122.914C142.45 122.914 146.135 125.833 145.368 126.833C144.602 127.832 139.224 125.527 138.838 124.454C138.451 123.381 137.802 121.776 137.802 121.776C137.802 121.776 128.943 115.618 128.017 114.392C127.09 113.166 124.937 107.941 124.937 107.941C124.937 107.941 127.207 105.526 130.155 107Z" fill="#F3AE83"/>
<path d="M123.456 105.381C123.456 105.381 125.776 111.101 125.93 111.218C126.083 111.335 131.037 109.095 131.665 109.029L129.002 102.557" fill="#7342CC"/>
<path d="M131.577 96.0251C132.341 96.2406 133.153 96.21 133.898 95.9376V92.0848L129.279 91.4062L129.578 94.9306C130.143 95.4562 130.83 95.8325 131.577 96.0251Z" fill="#EAA37D"/>
<path d="M136.342 86.6489C136.495 86.8386 135.613 94.7338 133.861 94.5733C132.11 94.4127 129.067 92.2967 129.038 89.2174C129.009 86.1381 134.197 83.9929 136.342 86.6489Z" fill="#F3AE83"/>
<path d="M133.715 83.1332C129.22 82.6224 127.214 85.6578 127.243 87.7301C127.272 89.8024 127.9 93.0422 128.972 93.086C129.124 93.0884 129.275 93.0533 129.41 92.9839C129.479 92.2043 129.656 91.4381 129.935 90.7072C129.658 90.2038 129.206 89.299 129.804 88.8903C129.869 88.8323 129.947 88.7905 130.032 88.7683C130.116 88.7461 130.205 88.7442 130.29 88.7627C130.375 88.7812 130.455 88.8196 130.523 88.8747C130.591 88.9299 130.644 89.0002 130.68 89.0801C130.706 88.7936 130.842 88.5284 131.06 88.3406C131.278 88.1527 131.56 88.0568 131.847 88.0731C131.847 88.0731 135.977 89.0582 137.123 88.3504C138.268 87.6426 138.21 83.6512 133.715 83.1332Z" fill="#F99900"/>
<path d="M131.84 80.7681C129.097 80.9944 126.448 82.4245 125.769 85.1462C125.091 87.8679 125.988 88.9114 127.411 89.3127C127.411 89.3127 131.847 84.2049 137.181 85.7008C137.568 85.8102 137.627 84.1831 137.634 83.9787C137.691 83.4415 137.571 82.9003 137.294 82.437C137.016 81.9736 136.595 81.6132 136.094 81.4103C134.752 80.8434 133.29 80.6226 131.84 80.7681Z" fill="#E0D6CD"/>
<path d="M127.411 89.3423L126.915 89.1672C126.915 89.1672 130.819 83.4027 137.51 85.1831L137.327 85.8252C135.413 85.3517 133.396 85.5183 131.585 86.2995C130.018 87.0485 128.603 88.08 127.411 89.3423Z" fill="#CCB09A"/>
<path d="M213.236 47.6113C213.236 47.6113 213.783 49.4501 216.155 52.5586C218.526 55.667 220.248 56.5134 219.584 59.3519C218.92 62.1904 213.236 59.2643 210.39 58.9944C207.545 58.7244 206.924 54.3317 207.282 52.2448" fill="#8E4228"/>
<path d="M198.19 60.7891C198.19 60.7891 194.972 67.6262 193.753 69.0345C192.535 70.4427 187.916 76.8056 187.916 76.8056C187.916 76.8056 185.537 78.5422 186.055 79.053C186.573 79.5638 188.244 77.8344 188.244 77.8344L191.513 78.0241C191.513 78.0241 196.621 71.7927 197.745 70.45C198.868 69.1074 201.969 63 201.969 63" fill="#FFC8A9"/>
<path d="M201.663 82.6736L216.454 75.0703C217.301 79.2017 217.936 83.3736 218.358 87.5698C212.842 89.8464 206.107 87.1173 201.663 82.6736Z" fill="#847066"/>
<path d="M210.485 52.3843C210.485 52.3843 216.213 53.7779 217.519 58.2217C218.825 62.6655 215.775 79.0103 215.775 79.0103C215.775 79.0103 206.581 82.4909 200.452 76.5586C200.452 76.5586 200.452 53.7123 203.874 51.8808C206.464 50.509 210.485 52.3843 210.485 52.3843Z" fill="#7342CC"/>
<path d="M204.283 51.7129C204.283 51.7129 199.445 53.3547 197.373 61.6584C198.856 62.6227 200.407 63.4787 202.013 64.2196" fill="#7342CC"/>
<path d="M200.926 63.8843L202.655 60.9655C202.655 53.4936 207.157 50.75 207.157 50.75L207.632 51.1732C204.283 54.5516 203.64 60.5569 203.932 60.7831C204.224 61.0093 209.142 62.279 209.142 62.279C209.195 61.2953 209.336 60.3184 209.565 59.3602C209.761 58.5419 210.025 57.7413 210.354 56.9669C210.623 56.331 210.94 55.7163 211.302 55.1281C211.575 54.6809 211.88 54.2542 212.214 53.8511C212.343 53.6483 212.532 53.4903 212.754 53.3987C212.813 53.3987 212.98 53.3258 213.031 53.3477C213.451 53.5677 213.858 53.8113 214.25 54.0773C211.426 54.3035 210.302 62.5344 210.302 62.5344C210.302 62.5344 211.762 62.6511 211.222 66.5768C210.682 70.5025 216.133 77.449 216.133 77.449L216.818 94.4068L200.269 85.045L200.926 63.8843Z" fill="#473E39"/>
<path d="M206.501 50.3635C206.619 50.4753 206.7 50.6203 206.734 50.7794C207.019 51.9761 207.252 53.1801 207.464 54.3841C207.917 54.4338 208.376 54.3941 208.814 54.2673C209.559 54.0735 210.243 53.6974 210.806 53.1728L211.105 49.6484L206.501 50.3635Z" fill="#F9B495"/>
<path d="M204.305 44.9113C204.151 45.101 205.034 52.9962 206.786 52.8356C208.537 52.6751 211.58 50.559 211.609 47.4798C211.638 44.4005 206.45 42.2626 204.305 44.9113Z" fill="#FFC8A9"/>
<path d="M212.346 69.9685L216.52 63.1387L216.359 65.1161C216.342 65.1458 216.33 65.1777 216.323 65.211C215.907 67.2906 215.483 71.3257 215.367 71.9313L214.637 75.3535L212.01 71.5884L212.346 69.9685Z" fill="#452680"/>
<path d="M210.485 65.2636C210.485 65.2636 208.843 69.9628 207.566 71.2689C206.289 72.575 199.788 79.2589 199.54 79.3392C199.292 79.4194 195.388 80.0324 195.621 80.7985C195.855 81.5647 198.153 81.1853 198.153 81.1853C198.153 81.1853 194.468 84.104 195.235 85.1037C196.001 86.1033 201.379 83.7975 201.765 82.7249C202.152 81.6523 202.801 80.047 202.801 80.047C202.801 80.047 211.66 73.8885 212.586 72.6626C213.513 71.4367 215.666 66.2122 215.666 66.2122C215.666 66.2122 213.44 63.797 210.485 65.2636Z" fill="#FFC8A9"/>
<path d="M217.191 63.651C217.191 63.651 214.871 69.3717 214.717 69.4884C214.564 69.6052 209.61 67.365 208.982 67.2994L211.638 60.8125" fill="#7342CC"/>
<path d="M213.404 45.9996C213.404 43.9346 211.427 40.8918 206.932 41.4026C205.724 41.4678 204.587 41.9895 203.75 42.8619C203.75 43.183 203.707 43.4968 203.707 43.8105C203.664 43.8419 203.63 43.8825 203.606 43.9293C203.582 43.9762 203.569 44.0279 203.568 44.0805C203.44 45.064 203.545 46.0637 203.874 46.9992C203.878 47.0433 203.892 47.0859 203.915 47.1238C203.938 47.1617 203.969 47.194 204.006 47.2181C204.495 47.8457 205.465 47.7508 206.195 47.6851C206.749 47.6341 207.297 47.5319 207.844 47.437C208.676 47.2911 209.544 46.9773 210.135 48.1667C210.256 48.5911 210.313 49.0315 210.303 49.4728C210.321 50.3474 210.618 51.1934 211.149 51.8881C211.456 52.2456 211.966 51.7276 211.667 51.37L211.631 51.3189H211.682C212.747 51.3116 213.404 48.0646 213.404 45.9996Z" fill="#8E4228"/>
<path d="M208.296 40.0294C211.047 39.9491 213.841 41.0801 214.819 43.7361C215.797 46.3922 215.016 47.5086 213.644 48.0559C213.644 48.0559 208.668 43.4954 203.531 45.5531C203.159 45.699 202.925 44.0937 202.889 43.8894C202.773 43.3626 202.831 42.8122 203.054 42.3213C203.278 41.8304 203.655 41.4255 204.129 41.1677C205.4 40.444 206.833 40.0524 208.296 40.0294Z" fill="#E0D6CD"/>
<path d="M213.645 48.0644L214.134 47.8309C214.134 47.8309 209.617 42.5407 203.188 45.0435L203.444 45.6637C205.293 44.9806 207.315 44.9216 209.201 45.4959C210.827 46.0734 212.333 46.9439 213.645 48.0644Z" fill="#CCB09A"/>
<path style="mix-blend-mode:multiply" opacity="0.63" d="M31.4141 132.693L59.8352 116.574L41.9872 106.432L13.3618 122.382C19.4108 125.761 25.4088 129.241 31.4141 132.693Z" fill="url(#paint4_linear_2923:19016)"/>
<path d="M38.4701 99.0098V113.187H61.4039V99.0098" fill="#F8997C"/>
<path d="M49.9407 104.65C56.2757 104.65 61.4112 102.125 61.4112 99.0096C61.4112 95.8944 56.2757 93.3691 49.9407 93.3691C43.6056 93.3691 38.4701 95.8944 38.4701 99.0096C38.4701 102.125 43.6056 104.65 49.9407 104.65Z" fill="#DD654A"/>
<path d="M49.9407 119.382C56.2757 119.382 61.4112 116.857 61.4112 113.742C61.4112 110.627 56.2757 108.102 49.9407 108.102C43.6056 108.102 38.4701 110.627 38.4701 113.742C38.4701 116.857 43.6056 119.382 49.9407 119.382Z" fill="#F8997C"/>
<path d="M62.7756 66.0721C60.3531 65.0797 56.9965 61.7888 54.0705 61.891C52.9614 64.62 52.6111 67.816 52.2974 70.5961C51.7416 75.4184 51.6317 80.2816 51.969 85.124C52.0371 86.1991 52.1271 87.2742 52.239 88.3492C52.2669 88.6665 52.3535 88.9758 52.4944 89.2613C52.4944 93.0022 52.4944 96.743 52.4944 100.484C52.4944 100.581 52.5328 100.673 52.6013 100.742C52.6697 100.81 52.7625 100.849 52.8592 100.849C52.956 100.849 53.0488 100.81 53.1172 100.742C53.1856 100.673 53.2241 100.581 53.2241 100.484C53.2241 96.8841 53.2241 93.2867 53.2241 89.6918C54.3727 89.3124 55.4744 88.8032 56.5076 88.1741C58.6689 86.8131 60.299 84.753 61.1265 82.3367C62.9799 77.1851 61.8051 71.4279 63.5637 66.3275C63.2864 66.2399 63.031 66.1523 62.7756 66.0721Z" fill="#297600"/>
<path d="M57.8213 57.6017C56.4505 58.4129 55.3199 59.5738 54.5451 60.9655C54.3423 61.2785 54.1712 61.6109 54.0343 61.9579L53.9321 62.1768C53.7105 62.7582 53.5253 63.3528 53.3776 63.9572C53.6524 63.498 54.0859 63.1553 54.5962 62.994C55.1998 62.7287 55.8735 62.6673 56.5152 62.8189C57.1379 63.056 57.7286 63.3698 58.2738 63.7529C59.091 64.2491 59.8791 64.8036 60.689 65.3144C64.4906 67.7296 69.5473 67.9777 72.4806 64.4607C72.5171 64.322 72.5536 64.1834 72.5828 64.0374C73.006 61.6222 66.2273 52.7201 57.8213 57.6017Z" fill="#5FAD00"/>
<path d="M70.7875 65.9491C70.9408 65.8397 71.1013 65.7375 71.2618 65.6353C71.2674 65.5861 71.2618 65.5362 71.2454 65.4895C71.2289 65.4427 71.2021 65.4003 71.167 65.3654C68.8685 63.0085 66.4021 60.6954 63.2645 59.5279C61.0158 58.6744 58.5803 58.4351 56.2085 58.8347C55.9531 59.1266 55.7196 59.4403 55.4788 59.7541C58.0327 58.9004 61.2725 59.4331 63.5929 60.4254C66.3657 61.6075 68.5766 63.7309 70.6489 65.8615C70.6873 65.9015 70.7349 65.9316 70.7875 65.9491Z" fill="#297600"/>
<path d="M32.2897 71.0781C30.6357 71.945 29.271 73.2763 28.3635 74.9085C27.4561 76.5406 27.0454 78.4024 27.182 80.2648C27.4519 87.0362 38.6015 80.4253 41.564 74.7119C44.5265 68.9985 44.9862 77.1491 44.9862 77.1491" fill="#297600"/>
<path d="M42.3228 68.7217C40.228 68.6859 38.1405 68.9764 36.1351 69.5827C34.7902 69.9043 33.4962 70.4102 32.2897 71.0859C32.9892 71.5569 33.7349 71.9555 34.5152 72.2752C35.9162 72.8371 37.3828 73.5449 38.1198 74.8583C38.3 75.1822 38.4443 75.5247 38.5503 75.8799C39.2289 78.1054 38.6452 80.8052 39.5573 83.0453C40.4694 85.2855 42.3447 87.2629 44.9715 87.4234C48.1164 87.6131 49.5539 84.5996 50.1742 81.9873C50.7944 79.375 51.6335 75.8142 50.6557 73.129C49.5028 69.9913 45.2999 68.8603 42.3228 68.7217Z" fill="#5FAD00"/>
<path d="M46.4601 79.28C45.1394 75.0041 42.3447 70.9689 38.2512 69.0645H38.0979L37.9082 69.1228C37.6601 69.1958 37.412 69.2542 37.1785 69.3125C41.9434 71.0784 44.9351 75.7775 46.1609 80.5861C47.7224 86.73 47.1971 93.3774 47.2117 99.66C47.2117 99.7471 47.2463 99.8306 47.3078 99.8922C47.3694 99.9538 47.4529 99.9883 47.54 99.9883C47.6271 99.9883 47.7106 99.9538 47.7722 99.8922C47.8338 99.8306 47.8684 99.7471 47.8684 99.66C47.8465 92.9761 48.4959 85.7742 46.4601 79.28Z" fill="#297600"/>
<defs>
<linearGradient id="paint0_linear_2923:19016" x1="122.485" y1="188.644" x2="225.451" y2="120.302" gradientUnits="userSpaceOnUse">
<stop stop-color="white" stop-opacity="0"/>
<stop offset="0.99" stop-color="#754C24"/>
</linearGradient>
<linearGradient id="paint1_linear_2923:19016" x1="5827.41" y1="1855.37" x2="5729.09" y2="1610.71" gradientUnits="userSpaceOnUse">
<stop stop-color="white" stop-opacity="0"/>
<stop offset="0.99" stop-color="#754C24"/>
</linearGradient>
<linearGradient id="paint2_linear_2923:19016" x1="5729.58" y1="3120.72" x2="5588.97" y2="2770.29" gradientUnits="userSpaceOnUse">
<stop stop-color="white" stop-opacity="0"/>
<stop offset="0.99" stop-color="#754C24"/>
</linearGradient>
<linearGradient id="paint3_linear_2923:19016" x1="6534.68" y1="2810.46" x2="6394.08" y2="2460.04" gradientUnits="userSpaceOnUse">
<stop stop-color="white" stop-opacity="0"/>
<stop offset="0.99" stop-color="#754C24"/>
</linearGradient>
<linearGradient id="paint4_linear_2923:19016" x1="2425.33" y1="5097.11" x2="3053.42" y2="4384.35" gradientUnits="userSpaceOnUse">
<stop stop-color="white" stop-opacity="0"/>
<stop offset="0.99" stop-color="#754C24"/>
</linearGradient>
</defs>
</svg>
