<svg width="266" height="200" viewBox="0 0 266 200" fill="none" xmlns="http://www.w3.org/2000/svg">
<path d="M29.6208 102.077L111.159 54.657C111.745 54.3187 112.41 54.1406 113.086 54.1406C113.763 54.1406 114.427 54.3187 115.013 54.657L236.953 124.44C237.541 124.777 238.03 125.264 238.37 125.851C238.711 126.439 238.89 127.105 238.89 127.783C238.89 128.462 238.711 129.128 238.37 129.715C238.03 130.303 237.541 130.789 236.953 131.127L158.99 176.145C157.074 177.251 154.9 177.834 152.688 177.834C150.475 177.834 148.302 177.251 146.386 176.145L29.6274 108.751C29.0416 108.413 28.555 107.927 28.2165 107.341C27.878 106.756 27.6994 106.092 27.6987 105.416C27.6981 104.739 27.8753 104.075 28.2127 103.489C28.55 102.903 29.0357 102.416 29.6208 102.077Z" fill="#FFD24D"/>
<path d="M78.1749 81.4648L30.2178 109.029L66.8971 130.205L133.31 93.1672" fill="#68E1FD"/>
<path d="M104.545 108.279L66.8971 130.205L112.579 156.568L164.821 121.58" fill="#F78546"/>
<path d="M187.496 118.131V151.858L147.314 176.404L140.68 172.775L112.579 156.568L146.412 133.349" fill="#FFA7BD"/>
<path style="mix-blend-mode:multiply" opacity="0.63" d="M84.9814 87.1755L119.923 107.668L140.176 95.3618L111.57 78.6641" fill="url(#paint0_linear_3169:19587)"/>
<path style="mix-blend-mode:multiply" opacity="0.63" d="M109.633 113.394L144.574 133.887L164.821 121.581L136.222 104.883" fill="url(#paint1_linear_3169:19587)"/>
<path d="M116.828 81.8881C130.046 77.8671 136.23 59.7119 130.641 41.3374C125.051 22.9628 109.804 11.3271 96.5861 15.3481C83.3678 19.3692 77.1835 37.5244 82.7731 55.8989C88.3627 74.2734 103.61 85.9092 116.828 81.8881Z" fill="#68E1FD"/>
<path d="M122.815 89.5714C122.815 89.5714 122.152 78.9105 121.899 76.3034C121.674 73.9218 120.878 63.4467 114.33 60.1364C106.051 55.957 96.5046 50.5237 87.6814 53.0513C80.5366 55.1012 78.0953 79.8393 78.1749 81.4912C78.3208 84.43 100.492 100.106 122.815 89.5714Z" fill="#7342CC"/>
<path d="M91.549 38.9203C91.549 38.9203 89.7977 37.4874 88.776 34.1638C87.7544 30.8401 89.4394 26.0239 93.0549 25.5794C96.6705 25.1349 97.7717 27.0256 97.7717 27.0256C97.7717 27.0256 111.186 24.6506 113.255 35.1721C113.634 38.1176 115.246 48.805 106.529 51.1468C97.8115 53.4886 100.943 41.1096 100.943 41.1096" fill="#4B1B13"/>
<path d="M91.1908 36.5977C91.1908 36.5977 91.224 43.5235 91.1908 46.0975C91.151 48.8108 92.2987 56.1347 96.7567 55.9026C101.215 55.6704 105.786 50.4826 105.786 49.2686C105.786 49.2686 110.29 46.4624 107.776 44.3064C105.261 42.1503 105.029 45.799 105.029 45.799C105.029 45.799 103.649 43.8088 103.557 38.4021C99.3473 38.9265 95.0746 38.303 91.1908 36.5977Z" fill="#FFAC73"/>
<path d="M105.58 56.4742C103.304 58.5705 99.6093 58.9619 96.1862 58.4643C95.9293 58.4466 95.6864 58.3404 95.499 58.1638C95.3115 57.9872 95.191 57.7512 95.1579 57.4958C95.1048 56.4476 95.0385 55.3994 94.9456 54.3513L106.708 48.5996L105.799 56.096C105.799 56.096 105.726 56.2486 105.58 56.4742Z" fill="#FFAC73"/>
<path d="M97.5196 58.6108C97.0619 58.5777 96.6041 58.5312 96.153 58.4649C95.9064 58.449 95.6728 58.3486 95.4916 58.1807C95.3103 58.0127 95.1925 57.7874 95.1579 57.5428C95.1579 56.9988 95.1048 56.4548 95.065 55.9042C97.5528 55.9042 101.984 55.3204 104.353 50.7031C104.048 52.5208 103.249 54.2197 102.044 55.6142C100.839 57.0088 99.2738 58.0454 97.5196 58.6108Z" fill="#E5894A"/>
<path d="M106.708 54.0664C105.759 54.7298 104.777 55.3003 103.789 55.8775C102.403 56.7366 100.934 57.4524 99.4036 58.0136C98.1299 58.4448 95.9075 59.0751 95.1513 57.4763C95.0832 57.1896 95.0675 56.8929 95.1048 56.6006C95.1245 56.2441 95.1112 55.8866 95.065 55.5325C94.4613 55.3094 93.9325 54.9209 93.5392 54.4114C93.5091 54.3725 93.4887 54.327 93.4795 54.2787C93.4795 54.2787 90.3881 63.1218 90.8856 63.5132C91.3832 63.9046 95.0783 61.7685 95.0783 61.7685C95.0783 61.7685 96.6704 65.0257 97.3007 65.3508C97.9309 65.6759 106.064 58.5244 107.152 56.4878L106.708 54.0664Z" fill="#D4DEE8"/>
<path d="M91.9338 63.1485C91.748 63.2215 91.3367 65.0989 91.9338 66.8834C91.9338 66.8834 93.453 67.5468 93.7382 67.4606C94.0235 67.3743 96.5112 64.5549 96.3918 64.3957C96.2724 64.2365 94.866 61.6426 94.866 61.6426L91.9338 63.1485Z" fill="#F47A63"/>
<path d="M91.9338 66.8828C91.9338 66.8828 86.4939 88.0651 86.8654 88.2443C87.2369 88.4234 91.9537 90.858 93.6255 90.9708L93.7382 67.46" fill="#F47A63"/>
<path d="M92.6304 47.1058C93.92 47.1058 94.9655 45.686 94.9655 43.9347C94.9655 42.1834 93.92 40.7637 92.6304 40.7637C91.3407 40.7637 90.2952 42.1834 90.2952 43.9347C90.2952 45.686 91.3407 47.1058 92.6304 47.1058Z" stroke="#42210B" stroke-width="0.76125" stroke-miterlimit="10"/>
<path d="M99.1914 48.6136C100.62 48.6136 101.779 47.1939 101.779 45.4425C101.779 43.6912 100.62 42.2715 99.1914 42.2715C97.7625 42.2715 96.6041 43.6912 96.6041 45.4425C96.6041 47.1939 97.7625 48.6136 99.1914 48.6136Z" stroke="#42210B" stroke-width="0.76125" stroke-miterlimit="10"/>
<path d="M94.9655 44.6992L96.6041 44.9314" stroke="#42210B" stroke-width="0.76125" stroke-miterlimit="10"/>
<path d="M101.779 45.4409L105.441 44.5254" stroke="#42210B" stroke-width="0.76125" stroke-miterlimit="10"/>
<path d="M141.663 108.8C154.882 104.779 161.066 86.624 155.476 68.2495C149.887 49.8749 134.64 38.2392 121.421 42.2602C108.203 46.2813 102.019 64.4365 107.609 82.811C113.198 101.186 128.445 112.821 141.663 108.8Z" fill="#F78546"/>
<path d="M147.898 116.154C147.898 116.154 147.235 105.805 147.009 103.238C146.79 100.923 146.021 90.7528 139.659 87.5353C131.618 83.4753 122.344 78.2013 113.786 80.6559C106.847 82.6461 104.499 106.674 104.552 108.28C104.684 111.159 126.218 126.377 147.898 116.154Z" fill="#7342CC"/>
<path d="M134.086 84.7414C134.086 84.7414 135.579 93.7504 127.087 94.4602C121.15 94.9578 122.443 90.1415 122.443 90.1415C122.443 90.1415 119.538 92.4966 116.473 90.6788C113.408 88.8611 118.463 81.6765 120.752 81.1989C123.041 80.7212 128.567 80.8539 134.086 84.7414Z" fill="#68E1FD"/>
<path d="M135.937 68.7792C139.641 68.7792 142.644 65.7763 142.644 62.0722C142.644 58.368 139.641 55.3652 135.937 55.3652C132.233 55.3652 129.23 58.368 129.23 62.0722C129.23 65.7763 132.233 68.7792 135.937 68.7792Z" fill="#4B1B13"/>
<path d="M116.838 67.6719C115.773 66.3331 115.159 64.691 115.086 62.9817C114.989 62.1584 115.027 61.3248 115.199 60.5139C115.457 59.6701 116.03 58.9577 116.798 58.5237C117.371 58.1481 117.895 57.7024 118.357 57.1969C118.357 57.1969 135.891 53.7936 137.901 64.0033C138.272 66.8626 138.053 75.4934 130.212 79.1089C122.251 82.7775 125.946 69.7683 125.946 69.7683" fill="#4B1B13"/>
<path d="M121.077 82.2007L131.539 77.0859L130.656 84.3833C130.656 84.3833 130.583 84.5226 130.444 84.7416C128.547 86.4929 125.628 87.0104 122.729 86.8246C122.418 86.8014 122.126 86.6696 121.903 86.4526C121.68 86.2355 121.54 85.9468 121.508 85.6372C121.402 84.4696 121.276 83.3285 121.077 82.2007Z" fill="#FFAC73"/>
<path d="M116.499 65.7285C116.499 65.7285 115.882 62.312 119.73 61.7481C120.758 61.5889 121.72 61.5823 122.384 62.5442C123.153 63.725 123.259 65.1314 124.374 66.1332C124.925 66.614 125.6 66.931 126.323 67.0482C127.045 67.1655 127.785 67.0783 128.461 66.7966C128.461 67.931 128.321 68.7868 126.935 69.1516C125.548 69.5165 117.581 67.9575 116.499 65.7285Z" fill="#FFAC73"/>
<path d="M130.351 62.4908C126.172 61.0048 122.198 60.1292 117.747 60.7262C117.554 60.7363 117.371 60.8193 117.237 60.9584C117.103 61.0976 117.027 61.2825 117.024 61.4758C116.698 59.7046 116.267 55.2266 119.876 53.8667C124.414 52.1617 131.983 54.3178 134.08 58.4043C135.125 60.4164 135.626 62.6668 135.532 64.9322C134.066 63.7579 132.182 63.141 130.351 62.4908Z" fill="#4B1B13"/>
<path d="M121.355 84.0773L121.521 85.6098C121.521 85.6098 128.487 85.4107 129.482 79.752L121.355 84.0773Z" fill="#E28E54"/>
<path d="M116.473 65.416C116.473 65.416 116.506 72.1429 116.473 74.6373C116.44 77.2908 119.073 84.1637 121.88 84.157C126.245 84.157 130.65 78.8896 130.65 77.7353C130.65 77.7353 135.028 75.0088 132.554 72.9124C130.079 70.8161 129.9 74.3653 129.9 74.3653C129.9 74.3653 128.573 72.4149 128.467 67.1807C124.383 67.6833 120.239 67.0736 116.473 65.416Z" fill="#FFAC73"/>
<path d="M110.257 113.506C109.853 113.258 109.463 112.987 109.089 112.696C109.264 107.454 109.966 102.242 111.186 97.1398C111.398 96.2508 112.771 96.6289 112.559 97.5179C111.297 102.798 110.6 108.198 110.482 113.625L110.257 113.506Z" fill="#17283A"/>
<path d="M136.952 119.384C136.75 119.387 136.548 119.405 136.348 119.437L135.824 101.485C135.824 101.297 135.899 101.116 136.032 100.983C136.165 100.85 136.346 100.775 136.534 100.775C136.722 100.775 136.903 100.85 137.036 100.983C137.169 101.116 137.244 101.297 137.244 101.485L137.761 119.324C137.49 119.322 137.22 119.342 136.952 119.384Z" fill="#17283A"/>
<path d="M131.764 79.3413C130.19 77.8301 129.12 75.8703 128.699 73.7289C128.162 70.3788 132.64 71.8913 133.343 73.3375C134.046 74.7837 133.834 78.5651 131.764 79.3413Z" fill="#4B1B13"/>
<path d="M171.62 145.277C184.838 141.256 191.022 123.101 185.433 104.726C179.843 86.3515 164.596 74.7157 151.378 78.7368C138.16 82.7579 131.976 100.913 137.565 119.288C143.155 137.662 158.402 149.298 171.62 145.277Z" fill="#FFA7BD"/>
<path style="mix-blend-mode:multiply" opacity="0.63" d="M133.907 151.613L168.848 172.105L189.102 159.799L160.503 143.102" fill="url(#paint2_linear_3169:19587)"/>
<path d="M173.93 155.321C173.93 155.321 173.266 144.661 173.014 142.053C172.789 139.672 171.993 129.197 165.445 125.886C157.166 121.707 147.619 116.274 138.796 118.801C131.651 120.851 129.21 145.589 129.29 147.241C129.436 150.18 151.606 165.85 173.93 155.321Z" fill="#7342CC"/>
<path d="M156.993 127.133C156.993 127.697 156.33 128.546 156.084 129.017C153.962 133.064 152.104 137.336 150.067 141.469C148.031 145.602 147.719 156.853 147.48 157.596C147.48 157.669 139.354 154.644 139.287 154.69C139.221 154.737 138.624 148.819 138.624 148.461C138.531 141.986 138.053 138.683 139.241 133.701C140.083 130.165 141.622 127.77 142.438 124.234C142.823 122.549 143.102 120.525 143.938 118.993C144.873 117.281 156.993 123.345 156.993 127.133Z" fill="#68E1FD"/>
<path d="M160.642 158.856C160.423 158.856 160.204 158.856 159.979 158.89C160.041 154.436 160.052 149.98 160.012 145.522C160.012 145.328 160.089 145.141 160.226 145.004C160.364 144.866 160.55 144.789 160.745 144.789C160.939 144.789 161.126 144.866 161.263 145.004C161.401 145.141 161.478 145.328 161.478 145.522C161.518 149.945 161.507 154.367 161.445 158.79L160.642 158.856Z" fill="#17283A"/>
<path d="M136.481 153.271C136.432 153.242 136.381 153.218 136.328 153.198L135.93 152.979L135.466 152.72L135.081 152.508C135.081 147.201 135.238 141.911 135.552 136.64C135.605 135.704 137.071 135.698 137.018 136.64C136.713 142.088 136.554 147.539 136.541 152.992C136.539 153.088 136.519 153.183 136.481 153.271Z" fill="#17283A"/>
<path d="M143.957 119C143.957 119 142.372 129.833 143.294 130.941L147.002 128.035L149.212 132.679L158.439 124.665L143.957 119Z" fill="#2B415D"/>
<path d="M142.306 102.348C142.306 102.348 142.339 109.274 142.306 111.848C142.266 114.561 143.414 121.885 147.872 121.653C152.33 121.42 156.9 116.233 156.9 115.019C156.9 115.019 161.405 112.212 158.891 110.056C156.376 107.9 156.144 111.549 156.144 111.549C156.144 111.549 154.764 109.559 154.671 104.152C150.462 104.676 146.189 104.053 142.306 102.348Z" fill="#FFAC73"/>
<path d="M156.695 122.224C154.419 124.32 150.724 124.712 147.301 124.214C147.044 124.197 146.801 124.09 146.614 123.914C146.426 123.737 146.306 123.501 146.273 123.246C146.22 122.198 146.153 121.149 146.06 120.101L157.823 114.35L156.914 121.846C156.914 121.846 156.834 121.999 156.695 122.224Z" fill="#FFAC73"/>
<path d="M148.601 124.36C148.144 124.327 147.686 124.281 147.235 124.214C146.987 124.197 146.754 124.094 146.574 123.923C146.393 123.753 146.278 123.525 146.246 123.279C146.246 122.735 146.193 122.191 146.153 121.641C148.641 121.641 153.073 121.057 155.441 116.439C155.138 118.26 154.339 119.963 153.133 121.36C151.926 122.757 150.358 123.795 148.601 124.36Z" fill="#E5894A"/>
<path d="M172.013 121.652C167.853 117.055 165.843 107.913 165.843 107.913H165.79C164.616 97.8629 157.444 94.8179 151.195 94.4663C144.946 94.1147 140.176 96.4565 139.838 100.702C139.499 104.948 142.332 106.673 142.332 106.673C142.332 106.673 152.947 109.751 153.65 108.437C154.353 107.124 154.486 101.06 155.109 109.008C155.315 111.662 155.262 114.269 155.242 116.896C155.234 120.126 155.5 123.35 156.038 126.535C156.423 128.897 156.774 131.537 159.076 132.824C160.92 133.803 162.981 134.302 165.068 134.273C167.156 134.244 169.202 133.688 171.018 132.658C172.238 138.548 173.108 144.504 173.625 150.497C173.625 150.497 180.922 150.039 181.771 139.146C182.62 128.253 176.179 126.25 172.013 121.652Z" fill="#4B1B13"/>
<path d="M159.167 70.9647C164.602 70.0104 168.071 63.9067 166.917 57.3317C165.762 50.7568 160.421 46.2004 154.986 47.1548C149.551 48.1092 146.082 54.2128 147.236 60.7878C148.391 67.3627 153.733 71.9191 159.167 70.9647Z" fill="#7342CC"/>
<path d="M150.048 60.4281L154.127 65.2378C154.315 65.4225 154.567 65.5261 154.831 65.5261C155.094 65.5261 155.346 65.4225 155.534 65.2378L164.092 55.6185C164.941 54.6632 163.541 53.2501 162.685 54.2121L154.127 63.8314H155.534L151.454 59.0217C150.625 58.0465 149.225 59.4596 150.048 60.4281Z" fill="#F2F2F2"/>
<path d="M188.274 115.705C193.449 114.376 196.297 108.058 194.637 101.592C192.977 95.126 187.437 90.9614 182.263 92.2899C177.089 93.6184 174.24 99.9369 175.9 106.403C177.56 112.868 183.1 117.033 188.274 115.705Z" fill="#FE3636"/>
<path d="M184.159 97.7705V108.982C184.159 109.246 184.264 109.499 184.451 109.686C184.638 109.872 184.891 109.977 185.155 109.977C185.419 109.977 185.672 109.872 185.858 109.686C186.045 109.499 186.15 109.246 186.15 108.982V97.7705C186.15 97.5066 186.045 97.2535 185.858 97.0669C185.672 96.8802 185.419 96.7754 185.155 96.7754C184.891 96.7754 184.638 96.8802 184.451 97.0669C184.264 97.2535 184.159 97.5066 184.159 97.7705Z" fill="#F2F2F2"/>
<path d="M180.226 101.891L189.069 106.966C189.296 107.087 189.561 107.116 189.809 107.046C190.057 106.976 190.268 106.812 190.398 106.59C190.528 106.367 190.566 106.103 190.505 105.852C190.444 105.602 190.288 105.385 190.07 105.248L181.207 100.173C180.98 100.051 180.715 100.022 180.467 100.092C180.219 100.162 180.008 100.326 179.878 100.549C179.748 100.771 179.71 101.035 179.771 101.286C179.832 101.536 179.988 101.753 180.206 101.891H180.226Z" fill="#F2F2F2"/>
<path d="M125.773 35.8514C131.208 34.8971 134.677 28.7934 133.523 22.2185C132.368 15.6435 127.027 11.0872 121.592 12.0415C116.157 12.9959 112.688 19.0996 113.842 25.6745C114.997 32.2494 120.339 36.8058 125.773 35.8514Z" fill="#F78546"/>
<path d="M123.869 28.7201C126.065 28.415 127.553 26.0702 127.194 23.4827C126.834 20.8952 124.763 19.045 122.568 19.35C120.372 19.6551 118.884 21.9999 119.243 24.5874C119.603 27.1748 121.674 29.0251 123.869 28.7201Z" fill="white"/>
<defs>
<linearGradient id="paint0_linear_3169:19587" x1="127.001" y1="103.721" x2="106.223" y2="85.7757" gradientUnits="userSpaceOnUse">
<stop stop-color="white" stop-opacity="0"/>
<stop offset="0.99" stop-color="#808080"/>
</linearGradient>
<linearGradient id="paint1_linear_3169:19587" x1="157237" y1="5764.4" x2="158054" y2="4424.2" gradientUnits="userSpaceOnUse">
<stop stop-color="white" stop-opacity="0"/>
<stop offset="0.99" stop-color="#808080"/>
</linearGradient>
<linearGradient id="paint2_linear_3169:19587" x1="155261" y1="7473.52" x2="156076" y2="6133.3" gradientUnits="userSpaceOnUse">
<stop stop-color="white" stop-opacity="0"/>
<stop offset="0.99" stop-color="#808080"/>
</linearGradient>
</defs>
</svg>
