<svg width="30" height="30" viewBox="0 0 30 30" fill="none" xmlns="http://www.w3.org/2000/svg">
<path d="M15 30C23.2843 30 30 23.2843 30 15C30 6.71573 23.2843 0 15 0C6.71573 0 0 6.71573 0 15C0 23.2843 6.71573 30 15 30Z" fill="#CBF0F8"/>
<path d="M14.8726 23.6974C19.7728 23.6974 23.7451 19.7357 23.7451 14.8487C23.7451 9.96169 19.7728 6 14.8726 6C9.97238 6 6 9.96169 6 14.8487C6 19.7357 9.97238 23.6974 14.8726 23.6974Z" fill="#3259A5"/>
<path d="M17.9339 15.4266C17.6629 16.8591 16.4026 17.9422 14.8877 17.9422C13.1748 17.9422 11.7866 16.5578 11.7866 14.8495C11.7866 13.1413 13.1748 11.7568 14.8877 11.7568C16.4026 11.7568 17.6629 12.8406 17.9339 14.2724H21.063C20.7713 11.1268 18.1179 8.66406 14.8877 8.66406C11.462 8.66406 8.68555 11.4336 8.68555 14.8495C8.68555 18.266 11.4626 21.035 14.8877 21.035C18.1179 21.035 20.7713 18.5722 21.063 15.4266H17.9339Z" fill="white"/>
<circle cx="15" cy="15" r="15" fill="#0A0A0A" style="mix-blend-mode:hue"/>
</svg>
