<svg width="32" height="32" viewBox="0 0 32 32" fill="none" xmlns="http://www.w3.org/2000/svg">
<path d="M16 32C24.8366 32 32 24.8366 32 16C32 7.16344 24.8366 0 16 0C7.16344 0 0 7.16344 0 16C0 24.8366 7.16344 32 16 32Z" fill="#CBF0F8"/>
<path d="M16.1311 25.2756C21.3579 25.2756 25.5951 21.0498 25.5951 15.837C25.5951 10.6242 21.3579 6.39844 16.1311 6.39844C10.9042 6.39844 6.66699 10.6242 6.66699 15.837C6.66699 21.0498 10.9042 25.2756 16.1311 25.2756Z" fill="#3259A5"/>
<path d="M19.3962 16.4517C19.1071 17.9796 17.7628 19.135 16.1469 19.135C14.3198 19.135 12.8391 17.6582 12.8391 15.8361C12.8391 14.014 14.3198 12.5372 16.1469 12.5372C17.7628 12.5372 19.1071 13.6932 19.3962 15.2205H22.7339C22.4227 11.8652 19.5924 9.23828 16.1469 9.23828C12.4927 9.23828 9.53125 12.1925 9.53125 15.8361C9.53125 19.4804 12.4934 22.4339 16.1469 22.4339C19.5924 22.4339 22.4227 19.807 22.7339 16.4517H19.3962Z" fill="white"/>
</svg>
