<svg width="18" height="14" viewBox="0 0 18 14" fill="none" xmlns="http://www.w3.org/2000/svg">
<path d="M15.6667 4.57324V4.57324C15.6667 2.41588 13.9178 0.666992 11.7604 0.666992H5.5C3.29086 0.666992 1.5 2.45785 1.5 4.66699V9.16699C1.5 11.3761 3.29086 13.167 5.5 13.167H11.6667C13.8758 13.167 15.6667 11.3761 15.6667 9.16699V8.87012" stroke="white" stroke-width="1.2"/>
<rect x="10.668" y="4" width="6.66667" height="5" rx="2" stroke="white" stroke-width="1.2"/>
<mask id="path-3-inside-1_12618_4386" fill="white">
<ellipse cx="13.1654" cy="6.50033" rx="0.833333" ry="0.833333"/>
</mask>
<ellipse cx="13.1654" cy="6.50033" rx="0.833333" ry="0.833333" fill="white"/>
<path d="M12.9987 6.50033C12.9987 6.40828 13.0733 6.33366 13.1654 6.33366V8.33366C14.1779 8.33366 14.9987 7.51285 14.9987 6.50033H12.9987ZM13.1654 6.33366C13.2574 6.33366 13.332 6.40828 13.332 6.50033H11.332C11.332 7.51285 12.1528 8.33366 13.1654 8.33366V6.33366ZM13.332 6.50033C13.332 6.59237 13.2574 6.66699 13.1654 6.66699V4.66699C12.1528 4.66699 11.332 5.4878 11.332 6.50033H13.332ZM13.1654 6.66699C13.0733 6.66699 12.9987 6.59237 12.9987 6.50033H14.9987C14.9987 5.4878 14.1779 4.66699 13.1654 4.66699V6.66699Z" fill="white" mask="url(#path-3-inside-1_12618_4386)"/>
</svg>
