<svg width="30" height="31" viewBox="0 0 30 31" fill="none" xmlns="http://www.w3.org/2000/svg">
<path d="M15 30.75C23.2843 30.75 30 24.0343 30 15.75C30 7.46573 23.2843 0.75 15 0.75C6.71573 0.75 0 7.46573 0 15.75C0 24.0343 6.71573 30.75 15 30.75Z" fill="#FDEBCE"/>
<path d="M22.6773 6.95312L15.8066 12.0561L17.0772 9.0454L22.6773 6.95312Z" fill="#E2761B" stroke="#E2761B" stroke-linecap="round" stroke-linejoin="round"/>
<path d="M6.81445 6.95312L13.6299 12.1044L12.4215 9.0454L6.81445 6.95312Z" fill="#E4761B" stroke="#E4761B" stroke-linecap="round" stroke-linejoin="round"/>
<path d="M20.2029 18.7812L18.373 21.5848L22.2883 22.662L23.4139 18.8434L20.2029 18.7812Z" fill="#E4761B" stroke="#E4761B" stroke-linecap="round" stroke-linejoin="round"/>
<path d="M6.08984 18.8434L7.20849 22.662L11.1237 21.5848L9.29386 18.7812L6.08984 18.8434Z" fill="#E4761B" stroke="#E4761B" stroke-linecap="round" stroke-linejoin="round"/>
<path d="M10.9035 14.0461L9.8125 15.6964L13.7001 15.8691L13.562 11.6914L10.9035 14.0461Z" fill="#E4761B" stroke="#E4761B" stroke-linecap="round" stroke-linejoin="round"/>
<path d="M18.5875 14.0436L15.8945 11.6406L15.8047 15.8666L19.6854 15.694L18.5875 14.0436Z" fill="#E4761B" stroke="#E4761B" stroke-linecap="round" stroke-linejoin="round"/>
<path d="M11.123 21.5848L13.457 20.4455L11.4407 18.8711L11.123 21.5848Z" fill="#E4761B" stroke="#E4761B" stroke-linecap="round" stroke-linejoin="round"/>
<path d="M16.0332 20.4455L18.3741 21.5848L18.0495 18.8711L16.0332 20.4455Z" fill="#E4761B" stroke="#E4761B" stroke-linecap="round" stroke-linejoin="round"/>
<path d="M18.376 21.5847L16.0352 20.4453L16.2216 21.9714L16.2009 22.6135L18.376 21.5847Z" fill="#D7C1B3" stroke="#D7C1B3" stroke-linecap="round" stroke-linejoin="round"/>
<path d="M11.125 21.5847L13.3001 22.6135L13.2863 21.9714L13.459 20.4453L11.125 21.5847Z" fill="#D7C1B3" stroke="#D7C1B3" stroke-linecap="round" stroke-linejoin="round"/>
<path d="M13.334 17.8617L11.3867 17.2885L12.7609 16.6602L13.334 17.8617Z" fill="#233447" stroke="#233447" stroke-linecap="round" stroke-linejoin="round"/>
<path d="M16.1582 17.8617L16.7313 16.6602L18.1124 17.2885L16.1582 17.8617Z" fill="#233447" stroke="#233447" stroke-linecap="round" stroke-linejoin="round"/>
<path d="M11.1248 21.5887L11.4562 18.7852L9.29492 18.8473L11.1248 21.5887Z" fill="#CD6116" stroke="#CD6116" stroke-linecap="round" stroke-linejoin="round"/>
<path d="M18.043 18.7852L18.3744 21.5887L20.2043 18.8473L18.043 18.7852Z" fill="#CD6116" stroke="#CD6116" stroke-linecap="round" stroke-linejoin="round"/>
<path d="M19.6874 15.6953L15.8066 15.8679L16.1657 17.8635L16.7388 16.662L18.1199 17.2904L19.6874 15.6953Z" fill="#CD6116" stroke="#CD6116" stroke-linecap="round" stroke-linejoin="round"/>
<path d="M11.3869 17.2904L12.7679 16.662L13.3342 17.8635L13.7001 15.8679L9.8125 15.6953L11.3869 17.2904Z" fill="#CD6116" stroke="#CD6116" stroke-linecap="round" stroke-linejoin="round"/>
<path d="M9.8125 15.6953L11.4421 18.8717L11.3869 17.2904L9.8125 15.6953Z" fill="#E4751F" stroke="#E4751F" stroke-linecap="round" stroke-linejoin="round"/>
<path d="M18.1198 17.2904L18.0508 18.8717L19.6873 15.6953L18.1198 17.2904Z" fill="#E4751F" stroke="#E4751F" stroke-linecap="round" stroke-linejoin="round"/>
<path d="M13.7 15.8672L13.334 17.8628L13.7897 20.2175L13.8933 17.117L13.7 15.8672Z" fill="#E4751F" stroke="#E4751F" stroke-linecap="round" stroke-linejoin="round"/>
<path d="M15.8056 15.8672L15.6191 17.1101L15.702 20.2175L16.1647 17.8628L15.8056 15.8672Z" fill="#E4751F" stroke="#E4751F" stroke-linecap="round" stroke-linejoin="round"/>
<path d="M16.1658 17.8622L15.7031 20.2169L16.0346 20.4447L18.0509 18.8704L18.1199 17.2891L16.1658 17.8622Z" fill="#F6851B" stroke="#F6851B" stroke-linecap="round" stroke-linejoin="round"/>
<path d="M11.3867 17.2891L11.442 18.8704L13.4583 20.4447L13.7897 20.2169L13.334 17.8622L11.3867 17.2891Z" fill="#F6851B" stroke="#F6851B" stroke-linecap="round" stroke-linejoin="round"/>
<path d="M16.2003 22.6109L16.221 21.9687L16.0484 21.8168H13.4452L13.2863 21.9687L13.3001 22.6109L11.125 21.582L11.8846 22.2035L13.4244 23.2738H16.0691L17.6159 22.2035L18.3755 21.582L16.2003 22.6109Z" fill="#C0AD9E" stroke="#C0AD9E" stroke-linecap="round" stroke-linejoin="round"/>
<path d="M16.0334 20.4427L15.702 20.2148H13.7892L13.4578 20.4427L13.2852 21.9688L13.444 21.8169H16.0472L16.2199 21.9688L16.0334 20.4427Z" fill="#161616" stroke="#161616" stroke-linecap="round" stroke-linejoin="round"/>
<path d="M22.966 12.3875L23.553 9.5702L22.676 6.95312L16.0332 11.8834L18.5881 14.0448L22.1996 15.1013L23.0006 14.1691L22.6553 13.9205L23.2077 13.4164L22.7796 13.085L23.332 12.6637L22.966 12.3875Z" fill="#763D16" stroke="#763D16" stroke-linecap="round" stroke-linejoin="round"/>
<path d="M5.94531 9.5702L6.53226 12.3875L6.15937 12.6637L6.71179 13.085L6.29057 13.4164L6.84299 13.9205L6.49773 14.1691L7.29183 15.1013L10.9033 14.0448L13.4582 11.8834L6.81537 6.95312L5.94531 9.5702Z" fill="#763D16" stroke="#763D16" stroke-linecap="round" stroke-linejoin="round"/>
<path d="M22.2008 15.0995L18.5894 14.043L19.6873 15.6933L18.0508 18.8697L20.2052 18.8421H23.4161L22.2008 15.0995Z" fill="#F6851B" stroke="#F6851B" stroke-linecap="round" stroke-linejoin="round"/>
<path d="M10.9028 14.043L7.29135 15.0995L6.08984 18.8421H9.29386L11.4414 18.8697L9.81175 15.6933L10.9028 14.043Z" fill="#F6851B" stroke="#F6851B" stroke-linecap="round" stroke-linejoin="round"/>
<path d="M15.8074 15.8653L16.0352 11.881L17.0848 9.04297H12.4238L13.4596 11.881L13.7013 15.8653L13.7842 17.1221L13.7911 20.2156H15.7038L15.7176 17.1221L15.8074 15.8653Z" fill="#F6851B" stroke="#F6851B" stroke-linecap="round" stroke-linejoin="round"/>
<circle cx="15" cy="15.75" r="15" fill="#0A0A0A" style="mix-blend-mode:hue"/>
</svg>
