<?xml version="1.0" encoding="UTF-8"?>
<svg xmlns="http://www.w3.org/2000/svg" xmlns:xlink="http://www.w3.org/1999/xlink" width="30px" height="30px" viewBox="0 0 30 30" version="1.1">
<g id="surface1">
<path style=" stroke:none;fill-rule:evenodd;fill:rgb(31.372549%,70.196078%,96.470588%);fill-opacity:1;" d="M 21.125 6.304688 C 21.132812 6.351562 21.15625 6.378906 21.203125 6.382812 C 21.292969 6.398438 21.285156 6.359375 21.191406 6.289062 C 21.113281 6.234375 21.113281 6.234375 21.125 6.304688 M 21.347656 6.496094 C 21.316406 6.519531 21.300781 6.558594 21.308594 6.582031 C 21.328125 6.625 21.335938 6.625 21.390625 6.578125 C 21.496094 6.484375 21.460938 6.410156 21.347656 6.496094 M 21.484375 6.6875 C 21.464844 6.75 21.429688 6.820312 21.40625 6.839844 C 21.382812 6.859375 21.371094 6.894531 21.378906 6.917969 C 21.390625 6.945312 21.375 6.960938 21.332031 6.960938 C 21.296875 6.960938 21.269531 6.980469 21.269531 7.003906 C 21.269531 7.027344 21.164062 7.15625 21.035156 7.289062 C 20.804688 7.523438 20.796875 7.539062 20.777344 7.710938 C 20.761719 7.859375 20.746094 7.890625 20.699219 7.890625 C 20.648438 7.890625 20.582031 8.035156 20.582031 8.152344 C 20.578125 8.171875 20.542969 8.191406 20.496094 8.195312 C 20.417969 8.203125 20.414062 8.210938 20.40625 8.429688 C 20.398438 8.652344 20.394531 8.65625 20.265625 8.785156 C 20.117188 8.925781 20.105469 8.980469 20.175781 9.191406 C 20.25 9.40625 20.1875 9.484375 20.070312 9.328125 C 19.898438 9.105469 19.765625 9.34375 19.890625 9.652344 C 19.914062 9.703125 19.925781 9.753906 19.917969 9.761719 C 19.898438 9.78125 19.6875 9.679688 19.636719 9.628906 C 19.597656 9.589844 19.53125 9.589844 19.53125 9.628906 C 19.53125 9.648438 19.558594 9.660156 19.589844 9.660156 C 19.636719 9.660156 19.648438 9.679688 19.648438 9.746094 C 19.648438 9.804688 19.675781 9.847656 19.738281 9.894531 C 19.789062 9.933594 19.828125 9.988281 19.828125 10.019531 C 19.828125 10.085938 19.878906 10.125 19.90625 10.082031 C 19.914062 10.0625 19.9375 10.050781 19.953125 10.050781 C 19.988281 10.050781 19.988281 10.160156 19.949219 10.183594 C 19.90625 10.210938 19.914062 10.320312 19.960938 10.414062 C 19.984375 10.460938 20.015625 10.539062 20.027344 10.59375 C 20.039062 10.648438 20.066406 10.722656 20.09375 10.761719 C 20.144531 10.84375 20.148438 11.132812 20.136719 14.605469 C 20.125 17.234375 20.125 17.25 19.980469 17.25 C 19.867188 17.25 19.851562 17.238281 18.355469 15.75 C 17.621094 15.015625 16.984375 14.386719 16.945312 14.347656 C 16.90625 14.3125 16.796875 14.203125 16.699219 14.101562 C 16.601562 14 16.515625 13.921875 16.503906 13.921875 C 16.476562 13.921875 16.378906 13.804688 16.378906 13.777344 C 16.378906 13.742188 16.1875 13.621094 16.136719 13.621094 C 16.109375 13.621094 16.089844 13.585938 16.085938 13.539062 C 16.074219 13.410156 15.929688 13.359375 15.871094 13.464844 C 15.835938 13.53125 15.902344 13.605469 16.003906 13.625 C 16.160156 13.652344 16.03125 13.871094 15.839844 13.90625 C 15.738281 13.921875 15.535156 14.089844 15.324219 14.335938 C 15.277344 14.386719 15.210938 14.429688 15.175781 14.429688 C 15.132812 14.429688 15.117188 14.445312 15.128906 14.484375 C 15.136719 14.527344 15.078125 14.601562 14.796875 14.886719 C 14.773438 14.90625 14.714844 14.96875 14.660156 15.023438 C 14.609375 15.074219 14.539062 15.121094 14.503906 15.121094 C 14.464844 15.121094 14.429688 15.152344 14.40625 15.210938 C 14.386719 15.265625 14.359375 15.296875 14.339844 15.285156 C 14.324219 15.273438 14.308594 15.296875 14.308594 15.34375 C 14.308594 15.390625 14.296875 15.414062 14.277344 15.402344 C 14.238281 15.378906 14.09375 15.53125 14.117188 15.570312 C 14.125 15.585938 14.113281 15.601562 14.089844 15.601562 C 14.023438 15.601562 14 15.65625 14.039062 15.703125 C 14.113281 15.792969 14.0625 15.914062 13.941406 15.941406 C 13.878906 15.957031 13.828125 15.988281 13.828125 16.011719 C 13.828125 16.03125 13.816406 16.050781 13.800781 16.050781 C 13.613281 16.050781 13.730469 16.332031 14.042969 16.640625 C 14.175781 16.769531 14.582031 17.175781 14.949219 17.542969 C 15.316406 17.910156 16.4375 19.035156 17.445312 20.039062 C 18.453125 21.046875 19.289062 21.882812 19.304688 21.898438 C 19.398438 21.996094 21.511719 24.101562 21.609375 24.191406 C 21.671875 24.25 21.738281 24.300781 21.757812 24.300781 C 21.777344 24.300781 21.832031 24.335938 21.878906 24.378906 C 22.234375 24.707031 23.371094 24.496094 23.558594 24.066406 C 23.578125 24.019531 23.628906 23.9375 23.675781 23.878906 C 23.824219 23.6875 23.84375 23.523438 23.867188 22.15625 C 23.910156 19.914062 23.882812 12.082031 23.832031 11.308594 C 23.789062 10.644531 23.703125 10.066406 23.621094 9.871094 C 23.601562 9.828125 23.578125 9.734375 23.566406 9.664062 C 23.542969 9.527344 23.503906 9.421875 23.382812 9.164062 C 23.347656 9.082031 23.304688 8.972656 23.292969 8.925781 C 23.28125 8.875 23.226562 8.765625 23.171875 8.683594 C 23.117188 8.597656 23.070312 8.515625 23.070312 8.5 C 23.070312 8.460938 22.980469 8.296875 22.867188 8.117188 C 22.8125 8.035156 22.769531 7.953125 22.769531 7.933594 C 22.769531 7.914062 22.722656 7.851562 22.664062 7.792969 C 22.605469 7.730469 22.558594 7.675781 22.558594 7.667969 C 22.558594 7.660156 22.53125 7.625 22.5 7.585938 C 22.46875 7.546875 22.398438 7.46875 22.351562 7.410156 C 22.300781 7.351562 22.261719 7.292969 22.261719 7.273438 C 22.261719 7.257812 22.21875 7.21875 22.171875 7.183594 C 22.121094 7.152344 22.082031 7.117188 22.078125 7.105469 C 22.078125 7.085938 21.9375 6.929688 21.917969 6.929688 C 21.910156 6.929688 21.859375 6.886719 21.800781 6.832031 C 21.742188 6.777344 21.65625 6.699219 21.605469 6.65625 L 21.519531 6.574219 L 21.484375 6.6875 M 21.699219 6.949219 C 21.71875 6.96875 21.609375 7.078125 21.566406 7.078125 C 21.550781 7.078125 21.539062 7.046875 21.539062 7.003906 C 21.539062 6.933594 21.644531 6.894531 21.699219 6.949219 M 21.359375 7.480469 C 21.339844 7.503906 21.332031 7.480469 21.332031 7.410156 C 21.332031 7.3125 21.335938 7.308594 21.363281 7.378906 C 21.382812 7.425781 21.382812 7.460938 21.359375 7.480469 "/>
<path style=" stroke:none;fill-rule:evenodd;fill:rgb(61.960784%,39.215686%,98.039216%);fill-opacity:1;" d="M 7.574219 5.449219 C 7.542969 5.457031 7.433594 5.476562 7.335938 5.496094 C 6.726562 5.605469 6.292969 6.121094 6.230469 6.808594 C 6.203125 7.132812 6.226562 18.027344 6.253906 18.375 C 6.265625 18.472656 6.289062 18.625 6.316406 18.707031 C 6.339844 18.789062 6.355469 18.953125 6.355469 19.066406 C 6.347656 19.445312 6.492188 19.796875 6.535156 19.507812 C 6.539062 19.472656 6.570312 19.433594 6.601562 19.425781 C 6.636719 19.414062 6.71875 19.347656 6.792969 19.273438 C 6.925781 19.136719 7.007812 19.113281 7.105469 19.175781 C 7.152344 19.203125 7.183594 19.1875 7.308594 19.054688 C 7.402344 18.960938 7.484375 18.898438 7.527344 18.898438 C 7.5625 18.898438 7.601562 18.878906 7.609375 18.855469 C 7.617188 18.832031 7.65625 18.808594 7.691406 18.808594 C 7.730469 18.808594 7.804688 18.761719 7.859375 18.703125 C 7.917969 18.644531 7.992188 18.601562 8.03125 18.601562 C 8.070312 18.601562 8.101562 18.585938 8.101562 18.570312 C 8.101562 18.535156 8.332031 18.421875 8.402344 18.421875 C 8.429688 18.421875 8.476562 18.394531 8.503906 18.359375 C 8.535156 18.328125 8.582031 18.300781 8.613281 18.300781 C 8.679688 18.300781 8.90625 18.066406 8.910156 17.996094 C 8.910156 17.945312 8.984375 17.921875 9.234375 17.890625 C 9.335938 17.878906 9.371094 17.859375 9.390625 17.800781 C 9.40625 17.761719 9.441406 17.722656 9.472656 17.710938 C 9.5 17.703125 9.546875 17.683594 9.570312 17.667969 C 9.59375 17.652344 9.660156 17.617188 9.710938 17.59375 C 10.015625 17.457031 10.066406 16.976562 10.082031 14.324219 C 10.085938 13.027344 10.089844 13.007812 10.210938 12.996094 C 10.28125 12.988281 10.421875 13.117188 11.421875 14.109375 C 12.46875 15.148438 12.691406 15.363281 13.363281 15.992188 C 13.496094 16.113281 13.640625 16.253906 13.6875 16.296875 C 13.792969 16.402344 13.804688 16.402344 13.75 16.289062 C 13.699219 16.191406 13.730469 16.050781 13.800781 16.050781 C 13.816406 16.050781 13.828125 16.03125 13.828125 16.011719 C 13.828125 15.988281 13.878906 15.957031 13.941406 15.941406 C 14.0625 15.914062 14.113281 15.792969 14.039062 15.703125 C 14 15.65625 14.023438 15.601562 14.089844 15.601562 C 14.113281 15.601562 14.125 15.585938 14.117188 15.570312 C 14.09375 15.53125 14.238281 15.378906 14.277344 15.402344 C 14.296875 15.414062 14.308594 15.390625 14.308594 15.34375 C 14.308594 15.296875 14.324219 15.273438 14.339844 15.285156 C 14.359375 15.296875 14.386719 15.265625 14.40625 15.210938 C 14.429688 15.152344 14.464844 15.121094 14.503906 15.121094 C 14.539062 15.121094 14.609375 15.074219 14.660156 15.023438 C 14.714844 14.96875 14.773438 14.90625 14.796875 14.886719 C 15.078125 14.601562 15.136719 14.527344 15.128906 14.484375 C 15.117188 14.445312 15.132812 14.429688 15.175781 14.429688 C 15.210938 14.429688 15.277344 14.386719 15.324219 14.335938 C 15.535156 14.089844 15.738281 13.921875 15.839844 13.90625 C 16.03125 13.871094 16.160156 13.652344 16.003906 13.625 C 15.855469 13.597656 15.808594 13.460938 15.933594 13.414062 C 15.992188 13.394531 16 13.40625 15.503906 12.871094 C 15.089844 12.425781 13.742188 11.046875 12.570312 9.867188 C 11.851562 9.148438 10.683594 7.972656 9.976562 7.253906 C 8.566406 5.832031 8.425781 5.699219 8.203125 5.597656 C 7.992188 5.5 7.6875 5.429688 7.574219 5.449219 "/>
<path style=" stroke:none;fill-rule:evenodd;fill:rgb(98.431373%,98.431373%,98.431373%);fill-opacity:1;" d="M 13.261719 0.03125 C 13.261719 0.046875 13.125 0.0585938 12.914062 0.0585938 C 12.632812 0.0585938 12.566406 0.0703125 12.550781 0.105469 C 12.539062 0.140625 12.476562 0.148438 12.253906 0.148438 C 12.035156 0.148438 11.972656 0.160156 11.960938 0.195312 C 11.945312 0.226562 11.894531 0.238281 11.757812 0.238281 C 11.601562 0.238281 11.570312 0.25 11.558594 0.300781 C 11.546875 0.351562 11.519531 0.359375 11.351562 0.359375 C 11.203125 0.359375 11.160156 0.371094 11.160156 0.40625 C 11.160156 0.441406 11.117188 0.449219 10.964844 0.449219 C 10.816406 0.449219 10.765625 0.460938 10.75 0.496094 C 10.738281 0.527344 10.691406 0.539062 10.597656 0.539062 C 10.488281 0.539062 10.460938 0.550781 10.449219 0.601562 C 10.4375 0.648438 10.40625 0.660156 10.285156 0.660156 C 10.175781 0.660156 10.140625 0.671875 10.140625 0.703125 C 10.140625 0.738281 10.105469 0.75 10.003906 0.75 C 9.910156 0.75 9.863281 0.765625 9.851562 0.796875 C 9.839844 0.824219 9.789062 0.839844 9.699219 0.839844 C 9.589844 0.839844 9.5625 0.851562 9.546875 0.898438 C 9.539062 0.941406 9.507812 0.960938 9.445312 0.960938 C 9.390625 0.960938 9.359375 0.976562 9.359375 1.003906 C 9.359375 1.039062 9.324219 1.050781 9.210938 1.050781 C 9.097656 1.050781 9.058594 1.0625 9.058594 1.09375 C 9.058594 1.125 9.027344 1.140625 8.953125 1.140625 C 8.871094 1.140625 8.851562 1.152344 8.851562 1.199219 C 8.851562 1.25 8.828125 1.261719 8.746094 1.261719 C 8.671875 1.261719 8.640625 1.273438 8.640625 1.304688 C 8.640625 1.335938 8.609375 1.351562 8.550781 1.351562 C 8.488281 1.351562 8.460938 1.363281 8.460938 1.394531 C 8.460938 1.425781 8.429688 1.441406 8.355469 1.441406 C 8.285156 1.441406 8.230469 1.460938 8.199219 1.5 C 8.167969 1.53125 8.121094 1.558594 8.09375 1.558594 C 8.0625 1.558594 8.039062 1.582031 8.039062 1.605469 C 8.039062 1.636719 8.011719 1.648438 7.949219 1.648438 C 7.890625 1.648438 7.859375 1.664062 7.859375 1.695312 C 7.859375 1.726562 7.828125 1.738281 7.753906 1.738281 C 7.671875 1.738281 7.648438 1.75 7.648438 1.800781 C 7.648438 1.847656 7.628906 1.859375 7.546875 1.859375 C 7.472656 1.859375 7.441406 1.875 7.441406 1.90625 C 7.441406 1.933594 7.410156 1.949219 7.351562 1.949219 C 7.289062 1.949219 7.261719 1.964844 7.261719 1.996094 C 7.261719 2.019531 7.238281 2.039062 7.210938 2.039062 C 7.1875 2.039062 7.15625 2.066406 7.148438 2.101562 C 7.136719 2.140625 7.109375 2.160156 7.046875 2.160156 C 6.988281 2.160156 6.960938 2.175781 6.960938 2.203125 C 6.960938 2.230469 6.933594 2.25 6.890625 2.25 C 6.847656 2.25 6.800781 2.269531 6.78125 2.296875 C 6.757812 2.320312 6.722656 2.339844 6.703125 2.339844 C 6.679688 2.339844 6.660156 2.367188 6.660156 2.398438 C 6.660156 2.445312 6.640625 2.460938 6.570312 2.460938 C 6.515625 2.460938 6.472656 2.480469 6.460938 2.503906 C 6.453125 2.53125 6.425781 2.550781 6.402344 2.550781 C 6.378906 2.550781 6.359375 2.570312 6.359375 2.59375 C 6.359375 2.621094 6.339844 2.640625 6.3125 2.640625 C 6.285156 2.640625 6.257812 2.667969 6.25 2.699219 C 6.238281 2.742188 6.207031 2.761719 6.144531 2.761719 C 6.089844 2.761719 6.058594 2.773438 6.058594 2.804688 C 6.058594 2.828125 6.035156 2.851562 6 2.851562 C 5.964844 2.851562 5.941406 2.871094 5.941406 2.894531 C 5.941406 2.917969 5.917969 2.941406 5.894531 2.941406 C 5.871094 2.941406 5.851562 2.964844 5.851562 3 C 5.851562 3.046875 5.828125 3.058594 5.746094 3.058594 C 5.671875 3.058594 5.640625 3.074219 5.640625 3.105469 C 5.640625 3.128906 5.621094 3.148438 5.59375 3.148438 C 5.570312 3.148438 5.550781 3.171875 5.550781 3.195312 C 5.550781 3.21875 5.53125 3.238281 5.503906 3.238281 C 5.480469 3.238281 5.460938 3.265625 5.460938 3.300781 C 5.460938 3.339844 5.441406 3.359375 5.398438 3.359375 C 5.367188 3.359375 5.339844 3.378906 5.339844 3.40625 C 5.339844 3.433594 5.308594 3.449219 5.25 3.449219 C 5.195312 3.449219 5.160156 3.464844 5.160156 3.492188 C 5.160156 3.515625 5.132812 3.539062 5.101562 3.546875 C 5.066406 3.558594 5.039062 3.585938 5.039062 3.613281 C 5.039062 3.636719 5.019531 3.660156 4.996094 3.660156 C 4.96875 3.660156 4.949219 3.679688 4.949219 3.703125 C 4.949219 3.730469 4.929688 3.75 4.90625 3.75 C 4.878906 3.75 4.859375 3.769531 4.859375 3.792969 C 4.859375 3.8125 4.832031 3.839844 4.800781 3.847656 C 4.765625 3.855469 4.738281 3.886719 4.738281 3.914062 C 4.738281 3.9375 4.71875 3.960938 4.695312 3.960938 C 4.671875 3.960938 4.648438 3.980469 4.648438 4.003906 C 4.648438 4.03125 4.628906 4.050781 4.605469 4.050781 C 4.582031 4.050781 4.558594 4.070312 4.558594 4.089844 C 4.558594 4.113281 4.53125 4.140625 4.5 4.148438 C 4.46875 4.15625 4.441406 4.1875 4.441406 4.210938 C 4.441406 4.238281 4.417969 4.261719 4.394531 4.261719 C 4.371094 4.261719 4.351562 4.28125 4.351562 4.304688 C 4.351562 4.328125 4.328125 4.351562 4.304688 4.351562 C 4.28125 4.351562 4.261719 4.367188 4.261719 4.390625 C 4.261719 4.414062 4.234375 4.441406 4.199219 4.449219 C 4.167969 4.457031 4.140625 4.484375 4.140625 4.511719 C 4.140625 4.539062 4.121094 4.558594 4.09375 4.558594 C 4.070312 4.558594 4.050781 4.582031 4.050781 4.605469 C 4.050781 4.628906 4.03125 4.648438 4.003906 4.648438 C 3.980469 4.648438 3.960938 4.667969 3.960938 4.691406 C 3.960938 4.714844 3.933594 4.738281 3.898438 4.75 C 3.867188 4.757812 3.839844 4.785156 3.839844 4.8125 C 3.839844 4.839844 3.820312 4.859375 3.796875 4.859375 C 3.769531 4.859375 3.75 4.878906 3.75 4.90625 C 3.75 4.929688 3.730469 4.949219 3.703125 4.949219 C 3.679688 4.949219 3.660156 4.96875 3.660156 4.992188 C 3.660156 5.015625 3.632812 5.039062 3.601562 5.046875 C 3.566406 5.058594 3.539062 5.085938 3.539062 5.113281 C 3.539062 5.136719 3.519531 5.160156 3.496094 5.160156 C 3.464844 5.160156 3.449219 5.191406 3.449219 5.25 C 3.449219 5.308594 3.433594 5.339844 3.40625 5.339844 C 3.378906 5.339844 3.359375 5.367188 3.359375 5.398438 C 3.359375 5.441406 3.339844 5.460938 3.300781 5.460938 C 3.265625 5.460938 3.238281 5.480469 3.238281 5.503906 C 3.238281 5.53125 3.21875 5.550781 3.195312 5.550781 C 3.171875 5.550781 3.148438 5.570312 3.148438 5.59375 C 3.148438 5.621094 3.128906 5.640625 3.105469 5.640625 C 3.074219 5.640625 3.058594 5.671875 3.058594 5.746094 C 3.058594 5.828125 3.046875 5.851562 3 5.851562 C 2.964844 5.851562 2.941406 5.871094 2.941406 5.894531 C 2.941406 5.917969 2.917969 5.941406 2.894531 5.941406 C 2.871094 5.941406 2.851562 5.964844 2.851562 6 C 2.851562 6.035156 2.828125 6.058594 2.804688 6.058594 C 2.773438 6.058594 2.761719 6.089844 2.761719 6.144531 C 2.761719 6.207031 2.742188 6.238281 2.699219 6.25 C 2.667969 6.257812 2.640625 6.285156 2.640625 6.3125 C 2.640625 6.339844 2.621094 6.359375 2.59375 6.359375 C 2.570312 6.359375 2.550781 6.378906 2.550781 6.402344 C 2.550781 6.425781 2.53125 6.453125 2.503906 6.460938 C 2.480469 6.472656 2.460938 6.515625 2.460938 6.570312 C 2.460938 6.640625 2.445312 6.660156 2.398438 6.660156 C 2.367188 6.660156 2.339844 6.679688 2.339844 6.703125 C 2.339844 6.722656 2.320312 6.757812 2.296875 6.78125 C 2.269531 6.800781 2.25 6.847656 2.25 6.890625 C 2.25 6.933594 2.230469 6.960938 2.203125 6.960938 C 2.175781 6.960938 2.160156 6.988281 2.160156 7.050781 C 2.160156 7.113281 2.144531 7.140625 2.113281 7.140625 C 2.085938 7.140625 2.058594 7.167969 2.046875 7.199219 C 2.039062 7.234375 2.015625 7.261719 1.992188 7.261719 C 1.964844 7.261719 1.949219 7.292969 1.949219 7.351562 C 1.949219 7.410156 1.933594 7.441406 1.90625 7.441406 C 1.875 7.441406 1.859375 7.472656 1.859375 7.546875 C 1.859375 7.628906 1.847656 7.648438 1.800781 7.648438 C 1.75 7.648438 1.738281 7.671875 1.738281 7.753906 C 1.738281 7.828125 1.726562 7.859375 1.695312 7.859375 C 1.664062 7.859375 1.648438 7.890625 1.648438 7.949219 C 1.648438 8.011719 1.636719 8.039062 1.605469 8.039062 C 1.582031 8.039062 1.558594 8.0625 1.558594 8.09375 C 1.558594 8.121094 1.53125 8.167969 1.5 8.199219 C 1.460938 8.230469 1.441406 8.285156 1.441406 8.355469 C 1.441406 8.429688 1.425781 8.460938 1.394531 8.460938 C 1.363281 8.460938 1.351562 8.488281 1.351562 8.550781 C 1.351562 8.609375 1.335938 8.640625 1.304688 8.640625 C 1.273438 8.640625 1.261719 8.671875 1.261719 8.746094 C 1.261719 8.828125 1.25 8.851562 1.199219 8.851562 C 1.152344 8.851562 1.140625 8.871094 1.140625 8.953125 C 1.140625 9.027344 1.125 9.058594 1.09375 9.058594 C 1.0625 9.058594 1.050781 9.097656 1.050781 9.210938 C 1.050781 9.324219 1.039062 9.359375 1.003906 9.359375 C 0.976562 9.359375 0.960938 9.390625 0.960938 9.445312 C 0.960938 9.507812 0.941406 9.539062 0.898438 9.546875 C 0.851562 9.5625 0.839844 9.589844 0.839844 9.699219 C 0.839844 9.789062 0.824219 9.839844 0.796875 9.851562 C 0.765625 9.863281 0.75 9.910156 0.75 10.003906 C 0.75 10.105469 0.738281 10.140625 0.703125 10.140625 C 0.671875 10.140625 0.660156 10.175781 0.660156 10.285156 C 0.660156 10.40625 0.648438 10.4375 0.601562 10.449219 C 0.550781 10.460938 0.539062 10.488281 0.539062 10.597656 C 0.539062 10.691406 0.527344 10.738281 0.496094 10.75 C 0.460938 10.765625 0.449219 10.816406 0.449219 10.964844 C 0.449219 11.117188 0.441406 11.160156 0.40625 11.160156 C 0.371094 11.160156 0.359375 11.203125 0.359375 11.351562 C 0.359375 11.519531 0.351562 11.546875 0.300781 11.558594 C 0.25 11.570312 0.238281 11.601562 0.238281 11.757812 C 0.238281 11.894531 0.226562 11.945312 0.195312 11.960938 C 0.160156 11.972656 0.148438 12.035156 0.148438 12.253906 C 0.148438 12.476562 0.140625 12.539062 0.105469 12.550781 C 0.0703125 12.566406 0.0585938 12.632812 0.0585938 12.914062 C 0.0585938 13.125 0.046875 13.261719 0.03125 13.261719 C 0.0117188 13.261719 0 13.859375 0 15 C 0 16.140625 0.0117188 16.738281 0.03125 16.738281 C 0.046875 16.738281 0.0585938 16.875 0.0585938 17.085938 C 0.0585938 17.367188 0.0703125 17.433594 0.105469 17.449219 C 0.140625 17.460938 0.148438 17.523438 0.148438 17.746094 C 0.148438 17.964844 0.160156 18.027344 0.195312 18.039062 C 0.226562 18.054688 0.238281 18.105469 0.238281 18.242188 C 0.238281 18.398438 0.25 18.429688 0.300781 18.441406 C 0.351562 18.453125 0.359375 18.480469 0.359375 18.648438 C 0.359375 18.796875 0.371094 18.839844 0.40625 18.839844 C 0.441406 18.839844 0.449219 18.882812 0.449219 19.035156 C 0.449219 19.183594 0.460938 19.234375 0.496094 19.25 C 0.527344 19.261719 0.539062 19.308594 0.539062 19.402344 C 0.539062 19.511719 0.550781 19.539062 0.601562 19.550781 C 0.648438 19.5625 0.660156 19.59375 0.660156 19.714844 C 0.660156 19.824219 0.671875 19.859375 0.703125 19.859375 C 0.738281 19.859375 0.75 19.894531 0.75 19.996094 C 0.75 20.089844 0.765625 20.136719 0.796875 20.148438 C 0.824219 20.160156 0.839844 20.210938 0.839844 20.300781 C 0.839844 20.410156 0.851562 20.4375 0.898438 20.453125 C 0.941406 20.460938 0.960938 20.492188 0.960938 20.554688 C 0.960938 20.609375 0.976562 20.640625 1.003906 20.640625 C 1.039062 20.640625 1.050781 20.675781 1.050781 20.789062 C 1.050781 20.902344 1.0625 20.941406 1.09375 20.941406 C 1.125 20.941406 1.140625 20.972656 1.140625 21.046875 C 1.140625 21.128906 1.152344 21.148438 1.199219 21.148438 C 1.25 21.148438 1.261719 21.171875 1.261719 21.253906 C 1.261719 21.328125 1.273438 21.359375 1.304688 21.359375 C 1.335938 21.359375 1.351562 21.390625 1.351562 21.449219 C 1.351562 21.511719 1.363281 21.539062 1.394531 21.539062 C 1.425781 21.539062 1.441406 21.570312 1.441406 21.644531 C 1.441406 21.714844 1.460938 21.769531 1.5 21.800781 C 1.53125 21.832031 1.558594 21.878906 1.558594 21.90625 C 1.558594 21.9375 1.582031 21.960938 1.605469 21.960938 C 1.636719 21.960938 1.648438 21.988281 1.648438 22.050781 C 1.648438 22.109375 1.664062 22.140625 1.695312 22.140625 C 1.726562 22.140625 1.738281 22.171875 1.738281 22.246094 C 1.738281 22.328125 1.75 22.351562 1.800781 22.351562 C 1.847656 22.351562 1.859375 22.371094 1.859375 22.453125 C 1.859375 22.527344 1.875 22.558594 1.90625 22.558594 C 1.933594 22.558594 1.949219 22.589844 1.949219 22.648438 C 1.949219 22.710938 1.964844 22.738281 1.996094 22.738281 C 2.019531 22.738281 2.039062 22.761719 2.039062 22.789062 C 2.039062 22.8125 2.066406 22.84375 2.101562 22.851562 C 2.140625 22.863281 2.160156 22.890625 2.160156 22.953125 C 2.160156 23.011719 2.175781 23.039062 2.203125 23.039062 C 2.230469 23.039062 2.25 23.066406 2.25 23.109375 C 2.25 23.152344 2.269531 23.199219 2.296875 23.21875 C 2.320312 23.242188 2.339844 23.277344 2.339844 23.296875 C 2.339844 23.320312 2.367188 23.339844 2.398438 23.339844 C 2.445312 23.339844 2.460938 23.359375 2.460938 23.429688 C 2.460938 23.484375 2.480469 23.527344 2.503906 23.539062 C 2.53125 23.546875 2.550781 23.574219 2.550781 23.597656 C 2.550781 23.621094 2.570312 23.640625 2.59375 23.640625 C 2.621094 23.640625 2.640625 23.660156 2.640625 23.6875 C 2.640625 23.714844 2.667969 23.742188 2.699219 23.75 C 2.742188 23.761719 2.761719 23.792969 2.761719 23.855469 C 2.761719 23.910156 2.773438 23.941406 2.804688 23.941406 C 2.828125 23.941406 2.851562 23.964844 2.851562 24 C 2.851562 24.035156 2.871094 24.058594 2.894531 24.058594 C 2.917969 24.058594 2.941406 24.082031 2.941406 24.105469 C 2.941406 24.128906 2.964844 24.148438 3 24.148438 C 3.046875 24.148438 3.058594 24.171875 3.058594 24.253906 C 3.058594 24.328125 3.074219 24.359375 3.105469 24.359375 C 3.128906 24.359375 3.148438 24.378906 3.148438 24.40625 C 3.148438 24.429688 3.171875 24.449219 3.195312 24.449219 C 3.21875 24.449219 3.238281 24.46875 3.238281 24.496094 C 3.238281 24.519531 3.265625 24.539062 3.300781 24.539062 C 3.339844 24.539062 3.359375 24.558594 3.359375 24.601562 C 3.359375 24.632812 3.378906 24.660156 3.40625 24.660156 C 3.433594 24.660156 3.449219 24.691406 3.449219 24.75 C 3.449219 24.808594 3.464844 24.839844 3.496094 24.839844 C 3.519531 24.839844 3.539062 24.863281 3.539062 24.886719 C 3.539062 24.914062 3.566406 24.941406 3.601562 24.953125 C 3.632812 24.960938 3.660156 24.984375 3.660156 25.007812 C 3.660156 25.03125 3.679688 25.050781 3.703125 25.050781 C 3.730469 25.050781 3.75 25.070312 3.75 25.09375 C 3.75 25.121094 3.769531 25.140625 3.796875 25.140625 C 3.820312 25.140625 3.839844 25.160156 3.839844 25.1875 C 3.839844 25.214844 3.867188 25.242188 3.898438 25.25 C 3.933594 25.261719 3.960938 25.285156 3.960938 25.308594 C 3.960938 25.332031 3.980469 25.351562 4.003906 25.351562 C 4.03125 25.351562 4.050781 25.371094 4.050781 25.394531 C 4.050781 25.417969 4.070312 25.441406 4.09375 25.441406 C 4.121094 25.441406 4.140625 25.460938 4.140625 25.488281 C 4.140625 25.515625 4.167969 25.542969 4.199219 25.550781 C 4.234375 25.558594 4.261719 25.585938 4.261719 25.609375 C 4.261719 25.632812 4.28125 25.648438 4.304688 25.648438 C 4.328125 25.648438 4.351562 25.671875 4.351562 25.695312 C 4.351562 25.71875 4.371094 25.738281 4.394531 25.738281 C 4.417969 25.738281 4.441406 25.761719 4.441406 25.789062 C 4.441406 25.8125 4.46875 25.84375 4.5 25.851562 C 4.53125 25.859375 4.558594 25.886719 4.558594 25.910156 C 4.558594 25.929688 4.582031 25.949219 4.605469 25.949219 C 4.628906 25.949219 4.648438 25.96875 4.648438 25.996094 C 4.648438 26.019531 4.671875 26.039062 4.695312 26.039062 C 4.71875 26.039062 4.738281 26.0625 4.738281 26.085938 C 4.738281 26.113281 4.765625 26.144531 4.800781 26.152344 C 4.832031 26.160156 4.859375 26.1875 4.859375 26.207031 C 4.859375 26.230469 4.878906 26.25 4.90625 26.25 C 4.929688 26.25 4.949219 26.269531 4.949219 26.296875 C 4.949219 26.320312 4.96875 26.339844 4.996094 26.339844 C 5.019531 26.339844 5.039062 26.363281 5.039062 26.386719 C 5.039062 26.414062 5.066406 26.441406 5.101562 26.453125 C 5.132812 26.460938 5.160156 26.484375 5.160156 26.507812 C 5.160156 26.535156 5.195312 26.550781 5.25 26.550781 C 5.308594 26.550781 5.339844 26.566406 5.339844 26.59375 C 5.339844 26.621094 5.367188 26.640625 5.398438 26.640625 C 5.441406 26.640625 5.460938 26.660156 5.460938 26.699219 C 5.460938 26.734375 5.480469 26.761719 5.503906 26.761719 C 5.53125 26.761719 5.550781 26.78125 5.550781 26.804688 C 5.550781 26.828125 5.570312 26.851562 5.59375 26.851562 C 5.621094 26.851562 5.640625 26.871094 5.640625 26.894531 C 5.640625 26.925781 5.671875 26.941406 5.746094 26.941406 C 5.828125 26.941406 5.851562 26.953125 5.851562 27 C 5.851562 27.035156 5.871094 27.058594 5.894531 27.058594 C 5.917969 27.058594 5.941406 27.082031 5.941406 27.105469 C 5.941406 27.128906 5.964844 27.148438 6 27.148438 C 6.035156 27.148438 6.058594 27.171875 6.058594 27.195312 C 6.058594 27.226562 6.089844 27.238281 6.148438 27.238281 C 6.210938 27.238281 6.238281 27.253906 6.238281 27.289062 C 6.238281 27.3125 6.265625 27.34375 6.300781 27.351562 C 6.332031 27.359375 6.359375 27.386719 6.359375 27.410156 C 6.359375 27.429688 6.378906 27.449219 6.402344 27.449219 C 6.425781 27.449219 6.453125 27.46875 6.460938 27.496094 C 6.472656 27.519531 6.515625 27.539062 6.570312 27.539062 C 6.640625 27.539062 6.660156 27.554688 6.660156 27.601562 C 6.660156 27.632812 6.679688 27.660156 6.707031 27.660156 C 6.734375 27.660156 6.773438 27.679688 6.800781 27.703125 C 6.824219 27.730469 6.871094 27.75 6.902344 27.75 C 6.933594 27.75 6.960938 27.769531 6.960938 27.796875 C 6.960938 27.824219 6.988281 27.839844 7.050781 27.839844 C 7.113281 27.839844 7.140625 27.855469 7.140625 27.886719 C 7.140625 27.914062 7.167969 27.941406 7.199219 27.953125 C 7.234375 27.960938 7.261719 27.984375 7.261719 28.007812 C 7.261719 28.035156 7.292969 28.050781 7.351562 28.050781 C 7.410156 28.050781 7.441406 28.066406 7.441406 28.09375 C 7.441406 28.125 7.472656 28.140625 7.546875 28.140625 C 7.628906 28.140625 7.648438 28.152344 7.648438 28.199219 C 7.648438 28.25 7.671875 28.261719 7.753906 28.261719 C 7.828125 28.261719 7.859375 28.273438 7.859375 28.304688 C 7.859375 28.335938 7.890625 28.351562 7.949219 28.351562 C 8.011719 28.351562 8.039062 28.363281 8.039062 28.394531 C 8.039062 28.417969 8.0625 28.441406 8.09375 28.441406 C 8.121094 28.441406 8.167969 28.46875 8.199219 28.5 C 8.230469 28.539062 8.285156 28.558594 8.355469 28.558594 C 8.429688 28.558594 8.460938 28.574219 8.460938 28.605469 C 8.460938 28.636719 8.488281 28.648438 8.550781 28.648438 C 8.609375 28.648438 8.640625 28.664062 8.640625 28.695312 C 8.640625 28.726562 8.671875 28.738281 8.746094 28.738281 C 8.828125 28.738281 8.851562 28.75 8.851562 28.800781 C 8.851562 28.847656 8.871094 28.859375 8.953125 28.859375 C 9.027344 28.859375 9.058594 28.875 9.058594 28.90625 C 9.058594 28.9375 9.097656 28.949219 9.210938 28.949219 C 9.324219 28.949219 9.359375 28.960938 9.359375 28.996094 C 9.359375 29.023438 9.390625 29.039062 9.445312 29.039062 C 9.507812 29.039062 9.539062 29.058594 9.546875 29.101562 C 9.5625 29.148438 9.589844 29.160156 9.699219 29.160156 C 9.789062 29.160156 9.839844 29.175781 9.851562 29.203125 C 9.863281 29.234375 9.910156 29.25 10.003906 29.25 C 10.105469 29.25 10.140625 29.261719 10.140625 29.296875 C 10.140625 29.328125 10.175781 29.339844 10.285156 29.339844 C 10.40625 29.339844 10.4375 29.351562 10.449219 29.398438 C 10.460938 29.449219 10.488281 29.460938 10.597656 29.460938 C 10.691406 29.460938 10.738281 29.472656 10.75 29.503906 C 10.765625 29.539062 10.816406 29.550781 10.964844 29.550781 C 11.117188 29.550781 11.160156 29.558594 11.160156 29.59375 C 11.160156 29.628906 11.203125 29.640625 11.351562 29.640625 C 11.519531 29.640625 11.546875 29.648438 11.558594 29.699219 C 11.570312 29.75 11.601562 29.761719 11.757812 29.761719 C 11.894531 29.761719 11.945312 29.773438 11.960938 29.804688 C 11.972656 29.839844 12.035156 29.851562 12.253906 29.851562 C 12.476562 29.851562 12.539062 29.859375 12.550781 29.894531 C 12.566406 29.929688 12.632812 29.941406 12.914062 29.941406 C 13.125 29.941406 13.261719 29.953125 13.261719 29.96875 C 13.261719 29.988281 13.859375 30 15 30 C 16.140625 30 16.738281 29.988281 16.738281 29.96875 C 16.738281 29.953125 16.875 29.941406 17.085938 29.941406 C 17.367188 29.941406 17.433594 29.929688 17.449219 29.894531 C 17.460938 29.859375 17.523438 29.851562 17.746094 29.851562 C 17.964844 29.851562 18.027344 29.839844 18.039062 29.804688 C 18.054688 29.773438 18.105469 29.761719 18.242188 29.761719 C 18.398438 29.761719 18.429688 29.75 18.441406 29.699219 C 18.453125 29.648438 18.480469 29.640625 18.648438 29.640625 C 18.796875 29.640625 18.839844 29.628906 18.839844 29.59375 C 18.839844 29.558594 18.882812 29.550781 19.035156 29.550781 C 19.183594 29.550781 19.234375 29.539062 19.25 29.503906 C 19.261719 29.472656 19.308594 29.460938 19.402344 29.460938 C 19.511719 29.460938 19.539062 29.449219 19.550781 29.398438 C 19.5625 29.351562 19.59375 29.339844 19.714844 29.339844 C 19.824219 29.339844 19.859375 29.328125 19.859375 29.296875 C 19.859375 29.261719 19.894531 29.25 19.996094 29.25 C 20.089844 29.25 20.136719 29.234375 20.148438 29.203125 C 20.160156 29.175781 20.210938 29.160156 20.300781 29.160156 C 20.410156 29.160156 20.4375 29.148438 20.453125 29.101562 C 20.460938 29.058594 20.492188 29.039062 20.554688 29.039062 C 20.609375 29.039062 20.640625 29.023438 20.640625 28.996094 C 20.640625 28.960938 20.675781 28.949219 20.789062 28.949219 C 20.902344 28.949219 20.941406 28.9375 20.941406 28.90625 C 20.941406 28.875 20.972656 28.859375 21.046875 28.859375 C 21.128906 28.859375 21.148438 28.847656 21.148438 28.800781 C 21.148438 28.75 21.171875 28.738281 21.253906 28.738281 C 21.328125 28.738281 21.359375 28.726562 21.359375 28.695312 C 21.359375 28.664062 21.390625 28.648438 21.449219 28.648438 C 21.511719 28.648438 21.539062 28.636719 21.539062 28.605469 C 21.539062 28.574219 21.570312 28.558594 21.644531 28.558594 C 21.714844 28.558594 21.769531 28.539062 21.800781 28.5 C 21.832031 28.46875 21.878906 28.441406 21.90625 28.441406 C 21.9375 28.441406 21.960938 28.417969 21.960938 28.394531 C 21.960938 28.363281 21.988281 28.351562 22.050781 28.351562 C 22.109375 28.351562 22.140625 28.335938 22.140625 28.304688 C 22.140625 28.273438 22.171875 28.261719 22.246094 28.261719 C 22.328125 28.261719 22.351562 28.25 22.351562 28.199219 C 22.351562 28.152344 22.371094 28.140625 22.453125 28.140625 C 22.527344 28.140625 22.558594 28.125 22.558594 28.09375 C 22.558594 28.066406 22.589844 28.050781 22.648438 28.050781 C 22.707031 28.050781 22.738281 28.035156 22.738281 28.007812 C 22.738281 27.984375 22.765625 27.960938 22.800781 27.953125 C 22.832031 27.941406 22.859375 27.914062 22.859375 27.886719 C 22.859375 27.855469 22.886719 27.839844 22.949219 27.839844 C 23.011719 27.839844 23.039062 27.824219 23.039062 27.796875 C 23.039062 27.769531 23.066406 27.75 23.097656 27.75 C 23.128906 27.75 23.175781 27.730469 23.199219 27.703125 C 23.226562 27.679688 23.265625 27.660156 23.292969 27.660156 C 23.320312 27.660156 23.339844 27.632812 23.339844 27.601562 C 23.339844 27.554688 23.359375 27.539062 23.429688 27.539062 C 23.484375 27.539062 23.527344 27.519531 23.539062 27.496094 C 23.546875 27.46875 23.574219 27.449219 23.597656 27.449219 C 23.621094 27.449219 23.640625 27.429688 23.640625 27.410156 C 23.640625 27.386719 23.667969 27.359375 23.699219 27.351562 C 23.734375 27.34375 23.761719 27.3125 23.761719 27.289062 C 23.761719 27.253906 23.789062 27.238281 23.851562 27.238281 C 23.910156 27.238281 23.941406 27.226562 23.941406 27.195312 C 23.941406 27.171875 23.964844 27.148438 24 27.148438 C 24.035156 27.148438 24.058594 27.128906 24.058594 27.105469 C 24.058594 27.082031 24.082031 27.058594 24.105469 27.058594 C 24.128906 27.058594 24.148438 27.035156 24.148438 27 C 24.148438 26.953125 24.171875 26.941406 24.253906 26.941406 C 24.328125 26.941406 24.359375 26.925781 24.359375 26.894531 C 24.359375 26.871094 24.378906 26.851562 24.40625 26.851562 C 24.429688 26.851562 24.449219 26.828125 24.449219 26.804688 C 24.449219 26.78125 24.46875 26.761719 24.496094 26.761719 C 24.519531 26.761719 24.539062 26.734375 24.539062 26.699219 C 24.539062 26.660156 24.558594 26.640625 24.601562 26.640625 C 24.632812 26.640625 24.660156 26.621094 24.660156 26.59375 C 24.660156 26.566406 24.691406 26.550781 24.75 26.550781 C 24.804688 26.550781 24.839844 26.535156 24.839844 26.507812 C 24.839844 26.484375 24.867188 26.460938 24.898438 26.453125 C 24.933594 26.441406 24.960938 26.414062 24.960938 26.386719 C 24.960938 26.363281 24.980469 26.339844 25.003906 26.339844 C 25.03125 26.339844 25.050781 26.320312 25.050781 26.296875 C 25.050781 26.269531 25.070312 26.25 25.09375 26.25 C 25.121094 26.25 25.140625 26.230469 25.140625 26.207031 C 25.140625 26.1875 25.167969 26.160156 25.199219 26.152344 C 25.234375 26.144531 25.261719 26.113281 25.261719 26.085938 C 25.261719 26.0625 25.28125 26.039062 25.304688 26.039062 C 25.328125 26.039062 25.351562 26.019531 25.351562 25.996094 C 25.351562 25.96875 25.371094 25.949219 25.394531 25.949219 C 25.417969 25.949219 25.441406 25.929688 25.441406 25.910156 C 25.441406 25.886719 25.46875 25.859375 25.5 25.851562 C 25.53125 25.84375 25.558594 25.8125 25.558594 25.789062 C 25.558594 25.761719 25.582031 25.738281 25.605469 25.738281 C 25.628906 25.738281 25.648438 25.71875 25.648438 25.695312 C 25.648438 25.671875 25.671875 25.648438 25.695312 25.648438 C 25.71875 25.648438 25.738281 25.632812 25.738281 25.609375 C 25.738281 25.585938 25.765625 25.558594 25.800781 25.550781 C 25.832031 25.542969 25.859375 25.515625 25.859375 25.488281 C 25.859375 25.460938 25.878906 25.441406 25.90625 25.441406 C 25.929688 25.441406 25.949219 25.417969 25.949219 25.394531 C 25.949219 25.371094 25.96875 25.351562 25.996094 25.351562 C 26.019531 25.351562 26.039062 25.332031 26.039062 25.308594 C 26.039062 25.285156 26.066406 25.261719 26.101562 25.25 C 26.132812 25.242188 26.160156 25.214844 26.160156 25.1875 C 26.160156 25.160156 26.179688 25.140625 26.203125 25.140625 C 26.230469 25.140625 26.25 25.121094 26.25 25.09375 C 26.25 25.070312 26.269531 25.050781 26.296875 25.050781 C 26.320312 25.050781 26.339844 25.03125 26.339844 25.007812 C 26.339844 24.984375 26.367188 24.960938 26.398438 24.953125 C 26.433594 24.941406 26.460938 24.914062 26.460938 24.886719 C 26.460938 24.863281 26.480469 24.839844 26.503906 24.839844 C 26.535156 24.839844 26.550781 24.808594 26.550781 24.75 C 26.550781 24.691406 26.566406 24.660156 26.59375 24.660156 C 26.621094 24.660156 26.640625 24.632812 26.640625 24.601562 C 26.640625 24.558594 26.660156 24.539062 26.699219 24.539062 C 26.734375 24.539062 26.761719 24.519531 26.761719 24.496094 C 26.761719 24.46875 26.78125 24.449219 26.804688 24.449219 C 26.828125 24.449219 26.851562 24.429688 26.851562 24.40625 C 26.851562 24.378906 26.871094 24.359375 26.894531 24.359375 C 26.925781 24.359375 26.941406 24.328125 26.941406 24.253906 C 26.941406 24.171875 26.953125 24.148438 27 24.148438 C 27.035156 24.148438 27.058594 24.128906 27.058594 24.105469 C 27.058594 24.082031 27.082031 24.058594 27.105469 24.058594 C 27.128906 24.058594 27.148438 24.035156 27.148438 24 C 27.148438 23.964844 27.171875 23.941406 27.195312 23.941406 C 27.226562 23.941406 27.238281 23.910156 27.238281 23.855469 C 27.238281 23.792969 27.257812 23.761719 27.300781 23.75 C 27.332031 23.742188 27.359375 23.714844 27.359375 23.6875 C 27.359375 23.660156 27.378906 23.640625 27.40625 23.640625 C 27.429688 23.640625 27.449219 23.621094 27.449219 23.597656 C 27.449219 23.574219 27.46875 23.546875 27.496094 23.539062 C 27.519531 23.527344 27.539062 23.484375 27.539062 23.429688 C 27.539062 23.359375 27.554688 23.339844 27.601562 23.339844 C 27.632812 23.339844 27.660156 23.320312 27.660156 23.296875 C 27.660156 23.277344 27.679688 23.242188 27.703125 23.21875 C 27.730469 23.199219 27.75 23.152344 27.75 23.109375 C 27.75 23.066406 27.769531 23.039062 27.796875 23.039062 C 27.824219 23.039062 27.839844 23.011719 27.839844 22.953125 C 27.839844 22.890625 27.859375 22.863281 27.898438 22.851562 C 27.933594 22.84375 27.960938 22.8125 27.960938 22.789062 C 27.960938 22.761719 27.980469 22.738281 28.003906 22.738281 C 28.035156 22.738281 28.050781 22.710938 28.050781 22.648438 C 28.050781 22.589844 28.066406 22.558594 28.09375 22.558594 C 28.125 22.558594 28.140625 22.527344 28.140625 22.453125 C 28.140625 22.371094 28.152344 22.351562 28.199219 22.351562 C 28.25 22.351562 28.261719 22.328125 28.261719 22.246094 C 28.261719 22.171875 28.273438 22.140625 28.304688 22.140625 C 28.335938 22.140625 28.351562 22.109375 28.351562 22.050781 C 28.351562 21.988281 28.363281 21.960938 28.394531 21.960938 C 28.421875 21.960938 28.441406 21.933594 28.441406 21.890625 C 28.441406 21.855469 28.46875 21.808594 28.5 21.785156 C 28.542969 21.761719 28.558594 21.71875 28.558594 21.644531 C 28.558594 21.570312 28.574219 21.539062 28.605469 21.539062 C 28.636719 21.539062 28.648438 21.511719 28.648438 21.449219 C 28.648438 21.390625 28.664062 21.359375 28.695312 21.359375 C 28.726562 21.359375 28.738281 21.328125 28.738281 21.253906 C 28.738281 21.171875 28.75 21.148438 28.800781 21.148438 C 28.847656 21.148438 28.859375 21.128906 28.859375 21.046875 C 28.859375 20.972656 28.875 20.941406 28.90625 20.941406 C 28.9375 20.941406 28.949219 20.902344 28.949219 20.789062 C 28.949219 20.675781 28.960938 20.640625 28.996094 20.640625 C 29.023438 20.640625 29.039062 20.609375 29.039062 20.554688 C 29.039062 20.492188 29.058594 20.460938 29.101562 20.453125 C 29.148438 20.4375 29.160156 20.410156 29.160156 20.300781 C 29.160156 20.210938 29.175781 20.160156 29.203125 20.148438 C 29.234375 20.136719 29.25 20.089844 29.25 19.996094 C 29.25 19.894531 29.261719 19.859375 29.296875 19.859375 C 29.328125 19.859375 29.339844 19.824219 29.339844 19.714844 C 29.339844 19.59375 29.351562 19.5625 29.398438 19.550781 C 29.449219 19.539062 29.460938 19.511719 29.460938 19.402344 C 29.460938 19.308594 29.472656 19.261719 29.503906 19.25 C 29.539062 19.234375 29.550781 19.183594 29.550781 19.035156 C 29.550781 18.882812 29.558594 18.839844 29.59375 18.839844 C 29.628906 18.839844 29.640625 18.796875 29.640625 18.648438 C 29.640625 18.480469 29.648438 18.453125 29.699219 18.441406 C 29.75 18.429688 29.761719 18.398438 29.761719 18.242188 C 29.761719 18.105469 29.773438 18.054688 29.804688 18.039062 C 29.839844 18.027344 29.851562 17.964844 29.851562 17.746094 C 29.851562 17.523438 29.859375 17.460938 29.894531 17.449219 C 29.929688 17.433594 29.941406 17.367188 29.941406 17.085938 C 29.941406 16.875 29.953125 16.738281 29.96875 16.738281 C 29.988281 16.738281 30 16.140625 30 15 C 30 13.859375 29.988281 13.261719 29.96875 13.261719 C 29.953125 13.261719 29.941406 13.125 29.941406 12.914062 C 29.941406 12.632812 29.929688 12.566406 29.894531 12.550781 C 29.859375 12.539062 29.851562 12.476562 29.851562 12.253906 C 29.851562 12.035156 29.839844 11.972656 29.804688 11.960938 C 29.773438 11.945312 29.761719 11.894531 29.761719 11.757812 C 29.761719 11.601562 29.75 11.570312 29.699219 11.558594 C 29.648438 11.546875 29.640625 11.519531 29.640625 11.351562 C 29.640625 11.203125 29.628906 11.160156 29.59375 11.160156 C 29.558594 11.160156 29.550781 11.117188 29.550781 10.964844 C 29.550781 10.816406 29.539062 10.765625 29.503906 10.75 C 29.472656 10.738281 29.460938 10.691406 29.460938 10.597656 C 29.460938 10.488281 29.449219 10.460938 29.398438 10.449219 C 29.351562 10.4375 29.339844 10.40625 29.339844 10.285156 C 29.339844 10.175781 29.328125 10.140625 29.296875 10.140625 C 29.261719 10.140625 29.25 10.105469 29.25 10.003906 C 29.25 9.910156 29.234375 9.863281 29.203125 9.851562 C 29.175781 9.839844 29.160156 9.789062 29.160156 9.699219 C 29.160156 9.589844 29.148438 9.5625 29.101562 9.546875 C 29.058594 9.539062 29.039062 9.507812 29.039062 9.445312 C 29.039062 9.390625 29.023438 9.359375 28.996094 9.359375 C 28.960938 9.359375 28.949219 9.324219 28.949219 9.210938 C 28.949219 9.097656 28.9375 9.058594 28.90625 9.058594 C 28.875 9.058594 28.859375 9.027344 28.859375 8.953125 C 28.859375 8.871094 28.847656 8.851562 28.800781 8.851562 C 28.75 8.851562 28.738281 8.828125 28.738281 8.746094 C 28.738281 8.671875 28.726562 8.640625 28.695312 8.640625 C 28.664062 8.640625 28.648438 8.609375 28.648438 8.550781 C 28.648438 8.488281 28.636719 8.460938 28.605469 8.460938 C 28.574219 8.460938 28.558594 8.429688 28.558594 8.355469 C 28.558594 8.285156 28.539062 8.230469 28.5 8.199219 C 28.46875 8.167969 28.441406 8.121094 28.441406 8.09375 C 28.441406 8.0625 28.417969 8.039062 28.394531 8.039062 C 28.363281 8.039062 28.351562 8.011719 28.351562 7.949219 C 28.351562 7.890625 28.335938 7.859375 28.304688 7.859375 C 28.273438 7.859375 28.261719 7.828125 28.261719 7.753906 C 28.261719 7.671875 28.25 7.648438 28.199219 7.648438 C 28.152344 7.648438 28.140625 7.628906 28.140625 7.546875 C 28.140625 7.472656 28.125 7.441406 28.09375 7.441406 C 28.066406 7.441406 28.050781 7.410156 28.050781 7.351562 C 28.050781 7.292969 28.035156 7.261719 28.007812 7.261719 C 27.984375 7.261719 27.960938 7.234375 27.953125 7.199219 C 27.941406 7.167969 27.914062 7.140625 27.886719 7.140625 C 27.855469 7.140625 27.839844 7.113281 27.839844 7.050781 C 27.839844 6.988281 27.824219 6.960938 27.796875 6.960938 C 27.769531 6.960938 27.75 6.933594 27.75 6.890625 C 27.75 6.847656 27.730469 6.800781 27.703125 6.78125 C 27.679688 6.757812 27.660156 6.722656 27.660156 6.703125 C 27.660156 6.679688 27.632812 6.660156 27.601562 6.660156 C 27.554688 6.660156 27.539062 6.640625 27.539062 6.570312 C 27.539062 6.515625 27.519531 6.472656 27.496094 6.460938 C 27.46875 6.453125 27.449219 6.425781 27.449219 6.402344 C 27.449219 6.378906 27.429688 6.359375 27.410156 6.359375 C 27.386719 6.359375 27.359375 6.332031 27.351562 6.300781 C 27.34375 6.265625 27.3125 6.238281 27.289062 6.238281 C 27.253906 6.238281 27.238281 6.210938 27.238281 6.148438 C 27.238281 6.089844 27.226562 6.058594 27.195312 6.058594 C 27.171875 6.058594 27.148438 6.035156 27.148438 6 C 27.148438 5.964844 27.128906 5.941406 27.105469 5.941406 C 27.082031 5.941406 27.058594 5.917969 27.058594 5.894531 C 27.058594 5.871094 27.035156 5.851562 27 5.851562 C 26.953125 5.851562 26.941406 5.828125 26.941406 5.746094 C 26.941406 5.671875 26.925781 5.640625 26.894531 5.640625 C 26.871094 5.640625 26.851562 5.621094 26.851562 5.59375 C 26.851562 5.570312 26.828125 5.550781 26.804688 5.550781 C 26.78125 5.550781 26.761719 5.53125 26.761719 5.503906 C 26.761719 5.480469 26.734375 5.460938 26.699219 5.460938 C 26.660156 5.460938 26.640625 5.441406 26.640625 5.398438 C 26.640625 5.367188 26.621094 5.339844 26.59375 5.339844 C 26.566406 5.339844 26.550781 5.308594 26.550781 5.25 C 26.550781 5.195312 26.535156 5.160156 26.507812 5.160156 C 26.484375 5.160156 26.460938 5.132812 26.453125 5.101562 C 26.441406 5.066406 26.414062 5.039062 26.386719 5.039062 C 26.363281 5.039062 26.339844 5.019531 26.339844 4.996094 C 26.339844 4.96875 26.320312 4.949219 26.296875 4.949219 C 26.269531 4.949219 26.25 4.929688 26.25 4.90625 C 26.25 4.878906 26.230469 4.859375 26.207031 4.859375 C 26.1875 4.859375 26.160156 4.832031 26.152344 4.800781 C 26.144531 4.765625 26.113281 4.738281 26.085938 4.738281 C 26.0625 4.738281 26.039062 4.71875 26.039062 4.695312 C 26.039062 4.671875 26.019531 4.648438 25.996094 4.648438 C 25.96875 4.648438 25.949219 4.628906 25.949219 4.605469 C 25.949219 4.582031 25.929688 4.558594 25.910156 4.558594 C 25.886719 4.558594 25.859375 4.53125 25.851562 4.5 C 25.84375 4.46875 25.8125 4.441406 25.789062 4.441406 C 25.761719 4.441406 25.738281 4.417969 25.738281 4.394531 C 25.738281 4.371094 25.71875 4.351562 25.695312 4.351562 C 25.671875 4.351562 25.648438 4.328125 25.648438 4.304688 C 25.648438 4.28125 25.632812 4.261719 25.609375 4.261719 C 25.585938 4.261719 25.558594 4.234375 25.550781 4.199219 C 25.542969 4.167969 25.515625 4.140625 25.488281 4.140625 C 25.460938 4.140625 25.441406 4.121094 25.441406 4.09375 C 25.441406 4.070312 25.417969 4.050781 25.394531 4.050781 C 25.371094 4.050781 25.351562 4.03125 25.351562 4.003906 C 25.351562 3.980469 25.332031 3.960938 25.308594 3.960938 C 25.285156 3.960938 25.261719 3.933594 25.25 3.898438 C 25.242188 3.867188 25.214844 3.839844 25.1875 3.839844 C 25.160156 3.839844 25.140625 3.820312 25.140625 3.796875 C 25.140625 3.769531 25.121094 3.75 25.09375 3.75 C 25.070312 3.75 25.050781 3.730469 25.050781 3.703125 C 25.050781 3.679688 25.03125 3.660156 25.007812 3.660156 C 24.984375 3.660156 24.960938 3.632812 24.953125 3.601562 C 24.941406 3.566406 24.914062 3.539062 24.886719 3.539062 C 24.863281 3.539062 24.839844 3.519531 24.839844 3.496094 C 24.839844 3.464844 24.808594 3.449219 24.75 3.449219 C 24.691406 3.449219 24.660156 3.433594 24.660156 3.40625 C 24.660156 3.378906 24.632812 3.359375 24.601562 3.359375 C 24.558594 3.359375 24.539062 3.339844 24.539062 3.300781 C 24.539062 3.265625 24.519531 3.238281 24.496094 3.238281 C 24.46875 3.238281 24.449219 3.21875 24.449219 3.195312 C 24.449219 3.171875 24.429688 3.148438 24.40625 3.148438 C 24.378906 3.148438 24.359375 3.128906 24.359375 3.105469 C 24.359375 3.074219 24.328125 3.058594 24.253906 3.058594 C 24.171875 3.058594 24.148438 3.046875 24.148438 3 C 24.148438 2.964844 24.128906 2.941406 24.105469 2.941406 C 24.082031 2.941406 24.058594 2.917969 24.058594 2.894531 C 24.058594 2.871094 24.035156 2.851562 24 2.851562 C 23.964844 2.851562 23.941406 2.828125 23.941406 2.804688 C 23.941406 2.773438 23.910156 2.761719 23.851562 2.761719 C 23.789062 2.761719 23.761719 2.746094 23.761719 2.710938 C 23.761719 2.6875 23.734375 2.65625 23.699219 2.648438 C 23.667969 2.640625 23.640625 2.613281 23.640625 2.589844 C 23.640625 2.570312 23.621094 2.550781 23.597656 2.550781 C 23.574219 2.550781 23.546875 2.53125 23.539062 2.503906 C 23.527344 2.480469 23.484375 2.460938 23.429688 2.460938 C 23.359375 2.460938 23.339844 2.445312 23.339844 2.398438 C 23.339844 2.367188 23.320312 2.339844 23.292969 2.339844 C 23.265625 2.339844 23.226562 2.320312 23.199219 2.296875 C 23.175781 2.269531 23.128906 2.25 23.097656 2.25 C 23.066406 2.25 23.039062 2.230469 23.039062 2.203125 C 23.039062 2.175781 23.011719 2.160156 22.949219 2.160156 C 22.886719 2.160156 22.859375 2.144531 22.859375 2.113281 C 22.859375 2.085938 22.832031 2.058594 22.800781 2.046875 C 22.765625 2.039062 22.738281 2.015625 22.738281 1.992188 C 22.738281 1.964844 22.707031 1.949219 22.648438 1.949219 C 22.589844 1.949219 22.558594 1.933594 22.558594 1.90625 C 22.558594 1.875 22.527344 1.859375 22.453125 1.859375 C 22.371094 1.859375 22.351562 1.847656 22.351562 1.800781 C 22.351562 1.75 22.328125 1.738281 22.246094 1.738281 C 22.171875 1.738281 22.140625 1.726562 22.140625 1.695312 C 22.140625 1.664062 22.109375 1.648438 22.050781 1.648438 C 21.988281 1.648438 21.960938 1.636719 21.960938 1.605469 C 21.960938 1.582031 21.9375 1.558594 21.90625 1.558594 C 21.878906 1.558594 21.832031 1.53125 21.800781 1.5 C 21.769531 1.460938 21.714844 1.441406 21.644531 1.441406 C 21.570312 1.441406 21.539062 1.425781 21.539062 1.394531 C 21.539062 1.363281 21.511719 1.351562 21.449219 1.351562 C 21.390625 1.351562 21.359375 1.335938 21.359375 1.304688 C 21.359375 1.273438 21.328125 1.261719 21.253906 1.261719 C 21.171875 1.261719 21.148438 1.25 21.148438 1.199219 C 21.148438 1.152344 21.128906 1.140625 21.046875 1.140625 C 20.972656 1.140625 20.941406 1.125 20.941406 1.09375 C 20.941406 1.0625 20.902344 1.050781 20.789062 1.050781 C 20.675781 1.050781 20.640625 1.039062 20.640625 1.003906 C 20.640625 0.976562 20.609375 0.960938 20.554688 0.960938 C 20.492188 0.960938 20.460938 0.941406 20.453125 0.898438 C 20.4375 0.851562 20.410156 0.839844 20.300781 0.839844 C 20.210938 0.839844 20.160156 0.824219 20.148438 0.796875 C 20.136719 0.765625 20.089844 0.75 19.996094 0.75 C 19.894531 0.75 19.859375 0.738281 19.859375 0.703125 C 19.859375 0.671875 19.824219 0.660156 19.714844 0.660156 C 19.59375 0.660156 19.5625 0.648438 19.550781 0.601562 C 19.539062 0.550781 19.511719 0.539062 19.402344 0.539062 C 19.308594 0.539062 19.261719 0.527344 19.25 0.496094 C 19.234375 0.460938 19.183594 0.449219 19.035156 0.449219 C 18.882812 0.449219 18.839844 0.441406 18.839844 0.40625 C 18.839844 0.371094 18.796875 0.359375 18.648438 0.359375 C 18.480469 0.359375 18.453125 0.351562 18.441406 0.300781 C 18.429688 0.25 18.398438 0.238281 18.242188 0.238281 C 18.105469 0.238281 18.054688 0.226562 18.039062 0.195312 C 18.027344 0.160156 17.964844 0.148438 17.746094 0.148438 C 17.523438 0.148438 17.460938 0.140625 17.449219 0.105469 C 17.433594 0.0703125 17.367188 0.0585938 17.085938 0.0585938 C 16.875 0.0585938 16.738281 0.046875 16.738281 0.03125 C 16.738281 0.0117188 16.140625 0 15 0 C 13.859375 0 13.261719 0.0117188 13.261719 0.03125 M 18.03125 4.847656 C 18.9375 4.992188 19.273438 5.082031 19.726562 5.296875 C 19.84375 5.355469 19.957031 5.398438 19.976562 5.398438 C 19.996094 5.398438 20.078125 5.4375 20.152344 5.480469 C 20.230469 5.523438 20.371094 5.601562 20.460938 5.648438 C 20.675781 5.769531 20.96875 5.960938 21.203125 6.140625 C 21.308594 6.21875 21.429688 6.3125 21.472656 6.34375 C 21.667969 6.492188 22.589844 7.460938 22.589844 7.519531 C 22.589844 7.535156 22.636719 7.59375 22.695312 7.648438 C 22.753906 7.707031 22.800781 7.765625 22.800781 7.785156 C 22.800781 7.800781 22.847656 7.890625 22.910156 7.980469 C 22.96875 8.070312 23.058594 8.230469 23.105469 8.335938 C 23.152344 8.441406 23.21875 8.558594 23.25 8.601562 C 23.28125 8.644531 23.308594 8.699219 23.308594 8.726562 C 23.308594 8.753906 23.332031 8.816406 23.355469 8.863281 C 23.472656 9.089844 23.609375 9.429688 23.609375 9.5 C 23.609375 9.542969 23.628906 9.617188 23.652344 9.671875 C 23.75 9.90625 23.804688 10.113281 23.824219 10.351562 C 23.832031 10.492188 23.859375 10.691406 23.882812 10.800781 C 23.953125 11.140625 23.941406 23.507812 23.871094 23.609375 C 23.84375 23.648438 23.820312 23.714844 23.820312 23.75 C 23.820312 23.789062 23.777344 23.878906 23.722656 23.949219 C 23.667969 24.023438 23.601562 24.125 23.574219 24.175781 C 23.546875 24.226562 23.484375 24.285156 23.441406 24.300781 C 23.398438 24.316406 23.3125 24.371094 23.25 24.417969 C 23.070312 24.5625 22.890625 24.609375 22.496094 24.609375 C 22.109375 24.613281 22.105469 24.609375 21.765625 24.390625 C 21.585938 24.277344 20.96875 23.710938 20.730469 23.445312 C 20.675781 23.382812 19.988281 22.699219 19.820312 22.535156 C 19.722656 22.441406 19.566406 22.285156 19.472656 22.1875 C 19.382812 22.09375 19.152344 21.863281 18.964844 21.679688 C 18.777344 21.496094 18.433594 21.152344 18.199219 20.914062 C 17.964844 20.675781 17.699219 20.414062 17.609375 20.328125 C 17.519531 20.246094 16.824219 19.554688 16.0625 18.796875 C 15.300781 18.035156 14.199219 16.941406 13.609375 16.363281 C 13.019531 15.789062 12.027344 14.804688 11.398438 14.179688 C 10.621094 13.402344 10.242188 13.046875 10.207031 13.054688 C 10.160156 13.066406 10.152344 13.164062 10.136719 14.535156 C 10.097656 17.917969 10.128906 19.285156 10.253906 19.515625 C 10.269531 19.546875 10.328125 19.679688 10.386719 19.808594 C 10.441406 19.9375 10.515625 20.078125 10.550781 20.121094 C 10.589844 20.164062 10.621094 20.214844 10.621094 20.234375 C 10.621094 20.277344 11.226562 20.910156 11.269531 20.910156 C 11.285156 20.910156 11.328125 20.9375 11.359375 20.972656 C 11.523438 21.15625 12.105469 21.386719 12.457031 21.40625 C 12.605469 21.414062 12.757812 21.433594 12.796875 21.453125 C 12.902344 21.492188 13.25 21.488281 13.324219 21.449219 C 13.359375 21.429688 13.484375 21.410156 13.601562 21.40625 C 13.71875 21.402344 13.867188 21.375 13.933594 21.347656 C 14.21875 21.226562 14.617188 21.015625 14.632812 20.980469 C 14.640625 20.957031 14.667969 20.941406 14.691406 20.941406 C 14.714844 20.941406 14.800781 20.886719 14.878906 20.820312 C 15.074219 20.65625 15.144531 20.660156 15.328125 20.851562 C 15.410156 20.933594 15.484375 21 15.492188 21 C 15.5 21 15.609375 21.105469 15.730469 21.234375 C 16.433594 21.964844 17.566406 23.074219 17.671875 23.128906 C 17.785156 23.191406 17.75 23.347656 17.589844 23.480469 C 17.515625 23.542969 17.398438 23.644531 17.335938 23.707031 C 17.269531 23.769531 17.199219 23.820312 17.175781 23.820312 C 17.15625 23.820312 17.121094 23.839844 17.097656 23.867188 C 17.078125 23.890625 16.976562 23.976562 16.878906 24.050781 C 16.777344 24.128906 16.683594 24.207031 16.671875 24.230469 C 16.65625 24.25 16.621094 24.269531 16.589844 24.269531 C 16.558594 24.269531 16.515625 24.285156 16.492188 24.308594 C 16.402344 24.390625 15.707031 24.742188 15.449219 24.832031 C 14.972656 25.003906 14.703125 25.082031 14.382812 25.15625 C 14.195312 25.199219 14.003906 25.246094 13.964844 25.261719 C 13.925781 25.273438 13.488281 25.289062 13 25.289062 C 12.085938 25.292969 12.011719 25.285156 11.519531 25.160156 C 11.429688 25.136719 11.296875 25.105469 11.226562 25.09375 C 11.15625 25.085938 11.09375 25.0625 11.082031 25.046875 C 11.074219 25.03125 11.019531 25.019531 10.960938 25.019531 C 10.90625 25.019531 10.757812 24.972656 10.636719 24.914062 C 10.515625 24.855469 10.378906 24.808594 10.332031 24.808594 C 10.285156 24.804688 10.183594 24.765625 10.109375 24.71875 C 10.035156 24.671875 9.902344 24.597656 9.808594 24.554688 C 9.71875 24.507812 9.636719 24.464844 9.628906 24.453125 C 9.597656 24.414062 9.449219 24.328125 9.410156 24.328125 C 9.390625 24.328125 9.316406 24.285156 9.253906 24.230469 C 9.1875 24.175781 9.09375 24.109375 9.039062 24.082031 C 8.839844 23.984375 7.722656 22.910156 7.628906 22.726562 C 7.601562 22.675781 7.542969 22.59375 7.496094 22.546875 C 7.449219 22.5 7.402344 22.433594 7.394531 22.40625 C 7.382812 22.375 7.34375 22.316406 7.304688 22.269531 C 7.230469 22.1875 7.105469 21.964844 6.933594 21.613281 C 6.882812 21.511719 6.808594 21.386719 6.765625 21.335938 C 6.722656 21.285156 6.679688 21.191406 6.667969 21.128906 C 6.660156 21.066406 6.617188 20.941406 6.578125 20.851562 C 6.476562 20.621094 6.390625 20.339844 6.390625 20.242188 C 6.390625 20.195312 6.375 20.125 6.355469 20.089844 C 6.335938 20.054688 6.300781 19.929688 6.28125 19.816406 C 6.261719 19.699219 6.230469 19.542969 6.214844 19.46875 C 6.195312 19.378906 6.179688 17.078125 6.175781 12.898438 L 6.164062 6.464844 L 6.246094 6.328125 C 6.292969 6.253906 6.355469 6.140625 6.386719 6.074219 C 6.785156 5.253906 7.992188 5.167969 8.746094 5.910156 C 8.84375 6.007812 8.941406 6.101562 8.960938 6.121094 C 9.234375 6.386719 9.628906 6.800781 9.632812 6.828125 C 9.632812 6.84375 9.699219 6.90625 9.78125 6.96875 C 9.863281 7.03125 9.929688 7.097656 9.929688 7.121094 C 9.929688 7.144531 9.964844 7.171875 10.003906 7.183594 C 10.042969 7.191406 10.09375 7.226562 10.109375 7.261719 C 10.15625 7.34375 10.476562 7.664062 10.539062 7.6875 C 10.566406 7.699219 10.601562 7.734375 10.609375 7.761719 C 10.621094 7.792969 10.742188 7.921875 10.878906 8.054688 C 11.015625 8.1875 11.128906 8.308594 11.128906 8.328125 C 11.128906 8.34375 11.175781 8.386719 11.234375 8.425781 C 11.292969 8.464844 11.339844 8.507812 11.339844 8.519531 C 11.339844 8.535156 12.222656 9.421875 12.800781 9.988281 C 12.867188 10.058594 13.984375 11.195312 15.15625 12.390625 C 16.636719 13.910156 19.847656 17.109375 19.917969 17.140625 C 20.078125 17.214844 20.070312 17.378906 20.070312 14.144531 C 20.070312 11.027344 20.070312 11.023438 19.949219 10.792969 C 19.933594 10.765625 19.910156 10.683594 19.902344 10.613281 C 19.867188 10.398438 19.679688 10.039062 19.453125 9.753906 C 19.300781 9.554688 18.773438 9.089844 18.707031 9.089844 C 18.683594 9.089844 18.648438 9.066406 18.628906 9.042969 C 18.578125 8.980469 18.21875 8.8125 18.015625 8.75 C 17.664062 8.648438 17.582031 8.632812 17.308594 8.617188 C 16.625 8.585938 15.753906 8.871094 15.304688 9.277344 C 15.125 9.441406 14.96875 9.4375 14.804688 9.265625 C 14.738281 9.199219 14.648438 9.125 14.601562 9.101562 C 14.558594 9.078125 14.519531 9.042969 14.519531 9.023438 C 14.519531 8.984375 13.601562 8.070312 13.558594 8.070312 C 13.542969 8.070312 13.53125 8.054688 13.53125 8.039062 C 13.53125 8.023438 13.476562 7.957031 13.410156 7.890625 C 13.34375 7.824219 13.277344 7.769531 13.261719 7.769531 C 13.242188 7.769531 13.230469 7.757812 13.230469 7.742188 C 13.230469 7.703125 12.804688 7.261719 12.765625 7.261719 C 12.75 7.257812 12.710938 7.21875 12.683594 7.167969 C 12.65625 7.121094 12.613281 7.078125 12.589844 7.078125 C 12.542969 7.078125 12.421875 6.871094 12.421875 6.792969 C 12.421875 6.71875 12.53125 6.535156 12.609375 6.484375 C 12.8125 6.351562 13.074219 6.164062 13.140625 6.105469 C 13.179688 6.066406 13.351562 5.960938 13.519531 5.871094 C 13.960938 5.632812 14.371094 5.386719 14.476562 5.300781 C 14.523438 5.261719 14.609375 5.21875 14.664062 5.207031 C 14.714844 5.195312 14.765625 5.171875 14.777344 5.15625 C 14.785156 5.140625 14.824219 5.128906 14.859375 5.128906 C 14.898438 5.128906 14.957031 5.109375 14.996094 5.082031 C 15.03125 5.054688 15.082031 5.042969 15.105469 5.050781 C 15.136719 5.0625 15.148438 5.050781 15.148438 5.011719 C 15.148438 4.894531 15.203125 4.878906 15.589844 4.910156 C 15.707031 4.917969 15.945312 4.910156 16.117188 4.886719 C 16.921875 4.792969 17.613281 4.777344 18.03125 4.847656 "/>
<path style=" stroke:none;fill-rule:evenodd;fill:rgb(58.431373%,81.568627%,98.039216%);fill-opacity:1;" d="M 16.664062 4.832031 C 16.515625 4.84375 16.285156 4.871094 16.15625 4.886719 C 16.023438 4.902344 15.765625 4.917969 15.578125 4.917969 C 15.269531 4.917969 15.238281 4.925781 15.199219 4.984375 C 15.167969 5.027344 15.054688 5.082031 14.855469 5.144531 C 14.695312 5.195312 14.523438 5.265625 14.472656 5.304688 C 14.390625 5.371094 13.839844 5.695312 13.390625 5.949219 C 13.203125 6.050781 13.109375 6.121094 12.660156 6.460938 C 12.273438 6.753906 12.269531 6.75 13.484375 7.964844 C 14.054688 8.53125 14.519531 9.007812 14.519531 9.027344 C 14.519531 9.042969 14.558594 9.078125 14.601562 9.101562 C 14.648438 9.125 14.738281 9.199219 14.804688 9.265625 C 14.96875 9.4375 15.125 9.441406 15.304688 9.277344 C 15.753906 8.871094 16.625 8.585938 17.308594 8.617188 C 17.582031 8.632812 17.664062 8.648438 18.015625 8.75 C 18.21875 8.8125 18.578125 8.980469 18.628906 9.042969 C 18.648438 9.066406 18.683594 9.089844 18.707031 9.089844 C 18.773438 9.089844 19.300781 9.554688 19.453125 9.753906 C 19.679688 10.039062 19.867188 10.398438 19.902344 10.613281 C 19.910156 10.683594 19.933594 10.765625 19.949219 10.792969 C 20.070312 11.023438 20.070312 11.027344 20.070312 14.144531 C 20.070312 17.375 20.078125 17.214844 19.921875 17.140625 C 19.890625 17.125 19.164062 16.417969 18.304688 15.570312 C 16.722656 14 14.929688 12.238281 14.886719 12.210938 C 14.875 12.203125 14.992188 12.332031 15.148438 12.496094 C 15.304688 12.660156 15.484375 12.847656 15.542969 12.914062 C 15.605469 12.980469 15.75 13.136719 15.867188 13.257812 C 15.984375 13.382812 16.078125 13.492188 16.078125 13.503906 C 16.078125 13.515625 16.148438 13.578125 16.230469 13.640625 C 16.3125 13.703125 16.378906 13.765625 16.378906 13.777344 C 16.378906 13.808594 16.480469 13.921875 16.503906 13.921875 C 16.515625 13.921875 16.601562 14 16.699219 14.101562 C 16.796875 14.203125 16.90625 14.3125 16.945312 14.347656 C 16.984375 14.386719 17.621094 15.015625 18.355469 15.75 C 19.851562 17.238281 19.867188 17.25 19.980469 17.25 C 20.125 17.25 20.125 17.234375 20.136719 14.605469 C 20.148438 11.132812 20.144531 10.84375 20.09375 10.761719 C 20.066406 10.722656 20.039062 10.648438 20.027344 10.59375 C 20.015625 10.539062 19.984375 10.460938 19.960938 10.414062 C 19.914062 10.320312 19.90625 10.210938 19.949219 10.183594 C 19.988281 10.160156 19.988281 10.050781 19.953125 10.050781 C 19.9375 10.050781 19.914062 10.0625 19.90625 10.082031 C 19.878906 10.125 19.828125 10.085938 19.828125 10.019531 C 19.828125 9.988281 19.789062 9.933594 19.738281 9.894531 C 19.675781 9.847656 19.648438 9.804688 19.648438 9.746094 C 19.648438 9.679688 19.636719 9.660156 19.589844 9.660156 C 19.558594 9.660156 19.53125 9.648438 19.53125 9.628906 C 19.53125 9.589844 19.597656 9.589844 19.636719 9.628906 C 19.6875 9.679688 19.898438 9.78125 19.917969 9.761719 C 19.925781 9.753906 19.914062 9.703125 19.890625 9.652344 C 19.765625 9.34375 19.898438 9.105469 20.070312 9.328125 C 20.1875 9.484375 20.25 9.40625 20.175781 9.191406 C 20.105469 8.980469 20.117188 8.925781 20.265625 8.785156 C 20.394531 8.65625 20.398438 8.652344 20.40625 8.429688 C 20.414062 8.210938 20.417969 8.203125 20.496094 8.195312 C 20.542969 8.191406 20.578125 8.171875 20.582031 8.152344 C 20.582031 8.035156 20.648438 7.890625 20.699219 7.890625 C 20.746094 7.890625 20.761719 7.859375 20.777344 7.710938 C 20.796875 7.539062 20.804688 7.523438 21.035156 7.289062 C 21.164062 7.15625 21.269531 7.027344 21.269531 7.003906 C 21.269531 6.980469 21.296875 6.960938 21.332031 6.960938 C 21.375 6.960938 21.390625 6.945312 21.378906 6.917969 C 21.371094 6.894531 21.382812 6.859375 21.40625 6.839844 C 21.429688 6.820312 21.464844 6.75 21.484375 6.6875 L 21.519531 6.574219 L 21.605469 6.65625 C 21.65625 6.699219 21.742188 6.777344 21.800781 6.832031 C 21.859375 6.886719 21.910156 6.929688 21.917969 6.929688 C 21.9375 6.929688 22.078125 7.085938 22.078125 7.105469 C 22.082031 7.117188 22.121094 7.152344 22.171875 7.183594 C 22.21875 7.21875 22.261719 7.257812 22.261719 7.273438 C 22.261719 7.292969 22.300781 7.351562 22.351562 7.410156 C 22.398438 7.46875 22.46875 7.546875 22.5 7.585938 C 22.53125 7.625 22.558594 7.660156 22.558594 7.667969 C 22.558594 7.675781 22.605469 7.730469 22.664062 7.792969 C 22.722656 7.851562 22.769531 7.914062 22.769531 7.933594 C 22.769531 7.953125 22.8125 8.035156 22.867188 8.117188 C 22.980469 8.296875 23.070312 8.460938 23.070312 8.5 C 23.070312 8.515625 23.117188 8.597656 23.171875 8.683594 C 23.226562 8.765625 23.28125 8.875 23.292969 8.925781 C 23.304688 8.972656 23.347656 9.082031 23.382812 9.164062 C 23.503906 9.421875 23.542969 9.527344 23.566406 9.664062 C 23.578125 9.734375 23.601562 9.828125 23.621094 9.871094 C 23.703125 10.066406 23.789062 10.644531 23.832031 11.308594 C 23.882812 12.082031 23.910156 19.914062 23.867188 22.15625 C 23.84375 23.523438 23.824219 23.6875 23.675781 23.878906 C 23.628906 23.9375 23.578125 24.019531 23.558594 24.066406 C 23.371094 24.496094 22.234375 24.707031 21.878906 24.378906 C 21.832031 24.335938 21.777344 24.300781 21.757812 24.300781 C 21.738281 24.300781 21.671875 24.25 21.609375 24.191406 C 21.511719 24.101562 19.398438 21.996094 19.304688 21.898438 C 19.289062 21.882812 18.453125 21.046875 17.445312 20.039062 C 16.4375 19.035156 15.316406 17.910156 14.949219 17.542969 C 14.210938 16.800781 13.148438 15.773438 12.527344 15.210938 C 12.445312 15.136719 12.328125 15.019531 12.257812 14.953125 C 12.191406 14.890625 12.152344 14.855469 12.171875 14.878906 C 12.21875 14.941406 17.402344 20.136719 17.609375 20.328125 C 17.699219 20.414062 17.964844 20.675781 18.199219 20.914062 C 18.433594 21.152344 18.777344 21.496094 18.964844 21.679688 C 19.152344 21.863281 19.382812 22.09375 19.472656 22.1875 C 19.566406 22.285156 19.722656 22.441406 19.820312 22.535156 C 19.988281 22.699219 20.675781 23.382812 20.730469 23.445312 C 20.96875 23.710938 21.585938 24.277344 21.765625 24.390625 C 22.105469 24.609375 22.109375 24.613281 22.496094 24.609375 C 22.890625 24.609375 23.070312 24.5625 23.25 24.417969 C 23.3125 24.371094 23.398438 24.316406 23.441406 24.300781 C 23.484375 24.285156 23.546875 24.226562 23.574219 24.175781 C 23.601562 24.125 23.667969 24.023438 23.722656 23.949219 C 23.777344 23.878906 23.820312 23.789062 23.820312 23.75 C 23.820312 23.714844 23.84375 23.648438 23.871094 23.609375 C 23.941406 23.507812 23.953125 11.140625 23.882812 10.800781 C 23.859375 10.691406 23.832031 10.492188 23.824219 10.351562 C 23.804688 10.113281 23.75 9.90625 23.652344 9.671875 C 23.628906 9.617188 23.609375 9.542969 23.609375 9.5 C 23.609375 9.429688 23.472656 9.089844 23.355469 8.863281 C 23.332031 8.816406 23.308594 8.753906 23.308594 8.726562 C 23.308594 8.699219 23.28125 8.644531 23.25 8.601562 C 23.21875 8.558594 23.152344 8.441406 23.105469 8.335938 C 23.058594 8.230469 22.96875 8.070312 22.910156 7.980469 C 22.847656 7.890625 22.800781 7.800781 22.800781 7.785156 C 22.800781 7.765625 22.753906 7.707031 22.695312 7.648438 C 22.636719 7.59375 22.589844 7.535156 22.589844 7.519531 C 22.589844 7.460938 21.667969 6.492188 21.472656 6.34375 C 21.429688 6.3125 21.308594 6.21875 21.203125 6.140625 C 20.96875 5.960938 20.675781 5.769531 20.460938 5.648438 C 20.371094 5.601562 20.230469 5.523438 20.152344 5.480469 C 20.078125 5.4375 19.996094 5.398438 19.976562 5.398438 C 19.957031 5.398438 19.84375 5.355469 19.726562 5.296875 C 19.273438 5.082031 18.9375 4.992188 18.03125 4.847656 C 17.734375 4.796875 17.144531 4.792969 16.664062 4.832031 M 21.269531 6.371094 C 21.273438 6.433594 21.132812 6.371094 21.125 6.304688 C 21.113281 6.234375 21.113281 6.234375 21.191406 6.289062 C 21.234375 6.320312 21.269531 6.355469 21.269531 6.371094 M 21.449219 6.488281 C 21.449219 6.558594 21.332031 6.640625 21.308594 6.582031 C 21.300781 6.558594 21.316406 6.519531 21.347656 6.496094 C 21.417969 6.441406 21.449219 6.4375 21.449219 6.488281 M 21.539062 7.003906 C 21.539062 7.09375 21.570312 7.097656 21.65625 7.023438 C 21.726562 6.960938 21.710938 6.929688 21.609375 6.929688 C 21.554688 6.929688 21.539062 6.945312 21.539062 7.003906 M 21.332031 7.410156 C 21.332031 7.480469 21.339844 7.503906 21.359375 7.480469 C 21.382812 7.460938 21.382812 7.425781 21.363281 7.378906 C 21.335938 7.308594 21.332031 7.3125 21.332031 7.410156 "/>
<path style=" stroke:none;fill-rule:evenodd;fill:rgb(88.235294%,65.490196%,98.039216%);fill-opacity:1;" d="M 15.285156 4.882812 C 15.203125 4.902344 15.148438 4.949219 15.148438 5.003906 C 15.148438 5.042969 15.160156 5.039062 15.195312 4.988281 C 15.222656 4.949219 15.28125 4.921875 15.335938 4.914062 C 15.394531 4.910156 15.414062 4.898438 15.390625 4.886719 C 15.367188 4.878906 15.316406 4.875 15.285156 4.882812 M 7.15625 5.453125 C 6.808594 5.601562 6.480469 5.871094 6.378906 6.089844 C 6.351562 6.148438 6.292969 6.253906 6.246094 6.328125 L 6.164062 6.464844 L 6.175781 12.898438 C 6.179688 17.078125 6.195312 19.378906 6.214844 19.46875 C 6.230469 19.542969 6.261719 19.699219 6.28125 19.816406 C 6.300781 19.929688 6.335938 20.054688 6.355469 20.089844 C 6.375 20.125 6.390625 20.195312 6.390625 20.242188 C 6.390625 20.339844 6.476562 20.621094 6.578125 20.851562 C 6.617188 20.941406 6.660156 21.066406 6.667969 21.128906 C 6.679688 21.191406 6.722656 21.285156 6.765625 21.335938 C 6.808594 21.386719 6.882812 21.511719 6.933594 21.613281 C 7.105469 21.964844 7.230469 22.1875 7.304688 22.269531 C 7.34375 22.316406 7.382812 22.375 7.394531 22.40625 C 7.402344 22.433594 7.449219 22.5 7.496094 22.546875 C 7.542969 22.59375 7.601562 22.675781 7.628906 22.726562 C 7.722656 22.910156 8.839844 23.984375 9.039062 24.082031 C 9.09375 24.109375 9.1875 24.175781 9.253906 24.230469 C 9.316406 24.285156 9.390625 24.328125 9.410156 24.328125 C 9.449219 24.328125 9.597656 24.414062 9.628906 24.453125 C 9.636719 24.464844 9.71875 24.507812 9.808594 24.554688 C 9.902344 24.597656 10.035156 24.671875 10.109375 24.71875 C 10.183594 24.765625 10.285156 24.804688 10.332031 24.808594 C 10.378906 24.808594 10.515625 24.855469 10.636719 24.914062 C 10.757812 24.972656 10.90625 25.019531 10.960938 25.019531 C 11.019531 25.019531 11.074219 25.03125 11.082031 25.046875 C 11.09375 25.0625 11.15625 25.085938 11.226562 25.09375 C 11.296875 25.105469 11.429688 25.136719 11.519531 25.160156 C 12.011719 25.285156 12.085938 25.292969 13 25.289062 C 13.488281 25.289062 13.925781 25.273438 13.964844 25.261719 C 14.003906 25.246094 14.195312 25.199219 14.382812 25.15625 C 14.703125 25.082031 14.972656 25.003906 15.449219 24.832031 C 15.707031 24.742188 16.402344 24.390625 16.492188 24.308594 C 16.515625 24.285156 16.558594 24.269531 16.589844 24.269531 C 16.621094 24.269531 16.65625 24.25 16.671875 24.230469 C 16.683594 24.207031 16.777344 24.128906 16.878906 24.050781 C 16.976562 23.976562 17.078125 23.890625 17.097656 23.867188 C 17.121094 23.839844 17.15625 23.820312 17.175781 23.820312 C 17.199219 23.820312 17.269531 23.769531 17.335938 23.707031 C 17.398438 23.644531 17.515625 23.542969 17.589844 23.480469 C 17.75 23.347656 17.785156 23.191406 17.671875 23.128906 C 17.566406 23.074219 16.433594 21.964844 15.730469 21.234375 C 15.609375 21.105469 15.5 21 15.492188 21 C 15.484375 21 15.410156 20.933594 15.328125 20.851562 C 15.144531 20.660156 15.074219 20.65625 14.878906 20.820312 C 14.800781 20.886719 14.714844 20.941406 14.691406 20.941406 C 14.667969 20.941406 14.640625 20.957031 14.632812 20.980469 C 14.617188 21.015625 14.21875 21.226562 13.933594 21.347656 C 13.867188 21.375 13.71875 21.402344 13.601562 21.40625 C 13.484375 21.410156 13.359375 21.429688 13.324219 21.449219 C 13.25 21.488281 12.902344 21.492188 12.796875 21.453125 C 12.757812 21.433594 12.605469 21.414062 12.457031 21.40625 C 12.105469 21.386719 11.523438 21.15625 11.359375 20.972656 C 11.328125 20.9375 11.285156 20.910156 11.269531 20.910156 C 11.226562 20.910156 10.621094 20.277344 10.621094 20.234375 C 10.621094 20.214844 10.589844 20.164062 10.550781 20.121094 C 10.515625 20.078125 10.441406 19.9375 10.386719 19.808594 C 10.328125 19.679688 10.269531 19.546875 10.253906 19.515625 C 10.128906 19.285156 10.097656 17.917969 10.136719 14.535156 C 10.152344 13.167969 10.160156 13.066406 10.207031 13.054688 C 10.242188 13.046875 10.664062 13.449219 11.539062 14.316406 C 13.066406 15.835938 13.289062 16.050781 13.367188 16.105469 C 13.421875 16.148438 13.144531 15.867188 11.238281 13.941406 C 9.976562 12.667969 10.089844 12.628906 10.082031 14.324219 C 10.066406 16.976562 10.015625 17.457031 9.710938 17.59375 C 9.660156 17.617188 9.59375 17.652344 9.570312 17.667969 C 9.546875 17.683594 9.5 17.703125 9.472656 17.710938 C 9.441406 17.722656 9.40625 17.761719 9.390625 17.800781 C 9.371094 17.859375 9.335938 17.878906 9.234375 17.890625 C 8.984375 17.921875 8.910156 17.945312 8.910156 17.996094 C 8.90625 18.066406 8.679688 18.300781 8.613281 18.300781 C 8.582031 18.300781 8.535156 18.328125 8.503906 18.359375 C 8.476562 18.394531 8.429688 18.421875 8.402344 18.421875 C 8.332031 18.421875 8.101562 18.535156 8.101562 18.570312 C 8.101562 18.585938 8.070312 18.601562 8.03125 18.601562 C 7.992188 18.601562 7.917969 18.644531 7.859375 18.703125 C 7.804688 18.761719 7.730469 18.808594 7.691406 18.808594 C 7.65625 18.808594 7.617188 18.832031 7.609375 18.855469 C 7.601562 18.878906 7.5625 18.898438 7.527344 18.898438 C 7.484375 18.898438 7.402344 18.960938 7.308594 19.054688 C 7.183594 19.1875 7.152344 19.203125 7.105469 19.175781 C 7.007812 19.113281 6.925781 19.136719 6.792969 19.273438 C 6.71875 19.347656 6.636719 19.414062 6.601562 19.425781 C 6.570312 19.433594 6.539062 19.472656 6.535156 19.507812 C 6.492188 19.796875 6.347656 19.445312 6.355469 19.066406 C 6.355469 18.953125 6.339844 18.789062 6.316406 18.707031 C 6.289062 18.625 6.265625 18.472656 6.253906 18.375 C 6.226562 18.027344 6.203125 7.132812 6.230469 6.808594 C 6.328125 5.75 7.308594 5.160156 8.234375 5.609375 C 8.425781 5.703125 8.609375 5.875 9.976562 7.253906 C 10.683594 7.972656 11.851562 9.148438 12.570312 9.867188 C 13.289062 10.589844 14.085938 11.394531 14.34375 11.65625 C 15.195312 12.519531 16.433594 13.726562 16.21875 13.484375 C 16.175781 13.433594 12.925781 10.113281 12.800781 9.988281 C 12.222656 9.421875 11.339844 8.535156 11.339844 8.519531 C 11.339844 8.507812 11.292969 8.464844 11.234375 8.425781 C 11.175781 8.386719 11.128906 8.34375 11.128906 8.328125 C 11.128906 8.308594 11.015625 8.1875 10.878906 8.054688 C 10.742188 7.921875 10.621094 7.792969 10.609375 7.761719 C 10.601562 7.734375 10.566406 7.699219 10.539062 7.6875 C 10.476562 7.664062 10.15625 7.34375 10.109375 7.261719 C 10.09375 7.226562 10.042969 7.191406 10.003906 7.183594 C 9.964844 7.171875 9.929688 7.144531 9.929688 7.121094 C 9.929688 7.097656 9.863281 7.03125 9.78125 6.96875 C 9.699219 6.90625 9.632812 6.84375 9.632812 6.828125 C 9.628906 6.800781 9.234375 6.386719 8.960938 6.121094 C 8.941406 6.101562 8.84375 6.007812 8.746094 5.910156 C 8.28125 5.457031 7.609375 5.261719 7.15625 5.453125 M 16.515625 13.800781 C 16.644531 13.933594 16.761719 14.039062 16.769531 14.039062 C 16.777344 14.039062 16.675781 13.933594 16.546875 13.800781 C 16.414062 13.667969 16.300781 13.558594 16.292969 13.558594 C 16.28125 13.558594 16.382812 13.667969 16.515625 13.800781 M 13.652344 16.417969 C 13.792969 16.554688 13.910156 16.664062 13.917969 16.65625 C 13.9375 16.644531 13.460938 16.171875 13.429688 16.171875 C 13.414062 16.171875 13.515625 16.28125 13.652344 16.417969 M 14.234375 16.980469 C 14.398438 17.144531 14.539062 17.28125 14.550781 17.28125 C 14.558594 17.28125 14.429688 17.144531 14.265625 16.980469 C 14.101562 16.816406 13.960938 16.679688 13.949219 16.679688 C 13.941406 16.679688 14.070312 16.816406 14.234375 16.980469 "/>
</g>
</svg>
