<svg width="30" height="30" viewBox="0 0 30 30" fill="none" xmlns="http://www.w3.org/2000/svg">
<g clip-path="url(#clip0_13083_296594)">
<path fill-rule="evenodd" clip-rule="evenodd" d="M1.62863 3.34593C0 5.54189 0 8.69459 0 15C0 21.3054 0 24.4581 1.62863 26.6541C2.1135 27.3078 2.69217 27.8865 3.34593 28.3713C5.54189 30 8.69459 30 15 30C21.3054 30 24.4581 30 26.6541 28.3713C27.3078 27.8865 27.8865 27.3078 28.3713 26.6541C30 24.4581 30 21.3054 30 15C30 8.69459 30 5.54189 28.3713 3.34593C27.8865 2.69217 27.3078 2.1135 26.6541 1.62863C24.4581 0 21.3054 0 15 0C8.69459 0 5.54189 0 3.34593 1.62863C2.69217 2.1135 2.1135 2.69217 1.62863 3.34593ZM16.3938 11.9325L15.203 5.13598C15.163 4.90869 14.8369 4.90869 14.7971 5.13598L13.6063 11.9325C13.4565 12.7872 12.7872 13.4565 11.9325 13.6063L5.13598 14.7971C4.90869 14.8369 4.90869 15.163 5.13598 15.203L11.9325 16.3938C12.7872 16.5435 13.4565 17.2128 13.6063 18.0675L14.7971 24.864C14.8369 25.0912 15.163 25.0912 15.203 24.864L16.3938 18.0675C16.5435 17.2128 17.2128 16.5435 18.0675 16.3938L24.864 15.203C25.0912 15.163 25.0912 14.8369 24.864 14.7971L18.0675 13.6063C17.2128 13.4565 16.5435 12.7872 16.3938 11.9325Z" fill="#878788"/>
</g>
<defs>
<clipPath id="clip0_13083_296594">
<rect width="30" height="30" fill="white"/>
</clipPath>
</defs>
</svg>
