<svg width="32" height="32" viewBox="0 0 32 32" fill="none" xmlns="http://www.w3.org/2000/svg">
<path d="M16 32C24.8366 32 32 24.8366 32 16C32 7.16344 24.8366 0 16 0C7.16344 0 0 7.16344 0 16C0 24.8366 7.16344 32 16 32Z" fill="#F0F0F0"/>
<g clip-path="url(#clip0_5025_127384)">
<path d="M16.0719 9.06641C13.0918 9.07804 10.679 11.4231 10.667 14.3195C10.667 14.8995 10.7633 15.4757 10.952 16.0258C11.0928 16.4003 11.5106 16.6019 11.9028 16.4862C12.2818 16.3449 12.4831 15.9421 12.3622 15.5654C12.202 15.1366 12.1308 14.6818 12.1519 14.2264C12.2169 12.1345 14.0141 10.4896 16.1665 10.5528C18.3189 10.6159 20.0112 12.3627 19.9462 14.4546C19.8853 16.413 18.2983 18.0036 16.2856 18.1227C16.2856 18.1227 15.5269 18.1675 15.1496 18.2124C15.0105 18.2318 14.8726 18.2584 14.7363 18.2922C14.7169 18.3116 14.6856 18.3116 14.6656 18.2928L14.6651 18.2922C14.6514 18.275 14.6514 18.2506 14.6651 18.2335L14.7825 17.6108L15.495 14.4962C15.5805 14.1073 15.3257 13.7245 14.9256 13.6414C14.5254 13.5583 14.1315 13.8059 14.046 14.1948C14.046 14.1948 12.3514 21.8184 12.3514 21.8877C12.2545 22.2583 12.4848 22.635 12.8661 22.7292C12.8701 22.7303 12.8747 22.7314 12.8786 22.732H12.918C13.2987 22.8278 13.6875 22.6051 13.7855 22.235C13.7872 22.2289 13.789 22.2228 13.7901 22.2162C13.789 22.2046 13.789 22.1929 13.7901 22.1818C13.8112 22.0921 14.0249 21.0777 14.0249 21.0777C14.1868 20.3121 14.8218 19.7254 15.6164 19.6068C15.78 19.5825 16.4675 19.5376 16.4675 19.5376C19.4361 19.2501 21.6027 16.6778 21.3063 13.7926C21.0361 11.1611 18.7931 9.1351 16.0719 9.06641Z" fill="#1E1E1E"/>
<path d="M16.3995 21.1787C15.9121 21.0801 15.4356 21.3843 15.3342 21.8574C15.333 21.8618 15.3324 21.8662 15.3313 21.8707C15.2259 22.341 15.5325 22.8058 16.017 22.9083C16.0176 22.9083 16.0182 22.9083 16.0187 22.9089H16.0438C16.5181 23.0202 16.9952 22.7366 17.1092 22.2762C17.1103 22.2729 17.1109 22.269 17.112 22.2657V22.2175C17.1958 21.7421 16.8835 21.2862 16.3995 21.1787Z" fill="#E6007A"/>
</g>
<defs>
<clipPath id="clip0_5025_127384">
<rect width="10.6667" height="13.8667" fill="white" transform="translate(10.667 9.06641)"/>
</clipPath>
</defs>
</svg>
