<svg width="21" height="21" viewBox="0 0 21 21" fill="none" xmlns="http://www.w3.org/2000/svg">
<g clip-path="url(#clip0)">
<path d="M10.9085 20.0455C16.4313 20.0707 20.9289 15.6141 20.9541 10.0913C20.9793 4.56849 16.5227 0.0709309 10.9999 0.0456945C5.47711 0.0204581 0.979542 4.47711 0.954305 9.9999C0.929069 15.5227 5.38572 20.0202 10.9085 20.0455Z" fill="#0097FF"/>
<g clip-path="url(#clip1)">
<path d="M11.8561 16.0497L11.8811 10.5764L13.7175 10.5848L14.0028 8.4524L11.8909 8.44275L11.8971 7.08071C11.8999 6.46315 12.0726 6.04307 12.9592 6.04712L14.0881 6.05182L14.0968 4.14338C13.9017 4.11712 13.2318 4.05589 12.4518 4.05233C10.8231 4.04488 9.70348 5.03396 9.69514 6.85932L9.68795 8.43268L7.84595 8.42426L7.8362 10.5579L9.6782 10.5664L9.65319 16.0397L11.8561 16.0497Z" fill="white"/>
</g>
</g>
<defs>
<clipPath id="clip0">
<rect width="20" height="20" fill="white" transform="translate(1) rotate(0.261811)"/>
</clipPath>
<clipPath id="clip1">
<rect width="12" height="12" fill="white" transform="translate(4.98169 4.01819) rotate(0.261811)"/>
</clipPath>
</defs>
</svg>
