<svg width="19" height="20" viewBox="0 0 19 20" fill="none" xmlns="http://www.w3.org/2000/svg">
<path d="M18.7827 8.45966L10.1994 0.121639C10.1187 0.0433058 10.0098 0 9.89569 0C9.78159 0 9.6726 0.0441648 9.59196 0.122459L1.03433 8.45966C0.911628 8.5788 0.875592 8.75788 0.941671 8.91369C1.00859 9.06945 1.16476 9.17028 1.33806 9.17028H6.05701V19.5835C6.05701 19.8134 6.24921 20 6.48602 20H13.35C13.5868 20 13.779 19.8134 13.779 19.5835V9.17024H18.4799C18.6532 9.17024 18.8094 9.06859 18.8763 8.91283C18.9432 8.75706 18.9055 8.5788 18.7827 8.45966Z" fill="#404040"/>
</svg>
