<svg width="24" height="24" viewBox="0 0 24 24" fill="none" xmlns="http://www.w3.org/2000/svg">
<path d="M19.0146 3H4.67883C3.54777 3 2.63086 3.89543 2.63086 5V19C2.63086 20.1046 3.54777 21 4.67883 21H19.0146C20.1457 21 21.0626 20.1046 21.0626 19V5C21.0626 3.89543 20.1457 3 19.0146 3Z" stroke="#404040" stroke-width="2" stroke-linecap="round" stroke-linejoin="round"/>
<path d="M8.26303 10C9.11133 10 9.79901 9.32843 9.79901 8.5C9.79901 7.67157 9.11133 7 8.26303 7C7.41473 7 6.72705 7.67157 6.72705 8.5C6.72705 9.32843 7.41473 10 8.26303 10Z" stroke="#404040" stroke-width="2" stroke-linecap="round" stroke-linejoin="round"/>
<path d="M21.063 15L15.943 10L4.6792 21" stroke="#404040" stroke-width="2" stroke-linecap="round" stroke-linejoin="round"/>
</svg>
