<svg width="16" height="16" viewBox="0 0 16 16" fill="none" xmlns="http://www.w3.org/2000/svg">
<path fill-rule="evenodd" clip-rule="evenodd" d="M16 8C16 12.4183 12.4183 16 8 16C3.58172 16 0 12.4183 0 8C0 3.58172 3.58172 0 8 0C12.4183 0 16 3.58172 16 8ZM9 4C9 4.55228 8.55228 5 8 5C7.44771 5 7 4.55228 7 4C7 3.44772 7.44771 3 8 3C8.55228 3 9 3.44772 9 4ZM7 7C6.44771 7 6 7.44771 6 8C6 8.55228 6.44771 9 7 9V12C7 12.5523 7.44771 13 8 13H9C9.55228 13 10 12.5523 10 12C10 11.4477 9.55228 11 9 11V8C9 7.44771 8.55228 7 8 7H7Z" fill="#FFD24D"/>
</svg>
