<svg width="142" height="36" viewBox="0 0 142 36" fill="none" xmlns="http://www.w3.org/2000/svg">
<path fill-rule="evenodd" clip-rule="evenodd" d="M12.1608 0.0250625C13.153 0.108683 13.9642 0.276179 14.9036 0.591418C15.9108 0.929424 16.2149 1.08385 18.6777 2.50775C19.6678 3.08022 20.4879 3.54863 20.5 3.54863C20.5121 3.54863 21.3322 3.08022 22.3223 2.50775C24.7851 1.08385 25.0892 0.929424 26.0964 0.591418C27.4216 0.146712 28.5883 -0.0293664 29.9889 0.00394533C30.9212 0.0261153 31.5654 0.110389 32.4341 0.323788C34.6207 0.860869 36.6901 2.10961 38.1496 3.77272C38.8206 4.5373 39.3376 5.29775 39.7753 6.16355C40.3228 7.24686 40.6595 8.26395 40.8542 9.42315C41.0065 10.3299 41 9.86311 41 19.8776C41 28.7836 40.9977 29.2087 40.9486 29.3851C40.785 29.9732 40.3755 30.4858 39.8492 30.7609C39.5435 30.9208 39.3077 30.9811 38.9258 30.9972C38.5203 31.0143 38.2079 30.9531 37.8965 30.7956C37.7907 30.7421 33.8378 28.4651 29.1125 25.7356C24.3871 23.0062 20.5115 20.773 20.5 20.773C20.4885 20.773 16.6129 23.0062 11.8875 25.7356C7.16216 28.4651 3.20934 30.7421 3.1035 30.7956C2.79207 30.9531 2.47967 31.0143 2.07419 30.9972C1.69226 30.9811 1.45652 30.9208 1.15077 30.7609C0.624501 30.4858 0.214956 29.9732 0.0514113 29.3851C0.00234209 29.2087 4.033e-05 28.7836 4.033e-05 19.8776C4.033e-05 9.86311 -0.00646673 10.3299 0.145827 9.42315C0.585859 6.80318 1.95863 4.37949 3.96365 2.68273C5.7023 1.21138 7.92726 0.258614 10.1009 0.0546795C10.2806 0.0378246 10.4724 0.0196904 10.527 0.0144322C10.7631 -0.00830624 11.8485 -0.00122879 12.1608 0.0250625ZM10.4582 2.29978C8.66753 2.48522 7.03154 3.14898 5.64002 4.25469C5.29639 4.52772 4.67719 5.13233 4.38368 5.4814C3.18235 6.91008 2.44972 8.69413 2.28856 10.5833C2.25751 10.9474 2.24472 28.6461 2.27549 28.6461C2.31979 28.6461 18.1964 19.4566 18.1848 19.4378C18.1774 19.4258 16.0479 18.1897 13.4526 16.6908C10.8572 15.192 8.65986 13.9051 8.56948 13.8311C8.27145 13.5871 8.03671 13.2385 7.8945 12.8287C7.8221 12.6201 7.81551 12.5662 7.8146 12.175C7.81369 11.7808 7.81977 11.7299 7.89521 11.4997C8.02492 11.1038 8.27108 10.7348 8.56746 10.4921C8.6604 10.416 10.815 9.15407 13.4524 7.63105C16.0476 6.1324 18.1771 4.89631 18.1845 4.88423C18.2011 4.85734 15.792 3.46086 15.3076 3.21662C14.4708 2.79466 13.5497 2.50852 12.5302 2.35387C12.0758 2.28498 10.8982 2.25422 10.4582 2.29978ZM28.9102 2.29853C27.724 2.42109 26.5028 2.77934 25.5575 3.28214C25.0245 3.56563 22.8028 4.86371 22.8155 4.88423C22.8229 4.89631 24.9524 6.1324 27.5476 7.63105C30.185 9.15407 32.3396 10.416 32.4325 10.4921C32.7289 10.7348 32.9751 11.1038 33.1048 11.4997C33.1802 11.7299 33.1863 11.7808 33.1854 12.175C33.1845 12.5662 33.1779 12.6201 33.1055 12.8287C32.9633 13.2385 32.7285 13.5871 32.4305 13.8311C32.3401 13.9051 30.1428 15.192 27.5474 16.6908C24.9521 18.1897 22.8226 19.4258 22.8152 19.4378C22.8036 19.4566 38.6802 28.6461 38.7245 28.6461C38.7553 28.6461 38.7425 10.9474 38.7114 10.5833C38.5753 8.98729 38.0247 7.44511 37.1284 6.14934C36.5804 5.35702 35.7728 4.53542 34.9902 3.97412C33.8031 3.12266 32.4544 2.57907 30.9702 2.3539C30.5215 2.28583 29.3406 2.25408 28.9102 2.29853ZM17.7866 7.75677C16.302 8.61534 13.9847 9.95429 12.637 10.7322C11.2893 11.5101 10.1867 12.153 10.1867 12.1608C10.1866 12.1686 12.5071 13.5149 15.3433 15.1525L20.5 18.13L25.6567 15.1525C28.4929 13.5149 30.8134 12.1686 30.8134 12.1608C30.8134 12.153 30.7336 12.101 30.6361 12.0452C30.5385 11.9895 28.2178 10.6497 25.4788 9.06789C22.7398 7.48615 20.4959 6.19282 20.4923 6.19385C20.4887 6.1949 19.2711 6.8982 17.7866 7.75677Z" fill="black"/>
<path d="M70.359 8.352V29H67.053V16.182L61.572 29H59.107L53.597 16.327V29H50.291V8.352H53.249L60.354 24.505L67.401 8.352H70.359Z" fill="black"/>
<path d="M88.4727 14.355L81.6577 29.986C80.8844 31.8033 79.8984 33.1277 78.6997 33.959C77.501 34.7903 76.022 35.3413 74.2627 35.612L73.4507 32.828C74.8234 32.5187 75.848 32.1223 76.5247 31.639C77.2207 31.175 77.7814 30.479 78.2067 29.551L78.6707 28.478L72.5807 14.355H76.3797L80.5847 24.882L84.8767 14.355H88.4727Z" fill="black"/>
<path d="M98.2448 14.007C98.8054 14.007 99.2888 14.0843 99.6948 14.239L99.6658 17.545C99.0471 17.2937 98.4091 17.168 97.7518 17.168C96.5145 17.168 95.5671 17.5257 94.9098 18.241C94.2718 18.9563 93.9528 19.9037 93.9528 21.083V29H90.3568V18.502C90.3568 16.9553 90.2795 15.573 90.1248 14.355H93.5178L93.8078 16.936C94.1751 15.9887 94.7551 15.2637 95.5478 14.761C96.3404 14.2583 97.2394 14.007 98.2448 14.007Z" fill="black"/>
<path d="M101.713 14.355H105.309V29H101.713V14.355ZM105.512 7.714V11.281H101.481V7.714H105.512Z" fill="black"/>
<path d="M123.282 14.355V29H119.715V26.651C119.27 27.463 118.632 28.101 117.801 28.565C116.969 29.0097 116.022 29.232 114.959 29.232C113.683 29.232 112.552 28.9227 111.566 28.304C110.58 27.6853 109.816 26.8057 109.275 25.665C108.733 24.5243 108.463 23.2 108.463 21.692C108.463 20.184 108.733 18.85 109.275 17.69C109.835 16.5107 110.609 15.602 111.595 14.964C112.581 14.3067 113.702 13.978 114.959 13.978C116.022 13.978 116.969 14.21 117.801 14.674C118.632 15.1187 119.27 15.747 119.715 16.559V14.355H123.282ZM115.945 26.39C117.143 26.39 118.071 25.9743 118.729 25.143C119.386 24.3117 119.715 23.142 119.715 21.634C119.715 20.0873 119.386 18.8983 118.729 18.067C118.071 17.2357 117.134 16.82 115.916 16.82C114.717 16.82 113.779 17.255 113.103 18.125C112.445 18.9757 112.117 20.1647 112.117 21.692C112.117 23.2 112.445 24.36 113.103 25.172C113.779 25.984 114.727 26.39 115.945 26.39Z" fill="black"/>
<path d="M141.237 7.656V29H137.67V26.651C137.225 27.463 136.587 28.101 135.756 28.565C134.924 29.0097 133.977 29.232 132.914 29.232C131.657 29.232 130.536 28.913 129.55 28.275C128.564 27.637 127.79 26.738 127.23 25.578C126.688 24.3987 126.418 23.055 126.418 21.547C126.418 20.039 126.688 18.7147 127.23 17.574C127.771 16.4333 128.535 15.5537 129.521 14.935C130.507 14.297 131.638 13.978 132.914 13.978C133.958 13.978 134.886 14.2003 135.698 14.645C136.529 15.0703 137.167 15.6793 137.612 16.472V7.656H141.237ZM133.871 26.39C135.07 26.39 135.997 25.9743 136.655 25.143C137.331 24.3117 137.67 23.1323 137.67 21.605C137.67 20.0777 137.341 18.8983 136.684 18.067C136.027 17.2357 135.098 16.82 133.9 16.82C132.682 16.82 131.734 17.2357 131.058 18.067C130.4 18.879 130.072 20.039 130.072 21.547C130.072 23.0743 130.4 24.2633 131.058 25.114C131.734 25.9647 132.672 26.39 133.871 26.39Z" fill="black"/>
</svg>
