<svg width="20" height="20" viewBox="0 0 20 20" fill="none" xmlns="http://www.w3.org/2000/svg">
<path d="M10 20C15.5228 20 20 15.5228 20 10C20 4.47715 15.5228 0 10 0C4.47715 0 0 4.47715 0 10C0 15.5228 4.47715 20 10 20Z" fill="#FF5722"/>
<path d="M14.663 8.4C14.4842 8.40058 14.3073 8.43699 14.1427 8.50706C13.9782 8.57714 13.8293 8.67946 13.705 8.808C12.677 8.12158 11.473 7.74593 10.237 7.726L10.937 4.526L13.167 5.034C13.1654 5.2987 13.2688 5.55324 13.4546 5.74181C13.6403 5.93039 13.8933 6.03762 14.158 6.04C14.3404 6.04361 14.5203 5.99821 14.6792 5.90854C14.838 5.81887 14.9698 5.68821 15.0609 5.53021C15.152 5.37221 15.1991 5.19264 15.1971 5.01027C15.1952 4.82789 15.1443 4.64938 15.0498 4.49336C14.9553 4.33735 14.8207 4.20955 14.66 4.12331C14.4993 4.03707 14.3184 3.99554 14.1361 4.00306C13.9539 4.01059 13.777 4.06688 13.624 4.16608C13.4709 4.26527 13.3473 4.40373 13.266 4.567L10.8 4.01C10.739 3.99755 10.6756 4.0097 10.6235 4.04378C10.5715 4.07787 10.535 4.13114 10.522 4.192L9.755 7.724C8.52516 7.75768 7.33002 8.13907 6.308 8.824C6.18362 8.69084 6.03331 8.58454 5.86633 8.51162C5.69934 8.43871 5.51921 8.40072 5.337 8.4C5.03132 8.40232 4.73543 8.50801 4.49745 8.69987C4.25948 8.89173 4.09343 9.15848 4.02632 9.4567C3.95921 9.75493 3.99499 10.0671 4.12784 10.3424C4.26069 10.6177 4.48279 10.84 4.758 10.973C4.71289 11.1813 4.69076 11.3939 4.692 11.607C4.692 13.757 7.079 15.5 10.011 15.5C12.943 15.5 15.342 13.758 15.342 11.607C15.3442 11.3899 15.3179 11.1734 15.264 10.963C15.5326 10.8249 15.7474 10.6009 15.874 10.3267C16.0007 10.0524 16.032 9.74374 15.9631 9.44966C15.8941 9.15558 15.7287 8.89301 15.4933 8.70372C15.258 8.51442 14.966 8.40927 14.664 8.405L14.663 8.4ZM6.8 11.109C6.80119 10.9115 6.86084 10.7187 6.97144 10.5551C7.08204 10.3914 7.23863 10.2642 7.42146 10.1894C7.60428 10.1146 7.80516 10.0957 7.99874 10.1349C8.19233 10.1742 8.36995 10.2699 8.5092 10.41C8.64845 10.5501 8.7431 10.7283 8.7812 10.9221C8.8193 11.1159 8.79915 11.3167 8.72329 11.4991C8.64743 11.6814 8.51926 11.8373 8.35494 11.9469C8.19062 12.0565 7.99753 12.115 7.8 12.115C7.5344 12.1129 7.28036 12.006 7.09311 11.8177C6.90585 11.6293 6.80052 11.3746 6.8 11.109ZM12.219 13.509C11.5687 13.965 10.7937 14.2096 9.9995 14.2096C9.20527 14.2096 8.4303 13.965 7.78 13.509C7.73345 13.4647 7.70641 13.4037 7.70482 13.3395C7.70322 13.2753 7.72721 13.213 7.7715 13.1665C7.81579 13.12 7.87676 13.0929 7.94099 13.0913C8.00522 13.0897 8.06745 13.1137 8.114 13.158C8.676 13.5191 9.32996 13.7111 9.998 13.7111C10.666 13.7111 11.32 13.5191 11.882 13.158C11.9288 13.115 11.9906 13.092 12.0542 13.0941C12.1178 13.0961 12.178 13.123 12.2219 13.1689C12.2659 13.2148 12.2901 13.2762 12.2894 13.3398C12.2887 13.4033 12.263 13.4641 12.218 13.509H12.219ZM12.2 12.117C11.9991 12.1194 11.802 12.0619 11.6338 11.9518C11.4657 11.8418 11.3341 11.6841 11.2559 11.499C11.1776 11.3139 11.1563 11.1097 11.1945 10.9124C11.2328 10.7151 11.3289 10.5337 11.4706 10.3913C11.6124 10.2488 11.7933 10.1518 11.9904 10.1125C12.1875 10.0733 12.3918 10.0936 12.5773 10.1709C12.7628 10.2483 12.9211 10.379 13.032 10.5466C13.1429 10.7142 13.2014 10.911 13.2 11.112C13.2007 11.2437 13.1753 11.3743 13.1253 11.4962C13.0754 11.6181 13.0018 11.7289 12.9089 11.8223C12.816 11.9157 12.7055 11.9898 12.5838 12.0404C12.4622 12.091 12.3317 12.117 12.2 12.117Z" fill="white"/>
</svg>
