<svg width="20" height="20" viewBox="0 0 20 20" fill="none" xmlns="http://www.w3.org/2000/svg">
<path d="M10 20C15.5228 20 20 15.5228 20 10C20 4.47715 15.5228 0 10 0C4.47715 0 0 4.47715 0 10C0 15.5228 4.47715 20 10 20Z" fill="#5DA9DD"/>
<g clip-path="url(#clip0)">
<path d="M16 6.27925C15.5538 6.475 15.0782 6.60475 14.5825 6.66775C15.0925 6.36325 15.4818 5.88475 15.6648 5.308C15.1892 5.5915 14.6642 5.79175 14.1047 5.9035C13.6532 5.42275 13.0097 5.125 12.3077 5.125C10.9457 5.125 9.84925 6.2305 9.84925 7.58575C9.84925 7.78075 9.86575 7.96825 9.90625 8.14675C7.861 8.047 6.05125 7.06675 4.8355 5.5735C4.62325 5.94175 4.49875 6.36325 4.49875 6.817C4.49875 7.669 4.9375 8.42425 5.5915 8.8615C5.19625 8.854 4.8085 8.73925 4.48 8.5585C4.48 8.566 4.48 8.57575 4.48 8.5855C4.48 9.781 5.33275 10.774 6.451 11.0027C6.25075 11.0575 6.0325 11.0837 5.806 11.0837C5.6485 11.0837 5.4895 11.0747 5.34025 11.0417C5.659 12.016 6.5635 12.7322 7.639 12.7555C6.802 13.4102 5.73925 13.8048 4.58875 13.8048C4.387 13.8048 4.1935 13.7957 4 13.771C5.08975 14.4738 6.38125 14.875 7.774 14.875C12.301 14.875 14.776 11.125 14.776 7.8745C14.776 7.76575 14.7723 7.66075 14.767 7.5565C15.2552 7.21 15.6655 6.77725 16 6.27925Z" fill="white"/>
</g>
<defs>
<clipPath id="clip0">
<rect width="12" height="12" fill="white" transform="translate(4 4)"/>
</clipPath>
</defs>
</svg>
