<svg width="56" height="56" viewBox="0 0 56 56" fill="none" xmlns="http://www.w3.org/2000/svg">
<path d="M37.3337 37.3333L28.0003 28L18.667 37.3333" stroke="#6E3FC3" stroke-width="2" stroke-linecap="round" stroke-linejoin="round"/>
<path d="M28 28V49" stroke="#6E3FC3" stroke-width="2" stroke-linecap="round" stroke-linejoin="round"/>
<path d="M47.5771 42.91C49.8529 41.6693 51.6507 39.7061 52.6868 37.3301C53.7229 34.9542 53.9382 32.3009 53.2989 29.7889C52.6595 27.277 51.2019 25.0495 49.156 23.458C47.1101 21.8666 44.5924 21.0017 42.0004 21H39.0604C38.3541 18.2682 37.0378 15.7321 35.2103 13.5823C33.3828 11.4325 31.0917 9.72499 28.5093 8.58809C25.9269 7.45119 23.1203 6.91451 20.3007 7.0184C17.481 7.12228 14.7216 7.86404 12.2298 9.18789C9.73806 10.5117 7.57886 12.3832 5.91451 14.6617C4.25017 16.9401 3.12401 19.5663 2.62068 22.3426C2.11736 25.1189 2.24997 27.9732 3.00856 30.6909C3.76715 33.4087 5.13196 35.919 7.0004 38.0333" stroke="#6E3FC3" stroke-width="2" stroke-linecap="round" stroke-linejoin="round"/>
<path d="M37.3337 37.3333L28.0003 28L18.667 37.3333" stroke="#6E3FC3" stroke-width="2" stroke-linecap="round" stroke-linejoin="round"/>
</svg>
