<svg width="24" height="24" viewBox="0 0 24 24" fill="none" xmlns="http://www.w3.org/2000/svg">
<path d="M22.4061 6.42C22.2882 5.94541 22.048 5.51057 21.7099 5.15941C21.3717 4.80824 20.9476 4.55318 20.4803 4.42C18.7729 4 11.9434 4 11.9434 4C11.9434 4 5.1138 4 3.40641 4.46C2.93911 4.59318 2.51497 4.84824 2.17684 5.19941C1.8387 5.55057 1.59855 5.98541 1.48063 6.46C1.16815 8.20556 1.01531 9.97631 1.024 11.75C1.01287 13.537 1.16573 15.3213 1.48063 17.08C1.61063 17.5398 1.85617 17.9581 2.19351 18.2945C2.53086 18.6308 2.94861 18.8738 3.40641 19C5.1138 19.46 11.9434 19.46 11.9434 19.46C11.9434 19.46 18.7729 19.46 20.4803 19C20.9476 18.8668 21.3717 18.6118 21.7099 18.2606C22.048 17.9094 22.2882 17.4746 22.4061 17C22.7162 15.2676 22.869 13.5103 22.8627 11.75C22.8739 9.96296 22.721 8.1787 22.4061 6.42V6.42Z" stroke="#404040" stroke-width="2" stroke-linecap="round" stroke-linejoin="round"/>
<path d="M9.70984 15.02L15.4177 11.75L9.70984 8.47998V15.02Z" stroke="#404040" stroke-width="2" stroke-linecap="round" stroke-linejoin="round"/>
</svg>
